//Event file generated from Sappy .s format.
        #include "MPlayDef.event"

        #define    FieldsOfExpel_grp  voicegroup000
        #define    FieldsOfExpel_pri  0
        #define    FieldsOfExpel_rev  0
        #define    FieldsOfExpel_key  0

        // .rodata
        // FieldsOfExpel
        ALIGN 4

//****************** Track 0 (Midi-Chn.0) ******************//

FieldsOfExpel_0:
        BYTE   KEYSH   FieldsOfExpel_key+0
// 000   ----------------------------------------
        BYTE   TEMPO   126/2
FieldsOfExpel_0_LOOP:
        BYTE           VOICE   49
        BYTE           VOL     57
        BYTE           N96     En5   v079
        BYTE           TIE     En1   v127
        BYTE   W96
// 001   ----------------------------------------
FieldsOfExpel_0_1:
        BYTE           N48     Dn5   v079
        BYTE   W48
        BYTE                   Fs5
        BYTE   W48
        BYTE   PEND
// 002   ----------------------------------------
        BYTE           N96     En5
        BYTE   W96
// 003   ----------------------------------------
FieldsOfExpel_0_3:
        BYTE           EOT     En1
        BYTE           N48     Fs5   v079
        BYTE           N96     Bn1   v127
        BYTE   W48
        BYTE           N48     Bn5   v079
        BYTE   W48
        BYTE   PEND
// 004   ----------------------------------------
FieldsOfExpel_0_4:
        BYTE           N96     Gn5   v079
        BYTE           N96     En1   v127
        BYTE   W96
        BYTE   PEND
// 005   ----------------------------------------
FieldsOfExpel_0_5:
        BYTE           N48     An5   v079
        BYTE           N96     Dn1   v127
        BYTE   W48
        BYTE           N48     Fs5   v079
        BYTE   W48
        BYTE   PEND
// 006   ----------------------------------------
FieldsOfExpel_0_6:
        BYTE           N96     En5   v079
        BYTE           N96     Cn1   v127
        BYTE   W96
        BYTE   PEND
// 007   ----------------------------------------
FieldsOfExpel_0_7:
        BYTE           N96     Ds5   v079
        BYTE           N96     Bn1   v127
        BYTE   W96
        BYTE   PEND
// 008   ----------------------------------------
        BYTE                   En5   v079
        BYTE           TIE     En1   v127
        BYTE   W96
// 009   ----------------------------------------
        BYTE   PATT
         POIN2  FieldsOfExpel_0_1
// 010   ----------------------------------------
        BYTE           N96     En5   v079
        BYTE   W96
// 011   ----------------------------------------
        BYTE   PATT
         POIN2  FieldsOfExpel_0_3
// 012   ----------------------------------------
        BYTE   PATT
         POIN2  FieldsOfExpel_0_4
// 013   ----------------------------------------
        BYTE   PATT
         POIN2  FieldsOfExpel_0_5
// 014   ----------------------------------------
        BYTE   PATT
         POIN2  FieldsOfExpel_0_6
// 015   ----------------------------------------
        BYTE   PATT
         POIN2  FieldsOfExpel_0_7
// 016   ----------------------------------------
FieldsOfExpel_0_16:
        BYTE           N48     Bn3   v095
        BYTE           N96     En1   v127
        BYTE           N96     En5   v079
        BYTE   W48
        BYTE           N18     Bn3   v095
        BYTE   W18
        BYTE                   An3
        BYTE   W18
        BYTE           N12     Gn3
        BYTE   W12
        BYTE   PEND
// 017   ----------------------------------------
FieldsOfExpel_0_17:
        BYTE           N48     Fs3   v095
        BYTE           N96     Dn1   v127
        BYTE           N96     Fs5   v079
        BYTE   W48
        BYTE           N48     Dn3   v095
        BYTE   W48
        BYTE   PEND
// 018   ----------------------------------------
FieldsOfExpel_0_18:
        BYTE           N48     En3   v095
        BYTE           N96     Cn1   v127
        BYTE           N96     Gn5   v079
        BYTE   W48
        BYTE           N03     Fs3   v095
        BYTE   W03
        BYTE                   Gn3
        BYTE   W03
        BYTE           N42     Cn4
        BYTE   W42
        BYTE   PEND
// 019   ----------------------------------------
FieldsOfExpel_0_19:
        BYTE           N48     An3   v095
        BYTE           N96     En1   v127
        BYTE           N96     An5   v079
        BYTE   W48
        BYTE           N03     Bn3   v095
        BYTE   W03
        BYTE                   Cn4
        BYTE   W03
        BYTE           N42     Cs4
        BYTE   W42
        BYTE   PEND
// 020   ----------------------------------------
FieldsOfExpel_0_20:
        BYTE           N48     Dn4   v079
        BYTE           N96     An5
        BYTE           N18     Fn1   v095
        BYTE   W18
        BYTE                   En1
        BYTE   W18
        BYTE           N12     Dn1
        BYTE   W12
        BYTE           N23     An1
        BYTE   W12
        BYTE           N12     Dn4   v079
        BYTE   W12
        BYTE                   En4
        BYTE           N23     Dn2   v095
        BYTE   W12
        BYTE           N12     Fn4   v079
        BYTE   W12
        BYTE   PEND
// 021   ----------------------------------------
FieldsOfExpel_0_21:
        BYTE           N36     Gn4   v079
        BYTE           N36     En2   v095
        BYTE           N96     Gn5   v079
        BYTE   W48
        BYTE           N18     Gn4
        BYTE           N18     En2   v095
        BYTE   W18
        BYTE                   Fn4   v079
        BYTE           N18     Dn2   v095
        BYTE   W18
        BYTE           N12     En4   v079
        BYTE           N12     Cn2   v095
        BYTE   W12
        BYTE   PEND
// 022   ----------------------------------------
FieldsOfExpel_0_22:
        BYTE           N06     Fn4   v079
        BYTE           N06     Dn2   v095
        BYTE           N96     Fn5   v079
        BYTE   W06
        BYTE           N06     En4
        BYTE           N06     Cn2   v095
        BYTE   W06
        BYTE           N36     Fn4   v079
        BYTE           N36     Dn2   v095
        BYTE   W36
        BYTE           N18     An4   v079
        BYTE           N18     Fn2   v095
        BYTE   W18
        BYTE                   Gn4   v079
        BYTE           N18     En2   v095
        BYTE   W18
        BYTE           N12     Fn4   v079
        BYTE           N12     Dn2   v095
        BYTE   W12
        BYTE   PEND
// 023   ----------------------------------------
FieldsOfExpel_0_23:
        BYTE           N48     En4   v079
        BYTE           N48     Cs2   v095
        BYTE           N96     An5   v079
        BYTE   W48
        BYTE           N48     An4
        BYTE           N48     An1   v095
        BYTE   W48
        BYTE   PEND
// 024   ----------------------------------------
FieldsOfExpel_0_24:
        BYTE           N48     Dn4   v079
        BYTE           TIE     An5
        BYTE           N18     Fn1   v095
        BYTE   W18
        BYTE                   En1
        BYTE   W18
        BYTE           N12     Dn1
        BYTE   W12
        BYTE           N23     An1
        BYTE   W12
        BYTE           N12     Dn4   v079
        BYTE   W12
        BYTE                   En4
        BYTE           N23     Dn2   v095
        BYTE   W12
        BYTE           N12     Fn4   v079
        BYTE   W12
        BYTE   PEND
// 025   ----------------------------------------
FieldsOfExpel_0_25:
        BYTE           N36     Gn4   v079
        BYTE           N36     En2   v095
        BYTE   W48
        BYTE           EOT     An5
        BYTE           N18     Gn4   v079
        BYTE           N18     En2   v095
        BYTE           N48     Gn5   v079
        BYTE   W18
        BYTE           N18     Fn4
        BYTE           N18     Dn2   v095
        BYTE   W18
        BYTE           N12     En4   v079
        BYTE           N12     Cn2   v095
        BYTE   W12
        BYTE   PEND
// 026   ----------------------------------------
FieldsOfExpel_0_26:
        BYTE           N06     Fn4   v079
        BYTE           N06     Dn2   v095
        BYTE           TIE     An5   v079
        BYTE   W06
        BYTE           N06     En4
        BYTE           N06     Cn2   v095
        BYTE   W06
        BYTE           N36     Fn4   v079
        BYTE           N36     Dn2   v095
        BYTE   W36
        BYTE           N18     An4   v079
        BYTE           N18     Fn2   v095
        BYTE   W18
        BYTE                   Gn4   v079
        BYTE           N18     En2   v095
        BYTE   W18
        BYTE           N12     Fn4   v079
        BYTE           N12     Dn2   v095
        BYTE   W12
        BYTE   PEND
// 027   ----------------------------------------
FieldsOfExpel_0_27:
        BYTE           N48     En4   v079
        BYTE           N48     Cs2   v095
        BYTE   W48
        BYTE                   An4   v079
        BYTE           N48     An1   v095
        BYTE   W48
        BYTE   PEND
// 028   ----------------------------------------
FieldsOfExpel_0_28:
        BYTE           EOT     An5
        BYTE           N48     Gn4   v111
        BYTE           N96     As1   v127
        BYTE           N96     As5   v095
        BYTE   W48
        BYTE           N48     Dn4   v111
        BYTE   W48
        BYTE   PEND
// 029   ----------------------------------------
FieldsOfExpel_0_29:
        BYTE           N36     En4   v111
        BYTE           N96     Cn2   v127
        BYTE           N96     Cn6   v095
        BYTE   W36
        BYTE           N06     Gn4   v111
        BYTE   W06
        BYTE                   Fn4
        BYTE   W06
        BYTE           N18     En4
        BYTE   W18
        BYTE                   Fn4
        BYTE   W18
        BYTE           N12     Gn4
        BYTE   W12
        BYTE   PEND
// 030   ----------------------------------------
        BYTE           TIE     En1   v100
        BYTE           N96     Bn2   v111
        BYTE           N96     En4
        BYTE           VOL     49
        BYTE   W96
// 031   ----------------------------------------
FieldsOfExpel_0_31:
        BYTE           N96     Dn3   v111
        BYTE           N96     Gn4
        BYTE   W96
        BYTE   PEND
// 032   ----------------------------------------
FieldsOfExpel_0_32:
        BYTE           EOT     En1
        BYTE           TIE     En1   v100
        BYTE           N96     Cs3   v111
        BYTE           N96     Fs4
        BYTE   W96
        BYTE   PEND
// 033   ----------------------------------------
FieldsOfExpel_0_33:
        BYTE           N96     Cn3   v111
        BYTE           N96     Fn4
        BYTE   W96
        BYTE   PEND
// 034   ----------------------------------------
        BYTE           EOT     En1
        BYTE           TIE     En1   v100
        BYTE           N96     Bn2   v111
        BYTE           N96     En4
        BYTE   W96
// 035   ----------------------------------------
        BYTE   PATT
         POIN2  FieldsOfExpel_0_31
// 036   ----------------------------------------
        BYTE   PATT
         POIN2  FieldsOfExpel_0_32
// 037   ----------------------------------------
        BYTE   PATT
         POIN2  FieldsOfExpel_0_33
// 038   ----------------------------------------
        BYTE           EOT     En1
        BYTE           VOL     54
        BYTE           N96     En5   v079
        BYTE           TIE     En1   v127
        BYTE   W96
// 039   ----------------------------------------
        BYTE   PATT
         POIN2  FieldsOfExpel_0_1
// 040   ----------------------------------------
        BYTE           N96     En5   v079
        BYTE   W96
// 041   ----------------------------------------
        BYTE           EOT     En1
        BYTE           N48     Fs5
        BYTE           N96     Bn0   v127
        BYTE   W48
        BYTE           N48     Bn5   v079
        BYTE   W48
// 042   ----------------------------------------
        BYTE   PATT
         POIN2  FieldsOfExpel_0_4
// 043   ----------------------------------------
        BYTE   PATT
         POIN2  FieldsOfExpel_0_5
// 044   ----------------------------------------
        BYTE   PATT
         POIN2  FieldsOfExpel_0_6
// 045   ----------------------------------------
        BYTE           N96     Ds5   v079
        BYTE           N96     Bn0   v127
        BYTE   W96
// 046   ----------------------------------------
        BYTE   PATT
         POIN2  FieldsOfExpel_0_16
// 047   ----------------------------------------
        BYTE   PATT
         POIN2  FieldsOfExpel_0_17
// 048   ----------------------------------------
        BYTE   PATT
         POIN2  FieldsOfExpel_0_18
// 049   ----------------------------------------
        BYTE   PATT
         POIN2  FieldsOfExpel_0_19
// 050   ----------------------------------------
        BYTE   PATT
         POIN2  FieldsOfExpel_0_20
// 051   ----------------------------------------
        BYTE   PATT
         POIN2  FieldsOfExpel_0_21
// 052   ----------------------------------------
        BYTE   PATT
         POIN2  FieldsOfExpel_0_22
// 053   ----------------------------------------
        BYTE   PATT
         POIN2  FieldsOfExpel_0_23
// 054   ----------------------------------------
        BYTE   PATT
         POIN2  FieldsOfExpel_0_24
// 055   ----------------------------------------
        BYTE   PATT
         POIN2  FieldsOfExpel_0_25
// 056   ----------------------------------------
        BYTE   PATT
         POIN2  FieldsOfExpel_0_26
// 057   ----------------------------------------
        BYTE   PATT
         POIN2  FieldsOfExpel_0_27
// 058   ----------------------------------------
        BYTE   PATT
         POIN2  FieldsOfExpel_0_28
// 059   ----------------------------------------
        BYTE   PATT
         POIN2  FieldsOfExpel_0_29
// 060   ----------------------------------------
        BYTE           N96     En4   v111
        BYTE           N96     Bn2
        BYTE           TIE     En1   v100
        BYTE   W96
// 061   ----------------------------------------
FieldsOfExpel_0_61:
        BYTE           N96     Gn4   v111
        BYTE           N96     Dn3
        BYTE   W96
        BYTE   PEND
// 062   ----------------------------------------
FieldsOfExpel_0_62:
        BYTE           EOT     En1
        BYTE           N96     Fs4   v111
        BYTE           N96     Cs3
        BYTE           TIE     En1   v100
        BYTE   W96
        BYTE   PEND
// 063   ----------------------------------------
FieldsOfExpel_0_63:
        BYTE           N96     Fn4   v111
        BYTE           N96     Cn3
        BYTE   W96
        BYTE   PEND
// 064   ----------------------------------------
FieldsOfExpel_0_64:
        BYTE           EOT     En1
        BYTE           N96     En4   v111
        BYTE           N96     Bn2
        BYTE           TIE     En1   v100
        BYTE   W96
        BYTE   PEND
// 065   ----------------------------------------
        BYTE   PATT
         POIN2  FieldsOfExpel_0_61
// 066   ----------------------------------------
        BYTE   PATT
         POIN2  FieldsOfExpel_0_62
// 067   ----------------------------------------
        BYTE   PATT
         POIN2  FieldsOfExpel_0_63
// 068   ----------------------------------------
        BYTE   PATT
         POIN2  FieldsOfExpel_0_64
// 069   ----------------------------------------
        BYTE   PATT
         POIN2  FieldsOfExpel_0_61
// 070   ----------------------------------------
        BYTE   PATT
         POIN2  FieldsOfExpel_0_62
// 071   ----------------------------------------
        BYTE   PATT
         POIN2  FieldsOfExpel_0_63
// 072   ----------------------------------------
        BYTE   PATT
         POIN2  FieldsOfExpel_0_32
// 073   ----------------------------------------
        BYTE   PATT
         POIN2  FieldsOfExpel_0_61
// 074   ----------------------------------------
        BYTE           EOT     En1
        BYTE           TIE     En1   v100
        BYTE           N96     Ds3   v111
        BYTE           N96     Gs4
        BYTE   W96
// 075   ----------------------------------------
        BYTE                   An4
        BYTE           N96     En3
        BYTE   W96
// 076   ----------------------------------------
        BYTE           EOT     En1
        BYTE           VOL     45
        BYTE           TIE     En5   v075
        BYTE           TIE     En4
        BYTE   W24
        BYTE           VOL     43
        BYTE   W24
        BYTE                   45
        BYTE           TIE     Cn3   v050
        BYTE   W24
        BYTE           VOL     48
        BYTE   W24
// 077   ----------------------------------------
FieldsOfExpel_0_77:
        BYTE           N96     An3   v080
        BYTE           VOL     51
        BYTE   W24
        BYTE                   54
        BYTE   W24
        BYTE                   57
        BYTE   W24
        BYTE                   61
        BYTE   W24
        BYTE   PEND
// 078   ----------------------------------------
        BYTE           EOT     Cn3
        BYTE                   En4
        BYTE                   En5
        BYTE           TIE     Fs4   v090
        BYTE           TIE     Fs5
        BYTE           VOL     53
        BYTE           TIE     An3   v095
        BYTE           TIE     Cs3   v080
        BYTE   W24
        BYTE           VOL     52
        BYTE   W24
        BYTE                   51
        BYTE   W24
        BYTE                   50
        BYTE   W24
// 079   ----------------------------------------
FieldsOfExpel_0_79:
        BYTE           VOL     48
        BYTE   W24
        BYTE                   46
        BYTE   W24
        BYTE           EOT     An3
        BYTE           N48     Gs3   v085
        BYTE           VOL     43
        BYTE   W24
        BYTE                   42
        BYTE   W24
        BYTE   PEND
// 080   ----------------------------------------
        BYTE           EOT     Fs5
        BYTE                   Fs4
        BYTE                   Cs3
        BYTE           TIE     En4   v075
        BYTE           TIE     En5
        BYTE           VOL     45
        BYTE           TIE     Cn3   v050
        BYTE   W24
        BYTE           VOL     43
        BYTE   W24
        BYTE                   45
        BYTE   W24
        BYTE                   48
        BYTE   W24
// 081   ----------------------------------------
        BYTE   PATT
         POIN2  FieldsOfExpel_0_77
// 082   ----------------------------------------
        BYTE           EOT     Cn3
        BYTE                   En5
        BYTE                   En4
        BYTE           TIE     Gn3   v095
        BYTE           N96     Ds4   v090
        BYTE           N96     Ds5
        BYTE           VOL     53
        BYTE           TIE     Cn3   v070
        BYTE   W24
        BYTE           VOL     52
        BYTE   W24
        BYTE                   51
        BYTE   W24
        BYTE                   50
        BYTE   W24
// 083   ----------------------------------------
        BYTE           N96     Dn5   v080
        BYTE           N96     Dn4
        BYTE           VOL     48
        BYTE   W24
        BYTE                   46
        BYTE   W24
        BYTE                   43
        BYTE   W24
        BYTE                   42
        BYTE   W24
// 084   ----------------------------------------
        BYTE           EOT     Gn3
        BYTE                   Cn3
        BYTE           TIE     En5   v070
        BYTE           TIE     En4   v075
        BYTE           VOL     45
        BYTE           TIE     Cn3   v050
        BYTE   W24
        BYTE           VOL     43
        BYTE   W24
        BYTE                   45
        BYTE   W24
        BYTE                   48
        BYTE   W24
// 085   ----------------------------------------
        BYTE   PATT
         POIN2  FieldsOfExpel_0_77
// 086   ----------------------------------------
        BYTE           EOT     Cn3
        BYTE                   En4
        BYTE                   En5
        BYTE           TIE     Fs5   v085
        BYTE           TIE     An3   v095
        BYTE           TIE     Fs4   v090
        BYTE           VOL     53
        BYTE           TIE     Cs3   v080
        BYTE   W24
        BYTE           VOL     52
        BYTE   W24
        BYTE                   51
        BYTE   W24
        BYTE                   50
        BYTE   W24
// 087   ----------------------------------------
        BYTE   PATT
         POIN2  FieldsOfExpel_0_79
// 088   ----------------------------------------
        BYTE           EOT     Fs5
        BYTE                   Fs4
        BYTE                   Cs3
        BYTE           TIE     En5   v070
        BYTE           TIE     En4   v075
        BYTE           TIE     Cn3   v050
        BYTE   W96
// 089   ----------------------------------------
        BYTE           N96     An3   v080
        BYTE   W96
// 090   ----------------------------------------
        BYTE           EOT     Cn3
        BYTE                   En4
        BYTE                   En5
        BYTE           N96     Ds5   v090
        BYTE           TIE     Gn3   v095
        BYTE           N96     Ds4   v090
        BYTE           TIE     Cn3   v080
        BYTE   W96
// 091   ----------------------------------------
        BYTE           N48     Dn4   v085
        BYTE           N48     Dn5
        BYTE   W48
        BYTE                   As4   v080
        BYTE           N48     As3
        BYTE   W48
// 092   ----------------------------------------
        BYTE           EOT     Gn3
        BYTE                   Cn3
        BYTE           TIE     An1   v082
        BYTE           VOL     65
        BYTE           TIE     En4   v055
        BYTE           TIE     En5
        BYTE           TIE     Cn3
        BYTE   W96
// 093   ----------------------------------------
        BYTE           N96     An3
        BYTE   W96
// 094   ----------------------------------------
        BYTE           EOT     En5
        BYTE                   En4
        BYTE                   An1
        BYTE                   Cn3
        BYTE           TIE     Fs5
        BYTE           TIE     Fs4
        BYTE           TIE     Cs3
        BYTE           TIE     An3
        BYTE           TIE     Fs1   v082
        BYTE   W96
// 095   ----------------------------------------
        BYTE   W48
        BYTE           EOT     An3
        BYTE           N48     Gs3   v055
        BYTE   W48
// 096   ----------------------------------------
        BYTE           EOT     Fs5
        BYTE                   Fs4
        BYTE                   Cs3
        BYTE                   Fs1
        BYTE           N96     Cn3
        BYTE           TIE     An1   v082
        BYTE           TIE     En5   v055
        BYTE           TIE     En4
        BYTE   W48
        BYTE                   An3
        BYTE   W48
// 097   ----------------------------------------
        BYTE           N48     Bn2
        BYTE   W48
        BYTE                   Cn3
        BYTE   W48
// 098   ----------------------------------------
        BYTE           EOT     An1
        BYTE                   An3
        BYTE                   En5
        BYTE                   En4
        BYTE           TIE     Cn1   v092
        BYTE           TIE     Gn3   v065
        BYTE           TIE     Cn3
        BYTE           N96     Ds4
        BYTE           N96     Ds5
        BYTE   W96
// 099   ----------------------------------------
        BYTE           N48     Dn5
        BYTE           N48     Dn4
        BYTE   W48
        BYTE                   As4
        BYTE           N48     As3
        BYTE   W48
// 100   ----------------------------------------
        BYTE           EOT     Cn1
        BYTE                   Gn3
        BYTE                   Cn3
        BYTE           N48     En3   v100
        BYTE           VOL     58
        BYTE           TIE     En0
        BYTE           TIE     En2
        BYTE           TIE     En1
        BYTE   W48
        BYTE           N24     Dn3
        BYTE   W24
        BYTE                   Gn3
        BYTE   W24
// 101   ----------------------------------------
FieldsOfExpel_0_101:
        BYTE           N48     Fs3   v100
        BYTE   W48
        BYTE           N24     An3
        BYTE   W24
        BYTE                   Dn3
        BYTE   W24
        BYTE   PEND
// 102   ----------------------------------------
FieldsOfExpel_0_102:
        BYTE           N36     En3   v100
        BYTE   W36
        BYTE           N60     An3
        BYTE   W60
        BYTE   PEND
// 103   ----------------------------------------
FieldsOfExpel_0_103:
        BYTE           N48     Gn3   v100
        BYTE   W48
        BYTE           N24     En3
        BYTE   W24
        BYTE                   Dn3
        BYTE   W24
        BYTE   PEND
// 104   ----------------------------------------
        BYTE           EOT     En0
        BYTE                   En2
        BYTE                   En1
        BYTE           N48     En3
        BYTE           TIE     En0
        BYTE           TIE     En2
        BYTE           TIE     En1
        BYTE   W48
        BYTE           N24     Dn3
        BYTE   W24
        BYTE                   Gn3
        BYTE   W24
// 105   ----------------------------------------
        BYTE   PATT
         POIN2  FieldsOfExpel_0_101
// 106   ----------------------------------------
FieldsOfExpel_0_106:
        BYTE           N36     Dn3   v100
        BYTE   W36
        BYTE           N60     En3
        BYTE   W60
        BYTE   PEND
// 107   ----------------------------------------
        BYTE           N96     Fs3
        BYTE   W96
// 108   ----------------------------------------
FieldsOfExpel_0_108:
        BYTE           EOT     En0
        BYTE                   En2
        BYTE                   En1
        BYTE           N48     En3   v100
        BYTE           TIE     En0
        BYTE           TIE     En2
        BYTE           TIE     En1
        BYTE           N48     Bn3
        BYTE   W48
        BYTE           N24     Dn3
        BYTE           N24     An3
        BYTE   W24
        BYTE                   Gn3
        BYTE           N24     Dn4
        BYTE   W24
        BYTE   PEND
// 109   ----------------------------------------
FieldsOfExpel_0_109:
        BYTE           N48     Fs3   v100
        BYTE           N96     Bn3
        BYTE   W48
        BYTE           N24     An3
        BYTE   W24
        BYTE                   Dn3
        BYTE   W24
        BYTE   PEND
// 110   ----------------------------------------
        BYTE           N36     En3
        BYTE           N36     Bn3
        BYTE   W36
        BYTE           N60     An3
        BYTE           N60     En4
        BYTE   W60
// 111   ----------------------------------------
        BYTE           N48     Gn3
        BYTE           N48     Dn4
        BYTE   W48
        BYTE           N24     En3
        BYTE           N48     An3
        BYTE   W24
        BYTE           N24     Dn3
        BYTE   W24
// 112   ----------------------------------------
        BYTE   PATT
         POIN2  FieldsOfExpel_0_108
// 113   ----------------------------------------
        BYTE   PATT
         POIN2  FieldsOfExpel_0_109
// 114   ----------------------------------------
        BYTE           N36     Dn3   v100
        BYTE           N48     Bn3
        BYTE   W36
        BYTE           N60     En3
        BYTE   W12
        BYTE           N48     Dn4
        BYTE   W48
// 115   ----------------------------------------
        BYTE           N96     Fs3
        BYTE           N96     En4
        BYTE   W96
// 116   ----------------------------------------
        BYTE           EOT     En0
        BYTE                   En2
        BYTE                   En1
        BYTE           TIE     En5
        BYTE           TIE     En4
        BYTE           TIE     An1
        BYTE           VOL     61
        BYTE           TIE     Cn3
        BYTE   W96
// 117   ----------------------------------------
        BYTE           N96     An3
        BYTE   W96
// 118   ----------------------------------------
        BYTE           EOT     An1
        BYTE                   En4
        BYTE                   En5
        BYTE                   Cn3
        BYTE           TIE     Fs5
        BYTE           TIE     Fs4
        BYTE           TIE     Cs3
        BYTE           TIE     An3
        BYTE           TIE     Fs1
        BYTE   W96
// 119   ----------------------------------------
FieldsOfExpel_0_119:
        BYTE   W48
        BYTE           EOT     An3
        BYTE           N48     Gs3   v100
        BYTE   W48
        BYTE   PEND
// 120   ----------------------------------------
FieldsOfExpel_0_120:
        BYTE           EOT     Fs5
        BYTE                   Fs4
        BYTE                   Cs3
        BYTE                   Fs1
        BYTE           N96     Cn3   v100
        BYTE           TIE     An1
        BYTE           TIE     En5
        BYTE           TIE     En4
        BYTE   W48
        BYTE                   An3
        BYTE   W48
        BYTE   PEND
// 121   ----------------------------------------
FieldsOfExpel_0_121:
        BYTE           N48     Bn2   v100
        BYTE   W48
        BYTE                   Cn3
        BYTE   W48
        BYTE   PEND
// 122   ----------------------------------------
        BYTE           EOT     An1
        BYTE                   An3
        BYTE                   En5
        BYTE                   En4
        BYTE           N96     Ds5
        BYTE           N96     Ds4
        BYTE           TIE     Cn3
        BYTE           TIE     Gn3
        BYTE           TIE     Cn1
        BYTE   W96
// 123   ----------------------------------------
        BYTE           N48     Dn5
        BYTE           N48     Dn4
        BYTE   W48
        BYTE                   As3
        BYTE           N48     As4
        BYTE   W48
// 124   ----------------------------------------
        BYTE           EOT     Cn3
        BYTE                   Gn3
        BYTE                   Cn1
        BYTE           TIE     An1
        BYTE           TIE     En4
        BYTE           TIE     En5
        BYTE           TIE     Cn3
        BYTE   W96
// 125   ----------------------------------------
        BYTE           N96     An3
        BYTE   W96
// 126   ----------------------------------------
        BYTE           EOT     En5
        BYTE                   En4
        BYTE                   An1
        BYTE                   Cn3
        BYTE           TIE     Fs5
        BYTE           TIE     Fs4
        BYTE           TIE     Cs3
        BYTE           TIE     An3
        BYTE           TIE     Fs1
        BYTE   W96
// 127   ----------------------------------------
        BYTE   PATT
         POIN2  FieldsOfExpel_0_119
// 128   ----------------------------------------
        BYTE   PATT
         POIN2  FieldsOfExpel_0_120
// 129   ----------------------------------------
        BYTE   PATT
         POIN2  FieldsOfExpel_0_121
// 130   ----------------------------------------
        BYTE           EOT     An1
        BYTE                   An3
        BYTE                   En5
        BYTE                   En4
        BYTE           N96     Ds5   v100
        BYTE           N96     Ds4
        BYTE           TIE     Cn3
        BYTE           TIE     Cn1
        BYTE           TIE     Gn3
        BYTE   W96
// 131   ----------------------------------------
        BYTE           N48     Dn5
        BYTE           N48     Dn4
        BYTE   W48
        BYTE           N44     As4   v100   gtp3
        BYTE                   As3
        BYTE   W44
        BYTE   W03
        BYTE           EOT     Cn3
        BYTE                   Cn1
        BYTE                   Gn3
        BYTE           VOL     57
        BYTE   GoTo
         POIN2  FieldsOfExpel_0_LOOP
        BYTE   FINE

//****************** Track 1 (Midi-Chn.1) ******************//

FieldsOfExpel_1:
        BYTE   KEYSH   FieldsOfExpel_key+0
// 000   ----------------------------------------
FieldsOfExpel_1_LOOP:
        BYTE           VOICE   60
        BYTE           VOL     45
        BYTE           N36     En3   v100
        BYTE   W36
        BYTE                   Bn2
        BYTE   W36
        BYTE           N24     Gn3   v127
        BYTE   W24
// 001   ----------------------------------------
FieldsOfExpel_1_1:
        BYTE           N36     Fs3   v127
        BYTE   W36
        BYTE                   Dn3
        BYTE   W36
        BYTE           N24     Fs3
        BYTE   W24
        BYTE   PEND
// 002   ----------------------------------------
FieldsOfExpel_1_2:
        BYTE           N36     En3   v127
        BYTE   W36
        BYTE           TIE     Bn2
        BYTE   W60
        BYTE   PEND
// 003   ----------------------------------------
        BYTE   W96
// 004   ----------------------------------------
FieldsOfExpel_1_4:
        BYTE           EOT     Bn2
        BYTE           N36     En3   v100
        BYTE   W36
        BYTE                   Bn2
        BYTE   W36
        BYTE           N24     Gn3   v127
        BYTE   W24
        BYTE   PEND
// 005   ----------------------------------------
FieldsOfExpel_1_5:
        BYTE           N06     Fs3   v127
        BYTE   W06
        BYTE                   Gn3
        BYTE   W06
        BYTE           N36     An3
        BYTE   W36
        BYTE           N18     Dn4
        BYTE   W18
        BYTE                   Cn4
        BYTE   W18
        BYTE           N12     Bn3
        BYTE   W12
        BYTE   PEND
// 006   ----------------------------------------
FieldsOfExpel_1_6:
        BYTE           N36     Cn4   v127
        BYTE   W36
        BYTE           N60     Gn3
        BYTE   W60
        BYTE   PEND
// 007   ----------------------------------------
        BYTE           N96     Fs3
        BYTE   W96
// 008   ----------------------------------------
FieldsOfExpel_1_8:
        BYTE           N36     En3   v100
        BYTE   W36
        BYTE                   Bn2
        BYTE   W36
        BYTE           N24     Gn3   v127
        BYTE   W24
        BYTE   PEND
// 009   ----------------------------------------
        BYTE   PATT
         POIN2  FieldsOfExpel_1_1
// 010   ----------------------------------------
        BYTE   PATT
         POIN2  FieldsOfExpel_1_2
// 011   ----------------------------------------
        BYTE   W96
// 012   ----------------------------------------
        BYTE   PATT
         POIN2  FieldsOfExpel_1_4
// 013   ----------------------------------------
        BYTE   PATT
         POIN2  FieldsOfExpel_1_5
// 014   ----------------------------------------
        BYTE   PATT
         POIN2  FieldsOfExpel_1_6
// 015   ----------------------------------------
        BYTE           N96     Fs3   v127
        BYTE   W96
// 016   ----------------------------------------
        BYTE   W96
// 017   ----------------------------------------
        BYTE   W96
// 018   ----------------------------------------
        BYTE   W96
// 019   ----------------------------------------
        BYTE   W96
// 020   ----------------------------------------
FieldsOfExpel_1_20:
        BYTE           N18     Fn3   v095
        BYTE   W18
        BYTE                   En3
        BYTE   W18
        BYTE           N12     Dn3
        BYTE   W12
        BYTE           N23     An3
        BYTE   W24
        BYTE                   Dn4
        BYTE   W24
        BYTE   PEND
// 021   ----------------------------------------
FieldsOfExpel_1_21:
        BYTE           N36     En4   v095
        BYTE   W48
        BYTE           N18
        BYTE   W18
        BYTE                   Dn4
        BYTE   W18
        BYTE           N12     Cn4
        BYTE   W12
        BYTE   PEND
// 022   ----------------------------------------
FieldsOfExpel_1_22:
        BYTE           N06     Dn4   v095
        BYTE   W06
        BYTE                   Cn4
        BYTE   W06
        BYTE           N36     Dn4
        BYTE   W36
        BYTE           N18     Fn4
        BYTE   W18
        BYTE                   En4
        BYTE   W18
        BYTE           N12     Dn4
        BYTE   W12
        BYTE   PEND
// 023   ----------------------------------------
FieldsOfExpel_1_23:
        BYTE           N48     Cs4   v095
        BYTE   W48
        BYTE                   An3
        BYTE   W48
        BYTE   PEND
// 024   ----------------------------------------
        BYTE   PATT
         POIN2  FieldsOfExpel_1_20
// 025   ----------------------------------------
        BYTE   PATT
         POIN2  FieldsOfExpel_1_21
// 026   ----------------------------------------
        BYTE   PATT
         POIN2  FieldsOfExpel_1_22
// 027   ----------------------------------------
        BYTE   PATT
         POIN2  FieldsOfExpel_1_23
// 028   ----------------------------------------
FieldsOfExpel_1_28:
        BYTE           N18     Dn3   v111
        BYTE   W18
        BYTE                   En3
        BYTE   W18
        BYTE           N12     Fn3
        BYTE   W12
        BYTE           N36     As3
        BYTE   W36
        BYTE           N06     An3
        BYTE   W06
        BYTE                   As3
        BYTE   W06
        BYTE   PEND
// 029   ----------------------------------------
FieldsOfExpel_1_29:
        BYTE           N36     Gn3   v111
        BYTE   W36
        BYTE           N06     Fn3
        BYTE   W06
        BYTE                   Gn3
        BYTE   W06
        BYTE           N48     Cn4
        BYTE   W48
        BYTE   PEND
// 030   ----------------------------------------
        BYTE   W96
// 031   ----------------------------------------
        BYTE   W96
// 032   ----------------------------------------
        BYTE   W96
// 033   ----------------------------------------
        BYTE   W96
// 034   ----------------------------------------
        BYTE   W96
// 035   ----------------------------------------
        BYTE   W96
// 036   ----------------------------------------
        BYTE   W96
// 037   ----------------------------------------
FieldsOfExpel_1_37:
        BYTE           N96     As3   v079
        BYTE           N96     Dn3   v100
        BYTE   W96
        BYTE   PEND
// 038   ----------------------------------------
        BYTE   PATT
         POIN2  FieldsOfExpel_1_8
// 039   ----------------------------------------
        BYTE   PATT
         POIN2  FieldsOfExpel_1_1
// 040   ----------------------------------------
        BYTE   PATT
         POIN2  FieldsOfExpel_1_2
// 041   ----------------------------------------
        BYTE   W96
// 042   ----------------------------------------
        BYTE   PATT
         POIN2  FieldsOfExpel_1_4
// 043   ----------------------------------------
        BYTE   PATT
         POIN2  FieldsOfExpel_1_5
// 044   ----------------------------------------
        BYTE   PATT
         POIN2  FieldsOfExpel_1_6
// 045   ----------------------------------------
        BYTE           N96     Fs3   v127
        BYTE   W96
// 046   ----------------------------------------
        BYTE   W96
// 047   ----------------------------------------
        BYTE   W96
// 048   ----------------------------------------
        BYTE   W96
// 049   ----------------------------------------
        BYTE   W96
// 050   ----------------------------------------
        BYTE   PATT
         POIN2  FieldsOfExpel_1_20
// 051   ----------------------------------------
        BYTE   PATT
         POIN2  FieldsOfExpel_1_21
// 052   ----------------------------------------
        BYTE   PATT
         POIN2  FieldsOfExpel_1_22
// 053   ----------------------------------------
        BYTE   PATT
         POIN2  FieldsOfExpel_1_23
// 054   ----------------------------------------
        BYTE   PATT
         POIN2  FieldsOfExpel_1_20
// 055   ----------------------------------------
        BYTE   PATT
         POIN2  FieldsOfExpel_1_21
// 056   ----------------------------------------
        BYTE   PATT
         POIN2  FieldsOfExpel_1_22
// 057   ----------------------------------------
        BYTE   PATT
         POIN2  FieldsOfExpel_1_23
// 058   ----------------------------------------
        BYTE   PATT
         POIN2  FieldsOfExpel_1_28
// 059   ----------------------------------------
        BYTE   PATT
         POIN2  FieldsOfExpel_1_29
// 060   ----------------------------------------
        BYTE   W96
// 061   ----------------------------------------
        BYTE   W96
// 062   ----------------------------------------
        BYTE   W96
// 063   ----------------------------------------
        BYTE   W96
// 064   ----------------------------------------
        BYTE   W96
// 065   ----------------------------------------
        BYTE   W96
// 066   ----------------------------------------
        BYTE   W96
// 067   ----------------------------------------
        BYTE   PATT
         POIN2  FieldsOfExpel_1_37
// 068   ----------------------------------------
        BYTE           N96     An3   v100
        BYTE   W96
// 069   ----------------------------------------
        BYTE                   Gn3
        BYTE   W96
// 070   ----------------------------------------
        BYTE                   Bn3
        BYTE   W96
// 071   ----------------------------------------
        BYTE                   Cn4
        BYTE   W96
// 072   ----------------------------------------
        BYTE                   As3
        BYTE   W96
// 073   ----------------------------------------
        BYTE                   Bn3
        BYTE   W96
// 074   ----------------------------------------
        BYTE                   Cn4
        BYTE   W96
// 075   ----------------------------------------
        BYTE                   Cs4
        BYTE   W96
// 076   ----------------------------------------
        BYTE   W96
// 077   ----------------------------------------
        BYTE   W96
// 078   ----------------------------------------
        BYTE   W96
// 079   ----------------------------------------
        BYTE   W96
// 080   ----------------------------------------
        BYTE   W96
// 081   ----------------------------------------
        BYTE   W96
// 082   ----------------------------------------
        BYTE   W96
// 083   ----------------------------------------
        BYTE   W96
// 084   ----------------------------------------
        BYTE   W96
// 085   ----------------------------------------
        BYTE   W96
// 086   ----------------------------------------
        BYTE   W96
// 087   ----------------------------------------
        BYTE   W96
// 088   ----------------------------------------
        BYTE   W96
// 089   ----------------------------------------
        BYTE   W96
// 090   ----------------------------------------
        BYTE   W96
// 091   ----------------------------------------
        BYTE   W96
// 092   ----------------------------------------
        BYTE           VOL     51
        BYTE           TIE     An1   v078
        BYTE           TIE     An0
        BYTE   W24
        BYTE           VOL     52
        BYTE   W24
        BYTE                   53
        BYTE   W24
        BYTE                   56
        BYTE   W24
// 093   ----------------------------------------
        BYTE                   60
        BYTE   W24
        BYTE                   64
        BYTE   W24
        BYTE                   68
        BYTE   W24
        BYTE                   73
        BYTE   W24
// 094   ----------------------------------------
        BYTE           EOT
        BYTE           EOT     An1
        BYTE           TIE     Fs0
        BYTE           TIE     Fs1
        BYTE           VOL     54
        BYTE   W24
        BYTE                   56
        BYTE   W24
        BYTE                   58
        BYTE   W24
        BYTE                   61
        BYTE   W24
// 095   ----------------------------------------
FieldsOfExpel_1_95:
        BYTE           VOL     64
        BYTE   W24
        BYTE                   68
        BYTE   W24
        BYTE                   73
        BYTE   W24
        BYTE                   78
        BYTE   W24
        BYTE   PEND
// 096   ----------------------------------------
        BYTE           EOT     Fs1
        BYTE                   Fs0
        BYTE           TIE     An0   v078
        BYTE           TIE     An1
        BYTE   W96
// 097   ----------------------------------------
        BYTE   W96
// 098   ----------------------------------------
        BYTE           EOT
        BYTE           EOT     An0
        BYTE           TIE     Cn0   v088
        BYTE           TIE     Cn1
        BYTE   W96
// 099   ----------------------------------------
        BYTE   W96
// 100   ----------------------------------------
        BYTE           EOT
        BYTE           EOT     Cn0
        BYTE           TIE     En0   v100
        BYTE           TIE     En3
        BYTE           TIE     En1
        BYTE           VOL     67
        BYTE   W96
// 101   ----------------------------------------
        BYTE   W96
// 102   ----------------------------------------
        BYTE   W96
// 103   ----------------------------------------
        BYTE   W96
// 104   ----------------------------------------
FieldsOfExpel_1_104:
        BYTE           EOT     En1
        BYTE                   En3
        BYTE                   En0
        BYTE           TIE     En0   v100
        BYTE           TIE     En3
        BYTE           TIE     En1
        BYTE   W96
        BYTE   PEND
// 105   ----------------------------------------
        BYTE   W96
// 106   ----------------------------------------
        BYTE   W96
// 107   ----------------------------------------
        BYTE   W96
// 108   ----------------------------------------
        BYTE           EOT
        BYTE           EOT     En3
        BYTE                   En0
        BYTE           TIE
        BYTE           TIE     En3
        BYTE           TIE     En1
        BYTE           VOL     64
        BYTE   W96
// 109   ----------------------------------------
        BYTE   W96
// 110   ----------------------------------------
        BYTE   W96
// 111   ----------------------------------------
        BYTE   W96
// 112   ----------------------------------------
        BYTE   PATT
         POIN2  FieldsOfExpel_1_104
// 113   ----------------------------------------
        BYTE   W96
// 114   ----------------------------------------
        BYTE   W96
// 115   ----------------------------------------
        BYTE   W96
// 116   ----------------------------------------
        BYTE           EOT     En1
        BYTE                   En3
        BYTE                   En0
        BYTE           TIE     An0   v100
        BYTE           TIE     An1
        BYTE           VOL     54
        BYTE   W24
        BYTE                   56
        BYTE   W24
        BYTE                   58
        BYTE   W24
        BYTE                   61
        BYTE   W24
// 117   ----------------------------------------
        BYTE   PATT
         POIN2  FieldsOfExpel_1_95
// 118   ----------------------------------------
FieldsOfExpel_1_118:
        BYTE           EOT     An1
        BYTE                   An0
        BYTE           TIE     Fs0   v100
        BYTE           TIE     Fs1
        BYTE           VOL     54
        BYTE   W24
        BYTE                   56
        BYTE   W24
        BYTE                   58
        BYTE   W24
        BYTE                   61
        BYTE   W24
        BYTE   PEND
// 119   ----------------------------------------
        BYTE   PATT
         POIN2  FieldsOfExpel_1_95
// 120   ----------------------------------------
FieldsOfExpel_1_120:
        BYTE           EOT     Fs1
        BYTE                   Fs0
        BYTE           TIE     An0   v100
        BYTE           TIE     An1
        BYTE           VOL     54
        BYTE   W24
        BYTE                   56
        BYTE   W24
        BYTE                   58
        BYTE   W24
        BYTE                   61
        BYTE   W24
        BYTE   PEND
// 121   ----------------------------------------
        BYTE   PATT
         POIN2  FieldsOfExpel_1_95
// 122   ----------------------------------------
        BYTE           EOT     An1
        BYTE                   An0
        BYTE           TIE     Cn0   v100
        BYTE           TIE     Cn1
        BYTE           VOL     54
        BYTE   W24
        BYTE                   56
        BYTE   W24
        BYTE                   58
        BYTE   W24
        BYTE                   61
        BYTE   W24
// 123   ----------------------------------------
        BYTE   PATT
         POIN2  FieldsOfExpel_1_95
// 124   ----------------------------------------
        BYTE           EOT     Cn1
        BYTE                   Cn0
        BYTE           TIE     An0   v100
        BYTE           TIE     An1
        BYTE           VOL     54
        BYTE   W24
        BYTE                   56
        BYTE   W24
        BYTE                   58
        BYTE   W24
        BYTE                   61
        BYTE   W24
// 125   ----------------------------------------
        BYTE   PATT
         POIN2  FieldsOfExpel_1_95
// 126   ----------------------------------------
        BYTE   PATT
         POIN2  FieldsOfExpel_1_118
// 127   ----------------------------------------
        BYTE   PATT
         POIN2  FieldsOfExpel_1_95
// 128   ----------------------------------------
        BYTE   PATT
         POIN2  FieldsOfExpel_1_120
// 129   ----------------------------------------
        BYTE   PATT
         POIN2  FieldsOfExpel_1_95
// 130   ----------------------------------------
        BYTE           EOT     An1
        BYTE                   An0
        BYTE           TIE     Cn1   v100
        BYTE           TIE     Cn0
        BYTE   W96
// 131   ----------------------------------------
        BYTE   W92
        BYTE   W03
        BYTE           EOT
        BYTE           EOT     Cn1
        BYTE           VOL     45
        BYTE   GoTo
         POIN2  FieldsOfExpel_1_LOOP
        BYTE   FINE

//****************** Track 2 (Midi-Chn.2) ******************//

FieldsOfExpel_2:
        BYTE   KEYSH   FieldsOfExpel_key+0
// 000   ----------------------------------------
FieldsOfExpel_2_LOOP:
        BYTE           VOICE   56
        BYTE           VOL     54
        BYTE           N36     En3   v100
        BYTE   W36
        BYTE                   Bn2
        BYTE   W36
        BYTE           N24     Gn3   v127
        BYTE   W24
// 001   ----------------------------------------
        BYTE   PATT
         POIN2  FieldsOfExpel_1_1
// 002   ----------------------------------------
        BYTE   PATT
         POIN2  FieldsOfExpel_1_2
// 003   ----------------------------------------
        BYTE   W96
// 004   ----------------------------------------
        BYTE   PATT
         POIN2  FieldsOfExpel_1_4
// 005   ----------------------------------------
        BYTE   PATT
         POIN2  FieldsOfExpel_1_5
// 006   ----------------------------------------
        BYTE   PATT
         POIN2  FieldsOfExpel_1_6
// 007   ----------------------------------------
        BYTE           N96     Fs3   v127
        BYTE   W96
// 008   ----------------------------------------
        BYTE   PATT
         POIN2  FieldsOfExpel_1_8
// 009   ----------------------------------------
        BYTE   PATT
         POIN2  FieldsOfExpel_1_1
// 010   ----------------------------------------
        BYTE   PATT
         POIN2  FieldsOfExpel_1_2
// 011   ----------------------------------------
        BYTE   W96
// 012   ----------------------------------------
        BYTE   PATT
         POIN2  FieldsOfExpel_1_4
// 013   ----------------------------------------
        BYTE   PATT
         POIN2  FieldsOfExpel_1_5
// 014   ----------------------------------------
        BYTE   PATT
         POIN2  FieldsOfExpel_1_6
// 015   ----------------------------------------
        BYTE           N96     Fs3   v127
        BYTE   W96
// 016   ----------------------------------------
        BYTE   W96
// 017   ----------------------------------------
        BYTE   W96
// 018   ----------------------------------------
        BYTE   W96
// 019   ----------------------------------------
        BYTE   W96
// 020   ----------------------------------------
        BYTE   PATT
         POIN2  FieldsOfExpel_1_20
// 021   ----------------------------------------
        BYTE   PATT
         POIN2  FieldsOfExpel_1_21
// 022   ----------------------------------------
        BYTE   PATT
         POIN2  FieldsOfExpel_1_22
// 023   ----------------------------------------
        BYTE   PATT
         POIN2  FieldsOfExpel_1_23
// 024   ----------------------------------------
        BYTE           N18     Dn4   v095
        BYTE   W18
        BYTE                   Cn4
        BYTE   W18
        BYTE           N12     An3
        BYTE   W12
        BYTE           N24     An4
        BYTE   W24
        BYTE                   Dn4
        BYTE   W24
// 025   ----------------------------------------
        BYTE   PATT
         POIN2  FieldsOfExpel_1_21
// 026   ----------------------------------------
        BYTE   PATT
         POIN2  FieldsOfExpel_1_22
// 027   ----------------------------------------
        BYTE   PATT
         POIN2  FieldsOfExpel_1_23
// 028   ----------------------------------------
        BYTE   PATT
         POIN2  FieldsOfExpel_1_28
// 029   ----------------------------------------
        BYTE   PATT
         POIN2  FieldsOfExpel_1_29
// 030   ----------------------------------------
        BYTE   W96
// 031   ----------------------------------------
        BYTE   W96
// 032   ----------------------------------------
        BYTE   W96
// 033   ----------------------------------------
        BYTE   W96
// 034   ----------------------------------------
        BYTE   W96
// 035   ----------------------------------------
        BYTE   W96
// 036   ----------------------------------------
        BYTE   W96
// 037   ----------------------------------------
        BYTE   PATT
         POIN2  FieldsOfExpel_1_37
// 038   ----------------------------------------
        BYTE   PATT
         POIN2  FieldsOfExpel_1_8
// 039   ----------------------------------------
        BYTE   PATT
         POIN2  FieldsOfExpel_1_1
// 040   ----------------------------------------
        BYTE   PATT
         POIN2  FieldsOfExpel_1_2
// 041   ----------------------------------------
        BYTE   W96
// 042   ----------------------------------------
        BYTE   PATT
         POIN2  FieldsOfExpel_1_4
// 043   ----------------------------------------
        BYTE   PATT
         POIN2  FieldsOfExpel_1_5
// 044   ----------------------------------------
        BYTE   PATT
         POIN2  FieldsOfExpel_1_6
// 045   ----------------------------------------
        BYTE           N96     Fs3   v127
        BYTE   W96
// 046   ----------------------------------------
        BYTE   W96
// 047   ----------------------------------------
        BYTE   W96
// 048   ----------------------------------------
        BYTE   W96
// 049   ----------------------------------------
        BYTE   W96
// 050   ----------------------------------------
        BYTE   PATT
         POIN2  FieldsOfExpel_1_20
// 051   ----------------------------------------
        BYTE   PATT
         POIN2  FieldsOfExpel_1_21
// 052   ----------------------------------------
        BYTE   PATT
         POIN2  FieldsOfExpel_1_22
// 053   ----------------------------------------
        BYTE   PATT
         POIN2  FieldsOfExpel_1_23
// 054   ----------------------------------------
        BYTE   PATT
         POIN2  FieldsOfExpel_1_20
// 055   ----------------------------------------
        BYTE   PATT
         POIN2  FieldsOfExpel_1_21
// 056   ----------------------------------------
        BYTE   PATT
         POIN2  FieldsOfExpel_1_22
// 057   ----------------------------------------
        BYTE   PATT
         POIN2  FieldsOfExpel_1_23
// 058   ----------------------------------------
        BYTE   PATT
         POIN2  FieldsOfExpel_1_28
// 059   ----------------------------------------
        BYTE   PATT
         POIN2  FieldsOfExpel_1_29
// 060   ----------------------------------------
        BYTE   W96
// 061   ----------------------------------------
        BYTE   W96
// 062   ----------------------------------------
        BYTE   W96
// 063   ----------------------------------------
        BYTE   W96
// 064   ----------------------------------------
        BYTE   W96
// 065   ----------------------------------------
        BYTE   W96
// 066   ----------------------------------------
        BYTE   W96
// 067   ----------------------------------------
        BYTE   PATT
         POIN2  FieldsOfExpel_1_37
// 068   ----------------------------------------
        BYTE           N96     An3   v100
        BYTE   W96
// 069   ----------------------------------------
        BYTE                   Gn3
        BYTE   W96
// 070   ----------------------------------------
        BYTE                   Bn3
        BYTE   W96
// 071   ----------------------------------------
        BYTE                   Cn4
        BYTE   W96
// 072   ----------------------------------------
        BYTE                   As3
        BYTE   W96
// 073   ----------------------------------------
        BYTE                   Bn3
        BYTE   W96
// 074   ----------------------------------------
        BYTE                   Cn4
        BYTE   W96
// 075   ----------------------------------------
        BYTE                   Cs4
        BYTE   W96
// 076   ----------------------------------------
        BYTE   W96
// 077   ----------------------------------------
        BYTE   W96
// 078   ----------------------------------------
        BYTE   W96
// 079   ----------------------------------------
        BYTE   W96
// 080   ----------------------------------------
        BYTE   W96
// 081   ----------------------------------------
        BYTE   W96
// 082   ----------------------------------------
        BYTE   W96
// 083   ----------------------------------------
        BYTE   W96
// 084   ----------------------------------------
        BYTE   W96
// 085   ----------------------------------------
        BYTE   W96
// 086   ----------------------------------------
        BYTE   W96
// 087   ----------------------------------------
        BYTE   W96
// 088   ----------------------------------------
        BYTE   W96
// 089   ----------------------------------------
        BYTE   W96
// 090   ----------------------------------------
        BYTE   W96
// 091   ----------------------------------------
        BYTE   W96
// 092   ----------------------------------------
        BYTE   W96
// 093   ----------------------------------------
        BYTE   W96
// 094   ----------------------------------------
        BYTE   W96
// 095   ----------------------------------------
        BYTE   W96
// 096   ----------------------------------------
        BYTE   W96
// 097   ----------------------------------------
        BYTE   W96
// 098   ----------------------------------------
        BYTE   W96
// 099   ----------------------------------------
        BYTE   W96
// 100   ----------------------------------------
        BYTE   W96
// 101   ----------------------------------------
        BYTE   W96
// 102   ----------------------------------------
        BYTE   W96
// 103   ----------------------------------------
        BYTE   W96
// 104   ----------------------------------------
        BYTE   W96
// 105   ----------------------------------------
        BYTE   W96
// 106   ----------------------------------------
        BYTE   W96
// 107   ----------------------------------------
        BYTE   W96
// 108   ----------------------------------------
FieldsOfExpel_2_108:
        BYTE           N48     En3   v100
        BYTE   W48
        BYTE           N24     Dn3
        BYTE   W24
        BYTE                   Gn3
        BYTE   W24
        BYTE   PEND
// 109   ----------------------------------------
        BYTE   PATT
         POIN2  FieldsOfExpel_0_101
// 110   ----------------------------------------
        BYTE   PATT
         POIN2  FieldsOfExpel_0_102
// 111   ----------------------------------------
        BYTE   PATT
         POIN2  FieldsOfExpel_0_103
// 112   ----------------------------------------
        BYTE   PATT
         POIN2  FieldsOfExpel_2_108
// 113   ----------------------------------------
        BYTE   PATT
         POIN2  FieldsOfExpel_0_101
// 114   ----------------------------------------
        BYTE   PATT
         POIN2  FieldsOfExpel_0_106
// 115   ----------------------------------------
        BYTE           N96     Fs3   v100
        BYTE   W96
// 116   ----------------------------------------
        BYTE   W96
// 117   ----------------------------------------
        BYTE   W96
// 118   ----------------------------------------
        BYTE   W96
// 119   ----------------------------------------
        BYTE   W96
// 120   ----------------------------------------
        BYTE           VOL     61
        BYTE           N18     An3
        BYTE   W18
        BYTE                   Bn3
        BYTE   W18
        BYTE           N12     Cn4
        BYTE   W12
        BYTE           N96     En4
        BYTE   W48
// 121   ----------------------------------------
FieldsOfExpel_2_121:
        BYTE   W48
        BYTE           N18     Gn4   v100
        BYTE   W18
        BYTE                   Fs4
        BYTE   W18
        BYTE           N12     Dn4
        BYTE   W12
        BYTE   PEND
// 122   ----------------------------------------
FieldsOfExpel_2_122:
        BYTE           N18     Cn4   v100
        BYTE   W18
        BYTE                   Dn4
        BYTE   W18
        BYTE           N12     Ds4
        BYTE   W12
        BYTE           N96     Gn4
        BYTE   W48
        BYTE   PEND
// 123   ----------------------------------------
        BYTE   W48
        BYTE           N48     Fn4
        BYTE   W48
// 124   ----------------------------------------
        BYTE           N18     An3
        BYTE   W18
        BYTE           VOL     70
        BYTE           N18     Bn3
        BYTE   W18
        BYTE           N12     Cn4
        BYTE   W12
        BYTE           N96     En4
        BYTE   W48
// 125   ----------------------------------------
        BYTE   W48
        BYTE           N18     Dn4
        BYTE   W18
        BYTE                   Cn4
        BYTE   W18
        BYTE           N12     Bn3
        BYTE   W12
// 126   ----------------------------------------
        BYTE           N18     An3
        BYTE   W18
        BYTE                   Bn3
        BYTE   W18
        BYTE           N12     Cs4
        BYTE   W12
        BYTE           N96     Fs3
        BYTE   W48
// 127   ----------------------------------------
        BYTE   W48
        BYTE           N48     Gs3
        BYTE   W48
// 128   ----------------------------------------
        BYTE           N18     An3
        BYTE   W18
        BYTE                   Bn3
        BYTE   W18
        BYTE           N12     Cn4
        BYTE   W12
        BYTE           N96     En4
        BYTE   W48
// 129   ----------------------------------------
        BYTE   PATT
         POIN2  FieldsOfExpel_2_121
// 130   ----------------------------------------
        BYTE   PATT
         POIN2  FieldsOfExpel_2_122
// 131   ----------------------------------------
        BYTE   W48
        BYTE           N44     Fn4   v100   gtp3
        BYTE   W44
        BYTE   W03
        BYTE           VOL     54
        BYTE   GoTo
         POIN2  FieldsOfExpel_2_LOOP
        BYTE   FINE

//****************** Track 3 (Midi-Chn.3) ******************//

FieldsOfExpel_3:
        BYTE   KEYSH   FieldsOfExpel_key+0
// 000   ----------------------------------------
FieldsOfExpel_3_LOOP:
        BYTE           VOICE   60
        BYTE           VOL     54
        BYTE           N96     En3   v095
        BYTE   W96
// 001   ----------------------------------------
FieldsOfExpel_3_1:
        BYTE           N48     Dn3   v095
        BYTE   W48
        BYTE                   An2
        BYTE   W48
        BYTE   PEND
// 002   ----------------------------------------
FieldsOfExpel_3_2:
        BYTE           N96     Bn2   v095
        BYTE   W48
        BYTE           N18     Gn3
        BYTE   W18
        BYTE                   Fs3
        BYTE   W18
        BYTE           N12     En3
        BYTE   W12
        BYTE   PEND
// 003   ----------------------------------------
FieldsOfExpel_3_3:
        BYTE           N48     Ds3   v095
        BYTE   W48
        BYTE                   Bn2
        BYTE   W48
        BYTE   PEND
// 004   ----------------------------------------
        BYTE           N96     Gn3
        BYTE   W96
// 005   ----------------------------------------
FieldsOfExpel_3_5:
        BYTE           N48     Fs3   v095
        BYTE   W48
        BYTE                   Dn3
        BYTE   W48
        BYTE   PEND
// 006   ----------------------------------------
        BYTE           N96     En3
        BYTE   W96
// 007   ----------------------------------------
        BYTE   PATT
         POIN2  FieldsOfExpel_3_3
// 008   ----------------------------------------
        BYTE           N96     En3   v095
        BYTE   W96
// 009   ----------------------------------------
        BYTE   PATT
         POIN2  FieldsOfExpel_3_1
// 010   ----------------------------------------
        BYTE   PATT
         POIN2  FieldsOfExpel_3_2
// 011   ----------------------------------------
        BYTE   PATT
         POIN2  FieldsOfExpel_3_3
// 012   ----------------------------------------
        BYTE           N96     Gn3   v095
        BYTE   W96
// 013   ----------------------------------------
        BYTE   PATT
         POIN2  FieldsOfExpel_3_5
// 014   ----------------------------------------
        BYTE           N96     En3   v095
        BYTE   W96
// 015   ----------------------------------------
        BYTE   PATT
         POIN2  FieldsOfExpel_3_3
// 016   ----------------------------------------
        BYTE           N96     En2   v095
        BYTE   W96
// 017   ----------------------------------------
        BYTE                   Fs2
        BYTE   W96
// 018   ----------------------------------------
        BYTE                   En2
        BYTE   W96
// 019   ----------------------------------------
        BYTE                   Cs3
        BYTE   W96
// 020   ----------------------------------------
FieldsOfExpel_3_20:
        BYTE           N48     Dn3   v095
        BYTE   W60
        BYTE           N12
        BYTE   W12
        BYTE                   En3
        BYTE   W12
        BYTE                   Fn3
        BYTE   W12
        BYTE   PEND
// 021   ----------------------------------------
FieldsOfExpel_3_21:
        BYTE           N36     Gn3   v095
        BYTE   W48
        BYTE           N18
        BYTE   W18
        BYTE                   Fn3
        BYTE   W18
        BYTE           N12     En3
        BYTE   W12
        BYTE   PEND
// 022   ----------------------------------------
FieldsOfExpel_3_22:
        BYTE           N06     Fn3   v095
        BYTE   W06
        BYTE                   En3
        BYTE   W06
        BYTE           N36     Fn3
        BYTE   W36
        BYTE           N18     An3
        BYTE   W18
        BYTE                   Gn3
        BYTE   W18
        BYTE           N12     Fn3
        BYTE   W12
        BYTE   PEND
// 023   ----------------------------------------
FieldsOfExpel_3_23:
        BYTE           N48     En3   v095
        BYTE   W48
        BYTE                   An3
        BYTE   W48
        BYTE   PEND
// 024   ----------------------------------------
        BYTE   PATT
         POIN2  FieldsOfExpel_3_20
// 025   ----------------------------------------
        BYTE   PATT
         POIN2  FieldsOfExpel_3_21
// 026   ----------------------------------------
        BYTE   PATT
         POIN2  FieldsOfExpel_3_22
// 027   ----------------------------------------
        BYTE   PATT
         POIN2  FieldsOfExpel_3_23
// 028   ----------------------------------------
        BYTE   PATT
         POIN2  FieldsOfExpel_1_28
// 029   ----------------------------------------
        BYTE   PATT
         POIN2  FieldsOfExpel_1_29
// 030   ----------------------------------------
        BYTE           VOL     49
        BYTE           N96     Bn2   v111
        BYTE   W96
// 031   ----------------------------------------
        BYTE                   Dn3
        BYTE   W96
// 032   ----------------------------------------
        BYTE                   Cs3
        BYTE   W96
// 033   ----------------------------------------
        BYTE                   Cn3
        BYTE   W96
// 034   ----------------------------------------
        BYTE                   Bn2
        BYTE   W96
// 035   ----------------------------------------
        BYTE                   Dn3
        BYTE   W96
// 036   ----------------------------------------
        BYTE                   Cs3
        BYTE   W96
// 037   ----------------------------------------
        BYTE                   Cn3
        BYTE   W96
// 038   ----------------------------------------
        BYTE                   En3
        BYTE           VOL     54
        BYTE   W96
// 039   ----------------------------------------
        BYTE   PATT
         POIN2  FieldsOfExpel_3_1
// 040   ----------------------------------------
        BYTE   PATT
         POIN2  FieldsOfExpel_3_2
// 041   ----------------------------------------
        BYTE   PATT
         POIN2  FieldsOfExpel_3_3
// 042   ----------------------------------------
        BYTE           N96     Gn3   v095
        BYTE   W96
// 043   ----------------------------------------
        BYTE   PATT
         POIN2  FieldsOfExpel_3_5
// 044   ----------------------------------------
        BYTE           N96     En3   v095
        BYTE   W96
// 045   ----------------------------------------
        BYTE   PATT
         POIN2  FieldsOfExpel_3_3
// 046   ----------------------------------------
        BYTE           N96     En2   v095
        BYTE   W96
// 047   ----------------------------------------
        BYTE                   Fs2
        BYTE   W96
// 048   ----------------------------------------
        BYTE                   Gn2
        BYTE   W96
// 049   ----------------------------------------
        BYTE                   Cs3
        BYTE   W96
// 050   ----------------------------------------
        BYTE   PATT
         POIN2  FieldsOfExpel_3_20
// 051   ----------------------------------------
        BYTE   PATT
         POIN2  FieldsOfExpel_3_21
// 052   ----------------------------------------
        BYTE   PATT
         POIN2  FieldsOfExpel_3_22
// 053   ----------------------------------------
        BYTE   PATT
         POIN2  FieldsOfExpel_3_23
// 054   ----------------------------------------
        BYTE   PATT
         POIN2  FieldsOfExpel_3_20
// 055   ----------------------------------------
        BYTE   PATT
         POIN2  FieldsOfExpel_3_21
// 056   ----------------------------------------
        BYTE   PATT
         POIN2  FieldsOfExpel_3_22
// 057   ----------------------------------------
        BYTE   PATT
         POIN2  FieldsOfExpel_3_23
// 058   ----------------------------------------
        BYTE   PATT
         POIN2  FieldsOfExpel_1_28
// 059   ----------------------------------------
        BYTE   PATT
         POIN2  FieldsOfExpel_1_29
// 060   ----------------------------------------
        BYTE           N96     Bn2   v111
        BYTE   W96
// 061   ----------------------------------------
        BYTE                   Dn3
        BYTE   W96
// 062   ----------------------------------------
        BYTE                   Cs3
        BYTE   W96
// 063   ----------------------------------------
        BYTE                   Cn3
        BYTE   W96
// 064   ----------------------------------------
        BYTE                   Bn2
        BYTE   W96
// 065   ----------------------------------------
        BYTE                   Dn3
        BYTE   W96
// 066   ----------------------------------------
        BYTE                   Cs3
        BYTE   W96
// 067   ----------------------------------------
        BYTE                   Cn3
        BYTE   W96
// 068   ----------------------------------------
        BYTE                   Bn2
        BYTE   W96
// 069   ----------------------------------------
        BYTE                   Dn3
        BYTE   W96
// 070   ----------------------------------------
        BYTE                   Cs3
        BYTE   W96
// 071   ----------------------------------------
        BYTE                   Cn3
        BYTE   W96
// 072   ----------------------------------------
        BYTE                   Cs3
        BYTE   W96
// 073   ----------------------------------------
        BYTE                   Dn3
        BYTE   W96
// 074   ----------------------------------------
        BYTE                   Ds3
        BYTE   W96
// 075   ----------------------------------------
        BYTE                   En3
        BYTE   W96
// 076   ----------------------------------------
        BYTE   W96
// 077   ----------------------------------------
        BYTE   W96
// 078   ----------------------------------------
        BYTE   W96
// 079   ----------------------------------------
        BYTE   W96
// 080   ----------------------------------------
        BYTE   W96
// 081   ----------------------------------------
        BYTE   W96
// 082   ----------------------------------------
        BYTE   W96
// 083   ----------------------------------------
        BYTE   W96
// 084   ----------------------------------------
FieldsOfExpel_3_84:
        BYTE   W48
        BYTE           N36     En3   v100
        BYTE   W48
        BYTE   PEND
// 085   ----------------------------------------
        BYTE           N96     An3
        BYTE   W96
// 086   ----------------------------------------
        BYTE           TIE     Fs2
        BYTE   W96
// 087   ----------------------------------------
FieldsOfExpel_3_87:
        BYTE   W48
        BYTE           EOT     Fs2
        BYTE           N48     Gs2   v100
        BYTE   W48
        BYTE   PEND
// 088   ----------------------------------------
FieldsOfExpel_3_88:
        BYTE   W48
        BYTE           N96     En3   v100
        BYTE   W48
        BYTE   PEND
// 089   ----------------------------------------
FieldsOfExpel_3_89:
        BYTE   W48
        BYTE           N24     Gn3   v100
        BYTE   W24
        BYTE           N12     Fn3
        BYTE   W12
        BYTE                   Ds3
        BYTE   W12
        BYTE   PEND
// 090   ----------------------------------------
FieldsOfExpel_3_90:
        BYTE           N24     Cn3   v100
        BYTE   W24
        BYTE           N12     Dn3
        BYTE   W12
        BYTE                   Ds3
        BYTE   W12
        BYTE           N96     Gn3
        BYTE   W48
        BYTE   PEND
// 091   ----------------------------------------
FieldsOfExpel_3_91:
        BYTE   W48
        BYTE           N48     Fn3   v100
        BYTE   W48
        BYTE   PEND
// 092   ----------------------------------------
        BYTE   PATT
         POIN2  FieldsOfExpel_3_84
// 093   ----------------------------------------
        BYTE           N96     An3   v100
        BYTE   W96
// 094   ----------------------------------------
        BYTE           TIE     Fs2
        BYTE   W96
// 095   ----------------------------------------
        BYTE   PATT
         POIN2  FieldsOfExpel_3_87
// 096   ----------------------------------------
        BYTE   PATT
         POIN2  FieldsOfExpel_3_88
// 097   ----------------------------------------
        BYTE   PATT
         POIN2  FieldsOfExpel_3_89
// 098   ----------------------------------------
        BYTE   PATT
         POIN2  FieldsOfExpel_3_90
// 099   ----------------------------------------
        BYTE   PATT
         POIN2  FieldsOfExpel_3_91
// 100   ----------------------------------------
        BYTE           VOL     58
        BYTE           N48     Bn1   v100
        BYTE   W48
        BYTE           N24     An1
        BYTE   W24
        BYTE                   Dn2
        BYTE   W24
// 101   ----------------------------------------
        BYTE           N96     Bn1
        BYTE   W96
// 102   ----------------------------------------
FieldsOfExpel_3_102:
        BYTE           N36     Bn1   v100
        BYTE   W36
        BYTE           N60     En2
        BYTE   W60
        BYTE   PEND
// 103   ----------------------------------------
FieldsOfExpel_3_103:
        BYTE           N48     Dn2   v100
        BYTE   W48
        BYTE                   An1
        BYTE   W48
        BYTE   PEND
// 104   ----------------------------------------
FieldsOfExpel_3_104:
        BYTE           N48     Bn1   v100
        BYTE   W48
        BYTE           N24     An1
        BYTE   W24
        BYTE                   Dn2
        BYTE   W24
        BYTE   PEND
// 105   ----------------------------------------
        BYTE           N96     Bn1
        BYTE   W96
// 106   ----------------------------------------
FieldsOfExpel_3_106:
        BYTE           N48     Bn1   v100
        BYTE   W48
        BYTE                   Dn2
        BYTE   W48
        BYTE   PEND
// 107   ----------------------------------------
        BYTE           N96     En2
        BYTE   W96
// 108   ----------------------------------------
        BYTE           VOL     64
        BYTE           N48     Bn1
        BYTE   W48
        BYTE           N24     An1
        BYTE   W24
        BYTE                   Dn2
        BYTE   W24
// 109   ----------------------------------------
        BYTE           N96     Bn1
        BYTE   W96
// 110   ----------------------------------------
        BYTE   PATT
         POIN2  FieldsOfExpel_3_102
// 111   ----------------------------------------
        BYTE   PATT
         POIN2  FieldsOfExpel_3_103
// 112   ----------------------------------------
        BYTE   PATT
         POIN2  FieldsOfExpel_3_104
// 113   ----------------------------------------
        BYTE           N96     Bn1   v100
        BYTE   W96
// 114   ----------------------------------------
        BYTE   PATT
         POIN2  FieldsOfExpel_3_106
// 115   ----------------------------------------
        BYTE           N96     En2   v100
        BYTE   W96
// 116   ----------------------------------------
        BYTE   PATT
         POIN2  FieldsOfExpel_3_84
// 117   ----------------------------------------
        BYTE           N96     An3   v100
        BYTE   W96
// 118   ----------------------------------------
        BYTE           TIE     Fs2
        BYTE   W96
// 119   ----------------------------------------
        BYTE   PATT
         POIN2  FieldsOfExpel_3_87
// 120   ----------------------------------------
        BYTE   PATT
         POIN2  FieldsOfExpel_3_88
// 121   ----------------------------------------
        BYTE   PATT
         POIN2  FieldsOfExpel_3_89
// 122   ----------------------------------------
        BYTE   PATT
         POIN2  FieldsOfExpel_3_90
// 123   ----------------------------------------
        BYTE   PATT
         POIN2  FieldsOfExpel_3_91
// 124   ----------------------------------------
        BYTE   PATT
         POIN2  FieldsOfExpel_3_84
// 125   ----------------------------------------
        BYTE           N96     An3   v100
        BYTE   W96
// 126   ----------------------------------------
        BYTE           TIE     Fs2
        BYTE   W96
// 127   ----------------------------------------
        BYTE   PATT
         POIN2  FieldsOfExpel_3_87
// 128   ----------------------------------------
        BYTE   PATT
         POIN2  FieldsOfExpel_3_88
// 129   ----------------------------------------
        BYTE   PATT
         POIN2  FieldsOfExpel_3_89
// 130   ----------------------------------------
        BYTE   PATT
         POIN2  FieldsOfExpel_3_90
// 131   ----------------------------------------
        BYTE   W48
        BYTE           N44     Fn3   v100   gtp3
        BYTE   W44
        BYTE   W03
        BYTE           VOL     54
        BYTE   GoTo
         POIN2  FieldsOfExpel_3_LOOP
        BYTE   FINE

//****************** Track 4 (Midi-Chn.4) ******************//

FieldsOfExpel_4:
        BYTE   KEYSH   FieldsOfExpel_key+0
// 000   ----------------------------------------
FieldsOfExpel_4_LOOP:
        BYTE           VOICE   73
        BYTE           VOL     54
        BYTE   W96
// 001   ----------------------------------------
        BYTE   W96
// 002   ----------------------------------------
        BYTE   W96
// 003   ----------------------------------------
        BYTE   W96
// 004   ----------------------------------------
        BYTE   W96
// 005   ----------------------------------------
        BYTE   W96
// 006   ----------------------------------------
        BYTE   W96
// 007   ----------------------------------------
        BYTE   W96
// 008   ----------------------------------------
        BYTE   W96
// 009   ----------------------------------------
        BYTE   W96
// 010   ----------------------------------------
        BYTE   W96
// 011   ----------------------------------------
        BYTE   W96
// 012   ----------------------------------------
        BYTE   W96
// 013   ----------------------------------------
        BYTE   W96
// 014   ----------------------------------------
        BYTE   W96
// 015   ----------------------------------------
        BYTE   W96
// 016   ----------------------------------------
FieldsOfExpel_4_16:
        BYTE           N36     En5   v095
        BYTE   W36
        BYTE           N06     Dn5
        BYTE   W06
        BYTE                   Cn5
        BYTE   W06
        BYTE           N18     Bn4
        BYTE   W18
        BYTE                   An4
        BYTE   W18
        BYTE           N12     Cn5
        BYTE   W12
        BYTE   PEND
// 017   ----------------------------------------
FieldsOfExpel_4_17:
        BYTE           N36     Bn4   v095
        BYTE   W36
        BYTE           N06     An4
        BYTE   W06
        BYTE                   Gn4
        BYTE   W06
        BYTE           N18     Fs4
        BYTE   W18
        BYTE                   Gn4
        BYTE   W18
        BYTE           N12     An4
        BYTE   W12
        BYTE   PEND
// 018   ----------------------------------------
FieldsOfExpel_4_18:
        BYTE           N48     Gn4   v095
        BYTE   W48
        BYTE                   Cn5
        BYTE   W48
        BYTE   PEND
// 019   ----------------------------------------
FieldsOfExpel_4_19:
        BYTE           N36     Cs5   v095
        BYTE   W36
        BYTE                   Dn5
        BYTE   W36
        BYTE           N24     En5
        BYTE   W24
        BYTE   PEND
// 020   ----------------------------------------
FieldsOfExpel_4_20:
        BYTE           N18     Fn5   v095
        BYTE           N48     Dn4   v100
        BYTE   W18
        BYTE           N18     En5   v095
        BYTE           N18     Cn4
        BYTE   W18
        BYTE           N12     An3
        BYTE           N12     Dn5
        BYTE   W12
        BYTE           N24     An5   v100
        BYTE   W12
        BYTE           N12     Dn4   v095
        BYTE   W12
        BYTE                   En4
        BYTE           N24     Dn5   v100
        BYTE   W12
        BYTE           N12     Fn4   v095
        BYTE   W12
        BYTE   PEND
// 021   ----------------------------------------
FieldsOfExpel_4_21:
        BYTE           N36     En5   v095
        BYTE           N36     Gn4
        BYTE   W48
        BYTE           N18     En5
        BYTE           N18     Gn4
        BYTE   W18
        BYTE                   Dn5
        BYTE           N18     Fn4
        BYTE   W18
        BYTE           N12     Cn5
        BYTE           N12     En4
        BYTE   W12
        BYTE   PEND
// 022   ----------------------------------------
FieldsOfExpel_4_22:
        BYTE           N06     Dn5   v095
        BYTE           N06     Fn4
        BYTE   W06
        BYTE                   Cn5
        BYTE           N06     En4
        BYTE   W06
        BYTE           N36     Dn5
        BYTE           N36     Fn4
        BYTE   W36
        BYTE           N18     Fn5
        BYTE           N18     An4
        BYTE   W18
        BYTE                   En5
        BYTE           N18     Gn4
        BYTE   W18
        BYTE           N12     Dn5
        BYTE           N12     Fn4
        BYTE   W12
        BYTE   PEND
// 023   ----------------------------------------
FieldsOfExpel_4_23:
        BYTE           N48     En4   v095
        BYTE           N48     Cs5   v100
        BYTE   W48
        BYTE                   Cs4   v095
        BYTE           N48     An4   v100
        BYTE   W48
        BYTE   PEND
// 024   ----------------------------------------
FieldsOfExpel_4_24:
        BYTE           N48     Dn4   v100
        BYTE           N18     Fn5   v095
        BYTE   W18
        BYTE                   En5
        BYTE           N18     Cn4
        BYTE   W18
        BYTE           N12     An3
        BYTE           N12     Dn5
        BYTE   W12
        BYTE           N24     An5   v100
        BYTE   W12
        BYTE           N12     Dn4   v095
        BYTE   W12
        BYTE                   En4
        BYTE           N24     Dn5   v100
        BYTE   W12
        BYTE           N12     Fn4   v095
        BYTE   W12
        BYTE   PEND
// 025   ----------------------------------------
        BYTE   PATT
         POIN2  FieldsOfExpel_4_21
// 026   ----------------------------------------
        BYTE   PATT
         POIN2  FieldsOfExpel_4_22
// 027   ----------------------------------------
FieldsOfExpel_4_27:
        BYTE           N48     En4   v095
        BYTE           N48     Cs5   v100
        BYTE   W48
        BYTE           N18     Cs4   v095
        BYTE   W18
        BYTE                   Dn4
        BYTE   W18
        BYTE           N12     En4
        BYTE   W12
        BYTE   PEND
// 028   ----------------------------------------
        BYTE           N96     Dn4   v100
        BYTE   W96
// 029   ----------------------------------------
FieldsOfExpel_4_29:
        BYTE           N36     En4   v111
        BYTE   W36
        BYTE                   Fn4   v100
        BYTE   W36
        BYTE           N24     Gn4
        BYTE   W24
        BYTE   PEND
// 030   ----------------------------------------
        BYTE           N96     En4
        BYTE   W96
// 031   ----------------------------------------
        BYTE   W96
// 032   ----------------------------------------
        BYTE   W96
// 033   ----------------------------------------
        BYTE   W96
// 034   ----------------------------------------
        BYTE   W96
// 035   ----------------------------------------
        BYTE   W96
// 036   ----------------------------------------
        BYTE   W96
// 037   ----------------------------------------
        BYTE   W96
// 038   ----------------------------------------
        BYTE   W96
// 039   ----------------------------------------
        BYTE   W96
// 040   ----------------------------------------
        BYTE   W96
// 041   ----------------------------------------
        BYTE   W96
// 042   ----------------------------------------
        BYTE   W96
// 043   ----------------------------------------
        BYTE   W96
// 044   ----------------------------------------
        BYTE   W96
// 045   ----------------------------------------
        BYTE   W96
// 046   ----------------------------------------
        BYTE   PATT
         POIN2  FieldsOfExpel_4_16
// 047   ----------------------------------------
        BYTE   PATT
         POIN2  FieldsOfExpel_4_17
// 048   ----------------------------------------
        BYTE   PATT
         POIN2  FieldsOfExpel_4_18
// 049   ----------------------------------------
        BYTE   PATT
         POIN2  FieldsOfExpel_4_19
// 050   ----------------------------------------
        BYTE   PATT
         POIN2  FieldsOfExpel_4_20
// 051   ----------------------------------------
        BYTE   PATT
         POIN2  FieldsOfExpel_4_21
// 052   ----------------------------------------
        BYTE   PATT
         POIN2  FieldsOfExpel_4_22
// 053   ----------------------------------------
        BYTE   PATT
         POIN2  FieldsOfExpel_4_23
// 054   ----------------------------------------
        BYTE   PATT
         POIN2  FieldsOfExpel_4_24
// 055   ----------------------------------------
        BYTE   PATT
         POIN2  FieldsOfExpel_4_21
// 056   ----------------------------------------
        BYTE   PATT
         POIN2  FieldsOfExpel_4_22
// 057   ----------------------------------------
        BYTE   PATT
         POIN2  FieldsOfExpel_4_27
// 058   ----------------------------------------
        BYTE           N96     Dn4   v100
        BYTE   W96
// 059   ----------------------------------------
        BYTE   PATT
         POIN2  FieldsOfExpel_4_29
// 060   ----------------------------------------
        BYTE           N96     En4   v100
        BYTE   W96
// 061   ----------------------------------------
        BYTE   W96
// 062   ----------------------------------------
        BYTE   W96
// 063   ----------------------------------------
        BYTE   W96
// 064   ----------------------------------------
        BYTE   W96
// 065   ----------------------------------------
        BYTE   W96
// 066   ----------------------------------------
        BYTE   W96
// 067   ----------------------------------------
        BYTE   W96
// 068   ----------------------------------------
        BYTE   W96
// 069   ----------------------------------------
        BYTE   W96
// 070   ----------------------------------------
        BYTE   W96
// 071   ----------------------------------------
        BYTE   W96
// 072   ----------------------------------------
        BYTE   W96
// 073   ----------------------------------------
        BYTE   W96
// 074   ----------------------------------------
        BYTE   W96
// 075   ----------------------------------------
        BYTE   W96
// 076   ----------------------------------------
        BYTE           TIE
        BYTE           VOL     45
        BYTE   W24
        BYTE                   43
        BYTE   W24
        BYTE                   45
        BYTE   W24
        BYTE                   48
        BYTE   W24
// 077   ----------------------------------------
FieldsOfExpel_4_77:
        BYTE           VOL     51
        BYTE   W24
        BYTE                   54
        BYTE   W24
        BYTE                   57
        BYTE   W24
        BYTE                   61
        BYTE   W24
        BYTE   PEND
// 078   ----------------------------------------
        BYTE           EOT     En4
        BYTE           TIE     Fs4   v100
        BYTE           VOL     53
        BYTE   W24
        BYTE                   52
        BYTE   W24
        BYTE                   51
        BYTE   W24
        BYTE                   50
        BYTE   W24
// 079   ----------------------------------------
        BYTE                   48
        BYTE   W24
        BYTE                   46
        BYTE   W24
        BYTE                   43
        BYTE   W24
        BYTE                   42
        BYTE   W24
// 080   ----------------------------------------
        BYTE           EOT
        BYTE           VOL     45
        BYTE           TIE     En4
        BYTE   W24
        BYTE           VOL     43
        BYTE   W24
        BYTE                   45
        BYTE   W24
        BYTE                   48
        BYTE   W24
// 081   ----------------------------------------
        BYTE   PATT
         POIN2  FieldsOfExpel_4_77
// 082   ----------------------------------------
        BYTE           EOT     En4
        BYTE           N96     Ds4   v100
        BYTE           VOL     53
        BYTE   W24
        BYTE                   52
        BYTE   W24
        BYTE                   51
        BYTE   W24
        BYTE                   50
        BYTE   W24
// 083   ----------------------------------------
        BYTE           N48     Dn4
        BYTE           VOL     48
        BYTE   W24
        BYTE                   46
        BYTE   W24
        BYTE           N48     As3
        BYTE           VOL     43
        BYTE   W24
        BYTE                   42
        BYTE   W24
// 084   ----------------------------------------
        BYTE                   64
        BYTE           N84     En4
        BYTE   W84
        BYTE           N06     Dn4
        BYTE   W06
        BYTE                   Cn4
        BYTE   W06
// 085   ----------------------------------------
FieldsOfExpel_4_85:
        BYTE           N72     Dn4   v100
        BYTE   W72
        BYTE           N12     Cn4
        BYTE   W12
        BYTE                   Bn3
        BYTE   W12
        BYTE   PEND
// 086   ----------------------------------------
FieldsOfExpel_4_86:
        BYTE           N48     Fs4   v100
        BYTE   W48
        BYTE           TIE     Cs4
        BYTE   W48
        BYTE   PEND
// 087   ----------------------------------------
FieldsOfExpel_4_87:
        BYTE   W60
        BYTE           EOT     Cs4
        BYTE   W12
        BYTE           N12     Bn3   v100
        BYTE   W12
        BYTE                   An3
        BYTE   W12
        BYTE   PEND
// 088   ----------------------------------------
FieldsOfExpel_4_88:
        BYTE           N48     En4   v100
        BYTE   W48
        BYTE           N72     An3
        BYTE   W48
        BYTE   PEND
// 089   ----------------------------------------
FieldsOfExpel_4_89:
        BYTE   W24
        BYTE           N12     Bn3   v100
        BYTE   W12
        BYTE                   Cn4
        BYTE   W12
        BYTE           N18     Dn4
        BYTE   W18
        BYTE                   Cn4
        BYTE   W18
        BYTE           N12     Bn3
        BYTE   W12
        BYTE   PEND
// 090   ----------------------------------------
FieldsOfExpel_4_90:
        BYTE           N36     Gn3   v100
        BYTE   W36
        BYTE                   Cn4
        BYTE   W36
        BYTE           N24     Ds4
        BYTE   W24
        BYTE   PEND
// 091   ----------------------------------------
FieldsOfExpel_4_91:
        BYTE           N48     Gn4   v100
        BYTE   W48
        BYTE                   Gs4
        BYTE   W48
        BYTE   PEND
// 092   ----------------------------------------
        BYTE           VOL     67
        BYTE           N84     En4
        BYTE   W84
        BYTE           N06     Dn4
        BYTE   W06
        BYTE                   Cn4
        BYTE   W06
// 093   ----------------------------------------
        BYTE   PATT
         POIN2  FieldsOfExpel_4_85
// 094   ----------------------------------------
        BYTE   PATT
         POIN2  FieldsOfExpel_4_86
// 095   ----------------------------------------
        BYTE   PATT
         POIN2  FieldsOfExpel_4_87
// 096   ----------------------------------------
        BYTE   PATT
         POIN2  FieldsOfExpel_4_88
// 097   ----------------------------------------
        BYTE   PATT
         POIN2  FieldsOfExpel_4_89
// 098   ----------------------------------------
        BYTE   PATT
         POIN2  FieldsOfExpel_4_90
// 099   ----------------------------------------
        BYTE   PATT
         POIN2  FieldsOfExpel_4_91
// 100   ----------------------------------------
FieldsOfExpel_4_100:
        BYTE           N36     En4   v100
        BYTE   W36
        BYTE                   An4
        BYTE   W36
        BYTE           N24     Dn5
        BYTE   W24
        BYTE   PEND
// 101   ----------------------------------------
        BYTE           N96     Bn4
        BYTE   W96
// 102   ----------------------------------------
FieldsOfExpel_4_102:
        BYTE           N36     En5   v100
        BYTE   W36
        BYTE           N60     An5
        BYTE   W60
        BYTE   PEND
// 103   ----------------------------------------
FieldsOfExpel_4_103:
        BYTE           N48     Gn5   v100
        BYTE   W48
        BYTE                   An4
        BYTE   W48
        BYTE   PEND
// 104   ----------------------------------------
        BYTE   PATT
         POIN2  FieldsOfExpel_4_100
// 105   ----------------------------------------
        BYTE           N96     Bn4   v100
        BYTE   W96
// 106   ----------------------------------------
        BYTE                   Dn5
        BYTE   W96
// 107   ----------------------------------------
        BYTE                   En5
        BYTE   W96
// 108   ----------------------------------------
        BYTE   PATT
         POIN2  FieldsOfExpel_4_100
// 109   ----------------------------------------
        BYTE           N96     Bn4   v100
        BYTE   W96
// 110   ----------------------------------------
        BYTE   PATT
         POIN2  FieldsOfExpel_4_102
// 111   ----------------------------------------
        BYTE   PATT
         POIN2  FieldsOfExpel_4_103
// 112   ----------------------------------------
        BYTE   PATT
         POIN2  FieldsOfExpel_4_100
// 113   ----------------------------------------
        BYTE           N96     Bn4   v100
        BYTE   W96
// 114   ----------------------------------------
        BYTE                   Dn5
        BYTE   W96
// 115   ----------------------------------------
        BYTE                   En5
        BYTE   W96
// 116   ----------------------------------------
FieldsOfExpel_4_116:
        BYTE           N84     En4   v100
        BYTE   W84
        BYTE           N06     Dn4
        BYTE   W06
        BYTE                   Cn4
        BYTE   W06
        BYTE   PEND
// 117   ----------------------------------------
        BYTE   PATT
         POIN2  FieldsOfExpel_4_85
// 118   ----------------------------------------
        BYTE   PATT
         POIN2  FieldsOfExpel_4_86
// 119   ----------------------------------------
        BYTE   PATT
         POIN2  FieldsOfExpel_4_87
// 120   ----------------------------------------
        BYTE   PATT
         POIN2  FieldsOfExpel_4_88
// 121   ----------------------------------------
        BYTE   PATT
         POIN2  FieldsOfExpel_4_89
// 122   ----------------------------------------
        BYTE   PATT
         POIN2  FieldsOfExpel_4_90
// 123   ----------------------------------------
        BYTE   PATT
         POIN2  FieldsOfExpel_4_91
// 124   ----------------------------------------
        BYTE   PATT
         POIN2  FieldsOfExpel_4_116
// 125   ----------------------------------------
        BYTE   PATT
         POIN2  FieldsOfExpel_4_85
// 126   ----------------------------------------
        BYTE   PATT
         POIN2  FieldsOfExpel_4_86
// 127   ----------------------------------------
        BYTE   PATT
         POIN2  FieldsOfExpel_4_87
// 128   ----------------------------------------
        BYTE   PATT
         POIN2  FieldsOfExpel_4_88
// 129   ----------------------------------------
        BYTE   PATT
         POIN2  FieldsOfExpel_4_89
// 130   ----------------------------------------
        BYTE   PATT
         POIN2  FieldsOfExpel_4_90
// 131   ----------------------------------------
        BYTE           N48     Gn4   v100
        BYTE   W48
        BYTE           N44     Gs4   v100   gtp3
        BYTE   W44
        BYTE   W03
        BYTE           VOL     54
        BYTE   GoTo
         POIN2  FieldsOfExpel_4_LOOP
        BYTE   FINE

//****************** Track 5 (Midi-Chn.5) ******************//

FieldsOfExpel_5:
        BYTE   KEYSH   FieldsOfExpel_key+0
// 000   ----------------------------------------
FieldsOfExpel_5_LOOP:
        BYTE           VOICE   47
        BYTE           VOL     54
        BYTE           N96     En2   v111
        BYTE   W96
// 001   ----------------------------------------
        BYTE           N48
        BYTE   W48
        BYTE           N12
        BYTE   W12
        BYTE                   Bn1
        BYTE   W12
        BYTE                   En2
        BYTE   W12
        BYTE                   Bn1
        BYTE   W12
// 002   ----------------------------------------
        BYTE           N96     En2
        BYTE   W96
// 003   ----------------------------------------
        BYTE   W96
// 004   ----------------------------------------
        BYTE                   En2
        BYTE   W96
// 005   ----------------------------------------
        BYTE                   Dn2
        BYTE   W96
// 006   ----------------------------------------
        BYTE   W96
// 007   ----------------------------------------
        BYTE           N03     Bn1   v064
        BYTE   W03
        BYTE                   Bn1   v066
        BYTE   W03
        BYTE                   Bn1   v068
        BYTE   W03
        BYTE                   Bn1   v070
        BYTE   W03
        BYTE                   Bn1   v072
        BYTE   W03
        BYTE                   Bn1   v074
        BYTE   W03
        BYTE                   Bn1   v076
        BYTE   W03
        BYTE                   Bn1   v078
        BYTE   W03
        BYTE                   Bn1   v080
        BYTE   W03
        BYTE                   Bn1   v082
        BYTE   W03
        BYTE                   Bn1   v084
        BYTE   W03
        BYTE                   Bn1   v086
        BYTE   W03
        BYTE                   Bn1   v088
        BYTE   W03
        BYTE                   Bn1   v090
        BYTE   W03
        BYTE                   Bn1   v092
        BYTE   W03
        BYTE                   Bn1   v094
        BYTE   W03
        BYTE                   Bn1   v096
        BYTE   W03
        BYTE                   Bn1   v098
        BYTE   W03
        BYTE                   Bn1   v100
        BYTE   W03
        BYTE                   Bn1   v102
        BYTE   W03
        BYTE                   Bn1   v104
        BYTE   W03
        BYTE                   Bn1   v106
        BYTE   W03
        BYTE                   Bn1   v108
        BYTE   W03
        BYTE                   Bn1   v110
        BYTE   W03
        BYTE                   Bn1   v112
        BYTE   W03
        BYTE                   Bn1   v114
        BYTE   W03
        BYTE                   Bn1   v116
        BYTE   W03
        BYTE                   Bn1   v118
        BYTE   W03
        BYTE                   Bn1   v120
        BYTE   W03
        BYTE                   Bn1   v122
        BYTE   W03
        BYTE                   Bn1   v124
        BYTE   W03
        BYTE                   Bn1   v127
        BYTE   W03
// 008   ----------------------------------------
        BYTE           N96     En2   v111
        BYTE   W96
// 009   ----------------------------------------
FieldsOfExpel_5_9:
        BYTE   W48
        BYTE           N12     En2   v111
        BYTE   W12
        BYTE                   Bn1
        BYTE   W12
        BYTE                   En2
        BYTE   W12
        BYTE                   Bn1
        BYTE   W12
        BYTE   PEND
// 010   ----------------------------------------
        BYTE           N06     En2   v079
        BYTE   W06
        BYTE                   En2   v082
        BYTE   W06
        BYTE                   En2   v084
        BYTE   W06
        BYTE                   En2   v086
        BYTE   W06
        BYTE                   En2   v088
        BYTE   W06
        BYTE                   En2   v090
        BYTE   W06
        BYTE                   En2   v092
        BYTE   W06
        BYTE                   En2   v094
        BYTE   W06
        BYTE                   En2   v096
        BYTE   W06
        BYTE                   En2   v098
        BYTE   W06
        BYTE                   En2   v100
        BYTE   W06
        BYTE                   En2   v102
        BYTE   W06
        BYTE                   En2   v104
        BYTE   W06
        BYTE                   En2   v106
        BYTE   W06
        BYTE                   En2   v108
        BYTE   W06
        BYTE                   En2   v111
        BYTE   W06
// 011   ----------------------------------------
        BYTE           N12     Bn1
        BYTE   W36
        BYTE           N06     Bn1   v100
        BYTE   W06
        BYTE           N01
        BYTE   W06
        BYTE                   Bn1
        BYTE   W12
        BYTE           N12     Fs1
        BYTE   W12
        BYTE                   Bn1
        BYTE   W12
        BYTE                   Fs1
        BYTE   W12
// 012   ----------------------------------------
        BYTE           N36     En2   v111
        BYTE   W96
// 013   ----------------------------------------
        BYTE   W96
// 014   ----------------------------------------
FieldsOfExpel_5_14:
        BYTE           N06     Cn2   v064
        BYTE   W06
        BYTE                   Cn2   v068
        BYTE   W06
        BYTE                   Cn2   v070
        BYTE   W06
        BYTE                   Cn2   v072
        BYTE   W06
        BYTE                   Cn2   v074
        BYTE   W06
        BYTE                   Cn2   v076
        BYTE   W06
        BYTE                   Cn2   v078
        BYTE   W06
        BYTE                   Cn2   v080
        BYTE   W06
        BYTE                   Cn2   v082
        BYTE   W06
        BYTE                   Cn2   v084
        BYTE   W06
        BYTE                   Cn2   v086
        BYTE   W06
        BYTE                   Cn2   v088
        BYTE   W06
        BYTE                   Cn2   v090
        BYTE   W06
        BYTE                   Cn2   v092
        BYTE   W06
        BYTE                   Cn2   v094
        BYTE   W06
        BYTE                   Cn2   v096
        BYTE   W06
        BYTE   PEND
// 015   ----------------------------------------
        BYTE           N12     Cn2   v100
        BYTE   W12
        BYTE                   Fs1
        BYTE   W12
        BYTE                   Cn2
        BYTE   W12
        BYTE                   Fs1
        BYTE   W12
        BYTE                   Cn2
        BYTE   W12
        BYTE                   Fs1
        BYTE   W12
        BYTE                   Cn2
        BYTE   W12
        BYTE                   Fs1
        BYTE   W12
// 016   ----------------------------------------
        BYTE   W96
// 017   ----------------------------------------
        BYTE   W96
// 018   ----------------------------------------
        BYTE   PATT
         POIN2  FieldsOfExpel_5_14
// 019   ----------------------------------------
        BYTE           N32     An1   v100   gtp3
        BYTE   W32
        BYTE   W03
        BYTE           N01
        BYTE   W07
        BYTE           N06
        BYTE   W06
        BYTE           N01
        BYTE   W24
        BYTE           N24
        BYTE   W24
// 020   ----------------------------------------
        BYTE                   Dn2
        BYTE   W48
        BYTE           N12     An1   v095
        BYTE   W12
        BYTE                   Dn2
        BYTE   W12
        BYTE                   An1
        BYTE   W12
        BYTE                   Dn2
        BYTE   W12
// 021   ----------------------------------------
        BYTE                   Gn1
        BYTE   W96
// 022   ----------------------------------------
        BYTE                   An1
        BYTE   W36
        BYTE           N06     An1   v100
        BYTE   W06
        BYTE           N01
        BYTE   W06
        BYTE                   An1   v095
        BYTE   W12
        BYTE           N12     Dn2
        BYTE   W12
        BYTE                   An1
        BYTE   W12
        BYTE                   Dn2
        BYTE   W12
// 023   ----------------------------------------
        BYTE                   An1
        BYTE   W12
        BYTE                   Dn2
        BYTE   W12
        BYTE                   An1
        BYTE   W12
        BYTE                   Dn2
        BYTE   W12
        BYTE                   An1
        BYTE   W12
        BYTE                   Dn2
        BYTE   W12
        BYTE                   An1
        BYTE   W12
        BYTE                   Dn2
        BYTE   W12
// 024   ----------------------------------------
FieldsOfExpel_5_24:
        BYTE   W48
        BYTE           N12     An1   v095
        BYTE   W12
        BYTE                   Dn2
        BYTE   W12
        BYTE                   An1
        BYTE   W12
        BYTE                   Dn2
        BYTE   W12
        BYTE   PEND
// 025   ----------------------------------------
FieldsOfExpel_5_25:
        BYTE           N24     Gn1   v095
        BYTE   W48
        BYTE           N18     Gn1   v100
        BYTE   W18
        BYTE                   Cn2
        BYTE   W18
        BYTE           N12     Gn1
        BYTE   W12
        BYTE   PEND
// 026   ----------------------------------------
FieldsOfExpel_5_26:
        BYTE           N06     As1   v064
        BYTE   W06
        BYTE                   As1   v068
        BYTE   W06
        BYTE                   As1   v070
        BYTE   W06
        BYTE                   As1   v072
        BYTE   W06
        BYTE                   As1   v074
        BYTE   W06
        BYTE                   As1   v076
        BYTE   W06
        BYTE                   As1   v078
        BYTE   W06
        BYTE                   As1   v080
        BYTE   W06
        BYTE                   As1   v082
        BYTE   W06
        BYTE                   As1   v084
        BYTE   W06
        BYTE                   As1   v086
        BYTE   W06
        BYTE                   As1   v088
        BYTE   W06
        BYTE                   As1   v090
        BYTE   W06
        BYTE                   As1   v092
        BYTE   W06
        BYTE                   As1   v094
        BYTE   W06
        BYTE                   As1   v096
        BYTE   W06
        BYTE   PEND
// 027   ----------------------------------------
FieldsOfExpel_5_27:
        BYTE           N12     An1   v095
        BYTE   W12
        BYTE                   En1
        BYTE   W12
        BYTE                   An1   v100
        BYTE   W12
        BYTE                   En1
        BYTE   W12
        BYTE                   An1
        BYTE   W12
        BYTE                   En1
        BYTE   W12
        BYTE                   An1   v095
        BYTE   W12
        BYTE                   En1
        BYTE   W12
        BYTE   PEND
// 028   ----------------------------------------
        BYTE           N24     As1   v100
        BYTE   W96
// 029   ----------------------------------------
        BYTE   PATT
         POIN2  FieldsOfExpel_5_14
// 030   ----------------------------------------
FieldsOfExpel_5_30:
        BYTE           N12     En2   v079
        BYTE   W48
        BYTE                   En2
        BYTE   W12
        BYTE                   Bn1
        BYTE   W12
        BYTE                   En2   v100
        BYTE   W12
        BYTE                   Bn1
        BYTE   W12
        BYTE   PEND
// 031   ----------------------------------------
FieldsOfExpel_5_31:
        BYTE           N12     En2   v100
        BYTE   W48
        BYTE           N06     En2   v064
        BYTE   W06
        BYTE                   En2   v068
        BYTE   W06
        BYTE                   En2   v070
        BYTE   W06
        BYTE                   En2   v072
        BYTE   W06
        BYTE                   En2   v074
        BYTE   W06
        BYTE                   En2   v076
        BYTE   W06
        BYTE                   En2   v078
        BYTE   W06
        BYTE                   En2   v080
        BYTE   W06
        BYTE   PEND
// 032   ----------------------------------------
        BYTE   PATT
         POIN2  FieldsOfExpel_5_30
// 033   ----------------------------------------
        BYTE   PATT
         POIN2  FieldsOfExpel_5_31
// 034   ----------------------------------------
        BYTE   PATT
         POIN2  FieldsOfExpel_5_30
// 035   ----------------------------------------
        BYTE   PATT
         POIN2  FieldsOfExpel_5_31
// 036   ----------------------------------------
        BYTE   PATT
         POIN2  FieldsOfExpel_5_30
// 037   ----------------------------------------
        BYTE   PATT
         POIN2  FieldsOfExpel_5_31
// 038   ----------------------------------------
        BYTE           N96     En2   v111
        BYTE   W96
// 039   ----------------------------------------
        BYTE   PATT
         POIN2  FieldsOfExpel_5_9
// 040   ----------------------------------------
        BYTE           N06     Bn1   v079
        BYTE   W06
        BYTE                   Bn1   v082
        BYTE   W06
        BYTE                   Bn1   v084
        BYTE   W06
        BYTE                   Bn1   v086
        BYTE   W06
        BYTE                   Bn1   v088
        BYTE   W06
        BYTE                   Bn1   v090
        BYTE   W06
        BYTE                   Bn1   v092
        BYTE   W06
        BYTE                   Bn1   v094
        BYTE   W06
        BYTE                   Bn1   v096
        BYTE   W06
        BYTE                   Bn1   v098
        BYTE   W06
        BYTE                   Bn1   v100
        BYTE   W06
        BYTE                   Bn1   v102
        BYTE   W06
        BYTE                   Bn1   v104
        BYTE   W06
        BYTE                   Bn1   v106
        BYTE   W06
        BYTE                   Bn1   v108
        BYTE   W06
        BYTE                   Bn1   v111
        BYTE   W06
// 041   ----------------------------------------
        BYTE           N12
        BYTE   W36
        BYTE           N06     Bn1   v079
        BYTE   W06
        BYTE                   Bn1   v084
        BYTE   W06
        BYTE           N01     Bn1   v100
        BYTE   W12
        BYTE           N12     Fs1
        BYTE   W12
        BYTE                   Bn1
        BYTE   W12
        BYTE                   Fs1
        BYTE   W12
// 042   ----------------------------------------
        BYTE           N96     En2   v111
        BYTE   W96
// 043   ----------------------------------------
        BYTE   W96
// 044   ----------------------------------------
        BYTE   PATT
         POIN2  FieldsOfExpel_5_14
// 045   ----------------------------------------
        BYTE           N12     Bn1   v100
        BYTE   W12
        BYTE                   Fs1
        BYTE   W12
        BYTE                   Bn1
        BYTE   W12
        BYTE                   Fs1
        BYTE   W12
        BYTE                   Bn1
        BYTE   W12
        BYTE                   Fs1
        BYTE   W12
        BYTE                   Bn1
        BYTE   W12
        BYTE                   Fs1
        BYTE   W12
// 046   ----------------------------------------
        BYTE   W96
// 047   ----------------------------------------
        BYTE   W96
// 048   ----------------------------------------
        BYTE           N06     Gn1   v064
        BYTE   W06
        BYTE                   Gn1   v068
        BYTE   W06
        BYTE                   Gn1   v070
        BYTE   W06
        BYTE                   Gn1   v072
        BYTE   W06
        BYTE                   Gn1   v074
        BYTE   W06
        BYTE                   Gn1   v076
        BYTE   W06
        BYTE                   Gn1   v078
        BYTE   W06
        BYTE                   Gn1   v080
        BYTE   W06
        BYTE                   Gn1   v082
        BYTE   W06
        BYTE                   Gn1   v084
        BYTE   W06
        BYTE                   Gn1   v086
        BYTE   W06
        BYTE                   Gn1   v088
        BYTE   W06
        BYTE                   Gn1   v090
        BYTE   W06
        BYTE                   Gn1   v092
        BYTE   W06
        BYTE                   Gn1   v094
        BYTE   W06
        BYTE                   Gn1   v096
        BYTE   W06
// 049   ----------------------------------------
        BYTE           N12     An1   v100
        BYTE   W36
        BYTE                   An1
        BYTE   W36
        BYTE                   An1
        BYTE   W24
// 050   ----------------------------------------
        BYTE   PATT
         POIN2  FieldsOfExpel_5_24
// 051   ----------------------------------------
        BYTE           N12     Cn2   v095
        BYTE   W48
        BYTE                   Cn2   v100
        BYTE   W12
        BYTE                   Gn1
        BYTE   W12
        BYTE                   Cn2   v095
        BYTE   W12
        BYTE                   Gn1   v100
        BYTE   W12
// 052   ----------------------------------------
        BYTE                   En1   v095
        BYTE   W36
        BYTE           N06     En1   v100
        BYTE   W06
        BYTE           N01
        BYTE   W06
        BYTE                   En1   v095
        BYTE   W12
        BYTE           N12     An1
        BYTE   W12
        BYTE                   En1
        BYTE   W12
        BYTE                   An1
        BYTE   W12
// 053   ----------------------------------------
        BYTE                   En1
        BYTE   W12
        BYTE                   An1
        BYTE   W12
        BYTE                   En1
        BYTE   W12
        BYTE                   An1
        BYTE   W12
        BYTE                   En1
        BYTE   W12
        BYTE                   An1
        BYTE   W12
        BYTE                   En1
        BYTE   W12
        BYTE                   An1
        BYTE   W12
// 054   ----------------------------------------
        BYTE   PATT
         POIN2  FieldsOfExpel_5_24
// 055   ----------------------------------------
        BYTE   PATT
         POIN2  FieldsOfExpel_5_25
// 056   ----------------------------------------
        BYTE   PATT
         POIN2  FieldsOfExpel_5_26
// 057   ----------------------------------------
        BYTE   PATT
         POIN2  FieldsOfExpel_5_27
// 058   ----------------------------------------
        BYTE           N12     As1   v100
        BYTE   W96
// 059   ----------------------------------------
        BYTE   W96
// 060   ----------------------------------------
        BYTE   PATT
         POIN2  FieldsOfExpel_5_30
// 061   ----------------------------------------
        BYTE   PATT
         POIN2  FieldsOfExpel_5_31
// 062   ----------------------------------------
        BYTE   PATT
         POIN2  FieldsOfExpel_5_30
// 063   ----------------------------------------
        BYTE   PATT
         POIN2  FieldsOfExpel_5_31
// 064   ----------------------------------------
        BYTE   PATT
         POIN2  FieldsOfExpel_5_30
// 065   ----------------------------------------
        BYTE   PATT
         POIN2  FieldsOfExpel_5_31
// 066   ----------------------------------------
        BYTE   PATT
         POIN2  FieldsOfExpel_5_30
// 067   ----------------------------------------
        BYTE   PATT
         POIN2  FieldsOfExpel_5_31
// 068   ----------------------------------------
        BYTE   PATT
         POIN2  FieldsOfExpel_5_30
// 069   ----------------------------------------
        BYTE   PATT
         POIN2  FieldsOfExpel_5_31
// 070   ----------------------------------------
        BYTE   PATT
         POIN2  FieldsOfExpel_5_30
// 071   ----------------------------------------
        BYTE   PATT
         POIN2  FieldsOfExpel_5_31
// 072   ----------------------------------------
        BYTE   PATT
         POIN2  FieldsOfExpel_5_30
// 073   ----------------------------------------
        BYTE   PATT
         POIN2  FieldsOfExpel_5_31
// 074   ----------------------------------------
        BYTE   PATT
         POIN2  FieldsOfExpel_5_30
// 075   ----------------------------------------
        BYTE   PATT
         POIN2  FieldsOfExpel_5_31
// 076   ----------------------------------------
        BYTE           N72     En2   v100
        BYTE           N72     En1
        BYTE   W96
// 077   ----------------------------------------
        BYTE   W96
// 078   ----------------------------------------
        BYTE   W96
// 079   ----------------------------------------
        BYTE   W96
// 080   ----------------------------------------
        BYTE   W96
// 081   ----------------------------------------
        BYTE   W96
// 082   ----------------------------------------
        BYTE   W96
// 083   ----------------------------------------
        BYTE   W96
// 084   ----------------------------------------
        BYTE   W96
// 085   ----------------------------------------
        BYTE   W96
// 086   ----------------------------------------
        BYTE   W96
// 087   ----------------------------------------
        BYTE   W96
// 088   ----------------------------------------
        BYTE   W96
// 089   ----------------------------------------
        BYTE   W96
// 090   ----------------------------------------
        BYTE   W96
// 091   ----------------------------------------
        BYTE   W96
// 092   ----------------------------------------
        BYTE           N48     An1
        BYTE   W96
// 093   ----------------------------------------
        BYTE   W96
// 094   ----------------------------------------
        BYTE   W96
// 095   ----------------------------------------
        BYTE   W96
// 096   ----------------------------------------
        BYTE   W96
// 097   ----------------------------------------
        BYTE   W96
// 098   ----------------------------------------
        BYTE           N92     Cn1   v100   gtp2
        BYTE   W96
// 099   ----------------------------------------
        BYTE           VOL     67
        BYTE           N03     Cn1   v064
        BYTE   W03
        BYTE                   Cn1   v066
        BYTE   W03
        BYTE                   Cn1   v068
        BYTE   W03
        BYTE                   Cn1   v070
        BYTE   W03
        BYTE                   Cn1   v072
        BYTE   W03
        BYTE                   Cn1   v074
        BYTE   W03
        BYTE                   Cn1   v076
        BYTE   W03
        BYTE                   Cn1   v078
        BYTE   W03
        BYTE                   Cn1   v080
        BYTE   W03
        BYTE                   Cn1   v082
        BYTE   W03
        BYTE                   Cn1   v084
        BYTE   W03
        BYTE                   Cn1   v086
        BYTE   W03
        BYTE                   Cn1   v088
        BYTE   W03
        BYTE                   Cn1   v090
        BYTE   W03
        BYTE                   Cn1   v092
        BYTE   W03
        BYTE                   Cn1   v094
        BYTE   W03
        BYTE                   Cn1   v096
        BYTE   W03
        BYTE                   Cn1   v098
        BYTE   W03
        BYTE                   Cn1   v100
        BYTE   W03
        BYTE                   Cn1   v102
        BYTE   W03
        BYTE                   Cn1   v104
        BYTE   W03
        BYTE                   Cn1   v106
        BYTE   W03
        BYTE                   Cn1   v108
        BYTE   W03
        BYTE                   Cn1   v110
        BYTE   W03
        BYTE                   Cn1   v112
        BYTE   W03
        BYTE                   Cn1   v114
        BYTE   W03
        BYTE                   Cn1   v116
        BYTE   W03
        BYTE                   Cn1   v118
        BYTE   W03
        BYTE                   Cn1   v120
        BYTE   W03
        BYTE                   Cn1   v122
        BYTE   W03
        BYTE                   Cn1   v124
        BYTE   W03
        BYTE                   Cn1   v127
        BYTE   W03
// 100   ----------------------------------------
        BYTE           N92     En1   v100   gtp2
        BYTE   W96
// 101   ----------------------------------------
        BYTE           VOL     49
        BYTE           N44     En1   v100   gtp3
        BYTE   W48
        BYTE           N44     En1   v100   gtp2
        BYTE   W48
// 102   ----------------------------------------
        BYTE           N92     En1   v100   gtp2
        BYTE   W96
// 103   ----------------------------------------
FieldsOfExpel_5_103:
        BYTE           N44     En1   v100   gtp2
        BYTE   W48
        BYTE                   En1
        BYTE   W48
        BYTE   PEND
// 104   ----------------------------------------
        BYTE           N92     En1   v100   gtp2
        BYTE   W96
// 105   ----------------------------------------
        BYTE   PATT
         POIN2  FieldsOfExpel_5_103
// 106   ----------------------------------------
        BYTE           N92     En1   v100   gtp2
        BYTE   W96
// 107   ----------------------------------------
        BYTE           VOL     61
        BYTE           N03     En1   v064
        BYTE   W03
        BYTE                   En1   v066
        BYTE   W03
        BYTE                   En1   v068
        BYTE   W03
        BYTE                   En1   v070
        BYTE   W03
        BYTE                   En1   v072
        BYTE   W03
        BYTE                   En1   v074
        BYTE   W03
        BYTE                   En1   v076
        BYTE   W03
        BYTE                   En1   v078
        BYTE   W03
        BYTE                   En1   v080
        BYTE   W03
        BYTE                   En1   v082
        BYTE   W03
        BYTE                   En1   v084
        BYTE   W03
        BYTE                   En1   v086
        BYTE   W03
        BYTE                   En1   v088
        BYTE   W03
        BYTE                   En1   v090
        BYTE   W03
        BYTE                   En1   v092
        BYTE   W03
        BYTE                   En1   v094
        BYTE   W03
        BYTE                   En1   v096
        BYTE   W03
        BYTE                   En1   v098
        BYTE   W03
        BYTE                   En1   v100
        BYTE   W03
        BYTE                   En1   v102
        BYTE   W03
        BYTE                   En1   v104
        BYTE   W03
        BYTE                   En1   v106
        BYTE   W03
        BYTE                   En1   v108
        BYTE   W03
        BYTE                   En1   v110
        BYTE   W03
        BYTE                   En1   v112
        BYTE   W03
        BYTE                   En1   v114
        BYTE   W03
        BYTE                   En1   v116
        BYTE   W03
        BYTE                   En1   v118
        BYTE   W03
        BYTE                   En1   v120
        BYTE   W03
        BYTE                   En1   v122
        BYTE   W03
        BYTE                   En1   v124
        BYTE   W03
        BYTE                   En1   v127
        BYTE   W03
// 108   ----------------------------------------
        BYTE           VOL     54
        BYTE           N24     Bn1   v100
        BYTE   W24
        BYTE                   En1
        BYTE   W24
        BYTE                   Bn1
        BYTE   W24
        BYTE                   En1
        BYTE   W24
// 109   ----------------------------------------
FieldsOfExpel_5_109:
        BYTE           N24     Bn1   v100
        BYTE   W24
        BYTE                   En1
        BYTE   W24
        BYTE                   Bn1
        BYTE   W24
        BYTE                   En1
        BYTE   W24
        BYTE   PEND
// 110   ----------------------------------------
        BYTE   PATT
         POIN2  FieldsOfExpel_5_109
// 111   ----------------------------------------
        BYTE   PATT
         POIN2  FieldsOfExpel_5_109
// 112   ----------------------------------------
        BYTE   PATT
         POIN2  FieldsOfExpel_5_109
// 113   ----------------------------------------
        BYTE   PATT
         POIN2  FieldsOfExpel_5_109
// 114   ----------------------------------------
        BYTE   PATT
         POIN2  FieldsOfExpel_5_109
// 115   ----------------------------------------
        BYTE   PATT
         POIN2  FieldsOfExpel_5_109
// 116   ----------------------------------------
        BYTE           N60     An1   v100
        BYTE   W60
        BYTE           N12     En1
        BYTE   W12
        BYTE                   An1
        BYTE   W12
        BYTE                   En1
        BYTE   W12
// 117   ----------------------------------------
        BYTE           N44     An1   v100   gtp2
        BYTE   W48
        BYTE           N48
        BYTE   W48
// 118   ----------------------------------------
        BYTE           N60     Fs1
        BYTE   W60
        BYTE           N12     Cs1
        BYTE   W12
        BYTE                   Fs1
        BYTE   W12
        BYTE                   Cs1
        BYTE   W12
// 119   ----------------------------------------
        BYTE           N44     Fs1   v100   gtp2
        BYTE   W48
        BYTE           N48
        BYTE   W48
// 120   ----------------------------------------
        BYTE   W96
// 121   ----------------------------------------
        BYTE   W96
// 122   ----------------------------------------
        BYTE   W96
// 123   ----------------------------------------
        BYTE   W96
// 124   ----------------------------------------
        BYTE                   An1
        BYTE   W96
// 125   ----------------------------------------
        BYTE   W96
// 126   ----------------------------------------
        BYTE   W96
// 127   ----------------------------------------
        BYTE   W96
// 128   ----------------------------------------
        BYTE   W96
// 129   ----------------------------------------
        BYTE   W96
// 130   ----------------------------------------
        BYTE   W96
// 131   ----------------------------------------
        BYTE   W92
        BYTE   W03
        BYTE   GoTo
         POIN2  FieldsOfExpel_5_LOOP
        BYTE   FINE

//****************** Track 6 (Midi-Chn.6) ******************//

FieldsOfExpel_6:
        BYTE   KEYSH   FieldsOfExpel_key+0
// 000   ----------------------------------------
FieldsOfExpel_6_LOOP:
        BYTE           VOICE   71
        BYTE           VOL     54
        BYTE   W96
// 001   ----------------------------------------
        BYTE   W96
// 002   ----------------------------------------
        BYTE   W96
// 003   ----------------------------------------
        BYTE   W96
// 004   ----------------------------------------
        BYTE   W96
// 005   ----------------------------------------
        BYTE   W96
// 006   ----------------------------------------
        BYTE   W96
// 007   ----------------------------------------
        BYTE   W96
// 008   ----------------------------------------
FieldsOfExpel_6_8:
        BYTE           N36     En5   v100
        BYTE   W36
        BYTE                   Bn4
        BYTE   W36
        BYTE           N24     Gn5   v079
        BYTE   W24
        BYTE   PEND
// 009   ----------------------------------------
FieldsOfExpel_6_9:
        BYTE           N36     Fs5   v079
        BYTE   W36
        BYTE                   Dn5
        BYTE   W36
        BYTE           N24     Fs5
        BYTE   W24
        BYTE   PEND
// 010   ----------------------------------------
FieldsOfExpel_6_10:
        BYTE           N36     En5   v079
        BYTE   W36
        BYTE           TIE     Bn4
        BYTE   W60
        BYTE   PEND
// 011   ----------------------------------------
        BYTE   W96
// 012   ----------------------------------------
FieldsOfExpel_6_12:
        BYTE           EOT     Bn4
        BYTE           N36     En5   v100
        BYTE   W36
        BYTE                   Bn4
        BYTE   W36
        BYTE           N24     Gn5   v079
        BYTE   W24
        BYTE   PEND
// 013   ----------------------------------------
FieldsOfExpel_6_13:
        BYTE           N06     Fs5   v079
        BYTE   W06
        BYTE                   Gn5
        BYTE   W06
        BYTE           N36     An5
        BYTE   W36
        BYTE           N18     Dn6
        BYTE   W18
        BYTE                   Cn6
        BYTE   W18
        BYTE           N12     Bn5
        BYTE   W12
        BYTE   PEND
// 014   ----------------------------------------
FieldsOfExpel_6_14:
        BYTE           N36     Cn6   v079
        BYTE   W36
        BYTE           N60     Gn5
        BYTE   W60
        BYTE   PEND
// 015   ----------------------------------------
        BYTE           N96     Fs5
        BYTE   W96
// 016   ----------------------------------------
        BYTE   PATT
         POIN2  FieldsOfExpel_4_16
// 017   ----------------------------------------
        BYTE   PATT
         POIN2  FieldsOfExpel_4_17
// 018   ----------------------------------------
        BYTE   PATT
         POIN2  FieldsOfExpel_4_18
// 019   ----------------------------------------
        BYTE   PATT
         POIN2  FieldsOfExpel_4_19
// 020   ----------------------------------------
FieldsOfExpel_6_20:
        BYTE           N18     Dn5   v079
        BYTE   W18
        BYTE                   Cn5
        BYTE   W18
        BYTE           N12     An4
        BYTE   W12
        BYTE           N24     An5
        BYTE   W24
        BYTE                   Dn5
        BYTE   W24
        BYTE   PEND
// 021   ----------------------------------------
FieldsOfExpel_6_21:
        BYTE           N36     En5   v079
        BYTE   W48
        BYTE           N18
        BYTE   W18
        BYTE                   Dn5
        BYTE   W18
        BYTE           N12     Cn5
        BYTE   W12
        BYTE   PEND
// 022   ----------------------------------------
FieldsOfExpel_6_22:
        BYTE           N06     Dn5   v079
        BYTE   W06
        BYTE                   Cn5
        BYTE   W06
        BYTE           N36     Dn5
        BYTE   W36
        BYTE           N18     Fn5
        BYTE   W18
        BYTE                   En5
        BYTE   W18
        BYTE           N12     Dn5
        BYTE   W12
        BYTE   PEND
// 023   ----------------------------------------
FieldsOfExpel_6_23:
        BYTE           N48     Cs5   v079
        BYTE   W48
        BYTE                   An4
        BYTE   W48
        BYTE   PEND
// 024   ----------------------------------------
        BYTE   PATT
         POIN2  FieldsOfExpel_6_20
// 025   ----------------------------------------
        BYTE   PATT
         POIN2  FieldsOfExpel_6_21
// 026   ----------------------------------------
        BYTE   PATT
         POIN2  FieldsOfExpel_6_22
// 027   ----------------------------------------
        BYTE   PATT
         POIN2  FieldsOfExpel_6_23
// 028   ----------------------------------------
        BYTE           N96     As1   v127
        BYTE   W96
// 029   ----------------------------------------
        BYTE                   Cn2
        BYTE   W96
// 030   ----------------------------------------
        BYTE   W96
// 031   ----------------------------------------
        BYTE   W96
// 032   ----------------------------------------
        BYTE   W96
// 033   ----------------------------------------
        BYTE   W96
// 034   ----------------------------------------
        BYTE   W96
// 035   ----------------------------------------
        BYTE   W96
// 036   ----------------------------------------
        BYTE   W96
// 037   ----------------------------------------
        BYTE   W96
// 038   ----------------------------------------
        BYTE   PATT
         POIN2  FieldsOfExpel_6_8
// 039   ----------------------------------------
        BYTE   PATT
         POIN2  FieldsOfExpel_6_9
// 040   ----------------------------------------
        BYTE   PATT
         POIN2  FieldsOfExpel_6_10
// 041   ----------------------------------------
        BYTE   W96
// 042   ----------------------------------------
        BYTE   PATT
         POIN2  FieldsOfExpel_6_12
// 043   ----------------------------------------
        BYTE   PATT
         POIN2  FieldsOfExpel_6_13
// 044   ----------------------------------------
        BYTE   PATT
         POIN2  FieldsOfExpel_6_14
// 045   ----------------------------------------
        BYTE           N96     Fs5   v079
        BYTE   W96
// 046   ----------------------------------------
        BYTE   W96
// 047   ----------------------------------------
        BYTE   W96
// 048   ----------------------------------------
        BYTE   W96
// 049   ----------------------------------------
        BYTE   W96
// 050   ----------------------------------------
        BYTE   PATT
         POIN2  FieldsOfExpel_6_20
// 051   ----------------------------------------
        BYTE   PATT
         POIN2  FieldsOfExpel_6_21
// 052   ----------------------------------------
        BYTE   PATT
         POIN2  FieldsOfExpel_6_22
// 053   ----------------------------------------
        BYTE   PATT
         POIN2  FieldsOfExpel_6_23
// 054   ----------------------------------------
        BYTE   PATT
         POIN2  FieldsOfExpel_6_20
// 055   ----------------------------------------
        BYTE   PATT
         POIN2  FieldsOfExpel_6_21
// 056   ----------------------------------------
        BYTE   PATT
         POIN2  FieldsOfExpel_6_22
// 057   ----------------------------------------
        BYTE   PATT
         POIN2  FieldsOfExpel_6_23
// 058   ----------------------------------------
        BYTE           N96     As1   v127
        BYTE   W96
// 059   ----------------------------------------
        BYTE                   Cn2
        BYTE   W96
// 060   ----------------------------------------
        BYTE   W96
// 061   ----------------------------------------
        BYTE   W96
// 062   ----------------------------------------
        BYTE   W96
// 063   ----------------------------------------
        BYTE   W96
// 064   ----------------------------------------
        BYTE   W96
// 065   ----------------------------------------
        BYTE   W96
// 066   ----------------------------------------
        BYTE   W96
// 067   ----------------------------------------
        BYTE   W96
// 068   ----------------------------------------
        BYTE   W96
// 069   ----------------------------------------
        BYTE   W96
// 070   ----------------------------------------
        BYTE   W96
// 071   ----------------------------------------
        BYTE   W96
// 072   ----------------------------------------
        BYTE   W96
// 073   ----------------------------------------
        BYTE   W96
// 074   ----------------------------------------
        BYTE   W96
// 075   ----------------------------------------
        BYTE   W96
// 076   ----------------------------------------
        BYTE   W96
// 077   ----------------------------------------
        BYTE   W96
// 078   ----------------------------------------
        BYTE   W96
// 079   ----------------------------------------
        BYTE   W96
// 080   ----------------------------------------
        BYTE   W96
// 081   ----------------------------------------
        BYTE   W96
// 082   ----------------------------------------
        BYTE   W96
// 083   ----------------------------------------
        BYTE   W96
// 084   ----------------------------------------
        BYTE   W96
// 085   ----------------------------------------
        BYTE   W96
// 086   ----------------------------------------
        BYTE   W96
// 087   ----------------------------------------
        BYTE   W96
// 088   ----------------------------------------
        BYTE   W96
// 089   ----------------------------------------
        BYTE   W96
// 090   ----------------------------------------
        BYTE   W96
// 091   ----------------------------------------
        BYTE   W96
// 092   ----------------------------------------
        BYTE   W96
// 093   ----------------------------------------
        BYTE   W96
// 094   ----------------------------------------
        BYTE   W96
// 095   ----------------------------------------
        BYTE   W96
// 096   ----------------------------------------
        BYTE   W96
// 097   ----------------------------------------
        BYTE   W96
// 098   ----------------------------------------
        BYTE   W96
// 099   ----------------------------------------
        BYTE   W96
// 100   ----------------------------------------
        BYTE   W96
// 101   ----------------------------------------
        BYTE   W96
// 102   ----------------------------------------
        BYTE   W96
// 103   ----------------------------------------
        BYTE   W96
// 104   ----------------------------------------
        BYTE   W96
// 105   ----------------------------------------
        BYTE   W96
// 106   ----------------------------------------
        BYTE   W96
// 107   ----------------------------------------
        BYTE   W96
// 108   ----------------------------------------
FieldsOfExpel_6_108:
        BYTE           N03     Bn5   v100
        BYTE   W02
        BYTE           N04     Cn6
        BYTE   W03
        BYTE                   Bn5
        BYTE   W03
        BYTE                   Cn6
        BYTE   W04
        BYTE                   Bn5
        BYTE   W02
        BYTE                   Cn6
        BYTE   W04
        BYTE                   Bn5
        BYTE   W02
        BYTE                   Cn6
        BYTE   W04
        BYTE           N03     Bn5
        BYTE   W02
        BYTE           N04     Cn6
        BYTE   W03
        BYTE                   Bn5
        BYTE   W03
        BYTE                   Cn6
        BYTE   W04
        BYTE                   Bn5
        BYTE   W02
        BYTE                   Cn6
        BYTE   W04
        BYTE                   Bn5
        BYTE   W02
        BYTE                   Cn6
        BYTE   W04
        BYTE           N03     Bn5
        BYTE   W02
        BYTE           N04     Cn6
        BYTE   W03
        BYTE                   Bn5
        BYTE   W03
        BYTE                   Cn6
        BYTE   W04
        BYTE                   Bn5
        BYTE   W02
        BYTE                   Cn6
        BYTE   W04
        BYTE                   Bn5
        BYTE   W02
        BYTE                   Cn6
        BYTE   W04
        BYTE           N03     Bn5
        BYTE   W02
        BYTE           N04     Cn6
        BYTE   W03
        BYTE                   Bn5
        BYTE   W03
        BYTE                   Cn6
        BYTE   W04
        BYTE                   Bn5
        BYTE   W02
        BYTE                   Cn6
        BYTE   W04
        BYTE                   Bn5
        BYTE   W02
        BYTE                   Cn6
        BYTE   W04
        BYTE   PEND
// 109   ----------------------------------------
        BYTE   PATT
         POIN2  FieldsOfExpel_6_108
// 110   ----------------------------------------
        BYTE   PATT
         POIN2  FieldsOfExpel_6_108
// 111   ----------------------------------------
        BYTE   PATT
         POIN2  FieldsOfExpel_6_108
// 112   ----------------------------------------
        BYTE   PATT
         POIN2  FieldsOfExpel_6_108
// 113   ----------------------------------------
        BYTE   PATT
         POIN2  FieldsOfExpel_6_108
// 114   ----------------------------------------
        BYTE           N03     Bn5   v100
        BYTE   W02
        BYTE           N04     Cn6
        BYTE   W03
        BYTE                   Bn5
        BYTE   W03
        BYTE                   Cn6
        BYTE   W04
        BYTE                   Bn5
        BYTE   W02
        BYTE                   Cn6
        BYTE   W04
        BYTE                   Bn5
        BYTE   W02
        BYTE           N05     Cn6
        BYTE   W04
        BYTE           N03     Bn5
        BYTE   W02
        BYTE           N04     Cn6
        BYTE   W03
        BYTE                   Bn5
        BYTE   W03
        BYTE                   Cn6
        BYTE   W04
        BYTE                   Bn5
        BYTE   W02
        BYTE                   Cn6
        BYTE   W04
        BYTE                   Bn5
        BYTE   W02
        BYTE           N05     Cn6
        BYTE   W04
        BYTE           N03     Bn5
        BYTE   W02
        BYTE           N04     Cn6
        BYTE   W03
        BYTE                   Bn5
        BYTE   W03
        BYTE                   Cn6
        BYTE   W04
        BYTE                   Bn5
        BYTE   W02
        BYTE                   Cn6
        BYTE   W04
        BYTE                   Bn5
        BYTE   W02
        BYTE           N05     Cn6
        BYTE   W04
        BYTE           N03     Bn5
        BYTE   W02
        BYTE           N04     Cn6
        BYTE   W03
        BYTE                   Bn5
        BYTE   W03
        BYTE                   Cn6
        BYTE   W04
        BYTE                   Bn5
        BYTE   W02
        BYTE                   Cn6
        BYTE   W04
        BYTE                   Bn5
        BYTE   W02
        BYTE           N05     Cn6
        BYTE   W04
// 115   ----------------------------------------
        BYTE           N03     Bn5
        BYTE   W02
        BYTE           N04     Cn6
        BYTE   W03
        BYTE                   Bn5
        BYTE   W03
        BYTE                   Cn6
        BYTE   W04
        BYTE                   Bn5
        BYTE   W02
        BYTE                   Cn6
        BYTE   W04
        BYTE                   Bn5
        BYTE   W02
        BYTE           N05     Cn6
        BYTE   W04
        BYTE           N03     Bn5
        BYTE   W02
        BYTE           N04     Cn6
        BYTE   W03
        BYTE                   Bn5
        BYTE   W03
        BYTE                   Cn6
        BYTE   W04
        BYTE                   Bn5
        BYTE   W02
        BYTE                   Cn6
        BYTE   W04
        BYTE                   Bn5
        BYTE   W02
        BYTE           N05     Cn6
        BYTE   W04
        BYTE           N03     Bn5
        BYTE   W02
        BYTE           N04     Cn6
        BYTE   W03
        BYTE                   Bn5
        BYTE   W03
        BYTE                   Cn6
        BYTE   W04
        BYTE                   Bn5
        BYTE   W02
        BYTE                   Cn6
        BYTE   W04
        BYTE                   Bn5
        BYTE   W02
        BYTE           N05     Cn6
        BYTE   W04
        BYTE           N03     Bn5
        BYTE   W02
        BYTE           N04     Cn6
        BYTE   W03
        BYTE                   Bn5
        BYTE   W03
        BYTE                   Cn6
        BYTE   W04
        BYTE                   Bn5
        BYTE   W02
        BYTE                   Cn6
        BYTE   W04
        BYTE                   Bn5
        BYTE   W02
        BYTE                   Cn6
        BYTE   W04
// 116   ----------------------------------------
        BYTE   W96
// 117   ----------------------------------------
        BYTE   W96
// 118   ----------------------------------------
        BYTE   W96
// 119   ----------------------------------------
        BYTE   W96
// 120   ----------------------------------------
        BYTE   W96
// 121   ----------------------------------------
        BYTE   W96
// 122   ----------------------------------------
        BYTE   W96
// 123   ----------------------------------------
        BYTE   W96
// 124   ----------------------------------------
        BYTE   W96
// 125   ----------------------------------------
        BYTE   W96
// 126   ----------------------------------------
        BYTE   W96
// 127   ----------------------------------------
        BYTE   W96
// 128   ----------------------------------------
        BYTE   W96
// 129   ----------------------------------------
        BYTE   W96
// 130   ----------------------------------------
        BYTE   W96
// 131   ----------------------------------------
        BYTE   W92
        BYTE   W03
        BYTE   GoTo
         POIN2  FieldsOfExpel_6_LOOP
        BYTE   FINE

//****************** Track 7 (Midi-Chn.7) ******************//

FieldsOfExpel_7:
        BYTE   KEYSH   FieldsOfExpel_key+0
// 000   ----------------------------------------
FieldsOfExpel_7_LOOP:
        BYTE           VOICE   46
        BYTE           VOL     54
        BYTE   W96
// 001   ----------------------------------------
        BYTE   W96
// 002   ----------------------------------------
        BYTE   W96
// 003   ----------------------------------------
        BYTE   W96
// 004   ----------------------------------------
        BYTE   W96
// 005   ----------------------------------------
        BYTE   W96
// 006   ----------------------------------------
        BYTE   W96
// 007   ----------------------------------------
        BYTE   W96
// 008   ----------------------------------------
        BYTE   W96
// 009   ----------------------------------------
        BYTE   W96
// 010   ----------------------------------------
        BYTE   W96
// 011   ----------------------------------------
        BYTE   W96
// 012   ----------------------------------------
        BYTE   W96
// 013   ----------------------------------------
        BYTE   W96
// 014   ----------------------------------------
        BYTE   W96
// 015   ----------------------------------------
        BYTE   W96
// 016   ----------------------------------------
        BYTE   W96
// 017   ----------------------------------------
        BYTE   W96
// 018   ----------------------------------------
        BYTE   W96
// 019   ----------------------------------------
        BYTE   W96
// 020   ----------------------------------------
        BYTE   W96
// 021   ----------------------------------------
        BYTE   W96
// 022   ----------------------------------------
        BYTE   W96
// 023   ----------------------------------------
        BYTE   W96
// 024   ----------------------------------------
        BYTE   W96
// 025   ----------------------------------------
        BYTE   W96
// 026   ----------------------------------------
        BYTE   W96
// 027   ----------------------------------------
        BYTE   W96
// 028   ----------------------------------------
        BYTE   W96
// 029   ----------------------------------------
        BYTE   W96
// 030   ----------------------------------------
        BYTE   W96
// 031   ----------------------------------------
        BYTE   W96
// 032   ----------------------------------------
        BYTE   W96
// 033   ----------------------------------------
        BYTE   W96
// 034   ----------------------------------------
        BYTE   W96
// 035   ----------------------------------------
        BYTE   W96
// 036   ----------------------------------------
        BYTE   W96
// 037   ----------------------------------------
        BYTE   W96
// 038   ----------------------------------------
        BYTE   W96
// 039   ----------------------------------------
        BYTE   W96
// 040   ----------------------------------------
        BYTE   W96
// 041   ----------------------------------------
        BYTE   W96
// 042   ----------------------------------------
        BYTE   W96
// 043   ----------------------------------------
        BYTE   W96
// 044   ----------------------------------------
        BYTE   W96
// 045   ----------------------------------------
        BYTE   W96
// 046   ----------------------------------------
        BYTE   W96
// 047   ----------------------------------------
        BYTE   W96
// 048   ----------------------------------------
        BYTE   W96
// 049   ----------------------------------------
        BYTE   W96
// 050   ----------------------------------------
        BYTE   W96
// 051   ----------------------------------------
        BYTE   W96
// 052   ----------------------------------------
        BYTE   W96
// 053   ----------------------------------------
        BYTE   W96
// 054   ----------------------------------------
        BYTE   W96
// 055   ----------------------------------------
        BYTE   W96
// 056   ----------------------------------------
        BYTE   W96
// 057   ----------------------------------------
        BYTE   W96
// 058   ----------------------------------------
        BYTE   W96
// 059   ----------------------------------------
        BYTE   W96
// 060   ----------------------------------------
        BYTE   W96
// 061   ----------------------------------------
        BYTE   W96
// 062   ----------------------------------------
        BYTE   W96
// 063   ----------------------------------------
        BYTE   W96
// 064   ----------------------------------------
        BYTE   W96
// 065   ----------------------------------------
        BYTE   W96
// 066   ----------------------------------------
        BYTE   W96
// 067   ----------------------------------------
        BYTE   W96
// 068   ----------------------------------------
        BYTE   W96
// 069   ----------------------------------------
        BYTE   W96
// 070   ----------------------------------------
        BYTE   W96
// 071   ----------------------------------------
        BYTE   W96
// 072   ----------------------------------------
        BYTE   W96
// 073   ----------------------------------------
        BYTE   W96
// 074   ----------------------------------------
        BYTE   W96
// 075   ----------------------------------------
        BYTE   W96
// 076   ----------------------------------------
FieldsOfExpel_7_76:
        BYTE   W12
        BYTE           N12     Cn4   v100
        BYTE   W12
        BYTE                   Bn3
        BYTE   W12
        BYTE                   Gn3
        BYTE   W12
        BYTE                   An3
        BYTE   W12
        BYTE                   En3
        BYTE   W12
        BYTE                   Gn3
        BYTE   W12
        BYTE                   Dn3
        BYTE   W12
        BYTE   PEND
// 077   ----------------------------------------
        BYTE   PATT
         POIN2  FieldsOfExpel_7_76
// 078   ----------------------------------------
FieldsOfExpel_7_78:
        BYTE   W12
        BYTE           N12     Cs4   v100
        BYTE   W12
        BYTE                   Bn3
        BYTE   W12
        BYTE                   Gs3
        BYTE   W12
        BYTE                   An3
        BYTE   W12
        BYTE                   Fs3
        BYTE   W12
        BYTE                   Gs3
        BYTE   W12
        BYTE                   En3
        BYTE   W12
        BYTE   PEND
// 079   ----------------------------------------
        BYTE   PATT
         POIN2  FieldsOfExpel_7_78
// 080   ----------------------------------------
        BYTE   PATT
         POIN2  FieldsOfExpel_7_76
// 081   ----------------------------------------
        BYTE   PATT
         POIN2  FieldsOfExpel_7_76
// 082   ----------------------------------------
FieldsOfExpel_7_82:
        BYTE   W12
        BYTE           N12     Ds4   v100
        BYTE   W12
        BYTE                   Dn4
        BYTE   W12
        BYTE                   Cn4
        BYTE   W12
        BYTE                   Dn4
        BYTE   W12
        BYTE                   As3
        BYTE   W12
        BYTE                   Cn4
        BYTE   W12
        BYTE                   Gn3
        BYTE   W12
        BYTE   PEND
// 083   ----------------------------------------
        BYTE   PATT
         POIN2  FieldsOfExpel_7_82
// 084   ----------------------------------------
        BYTE   PATT
         POIN2  FieldsOfExpel_7_76
// 085   ----------------------------------------
        BYTE   PATT
         POIN2  FieldsOfExpel_7_76
// 086   ----------------------------------------
        BYTE   PATT
         POIN2  FieldsOfExpel_7_78
// 087   ----------------------------------------
        BYTE   PATT
         POIN2  FieldsOfExpel_7_78
// 088   ----------------------------------------
        BYTE   PATT
         POIN2  FieldsOfExpel_7_76
// 089   ----------------------------------------
        BYTE   PATT
         POIN2  FieldsOfExpel_7_76
// 090   ----------------------------------------
        BYTE   PATT
         POIN2  FieldsOfExpel_7_82
// 091   ----------------------------------------
        BYTE   PATT
         POIN2  FieldsOfExpel_7_82
// 092   ----------------------------------------
        BYTE   PATT
         POIN2  FieldsOfExpel_7_76
// 093   ----------------------------------------
        BYTE   PATT
         POIN2  FieldsOfExpel_7_76
// 094   ----------------------------------------
        BYTE   PATT
         POIN2  FieldsOfExpel_7_78
// 095   ----------------------------------------
        BYTE   PATT
         POIN2  FieldsOfExpel_7_78
// 096   ----------------------------------------
        BYTE   PATT
         POIN2  FieldsOfExpel_7_76
// 097   ----------------------------------------
        BYTE   PATT
         POIN2  FieldsOfExpel_7_76
// 098   ----------------------------------------
        BYTE   PATT
         POIN2  FieldsOfExpel_7_82
// 099   ----------------------------------------
        BYTE   PATT
         POIN2  FieldsOfExpel_7_82
// 100   ----------------------------------------
FieldsOfExpel_7_100:
        BYTE           N12     Bn3   v100
        BYTE   W12
        BYTE                   En3
        BYTE   W12
        BYTE                   Bn3
        BYTE   W12
        BYTE                   En3
        BYTE   W12
        BYTE                   Bn3
        BYTE   W12
        BYTE                   En3
        BYTE   W12
        BYTE                   Bn3
        BYTE   W12
        BYTE                   En3
        BYTE   W12
        BYTE   PEND
// 101   ----------------------------------------
        BYTE   PATT
         POIN2  FieldsOfExpel_7_100
// 102   ----------------------------------------
        BYTE   PATT
         POIN2  FieldsOfExpel_7_100
// 103   ----------------------------------------
        BYTE   PATT
         POIN2  FieldsOfExpel_7_100
// 104   ----------------------------------------
        BYTE   PATT
         POIN2  FieldsOfExpel_7_100
// 105   ----------------------------------------
        BYTE   PATT
         POIN2  FieldsOfExpel_7_100
// 106   ----------------------------------------
        BYTE   PATT
         POIN2  FieldsOfExpel_7_100
// 107   ----------------------------------------
        BYTE   PATT
         POIN2  FieldsOfExpel_7_100
// 108   ----------------------------------------
        BYTE   PATT
         POIN2  FieldsOfExpel_7_100
// 109   ----------------------------------------
        BYTE   PATT
         POIN2  FieldsOfExpel_7_100
// 110   ----------------------------------------
        BYTE   PATT
         POIN2  FieldsOfExpel_7_100
// 111   ----------------------------------------
        BYTE   PATT
         POIN2  FieldsOfExpel_7_100
// 112   ----------------------------------------
        BYTE   PATT
         POIN2  FieldsOfExpel_7_100
// 113   ----------------------------------------
        BYTE   PATT
         POIN2  FieldsOfExpel_7_100
// 114   ----------------------------------------
        BYTE   PATT
         POIN2  FieldsOfExpel_7_100
// 115   ----------------------------------------
        BYTE           N12     Bn3   v100
        BYTE   W12
        BYTE                   En3
        BYTE   W12
        BYTE                   Bn3
        BYTE   W12
        BYTE                   En3
        BYTE   W12
        BYTE                   Bn3
        BYTE   W12
        BYTE                   En3
        BYTE   W12
        BYTE                   Bn3
        BYTE   W12
        BYTE           N11     En3
        BYTE   W12
// 116   ----------------------------------------
        BYTE   PATT
         POIN2  FieldsOfExpel_7_76
// 117   ----------------------------------------
        BYTE   PATT
         POIN2  FieldsOfExpel_7_76
// 118   ----------------------------------------
        BYTE   PATT
         POIN2  FieldsOfExpel_7_78
// 119   ----------------------------------------
        BYTE   PATT
         POIN2  FieldsOfExpel_7_78
// 120   ----------------------------------------
        BYTE   PATT
         POIN2  FieldsOfExpel_7_76
// 121   ----------------------------------------
        BYTE   PATT
         POIN2  FieldsOfExpel_7_76
// 122   ----------------------------------------
        BYTE   PATT
         POIN2  FieldsOfExpel_7_82
// 123   ----------------------------------------
        BYTE   W12
        BYTE           N12     Ds4   v100
        BYTE   W12
        BYTE                   Dn4
        BYTE   W12
        BYTE                   Cn4
        BYTE   W12
        BYTE                   Dn4
        BYTE   W12
        BYTE                   As3
        BYTE   W12
        BYTE                   Cn4
        BYTE   W12
        BYTE           N11     Gn3
        BYTE   W12
// 124   ----------------------------------------
        BYTE   PATT
         POIN2  FieldsOfExpel_7_76
// 125   ----------------------------------------
        BYTE   PATT
         POIN2  FieldsOfExpel_7_76
// 126   ----------------------------------------
        BYTE   PATT
         POIN2  FieldsOfExpel_7_78
// 127   ----------------------------------------
        BYTE   PATT
         POIN2  FieldsOfExpel_7_78
// 128   ----------------------------------------
        BYTE   PATT
         POIN2  FieldsOfExpel_7_76
// 129   ----------------------------------------
        BYTE   PATT
         POIN2  FieldsOfExpel_7_76
// 130   ----------------------------------------
        BYTE   PATT
         POIN2  FieldsOfExpel_7_82
// 131   ----------------------------------------
        BYTE   W12
        BYTE           N12     Ds4   v100
        BYTE   W12
        BYTE                   Dn4
        BYTE   W12
        BYTE                   Cn4
        BYTE   W12
        BYTE                   Dn4
        BYTE   W12
        BYTE                   As3
        BYTE   W12
        BYTE                   Cn4
        BYTE   W12
        BYTE           N11     Gn3
        BYTE   W11
        BYTE   GoTo
         POIN2  FieldsOfExpel_7_LOOP
        BYTE   FINE

//****************** Track 8 (Midi-Chn.8) ******************//

FieldsOfExpel_8:
        BYTE   KEYSH   FieldsOfExpel_key+0
// 000   ----------------------------------------
FieldsOfExpel_8_LOOP:
        BYTE           VOICE   45
        BYTE           VOL     54
        BYTE   W96
// 001   ----------------------------------------
        BYTE   W96
// 002   ----------------------------------------
        BYTE   W96
// 003   ----------------------------------------
        BYTE   W96
// 004   ----------------------------------------
        BYTE   W96
// 005   ----------------------------------------
        BYTE   W96
// 006   ----------------------------------------
        BYTE   W96
// 007   ----------------------------------------
        BYTE   W96
// 008   ----------------------------------------
        BYTE   W96
// 009   ----------------------------------------
        BYTE   W96
// 010   ----------------------------------------
        BYTE   W96
// 011   ----------------------------------------
        BYTE   W96
// 012   ----------------------------------------
        BYTE   W96
// 013   ----------------------------------------
        BYTE   W96
// 014   ----------------------------------------
        BYTE   W96
// 015   ----------------------------------------
        BYTE   W96
// 016   ----------------------------------------
        BYTE   W96
// 017   ----------------------------------------
        BYTE   W96
// 018   ----------------------------------------
        BYTE   W96
// 019   ----------------------------------------
        BYTE   W96
// 020   ----------------------------------------
        BYTE   W96
// 021   ----------------------------------------
        BYTE   W96
// 022   ----------------------------------------
        BYTE   W96
// 023   ----------------------------------------
        BYTE   W96
// 024   ----------------------------------------
        BYTE   W96
// 025   ----------------------------------------
        BYTE   W96
// 026   ----------------------------------------
        BYTE   W96
// 027   ----------------------------------------
        BYTE   W96
// 028   ----------------------------------------
        BYTE   W96
// 029   ----------------------------------------
        BYTE   W96
// 030   ----------------------------------------
        BYTE   W96
// 031   ----------------------------------------
        BYTE   W96
// 032   ----------------------------------------
        BYTE   W96
// 033   ----------------------------------------
        BYTE   W96
// 034   ----------------------------------------
        BYTE   W96
// 035   ----------------------------------------
        BYTE   W96
// 036   ----------------------------------------
        BYTE   W96
// 037   ----------------------------------------
        BYTE   W96
// 038   ----------------------------------------
        BYTE   W96
// 039   ----------------------------------------
        BYTE   W96
// 040   ----------------------------------------
        BYTE   W96
// 041   ----------------------------------------
        BYTE   W96
// 042   ----------------------------------------
        BYTE   W96
// 043   ----------------------------------------
        BYTE   W96
// 044   ----------------------------------------
        BYTE   W96
// 045   ----------------------------------------
        BYTE   W96
// 046   ----------------------------------------
        BYTE   W96
// 047   ----------------------------------------
        BYTE   W96
// 048   ----------------------------------------
        BYTE   W96
// 049   ----------------------------------------
        BYTE   W96
// 050   ----------------------------------------
        BYTE   W96
// 051   ----------------------------------------
        BYTE   W96
// 052   ----------------------------------------
        BYTE   W96
// 053   ----------------------------------------
        BYTE   W96
// 054   ----------------------------------------
        BYTE   W96
// 055   ----------------------------------------
        BYTE   W96
// 056   ----------------------------------------
        BYTE   W96
// 057   ----------------------------------------
        BYTE   W96
// 058   ----------------------------------------
        BYTE   W96
// 059   ----------------------------------------
        BYTE   W96
// 060   ----------------------------------------
        BYTE   W96
// 061   ----------------------------------------
        BYTE   W96
// 062   ----------------------------------------
        BYTE   W96
// 063   ----------------------------------------
        BYTE   W96
// 064   ----------------------------------------
        BYTE   W96
// 065   ----------------------------------------
        BYTE   W96
// 066   ----------------------------------------
        BYTE   W96
// 067   ----------------------------------------
        BYTE   W96
// 068   ----------------------------------------
        BYTE   W96
// 069   ----------------------------------------
        BYTE   W96
// 070   ----------------------------------------
        BYTE   W96
// 071   ----------------------------------------
        BYTE   W96
// 072   ----------------------------------------
        BYTE   W96
// 073   ----------------------------------------
        BYTE   W96
// 074   ----------------------------------------
        BYTE   W96
// 075   ----------------------------------------
        BYTE   W96
// 076   ----------------------------------------
        BYTE   W96
// 077   ----------------------------------------
        BYTE           N12     An2   v100
        BYTE   W96
// 078   ----------------------------------------
        BYTE                   Fs2
        BYTE   W96
// 079   ----------------------------------------
        BYTE                   Fs2
        BYTE   W96
// 080   ----------------------------------------
        BYTE                   An2
        BYTE   W96
// 081   ----------------------------------------
        BYTE                   An2
        BYTE   W96
// 082   ----------------------------------------
        BYTE                   Cn3
        BYTE   W96
// 083   ----------------------------------------
        BYTE                   Cn3
        BYTE   W96
// 084   ----------------------------------------
        BYTE                   An2
        BYTE   W96
// 085   ----------------------------------------
        BYTE                   An2
        BYTE   W96
// 086   ----------------------------------------
        BYTE                   Fs2
        BYTE   W96
// 087   ----------------------------------------
        BYTE                   Fs2
        BYTE   W96
// 088   ----------------------------------------
        BYTE                   An2
        BYTE   W96
// 089   ----------------------------------------
        BYTE                   An2
        BYTE   W96
// 090   ----------------------------------------
        BYTE                   Cn3
        BYTE   W96
// 091   ----------------------------------------
        BYTE                   Cn3
        BYTE   W96
// 092   ----------------------------------------
        BYTE                   An2
        BYTE   W96
// 093   ----------------------------------------
        BYTE                   An2
        BYTE   W96
// 094   ----------------------------------------
        BYTE                   Fs2
        BYTE   W96
// 095   ----------------------------------------
        BYTE                   Fs2
        BYTE   W96
// 096   ----------------------------------------
        BYTE                   An2
        BYTE   W96
// 097   ----------------------------------------
        BYTE                   An2
        BYTE   W96
// 098   ----------------------------------------
        BYTE                   Cn3
        BYTE   W96
// 099   ----------------------------------------
        BYTE                   Cn3
        BYTE   W96
// 100   ----------------------------------------
FieldsOfExpel_8_100:
        BYTE           N12     Bn3   v100
        BYTE   W24
        BYTE                   Bn3
        BYTE   W24
        BYTE                   Bn3
        BYTE   W24
        BYTE                   Bn3
        BYTE   W24
        BYTE   PEND
// 101   ----------------------------------------
        BYTE   PATT
         POIN2  FieldsOfExpel_8_100
// 102   ----------------------------------------
        BYTE   PATT
         POIN2  FieldsOfExpel_8_100
// 103   ----------------------------------------
        BYTE   PATT
         POIN2  FieldsOfExpel_8_100
// 104   ----------------------------------------
        BYTE   PATT
         POIN2  FieldsOfExpel_8_100
// 105   ----------------------------------------
        BYTE   PATT
         POIN2  FieldsOfExpel_8_100
// 106   ----------------------------------------
        BYTE   PATT
         POIN2  FieldsOfExpel_8_100
// 107   ----------------------------------------
        BYTE   PATT
         POIN2  FieldsOfExpel_8_100
// 108   ----------------------------------------
        BYTE   PATT
         POIN2  FieldsOfExpel_8_100
// 109   ----------------------------------------
        BYTE   PATT
         POIN2  FieldsOfExpel_8_100
// 110   ----------------------------------------
        BYTE   PATT
         POIN2  FieldsOfExpel_8_100
// 111   ----------------------------------------
        BYTE   PATT
         POIN2  FieldsOfExpel_8_100
// 112   ----------------------------------------
        BYTE   PATT
         POIN2  FieldsOfExpel_8_100
// 113   ----------------------------------------
        BYTE   PATT
         POIN2  FieldsOfExpel_8_100
// 114   ----------------------------------------
        BYTE   PATT
         POIN2  FieldsOfExpel_8_100
// 115   ----------------------------------------
        BYTE   PATT
         POIN2  FieldsOfExpel_8_100
// 116   ----------------------------------------
        BYTE           N12     An2   v100
        BYTE   W96
// 117   ----------------------------------------
        BYTE                   An2
        BYTE   W96
// 118   ----------------------------------------
        BYTE                   Fs2
        BYTE   W96
// 119   ----------------------------------------
        BYTE                   Fs2
        BYTE   W96
// 120   ----------------------------------------
        BYTE                   An2
        BYTE   W96
// 121   ----------------------------------------
        BYTE                   An2
        BYTE   W96
// 122   ----------------------------------------
        BYTE                   Cn3
        BYTE   W96
// 123   ----------------------------------------
        BYTE                   Cn3
        BYTE   W96
// 124   ----------------------------------------
        BYTE                   An2
        BYTE   W96
// 125   ----------------------------------------
        BYTE                   An2
        BYTE   W96
// 126   ----------------------------------------
        BYTE                   Fs2
        BYTE   W96
// 127   ----------------------------------------
        BYTE                   Fs2
        BYTE   W96
// 128   ----------------------------------------
        BYTE                   An2
        BYTE   W96
// 129   ----------------------------------------
        BYTE                   An2
        BYTE   W96
// 130   ----------------------------------------
        BYTE                   Cn3
        BYTE   W96
// 131   ----------------------------------------
        BYTE                   Cn3
        BYTE   W92
        BYTE   W03
        BYTE   GoTo
         POIN2  FieldsOfExpel_8_LOOP
        BYTE   FINE

//****************** Track 9 (Midi-Chn.9) ******************//

FieldsOfExpel_9:
        BYTE   KEYSH   FieldsOfExpel_key+0
// 000   ----------------------------------------
FieldsOfExpel_9_LOOP:
        BYTE           VOICE   0
        BYTE           VOL     54
        BYTE           N96     An2   v127
        BYTE   W96
// 001   ----------------------------------------
        BYTE   W96
// 002   ----------------------------------------
        BYTE   W96
// 003   ----------------------------------------
        BYTE   W96
// 004   ----------------------------------------
        BYTE                   An2
        BYTE   W96
// 005   ----------------------------------------
        BYTE   W96
// 006   ----------------------------------------
        BYTE   W96
// 007   ----------------------------------------
        BYTE                   An2
        BYTE   W96
// 008   ----------------------------------------
        BYTE                   An2
        BYTE   W96
// 009   ----------------------------------------
        BYTE   W96
// 010   ----------------------------------------
        BYTE   W96
// 011   ----------------------------------------
        BYTE   W96
// 012   ----------------------------------------
        BYTE                   An2
        BYTE   W96
// 013   ----------------------------------------
        BYTE   W96
// 014   ----------------------------------------
        BYTE   W96
// 015   ----------------------------------------
        BYTE                   An2
        BYTE   W96
// 016   ----------------------------------------
        BYTE   W96
// 017   ----------------------------------------
        BYTE   W96
// 018   ----------------------------------------
        BYTE   W96
// 019   ----------------------------------------
        BYTE   W96
// 020   ----------------------------------------
        BYTE                   An2
        BYTE   W96
// 021   ----------------------------------------
        BYTE   W96
// 022   ----------------------------------------
        BYTE   W96
// 023   ----------------------------------------
        BYTE   W96
// 024   ----------------------------------------
        BYTE                   An2
        BYTE   W96
// 025   ----------------------------------------
        BYTE   W96
// 026   ----------------------------------------
        BYTE   W96
// 027   ----------------------------------------
        BYTE   W96
// 028   ----------------------------------------
        BYTE                   An2
        BYTE   W96
// 029   ----------------------------------------
        BYTE   W96
// 030   ----------------------------------------
FieldsOfExpel_9_30:
        BYTE           N06     En1   v095
        BYTE           N96     An2
        BYTE   W06
        BYTE           N06     En1
        BYTE   W06
        BYTE           N12
        BYTE   W12
        BYTE                   En1
        BYTE   W24
        BYTE                   En1
        BYTE   W12
        BYTE                   En1
        BYTE   W36
        BYTE   PEND
// 031   ----------------------------------------
FieldsOfExpel_9_31:
        BYTE           N06     En1   v095
        BYTE   W06
        BYTE                   En1
        BYTE   W06
        BYTE           N12
        BYTE   W12
        BYTE                   En1
        BYTE   W72
        BYTE   PEND
// 032   ----------------------------------------
        BYTE   PATT
         POIN2  FieldsOfExpel_9_30
// 033   ----------------------------------------
        BYTE   PATT
         POIN2  FieldsOfExpel_9_31
// 034   ----------------------------------------
        BYTE   PATT
         POIN2  FieldsOfExpel_9_30
// 035   ----------------------------------------
        BYTE   PATT
         POIN2  FieldsOfExpel_9_31
// 036   ----------------------------------------
        BYTE   PATT
         POIN2  FieldsOfExpel_9_30
// 037   ----------------------------------------
        BYTE   PATT
         POIN2  FieldsOfExpel_9_31
// 038   ----------------------------------------
        BYTE           N96     An2   v127
        BYTE   W96
// 039   ----------------------------------------
        BYTE   W96
// 040   ----------------------------------------
        BYTE   W96
// 041   ----------------------------------------
        BYTE   W96
// 042   ----------------------------------------
        BYTE                   An2
        BYTE   W96
// 043   ----------------------------------------
        BYTE   W96
// 044   ----------------------------------------
        BYTE   W96
// 045   ----------------------------------------
        BYTE                   An2
        BYTE   W96
// 046   ----------------------------------------
FieldsOfExpel_9_46:
        BYTE   W48
        BYTE           N06     En1   v079
        BYTE   W06
        BYTE                   En1
        BYTE   W06
        BYTE                   En1
        BYTE   W06
        BYTE                   En1
        BYTE   W06
        BYTE           N12
        BYTE   W24
        BYTE   PEND
// 047   ----------------------------------------
FieldsOfExpel_9_47:
        BYTE   W48
        BYTE           N12     En1   v079
        BYTE   W12
        BYTE                   En1
        BYTE   W36
        BYTE   PEND
// 048   ----------------------------------------
        BYTE   PATT
         POIN2  FieldsOfExpel_9_46
// 049   ----------------------------------------
        BYTE   PATT
         POIN2  FieldsOfExpel_9_47
// 050   ----------------------------------------
        BYTE           N96     An2   v127
        BYTE   W96
// 051   ----------------------------------------
        BYTE   W96
// 052   ----------------------------------------
        BYTE   W96
// 053   ----------------------------------------
        BYTE   W96
// 054   ----------------------------------------
        BYTE                   An2
        BYTE   W96
// 055   ----------------------------------------
        BYTE   W96
// 056   ----------------------------------------
        BYTE   W96
// 057   ----------------------------------------
        BYTE   W96
// 058   ----------------------------------------
        BYTE                   An2
        BYTE   W96
// 059   ----------------------------------------
        BYTE   W96
// 060   ----------------------------------------
        BYTE   PATT
         POIN2  FieldsOfExpel_9_30
// 061   ----------------------------------------
        BYTE   PATT
         POIN2  FieldsOfExpel_9_31
// 062   ----------------------------------------
        BYTE   PATT
         POIN2  FieldsOfExpel_9_30
// 063   ----------------------------------------
        BYTE   PATT
         POIN2  FieldsOfExpel_9_31
// 064   ----------------------------------------
        BYTE   PATT
         POIN2  FieldsOfExpel_9_30
// 065   ----------------------------------------
        BYTE   PATT
         POIN2  FieldsOfExpel_9_31
// 066   ----------------------------------------
        BYTE   PATT
         POIN2  FieldsOfExpel_9_30
// 067   ----------------------------------------
        BYTE   PATT
         POIN2  FieldsOfExpel_9_31
// 068   ----------------------------------------
        BYTE           N96     An2   v127
        BYTE           N06     En1   v115
        BYTE   W06
        BYTE                   En1   v100
        BYTE   W06
        BYTE           N01     En1   v090
        BYTE   W06
        BYTE                   En1   v080
        BYTE   W06
        BYTE                   En1   v072
        BYTE   W06
        BYTE           N06
        BYTE   W06
        BYTE           N01     En1   v075
        BYTE   W06
        BYTE                   En1   v080
        BYTE   W06
        BYTE                   En1   v110
        BYTE   W12
        BYTE           N12
        BYTE   W12
        BYTE           N01
        BYTE   W12
        BYTE           N06     En1   v085
        BYTE   W06
        BYTE           N01
        BYTE   W06
// 069   ----------------------------------------
FieldsOfExpel_9_69:
        BYTE           N01     En1   v100
        BYTE   W06
        BYTE           N06     En1   v090
        BYTE   W06
        BYTE           N01     En1   v088
        BYTE   W06
        BYTE                   En1   v084
        BYTE   W06
        BYTE                   En1   v083
        BYTE   W06
        BYTE           N06     En1   v080
        BYTE   W06
        BYTE           N01     En1   v077
        BYTE   W06
        BYTE                   En1   v076
        BYTE   W06
        BYTE                   En1   v074
        BYTE   W06
        BYTE           N06     En1   v072
        BYTE   W06
        BYTE           N01     En1   v075
        BYTE   W06
        BYTE                   En1   v077
        BYTE   W06
        BYTE                   En1   v084
        BYTE   W06
        BYTE           N06     En1   v088
        BYTE   W06
        BYTE           N01     En1   v094
        BYTE   W06
        BYTE                   En1   v096
        BYTE   W06
        BYTE   PEND
// 070   ----------------------------------------
FieldsOfExpel_9_70:
        BYTE           N96     An2   v095
        BYTE           N01     En1   v115
        BYTE   W06
        BYTE           N06     En1   v100
        BYTE   W06
        BYTE           N01     En1   v090
        BYTE   W06
        BYTE                   En1   v080
        BYTE   W06
        BYTE                   En1   v072
        BYTE   W06
        BYTE           N06
        BYTE   W06
        BYTE           N01     En1   v075
        BYTE   W06
        BYTE                   En1   v080
        BYTE   W06
        BYTE                   En1   v110
        BYTE   W12
        BYTE           N12
        BYTE   W12
        BYTE           N01
        BYTE   W12
        BYTE           N06     En1   v085
        BYTE   W06
        BYTE           N01
        BYTE   W06
        BYTE   PEND
// 071   ----------------------------------------
        BYTE   PATT
         POIN2  FieldsOfExpel_9_69
// 072   ----------------------------------------
        BYTE   PATT
         POIN2  FieldsOfExpel_9_70
// 073   ----------------------------------------
        BYTE   PATT
         POIN2  FieldsOfExpel_9_69
// 074   ----------------------------------------
        BYTE   PATT
         POIN2  FieldsOfExpel_9_70
// 075   ----------------------------------------
        BYTE   PATT
         POIN2  FieldsOfExpel_9_69
// 076   ----------------------------------------
        BYTE           TIE     An2   v100
        BYTE   W96
// 077   ----------------------------------------
        BYTE   W48
        BYTE           EOT
        BYTE   W48
// 078   ----------------------------------------
        BYTE   W96
// 079   ----------------------------------------
        BYTE   W96
// 080   ----------------------------------------
        BYTE   W96
// 081   ----------------------------------------
        BYTE   W96
// 082   ----------------------------------------
        BYTE   W96
// 083   ----------------------------------------
        BYTE   W96
// 084   ----------------------------------------
        BYTE   W96
// 085   ----------------------------------------
        BYTE   W96
// 086   ----------------------------------------
        BYTE   W96
// 087   ----------------------------------------
        BYTE   W96
// 088   ----------------------------------------
        BYTE   W96
// 089   ----------------------------------------
        BYTE   W96
// 090   ----------------------------------------
        BYTE   W96
// 091   ----------------------------------------
        BYTE   W96
// 092   ----------------------------------------
        BYTE           N96
        BYTE   W96
// 093   ----------------------------------------
        BYTE   W96
// 094   ----------------------------------------
        BYTE   W96
// 095   ----------------------------------------
        BYTE   W96
// 096   ----------------------------------------
        BYTE                   An2
        BYTE   W96
// 097   ----------------------------------------
        BYTE   W96
// 098   ----------------------------------------
        BYTE                   An2
        BYTE   W96
// 099   ----------------------------------------
        BYTE   W96
// 100   ----------------------------------------
FieldsOfExpel_9_100:
        BYTE           N44     Cs2   v100   gtp3
        BYTE           N23     En2
        BYTE   W24
        BYTE           N44     An2   v100   gtp3
        BYTE           N23     En2
        BYTE   W24
        BYTE           N44     Cs2   v100   gtp3
        BYTE           N23     En2
        BYTE   W24
        BYTE           N44     An2   v100   gtp3
        BYTE           N23     En2
        BYTE   W24
        BYTE   PEND
// 101   ----------------------------------------
        BYTE   PATT
         POIN2  FieldsOfExpel_9_100
// 102   ----------------------------------------
        BYTE   PATT
         POIN2  FieldsOfExpel_9_100
// 103   ----------------------------------------
        BYTE   PATT
         POIN2  FieldsOfExpel_9_100
// 104   ----------------------------------------
        BYTE   PATT
         POIN2  FieldsOfExpel_9_100
// 105   ----------------------------------------
        BYTE   PATT
         POIN2  FieldsOfExpel_9_100
// 106   ----------------------------------------
        BYTE   PATT
         POIN2  FieldsOfExpel_9_100
// 107   ----------------------------------------
        BYTE   PATT
         POIN2  FieldsOfExpel_9_100
// 108   ----------------------------------------
        BYTE   PATT
         POIN2  FieldsOfExpel_9_100
// 109   ----------------------------------------
        BYTE   PATT
         POIN2  FieldsOfExpel_9_100
// 110   ----------------------------------------
        BYTE   PATT
         POIN2  FieldsOfExpel_9_100
// 111   ----------------------------------------
        BYTE   PATT
         POIN2  FieldsOfExpel_9_100
// 112   ----------------------------------------
        BYTE   PATT
         POIN2  FieldsOfExpel_9_100
// 113   ----------------------------------------
        BYTE   PATT
         POIN2  FieldsOfExpel_9_100
// 114   ----------------------------------------
        BYTE   PATT
         POIN2  FieldsOfExpel_9_100
// 115   ----------------------------------------
        BYTE           N44     Cs2   v100   gtp3
        BYTE           N23     En2
        BYTE   W24
        BYTE           N44     An2   v100   gtp3
        BYTE           N23     En2
        BYTE   W24
        BYTE           N44     Cs2   v100   gtp3
        BYTE           N23     En2
        BYTE   W24
        BYTE           N24     An2
        BYTE           N23     En2
        BYTE   W24
// 116   ----------------------------------------
        BYTE           N96     Cs2
        BYTE   W96
// 117   ----------------------------------------
FieldsOfExpel_9_117:
        BYTE           N44     An2   v100   gtp2
        BYTE   W48
        BYTE           N48
        BYTE   W48
        BYTE   PEND
// 118   ----------------------------------------
        BYTE           N96     En2
        BYTE   W96
// 119   ----------------------------------------
        BYTE   W96
// 120   ----------------------------------------
        BYTE                   Cs2
        BYTE   W96
// 121   ----------------------------------------
        BYTE   PATT
         POIN2  FieldsOfExpel_9_117
// 122   ----------------------------------------
        BYTE           N92     En2   v100   gtp2
        BYTE   W96
// 123   ----------------------------------------
        BYTE           N96
        BYTE   W96
// 124   ----------------------------------------
        BYTE           VOL     42
        BYTE           N06     En1   v120
        BYTE           N96     Cs2   v100
        BYTE   W06
        BYTE           N06     En1   v080
        BYTE   W06
        BYTE           N01
        BYTE   W06
        BYTE                   En1
        BYTE   W06
        BYTE                   En1   v115
        BYTE   W06
        BYTE           N06     En1   v060
        BYTE   W06
        BYTE           N01
        BYTE   W06
        BYTE                   En1
        BYTE   W06
        BYTE                   En1   v120
        BYTE   W06
        BYTE           N06     En1   v080
        BYTE   W06
        BYTE           N01
        BYTE   W06
        BYTE                   En1
        BYTE   W06
        BYTE                   En1   v115
        BYTE   W06
        BYTE           N06     En1   v060
        BYTE   W06
        BYTE           N01
        BYTE   W06
        BYTE                   En1
        BYTE   W06
// 125   ----------------------------------------
FieldsOfExpel_9_125:
        BYTE           N44     An2   v100   gtp2
        BYTE           N01     En1   v120
        BYTE   W06
        BYTE           N06     En1   v080
        BYTE   W06
        BYTE           N01
        BYTE   W06
        BYTE                   En1
        BYTE   W06
        BYTE                   En1   v115
        BYTE   W06
        BYTE           N06     En1   v060
        BYTE   W06
        BYTE           N01
        BYTE   W06
        BYTE                   En1
        BYTE   W06
        BYTE           N48     An2   v100
        BYTE           N01     En1   v120
        BYTE   W06
        BYTE           N06     En1   v080
        BYTE   W06
        BYTE           N01
        BYTE   W06
        BYTE                   En1
        BYTE   W06
        BYTE                   En1   v115
        BYTE   W06
        BYTE           N06     En1   v060
        BYTE   W06
        BYTE           N01
        BYTE   W06
        BYTE                   En1
        BYTE   W06
        BYTE   PEND
// 126   ----------------------------------------
        BYTE           N96     En2   v100
        BYTE           N01     En1   v120
        BYTE   W06
        BYTE           N06     En1   v080
        BYTE   W06
        BYTE           N01
        BYTE   W06
        BYTE                   En1
        BYTE   W06
        BYTE                   En1   v115
        BYTE   W06
        BYTE           N06     En1   v060
        BYTE   W06
        BYTE           N01
        BYTE   W06
        BYTE                   En1
        BYTE   W06
        BYTE                   En1   v120
        BYTE   W06
        BYTE           N06     En1   v080
        BYTE   W06
        BYTE           N01
        BYTE   W06
        BYTE                   En1
        BYTE   W06
        BYTE                   En1   v115
        BYTE   W06
        BYTE           N06     En1   v060
        BYTE   W06
        BYTE           N01
        BYTE   W06
        BYTE                   En1
        BYTE   W06
// 127   ----------------------------------------
        BYTE                   En1   v120
        BYTE   W06
        BYTE           N06     En1   v080
        BYTE   W06
        BYTE           N01
        BYTE   W06
        BYTE                   En1
        BYTE   W06
        BYTE                   En1   v115
        BYTE   W06
        BYTE           N06     En1   v060
        BYTE   W06
        BYTE           N01
        BYTE   W06
        BYTE                   En1
        BYTE   W06
        BYTE                   En1   v120
        BYTE   W06
        BYTE           N06     En1   v080
        BYTE   W06
        BYTE           N01
        BYTE   W06
        BYTE                   En1
        BYTE   W06
        BYTE                   En1   v115
        BYTE   W06
        BYTE           N06     En1   v060
        BYTE   W06
        BYTE           N01
        BYTE   W06
        BYTE                   En1
        BYTE   W06
// 128   ----------------------------------------
        BYTE           N96     Cs2   v100
        BYTE           N01     En1   v120
        BYTE   W06
        BYTE           N06     En1   v080
        BYTE   W06
        BYTE           N01
        BYTE   W06
        BYTE                   En1
        BYTE   W06
        BYTE                   En1   v115
        BYTE   W06
        BYTE           N06     En1   v060
        BYTE   W06
        BYTE           N01
        BYTE   W06
        BYTE                   En1
        BYTE   W06
        BYTE                   En1   v120
        BYTE   W06
        BYTE           N06     En1   v080
        BYTE   W06
        BYTE           N01
        BYTE   W06
        BYTE                   En1
        BYTE   W06
        BYTE                   En1   v115
        BYTE   W06
        BYTE           N06     En1   v060
        BYTE   W06
        BYTE           N01
        BYTE   W06
        BYTE                   En1
        BYTE   W06
// 129   ----------------------------------------
        BYTE   PATT
         POIN2  FieldsOfExpel_9_125
// 130   ----------------------------------------
        BYTE           N92     En2   v100   gtp2
        BYTE           N01     En1   v120
        BYTE   W06
        BYTE           N06     En1   v080
        BYTE   W06
        BYTE           N01
        BYTE   W06
        BYTE                   En1
        BYTE   W06
        BYTE                   En1   v115
        BYTE   W06
        BYTE           N06     En1   v060
        BYTE   W06
        BYTE           N01
        BYTE   W06
        BYTE                   En1
        BYTE   W06
        BYTE                   En1   v120
        BYTE   W06
        BYTE           N06     En1   v080
        BYTE   W06
        BYTE           N01
        BYTE   W06
        BYTE                   En1
        BYTE   W06
        BYTE                   En1   v115
        BYTE   W06
        BYTE           N06     En1   v060
        BYTE   W06
        BYTE           N01
        BYTE   W06
        BYTE                   En1
        BYTE   W06
// 131   ----------------------------------------
        BYTE           N92     En2   v100   gtp2
        BYTE           N01     En1   v120
        BYTE   W06
        BYTE           N06     En1   v080
        BYTE   W06
        BYTE           N01
        BYTE   W06
        BYTE                   En1
        BYTE   W06
        BYTE                   En1   v115
        BYTE   W06
        BYTE           N06     En1   v060
        BYTE   W06
        BYTE           N01
        BYTE   W06
        BYTE                   En1
        BYTE   W06
        BYTE                   En1   v120
        BYTE   W06
        BYTE           N06     En1   v080
        BYTE   W06
        BYTE           N01
        BYTE   W06
        BYTE                   En1
        BYTE   W06
        BYTE                   En1   v115
        BYTE   W06
        BYTE           N06     En1   v060
        BYTE   W06
        BYTE           N01
        BYTE   W06
        BYTE                   En1
        BYTE   W05
        BYTE           VOL     54
        BYTE   GoTo
         POIN2  FieldsOfExpel_9_LOOP
        BYTE   FINE

//***************** Track 10 (Midi-Chn.10) *****************//

FieldsOfExpel_10:
        BYTE   KEYSH   FieldsOfExpel_key+0
// 000   ----------------------------------------
FieldsOfExpel_10_LOOP:
        BYTE           VOICE   19
        BYTE           VOL     54
        BYTE   W96
// 001   ----------------------------------------
        BYTE   W96
// 002   ----------------------------------------
        BYTE   W96
// 003   ----------------------------------------
        BYTE   W96
// 004   ----------------------------------------
        BYTE   W96
// 005   ----------------------------------------
        BYTE   W96
// 006   ----------------------------------------
        BYTE   W96
// 007   ----------------------------------------
        BYTE   W96
// 008   ----------------------------------------
        BYTE   W96
// 009   ----------------------------------------
        BYTE   W96
// 010   ----------------------------------------
        BYTE   W96
// 011   ----------------------------------------
        BYTE   W96
// 012   ----------------------------------------
        BYTE   W96
// 013   ----------------------------------------
        BYTE   W96
// 014   ----------------------------------------
        BYTE   W96
// 015   ----------------------------------------
        BYTE   W96
// 016   ----------------------------------------
        BYTE   W96
// 017   ----------------------------------------
        BYTE   W96
// 018   ----------------------------------------
        BYTE   W96
// 019   ----------------------------------------
        BYTE   W96
// 020   ----------------------------------------
        BYTE   W96
// 021   ----------------------------------------
        BYTE   W96
// 022   ----------------------------------------
        BYTE   W96
// 023   ----------------------------------------
        BYTE   W96
// 024   ----------------------------------------
        BYTE   W96
// 025   ----------------------------------------
        BYTE   W96
// 026   ----------------------------------------
        BYTE   W96
// 027   ----------------------------------------
        BYTE   W96
// 028   ----------------------------------------
        BYTE   W96
// 029   ----------------------------------------
        BYTE   W96
// 030   ----------------------------------------
        BYTE   W96
// 031   ----------------------------------------
        BYTE   W96
// 032   ----------------------------------------
        BYTE   W96
// 033   ----------------------------------------
        BYTE   W96
// 034   ----------------------------------------
        BYTE   W96
// 035   ----------------------------------------
        BYTE   W96
// 036   ----------------------------------------
        BYTE   W96
// 037   ----------------------------------------
        BYTE   W96
// 038   ----------------------------------------
        BYTE   W96
// 039   ----------------------------------------
        BYTE   W96
// 040   ----------------------------------------
        BYTE   W96
// 041   ----------------------------------------
        BYTE   W96
// 042   ----------------------------------------
        BYTE   W96
// 043   ----------------------------------------
        BYTE   W96
// 044   ----------------------------------------
        BYTE   W96
// 045   ----------------------------------------
        BYTE   W96
// 046   ----------------------------------------
        BYTE   W96
// 047   ----------------------------------------
        BYTE   W96
// 048   ----------------------------------------
        BYTE   W96
// 049   ----------------------------------------
        BYTE   W96
// 050   ----------------------------------------
        BYTE   W96
// 051   ----------------------------------------
        BYTE   W96
// 052   ----------------------------------------
        BYTE   W96
// 053   ----------------------------------------
        BYTE   W96
// 054   ----------------------------------------
        BYTE   W96
// 055   ----------------------------------------
        BYTE   W96
// 056   ----------------------------------------
        BYTE   W96
// 057   ----------------------------------------
        BYTE   W96
// 058   ----------------------------------------
        BYTE   W96
// 059   ----------------------------------------
        BYTE   W96
// 060   ----------------------------------------
        BYTE   W96
// 061   ----------------------------------------
        BYTE   W96
// 062   ----------------------------------------
        BYTE   W96
// 063   ----------------------------------------
        BYTE   W96
// 064   ----------------------------------------
        BYTE   W96
// 065   ----------------------------------------
        BYTE   W96
// 066   ----------------------------------------
        BYTE   W96
// 067   ----------------------------------------
        BYTE   W96
// 068   ----------------------------------------
        BYTE   W96
// 069   ----------------------------------------
        BYTE   W96
// 070   ----------------------------------------
        BYTE   W96
// 071   ----------------------------------------
        BYTE   W96
// 072   ----------------------------------------
        BYTE   W96
// 073   ----------------------------------------
        BYTE   W96
// 074   ----------------------------------------
        BYTE   W96
// 075   ----------------------------------------
        BYTE   W96
// 076   ----------------------------------------
        BYTE   W96
// 077   ----------------------------------------
        BYTE   W96
// 078   ----------------------------------------
        BYTE   W96
// 079   ----------------------------------------
        BYTE   W96
// 080   ----------------------------------------
        BYTE   W96
// 081   ----------------------------------------
        BYTE   W96
// 082   ----------------------------------------
        BYTE   W96
// 083   ----------------------------------------
        BYTE   W96
// 084   ----------------------------------------
        BYTE   W96
// 085   ----------------------------------------
        BYTE   W96
// 086   ----------------------------------------
        BYTE   W96
// 087   ----------------------------------------
        BYTE   W96
// 088   ----------------------------------------
        BYTE   W96
// 089   ----------------------------------------
        BYTE   W96
// 090   ----------------------------------------
        BYTE   W96
// 091   ----------------------------------------
        BYTE   W96
// 092   ----------------------------------------
FieldsOfExpel_10_92:
        BYTE   W12
        BYTE           N10     Cn5   v093
        BYTE           N10     Cn3
        BYTE   W12
        BYTE           N09     Bn4
        BYTE           N09     Bn2
        BYTE   W12
        BYTE           N10     Gn4
        BYTE           N10     Gn2
        BYTE   W12
        BYTE           N09     An4
        BYTE           N09     An2
        BYTE   W12
        BYTE           N10     En4
        BYTE           N10     En2
        BYTE   W12
        BYTE           N09     Gn4
        BYTE           N09     Gn2
        BYTE   W12
        BYTE           N10     Dn4
        BYTE           N10     Dn2
        BYTE   W12
        BYTE   PEND
// 093   ----------------------------------------
        BYTE   PATT
         POIN2  FieldsOfExpel_10_92
// 094   ----------------------------------------
FieldsOfExpel_10_94:
        BYTE   W12
        BYTE           N10     Cs5   v093
        BYTE           N10     Cs3
        BYTE   W12
        BYTE           N09     Bn4
        BYTE           N09     Bn2
        BYTE   W12
        BYTE           N10     Gs4
        BYTE           N10     Gs2
        BYTE   W12
        BYTE           N09     An4
        BYTE           N09     An2
        BYTE   W12
        BYTE           N10     Fs4
        BYTE           N10     Fs2
        BYTE   W12
        BYTE           N09     Gs4
        BYTE           N09     Gs2
        BYTE   W12
        BYTE           N10     En4
        BYTE           N10     En2
        BYTE   W12
        BYTE   PEND
// 095   ----------------------------------------
        BYTE   PATT
         POIN2  FieldsOfExpel_10_94
// 096   ----------------------------------------
        BYTE   W12
        BYTE           N10     Cn5   v093
        BYTE           N10     Cn3
        BYTE   W12
        BYTE           N09     Bn4
        BYTE           N09     Bn2
        BYTE   W12
        BYTE           N10     Gn4
        BYTE           N10     Gn2
        BYTE   W12
        BYTE           N09     An4
        BYTE           N09     An2
        BYTE   W12
        BYTE           N10     En4
        BYTE           N10     En2
        BYTE   W12
        BYTE           N09     Gn4
        BYTE           N09     Gn2
        BYTE   W12
        BYTE                   Dn4
        BYTE           N09     Dn2
        BYTE   W12
// 097   ----------------------------------------
        BYTE   W12
        BYTE                   Cn5
        BYTE           N09     Cn3
        BYTE   W12
        BYTE                   Bn4
        BYTE           N09     Bn2
        BYTE   W12
        BYTE                   Gn4
        BYTE           N09     Gn2
        BYTE   W12
        BYTE                   An4
        BYTE           N09     An2
        BYTE   W12
        BYTE                   En4
        BYTE           N09     En2
        BYTE   W12
        BYTE                   Gn4
        BYTE           N09     Gn2
        BYTE   W12
        BYTE                   Dn4
        BYTE           N09     Dn2
        BYTE   W12
// 098   ----------------------------------------
FieldsOfExpel_10_98:
        BYTE   W12
        BYTE           N08     Ds5   v093
        BYTE           N08     Ds3
        BYTE   W12
        BYTE                   Dn5
        BYTE           N08     Dn3
        BYTE   W12
        BYTE                   Cn5
        BYTE           N08     Cn3
        BYTE   W12
        BYTE                   Dn5
        BYTE           N08     Dn3
        BYTE   W12
        BYTE                   As4
        BYTE           N08     As2
        BYTE   W12
        BYTE                   Cn5
        BYTE           N08     Cn3
        BYTE   W12
        BYTE                   Gn4
        BYTE           N08     Gn2
        BYTE   W12
        BYTE   PEND
// 099   ----------------------------------------
        BYTE   PATT
         POIN2  FieldsOfExpel_10_98
// 100   ----------------------------------------
        BYTE   W96
// 101   ----------------------------------------
        BYTE   W96
// 102   ----------------------------------------
        BYTE   W96
// 103   ----------------------------------------
        BYTE   W96
// 104   ----------------------------------------
        BYTE   W96
// 105   ----------------------------------------
        BYTE   W96
// 106   ----------------------------------------
        BYTE   W96
// 107   ----------------------------------------
        BYTE   W96
// 108   ----------------------------------------
        BYTE   W96
// 109   ----------------------------------------
        BYTE   W96
// 110   ----------------------------------------
        BYTE   W96
// 111   ----------------------------------------
        BYTE   W96
// 112   ----------------------------------------
        BYTE   W96
// 113   ----------------------------------------
        BYTE   W96
// 114   ----------------------------------------
        BYTE   W96
// 115   ----------------------------------------
        BYTE   W96
// 116   ----------------------------------------
FieldsOfExpel_10_116:
        BYTE   W12
        BYTE           N10     Cn3   v100
        BYTE           N10     Cn5
        BYTE   W12
        BYTE           N09     Bn4
        BYTE           N09     Bn2
        BYTE   W12
        BYTE           N10     Gn4
        BYTE           N10     Gn2
        BYTE   W12
        BYTE           N09     An4
        BYTE           N09     An2
        BYTE   W12
        BYTE           N10     En4
        BYTE           N10     En2
        BYTE   W12
        BYTE           N09     Gn4
        BYTE           N09     Gn2
        BYTE   W12
        BYTE           N10     Dn4
        BYTE           N10     Dn2
        BYTE   W12
        BYTE   PEND
// 117   ----------------------------------------
FieldsOfExpel_10_117:
        BYTE   W12
        BYTE           N10     Cn5   v100
        BYTE           N10     Cn3
        BYTE   W12
        BYTE           N09     Bn4
        BYTE           N09     Bn2
        BYTE   W12
        BYTE           N10     Gn4
        BYTE           N10     Gn2
        BYTE   W12
        BYTE           N09     An4
        BYTE           N09     An2
        BYTE   W12
        BYTE           N10     En4
        BYTE           N10     En2
        BYTE   W12
        BYTE           N09     Gn4
        BYTE           N09     Gn2
        BYTE   W12
        BYTE           N10     Dn4
        BYTE           N10     Dn2
        BYTE   W12
        BYTE   PEND
// 118   ----------------------------------------
FieldsOfExpel_10_118:
        BYTE   W12
        BYTE           N10     Cs5   v100
        BYTE           N10     Cs3
        BYTE   W12
        BYTE           N09     Bn4
        BYTE           N09     Bn2
        BYTE   W12
        BYTE           N10     Gs4
        BYTE           N10     Gs2
        BYTE   W12
        BYTE           N09     An4
        BYTE           N09     An2
        BYTE   W12
        BYTE           N10     Fs4
        BYTE           N10     Fs2
        BYTE   W12
        BYTE           N09     Gs4
        BYTE           N09     Gs2
        BYTE   W12
        BYTE           N10     En4
        BYTE           N10     En2
        BYTE   W12
        BYTE   PEND
// 119   ----------------------------------------
        BYTE   PATT
         POIN2  FieldsOfExpel_10_118
// 120   ----------------------------------------
FieldsOfExpel_10_120:
        BYTE   W12
        BYTE           N10     Cn5   v100
        BYTE           N10     Cn3
        BYTE   W12
        BYTE           N09     Bn4
        BYTE           N09     Bn2
        BYTE   W12
        BYTE           N10     Gn4
        BYTE           N10     Gn2
        BYTE   W12
        BYTE           N09     An4
        BYTE           N09     An2
        BYTE   W12
        BYTE           N10     En4
        BYTE           N10     En2
        BYTE   W12
        BYTE           N09     Gn4
        BYTE           N09     Gn2
        BYTE   W12
        BYTE                   Dn4
        BYTE           N09     Dn2
        BYTE   W12
        BYTE   PEND
// 121   ----------------------------------------
FieldsOfExpel_10_121:
        BYTE   W12
        BYTE           N09     Cn5   v100
        BYTE           N09     Cn3
        BYTE   W12
        BYTE                   Bn4
        BYTE           N09     Bn2
        BYTE   W12
        BYTE                   Gn4
        BYTE           N09     Gn2
        BYTE   W12
        BYTE                   An4
        BYTE           N09     An2
        BYTE   W12
        BYTE                   En4
        BYTE           N09     En2
        BYTE   W12
        BYTE                   Gn4
        BYTE           N09     Gn2
        BYTE   W12
        BYTE                   Dn4
        BYTE           N09     Dn2
        BYTE   W12
        BYTE   PEND
// 122   ----------------------------------------
FieldsOfExpel_10_122:
        BYTE   W12
        BYTE           N08     Ds5   v100
        BYTE           N08     Ds3
        BYTE   W12
        BYTE                   Dn5
        BYTE           N08     Dn3
        BYTE   W12
        BYTE                   Cn5
        BYTE           N08     Cn3
        BYTE   W12
        BYTE                   Dn5
        BYTE           N08     Dn3
        BYTE   W12
        BYTE                   As4
        BYTE           N08     As2
        BYTE   W12
        BYTE                   Cn5
        BYTE           N08     Cn3
        BYTE   W12
        BYTE                   Gn4
        BYTE           N08     Gn2
        BYTE   W12
        BYTE   PEND
// 123   ----------------------------------------
        BYTE   PATT
         POIN2  FieldsOfExpel_10_122
// 124   ----------------------------------------
        BYTE   PATT
         POIN2  FieldsOfExpel_10_116
// 125   ----------------------------------------
        BYTE   PATT
         POIN2  FieldsOfExpel_10_117
// 126   ----------------------------------------
        BYTE   PATT
         POIN2  FieldsOfExpel_10_118
// 127   ----------------------------------------
        BYTE   PATT
         POIN2  FieldsOfExpel_10_118
// 128   ----------------------------------------
        BYTE   PATT
         POIN2  FieldsOfExpel_10_120
// 129   ----------------------------------------
        BYTE   PATT
         POIN2  FieldsOfExpel_10_121
// 130   ----------------------------------------
        BYTE   PATT
         POIN2  FieldsOfExpel_10_122
// 131   ----------------------------------------
        BYTE   W12
        BYTE           N08     Ds5   v100
        BYTE           N08     Ds3
        BYTE   W12
        BYTE                   Dn5
        BYTE           N08     Dn3
        BYTE   W12
        BYTE                   Cn5
        BYTE           N08     Cn3
        BYTE   W12
        BYTE                   Dn5
        BYTE           N08     Dn3
        BYTE   W12
        BYTE                   As4
        BYTE           N08     As2
        BYTE   W12
        BYTE                   Cn5
        BYTE           N08     Cn3
        BYTE   W12
        BYTE                   Gn4
        BYTE           N08     Gn2
        BYTE   W11
        BYTE   GoTo
         POIN2  FieldsOfExpel_10_LOOP
        BYTE   FINE


//********************** End of Song ***********************//

        ALIGN 4
FieldsOfExpel:
        BYTE   11                      // Num Tracks
        BYTE   0                       // Unknown
        BYTE   FieldsOfExpel_pri       // Priority
        BYTE   FieldsOfExpel_rev       // Reverb

        POIN2   FieldsOfExpel_grp      

        POIN2   FieldsOfExpel_0
        POIN2   FieldsOfExpel_1
        POIN2   FieldsOfExpel_2
        POIN2   FieldsOfExpel_3
        POIN2   FieldsOfExpel_4
        POIN2   FieldsOfExpel_5
        POIN2   FieldsOfExpel_6
        POIN2   FieldsOfExpel_7
        POIN2   FieldsOfExpel_8
        POIN2   FieldsOfExpel_9
        POIN2   FieldsOfExpel_10

        
