//Event file generated from Sappy .s format.
	#include "MPlayDef.event"

	#define	song01_grp  voicegroup000
	#define	song01_pri  0
	#define	song01_rev  0
	#define	song01_mvl  127
	#define	song01_key  0
	#define	song01_tbs  1
	#define	song01_exg  0
	#define	song01_cmp  1

	// .rodata
	//	song01
	ALIGN 4


//**************** Track 1 (Midi-Chn.0) ****************//

song01_001:
//  #01 //000   ----------------------------------------
 BYTE   KEYSH   song01_key+0
 BYTE   TEMPO   90*song01_tbs/2
 BYTE   MODT 0
 BYTE   LFOS 44
 BYTE   VOICE   47
 BYTE   PAN   c_v+16
 BYTE   VOL   70*song01_mvl/mxv
 BYTE   BEND   c_v+0
 BYTE   W96
//  #01 //001   ----------------------------------------
 BYTE   W96
//  #01 //002   ----------------------------------------
 BYTE   W96
//  #01 //003   ----------------------------------------
 BYTE   W96
//  #01 //004   ----------------------------------------
 BYTE   W96
//  #01 //005   ----------------------------------------
 BYTE   W96
//  #01 //006   ----------------------------------------
 BYTE   W96
//  #01 //007   ----------------------------------------
 BYTE   W96
//  #01 //008   ----------------------------------------
Label_01EBE304:
 BYTE   N06  An1  v118
 BYTE   W06
 BYTE   N06
 BYTE   W06
 BYTE   N06
 BYTE   W06
 BYTE   An1  v122
 BYTE   W78
 BYTE   PEND 
//  #01 //009   ----------------------------------------
 BYTE   PATT
  POIN2 Label_01EBE304
//  #01 //010   ----------------------------------------
Label_01EBE315:
 BYTE   N06  An1  v127
 BYTE   W06
 BYTE   An1  v094
 BYTE   W06
 BYTE   An1  v106
 BYTE   W06
 BYTE   An1  v114
 BYTE   W06
 BYTE   An1  v118
 BYTE   W06
 BYTE   An1  v127
 BYTE   W06
 BYTE   An1  v127
 BYTE   W60
 BYTE   PEND 
//  #01 //011   ----------------------------------------
 BYTE   PATT
  POIN2 Label_01EBE315
//  #01 //012   ----------------------------------------
 BYTE   PATT
  POIN2 Label_01EBE304
//  #01 //013   ----------------------------------------
 BYTE   PATT
  POIN2 Label_01EBE304
//  #01 //014   ----------------------------------------
Label_01EBE33B:
 BYTE   N06  Cn2  v127
 BYTE   W06
 BYTE   Cn2  v094
 BYTE   W06
 BYTE   Cn2  v106
 BYTE   W06
 BYTE   Cn2  v114
 BYTE   W06
 BYTE   Cn2  v118
 BYTE   W06
 BYTE   Cn2  v127
 BYTE   W06
 BYTE   Dn2
 BYTE   W06
 BYTE   Dn2  v094
 BYTE   W06
 BYTE   Dn2  v106
 BYTE   W06
 BYTE   Dn2  v114
 BYTE   W06
 BYTE   Dn2  v118
 BYTE   W06
 BYTE   Dn2  v127
 BYTE   W06
 BYTE   Dn2  v127
 BYTE   W24
 BYTE   PEND 
//  #01 //015   ----------------------------------------
 BYTE   W96
//  #01 //016   ----------------------------------------
 BYTE   PATT
  POIN2 Label_01EBE33B
//  #01 //017   ----------------------------------------
 BYTE   W66
 BYTE   N06  An1  v127
 BYTE   W06
 BYTE   N06
 BYTE   W06
 BYTE   En1
 BYTE   W06
 BYTE   N06
 BYTE   W06
 BYTE   An1
 BYTE   W06
//  #01 //018   ----------------------------------------
Label_01EBE376:
 BYTE   N06  An1  v127
 BYTE   W18
 BYTE   An1  v127
 BYTE   W18
 BYTE   An1  v127
 BYTE   W18
 BYTE   N06
 BYTE   W18
 BYTE   An1  v127
 BYTE   W24
 BYTE   PEND 
//  #01 //019   ----------------------------------------
 BYTE   PATT
  POIN2 Label_01EBE376
//  #01 //020   ----------------------------------------
 BYTE   PATT
  POIN2 Label_01EBE376
//  #01 //021   ----------------------------------------
 BYTE   PATT
  POIN2 Label_01EBE376
//  #01 //022   ----------------------------------------
 BYTE   PATT
  POIN2 Label_01EBE376
//  #01 //023   ----------------------------------------
 BYTE   PATT
  POIN2 Label_01EBE376
//  #01 //024   ----------------------------------------
Label_01EBE39F:
 BYTE   N06  Cn2  v127
 BYTE   W18
 BYTE   Cn2  v127
 BYTE   W18
 BYTE   Dn2  v127
 BYTE   W18
 BYTE   N06
 BYTE   W18
 BYTE   Dn2  v127
 BYTE   W24
 BYTE   PEND 
//  #01 //025   ----------------------------------------
Label_01EBE3AF:
 BYTE   N06  An1  v127
 BYTE   W18
 BYTE   An1  v127
 BYTE   W18
 BYTE   An1  v127
 BYTE   W18
 BYTE   N06
 BYTE   W18
 BYTE   Gn1  v127
 BYTE   W24
 BYTE   PEND 
//  #01 //026   ----------------------------------------
 BYTE   PATT
  POIN2 Label_01EBE39F
//  #01 //027   ----------------------------------------
 BYTE   PATT
  POIN2 Label_01EBE3AF
//  #01 //028   ----------------------------------------
 BYTE   PATT
  POIN2 Label_01EBE304
//  #01 //029   ----------------------------------------
 BYTE   PATT
  POIN2 Label_01EBE304
//  #01 //030   ----------------------------------------
 BYTE   PATT
  POIN2 Label_01EBE315
//  #01 //031   ----------------------------------------
 BYTE   PATT
  POIN2 Label_01EBE315
//  #01 //032   ----------------------------------------
 BYTE   PATT
  POIN2 Label_01EBE304
//  #01 //033   ----------------------------------------
 BYTE   PATT
  POIN2 Label_01EBE304
//  #01 //034   ----------------------------------------
 BYTE   PATT
  POIN2 Label_01EBE315
//  #01 //035   ----------------------------------------
 BYTE   PATT
  POIN2 Label_01EBE315
//  #01 //036   ----------------------------------------
 BYTE   GoTo
  POIN2 Label_01EBE304
 BYTE   FINE

//**************** Track 2 (Midi-Chn.1) ****************//

song01_002:
//  #02 //000   ----------------------------------------
 BYTE   KEYSH   song01_key+0
 BYTE   MODT 0
 BYTE   LFOS 44
 BYTE   VOICE   124
 BYTE   PAN   c_v+0
 BYTE   VOL   51*song01_mvl/mxv
 BYTE   BEND   c_v+0
 BYTE   N06  En1  v096
 BYTE   W06
 BYTE   En1  v032
 BYTE   W06
 BYTE   En1  v024
 BYTE   W06
 BYTE   En1  v016
 BYTE   W06
 BYTE   En1  v096
 BYTE   W06
 BYTE   En1  v028
 BYTE   W06
 BYTE   En1  v096
 BYTE   W06
 BYTE   En1  v032
 BYTE   W06
 BYTE   En1  v024
 BYTE   W06
 BYTE   En1  v016
 BYTE   W06
 BYTE   En1  v096
 BYTE   W06
 BYTE   En1  v028
 BYTE   W06
 BYTE   En1  v096
 BYTE   W06
 BYTE   En1  v032
 BYTE   W06
 BYTE   En1  v052
 BYTE   W06
 BYTE   En1  v032
 BYTE   W06
//  #02 //001   ----------------------------------------
Label_01F92313:
 BYTE   N06  En1  v096
 BYTE   W06
 BYTE   En1  v032
 BYTE   W06
 BYTE   En1  v024
 BYTE   W06
 BYTE   En1  v016
 BYTE   W06
 BYTE   En1  v096
 BYTE   W06
 BYTE   En1  v028
 BYTE   W06
 BYTE   En1  v096
 BYTE   W06
 BYTE   En1  v032
 BYTE   W06
 BYTE   En1  v024
 BYTE   W06
 BYTE   En1  v016
 BYTE   W06
 BYTE   En1  v096
 BYTE   W06
 BYTE   En1  v028
 BYTE   W06
 BYTE   En1  v096
 BYTE   W06
 BYTE   En1  v032
 BYTE   W06
 BYTE   En1  v052
 BYTE   W06
 BYTE   En1  v032
 BYTE   W06
 BYTE   PEND 
//  #02 //002   ----------------------------------------
 BYTE   PATT
  POIN2 Label_01F92313
//  #02 //003   ----------------------------------------
 BYTE   PATT
  POIN2 Label_01F92313
//  #02 //004   ----------------------------------------
 BYTE   PATT
  POIN2 Label_01F92313
//  #02 //005   ----------------------------------------
 BYTE   PATT
  POIN2 Label_01F92313
//  #02 //006   ----------------------------------------
 BYTE   PATT
  POIN2 Label_01F92313
//  #02 //007   ----------------------------------------
 BYTE   PATT
  POIN2 Label_01F92313
//  #02 //008   ----------------------------------------
Label_01F92363:
 BYTE   N12  Dn1  v127
 BYTE   N06  En1  v096
 BYTE   W06
 BYTE   En1  v032
 BYTE   W06
 BYTE   En1  v024
 BYTE   W06
 BYTE   N12  Dn1  v127
 BYTE   N06  En1  v016
 BYTE   W06
 BYTE   En1  v096
 BYTE   W06
 BYTE   En1  v028
 BYTE   W06
 BYTE   En1  v096
 BYTE   W06
 BYTE   En1  v032
 BYTE   W06
 BYTE   En1  v024
 BYTE   W06
 BYTE   En1  v016
 BYTE   W06
 BYTE   En1  v096
 BYTE   W06
 BYTE   En1  v028
 BYTE   W06
 BYTE   En1  v096
 BYTE   W06
 BYTE   En1  v032
 BYTE   W06
 BYTE   En1  v052
 BYTE   W06
 BYTE   En1  v032
 BYTE   W06
 BYTE   PEND 
//  #02 //009   ----------------------------------------
 BYTE   PATT
  POIN2 Label_01F92313
//  #02 //010   ----------------------------------------
 BYTE   PATT
  POIN2 Label_01F92363
//  #02 //011   ----------------------------------------
 BYTE   PATT
  POIN2 Label_01F92313
//  #02 //012   ----------------------------------------
 BYTE   PATT
  POIN2 Label_01F92363
//  #02 //013   ----------------------------------------
 BYTE   PATT
  POIN2 Label_01F92313
//  #02 //014   ----------------------------------------
 BYTE   PATT
  POIN2 Label_01F92363
//  #02 //015   ----------------------------------------
 BYTE   PATT
  POIN2 Label_01F92313
//  #02 //016   ----------------------------------------
Label_01F923BF:
 BYTE   N12  Dn1  v127
 BYTE   N06  En1  v096
 BYTE   W06
 BYTE   En1  v032
 BYTE   W06
 BYTE   En1  v024
 BYTE   W06
 BYTE   En1  v016
 BYTE   W06
 BYTE   En1  v096
 BYTE   W06
 BYTE   En1  v028
 BYTE   W06
 BYTE   N12  Dn1  v127
 BYTE   N06  En1  v096
 BYTE   W06
 BYTE   En1  v032
 BYTE   W06
 BYTE   En1  v024
 BYTE   W06
 BYTE   En1  v016
 BYTE   W06
 BYTE   En1  v096
 BYTE   W06
 BYTE   En1  v028
 BYTE   W06
 BYTE   N12  Dn1  v127
 BYTE   N06  En1  v096
 BYTE   W06
 BYTE   En1  v032
 BYTE   W06
 BYTE   En1  v052
 BYTE   W06
 BYTE   En1  v032
 BYTE   W06
 BYTE   PEND 
//  #02 //017   ----------------------------------------
 BYTE   PATT
  POIN2 Label_01F923BF
//  #02 //018   ----------------------------------------
 BYTE   PATT
  POIN2 Label_01F923BF
//  #02 //019   ----------------------------------------
 BYTE   PATT
  POIN2 Label_01F923BF
//  #02 //020   ----------------------------------------
 BYTE   PATT
  POIN2 Label_01F923BF
//  #02 //021   ----------------------------------------
 BYTE   PATT
  POIN2 Label_01F923BF
//  #02 //022   ----------------------------------------
 BYTE   PATT
  POIN2 Label_01F923BF
//  #02 //023   ----------------------------------------
 BYTE   PATT
  POIN2 Label_01F923BF
//  #02 //024   ----------------------------------------
 BYTE   PATT
  POIN2 Label_01F923BF
//  #02 //025   ----------------------------------------
 BYTE   PATT
  POIN2 Label_01F923BF
//  #02 //026   ----------------------------------------
 BYTE   PATT
  POIN2 Label_01F923BF
//  #02 //027   ----------------------------------------
 BYTE   PATT
  POIN2 Label_01F923BF
//  #02 //028   ----------------------------------------
 BYTE   PATT
  POIN2 Label_01F92313
//  #02 //029   ----------------------------------------
 BYTE   PATT
  POIN2 Label_01F92313
//  #02 //030   ----------------------------------------
 BYTE   PATT
  POIN2 Label_01F92313
//  #02 //031   ----------------------------------------
 BYTE   PATT
  POIN2 Label_01F92313
//  #02 //032   ----------------------------------------
 BYTE   PATT
  POIN2 Label_01F92313
//  #02 //033   ----------------------------------------
 BYTE   PATT
  POIN2 Label_01F92313
//  #02 //034   ----------------------------------------
 BYTE   PATT
  POIN2 Label_01F92313
//  #02 //035   ----------------------------------------
 BYTE   PATT
  POIN2 Label_01F92313
//  #02 //036   ----------------------------------------
 BYTE   GoTo
  POIN2 Label_01F92363
 BYTE   FINE

//**************** Track 3 (Midi-Chn.2) ****************//

song01_003:
//  #03 //000   ----------------------------------------
 BYTE   KEYSH   song01_key+0
 BYTE   MODT 0
 BYTE   LFOS 44
 BYTE   VOICE   10
 BYTE   PAN   c_v+0
 BYTE   VOL   35*song01_mvl/mxv
 BYTE   BEND   c_v+0
 BYTE   N06  An3  v004
 BYTE   W06
 BYTE   Cn4
 BYTE   W06
 BYTE   Gn4
 BYTE   W06
 BYTE   Cn4  v008
 BYTE   W06
 BYTE   Fs4
 BYTE   W06
 BYTE   Dn4  v012
 BYTE   W06
 BYTE   An3  v016
 BYTE   W06
 BYTE   Cn4
 BYTE   W06
 BYTE   Gn4  v020
 BYTE   W06
 BYTE   Cn4  v024
 BYTE   W06
 BYTE   Fs4
 BYTE   W06
 BYTE   Dn4  v028
 BYTE   W06
 BYTE   An3  v032
 BYTE   W06
 BYTE   Cn4  v036
 BYTE   W06
 BYTE   Gn4  v040
 BYTE   W06
 BYTE   Cn4  v044
 BYTE   W06
//  #03 //001   ----------------------------------------
 BYTE   Fs4  v048
 BYTE   W06
 BYTE   Dn4  v052
 BYTE   W06
 BYTE   An3  v056
 BYTE   W06
 BYTE   Cn4  v060
 BYTE   W06
 BYTE   Gn4  v064
 BYTE   W06
 BYTE   Cn4  v072
 BYTE   W06
 BYTE   Fs4  v076
 BYTE   W06
 BYTE   Dn4  v080
 BYTE   W06
 BYTE   An3  v084
 BYTE   W06
 BYTE   Cn4  v088
 BYTE   W06
 BYTE   Gn4  v096
 BYTE   W06
 BYTE   Cn4  v100
 BYTE   W06
 BYTE   Fs4  v108
 BYTE   W06
 BYTE   Dn4  v112
 BYTE   W06
 BYTE   An3  v120
 BYTE   W06
 BYTE   Cn4  v124
 BYTE   W06
//  #03 //002   ----------------------------------------
Label_01F914A6:
 BYTE   N06  Gn4  v127
 BYTE   W06
 BYTE   Cn4
 BYTE   W06
 BYTE   Fs4  v124
 BYTE   W06
 BYTE   Dn4  v120
 BYTE   W06
 BYTE   An3
 BYTE   W06
 BYTE   Cn4  v116
 BYTE   W06
 BYTE   Gn4
 BYTE   W06
 BYTE   Cn4  v112
 BYTE   W06
 BYTE   Fs4
 BYTE   W06
 BYTE   Dn4  v108
 BYTE   W06
 BYTE   An3
 BYTE   W06
 BYTE   Cn4  v104
 BYTE   W06
 BYTE   Gn4
 BYTE   W06
 BYTE   Cn4  v100
 BYTE   W06
 BYTE   Fs4
 BYTE   W06
 BYTE   Dn4  v096
 BYTE   W06
 BYTE   PEND 
//  #03 //003   ----------------------------------------
Label_01F914D1:
 BYTE   N06  An3  v096
 BYTE   W06
 BYTE   Cn4  v092
 BYTE   W06
 BYTE   Gn4
 BYTE   W06
 BYTE   Cn4  v088
 BYTE   W06
 BYTE   Fs4
 BYTE   W06
 BYTE   Dn4  v084
 BYTE   W06
 BYTE   An3
 BYTE   W06
 BYTE   Cn4  v080
 BYTE   W06
 BYTE   Gn4
 BYTE   W06
 BYTE   Cn4  v076
 BYTE   W06
 BYTE   Fs4
 BYTE   W06
 BYTE   Dn4  v072
 BYTE   W06
 BYTE   An3
 BYTE   W06
 BYTE   Cn4
 BYTE   W06
 BYTE   Gn4  v068
 BYTE   W06
 BYTE   Cn4
 BYTE   W06
 BYTE   PEND 
//  #03 //004   ----------------------------------------
Label_01F914FB:
 BYTE   N06  An3  v072
 BYTE   W06
 BYTE   Cn4
 BYTE   W06
 BYTE   Gn4
 BYTE   W06
 BYTE   Cn4  v076
 BYTE   W06
 BYTE   Fs4
 BYTE   W06
 BYTE   Dn4  v080
 BYTE   W06
 BYTE   An3
 BYTE   W06
 BYTE   Cn4
 BYTE   W06
 BYTE   Gn4  v084
 BYTE   W06
 BYTE   Cn4
 BYTE   W06
 BYTE   Fs4
 BYTE   W06
 BYTE   Dn4  v088
 BYTE   W06
 BYTE   An3
 BYTE   W06
 BYTE   Cn4  v092
 BYTE   W06
 BYTE   Gn4
 BYTE   W06
 BYTE   Cn4
 BYTE   W06
 BYTE   PEND 
//  #03 //005   ----------------------------------------
Label_01F91523:
 BYTE   N06  Fs4  v096
 BYTE   W06
 BYTE   Dn4
 BYTE   W06
 BYTE   An3  v100
 BYTE   W06
 BYTE   Cn4
 BYTE   W06
 BYTE   Gn4  v104
 BYTE   W06
 BYTE   Cn4
 BYTE   W06
 BYTE   Fs4  v108
 BYTE   W06
 BYTE   Dn4
 BYTE   W06
 BYTE   An3  v112
 BYTE   W06
 BYTE   Cn4
 BYTE   W06
 BYTE   Gn4
 BYTE   W06
 BYTE   Cn4  v116
 BYTE   W06
 BYTE   Fs4
 BYTE   W06
 BYTE   Dn4  v120
 BYTE   W06
 BYTE   An3
 BYTE   W06
 BYTE   Cn4  v124
 BYTE   W06
 BYTE   PEND 
//  #03 //006   ----------------------------------------
Label_01F9154D:
 BYTE   N06  Gn4  v124
 BYTE   W06
 BYTE   Cn4  v127
 BYTE   W06
 BYTE   Fs4
 BYTE   W06
 BYTE   Dn4
 BYTE   W06
 BYTE   An3
 BYTE   W06
 BYTE   Cn4  v124
 BYTE   W06
 BYTE   Gn4
 BYTE   W06
 BYTE   Cn4  v120
 BYTE   W06
 BYTE   Fs4
 BYTE   W06
 BYTE   Dn4
 BYTE   W06
 BYTE   An3  v116
 BYTE   W06
 BYTE   Cn4
 BYTE   W06
 BYTE   Gn4
 BYTE   W06
 BYTE   Cn4  v112
 BYTE   W06
 BYTE   Fs4
 BYTE   W06
 BYTE   Dn4
 BYTE   W06
 BYTE   PEND 
//  #03 //007   ----------------------------------------
Label_01F91575:
 BYTE   N06  An3  v108
 BYTE   W06
 BYTE   Cn4
 BYTE   W06
 BYTE   Gn4
 BYTE   W06
 BYTE   Cn4  v104
 BYTE   W06
 BYTE   Fs4
 BYTE   W06
 BYTE   Dn4  v100
 BYTE   W06
 BYTE   An3
 BYTE   W06
 BYTE   Cn4
 BYTE   W06
 BYTE   Gn4  v096
 BYTE   W06
 BYTE   Cn4
 BYTE   W06
 BYTE   Fs4
 BYTE   W06
 BYTE   Dn4  v092
 BYTE   W06
 BYTE   An3
 BYTE   W06
 BYTE   Cn4
 BYTE   W06
 BYTE   Gn4  v088
 BYTE   W06
 BYTE   Cn4
 BYTE   W06
 BYTE   PEND 
//  #03 //008   ----------------------------------------
Label_01F9159D:
 BYTE   N06  Fs4  v088
 BYTE   W06
 BYTE   Dn4  v084
 BYTE   W06
 BYTE   An3
 BYTE   W06
 BYTE   Cn4
 BYTE   W06
 BYTE   Gn4  v088
 BYTE   W06
 BYTE   Cn4
 BYTE   W06
 BYTE   Fs4
 BYTE   W06
 BYTE   Dn4  v092
 BYTE   W06
 BYTE   An3
 BYTE   W06
 BYTE   Cn4  v096
 BYTE   W06
 BYTE   Gn4
 BYTE   W06
 BYTE   Cn4
 BYTE   W06
 BYTE   Fs4  v100
 BYTE   W06
 BYTE   Dn4
 BYTE   W06
 BYTE   An3  v104
 BYTE   W06
 BYTE   Cn4
 BYTE   W06
//  #03 //009   ----------------------------------------
 BYTE   Gn4  v108
 BYTE   W06
 BYTE   Cn4
 BYTE   W06
 BYTE   Fs4
 BYTE   W06
 BYTE   Dn4  v112
 BYTE   W06
 BYTE   An3
 BYTE   W06
 BYTE   Cn4
 BYTE   W06
 BYTE   Gn4  v116
 BYTE   W06
 BYTE   Cn4
 BYTE   W06
 BYTE   Fs4  v120
 BYTE   W06
 BYTE   Dn4
 BYTE   W06
 BYTE   An3
 BYTE   W06
 BYTE   Cn4  v124
 BYTE   W06
 BYTE   Gn4
 BYTE   W06
 BYTE   Cn4  v127
 BYTE   W06
 BYTE   Fs4
 BYTE   W06
 BYTE   Dn4
 BYTE   W06
//  #03 //010   ----------------------------------------
 BYTE   An3
 BYTE   W06
 BYTE   Cn4
 BYTE   W06
 BYTE   Gn4  v124
 BYTE   W06
 BYTE   Cn4
 BYTE   W06
 BYTE   Fs4  v120
 BYTE   W06
 BYTE   Dn4
 BYTE   W06
 BYTE   An3
 BYTE   W06
 BYTE   Cn4  v116
 BYTE   W06
 BYTE   Gn4
 BYTE   W06
 BYTE   Cn4
 BYTE   W06
 BYTE   Fs4  v112
 BYTE   W06
 BYTE   Dn4
 BYTE   W06
 BYTE   An3
 BYTE   W06
 BYTE   Cn4
 BYTE   W06
 BYTE   Gn4  v108
 BYTE   W06
 BYTE   Cn4
 BYTE   W06
//  #03 //011   ----------------------------------------
 BYTE   Fs4
 BYTE   W06
 BYTE   Dn4
 BYTE   W06
 BYTE   An3  v104
 BYTE   W06
 BYTE   Cn4
 BYTE   W06
 BYTE   Gn4  v100
 BYTE   W06
 BYTE   Cn4
 BYTE   W06
 BYTE   Fs4
 BYTE   W06
 BYTE   Dn4  v096
 BYTE   W06
 BYTE   An3
 BYTE   W06
 BYTE   Cn4
 BYTE   W06
 BYTE   Gn4  v092
 BYTE   W06
 BYTE   Cn4
 BYTE   W06
 BYTE   Fs4
 BYTE   W06
 BYTE   Dn4
 BYTE   W06
 BYTE   An3  v088
 BYTE   W06
 BYTE   Cn4
 BYTE   W06
//  #03 //012   ----------------------------------------
 BYTE   Gn4
 BYTE   W06
 BYTE   Cn4
 BYTE   W06
 BYTE   Fs4
 BYTE   W06
 BYTE   Dn4
 BYTE   W06
 BYTE   An3  v092
 BYTE   W06
 BYTE   Cn4
 BYTE   W06
 BYTE   Gn4
 BYTE   W06
 BYTE   Cn4  v096
 BYTE   W06
 BYTE   Fs4
 BYTE   W06
 BYTE   Dn4  v100
 BYTE   W06
 BYTE   An3
 BYTE   W06
 BYTE   Cn4
 BYTE   W06
 BYTE   Gn4  v104
 BYTE   W06
 BYTE   Cn4
 BYTE   W06
 BYTE   Fs4  v108
 BYTE   W06
 BYTE   Dn4
 BYTE   W06
//  #03 //013   ----------------------------------------
 BYTE   An3
 BYTE   W06
 BYTE   Cn4
 BYTE   W06
 BYTE   Gn4  v112
 BYTE   W06
 BYTE   Cn4
 BYTE   W06
 BYTE   Fs4
 BYTE   W06
 BYTE   Dn4  v116
 BYTE   W06
 BYTE   An3
 BYTE   W06
 BYTE   Cn4  v120
 BYTE   W06
 BYTE   Gn4
 BYTE   W06
 BYTE   Cn4
 BYTE   W06
 BYTE   Fs4  v124
 BYTE   W06
 BYTE   Dn4
 BYTE   W06
 BYTE   An3  v127
 BYTE   W06
 BYTE   Cn4
 BYTE   W06
 BYTE   Gn4
 BYTE   W06
 BYTE   Cn4
 BYTE   W06
//  #03 //014   ----------------------------------------
 BYTE   As4
 BYTE   W06
 BYTE   Fn4
 BYTE   W06
 BYTE   Ds4
 BYTE   W06
 BYTE   As3  v124
 BYTE   W06
 BYTE   As4
 BYTE   W06
 BYTE   Ds4  v120
 BYTE   W06
 BYTE   Cn5
 BYTE   W06
 BYTE   Fn4
 BYTE   W06
 BYTE   Cn4
 BYTE   W06
 BYTE   Fn4
 BYTE   W06
 BYTE   Cn5  v116
 BYTE   W06
 BYTE   Fn4
 BYTE   W06
 BYTE   Bn4
 BYTE   W06
 BYTE   Gn4  v112
 BYTE   W06
 BYTE   Dn4
 BYTE   W06
 BYTE   Fn4
 BYTE   W06
//  #03 //015   ----------------------------------------
 BYTE   Gn4
 BYTE   W06
 BYTE   Cn4
 BYTE   W06
 BYTE   Fs4  v108
 BYTE   W06
 BYTE   Dn4
 BYTE   W06
 BYTE   An3
 BYTE   W06
 BYTE   Cn4
 BYTE   W06
 BYTE   Gn4
 BYTE   W06
 BYTE   Cn4  v112
 BYTE   W06
 BYTE   Fs4
 BYTE   W06
 BYTE   Dn4
 BYTE   W06
 BYTE   An3  v116
 BYTE   W06
 BYTE   Cn4
 BYTE   W06
 BYTE   Gn4  v120
 BYTE   W06
 BYTE   Cn4
 BYTE   W06
 BYTE   Fs4
 BYTE   W06
 BYTE   Dn4  v124
 BYTE   W06
//  #03 //016   ----------------------------------------
 BYTE   Cn4
 BYTE   W06
 BYTE   Ds4
 BYTE   W06
 BYTE   As4
 BYTE   W06
 BYTE   Ds4  v120
 BYTE   W06
 BYTE   An4
 BYTE   W06
 BYTE   Fn4
 BYTE   W06
 BYTE   Dn4
 BYTE   W06
 BYTE   Fn4
 BYTE   W06
 BYTE   Cn5  v116
 BYTE   W06
 BYTE   Fn4
 BYTE   W06
 BYTE   Bn4
 BYTE   W06
 BYTE   Gn4  v112
 BYTE   W06
 BYTE   Dn4
 BYTE   W06
 BYTE   Fn4
 BYTE   W06
 BYTE   Cn5
 BYTE   W06
 BYTE   Fn4  v108
 BYTE   W06
//  #03 //017   ----------------------------------------
 BYTE   Fs4
 BYTE   W06
 BYTE   Dn4
 BYTE   W06
 BYTE   An3
 BYTE   W06
 BYTE   Cn4
 BYTE   W06
 BYTE   Gn4  v112
 BYTE   W06
 BYTE   Cn4
 BYTE   W06
 BYTE   Fs4
 BYTE   W06
 BYTE   Dn4  v116
 BYTE   W06
 BYTE   An3
 BYTE   W06
 BYTE   Cn4
 BYTE   W06
 BYTE   Gn4  v120
 BYTE   W06
 BYTE   Cn4
 BYTE   W06
 BYTE   Fs4
 BYTE   W06
 BYTE   Dn4  v124
 BYTE   W06
 BYTE   An3
 BYTE   W06
 BYTE   Cn4
 BYTE   W06
//  #03 //018   ----------------------------------------
 BYTE   Gn4  v127
 BYTE   W06
 BYTE   Cn4
 BYTE   W06
 BYTE   Fs4
 BYTE   W06
 BYTE   Dn4  v124
 BYTE   W06
 BYTE   An3  v120
 BYTE   W06
 BYTE   Cn4
 BYTE   W06
 BYTE   Gn4
 BYTE   W06
 BYTE   Cn4  v116
 BYTE   W06
 BYTE   Fs4
 BYTE   W06
 BYTE   Dn4  v112
 BYTE   W06
 BYTE   An3
 BYTE   W06
 BYTE   Cn4  v108
 BYTE   W06
 BYTE   Gn4
 BYTE   W06
 BYTE   Cn4
 BYTE   W06
 BYTE   Fs4  v104
 BYTE   W06
 BYTE   Dn4
 BYTE   W06
//  #03 //019   ----------------------------------------
 BYTE   An3  v100
 BYTE   W06
 BYTE   Cn4
 BYTE   W06
 BYTE   Gn4  v104
 BYTE   W06
 BYTE   Cn4
 BYTE   W06
 BYTE   Fs4  v108
 BYTE   W06
 BYTE   Dn4
 BYTE   W06
 BYTE   An3
 BYTE   W06
 BYTE   Cn4  v112
 BYTE   W06
 BYTE   Gn4
 BYTE   W06
 BYTE   Cn4
 BYTE   W06
 BYTE   Fs4  v116
 BYTE   W06
 BYTE   Dn4
 BYTE   W06
 BYTE   An3  v120
 BYTE   W06
 BYTE   Cn4
 BYTE   W06
 BYTE   Gn4
 BYTE   W06
 BYTE   Cn4  v124
 BYTE   W06
//  #03 //020   ----------------------------------------
 BYTE   Fs4
 BYTE   W06
 BYTE   Dn4
 BYTE   W06
 BYTE   An3  v120
 BYTE   W06
 BYTE   Cn4
 BYTE   W06
 BYTE   Gn4  v116
 BYTE   W06
 BYTE   Cn4
 BYTE   W06
 BYTE   Fs4
 BYTE   W06
 BYTE   Dn4  v112
 BYTE   W06
 BYTE   An3
 BYTE   W06
 BYTE   Cn4
 BYTE   W06
 BYTE   Gn4  v108
 BYTE   W06
 BYTE   Cn4
 BYTE   W06
 BYTE   Fs4
 BYTE   W06
 BYTE   Dn4  v104
 BYTE   W06
 BYTE   An3
 BYTE   W06
 BYTE   Cn4  v100
 BYTE   W06
//  #03 //021   ----------------------------------------
 BYTE   Gn4
 BYTE   W06
 BYTE   Cn4  v096
 BYTE   W06
 BYTE   Fs4
 BYTE   W06
 BYTE   Dn4
 BYTE   W06
 BYTE   An3  v092
 BYTE   W06
 BYTE   Cn4
 BYTE   W06
 BYTE   Gn4
 BYTE   W06
 BYTE   Cn4  v088
 BYTE   W06
 BYTE   Fs4
 BYTE   W06
 BYTE   Dn4
 BYTE   W06
 BYTE   An3  v084
 BYTE   W06
 BYTE   Cn4
 BYTE   W06
 BYTE   Gn4
 BYTE   W06
 BYTE   Cn4  v080
 BYTE   W06
 BYTE   Fs4
 BYTE   W06
 BYTE   Dn4
 BYTE   W06
//  #03 //022   ----------------------------------------
 BYTE   An3
 BYTE   W06
 BYTE   Cn4
 BYTE   W06
 BYTE   Gn4
 BYTE   W06
 BYTE   Cn4
 BYTE   W06
 BYTE   Fs4  v084
 BYTE   W06
 BYTE   Dn4
 BYTE   W06
 BYTE   An3
 BYTE   W06
 BYTE   Cn4  v088
 BYTE   W06
 BYTE   Gn4
 BYTE   W06
 BYTE   Cn4
 BYTE   W06
 BYTE   Fs4  v092
 BYTE   W06
 BYTE   Dn4
 BYTE   W06
 BYTE   An3
 BYTE   W06
 BYTE   Cn4  v096
 BYTE   W06
 BYTE   Gn4
 BYTE   W06
 BYTE   Cn4
 BYTE   W06
//  #03 //023   ----------------------------------------
 BYTE   Fs4  v100
 BYTE   W06
 BYTE   Dn4
 BYTE   W06
 BYTE   An3
 BYTE   W06
 BYTE   Cn4  v104
 BYTE   W06
 BYTE   Gn4
 BYTE   W06
 BYTE   Cn4  v108
 BYTE   W06
 BYTE   Fs4
 BYTE   W06
 BYTE   Dn4
 BYTE   W06
 BYTE   An3  v112
 BYTE   W06
 BYTE   Cn4
 BYTE   W06
 BYTE   Gn4
 BYTE   W06
 BYTE   Cn4  v116
 BYTE   W06
 BYTE   Fs4
 BYTE   W06
 BYTE   Dn4
 BYTE   W06
 BYTE   An3  v120
 BYTE   W06
 BYTE   Cn4
 BYTE   W06
//  #03 //024   ----------------------------------------
 BYTE   Gn4
 BYTE   W06
 BYTE   Cn4  v124
 BYTE   W06
 BYTE   Fs4
 BYTE   W06
 BYTE   Dn4
 BYTE   W06
 BYTE   An3  v120
 BYTE   W06
 BYTE   Cn4
 BYTE   W06
 BYTE   Gn4  v116
 BYTE   W06
 BYTE   Cn4
 BYTE   W06
 BYTE   Fs4  v112
 BYTE   W06
 BYTE   Dn4
 BYTE   W06
 BYTE   An3  v108
 BYTE   W06
 BYTE   Cn4
 BYTE   W06
 BYTE   Gn4
 BYTE   W06
 BYTE   Cn4  v104
 BYTE   W06
 BYTE   Fs4  v100
 BYTE   W06
 BYTE   Dn4
 BYTE   W06
//  #03 //025   ----------------------------------------
 BYTE   An3
 BYTE   W06
 BYTE   Cn4  v096
 BYTE   W06
 BYTE   Gn4
 BYTE   W06
 BYTE   Cn4  v092
 BYTE   W06
 BYTE   Fs4
 BYTE   W06
 BYTE   Dn4  v088
 BYTE   W06
 BYTE   An3
 BYTE   W06
 BYTE   Cn4
 BYTE   W06
 BYTE   Gn4  v084
 BYTE   W06
 BYTE   Cn4
 BYTE   W06
 BYTE   Fs4  v080
 BYTE   W06
 BYTE   Dn4
 BYTE   W06
 BYTE   An3
 BYTE   W06
 BYTE   Cn4  v076
 BYTE   W06
 BYTE   Gn4  v072
 BYTE   W06
 BYTE   Cn4
 BYTE   W06
//  #03 //026   ----------------------------------------
 BYTE   An3  v076
 BYTE   W06
 BYTE   Cn4
 BYTE   W06
 BYTE   Gn4  v080
 BYTE   W06
 BYTE   Cn4
 BYTE   W06
 BYTE   Fs4
 BYTE   W06
 BYTE   Dn4  v084
 BYTE   W06
 BYTE   An3
 BYTE   W06
 BYTE   Cn4
 BYTE   W06
 BYTE   Gn4  v088
 BYTE   W06
 BYTE   Cn4
 BYTE   W06
 BYTE   Fs4
 BYTE   W06
 BYTE   Dn4  v092
 BYTE   W06
 BYTE   An3
 BYTE   W06
 BYTE   Cn4  v096
 BYTE   W06
 BYTE   Gn4
 BYTE   W06
 BYTE   Cn4  v100
 BYTE   W06
//  #03 //027   ----------------------------------------
 BYTE   Fs4
 BYTE   W06
 BYTE   Dn4
 BYTE   W06
 BYTE   An3  v104
 BYTE   W06
 BYTE   Cn4  v108
 BYTE   W06
 BYTE   Gn4
 BYTE   W06
 BYTE   Cn4
 BYTE   W06
 BYTE   Fs4  v112
 BYTE   W06
 BYTE   Dn4
 BYTE   W06
 BYTE   An3
 BYTE   W06
 BYTE   Cn4  v116
 BYTE   W06
 BYTE   Gn4
 BYTE   W06
 BYTE   Cn4  v120
 BYTE   W06
 BYTE   Fs4
 BYTE   W06
 BYTE   Dn4  v124
 BYTE   W06
 BYTE   An3
 BYTE   W06
 BYTE   Cn4
 BYTE   W06
//  #03 //028   ----------------------------------------
 BYTE   An3
 BYTE   W06
 BYTE   Cn4  v120
 BYTE   W06
 BYTE   Gn4
 BYTE   W06
 BYTE   Cn4
 BYTE   W06
 BYTE   Fs4  v116
 BYTE   W06
 BYTE   Dn4
 BYTE   W06
 BYTE   An3  v112
 BYTE   W06
 BYTE   Cn4
 BYTE   W06
 BYTE   Gn4
 BYTE   W06
 BYTE   Cn4  v108
 BYTE   W06
 BYTE   Fs4
 BYTE   W06
 BYTE   Dn4  v104
 BYTE   W06
 BYTE   An3
 BYTE   W06
 BYTE   Cn4  v100
 BYTE   W06
 BYTE   Gn4
 BYTE   W06
 BYTE   Cn4
 BYTE   W06
//  #03 //029   ----------------------------------------
 BYTE   Fs4  v096
 BYTE   W06
 BYTE   Dn4  v100
 BYTE   W06
 BYTE   An3
 BYTE   W06
 BYTE   Cn4  v104
 BYTE   W06
 BYTE   Gn4
 BYTE   W06
 BYTE   Cn4  v108
 BYTE   W06
 BYTE   Fs4
 BYTE   W06
 BYTE   Dn4
 BYTE   W06
 BYTE   An3  v112
 BYTE   W06
 BYTE   Cn4
 BYTE   W06
 BYTE   Gn4  v116
 BYTE   W06
 BYTE   Cn4
 BYTE   W06
 BYTE   Fs4  v120
 BYTE   W06
 BYTE   Dn4
 BYTE   W06
 BYTE   An3  v124
 BYTE   W06
 BYTE   Cn4
 BYTE   W06
//  #03 //030   ----------------------------------------
 BYTE   PATT
  POIN2 Label_01F914A6
//  #03 //031   ----------------------------------------
 BYTE   PATT
  POIN2 Label_01F914D1
//  #03 //032   ----------------------------------------
 BYTE   PATT
  POIN2 Label_01F914FB
//  #03 //033   ----------------------------------------
 BYTE   PATT
  POIN2 Label_01F91523
//  #03 //034   ----------------------------------------
 BYTE   PATT
  POIN2 Label_01F9154D
//  #03 //035   ----------------------------------------
 BYTE   PATT
  POIN2 Label_01F91575
//  #03 //036   ----------------------------------------
 BYTE   GoTo
  POIN2 Label_01F9159D
 BYTE   FINE

//**************** Track 4 (Midi-Chn.3) ****************//

song01_004:
//  #04 //000   ----------------------------------------
 BYTE   KEYSH   song01_key+0
 BYTE   MODT 0
 BYTE   LFOS 44
 BYTE   VOICE   10
 BYTE   PAN   c_v+63
 BYTE   VOL   10*song01_mvl/mxv
 BYTE   BEND   c_v+0
 BYTE   W06
 BYTE   N06  An3  v004
 BYTE   W06
 BYTE   Cn4
 BYTE   W06
 BYTE   Gn4
 BYTE   W06
 BYTE   Cn4  v008
 BYTE   W06
 BYTE   Fs4
 BYTE   W06
 BYTE   Dn4  v012
 BYTE   W06
 BYTE   An3  v016
 BYTE   W06
 BYTE   Cn4
 BYTE   W06
 BYTE   Gn4  v020
 BYTE   W06
 BYTE   Cn4  v024
 BYTE   W06
 BYTE   Fs4
 BYTE   W06
 BYTE   Dn4  v028
 BYTE   W06
 BYTE   An3  v032
 BYTE   W06
 BYTE   Cn4  v036
 BYTE   W06
 BYTE   Gn4  v040
 BYTE   W06
//  #04 //001   ----------------------------------------
 BYTE   Cn4  v044
 BYTE   W06
 BYTE   Fs4  v048
 BYTE   W06
 BYTE   Dn4  v052
 BYTE   W06
 BYTE   An3  v056
 BYTE   W06
 BYTE   Cn4  v060
 BYTE   W06
 BYTE   Gn4  v064
 BYTE   W06
 BYTE   Cn4  v072
 BYTE   W06
 BYTE   Fs4  v076
 BYTE   W06
 BYTE   Dn4  v080
 BYTE   W06
 BYTE   An3  v084
 BYTE   W06
 BYTE   Cn4  v088
 BYTE   W06
 BYTE   Gn4  v096
 BYTE   W06
 BYTE   Cn4  v100
 BYTE   W06
 BYTE   Fs4  v108
 BYTE   W06
 BYTE   Dn4  v112
 BYTE   W06
 BYTE   An3  v120
 BYTE   W06
//  #04 //002   ----------------------------------------
 BYTE   Cn4  v124
 BYTE   W06
 BYTE   Gn4  v127
 BYTE   W06
 BYTE   Cn4
 BYTE   W06
 BYTE   Fs4  v124
 BYTE   W06
 BYTE   Dn4  v120
 BYTE   W06
 BYTE   An3
 BYTE   W06
 BYTE   Cn4  v116
 BYTE   W06
 BYTE   Gn4
 BYTE   W06
 BYTE   Cn4  v112
 BYTE   W06
 BYTE   Fs4
 BYTE   W06
 BYTE   Dn4  v108
 BYTE   W06
 BYTE   An3
 BYTE   W06
 BYTE   Cn4  v104
 BYTE   W06
 BYTE   Gn4
 BYTE   W06
 BYTE   Cn4  v100
 BYTE   W06
 BYTE   Fs4
 BYTE   W06
//  #04 //003   ----------------------------------------
Label_01F91995:
 BYTE   N06  Dn4  v096
 BYTE   W06
 BYTE   An3
 BYTE   W06
 BYTE   Cn4  v092
 BYTE   W06
 BYTE   Gn4
 BYTE   W06
 BYTE   Cn4  v088
 BYTE   W06
 BYTE   Fs4
 BYTE   W06
 BYTE   Dn4  v084
 BYTE   W06
 BYTE   An3
 BYTE   W06
 BYTE   Cn4  v080
 BYTE   W06
 BYTE   Gn4
 BYTE   W06
 BYTE   Cn4  v076
 BYTE   W06
 BYTE   Fs4
 BYTE   W06
 BYTE   Dn4  v072
 BYTE   W06
 BYTE   An3
 BYTE   W06
 BYTE   Cn4
 BYTE   W06
 BYTE   Gn4  v068
 BYTE   W06
 BYTE   PEND 
//  #04 //004   ----------------------------------------
Label_01F919BF:
 BYTE   N06  Cn4  v068
 BYTE   W06
 BYTE   An3  v072
 BYTE   W06
 BYTE   Cn4
 BYTE   W06
 BYTE   Gn4
 BYTE   W06
 BYTE   Cn4  v076
 BYTE   W06
 BYTE   Fs4
 BYTE   W06
 BYTE   Dn4  v080
 BYTE   W06
 BYTE   An3
 BYTE   W06
 BYTE   Cn4
 BYTE   W06
 BYTE   Gn4  v084
 BYTE   W06
 BYTE   Cn4
 BYTE   W06
 BYTE   Fs4
 BYTE   W06
 BYTE   Dn4  v088
 BYTE   W06
 BYTE   An3
 BYTE   W06
 BYTE   Cn4  v092
 BYTE   W06
 BYTE   Gn4
 BYTE   W06
 BYTE   PEND 
//  #04 //005   ----------------------------------------
Label_01F919E8:
 BYTE   N06  Cn4  v092
 BYTE   W06
 BYTE   Fs4  v096
 BYTE   W06
 BYTE   Dn4
 BYTE   W06
 BYTE   An3  v100
 BYTE   W06
 BYTE   Cn4
 BYTE   W06
 BYTE   Gn4  v104
 BYTE   W06
 BYTE   Cn4
 BYTE   W06
 BYTE   Fs4  v108
 BYTE   W06
 BYTE   Dn4
 BYTE   W06
 BYTE   An3  v112
 BYTE   W06
 BYTE   Cn4
 BYTE   W06
 BYTE   Gn4
 BYTE   W06
 BYTE   Cn4  v116
 BYTE   W06
 BYTE   Fs4
 BYTE   W06
 BYTE   Dn4  v120
 BYTE   W06
 BYTE   An3
 BYTE   W06
 BYTE   PEND 
//  #04 //006   ----------------------------------------
Label_01F91A12:
 BYTE   N06  Cn4  v124
 BYTE   W06
 BYTE   Gn4
 BYTE   W06
 BYTE   Cn4  v127
 BYTE   W06
 BYTE   Fs4
 BYTE   W06
 BYTE   Dn4
 BYTE   W06
 BYTE   An3
 BYTE   W06
 BYTE   Cn4  v124
 BYTE   W06
 BYTE   Gn4
 BYTE   W06
 BYTE   Cn4  v120
 BYTE   W06
 BYTE   Fs4
 BYTE   W06
 BYTE   Dn4
 BYTE   W06
 BYTE   An3  v116
 BYTE   W06
 BYTE   Cn4
 BYTE   W06
 BYTE   Gn4
 BYTE   W06
 BYTE   Cn4  v112
 BYTE   W06
 BYTE   Fs4
 BYTE   W06
 BYTE   PEND 
//  #04 //007   ----------------------------------------
Label_01F91A3A:
 BYTE   N06  Dn4  v112
 BYTE   W06
 BYTE   An3  v108
 BYTE   W06
 BYTE   Cn4
 BYTE   W06
 BYTE   Gn4
 BYTE   W06
 BYTE   Cn4  v104
 BYTE   W06
 BYTE   Fs4
 BYTE   W06
 BYTE   Dn4  v100
 BYTE   W06
 BYTE   An3
 BYTE   W06
 BYTE   Cn4
 BYTE   W06
 BYTE   Gn4  v096
 BYTE   W06
 BYTE   Cn4
 BYTE   W06
 BYTE   Fs4
 BYTE   W06
 BYTE   Dn4  v092
 BYTE   W06
 BYTE   An3
 BYTE   W06
 BYTE   Cn4
 BYTE   W06
 BYTE   Gn4  v088
 BYTE   W06
 BYTE   PEND 
//  #04 //008   ----------------------------------------
Label_01F91A63:
 BYTE   N06  Cn4  v088
 BYTE   W06
 BYTE   Fs4
 BYTE   W06
 BYTE   Dn4  v084
 BYTE   W06
 BYTE   An3
 BYTE   W06
 BYTE   Cn4
 BYTE   W06
 BYTE   Gn4  v088
 BYTE   W06
 BYTE   Cn4
 BYTE   W06
 BYTE   Fs4
 BYTE   W06
 BYTE   Dn4  v092
 BYTE   W06
 BYTE   An3
 BYTE   W06
 BYTE   Cn4  v096
 BYTE   W06
 BYTE   Gn4
 BYTE   W06
 BYTE   Cn4
 BYTE   W06
 BYTE   Fs4  v100
 BYTE   W06
 BYTE   Dn4
 BYTE   W06
 BYTE   An3  v104
 BYTE   W06
//  #04 //009   ----------------------------------------
 BYTE   Cn4
 BYTE   W06
 BYTE   Gn4  v108
 BYTE   W06
 BYTE   Cn4
 BYTE   W06
 BYTE   Fs4
 BYTE   W06
 BYTE   Dn4  v112
 BYTE   W06
 BYTE   An3
 BYTE   W06
 BYTE   Cn4
 BYTE   W06
 BYTE   Gn4  v116
 BYTE   W06
 BYTE   Cn4
 BYTE   W06
 BYTE   Fs4  v120
 BYTE   W06
 BYTE   Dn4
 BYTE   W06
 BYTE   An3
 BYTE   W06
 BYTE   Cn4  v124
 BYTE   W06
 BYTE   Gn4
 BYTE   W06
 BYTE   Cn4  v127
 BYTE   W06
 BYTE   Fs4
 BYTE   W06
//  #04 //010   ----------------------------------------
 BYTE   Dn4
 BYTE   W06
 BYTE   An3
 BYTE   W06
 BYTE   Cn4
 BYTE   W06
 BYTE   Gn4  v124
 BYTE   W06
 BYTE   Cn4
 BYTE   W06
 BYTE   Fs4  v120
 BYTE   W06
 BYTE   Dn4
 BYTE   W06
 BYTE   An3
 BYTE   W06
 BYTE   Cn4  v116
 BYTE   W06
 BYTE   Gn4
 BYTE   W06
 BYTE   Cn4
 BYTE   W06
 BYTE   Fs4  v112
 BYTE   W06
 BYTE   Dn4
 BYTE   W06
 BYTE   An3
 BYTE   W06
 BYTE   Cn4
 BYTE   W06
 BYTE   Gn4  v108
 BYTE   W06
//  #04 //011   ----------------------------------------
 BYTE   Cn4
 BYTE   W06
 BYTE   Fs4
 BYTE   W06
 BYTE   Dn4
 BYTE   W06
 BYTE   An3  v104
 BYTE   W06
 BYTE   Cn4
 BYTE   W06
 BYTE   Gn4  v100
 BYTE   W06
 BYTE   Cn4
 BYTE   W06
 BYTE   Fs4
 BYTE   W06
 BYTE   Dn4  v096
 BYTE   W06
 BYTE   An3
 BYTE   W06
 BYTE   Cn4
 BYTE   W06
 BYTE   Gn4  v092
 BYTE   W06
 BYTE   Cn4
 BYTE   W06
 BYTE   Fs4
 BYTE   W06
 BYTE   Dn4
 BYTE   W06
 BYTE   An3  v088
 BYTE   W06
//  #04 //012   ----------------------------------------
 BYTE   Cn4
 BYTE   W06
 BYTE   Gn4
 BYTE   W06
 BYTE   Cn4
 BYTE   W06
 BYTE   Fs4
 BYTE   W06
 BYTE   Dn4
 BYTE   W06
 BYTE   An3  v092
 BYTE   W06
 BYTE   Cn4
 BYTE   W06
 BYTE   Gn4
 BYTE   W06
 BYTE   Cn4  v096
 BYTE   W06
 BYTE   Fs4
 BYTE   W06
 BYTE   Dn4  v100
 BYTE   W06
 BYTE   An3
 BYTE   W06
 BYTE   Cn4
 BYTE   W06
 BYTE   Gn4  v104
 BYTE   W06
 BYTE   Cn4
 BYTE   W06
 BYTE   Fs4  v108
 BYTE   W06
//  #04 //013   ----------------------------------------
 BYTE   Dn4
 BYTE   W06
 BYTE   An3
 BYTE   W06
 BYTE   Cn4
 BYTE   W06
 BYTE   Gn4  v112
 BYTE   W06
 BYTE   Cn4
 BYTE   W06
 BYTE   Fs4
 BYTE   W06
 BYTE   Dn4  v116
 BYTE   W06
 BYTE   An3
 BYTE   W06
 BYTE   Cn4  v120
 BYTE   W06
 BYTE   Gn4
 BYTE   W06
 BYTE   Cn4
 BYTE   W06
 BYTE   Fs4  v124
 BYTE   W06
 BYTE   Dn4
 BYTE   W06
 BYTE   An3  v127
 BYTE   W06
 BYTE   Cn4
 BYTE   W06
 BYTE   Gn4
 BYTE   W06
//  #04 //014   ----------------------------------------
 BYTE   Cn4
 BYTE   W06
 BYTE   As4
 BYTE   W06
 BYTE   Fn4
 BYTE   W06
 BYTE   Ds4
 BYTE   W06
 BYTE   As3  v124
 BYTE   W06
 BYTE   As4
 BYTE   W06
 BYTE   Ds4  v120
 BYTE   W06
 BYTE   Cn5
 BYTE   W06
 BYTE   Fn4
 BYTE   W06
 BYTE   Cn4
 BYTE   W06
 BYTE   Fn4
 BYTE   W06
 BYTE   Cn5  v116
 BYTE   W06
 BYTE   Fn4
 BYTE   W06
 BYTE   Bn4
 BYTE   W06
 BYTE   Gn4  v112
 BYTE   W06
 BYTE   Dn4
 BYTE   W06
//  #04 //015   ----------------------------------------
 BYTE   Fn4
 BYTE   W06
 BYTE   Gn4
 BYTE   W06
 BYTE   Cn4
 BYTE   W06
 BYTE   Fs4  v108
 BYTE   W06
 BYTE   Dn4
 BYTE   W06
 BYTE   An3
 BYTE   W06
 BYTE   Cn4
 BYTE   W06
 BYTE   Gn4
 BYTE   W06
 BYTE   Cn4  v112
 BYTE   W06
 BYTE   Fs4
 BYTE   W06
 BYTE   Dn4
 BYTE   W06
 BYTE   An3  v116
 BYTE   W06
 BYTE   Cn4
 BYTE   W06
 BYTE   Gn4  v120
 BYTE   W06
 BYTE   Cn4
 BYTE   W06
 BYTE   Fs4
 BYTE   W06
//  #04 //016   ----------------------------------------
 BYTE   Dn4  v124
 BYTE   W06
 BYTE   Cn4
 BYTE   W06
 BYTE   Ds4
 BYTE   W06
 BYTE   As4
 BYTE   W06
 BYTE   Ds4  v120
 BYTE   W06
 BYTE   An4
 BYTE   W06
 BYTE   Fn4
 BYTE   W06
 BYTE   Dn4
 BYTE   W06
 BYTE   Fn4
 BYTE   W06
 BYTE   Cn5  v116
 BYTE   W06
 BYTE   Fn4
 BYTE   W06
 BYTE   Bn4
 BYTE   W06
 BYTE   Gn4  v112
 BYTE   W06
 BYTE   Dn4
 BYTE   W06
 BYTE   Fn4
 BYTE   W06
 BYTE   Cn5
 BYTE   W06
//  #04 //017   ----------------------------------------
 BYTE   Fn4  v108
 BYTE   W06
 BYTE   Fs4
 BYTE   W06
 BYTE   Dn4
 BYTE   W06
 BYTE   An3
 BYTE   W06
 BYTE   Cn4
 BYTE   W06
 BYTE   Gn4  v112
 BYTE   W06
 BYTE   Cn4
 BYTE   W06
 BYTE   Fs4
 BYTE   W06
 BYTE   Dn4  v116
 BYTE   W06
 BYTE   An3
 BYTE   W06
 BYTE   Cn4
 BYTE   W06
 BYTE   Gn4  v120
 BYTE   W06
 BYTE   Cn4
 BYTE   W06
 BYTE   Fs4
 BYTE   W06
 BYTE   Dn4  v124
 BYTE   W06
 BYTE   An3
 BYTE   W06
//  #04 //018   ----------------------------------------
 BYTE   Cn4
 BYTE   W06
 BYTE   Gn4  v127
 BYTE   W06
 BYTE   Cn4
 BYTE   W06
 BYTE   Fs4
 BYTE   W06
 BYTE   Dn4  v124
 BYTE   W06
 BYTE   An3  v120
 BYTE   W06
 BYTE   Cn4
 BYTE   W06
 BYTE   Gn4
 BYTE   W06
 BYTE   Cn4  v116
 BYTE   W06
 BYTE   Fs4
 BYTE   W06
 BYTE   Dn4  v112
 BYTE   W06
 BYTE   An3
 BYTE   W06
 BYTE   Cn4  v108
 BYTE   W06
 BYTE   Gn4
 BYTE   W06
 BYTE   Cn4
 BYTE   W06
 BYTE   Fs4  v104
 BYTE   W06
//  #04 //019   ----------------------------------------
 BYTE   Dn4
 BYTE   W06
 BYTE   An3  v100
 BYTE   W06
 BYTE   Cn4
 BYTE   W06
 BYTE   Gn4  v104
 BYTE   W06
 BYTE   Cn4
 BYTE   W06
 BYTE   Fs4  v108
 BYTE   W06
 BYTE   Dn4
 BYTE   W06
 BYTE   An3
 BYTE   W06
 BYTE   Cn4  v112
 BYTE   W06
 BYTE   Gn4
 BYTE   W06
 BYTE   Cn4
 BYTE   W06
 BYTE   Fs4  v116
 BYTE   W06
 BYTE   Dn4
 BYTE   W06
 BYTE   An3  v120
 BYTE   W06
 BYTE   Cn4
 BYTE   W06
 BYTE   Gn4
 BYTE   W06
//  #04 //020   ----------------------------------------
 BYTE   Cn4  v124
 BYTE   W06
 BYTE   Fs4
 BYTE   W06
 BYTE   Dn4
 BYTE   W06
 BYTE   An3  v120
 BYTE   W06
 BYTE   Cn4
 BYTE   W06
 BYTE   Gn4  v116
 BYTE   W06
 BYTE   Cn4
 BYTE   W06
 BYTE   Fs4
 BYTE   W06
 BYTE   Dn4  v112
 BYTE   W06
 BYTE   An3
 BYTE   W06
 BYTE   Cn4
 BYTE   W06
 BYTE   Gn4  v108
 BYTE   W06
 BYTE   Cn4
 BYTE   W06
 BYTE   Fs4
 BYTE   W06
 BYTE   Dn4  v104
 BYTE   W06
 BYTE   An3
 BYTE   W06
//  #04 //021   ----------------------------------------
 BYTE   Cn4  v100
 BYTE   W06
 BYTE   Gn4
 BYTE   W06
 BYTE   Cn4  v096
 BYTE   W06
 BYTE   Fs4
 BYTE   W06
 BYTE   Dn4
 BYTE   W06
 BYTE   An3  v092
 BYTE   W06
 BYTE   Cn4
 BYTE   W06
 BYTE   Gn4
 BYTE   W06
 BYTE   Cn4  v088
 BYTE   W06
 BYTE   Fs4
 BYTE   W06
 BYTE   Dn4
 BYTE   W06
 BYTE   An3  v084
 BYTE   W06
 BYTE   Cn4
 BYTE   W06
 BYTE   Gn4
 BYTE   W06
 BYTE   Cn4  v080
 BYTE   W06
 BYTE   Fs4
 BYTE   W06
//  #04 //022   ----------------------------------------
 BYTE   Dn4
 BYTE   W06
 BYTE   An3
 BYTE   W06
 BYTE   Cn4
 BYTE   W06
 BYTE   Gn4
 BYTE   W06
 BYTE   Cn4
 BYTE   W06
 BYTE   Fs4  v084
 BYTE   W06
 BYTE   Dn4
 BYTE   W06
 BYTE   An3
 BYTE   W06
 BYTE   Cn4  v088
 BYTE   W06
 BYTE   Gn4
 BYTE   W06
 BYTE   Cn4
 BYTE   W06
 BYTE   Fs4  v092
 BYTE   W06
 BYTE   Dn4
 BYTE   W06
 BYTE   An3
 BYTE   W06
 BYTE   Cn4  v096
 BYTE   W06
 BYTE   Gn4
 BYTE   W06
//  #04 //023   ----------------------------------------
 BYTE   Cn4
 BYTE   W06
 BYTE   Fs4  v100
 BYTE   W06
 BYTE   Dn4
 BYTE   W06
 BYTE   An3
 BYTE   W06
 BYTE   Cn4  v104
 BYTE   W06
 BYTE   Gn4
 BYTE   W06
 BYTE   Cn4  v108
 BYTE   W06
 BYTE   Fs4
 BYTE   W06
 BYTE   Dn4
 BYTE   W06
 BYTE   An3  v112
 BYTE   W06
 BYTE   Cn4
 BYTE   W06
 BYTE   Gn4
 BYTE   W06
 BYTE   Cn4  v116
 BYTE   W06
 BYTE   Fs4
 BYTE   W06
 BYTE   Dn4
 BYTE   W06
 BYTE   An3  v120
 BYTE   W06
//  #04 //024   ----------------------------------------
 BYTE   Cn4
 BYTE   W06
 BYTE   Gn4
 BYTE   W06
 BYTE   Cn4  v124
 BYTE   W06
 BYTE   Fs4
 BYTE   W06
 BYTE   Dn4
 BYTE   W06
 BYTE   An3  v120
 BYTE   W06
 BYTE   Cn4
 BYTE   W06
 BYTE   Gn4  v116
 BYTE   W06
 BYTE   Cn4
 BYTE   W06
 BYTE   Fs4  v112
 BYTE   W06
 BYTE   Dn4
 BYTE   W06
 BYTE   An3  v108
 BYTE   W06
 BYTE   Cn4
 BYTE   W06
 BYTE   Gn4
 BYTE   W06
 BYTE   Cn4  v104
 BYTE   W06
 BYTE   Fs4  v100
 BYTE   W06
//  #04 //025   ----------------------------------------
 BYTE   Dn4
 BYTE   W06
 BYTE   An3
 BYTE   W06
 BYTE   Cn4  v096
 BYTE   W06
 BYTE   Gn4
 BYTE   W06
 BYTE   Cn4  v092
 BYTE   W06
 BYTE   Fs4
 BYTE   W06
 BYTE   Dn4  v088
 BYTE   W06
 BYTE   An3
 BYTE   W06
 BYTE   Cn4
 BYTE   W06
 BYTE   Gn4  v084
 BYTE   W06
 BYTE   Cn4
 BYTE   W06
 BYTE   Fs4  v080
 BYTE   W06
 BYTE   Dn4
 BYTE   W06
 BYTE   An3
 BYTE   W06
 BYTE   Cn4  v076
 BYTE   W06
 BYTE   Gn4  v072
 BYTE   W06
//  #04 //026   ----------------------------------------
 BYTE   Cn4
 BYTE   W06
 BYTE   An3  v076
 BYTE   W06
 BYTE   Cn4
 BYTE   W06
 BYTE   Gn4  v080
 BYTE   W06
 BYTE   Cn4
 BYTE   W06
 BYTE   Fs4
 BYTE   W06
 BYTE   Dn4  v084
 BYTE   W06
 BYTE   An3
 BYTE   W06
 BYTE   Cn4
 BYTE   W06
 BYTE   Gn4  v088
 BYTE   W06
 BYTE   Cn4
 BYTE   W06
 BYTE   Fs4
 BYTE   W06
 BYTE   Dn4  v092
 BYTE   W06
 BYTE   An3
 BYTE   W06
 BYTE   Cn4  v096
 BYTE   W06
 BYTE   Gn4
 BYTE   W06
//  #04 //027   ----------------------------------------
 BYTE   Cn4  v100
 BYTE   W06
 BYTE   Fs4
 BYTE   W06
 BYTE   Dn4
 BYTE   W06
 BYTE   An3  v104
 BYTE   W06
 BYTE   Cn4  v108
 BYTE   W06
 BYTE   Gn4
 BYTE   W06
 BYTE   Cn4
 BYTE   W06
 BYTE   Fs4  v112
 BYTE   W06
 BYTE   Dn4
 BYTE   W06
 BYTE   An3
 BYTE   W06
 BYTE   Cn4  v116
 BYTE   W06
 BYTE   Gn4
 BYTE   W06
 BYTE   Cn4  v120
 BYTE   W06
 BYTE   Fs4
 BYTE   W06
 BYTE   Dn4  v124
 BYTE   W06
 BYTE   An3
 BYTE   W06
//  #04 //028   ----------------------------------------
 BYTE   Cn4  v127
 BYTE   W06
 BYTE   An3  v124
 BYTE   W06
 BYTE   Cn4  v120
 BYTE   W06
 BYTE   Gn4
 BYTE   W06
 BYTE   Cn4
 BYTE   W06
 BYTE   Fs4  v116
 BYTE   W06
 BYTE   Dn4  v112
 BYTE   W06
 BYTE   An3
 BYTE   W06
 BYTE   Cn4
 BYTE   W06
 BYTE   Gn4  v108
 BYTE   W06
 BYTE   Cn4
 BYTE   W06
 BYTE   Fs4  v104
 BYTE   W06
 BYTE   Dn4
 BYTE   W06
 BYTE   An3  v100
 BYTE   W06
 BYTE   Cn4
 BYTE   W06
 BYTE   Gn4
 BYTE   W06
//  #04 //029   ----------------------------------------
 BYTE   Cn4  v096
 BYTE   W06
 BYTE   Fs4
 BYTE   W06
 BYTE   Dn4  v100
 BYTE   W06
 BYTE   An3
 BYTE   W06
 BYTE   Cn4  v104
 BYTE   W06
 BYTE   Gn4
 BYTE   W06
 BYTE   Cn4  v108
 BYTE   W06
 BYTE   Fs4
 BYTE   W06
 BYTE   Dn4  v112
 BYTE   W06
 BYTE   An3
 BYTE   W06
 BYTE   Cn4  v116
 BYTE   W06
 BYTE   Gn4
 BYTE   W06
 BYTE   Cn4  v120
 BYTE   W06
 BYTE   Fs4
 BYTE   W06
 BYTE   Dn4  v124
 BYTE   W06
 BYTE   An3
 BYTE   W06
//  #04 //030   ----------------------------------------
 BYTE   Cn4  v127
 BYTE   W06
 BYTE   Gn4
 BYTE   W06
 BYTE   Cn4
 BYTE   W06
 BYTE   Fs4  v124
 BYTE   W06
 BYTE   Dn4  v120
 BYTE   W06
 BYTE   An3
 BYTE   W06
 BYTE   Cn4  v116
 BYTE   W06
 BYTE   Gn4
 BYTE   W06
 BYTE   Cn4  v112
 BYTE   W06
 BYTE   Fs4
 BYTE   W06
 BYTE   Dn4  v108
 BYTE   W06
 BYTE   An3
 BYTE   W06
 BYTE   Cn4  v104
 BYTE   W06
 BYTE   Gn4
 BYTE   W06
 BYTE   Cn4  v100
 BYTE   W06
 BYTE   Fs4
 BYTE   W06
//  #04 //031   ----------------------------------------
 BYTE   PATT
  POIN2 Label_01F91995
//  #04 //032   ----------------------------------------
 BYTE   PATT
  POIN2 Label_01F919BF
//  #04 //033   ----------------------------------------
 BYTE   PATT
  POIN2 Label_01F919E8
//  #04 //034   ----------------------------------------
 BYTE   PATT
  POIN2 Label_01F91A12
//  #04 //035   ----------------------------------------
 BYTE   PATT
  POIN2 Label_01F91A3A
//  #04 //036   ----------------------------------------
 BYTE   GoTo
  POIN2 Label_01F91A63
 BYTE   FINE

//**************** Track 5 (Midi-Chn.4) ****************//

song01_005:
//  #05 //000   ----------------------------------------
 BYTE   KEYSH   song01_key+0
 BYTE   MODT 0
 BYTE   LFOS 44
 BYTE   VOICE   10
 BYTE   PAN   c_v-64
 BYTE   VOL   7*song01_mvl/mxv
 BYTE   BEND   c_v+0
 BYTE   W12
 BYTE   N06  An3  v004
 BYTE   W06
 BYTE   Cn4
 BYTE   W06
 BYTE   Gn4
 BYTE   W06
 BYTE   Cn4  v008
 BYTE   W06
 BYTE   Fs4
 BYTE   W06
 BYTE   Dn4  v012
 BYTE   W06
 BYTE   An3  v016
 BYTE   W06
 BYTE   Cn4
 BYTE   W06
 BYTE   Gn4  v020
 BYTE   W06
 BYTE   Cn4  v024
 BYTE   W06
 BYTE   Fs4
 BYTE   W06
 BYTE   Dn4  v028
 BYTE   W06
 BYTE   An3  v032
 BYTE   W06
 BYTE   Cn4  v036
 BYTE   W06
//  #05 //001   ----------------------------------------
 BYTE   Gn4  v040
 BYTE   W06
 BYTE   Cn4  v044
 BYTE   W06
 BYTE   Fs4  v048
 BYTE   W06
 BYTE   Dn4  v052
 BYTE   W06
 BYTE   An3  v056
 BYTE   W06
 BYTE   Cn4  v060
 BYTE   W06
 BYTE   Gn4  v064
 BYTE   W06
 BYTE   Cn4  v072
 BYTE   W06
 BYTE   Fs4  v076
 BYTE   W06
 BYTE   Dn4  v080
 BYTE   W06
 BYTE   An3  v084
 BYTE   W06
 BYTE   Cn4  v088
 BYTE   W06
 BYTE   Gn4  v096
 BYTE   W06
 BYTE   Cn4  v100
 BYTE   W06
 BYTE   Fs4  v108
 BYTE   W06
 BYTE   Dn4  v112
 BYTE   W06
//  #05 //002   ----------------------------------------
 BYTE   An3  v120
 BYTE   W06
 BYTE   Cn4  v124
 BYTE   W06
 BYTE   Gn4  v127
 BYTE   W06
 BYTE   Cn4
 BYTE   W06
 BYTE   Fs4  v124
 BYTE   W06
 BYTE   Dn4  v120
 BYTE   W06
 BYTE   An3
 BYTE   W06
 BYTE   Cn4  v116
 BYTE   W06
 BYTE   Gn4
 BYTE   W06
 BYTE   Cn4  v112
 BYTE   W06
 BYTE   Fs4
 BYTE   W06
 BYTE   Dn4  v108
 BYTE   W06
 BYTE   An3
 BYTE   W06
 BYTE   Cn4  v104
 BYTE   W06
 BYTE   Gn4
 BYTE   W06
 BYTE   Cn4  v100
 BYTE   W06
//  #05 //003   ----------------------------------------
Label_01F91E7F:
 BYTE   N06  Fs4  v100
 BYTE   W06
 BYTE   Dn4  v096
 BYTE   W06
 BYTE   An3
 BYTE   W06
 BYTE   Cn4  v092
 BYTE   W06
 BYTE   Gn4
 BYTE   W06
 BYTE   Cn4  v088
 BYTE   W06
 BYTE   Fs4
 BYTE   W06
 BYTE   Dn4  v084
 BYTE   W06
 BYTE   An3
 BYTE   W06
 BYTE   Cn4  v080
 BYTE   W06
 BYTE   Gn4
 BYTE   W06
 BYTE   Cn4  v076
 BYTE   W06
 BYTE   Fs4
 BYTE   W06
 BYTE   Dn4  v072
 BYTE   W06
 BYTE   An3
 BYTE   W06
 BYTE   Cn4
 BYTE   W06
 BYTE   PEND 
//  #05 //004   ----------------------------------------
Label_01F91EA9:
 BYTE   N06  Gn4  v068
 BYTE   W06
 BYTE   Cn4
 BYTE   W06
 BYTE   An3  v072
 BYTE   W06
 BYTE   Cn4
 BYTE   W06
 BYTE   Gn4
 BYTE   W06
 BYTE   Cn4  v076
 BYTE   W06
 BYTE   Fs4
 BYTE   W06
 BYTE   Dn4  v080
 BYTE   W06
 BYTE   An3
 BYTE   W06
 BYTE   Cn4
 BYTE   W06
 BYTE   Gn4  v084
 BYTE   W06
 BYTE   Cn4
 BYTE   W06
 BYTE   Fs4
 BYTE   W06
 BYTE   Dn4  v088
 BYTE   W06
 BYTE   An3
 BYTE   W06
 BYTE   Cn4  v092
 BYTE   W06
 BYTE   PEND 
//  #05 //005   ----------------------------------------
Label_01F91ED2:
 BYTE   N06  Gn4  v092
 BYTE   W06
 BYTE   Cn4
 BYTE   W06
 BYTE   Fs4  v096
 BYTE   W06
 BYTE   Dn4
 BYTE   W06
 BYTE   An3  v100
 BYTE   W06
 BYTE   Cn4
 BYTE   W06
 BYTE   Gn4  v104
 BYTE   W06
 BYTE   Cn4
 BYTE   W06
 BYTE   Fs4  v108
 BYTE   W06
 BYTE   Dn4
 BYTE   W06
 BYTE   An3  v112
 BYTE   W06
 BYTE   Cn4
 BYTE   W06
 BYTE   Gn4
 BYTE   W06
 BYTE   Cn4  v116
 BYTE   W06
 BYTE   Fs4
 BYTE   W06
 BYTE   Dn4  v120
 BYTE   W06
 BYTE   PEND 
//  #05 //006   ----------------------------------------
Label_01F91EFC:
 BYTE   N06  An3  v120
 BYTE   W06
 BYTE   Cn4  v124
 BYTE   W06
 BYTE   Gn4
 BYTE   W06
 BYTE   Cn4  v127
 BYTE   W06
 BYTE   Fs4
 BYTE   W06
 BYTE   Dn4
 BYTE   W06
 BYTE   An3
 BYTE   W06
 BYTE   Cn4  v124
 BYTE   W06
 BYTE   Gn4
 BYTE   W06
 BYTE   Cn4  v120
 BYTE   W06
 BYTE   Fs4
 BYTE   W06
 BYTE   Dn4
 BYTE   W06
 BYTE   An3  v116
 BYTE   W06
 BYTE   Cn4
 BYTE   W06
 BYTE   Gn4
 BYTE   W06
 BYTE   Cn4  v112
 BYTE   W06
 BYTE   PEND 
//  #05 //007   ----------------------------------------
Label_01F91F25:
 BYTE   N06  Fs4  v112
 BYTE   W06
 BYTE   Dn4
 BYTE   W06
 BYTE   An3  v108
 BYTE   W06
 BYTE   Cn4
 BYTE   W06
 BYTE   Gn4
 BYTE   W06
 BYTE   Cn4  v104
 BYTE   W06
 BYTE   Fs4
 BYTE   W06
 BYTE   Dn4  v100
 BYTE   W06
 BYTE   An3
 BYTE   W06
 BYTE   Cn4
 BYTE   W06
 BYTE   Gn4  v096
 BYTE   W06
 BYTE   Cn4
 BYTE   W06
 BYTE   Fs4
 BYTE   W06
 BYTE   Dn4  v092
 BYTE   W06
 BYTE   An3
 BYTE   W06
 BYTE   Cn4
 BYTE   W06
 BYTE   PEND 
//  #05 //008   ----------------------------------------
Label_01F91F4D:
 BYTE   N06  Gn4  v088
 BYTE   W06
 BYTE   Cn4
 BYTE   W06
 BYTE   Fs4
 BYTE   W06
 BYTE   Dn4  v084
 BYTE   W06
 BYTE   An3
 BYTE   W06
 BYTE   Cn4
 BYTE   W06
 BYTE   Gn4  v088
 BYTE   W06
 BYTE   Cn4
 BYTE   W06
 BYTE   Fs4
 BYTE   W06
 BYTE   Dn4  v092
 BYTE   W06
 BYTE   An3
 BYTE   W06
 BYTE   Cn4  v096
 BYTE   W06
 BYTE   Gn4
 BYTE   W06
 BYTE   Cn4
 BYTE   W06
 BYTE   Fs4  v100
 BYTE   W06
 BYTE   Dn4
 BYTE   W06
//  #05 //009   ----------------------------------------
 BYTE   An3  v104
 BYTE   W06
 BYTE   Cn4
 BYTE   W06
 BYTE   Gn4  v108
 BYTE   W06
 BYTE   Cn4
 BYTE   W06
 BYTE   Fs4
 BYTE   W06
 BYTE   Dn4  v112
 BYTE   W06
 BYTE   An3
 BYTE   W06
 BYTE   Cn4
 BYTE   W06
 BYTE   Gn4  v116
 BYTE   W06
 BYTE   Cn4
 BYTE   W06
 BYTE   Fs4  v120
 BYTE   W06
 BYTE   Dn4
 BYTE   W06
 BYTE   An3
 BYTE   W06
 BYTE   Cn4  v124
 BYTE   W06
 BYTE   Gn4
 BYTE   W06
 BYTE   Cn4  v127
 BYTE   W06
//  #05 //010   ----------------------------------------
 BYTE   Fs4
 BYTE   W06
 BYTE   Dn4
 BYTE   W06
 BYTE   An3
 BYTE   W06
 BYTE   Cn4
 BYTE   W06
 BYTE   Gn4  v124
 BYTE   W06
 BYTE   Cn4
 BYTE   W06
 BYTE   Fs4  v120
 BYTE   W06
 BYTE   Dn4
 BYTE   W06
 BYTE   An3
 BYTE   W06
 BYTE   Cn4  v116
 BYTE   W06
 BYTE   Gn4
 BYTE   W06
 BYTE   Cn4
 BYTE   W06
 BYTE   Fs4  v112
 BYTE   W06
 BYTE   Dn4
 BYTE   W06
 BYTE   An3
 BYTE   W06
 BYTE   Cn4
 BYTE   W06
//  #05 //011   ----------------------------------------
 BYTE   Gn4  v108
 BYTE   W06
 BYTE   Cn4
 BYTE   W06
 BYTE   Fs4
 BYTE   W06
 BYTE   Dn4
 BYTE   W06
 BYTE   An3  v104
 BYTE   W06
 BYTE   Cn4
 BYTE   W06
 BYTE   Gn4  v100
 BYTE   W06
 BYTE   Cn4
 BYTE   W06
 BYTE   Fs4
 BYTE   W06
 BYTE   Dn4  v096
 BYTE   W06
 BYTE   An3
 BYTE   W06
 BYTE   Cn4
 BYTE   W06
 BYTE   Gn4  v092
 BYTE   W06
 BYTE   Cn4
 BYTE   W06
 BYTE   Fs4
 BYTE   W06
 BYTE   Dn4
 BYTE   W06
//  #05 //012   ----------------------------------------
 BYTE   An3  v088
 BYTE   W06
 BYTE   Cn4
 BYTE   W06
 BYTE   Gn4
 BYTE   W06
 BYTE   Cn4
 BYTE   W06
 BYTE   Fs4
 BYTE   W06
 BYTE   Dn4
 BYTE   W06
 BYTE   An3  v092
 BYTE   W06
 BYTE   Cn4
 BYTE   W06
 BYTE   Gn4
 BYTE   W06
 BYTE   Cn4  v096
 BYTE   W06
 BYTE   Fs4
 BYTE   W06
 BYTE   Dn4  v100
 BYTE   W06
 BYTE   An3
 BYTE   W06
 BYTE   Cn4
 BYTE   W06
 BYTE   Gn4  v104
 BYTE   W06
 BYTE   Cn4
 BYTE   W06
//  #05 //013   ----------------------------------------
 BYTE   Fs4  v108
 BYTE   W06
 BYTE   Dn4
 BYTE   W06
 BYTE   An3
 BYTE   W06
 BYTE   Cn4
 BYTE   W06
 BYTE   Gn4  v112
 BYTE   W06
 BYTE   Cn4
 BYTE   W06
 BYTE   Fs4
 BYTE   W06
 BYTE   Dn4  v116
 BYTE   W06
 BYTE   An3
 BYTE   W06
 BYTE   Cn4  v120
 BYTE   W06
 BYTE   Gn4
 BYTE   W06
 BYTE   Cn4
 BYTE   W06
 BYTE   Fs4  v124
 BYTE   W06
 BYTE   Dn4
 BYTE   W06
 BYTE   An3  v127
 BYTE   W06
 BYTE   Cn4
 BYTE   W06
//  #05 //014   ----------------------------------------
 BYTE   Gn4
 BYTE   W06
 BYTE   Cn4
 BYTE   W06
 BYTE   As4
 BYTE   W06
 BYTE   Fn4
 BYTE   W06
 BYTE   Ds4
 BYTE   W06
 BYTE   As3  v124
 BYTE   W06
 BYTE   As4
 BYTE   W06
 BYTE   Ds4  v120
 BYTE   W06
 BYTE   Cn5
 BYTE   W06
 BYTE   Fn4
 BYTE   W06
 BYTE   Cn4
 BYTE   W06
 BYTE   Fn4
 BYTE   W06
 BYTE   Cn5  v116
 BYTE   W06
 BYTE   Fn4
 BYTE   W06
 BYTE   Bn4
 BYTE   W06
 BYTE   Gn4  v112
 BYTE   W06
//  #05 //015   ----------------------------------------
 BYTE   Dn4
 BYTE   W06
 BYTE   Fn4
 BYTE   W06
 BYTE   Gn4
 BYTE   W06
 BYTE   Cn4
 BYTE   W06
 BYTE   Fs4  v108
 BYTE   W06
 BYTE   Dn4
 BYTE   W06
 BYTE   An3
 BYTE   W06
 BYTE   Cn4
 BYTE   W06
 BYTE   Gn4
 BYTE   W06
 BYTE   Cn4  v112
 BYTE   W06
 BYTE   Fs4
 BYTE   W06
 BYTE   Dn4
 BYTE   W06
 BYTE   An3  v116
 BYTE   W06
 BYTE   Cn4
 BYTE   W06
 BYTE   Gn4  v120
 BYTE   W06
 BYTE   Cn4
 BYTE   W06
//  #05 //016   ----------------------------------------
 BYTE   Fs4
 BYTE   W06
 BYTE   Dn4  v124
 BYTE   W06
 BYTE   Cn4
 BYTE   W06
 BYTE   Ds4
 BYTE   W06
 BYTE   As4
 BYTE   W06
 BYTE   Ds4  v120
 BYTE   W06
 BYTE   An4
 BYTE   W06
 BYTE   Fn4
 BYTE   W06
 BYTE   Dn4
 BYTE   W06
 BYTE   Fn4
 BYTE   W06
 BYTE   Cn5  v116
 BYTE   W06
 BYTE   Fn4
 BYTE   W06
 BYTE   Bn4
 BYTE   W06
 BYTE   Gn4  v112
 BYTE   W06
 BYTE   Dn4
 BYTE   W06
 BYTE   Fn4
 BYTE   W06
//  #05 //017   ----------------------------------------
 BYTE   Cn5
 BYTE   W06
 BYTE   Fn4  v108
 BYTE   W06
 BYTE   Fs4
 BYTE   W06
 BYTE   Dn4
 BYTE   W06
 BYTE   An3
 BYTE   W06
 BYTE   Cn4
 BYTE   W06
 BYTE   Gn4  v112
 BYTE   W06
 BYTE   Cn4
 BYTE   W06
 BYTE   Fs4
 BYTE   W06
 BYTE   Dn4  v116
 BYTE   W06
 BYTE   An3
 BYTE   W06
 BYTE   Cn4
 BYTE   W06
 BYTE   Gn4  v120
 BYTE   W06
 BYTE   Cn4
 BYTE   W06
 BYTE   Fs4
 BYTE   W06
 BYTE   Dn4  v124
 BYTE   W06
//  #05 //018   ----------------------------------------
 BYTE   An3
 BYTE   W06
 BYTE   Cn4
 BYTE   W06
 BYTE   Gn4  v127
 BYTE   W06
 BYTE   Cn4
 BYTE   W06
 BYTE   Fs4
 BYTE   W06
 BYTE   Dn4  v124
 BYTE   W06
 BYTE   An3  v120
 BYTE   W06
 BYTE   Cn4
 BYTE   W06
 BYTE   Gn4
 BYTE   W06
 BYTE   Cn4  v116
 BYTE   W06
 BYTE   Fs4
 BYTE   W06
 BYTE   Dn4  v112
 BYTE   W06
 BYTE   An3
 BYTE   W06
 BYTE   Cn4  v108
 BYTE   W06
 BYTE   Gn4
 BYTE   W06
 BYTE   Cn4
 BYTE   W06
//  #05 //019   ----------------------------------------
 BYTE   Fs4  v104
 BYTE   W06
 BYTE   Dn4
 BYTE   W06
 BYTE   An3  v100
 BYTE   W06
 BYTE   Cn4
 BYTE   W06
 BYTE   Gn4  v104
 BYTE   W06
 BYTE   Cn4
 BYTE   W06
 BYTE   Fs4  v108
 BYTE   W06
 BYTE   Dn4
 BYTE   W06
 BYTE   An3
 BYTE   W06
 BYTE   Cn4  v112
 BYTE   W06
 BYTE   Gn4
 BYTE   W06
 BYTE   Cn4
 BYTE   W06
 BYTE   Fs4  v116
 BYTE   W06
 BYTE   Dn4
 BYTE   W06
 BYTE   An3  v120
 BYTE   W06
 BYTE   Cn4
 BYTE   W06
//  #05 //020   ----------------------------------------
 BYTE   Gn4
 BYTE   W06
 BYTE   Cn4  v124
 BYTE   W06
 BYTE   Fs4
 BYTE   W06
 BYTE   Dn4
 BYTE   W06
 BYTE   An3  v120
 BYTE   W06
 BYTE   Cn4
 BYTE   W06
 BYTE   Gn4  v116
 BYTE   W06
 BYTE   Cn4
 BYTE   W06
 BYTE   Fs4
 BYTE   W06
 BYTE   Dn4  v112
 BYTE   W06
 BYTE   An3
 BYTE   W06
 BYTE   Cn4
 BYTE   W06
 BYTE   Gn4  v108
 BYTE   W06
 BYTE   Cn4
 BYTE   W06
 BYTE   Fs4
 BYTE   W06
 BYTE   Dn4  v104
 BYTE   W06
//  #05 //021   ----------------------------------------
 BYTE   An3
 BYTE   W06
 BYTE   Cn4  v100
 BYTE   W06
 BYTE   Gn4
 BYTE   W06
 BYTE   Cn4  v096
 BYTE   W06
 BYTE   Fs4
 BYTE   W06
 BYTE   Dn4
 BYTE   W06
 BYTE   An3  v092
 BYTE   W06
 BYTE   Cn4
 BYTE   W06
 BYTE   Gn4
 BYTE   W06
 BYTE   Cn4  v088
 BYTE   W06
 BYTE   Fs4
 BYTE   W06
 BYTE   Dn4
 BYTE   W06
 BYTE   An3  v084
 BYTE   W06
 BYTE   Cn4
 BYTE   W06
 BYTE   Gn4
 BYTE   W06
 BYTE   Cn4  v080
 BYTE   W06
//  #05 //022   ----------------------------------------
 BYTE   Fs4
 BYTE   W06
 BYTE   Dn4
 BYTE   W06
 BYTE   An3
 BYTE   W06
 BYTE   Cn4
 BYTE   W06
 BYTE   Gn4
 BYTE   W06
 BYTE   Cn4
 BYTE   W06
 BYTE   Fs4  v084
 BYTE   W06
 BYTE   Dn4
 BYTE   W06
 BYTE   An3
 BYTE   W06
 BYTE   Cn4  v088
 BYTE   W06
 BYTE   Gn4
 BYTE   W06
 BYTE   Cn4
 BYTE   W06
 BYTE   Fs4  v092
 BYTE   W06
 BYTE   Dn4
 BYTE   W06
 BYTE   An3
 BYTE   W06
 BYTE   Cn4  v096
 BYTE   W06
//  #05 //023   ----------------------------------------
 BYTE   Gn4
 BYTE   W06
 BYTE   Cn4
 BYTE   W06
 BYTE   Fs4  v100
 BYTE   W06
 BYTE   Dn4
 BYTE   W06
 BYTE   An3
 BYTE   W06
 BYTE   Cn4  v104
 BYTE   W06
 BYTE   Gn4
 BYTE   W06
 BYTE   Cn4  v108
 BYTE   W06
 BYTE   Fs4
 BYTE   W06
 BYTE   Dn4
 BYTE   W06
 BYTE   An3  v112
 BYTE   W06
 BYTE   Cn4
 BYTE   W06
 BYTE   Gn4
 BYTE   W06
 BYTE   Cn4  v116
 BYTE   W06
 BYTE   Fs4
 BYTE   W06
 BYTE   Dn4
 BYTE   W06
//  #05 //024   ----------------------------------------
 BYTE   An3  v120
 BYTE   W06
 BYTE   Cn4
 BYTE   W06
 BYTE   Gn4
 BYTE   W06
 BYTE   Cn4  v124
 BYTE   W06
 BYTE   Fs4
 BYTE   W06
 BYTE   Dn4
 BYTE   W06
 BYTE   An3  v120
 BYTE   W06
 BYTE   Cn4
 BYTE   W06
 BYTE   Gn4  v116
 BYTE   W06
 BYTE   Cn4
 BYTE   W06
 BYTE   Fs4  v112
 BYTE   W06
 BYTE   Dn4
 BYTE   W06
 BYTE   An3  v108
 BYTE   W06
 BYTE   Cn4
 BYTE   W06
 BYTE   Gn4
 BYTE   W06
 BYTE   Cn4  v104
 BYTE   W06
//  #05 //025   ----------------------------------------
 BYTE   Fs4  v100
 BYTE   W06
 BYTE   Dn4
 BYTE   W06
 BYTE   An3
 BYTE   W06
 BYTE   Cn4  v096
 BYTE   W06
 BYTE   Gn4
 BYTE   W06
 BYTE   Cn4  v092
 BYTE   W06
 BYTE   Fs4
 BYTE   W06
 BYTE   Dn4  v088
 BYTE   W06
 BYTE   An3
 BYTE   W06
 BYTE   Cn4
 BYTE   W06
 BYTE   Gn4  v084
 BYTE   W06
 BYTE   Cn4
 BYTE   W06
 BYTE   Fs4  v080
 BYTE   W06
 BYTE   Dn4
 BYTE   W06
 BYTE   An3
 BYTE   W06
 BYTE   Cn4  v076
 BYTE   W06
//  #05 //026   ----------------------------------------
 BYTE   Gn4  v072
 BYTE   W06
 BYTE   Cn4
 BYTE   W06
 BYTE   An3  v076
 BYTE   W06
 BYTE   Cn4
 BYTE   W06
 BYTE   Gn4  v080
 BYTE   W06
 BYTE   Cn4
 BYTE   W06
 BYTE   Fs4
 BYTE   W06
 BYTE   Dn4  v084
 BYTE   W06
 BYTE   An3
 BYTE   W06
 BYTE   Cn4
 BYTE   W06
 BYTE   Gn4  v088
 BYTE   W06
 BYTE   Cn4
 BYTE   W06
 BYTE   Fs4
 BYTE   W06
 BYTE   Dn4  v092
 BYTE   W06
 BYTE   An3
 BYTE   W06
 BYTE   Cn4  v096
 BYTE   W06
//  #05 //027   ----------------------------------------
 BYTE   Gn4
 BYTE   W06
 BYTE   Cn4  v100
 BYTE   W06
 BYTE   Fs4
 BYTE   W06
 BYTE   Dn4
 BYTE   W06
 BYTE   An3  v104
 BYTE   W06
 BYTE   Cn4  v108
 BYTE   W06
 BYTE   Gn4
 BYTE   W06
 BYTE   Cn4
 BYTE   W06
 BYTE   Fs4  v112
 BYTE   W06
 BYTE   Dn4
 BYTE   W06
 BYTE   An3
 BYTE   W06
 BYTE   Cn4  v116
 BYTE   W06
 BYTE   Gn4
 BYTE   W06
 BYTE   Cn4  v120
 BYTE   W06
 BYTE   Fs4
 BYTE   W06
 BYTE   Dn4  v124
 BYTE   W06
//  #05 //028   ----------------------------------------
 BYTE   An3
 BYTE   W06
 BYTE   Cn4
 BYTE   W06
 BYTE   An3  v120
 BYTE   W06
 BYTE   Cn4
 BYTE   W06
 BYTE   Gn4
 BYTE   W06
 BYTE   Cn4
 BYTE   W06
 BYTE   Fs4  v116
 BYTE   W06
 BYTE   Dn4
 BYTE   W06
 BYTE   An3  v112
 BYTE   W06
 BYTE   Cn4
 BYTE   W06
 BYTE   Gn4
 BYTE   W06
 BYTE   Cn4  v108
 BYTE   W06
 BYTE   Fs4
 BYTE   W06
 BYTE   Dn4
 BYTE   W06
 BYTE   An3  v104
 BYTE   W06
 BYTE   Cn4
 BYTE   W06
//  #05 //029   ----------------------------------------
 BYTE   Gn4  v100
 BYTE   W06
 BYTE   Cn4  v104
 BYTE   W06
 BYTE   Fs4
 BYTE   W06
 BYTE   Dn4
 BYTE   W06
 BYTE   An3  v108
 BYTE   W06
 BYTE   Cn4
 BYTE   W06
 BYTE   Gn4
 BYTE   W06
 BYTE   Cn4  v112
 BYTE   W06
 BYTE   Fs4
 BYTE   W06
 BYTE   Dn4
 BYTE   W06
 BYTE   An3  v116
 BYTE   W06
 BYTE   Cn4
 BYTE   W06
 BYTE   Gn4  v120
 BYTE   W06
 BYTE   Cn4
 BYTE   W06
 BYTE   Fs4
 BYTE   W06
 BYTE   Dn4
 BYTE   W06
//  #05 //030   ----------------------------------------
 BYTE   An3  v124
 BYTE   W06
 BYTE   Cn4
 BYTE   W06
 BYTE   Gn4  v127
 BYTE   W06
 BYTE   Cn4
 BYTE   W06
 BYTE   Fs4  v124
 BYTE   W06
 BYTE   Dn4  v120
 BYTE   W06
 BYTE   An3
 BYTE   W06
 BYTE   Cn4  v116
 BYTE   W06
 BYTE   Gn4
 BYTE   W06
 BYTE   Cn4  v112
 BYTE   W06
 BYTE   Fs4
 BYTE   W06
 BYTE   Dn4  v108
 BYTE   W06
 BYTE   An3
 BYTE   W06
 BYTE   Cn4  v104
 BYTE   W06
 BYTE   Gn4
 BYTE   W06
 BYTE   Cn4  v100
 BYTE   W06
//  #05 //031   ----------------------------------------
 BYTE   PATT
  POIN2 Label_01F91E7F
//  #05 //032   ----------------------------------------
 BYTE   PATT
  POIN2 Label_01F91EA9
//  #05 //033   ----------------------------------------
 BYTE   PATT
  POIN2 Label_01F91ED2
//  #05 //034   ----------------------------------------
 BYTE   PATT
  POIN2 Label_01F91EFC
//  #05 //035   ----------------------------------------
 BYTE   PATT
  POIN2 Label_01F91F25
//  #05 //036   ----------------------------------------
 BYTE   GoTo
  POIN2 Label_01F91F4D
 BYTE   FINE

//**************** Track 6 (Midi-Chn.5) ****************//

song01_006:
//  #06 //000   ----------------------------------------
 BYTE   KEYSH   song01_key+0
 BYTE   MODT 0
 BYTE   LFOS 44
Label_3AE48A:
 BYTE   VOICE   61
 BYTE   PAN   c_v+0
 BYTE   VOL   49*song01_mvl/mxv
 BYTE   BEND   c_v+0
 BYTE   W96
 BYTE   PEND 
//  #06 //001   ----------------------------------------
 BYTE   W96
//  #06 //002   ----------------------------------------
 BYTE   W96
//  #06 //003   ----------------------------------------
 BYTE   W96
//  #06 //004   ----------------------------------------
 BYTE   W96
//  #06 //005   ----------------------------------------
 BYTE   W96
//  #06 //006   ----------------------------------------
 BYTE   W96
//  #06 //007   ----------------------------------------
 BYTE   W96
//  #06 //008   ----------------------------------------
Label_3AE49B:
 BYTE   W96
//  #06 //009   ----------------------------------------
 BYTE   W96
//  #06 //010   ----------------------------------------
 BYTE   W96
//  #06 //011   ----------------------------------------
 BYTE   W96
//  #06 //012   ----------------------------------------
 BYTE   W96
//  #06 //013   ----------------------------------------
 BYTE   W96
//  #06 //014   ----------------------------------------
 BYTE   W96
//  #06 //015   ----------------------------------------
 BYTE   PATT
  POIN2 Label_3AE48A
//  #06 //016   ----------------------------------------
 BYTE   N06  As3  v127
 BYTE   W06
 BYTE   Cn4
 BYTE   W06
 BYTE   N15  Dn4
 BYTE   W18
 BYTE   N06
 BYTE   W06
 BYTE   En4
 BYTE   W06
 BYTE   N30  Fn4
 BYTE   W36
 BYTE   N06
 BYTE   W06
 BYTE   Gn4
 BYTE   W06
 BYTE   N78  An4
 BYTE   W06
//  #06 //017   ----------------------------------------
 BYTE   W96
//  #06 //018   ----------------------------------------
Label_3AE4BF:
 BYTE   N54  En4  v127
 BYTE   W54
 BYTE   N06  Dn4
 BYTE   W06
 BYTE   Cn4
 BYTE   W06
 BYTE   N12  Bn3
 BYTE   W12
 BYTE   N06
 BYTE   W06
 BYTE   Cn4
 BYTE   W06
 BYTE   Dn4
 BYTE   W06
 BYTE   PEND 
//  #06 //019   ----------------------------------------
Label_3AE4D2:
 BYTE   N48  Gn3  v127
 BYTE   W48
 BYTE   N06
 BYTE   W06
 BYTE   An3
 BYTE   W06
 BYTE   Bn3
 BYTE   W06
 BYTE   N12
 BYTE   W12
 BYTE   N06  Cn4
 BYTE   W06
 BYTE   Gn3
 BYTE   W06
 BYTE   An3
 BYTE   W06
 BYTE   PEND 
//  #06 //020   ----------------------------------------
 BYTE   TIE  En3
 BYTE   W96
//  #06 //021   ----------------------------------------
 BYTE   W72
 BYTE   EOT
 BYTE   W24
//  #06 //022   ----------------------------------------
 BYTE   PATT
  POIN2 Label_3AE4BF
//  #06 //023   ----------------------------------------
 BYTE   PATT
  POIN2 Label_3AE4D2
//  #06 //024   ----------------------------------------
Label_3AE4F6:
 BYTE   N06  Bn3  v127
 BYTE   W06
 BYTE   Cn4
 BYTE   W06
 BYTE   Dn4
 BYTE   W06
 BYTE   N12  En4
 BYTE   W12
 BYTE   N06
 BYTE   W06
 BYTE   Fs4
 BYTE   W06
 BYTE   N12  Gn4
 BYTE   W12
 BYTE   N06  An4
 BYTE   W06
 BYTE   Fs4
 BYTE   W06
 BYTE   N12  Gn4
 BYTE   W12
 BYTE   N06
 BYTE   W06
 BYTE   An4
 BYTE   W06
 BYTE   N78  Bn4
 BYTE   W06
 BYTE   PEND 
//  #06 //025   ----------------------------------------
 BYTE   W96
//  #06 //026   ----------------------------------------
 BYTE   PATT
  POIN2 Label_3AE4F6
//  #06 //027   ----------------------------------------
 BYTE   W96
//  #06 //028   ----------------------------------------
 BYTE   W96
//  #06 //029   ----------------------------------------
 BYTE   W96
//  #06 //030   ----------------------------------------
 BYTE   W96
//  #06 //031   ----------------------------------------
 BYTE   W96
//  #06 //032   ----------------------------------------
 BYTE   W96
//  #06 //033   ----------------------------------------
 BYTE   W96
//  #06 //034   ----------------------------------------
 BYTE   W96
//  #06 //035   ----------------------------------------
 BYTE   W96
//  #06 //036   ----------------------------------------
 BYTE   GoTo
  POIN2 Label_3AE49B
 BYTE   FINE

//**************** Track 7 (Midi-Chn.6) ****************//

song01_007:
//  #07 //000   ----------------------------------------
 BYTE   KEYSH   song01_key+0
 BYTE   MODT 0
 BYTE   LFOS 44
 BYTE   VOICE   48
 BYTE   PAN   c_v-34
 BYTE   VOL   22*song01_mvl/mxv
 BYTE   BEND   c_v+0
 BYTE   W03
 BYTE   VOL   22*song01_mvl/mxv
 BYTE   W03
 BYTE   VOL   23*song01_mvl/mxv
 BYTE   W03
 BYTE   VOL   23*song01_mvl/mxv
 BYTE   W03
 BYTE   VOL   24*song01_mvl/mxv
 BYTE   W03
 BYTE   VOL   25*song01_mvl/mxv
 BYTE   W03
 BYTE   VOL   26*song01_mvl/mxv
 BYTE   W03
 BYTE   VOL   27*song01_mvl/mxv
 BYTE   W03
 BYTE   VOL   27*song01_mvl/mxv
 BYTE   W03
 BYTE   VOL   27*song01_mvl/mxv
 BYTE   W06
 BYTE   VOL   28*song01_mvl/mxv
 BYTE   W03
 BYTE   VOL   29*song01_mvl/mxv
 BYTE   W03
 BYTE   VOL   29*song01_mvl/mxv
 BYTE   W03
 BYTE   VOL   29*song01_mvl/mxv
 BYTE   W03
 BYTE   VOL   30*song01_mvl/mxv
 BYTE   W03
 BYTE   VOL   31*song01_mvl/mxv
 BYTE   W03
 BYTE   VOL   32*song01_mvl/mxv
 BYTE   W03
 BYTE   VOL   32*song01_mvl/mxv
 BYTE   W03
 BYTE   VOL   33*song01_mvl/mxv
 BYTE   W03
 BYTE   VOL   34*song01_mvl/mxv
 BYTE   W03
 BYTE   VOL   34*song01_mvl/mxv
 BYTE   W03
 BYTE   VOL   34*song01_mvl/mxv
 BYTE   W03
 BYTE   VOL   35*song01_mvl/mxv
 BYTE   W03
 BYTE   VOL   36*song01_mvl/mxv
 BYTE   W03
 BYTE   VOL   37*song01_mvl/mxv
 BYTE   W03
 BYTE   VOL   37*song01_mvl/mxv
 BYTE   W03
 BYTE   VOL   37*song01_mvl/mxv
 BYTE   W03
 BYTE   VOL   38*song01_mvl/mxv
 BYTE   W03
 BYTE   VOL   39*song01_mvl/mxv
 BYTE   W03
 BYTE   VOL   40*song01_mvl/mxv
 BYTE   W03
 BYTE   VOL   40*song01_mvl/mxv
 BYTE   W03
//  #07 //001   ----------------------------------------
 BYTE   VOL   40*song01_mvl/mxv
 BYTE   W03
 BYTE   VOL   40*song01_mvl/mxv
 BYTE   W03
 BYTE   VOL   39*song01_mvl/mxv
 BYTE   W03
 BYTE   VOL   38*song01_mvl/mxv
 BYTE   W03
 BYTE   VOL   37*song01_mvl/mxv
 BYTE   W03
 BYTE   VOL   37*song01_mvl/mxv
 BYTE   W03
 BYTE   VOL   37*song01_mvl/mxv
 BYTE   W03
 BYTE   VOL   37*song01_mvl/mxv
 BYTE   W03
 BYTE   VOL   36*song01_mvl/mxv
 BYTE   W03
 BYTE   VOL   35*song01_mvl/mxv
 BYTE   W03
 BYTE   VOL   34*song01_mvl/mxv
 BYTE   W03
 BYTE   VOL   34*song01_mvl/mxv
 BYTE   W03
 BYTE   VOL   34*song01_mvl/mxv
 BYTE   W03
 BYTE   VOL   34*song01_mvl/mxv
 BYTE   W03
 BYTE   VOL   33*song01_mvl/mxv
 BYTE   W06
 BYTE   VOL   32*song01_mvl/mxv
 BYTE   W03
 BYTE   VOL   31*song01_mvl/mxv
 BYTE   W03
 BYTE   VOL   30*song01_mvl/mxv
 BYTE   W03
 BYTE   VOL   30*song01_mvl/mxv
 BYTE   W03
 BYTE   VOL   29*song01_mvl/mxv
 BYTE   W06
 BYTE   VOL   29*song01_mvl/mxv
 BYTE   W03
 BYTE   VOL   29*song01_mvl/mxv
 BYTE   W03
 BYTE   VOL   28*song01_mvl/mxv
 BYTE   W03
 BYTE   VOL   27*song01_mvl/mxv
 BYTE   W06
 BYTE   VOL   27*song01_mvl/mxv
 BYTE   W03
 BYTE   VOL   27*song01_mvl/mxv
 BYTE   W03
 BYTE   VOL   27*song01_mvl/mxv
 BYTE   W03
 BYTE   VOL   26*song01_mvl/mxv
 BYTE   W01
 BYTE   VOL   25*song01_mvl/mxv
 BYTE   W02
 BYTE   VOL   25*song01_mvl/mxv
 BYTE   W03
//  #07 //002   ----------------------------------------
 BYTE   N96  En3  v096
 BYTE   W01
 BYTE   VOL   26*song01_mvl/mxv
 BYTE   W02
 BYTE   VOL   26*song01_mvl/mxv
 BYTE   W01
 BYTE   VOL   27*song01_mvl/mxv
 BYTE   W02
 BYTE   VOL   27*song01_mvl/mxv
 BYTE   W03
 BYTE   VOL   27*song01_mvl/mxv
 BYTE   W01
 BYTE   VOL   27*song01_mvl/mxv
 BYTE   W02
 BYTE   VOL   27*song01_mvl/mxv
 BYTE   W01
 BYTE   VOL   27*song01_mvl/mxv
 BYTE   W03
 BYTE   VOL   28*song01_mvl/mxv
 BYTE   W02
 BYTE   VOL   28*song01_mvl/mxv
 BYTE   W01
 BYTE   VOL   28*song01_mvl/mxv
 BYTE   W02
 BYTE   VOL   29*song01_mvl/mxv
 BYTE   W01
 BYTE   VOL   29*song01_mvl/mxv
 BYTE   W02
 BYTE   VOL   29*song01_mvl/mxv
 BYTE   W01
 BYTE   VOL   29*song01_mvl/mxv
 BYTE   W02
 BYTE   VOL   29*song01_mvl/mxv
 BYTE   W03
 BYTE   VOL   30*song01_mvl/mxv
 BYTE   W01
 BYTE   VOL   30*song01_mvl/mxv
 BYTE   W02
 BYTE   VOL   30*song01_mvl/mxv
 BYTE   W01
 BYTE   VOL   30*song01_mvl/mxv
 BYTE   W02
 BYTE   VOL   31*song01_mvl/mxv
 BYTE   W03
 BYTE   VOL   32*song01_mvl/mxv
 BYTE   W01
 BYTE   VOL   32*song01_mvl/mxv
 BYTE   W02
 BYTE   VOL   32*song01_mvl/mxv
 BYTE   W01
 BYTE   VOL   33*song01_mvl/mxv
 BYTE   W02
 BYTE   VOL   33*song01_mvl/mxv
 BYTE   W01
 BYTE   VOL   33*song01_mvl/mxv
 BYTE   W02
 BYTE   VOL   34*song01_mvl/mxv
 BYTE   W03
 BYTE   VOL   34*song01_mvl/mxv
 BYTE   W01
 BYTE   VOL   34*song01_mvl/mxv
 BYTE   W02
 BYTE   VOL   34*song01_mvl/mxv
 BYTE   W01
 BYTE   VOL   34*song01_mvl/mxv
 BYTE   W02
 BYTE   VOL   34*song01_mvl/mxv
 BYTE   W03
 BYTE   VOL   35*song01_mvl/mxv
 BYTE   W01
 BYTE   VOL   36*song01_mvl/mxv
 BYTE   W02
 BYTE   VOL   36*song01_mvl/mxv
 BYTE   W01
 BYTE   VOL   37*song01_mvl/mxv
 BYTE   W02
 BYTE   VOL   37*song01_mvl/mxv
 BYTE   W03
 BYTE   VOL   37*song01_mvl/mxv
 BYTE   W01
 BYTE   VOL   37*song01_mvl/mxv
 BYTE   W02
 BYTE   VOL   37*song01_mvl/mxv
 BYTE   W01
 BYTE   VOL   37*song01_mvl/mxv
 BYTE   W03
 BYTE   VOL   38*song01_mvl/mxv
 BYTE   W02
 BYTE   VOL   38*song01_mvl/mxv
 BYTE   W03
 BYTE   VOL   39*song01_mvl/mxv
 BYTE   W01
 BYTE   VOL   40*song01_mvl/mxv
 BYTE   W02
 BYTE   VOL   40*song01_mvl/mxv
 BYTE   W01
 BYTE   VOL   40*song01_mvl/mxv
 BYTE   W02
 BYTE   VOL   40*song01_mvl/mxv
 BYTE   W03
 BYTE   VOL   41*song01_mvl/mxv
 BYTE   W01
 BYTE   VOL   41*song01_mvl/mxv
 BYTE   W02
 BYTE   VOL   40*song01_mvl/mxv
 BYTE   W03
//  #07 //003   ----------------------------------------
 BYTE   VOL   40*song01_mvl/mxv
 BYTE   N96  Dn3
 BYTE   W03
 BYTE   VOL   40*song01_mvl/mxv
 BYTE   W01
 BYTE   VOL   39*song01_mvl/mxv
 BYTE   W02
 BYTE   VOL   39*song01_mvl/mxv
 BYTE   W01
 BYTE   VOL   38*song01_mvl/mxv
 BYTE   W02
 BYTE   VOL   38*song01_mvl/mxv
 BYTE   W01
 BYTE   VOL   37*song01_mvl/mxv
 BYTE   W02
 BYTE   VOL   37*song01_mvl/mxv
 BYTE   W03
 BYTE   VOL   37*song01_mvl/mxv
 BYTE   W03
 BYTE   VOL   37*song01_mvl/mxv
 BYTE   W03
 BYTE   VOL   36*song01_mvl/mxv
 BYTE   W03
 BYTE   VOL   35*song01_mvl/mxv
 BYTE   W03
 BYTE   VOL   34*song01_mvl/mxv
 BYTE   W01
 BYTE   VOL   34*song01_mvl/mxv
 BYTE   W02
 BYTE   VOL   34*song01_mvl/mxv
 BYTE   W01
 BYTE   VOL   34*song01_mvl/mxv
 BYTE   W02
 BYTE   VOL   34*song01_mvl/mxv
 BYTE   W01
 BYTE   VOL   34*song01_mvl/mxv
 BYTE   W02
 BYTE   VOL   34*song01_mvl/mxv
 BYTE   W01
 BYTE   VOL   33*song01_mvl/mxv
 BYTE   W02
 BYTE   VOL   33*song01_mvl/mxv
 BYTE   W03
 BYTE   VOL   32*song01_mvl/mxv
 BYTE   W03
 BYTE   VOL   31*song01_mvl/mxv
 BYTE   W03
 BYTE   VOL   30*song01_mvl/mxv
 BYTE   W01
 BYTE   VOL   30*song01_mvl/mxv
 BYTE   W02
 BYTE   VOL   30*song01_mvl/mxv
 BYTE   W01
 BYTE   VOL   29*song01_mvl/mxv
 BYTE   W02
 BYTE   VOL   29*song01_mvl/mxv
 BYTE   W01
 BYTE   VOL   29*song01_mvl/mxv
 BYTE   W02
 BYTE   VOL   29*song01_mvl/mxv
 BYTE   W03
 BYTE   VOL   29*song01_mvl/mxv
 BYTE   W03
 BYTE   VOL   28*song01_mvl/mxv
 BYTE   W01
 BYTE   VOL   28*song01_mvl/mxv
 BYTE   W02
 BYTE   VOL   27*song01_mvl/mxv
 BYTE   W01
 BYTE   VOL   27*song01_mvl/mxv
 BYTE   W03
 BYTE   VOL   27*song01_mvl/mxv
 BYTE   W02
 BYTE   VOL   27*song01_mvl/mxv
 BYTE   W01
 BYTE   VOL   27*song01_mvl/mxv
 BYTE   W02
 BYTE   VOL   27*song01_mvl/mxv
 BYTE   W01
 BYTE   VOL   27*song01_mvl/mxv
 BYTE   W02
 BYTE   VOL   26*song01_mvl/mxv
 BYTE   W03
 BYTE   VOL   25*song01_mvl/mxv
 BYTE   W03
 BYTE   VOL   24*song01_mvl/mxv
 BYTE   W03
 BYTE   VOL   23*song01_mvl/mxv
 BYTE   W03
 BYTE   VOL   23*song01_mvl/mxv
 BYTE   W01
 BYTE   VOL   23*song01_mvl/mxv
 BYTE   W02
 BYTE   VOL   23*song01_mvl/mxv
 BYTE   W03
//  #07 //004   ----------------------------------------
 BYTE   VOICE   48
 BYTE   PAN   c_v-34
 BYTE   VOL   23*song01_mvl/mxv
 BYTE   BEND   c_v+0
 BYTE   N96  Gn2
 BYTE   W01
 BYTE   VOL   24*song01_mvl/mxv
 BYTE   W02
 BYTE   VOL   24*song01_mvl/mxv
 BYTE   W01
 BYTE   VOL   25*song01_mvl/mxv
 BYTE   W02
 BYTE   VOL   25*song01_mvl/mxv
 BYTE   W01
 BYTE   VOL   26*song01_mvl/mxv
 BYTE   W02
 BYTE   VOL   26*song01_mvl/mxv
 BYTE   W01
 BYTE   VOL   27*song01_mvl/mxv
 BYTE   W02
 BYTE   VOL   27*song01_mvl/mxv
 BYTE   W01
 BYTE   VOL   27*song01_mvl/mxv
 BYTE   W02
 BYTE   VOL   27*song01_mvl/mxv
 BYTE   W01
 BYTE   VOL   27*song01_mvl/mxv
 BYTE   W02
 BYTE   VOL   27*song01_mvl/mxv
 BYTE   W01
 BYTE   VOL   27*song01_mvl/mxv
 BYTE   W02
 BYTE   VOL   28*song01_mvl/mxv
 BYTE   W01
 BYTE   VOL   28*song01_mvl/mxv
 BYTE   W02
 BYTE   VOL   28*song01_mvl/mxv
 BYTE   W03
 BYTE   VOL   29*song01_mvl/mxv
 BYTE   W01
 BYTE   VOL   29*song01_mvl/mxv
 BYTE   W02
 BYTE   VOL   29*song01_mvl/mxv
 BYTE   W01
 BYTE   VOL   29*song01_mvl/mxv
 BYTE   W02
 BYTE   VOL   29*song01_mvl/mxv
 BYTE   W01
 BYTE   VOL   30*song01_mvl/mxv
 BYTE   W02
 BYTE   VOL   30*song01_mvl/mxv
 BYTE   W01
 BYTE   VOL   30*song01_mvl/mxv
 BYTE   W02
 BYTE   VOL   30*song01_mvl/mxv
 BYTE   W01
 BYTE   VOL   31*song01_mvl/mxv
 BYTE   W02
 BYTE   VOL   32*song01_mvl/mxv
 BYTE   W01
 BYTE   VOL   32*song01_mvl/mxv
 BYTE   W02
 BYTE   VOL   32*song01_mvl/mxv
 BYTE   W03
 BYTE   VOL   33*song01_mvl/mxv
 BYTE   W01
 BYTE   VOL   33*song01_mvl/mxv
 BYTE   W02
 BYTE   VOL   34*song01_mvl/mxv
 BYTE   W01
 BYTE   VOL   34*song01_mvl/mxv
 BYTE   W02
 BYTE   VOL   34*song01_mvl/mxv
 BYTE   W01
 BYTE   VOL   34*song01_mvl/mxv
 BYTE   W02
 BYTE   VOL   34*song01_mvl/mxv
 BYTE   W01
 BYTE   VOL   34*song01_mvl/mxv
 BYTE   W02
 BYTE   VOL   35*song01_mvl/mxv
 BYTE   W01
 BYTE   VOL   35*song01_mvl/mxv
 BYTE   W03
 BYTE   VOL   36*song01_mvl/mxv
 BYTE   W02
 BYTE   VOL   36*song01_mvl/mxv
 BYTE   W01
 BYTE   VOL   37*song01_mvl/mxv
 BYTE   W02
 BYTE   VOL   37*song01_mvl/mxv
 BYTE   W01
 BYTE   VOL   37*song01_mvl/mxv
 BYTE   W02
 BYTE   VOL   37*song01_mvl/mxv
 BYTE   W01
 BYTE   VOL   37*song01_mvl/mxv
 BYTE   W02
 BYTE   VOL   37*song01_mvl/mxv
 BYTE   W01
 BYTE   VOL   37*song01_mvl/mxv
 BYTE   W02
 BYTE   VOL   38*song01_mvl/mxv
 BYTE   W01
 BYTE   VOL   38*song01_mvl/mxv
 BYTE   W02
 BYTE   VOL   39*song01_mvl/mxv
 BYTE   W01
 BYTE   VOL   40*song01_mvl/mxv
 BYTE   W02
 BYTE   VOL   40*song01_mvl/mxv
 BYTE   W03
 BYTE   VOL   40*song01_mvl/mxv
 BYTE   W03
 BYTE   VOL   41*song01_mvl/mxv
 BYTE   W01
 BYTE   VOL   41*song01_mvl/mxv
 BYTE   W02
 BYTE   VOL   40*song01_mvl/mxv
 BYTE   W01
 BYTE   VOL   40*song01_mvl/mxv
 BYTE   W02
//  #07 //005   ----------------------------------------
 BYTE   VOL   40*song01_mvl/mxv
 BYTE   N96  Dn3
 BYTE   W01
 BYTE   VOL   40*song01_mvl/mxv
 BYTE   W03
 BYTE   VOL   40*song01_mvl/mxv
 BYTE   W02
 BYTE   VOL   40*song01_mvl/mxv
 BYTE   W01
 BYTE   VOL   39*song01_mvl/mxv
 BYTE   W02
 BYTE   VOL   38*song01_mvl/mxv
 BYTE   W01
 BYTE   VOL   38*song01_mvl/mxv
 BYTE   W03
 BYTE   VOL   37*song01_mvl/mxv
 BYTE   W02
 BYTE   VOL   37*song01_mvl/mxv
 BYTE   W01
 BYTE   VOL   37*song01_mvl/mxv
 BYTE   W02
 BYTE   VOL   37*song01_mvl/mxv
 BYTE   W01
 BYTE   VOL   37*song01_mvl/mxv
 BYTE   W03
 BYTE   VOL   37*song01_mvl/mxv
 BYTE   W02
 BYTE   VOL   37*song01_mvl/mxv
 BYTE   W03
 BYTE   VOL   36*song01_mvl/mxv
 BYTE   W01
 BYTE   VOL   35*song01_mvl/mxv
 BYTE   W02
 BYTE   VOL   35*song01_mvl/mxv
 BYTE   W01
 BYTE   VOL   34*song01_mvl/mxv
 BYTE   W02
 BYTE   VOL   34*song01_mvl/mxv
 BYTE   W01
 BYTE   VOL   34*song01_mvl/mxv
 BYTE   W02
 BYTE   VOL   34*song01_mvl/mxv
 BYTE   W01
 BYTE   VOL   34*song01_mvl/mxv
 BYTE   W02
 BYTE   VOL   34*song01_mvl/mxv
 BYTE   W01
 BYTE   VOL   34*song01_mvl/mxv
 BYTE   W03
 BYTE   VOL   33*song01_mvl/mxv
 BYTE   W02
 BYTE   VOL   33*song01_mvl/mxv
 BYTE   W01
 BYTE   VOL   32*song01_mvl/mxv
 BYTE   W02
 BYTE   VOL   32*song01_mvl/mxv
 BYTE   W01
 BYTE   VOL   32*song01_mvl/mxv
 BYTE   W03
 BYTE   VOL   31*song01_mvl/mxv
 BYTE   W02
 BYTE   VOL   31*song01_mvl/mxv
 BYTE   W01
 BYTE   VOL   30*song01_mvl/mxv
 BYTE   W02
 BYTE   VOL   30*song01_mvl/mxv
 BYTE   W01
 BYTE   VOL   30*song01_mvl/mxv
 BYTE   W02
 BYTE   VOL   30*song01_mvl/mxv
 BYTE   W01
 BYTE   VOL   29*song01_mvl/mxv
 BYTE   W02
 BYTE   VOL   29*song01_mvl/mxv
 BYTE   W01
 BYTE   VOL   29*song01_mvl/mxv
 BYTE   W02
 BYTE   VOL   29*song01_mvl/mxv
 BYTE   W01
 BYTE   VOL   29*song01_mvl/mxv
 BYTE   W02
 BYTE   VOL   28*song01_mvl/mxv
 BYTE   W01
 BYTE   VOL   28*song01_mvl/mxv
 BYTE   W03
 BYTE   VOL   28*song01_mvl/mxv
 BYTE   W02
 BYTE   VOL   28*song01_mvl/mxv
 BYTE   W01
 BYTE   VOL   27*song01_mvl/mxv
 BYTE   W02
 BYTE   VOL   27*song01_mvl/mxv
 BYTE   W01
 BYTE   VOL   27*song01_mvl/mxv
 BYTE   W03
 BYTE   VOL   27*song01_mvl/mxv
 BYTE   W02
 BYTE   VOL   27*song01_mvl/mxv
 BYTE   W03
 BYTE   VOL   27*song01_mvl/mxv
 BYTE   W01
 BYTE   VOL   26*song01_mvl/mxv
 BYTE   W02
 BYTE   VOL   26*song01_mvl/mxv
 BYTE   W01
 BYTE   VOL   25*song01_mvl/mxv
 BYTE   W02
 BYTE   VOL   25*song01_mvl/mxv
 BYTE   W01
 BYTE   VOL   24*song01_mvl/mxv
 BYTE   W02
//  #07 //006   ----------------------------------------
Label_01F8FA5E:
 BYTE   VOL   23*song01_mvl/mxv
 BYTE   N96  En3  v096
 BYTE   W01
 BYTE   VOL   23*song01_mvl/mxv
 BYTE   W02
 BYTE   VOL   24*song01_mvl/mxv
 BYTE   W01
 BYTE   VOL   24*song01_mvl/mxv
 BYTE   W02
 BYTE   VOL   25*song01_mvl/mxv
 BYTE   W03
 BYTE   VOL   26*song01_mvl/mxv
 BYTE   W01
 BYTE   VOL   26*song01_mvl/mxv
 BYTE   W02
 BYTE   VOL   27*song01_mvl/mxv
 BYTE   W01
 BYTE   VOL   27*song01_mvl/mxv
 BYTE   W02
 BYTE   VOL   27*song01_mvl/mxv
 BYTE   W01
 BYTE   VOL   27*song01_mvl/mxv
 BYTE   W02
 BYTE   VOL   27*song01_mvl/mxv
 BYTE   W01
 BYTE   VOL   27*song01_mvl/mxv
 BYTE   W02
 BYTE   VOL   27*song01_mvl/mxv
 BYTE   W01
 BYTE   VOL   28*song01_mvl/mxv
 BYTE   W02
 BYTE   VOL   28*song01_mvl/mxv
 BYTE   W01
 BYTE   VOL   28*song01_mvl/mxv
 BYTE   W02
 BYTE   VOL   28*song01_mvl/mxv
 BYTE   W03
 BYTE   VOL   29*song01_mvl/mxv
 BYTE   W01
 BYTE   VOL   29*song01_mvl/mxv
 BYTE   W02
 BYTE   VOL   29*song01_mvl/mxv
 BYTE   W01
 BYTE   VOL   29*song01_mvl/mxv
 BYTE   W02
 BYTE   VOL   29*song01_mvl/mxv
 BYTE   W03
 BYTE   VOL   30*song01_mvl/mxv
 BYTE   W01
 BYTE   VOL   30*song01_mvl/mxv
 BYTE   W03
 BYTE   VOL   31*song01_mvl/mxv
 BYTE   W02
 BYTE   VOL   31*song01_mvl/mxv
 BYTE   W01
 BYTE   VOL   32*song01_mvl/mxv
 BYTE   W02
 BYTE   VOL   32*song01_mvl/mxv
 BYTE   W03
 BYTE   VOL   33*song01_mvl/mxv
 BYTE   W01
 BYTE   VOL   33*song01_mvl/mxv
 BYTE   W02
 BYTE   VOL   34*song01_mvl/mxv
 BYTE   W01
 BYTE   VOL   34*song01_mvl/mxv
 BYTE   W02
 BYTE   VOL   34*song01_mvl/mxv
 BYTE   W03
 BYTE   VOL   34*song01_mvl/mxv
 BYTE   W01
 BYTE   VOL   34*song01_mvl/mxv
 BYTE   W02
 BYTE   VOL   34*song01_mvl/mxv
 BYTE   W01
 BYTE   VOL   34*song01_mvl/mxv
 BYTE   W02
 BYTE   VOL   35*song01_mvl/mxv
 BYTE   W03
 BYTE   VOL   36*song01_mvl/mxv
 BYTE   W01
 BYTE   VOL   36*song01_mvl/mxv
 BYTE   W02
 BYTE   VOL   37*song01_mvl/mxv
 BYTE   W01
 BYTE   VOL   37*song01_mvl/mxv
 BYTE   W02
 BYTE   VOL   37*song01_mvl/mxv
 BYTE   W01
 BYTE   VOL   37*song01_mvl/mxv
 BYTE   W02
 BYTE   VOL   37*song01_mvl/mxv
 BYTE   W03
 BYTE   VOL   37*song01_mvl/mxv
 BYTE   W01
 BYTE   VOL   38*song01_mvl/mxv
 BYTE   W02
 BYTE   VOL   38*song01_mvl/mxv
 BYTE   W01
 BYTE   VOL   39*song01_mvl/mxv
 BYTE   W02
 BYTE   VOL   39*song01_mvl/mxv
 BYTE   W03
 BYTE   VOL   40*song01_mvl/mxv
 BYTE   W01
 BYTE   VOL   40*song01_mvl/mxv
 BYTE   W02
 BYTE   VOL   40*song01_mvl/mxv
 BYTE   W01
 BYTE   VOL   40*song01_mvl/mxv
 BYTE   W02
 BYTE   PEND 
//  #07 //007   ----------------------------------------
Label_01F8FB07:
 BYTE   VOL   41*song01_mvl/mxv
 BYTE   N96  Fs3  v096
 BYTE   W06
 BYTE   VOL   41*song01_mvl/mxv
 BYTE   W03
 BYTE   VOL   40*song01_mvl/mxv
 BYTE   W03
 BYTE   VOL   40*song01_mvl/mxv
 BYTE   W03
 BYTE   VOL   40*song01_mvl/mxv
 BYTE   W03
 BYTE   VOL   39*song01_mvl/mxv
 BYTE   W03
 BYTE   VOL   38*song01_mvl/mxv
 BYTE   W03
 BYTE   VOL   37*song01_mvl/mxv
 BYTE   W03
 BYTE   VOL   37*song01_mvl/mxv
 BYTE   W03
 BYTE   VOL   37*song01_mvl/mxv
 BYTE   W03
 BYTE   VOL   36*song01_mvl/mxv
 BYTE   W03
 BYTE   VOL   35*song01_mvl/mxv
 BYTE   W03
 BYTE   VOL   34*song01_mvl/mxv
 BYTE   W03
 BYTE   VOL   34*song01_mvl/mxv
 BYTE   W03
 BYTE   VOL   34*song01_mvl/mxv
 BYTE   W03
 BYTE   VOL   34*song01_mvl/mxv
 BYTE   W03
 BYTE   VOL   33*song01_mvl/mxv
 BYTE   W03
 BYTE   VOL   32*song01_mvl/mxv
 BYTE   W03
 BYTE   VOL   32*song01_mvl/mxv
 BYTE   W03
 BYTE   VOL   31*song01_mvl/mxv
 BYTE   W03
 BYTE   VOL   30*song01_mvl/mxv
 BYTE   W03
 BYTE   VOL   29*song01_mvl/mxv
 BYTE   W06
 BYTE   VOL   29*song01_mvl/mxv
 BYTE   W03
 BYTE   VOL   28*song01_mvl/mxv
 BYTE   W03
 BYTE   VOL   28*song01_mvl/mxv
 BYTE   W03
 BYTE   VOL   27*song01_mvl/mxv
 BYTE   W03
 BYTE   VOL   27*song01_mvl/mxv
 BYTE   W03
 BYTE   VOL   27*song01_mvl/mxv
 BYTE   W03
 BYTE   VOL   27*song01_mvl/mxv
 BYTE   W03
 BYTE   VOL   26*song01_mvl/mxv
 BYTE   W03
 BYTE   PEND 
//  #07 //008   ----------------------------------------
Label_01F8FB65:
 BYTE   W96
//  #07 //009   ----------------------------------------
 BYTE   W96
//  #07 //010   ----------------------------------------
 BYTE   W96
//  #07 //011   ----------------------------------------
 BYTE   W96
//  #07 //012   ----------------------------------------
 BYTE   W96
//  #07 //013   ----------------------------------------
 BYTE   W96
//  #07 //014   ----------------------------------------
 BYTE   W96
//  #07 //015   ----------------------------------------
 BYTE   VOICE   61
 BYTE   PAN   c_v+63
 BYTE   VOL   13*song01_mvl/mxv
 BYTE   BEND   c_v+0
 BYTE   W96
//  #07 //016   ----------------------------------------
 BYTE   W12
 BYTE   N06  As3  v127
 BYTE   W06
 BYTE   Cn4
 BYTE   W06
 BYTE   N15  Dn4
 BYTE   W18
 BYTE   N06
 BYTE   W06
 BYTE   En4
 BYTE   W06
 BYTE   N30  Fn4
 BYTE   W36
 BYTE   N06
 BYTE   W06
//  #07 //017   ----------------------------------------
 BYTE   Gn4
 BYTE   W06
 BYTE   N78  An4
 BYTE   W90
//  #07 //018   ----------------------------------------
Label_01F8FB8D:
 BYTE   W12
 BYTE   N54  En4  v127
 BYTE   W54
 BYTE   N06  Dn4
 BYTE   W06
 BYTE   Cn4
 BYTE   W06
 BYTE   N12  Bn3
 BYTE   W12
 BYTE   N06
 BYTE   W06
 BYTE   PEND 
//  #07 //019   ----------------------------------------
Label_01F8FB9D:
 BYTE   N06  Cn4  v127
 BYTE   W06
 BYTE   Dn4
 BYTE   W06
 BYTE   N48  Gn3
 BYTE   W48
 BYTE   N06
 BYTE   W06
 BYTE   An3
 BYTE   W06
 BYTE   Bn3
 BYTE   W06
 BYTE   N12
 BYTE   W12
 BYTE   N06  Cn4
 BYTE   W06
 BYTE   PEND 
//  #07 //020   ----------------------------------------
 BYTE   Gn3
 BYTE   W06
 BYTE   An3
 BYTE   W06
 BYTE   TIE  En3
 BYTE   W84
//  #07 //021   ----------------------------------------
 BYTE   W84
 BYTE   EOT
 BYTE   W12
//  #07 //022   ----------------------------------------
 BYTE   PATT
  POIN2 Label_01F8FB8D
//  #07 //023   ----------------------------------------
 BYTE   PATT
  POIN2 Label_01F8FB9D
//  #07 //024   ----------------------------------------
 BYTE   N06  Gn3  v127
 BYTE   W06
 BYTE   An3
 BYTE   W06
 BYTE   Bn3
 BYTE   W06
 BYTE   Cn4
 BYTE   W06
 BYTE   Dn4
 BYTE   W06
 BYTE   N12  En4
 BYTE   W12
 BYTE   N06
 BYTE   W06
 BYTE   Fs4
 BYTE   W06
 BYTE   N12  Gn4
 BYTE   W12
 BYTE   N06  An4
 BYTE   W06
 BYTE   Fs4
 BYTE   W06
 BYTE   N12  Gn4
 BYTE   W12
 BYTE   N06
 BYTE   W06
//  #07 //025   ----------------------------------------
Label_01F8FBE6:
 BYTE   N06  An4  v127
 BYTE   W06
 BYTE   N78  Bn4
 BYTE   W90
 BYTE   PEND 
//  #07 //026   ----------------------------------------
 BYTE   W12
 BYTE   N06  Bn3
 BYTE   W06
 BYTE   Cn4
 BYTE   W06
 BYTE   Dn4
 BYTE   W06
 BYTE   N12  En4
 BYTE   W12
 BYTE   N06
 BYTE   W06
 BYTE   Fs4
 BYTE   W06
 BYTE   N12  Gn4
 BYTE   W12
 BYTE   N06  An4
 BYTE   W06
 BYTE   Fs4
 BYTE   W06
 BYTE   N12  Gn4
 BYTE   W12
 BYTE   N06
 BYTE   W06
//  #07 //027   ----------------------------------------
 BYTE   PATT
  POIN2 Label_01F8FBE6
//  #07 //028   ----------------------------------------
 BYTE   VOICE   48
 BYTE   PAN   c_v-34
 BYTE   VOL   25*song01_mvl/mxv
 BYTE   BEND   c_v+0
 BYTE   W03
 BYTE   VOL   26*song01_mvl/mxv
 BYTE   W03
 BYTE   VOL   27*song01_mvl/mxv
 BYTE   W03
 BYTE   VOL   27*song01_mvl/mxv
 BYTE   W03
 BYTE   VOL   27*song01_mvl/mxv
 BYTE   W03
 BYTE   VOL   27*song01_mvl/mxv
 BYTE   W03
 BYTE   VOL   28*song01_mvl/mxv
 BYTE   W03
 BYTE   VOL   28*song01_mvl/mxv
 BYTE   W03
 BYTE   VOL   29*song01_mvl/mxv
 BYTE   W03
 BYTE   VOL   29*song01_mvl/mxv
 BYTE   W03
 BYTE   VOL   29*song01_mvl/mxv
 BYTE   W03
 BYTE   VOL   30*song01_mvl/mxv
 BYTE   W03
 BYTE   VOL   30*song01_mvl/mxv
 BYTE   W03
 BYTE   VOL   32*song01_mvl/mxv
 BYTE   W03
 BYTE   VOL   32*song01_mvl/mxv
 BYTE   W03
 BYTE   VOL   33*song01_mvl/mxv
 BYTE   W03
 BYTE   VOL   34*song01_mvl/mxv
 BYTE   W03
 BYTE   VOL   34*song01_mvl/mxv
 BYTE   W03
 BYTE   VOL   34*song01_mvl/mxv
 BYTE   W03
 BYTE   VOL   34*song01_mvl/mxv
 BYTE   W03
 BYTE   VOL   35*song01_mvl/mxv
 BYTE   W03
 BYTE   VOL   36*song01_mvl/mxv
 BYTE   W03
 BYTE   VOL   37*song01_mvl/mxv
 BYTE   W03
 BYTE   VOL   37*song01_mvl/mxv
 BYTE   W03
 BYTE   VOL   37*song01_mvl/mxv
 BYTE   W03
 BYTE   VOL   37*song01_mvl/mxv
 BYTE   W03
 BYTE   VOL   38*song01_mvl/mxv
 BYTE   W03
 BYTE   VOL   39*song01_mvl/mxv
 BYTE   W03
 BYTE   VOL   40*song01_mvl/mxv
 BYTE   W03
 BYTE   VOL   40*song01_mvl/mxv
 BYTE   W03
 BYTE   VOL   41*song01_mvl/mxv
 BYTE   W03
 BYTE   VOL   40*song01_mvl/mxv
 BYTE   W03
//  #07 //029   ----------------------------------------
 BYTE   VOL   40*song01_mvl/mxv
 BYTE   W03
 BYTE   VOL   40*song01_mvl/mxv
 BYTE   W03
 BYTE   VOL   39*song01_mvl/mxv
 BYTE   W03
 BYTE   VOL   38*song01_mvl/mxv
 BYTE   W03
 BYTE   VOL   37*song01_mvl/mxv
 BYTE   W03
 BYTE   VOL   18*song01_mvl/mxv
 BYTE   W03
 BYTE   VOL   18*song01_mvl/mxv
 BYTE   W04
 BYTE   VOL   19*song01_mvl/mxv
 BYTE   W03
 BYTE   VOL   19*song01_mvl/mxv
 BYTE   W03
 BYTE   VOL   19*song01_mvl/mxv
 BYTE   W03
 BYTE   VOL   19*song01_mvl/mxv
 BYTE   W03
 BYTE   VOL   20*song01_mvl/mxv
 BYTE   W06
 BYTE   VOL   20*song01_mvl/mxv
 BYTE   W03
 BYTE   VOL   21*song01_mvl/mxv
 BYTE   W03
 BYTE   VOL   22*song01_mvl/mxv
 BYTE   W02
 BYTE   N48  Dn3  v096
 BYTE   W01
 BYTE   VOL   22*song01_mvl/mxv
 BYTE   W03
 BYTE   VOL   22*song01_mvl/mxv
 BYTE   W05
 BYTE   VOL   22*song01_mvl/mxv
 BYTE   W04
 BYTE   VOL   23*song01_mvl/mxv
 BYTE   W03
 BYTE   VOL   23*song01_mvl/mxv
 BYTE   W03
 BYTE   VOL   23*song01_mvl/mxv
 BYTE   W03
 BYTE   VOL   24*song01_mvl/mxv
 BYTE   W03
 BYTE   VOL   25*song01_mvl/mxv
 BYTE   W05
 BYTE   VOL   26*song01_mvl/mxv
 BYTE   W04
 BYTE   VOL   27*song01_mvl/mxv
 BYTE   W03
 BYTE   VOL   27*song01_mvl/mxv
 BYTE   W03
 BYTE   VOL   27*song01_mvl/mxv
 BYTE   W03
 BYTE   VOL   27*song01_mvl/mxv
 BYTE   W05
//  #07 //030   ----------------------------------------
 BYTE   VOL   28*song01_mvl/mxv
 BYTE   N96  En3
 BYTE   W03
 BYTE   VOL   28*song01_mvl/mxv
 BYTE   W03
 BYTE   VOL   29*song01_mvl/mxv
 BYTE   W04
 BYTE   VOL   29*song01_mvl/mxv
 BYTE   W03
 BYTE   VOL   29*song01_mvl/mxv
 BYTE   W05
 BYTE   VOL   30*song01_mvl/mxv
 BYTE   W03
 BYTE   VOL   30*song01_mvl/mxv
 BYTE   W03
 BYTE   VOL   31*song01_mvl/mxv
 BYTE   W03
 BYTE   VOL   32*song01_mvl/mxv
 BYTE   W04
 BYTE   VOL   32*song01_mvl/mxv
 BYTE   W03
 BYTE   VOL   33*song01_mvl/mxv
 BYTE   W05
 BYTE   VOL   34*song01_mvl/mxv
 BYTE   W03
 BYTE   VOL   34*song01_mvl/mxv
 BYTE   W03
 BYTE   VOL   34*song01_mvl/mxv
 BYTE   W03
 BYTE   VOL   34*song01_mvl/mxv
 BYTE   W04
 BYTE   VOL   35*song01_mvl/mxv
 BYTE   W05
 BYTE   VOL   36*song01_mvl/mxv
 BYTE   W03
 BYTE   VOL   37*song01_mvl/mxv
 BYTE   W03
 BYTE   VOL   37*song01_mvl/mxv
 BYTE   W03
 BYTE   VOL   37*song01_mvl/mxv
 BYTE   W03
 BYTE   VOL   37*song01_mvl/mxv
 BYTE   W06
 BYTE   VOL   38*song01_mvl/mxv
 BYTE   W03
 BYTE   VOL   39*song01_mvl/mxv
 BYTE   W03
 BYTE   VOL   40*song01_mvl/mxv
 BYTE   W03
 BYTE   VOL   40*song01_mvl/mxv
 BYTE   W03
 BYTE   VOL   40*song01_mvl/mxv
 BYTE   W03
 BYTE   VOL   41*song01_mvl/mxv
 BYTE   W06
//  #07 //031   ----------------------------------------
 BYTE   VOL   40*song01_mvl/mxv
 BYTE   N96  Dn3
 BYTE   W03
 BYTE   VOL   39*song01_mvl/mxv
 BYTE   W01
 BYTE   VOL   38*song01_mvl/mxv
 BYTE   W03
 BYTE   VOL   37*song01_mvl/mxv
 BYTE   W03
 BYTE   VOL   37*song01_mvl/mxv
 BYTE   W02
 BYTE   VOL   37*song01_mvl/mxv
 BYTE   W03
 BYTE   VOL   37*song01_mvl/mxv
 BYTE   W03
 BYTE   VOL   36*song01_mvl/mxv
 BYTE   W03
 BYTE   VOL   35*song01_mvl/mxv
 BYTE   W03
 BYTE   VOL   34*song01_mvl/mxv
 BYTE   W03
 BYTE   VOL   34*song01_mvl/mxv
 BYTE   W01
 BYTE   VOL   34*song01_mvl/mxv
 BYTE   W03
 BYTE   VOL   34*song01_mvl/mxv
 BYTE   W03
 BYTE   VOL   33*song01_mvl/mxv
 BYTE   W03
 BYTE   VOL   32*song01_mvl/mxv
 BYTE   W02
 BYTE   VOL   32*song01_mvl/mxv
 BYTE   W03
 BYTE   VOL   31*song01_mvl/mxv
 BYTE   W03
 BYTE   VOL   30*song01_mvl/mxv
 BYTE   W03
 BYTE   VOL   30*song01_mvl/mxv
 BYTE   W01
 BYTE   VOL   29*song01_mvl/mxv
 BYTE   W03
 BYTE   VOL   29*song01_mvl/mxv
 BYTE   W03
 BYTE   VOL   29*song01_mvl/mxv
 BYTE   W02
 BYTE   VOL   28*song01_mvl/mxv
 BYTE   W03
 BYTE   VOL   28*song01_mvl/mxv
 BYTE   W03
 BYTE   VOL   27*song01_mvl/mxv
 BYTE   W01
 BYTE   VOL   27*song01_mvl/mxv
 BYTE   W03
 BYTE   VOL   27*song01_mvl/mxv
 BYTE   W03
 BYTE   VOL   27*song01_mvl/mxv
 BYTE   W03
 BYTE   VOL   26*song01_mvl/mxv
 BYTE   W03
 BYTE   VOL   25*song01_mvl/mxv
 BYTE   W02
 BYTE   VOL   24*song01_mvl/mxv
 BYTE   W03
 BYTE   VOL   23*song01_mvl/mxv
 BYTE   W03
 BYTE   VOL   23*song01_mvl/mxv
 BYTE   W03
 BYTE   VOL   25*song01_mvl/mxv
 BYTE   W04
 BYTE   VOL   26*song01_mvl/mxv
 BYTE   W02
 BYTE   VOL   26*song01_mvl/mxv
 BYTE   W03
//  #07 //032   ----------------------------------------
 BYTE   VOICE   48
 BYTE   PAN   c_v-34
 BYTE   VOL   27*song01_mvl/mxv
 BYTE   BEND   c_v+0
 BYTE   N96  Gn2
 BYTE   W01
 BYTE   VOL   27*song01_mvl/mxv
 BYTE   W02
 BYTE   VOL   27*song01_mvl/mxv
 BYTE   W01
 BYTE   VOL   27*song01_mvl/mxv
 BYTE   W02
 BYTE   VOL   27*song01_mvl/mxv
 BYTE   W01
 BYTE   VOL   27*song01_mvl/mxv
 BYTE   W02
 BYTE   VOL   27*song01_mvl/mxv
 BYTE   W01
 BYTE   VOL   27*song01_mvl/mxv
 BYTE   W02
 BYTE   VOL   28*song01_mvl/mxv
 BYTE   W01
 BYTE   VOL   28*song01_mvl/mxv
 BYTE   W02
 BYTE   VOL   28*song01_mvl/mxv
 BYTE   W01
 BYTE   VOL   28*song01_mvl/mxv
 BYTE   W02
 BYTE   VOL   29*song01_mvl/mxv
 BYTE   W01
 BYTE   VOL   29*song01_mvl/mxv
 BYTE   W02
 BYTE   VOL   29*song01_mvl/mxv
 BYTE   W01
 BYTE   VOL   29*song01_mvl/mxv
 BYTE   W02
 BYTE   VOL   29*song01_mvl/mxv
 BYTE   W04
 BYTE   VOL   30*song01_mvl/mxv
 BYTE   W02
 BYTE   VOL   30*song01_mvl/mxv
 BYTE   W01
 BYTE   VOL   30*song01_mvl/mxv
 BYTE   W02
 BYTE   VOL   30*song01_mvl/mxv
 BYTE   W01
 BYTE   VOL   31*song01_mvl/mxv
 BYTE   W02
 BYTE   VOL   31*song01_mvl/mxv
 BYTE   W01
 BYTE   VOL   32*song01_mvl/mxv
 BYTE   W02
 BYTE   VOL   32*song01_mvl/mxv
 BYTE   W01
 BYTE   VOL   32*song01_mvl/mxv
 BYTE   W02
 BYTE   VOL   32*song01_mvl/mxv
 BYTE   W01
 BYTE   VOL   33*song01_mvl/mxv
 BYTE   W02
 BYTE   VOL   33*song01_mvl/mxv
 BYTE   W04
 BYTE   VOL   34*song01_mvl/mxv
 BYTE   W02
 BYTE   VOL   34*song01_mvl/mxv
 BYTE   W01
 BYTE   VOL   34*song01_mvl/mxv
 BYTE   W02
 BYTE   VOL   34*song01_mvl/mxv
 BYTE   W01
 BYTE   VOL   34*song01_mvl/mxv
 BYTE   W02
 BYTE   VOL   34*song01_mvl/mxv
 BYTE   W01
 BYTE   VOL   34*song01_mvl/mxv
 BYTE   W02
 BYTE   VOL   34*song01_mvl/mxv
 BYTE   W01
 BYTE   VOL   35*song01_mvl/mxv
 BYTE   W02
 BYTE   VOL   35*song01_mvl/mxv
 BYTE   W01
 BYTE   VOL   35*song01_mvl/mxv
 BYTE   W02
 BYTE   VOL   36*song01_mvl/mxv
 BYTE   W01
 BYTE   VOL   36*song01_mvl/mxv
 BYTE   W02
 BYTE   VOL   37*song01_mvl/mxv
 BYTE   W01
 BYTE   VOL   37*song01_mvl/mxv
 BYTE   W02
 BYTE   VOL   37*song01_mvl/mxv
 BYTE   W01
 BYTE   VOL   37*song01_mvl/mxv
 BYTE   W02
 BYTE   VOL   37*song01_mvl/mxv
 BYTE   W01
 BYTE   VOL   37*song01_mvl/mxv
 BYTE   W02
 BYTE   VOL   37*song01_mvl/mxv
 BYTE   W01
 BYTE   VOL   37*song01_mvl/mxv
 BYTE   W03
 BYTE   VOL   38*song01_mvl/mxv
 BYTE   W02
 BYTE   VOL   38*song01_mvl/mxv
 BYTE   W03
 BYTE   VOL   39*song01_mvl/mxv
 BYTE   W03
 BYTE   VOL   40*song01_mvl/mxv
 BYTE   W01
 BYTE   VOL   40*song01_mvl/mxv
 BYTE   W02
 BYTE   VOL   40*song01_mvl/mxv
 BYTE   W01
 BYTE   VOL   40*song01_mvl/mxv
 BYTE   W02
//  #07 //033   ----------------------------------------
 BYTE   VOL   40*song01_mvl/mxv
 BYTE   N96  Dn3
 BYTE   W01
 BYTE   VOL   41*song01_mvl/mxv
 BYTE   W02
 BYTE   VOL   41*song01_mvl/mxv
 BYTE   W01
 BYTE   VOL   41*song01_mvl/mxv
 BYTE   W02
 BYTE   VOL   40*song01_mvl/mxv
 BYTE   W01
 BYTE   VOL   39*song01_mvl/mxv
 BYTE   W02
 BYTE   VOL   38*song01_mvl/mxv
 BYTE   W01
 BYTE   VOL   38*song01_mvl/mxv
 BYTE   W03
 BYTE   VOL   37*song01_mvl/mxv
 BYTE   W02
 BYTE   VOL   37*song01_mvl/mxv
 BYTE   W01
 BYTE   VOL   37*song01_mvl/mxv
 BYTE   W02
 BYTE   VOL   37*song01_mvl/mxv
 BYTE   W01
 BYTE   VOL   37*song01_mvl/mxv
 BYTE   W03
 BYTE   VOL   37*song01_mvl/mxv
 BYTE   W02
 BYTE   VOL   37*song01_mvl/mxv
 BYTE   W03
 BYTE   VOL   36*song01_mvl/mxv
 BYTE   W01
 BYTE   VOL   35*song01_mvl/mxv
 BYTE   W02
 BYTE   VOL   35*song01_mvl/mxv
 BYTE   W01
 BYTE   VOL   34*song01_mvl/mxv
 BYTE   W02
 BYTE   VOL   34*song01_mvl/mxv
 BYTE   W01
 BYTE   VOL   34*song01_mvl/mxv
 BYTE   W02
 BYTE   VOL   34*song01_mvl/mxv
 BYTE   W01
 BYTE   VOL   34*song01_mvl/mxv
 BYTE   W02
 BYTE   VOL   34*song01_mvl/mxv
 BYTE   W01
 BYTE   VOL   34*song01_mvl/mxv
 BYTE   W03
 BYTE   VOL   33*song01_mvl/mxv
 BYTE   W02
 BYTE   VOL   33*song01_mvl/mxv
 BYTE   W01
 BYTE   VOL   32*song01_mvl/mxv
 BYTE   W02
 BYTE   VOL   32*song01_mvl/mxv
 BYTE   W01
 BYTE   VOL   32*song01_mvl/mxv
 BYTE   W03
 BYTE   VOL   31*song01_mvl/mxv
 BYTE   W02
 BYTE   VOL   31*song01_mvl/mxv
 BYTE   W01
 BYTE   VOL   30*song01_mvl/mxv
 BYTE   W02
 BYTE   VOL   30*song01_mvl/mxv
 BYTE   W01
 BYTE   VOL   30*song01_mvl/mxv
 BYTE   W02
 BYTE   VOL   30*song01_mvl/mxv
 BYTE   W01
 BYTE   VOL   29*song01_mvl/mxv
 BYTE   W02
 BYTE   VOL   29*song01_mvl/mxv
 BYTE   W01
 BYTE   VOL   29*song01_mvl/mxv
 BYTE   W02
 BYTE   VOL   29*song01_mvl/mxv
 BYTE   W01
 BYTE   VOL   29*song01_mvl/mxv
 BYTE   W02
 BYTE   VOL   28*song01_mvl/mxv
 BYTE   W01
 BYTE   VOL   28*song01_mvl/mxv
 BYTE   W03
 BYTE   VOL   28*song01_mvl/mxv
 BYTE   W02
 BYTE   VOL   28*song01_mvl/mxv
 BYTE   W01
 BYTE   VOL   27*song01_mvl/mxv
 BYTE   W02
 BYTE   VOL   27*song01_mvl/mxv
 BYTE   W01
 BYTE   VOL   27*song01_mvl/mxv
 BYTE   W03
 BYTE   VOL   27*song01_mvl/mxv
 BYTE   W02
 BYTE   VOL   27*song01_mvl/mxv
 BYTE   W03
 BYTE   VOL   27*song01_mvl/mxv
 BYTE   W01
 BYTE   VOL   26*song01_mvl/mxv
 BYTE   W02
 BYTE   VOL   26*song01_mvl/mxv
 BYTE   W01
 BYTE   VOL   25*song01_mvl/mxv
 BYTE   W02
 BYTE   VOL   25*song01_mvl/mxv
 BYTE   W01
 BYTE   VOL   24*song01_mvl/mxv
 BYTE   W02
//  #07 //034   ----------------------------------------
 BYTE   PATT
  POIN2 Label_01F8FA5E
//  #07 //035   ----------------------------------------
 BYTE   PATT
  POIN2 Label_01F8FB07
//  #07 //036   ----------------------------------------
 BYTE   GoTo
  POIN2 Label_01F8FB65
 BYTE   FINE

//**************** Track 8 (Midi-Chn.7) ****************//

song01_008:
//  #08 //000   ----------------------------------------
 BYTE   KEYSH   song01_key+0
 BYTE   MODT 0
 BYTE   LFOS 44
 BYTE   VOICE   48
 BYTE   PAN   c_v+36
 BYTE   VOL   41*song01_mvl/mxv
 BYTE   BEND   c_v+0
 BYTE   W90
 BYTE   VOL   39*song01_mvl/mxv
 BYTE   W01
 BYTE   VOL   40*song01_mvl/mxv
 BYTE   W02
 BYTE   VOL   40*song01_mvl/mxv
 BYTE   W01
 BYTE   VOL   40*song01_mvl/mxv
 BYTE   W02
//  #08 //001   ----------------------------------------
 BYTE   VOL   40*song01_mvl/mxv
 BYTE   N96  Dn2  v096
 BYTE   W03
 BYTE   VOL   40*song01_mvl/mxv
 BYTE   W03
 BYTE   VOL   39*song01_mvl/mxv
 BYTE   W03
 BYTE   VOL   38*song01_mvl/mxv
 BYTE   W03
 BYTE   VOL   37*song01_mvl/mxv
 BYTE   W03
 BYTE   VOL   37*song01_mvl/mxv
 BYTE   W01
 BYTE   VOL   37*song01_mvl/mxv
 BYTE   W05
 BYTE   VOL   37*song01_mvl/mxv
 BYTE   W03
 BYTE   VOL   36*song01_mvl/mxv
 BYTE   W03
 BYTE   VOL   35*song01_mvl/mxv
 BYTE   W03
 BYTE   VOL   34*song01_mvl/mxv
 BYTE   W03
 BYTE   VOL   34*song01_mvl/mxv
 BYTE   W03
 BYTE   VOL   34*song01_mvl/mxv
 BYTE   W01
 BYTE   VOL   34*song01_mvl/mxv
 BYTE   W05
 BYTE   VOL   33*song01_mvl/mxv
 BYTE   W03
 BYTE   VOL   32*song01_mvl/mxv
 BYTE   W01
 BYTE   VOL   32*song01_mvl/mxv
 BYTE   W03
 BYTE   VOL   31*song01_mvl/mxv
 BYTE   W05
 BYTE   VOL   30*song01_mvl/mxv
 BYTE   W03
 BYTE   VOL   30*song01_mvl/mxv
 BYTE   W01
 BYTE   VOL   29*song01_mvl/mxv
 BYTE   W05
 BYTE   VOL   29*song01_mvl/mxv
 BYTE   W03
 BYTE   VOL   29*song01_mvl/mxv
 BYTE   W01
 BYTE   VOL   28*song01_mvl/mxv
 BYTE   W03
 BYTE   VOL   28*song01_mvl/mxv
 BYTE   W05
 BYTE   VOL   27*song01_mvl/mxv
 BYTE   W01
 BYTE   VOL   27*song01_mvl/mxv
 BYTE   W03
 BYTE   VOL   27*song01_mvl/mxv
 BYTE   W03
 BYTE   VOL   27*song01_mvl/mxv
 BYTE   W05
 BYTE   VOL   26*song01_mvl/mxv
 BYTE   W01
 BYTE   VOL   25*song01_mvl/mxv
 BYTE   W03
 BYTE   VOL   24*song01_mvl/mxv
 BYTE   W02
 BYTE   VOL   24*song01_mvl/mxv
 BYTE   W03
//  #08 //002   ----------------------------------------
 BYTE   N96  Cn2
 BYTE   W01
 BYTE   VOL   25*song01_mvl/mxv
 BYTE   W03
 BYTE   VOL   26*song01_mvl/mxv
 BYTE   W02
 BYTE   VOL   27*song01_mvl/mxv
 BYTE   W04
 BYTE   VOL   27*song01_mvl/mxv
 BYTE   W03
 BYTE   VOL   27*song01_mvl/mxv
 BYTE   W03
 BYTE   VOL   27*song01_mvl/mxv
 BYTE   W03
 BYTE   VOL   28*song01_mvl/mxv
 BYTE   W03
 BYTE   VOL   28*song01_mvl/mxv
 BYTE   W03
 BYTE   VOL   29*song01_mvl/mxv
 BYTE   W02
 BYTE   VOL   29*song01_mvl/mxv
 BYTE   W04
 BYTE   VOL   29*song01_mvl/mxv
 BYTE   W03
 BYTE   VOL   30*song01_mvl/mxv
 BYTE   W02
 BYTE   VOL   30*song01_mvl/mxv
 BYTE   W04
 BYTE   VOL   31*song01_mvl/mxv
 BYTE   W03
 BYTE   VOL   32*song01_mvl/mxv
 BYTE   W03
 BYTE   VOL   32*song01_mvl/mxv
 BYTE   W02
 BYTE   VOL   33*song01_mvl/mxv
 BYTE   W04
 BYTE   VOL   34*song01_mvl/mxv
 BYTE   W03
 BYTE   VOL   34*song01_mvl/mxv
 BYTE   W02
 BYTE   VOL   34*song01_mvl/mxv
 BYTE   W04
 BYTE   VOL   34*song01_mvl/mxv
 BYTE   W03
 BYTE   VOL   35*song01_mvl/mxv
 BYTE   W02
 BYTE   VOL   36*song01_mvl/mxv
 BYTE   W04
 BYTE   VOL   37*song01_mvl/mxv
 BYTE   W03
 BYTE   VOL   37*song01_mvl/mxv
 BYTE   W03
 BYTE   VOL   37*song01_mvl/mxv
 BYTE   W02
 BYTE   VOL   37*song01_mvl/mxv
 BYTE   W04
 BYTE   VOL   38*song01_mvl/mxv
 BYTE   W03
 BYTE   VOL   39*song01_mvl/mxv
 BYTE   W02
 BYTE   VOL   40*song01_mvl/mxv
 BYTE   W04
 BYTE   VOL   40*song01_mvl/mxv
 BYTE   W02
 BYTE   VOL   40*song01_mvl/mxv
 BYTE   W03
//  #08 //003   ----------------------------------------
 BYTE   VOL   40*song01_mvl/mxv
 BYTE   N96  Dn1
 BYTE   W03
 BYTE   VOL   39*song01_mvl/mxv
 BYTE   W01
 BYTE   VOL   38*song01_mvl/mxv
 BYTE   W03
 BYTE   VOL   37*song01_mvl/mxv
 BYTE   W03
 BYTE   VOL   37*song01_mvl/mxv
 BYTE   W02
 BYTE   VOL   37*song01_mvl/mxv
 BYTE   W03
 BYTE   VOL   37*song01_mvl/mxv
 BYTE   W03
 BYTE   VOL   36*song01_mvl/mxv
 BYTE   W03
 BYTE   VOL   35*song01_mvl/mxv
 BYTE   W03
 BYTE   VOL   34*song01_mvl/mxv
 BYTE   W03
 BYTE   VOL   34*song01_mvl/mxv
 BYTE   W01
 BYTE   VOL   34*song01_mvl/mxv
 BYTE   W03
 BYTE   VOL   34*song01_mvl/mxv
 BYTE   W03
 BYTE   VOL   33*song01_mvl/mxv
 BYTE   W03
 BYTE   VOL   32*song01_mvl/mxv
 BYTE   W02
 BYTE   VOL   32*song01_mvl/mxv
 BYTE   W03
 BYTE   VOL   31*song01_mvl/mxv
 BYTE   W03
 BYTE   VOL   30*song01_mvl/mxv
 BYTE   W03
 BYTE   VOL   30*song01_mvl/mxv
 BYTE   W01
 BYTE   VOL   29*song01_mvl/mxv
 BYTE   W03
 BYTE   VOL   29*song01_mvl/mxv
 BYTE   W03
 BYTE   VOL   29*song01_mvl/mxv
 BYTE   W02
 BYTE   VOL   28*song01_mvl/mxv
 BYTE   W03
 BYTE   VOL   28*song01_mvl/mxv
 BYTE   W03
 BYTE   VOL   27*song01_mvl/mxv
 BYTE   W01
 BYTE   VOL   27*song01_mvl/mxv
 BYTE   W03
 BYTE   VOL   27*song01_mvl/mxv
 BYTE   W03
 BYTE   VOL   27*song01_mvl/mxv
 BYTE   W03
 BYTE   VOL   26*song01_mvl/mxv
 BYTE   W03
 BYTE   VOL   25*song01_mvl/mxv
 BYTE   W02
 BYTE   VOL   24*song01_mvl/mxv
 BYTE   W03
 BYTE   VOL   23*song01_mvl/mxv
 BYTE   W03
 BYTE   VOL   23*song01_mvl/mxv
 BYTE   W03
 BYTE   VOL   23*song01_mvl/mxv
 BYTE   W03
 BYTE   VOL   23*song01_mvl/mxv
 BYTE   W01
 BYTE   VOL   23*song01_mvl/mxv
 BYTE   W02
 BYTE   VOL   23*song01_mvl/mxv
 BYTE   W03
//  #08 //004   ----------------------------------------
 BYTE   VOICE   48
 BYTE   PAN   c_v+36
 BYTE   VOL   41*song01_mvl/mxv
 BYTE   BEND   c_v+0
 BYTE   N96  Gn1
 BYTE   W01
 BYTE   VOL   25*song01_mvl/mxv
 BYTE   W02
 BYTE   VOL   25*song01_mvl/mxv
 BYTE   W01
 BYTE   VOL   25*song01_mvl/mxv
 BYTE   W02
 BYTE   VOL   26*song01_mvl/mxv
 BYTE   W01
 BYTE   VOL   27*song01_mvl/mxv
 BYTE   W02
 BYTE   VOL   27*song01_mvl/mxv
 BYTE   W01
 BYTE   VOL   27*song01_mvl/mxv
 BYTE   W02
 BYTE   VOL   27*song01_mvl/mxv
 BYTE   W01
 BYTE   VOL   27*song01_mvl/mxv
 BYTE   W02
 BYTE   VOL   27*song01_mvl/mxv
 BYTE   W01
 BYTE   VOL   27*song01_mvl/mxv
 BYTE   W02
 BYTE   VOL   27*song01_mvl/mxv
 BYTE   W01
 BYTE   VOL   27*song01_mvl/mxv
 BYTE   W02
 BYTE   VOL   28*song01_mvl/mxv
 BYTE   W01
 BYTE   VOL   28*song01_mvl/mxv
 BYTE   W02
 BYTE   VOL   28*song01_mvl/mxv
 BYTE   W03
 BYTE   VOL   29*song01_mvl/mxv
 BYTE   W01
 BYTE   VOL   29*song01_mvl/mxv
 BYTE   W02
 BYTE   VOL   29*song01_mvl/mxv
 BYTE   W01
 BYTE   VOL   29*song01_mvl/mxv
 BYTE   W02
 BYTE   VOL   29*song01_mvl/mxv
 BYTE   W01
 BYTE   VOL   29*song01_mvl/mxv
 BYTE   W03
 BYTE   VOL   30*song01_mvl/mxv
 BYTE   W02
 BYTE   VOL   30*song01_mvl/mxv
 BYTE   W01
 BYTE   VOL   30*song01_mvl/mxv
 BYTE   W02
 BYTE   VOL   31*song01_mvl/mxv
 BYTE   W01
 BYTE   VOL   31*song01_mvl/mxv
 BYTE   W05
 BYTE   VOL   32*song01_mvl/mxv
 BYTE   W01
 BYTE   VOL   32*song01_mvl/mxv
 BYTE   W02
 BYTE   VOL   32*song01_mvl/mxv
 BYTE   W01
 BYTE   VOL   33*song01_mvl/mxv
 BYTE   W02
 BYTE   VOL   33*song01_mvl/mxv
 BYTE   W01
 BYTE   VOL   34*song01_mvl/mxv
 BYTE   W02
 BYTE   VOL   34*song01_mvl/mxv
 BYTE   W01
 BYTE   VOL   34*song01_mvl/mxv
 BYTE   W02
 BYTE   VOL   34*song01_mvl/mxv
 BYTE   W01
 BYTE   VOL   34*song01_mvl/mxv
 BYTE   W02
 BYTE   VOL   34*song01_mvl/mxv
 BYTE   W01
 BYTE   VOL   34*song01_mvl/mxv
 BYTE   W02
 BYTE   VOL   34*song01_mvl/mxv
 BYTE   W01
 BYTE   VOL   34*song01_mvl/mxv
 BYTE   W02
 BYTE   VOL   35*song01_mvl/mxv
 BYTE   W01
 BYTE   VOL   36*song01_mvl/mxv
 BYTE   W02
 BYTE   VOL   36*song01_mvl/mxv
 BYTE   W01
 BYTE   VOL   37*song01_mvl/mxv
 BYTE   W02
 BYTE   VOL   37*song01_mvl/mxv
 BYTE   W01
 BYTE   VOL   37*song01_mvl/mxv
 BYTE   W02
 BYTE   VOL   37*song01_mvl/mxv
 BYTE   W01
 BYTE   VOL   37*song01_mvl/mxv
 BYTE   W02
 BYTE   VOL   37*song01_mvl/mxv
 BYTE   W01
 BYTE   VOL   37*song01_mvl/mxv
 BYTE   W02
 BYTE   VOL   37*song01_mvl/mxv
 BYTE   W03
 BYTE   VOL   38*song01_mvl/mxv
 BYTE   W03
 BYTE   VOL   39*song01_mvl/mxv
 BYTE   W01
 BYTE   VOL   39*song01_mvl/mxv
 BYTE   W02
 BYTE   VOL   40*song01_mvl/mxv
 BYTE   W01
 BYTE   VOL   40*song01_mvl/mxv
 BYTE   W02
//  #08 //005   ----------------------------------------
 BYTE   VOL   40*song01_mvl/mxv
 BYTE   N96  An1
 BYTE   W01
 BYTE   VOL   40*song01_mvl/mxv
 BYTE   W03
 BYTE   VOL   40*song01_mvl/mxv
 BYTE   W02
 BYTE   VOL   40*song01_mvl/mxv
 BYTE   W01
 BYTE   VOL   39*song01_mvl/mxv
 BYTE   W02
 BYTE   VOL   38*song01_mvl/mxv
 BYTE   W01
 BYTE   VOL   38*song01_mvl/mxv
 BYTE   W03
 BYTE   VOL   37*song01_mvl/mxv
 BYTE   W02
 BYTE   VOL   37*song01_mvl/mxv
 BYTE   W01
 BYTE   VOL   37*song01_mvl/mxv
 BYTE   W02
 BYTE   VOL   37*song01_mvl/mxv
 BYTE   W01
 BYTE   VOL   37*song01_mvl/mxv
 BYTE   W03
 BYTE   VOL   37*song01_mvl/mxv
 BYTE   W02
 BYTE   VOL   37*song01_mvl/mxv
 BYTE   W03
 BYTE   VOL   36*song01_mvl/mxv
 BYTE   W01
 BYTE   VOL   35*song01_mvl/mxv
 BYTE   W02
 BYTE   VOL   35*song01_mvl/mxv
 BYTE   W01
 BYTE   VOL   34*song01_mvl/mxv
 BYTE   W02
 BYTE   VOL   34*song01_mvl/mxv
 BYTE   W01
 BYTE   VOL   34*song01_mvl/mxv
 BYTE   W02
 BYTE   VOL   34*song01_mvl/mxv
 BYTE   W01
 BYTE   VOL   34*song01_mvl/mxv
 BYTE   W02
 BYTE   VOL   34*song01_mvl/mxv
 BYTE   W01
 BYTE   VOL   34*song01_mvl/mxv
 BYTE   W03
 BYTE   VOL   33*song01_mvl/mxv
 BYTE   W02
 BYTE   VOL   33*song01_mvl/mxv
 BYTE   W01
 BYTE   VOL   32*song01_mvl/mxv
 BYTE   W02
 BYTE   VOL   32*song01_mvl/mxv
 BYTE   W01
 BYTE   VOL   32*song01_mvl/mxv
 BYTE   W03
 BYTE   VOL   31*song01_mvl/mxv
 BYTE   W02
 BYTE   VOL   31*song01_mvl/mxv
 BYTE   W01
 BYTE   VOL   30*song01_mvl/mxv
 BYTE   W02
 BYTE   VOL   30*song01_mvl/mxv
 BYTE   W01
 BYTE   VOL   30*song01_mvl/mxv
 BYTE   W02
 BYTE   VOL   30*song01_mvl/mxv
 BYTE   W01
 BYTE   VOL   29*song01_mvl/mxv
 BYTE   W02
 BYTE   VOL   29*song01_mvl/mxv
 BYTE   W01
 BYTE   VOL   29*song01_mvl/mxv
 BYTE   W02
 BYTE   VOL   29*song01_mvl/mxv
 BYTE   W01
 BYTE   VOL   29*song01_mvl/mxv
 BYTE   W02
 BYTE   VOL   28*song01_mvl/mxv
 BYTE   W01
 BYTE   VOL   28*song01_mvl/mxv
 BYTE   W03
 BYTE   VOL   28*song01_mvl/mxv
 BYTE   W02
 BYTE   VOL   28*song01_mvl/mxv
 BYTE   W01
 BYTE   VOL   27*song01_mvl/mxv
 BYTE   W02
 BYTE   VOL   27*song01_mvl/mxv
 BYTE   W01
 BYTE   VOL   27*song01_mvl/mxv
 BYTE   W03
 BYTE   VOL   27*song01_mvl/mxv
 BYTE   W02
 BYTE   VOL   27*song01_mvl/mxv
 BYTE   W03
 BYTE   VOL   27*song01_mvl/mxv
 BYTE   W01
 BYTE   VOL   26*song01_mvl/mxv
 BYTE   W02
 BYTE   VOL   26*song01_mvl/mxv
 BYTE   W01
 BYTE   VOL   25*song01_mvl/mxv
 BYTE   W02
 BYTE   VOL   25*song01_mvl/mxv
 BYTE   W01
 BYTE   VOL   24*song01_mvl/mxv
 BYTE   W02
//  #08 //006   ----------------------------------------
 BYTE   VOL   23*song01_mvl/mxv
 BYTE   N96  Cn2
 BYTE   W01
 BYTE   VOL   23*song01_mvl/mxv
 BYTE   W02
 BYTE   VOL   24*song01_mvl/mxv
 BYTE   W01
 BYTE   VOL   24*song01_mvl/mxv
 BYTE   W02
 BYTE   VOL   25*song01_mvl/mxv
 BYTE   W03
 BYTE   VOL   26*song01_mvl/mxv
 BYTE   W01
 BYTE   VOL   26*song01_mvl/mxv
 BYTE   W02
 BYTE   VOL   27*song01_mvl/mxv
 BYTE   W01
 BYTE   VOL   27*song01_mvl/mxv
 BYTE   W02
 BYTE   VOL   27*song01_mvl/mxv
 BYTE   W01
 BYTE   VOL   27*song01_mvl/mxv
 BYTE   W02
 BYTE   VOL   27*song01_mvl/mxv
 BYTE   W01
 BYTE   VOL   27*song01_mvl/mxv
 BYTE   W02
 BYTE   VOL   27*song01_mvl/mxv
 BYTE   W01
 BYTE   VOL   28*song01_mvl/mxv
 BYTE   W02
 BYTE   VOL   28*song01_mvl/mxv
 BYTE   W01
 BYTE   VOL   28*song01_mvl/mxv
 BYTE   W02
 BYTE   VOL   28*song01_mvl/mxv
 BYTE   W03
 BYTE   VOL   29*song01_mvl/mxv
 BYTE   W01
 BYTE   VOL   29*song01_mvl/mxv
 BYTE   W02
 BYTE   VOL   29*song01_mvl/mxv
 BYTE   W01
 BYTE   VOL   29*song01_mvl/mxv
 BYTE   W02
 BYTE   VOL   29*song01_mvl/mxv
 BYTE   W03
 BYTE   VOL   30*song01_mvl/mxv
 BYTE   W01
 BYTE   VOL   30*song01_mvl/mxv
 BYTE   W03
 BYTE   VOL   31*song01_mvl/mxv
 BYTE   W02
 BYTE   VOL   31*song01_mvl/mxv
 BYTE   W01
 BYTE   VOL   32*song01_mvl/mxv
 BYTE   W02
 BYTE   VOL   32*song01_mvl/mxv
 BYTE   W03
 BYTE   VOL   33*song01_mvl/mxv
 BYTE   W01
 BYTE   VOL   33*song01_mvl/mxv
 BYTE   W02
 BYTE   VOL   34*song01_mvl/mxv
 BYTE   W01
 BYTE   VOL   34*song01_mvl/mxv
 BYTE   W02
 BYTE   VOL   34*song01_mvl/mxv
 BYTE   W03
 BYTE   VOL   34*song01_mvl/mxv
 BYTE   W01
 BYTE   VOL   34*song01_mvl/mxv
 BYTE   W02
 BYTE   VOL   34*song01_mvl/mxv
 BYTE   W01
 BYTE   VOL   34*song01_mvl/mxv
 BYTE   W02
 BYTE   VOL   35*song01_mvl/mxv
 BYTE   W03
 BYTE   VOL   36*song01_mvl/mxv
 BYTE   W01
 BYTE   VOL   36*song01_mvl/mxv
 BYTE   W02
 BYTE   VOL   37*song01_mvl/mxv
 BYTE   W01
 BYTE   VOL   37*song01_mvl/mxv
 BYTE   W02
 BYTE   VOL   37*song01_mvl/mxv
 BYTE   W01
 BYTE   VOL   37*song01_mvl/mxv
 BYTE   W02
 BYTE   VOL   37*song01_mvl/mxv
 BYTE   W03
 BYTE   VOL   37*song01_mvl/mxv
 BYTE   W01
 BYTE   VOL   38*song01_mvl/mxv
 BYTE   W02
 BYTE   VOL   38*song01_mvl/mxv
 BYTE   W01
 BYTE   VOL   39*song01_mvl/mxv
 BYTE   W02
 BYTE   VOL   39*song01_mvl/mxv
 BYTE   W03
 BYTE   VOL   40*song01_mvl/mxv
 BYTE   W01
 BYTE   VOL   40*song01_mvl/mxv
 BYTE   W02
 BYTE   VOL   40*song01_mvl/mxv
 BYTE   W01
 BYTE   VOL   40*song01_mvl/mxv
 BYTE   W02
//  #08 //007   ----------------------------------------
 BYTE   VOL   41*song01_mvl/mxv
 BYTE   N96  Dn2
 BYTE   W06
 BYTE   VOL   41*song01_mvl/mxv
 BYTE   W03
 BYTE   VOL   40*song01_mvl/mxv
 BYTE   W03
 BYTE   VOL   40*song01_mvl/mxv
 BYTE   W03
 BYTE   VOL   40*song01_mvl/mxv
 BYTE   W03
 BYTE   VOL   39*song01_mvl/mxv
 BYTE   W03
 BYTE   VOL   38*song01_mvl/mxv
 BYTE   W03
 BYTE   VOL   37*song01_mvl/mxv
 BYTE   W03
 BYTE   VOL   37*song01_mvl/mxv
 BYTE   W03
 BYTE   VOL   37*song01_mvl/mxv
 BYTE   W03
 BYTE   VOL   36*song01_mvl/mxv
 BYTE   W03
 BYTE   VOL   35*song01_mvl/mxv
 BYTE   W03
 BYTE   VOL   34*song01_mvl/mxv
 BYTE   W03
 BYTE   VOL   34*song01_mvl/mxv
 BYTE   W03
 BYTE   VOL   34*song01_mvl/mxv
 BYTE   W03
 BYTE   VOL   34*song01_mvl/mxv
 BYTE   W03
 BYTE   VOL   33*song01_mvl/mxv
 BYTE   W03
 BYTE   VOL   32*song01_mvl/mxv
 BYTE   W03
 BYTE   VOL   32*song01_mvl/mxv
 BYTE   W03
 BYTE   VOL   31*song01_mvl/mxv
 BYTE   W03
 BYTE   VOL   30*song01_mvl/mxv
 BYTE   W03
 BYTE   VOL   29*song01_mvl/mxv
 BYTE   W06
 BYTE   VOL   29*song01_mvl/mxv
 BYTE   W03
 BYTE   VOL   28*song01_mvl/mxv
 BYTE   W03
 BYTE   VOL   28*song01_mvl/mxv
 BYTE   W03
 BYTE   VOL   27*song01_mvl/mxv
 BYTE   W03
 BYTE   VOL   27*song01_mvl/mxv
 BYTE   W03
 BYTE   VOL   27*song01_mvl/mxv
 BYTE   W03
 BYTE   VOL   27*song01_mvl/mxv
 BYTE   W03
 BYTE   VOL   26*song01_mvl/mxv
 BYTE   W03
//  #08 //008   ----------------------------------------
Label_01F902BD:
 BYTE   VOL   26*song01_mvl/mxv
 BYTE   W96
//  #08 //009   ----------------------------------------
 BYTE   W96
//  #08 //010   ----------------------------------------
 BYTE   W96
//  #08 //011   ----------------------------------------
 BYTE   W96
//  #08 //012   ----------------------------------------
 BYTE   W96
//  #08 //013   ----------------------------------------
 BYTE   W96
//  #08 //014   ----------------------------------------
 BYTE   W96
//  #08 //015   ----------------------------------------
 BYTE   VOICE   61
 BYTE   PAN   c_v-64
 BYTE   VOL   10*song01_mvl/mxv
 BYTE   BEND   c_v+0
 BYTE   W96
//  #08 //016   ----------------------------------------
 BYTE   W24
 BYTE   N06  As3  v127
 BYTE   W06
 BYTE   Cn4
 BYTE   W06
 BYTE   N15  Dn4
 BYTE   W18
 BYTE   N06
 BYTE   W06
 BYTE   En4
 BYTE   W06
 BYTE   N30  Fn4
 BYTE   W30
//  #08 //017   ----------------------------------------
 BYTE   W06
 BYTE   N06
 BYTE   W06
 BYTE   Gn4
 BYTE   W06
 BYTE   N78  An4
 BYTE   W78
//  #08 //018   ----------------------------------------
Label_01F902E8:
 BYTE   W24
 BYTE   N54  En4  v127
 BYTE   W54
 BYTE   N06  Dn4
 BYTE   W06
 BYTE   Cn4
 BYTE   W06
 BYTE   N12  Bn3
 BYTE   W06
 BYTE   PEND 
//  #08 //019   ----------------------------------------
Label_01F902F6:
 BYTE   W06
 BYTE   N06  Bn3  v127
 BYTE   W06
 BYTE   Cn4
 BYTE   W06
 BYTE   Dn4
 BYTE   W06
 BYTE   N48  Gn3
 BYTE   W48
 BYTE   N06
 BYTE   W06
 BYTE   An3
 BYTE   W06
 BYTE   Bn3
 BYTE   W06
 BYTE   N12
 BYTE   W06
 BYTE   PEND 
//  #08 //020   ----------------------------------------
 BYTE   W06
 BYTE   N06  Cn4
 BYTE   W06
 BYTE   Gn3
 BYTE   W06
 BYTE   An3
 BYTE   W06
 BYTE   TIE  En3
 BYTE   W72
//  #08 //021   ----------------------------------------
 BYTE   W96
//  #08 //022   ----------------------------------------
 BYTE   EOT
//  #08 //023   ----------------------------------------
 BYTE   PATT
  POIN2 Label_01F902E8
//  #08 //024   ----------------------------------------
 BYTE   PATT
  POIN2 Label_01F902F6
//  #08 //025   ----------------------------------------
 BYTE   W06
 BYTE   N06  Cn4  v127
 BYTE   W06
 BYTE   Gn3
 BYTE   W06
 BYTE   An3
 BYTE   W06
 BYTE   Bn3
 BYTE   W06
 BYTE   Cn4
 BYTE   W06
 BYTE   Dn4
 BYTE   W06
 BYTE   N12  En4
 BYTE   W12
 BYTE   N06
 BYTE   W06
 BYTE   Fs4
 BYTE   W06
 BYTE   N12  Gn4
 BYTE   W12
 BYTE   N06  An4
 BYTE   W06
 BYTE   Fs4
 BYTE   W06
 BYTE   N12  Gn4
 BYTE   W06
//  #08 //026   ----------------------------------------
Label_01F90343:
 BYTE   W06
 BYTE   N06  Gn4  v127
 BYTE   W06
 BYTE   An4
 BYTE   W06
 BYTE   N78  Bn4
 BYTE   W78
 BYTE   PEND 
//  #08 //027   ----------------------------------------
 BYTE   W24
 BYTE   N06  Bn3
 BYTE   W06
 BYTE   Cn4
 BYTE   W06
 BYTE   Dn4
 BYTE   W06
 BYTE   N12  En4
 BYTE   W12
 BYTE   N06
 BYTE   W06
 BYTE   Fs4
 BYTE   W06
 BYTE   N12  Gn4
 BYTE   W12
 BYTE   N06  An4
 BYTE   W06
 BYTE   Fs4
 BYTE   W06
 BYTE   N12  Gn4
 BYTE   W06
//  #08 //028   ----------------------------------------
 BYTE   PATT
  POIN2 Label_01F90343
//  #08 //029   ----------------------------------------
 BYTE   VOICE   48
 BYTE   PAN   c_v+36
 BYTE   VOL   22*song01_mvl/mxv
 BYTE   BEND   c_v+0
 BYTE   W01
 BYTE   VOL   14*song01_mvl/mxv
 BYTE   N44  An2  v096
 BYTE   W03
 BYTE   VOL   15*song01_mvl/mxv
 BYTE   W03
 BYTE   VOL   15*song01_mvl/mxv
 BYTE   W03
 BYTE   VOL   15*song01_mvl/mxv
 BYTE   W03
 BYTE   VOL   16*song01_mvl/mxv
 BYTE   W03
 BYTE   VOL   17*song01_mvl/mxv
 BYTE   W05
 BYTE   VOL   17*song01_mvl/mxv
 BYTE   W03
 BYTE   VOL   17*song01_mvl/mxv
 BYTE   W03
 BYTE   VOL   17*song01_mvl/mxv
 BYTE   W04
 BYTE   VOL   18*song01_mvl/mxv
 BYTE   W03
 BYTE   VOL   18*song01_mvl/mxv
 BYTE   W05
 BYTE   VOL   19*song01_mvl/mxv
 BYTE   W03
 BYTE   VOL   19*song01_mvl/mxv
 BYTE   W03
 BYTE   VOL   19*song01_mvl/mxv
 BYTE   W03
 BYTE   VOL   19*song01_mvl/mxv
 BYTE   N48  Gn2
 BYTE   W03
 BYTE   VOL   20*song01_mvl/mxv
 BYTE   W04
 BYTE   VOL   20*song01_mvl/mxv
 BYTE   W05
 BYTE   VOL   21*song01_mvl/mxv
 BYTE   W03
 BYTE   VOL   22*song01_mvl/mxv
 BYTE   W03
 BYTE   VOL   22*song01_mvl/mxv
 BYTE   W03
 BYTE   VOL   22*song01_mvl/mxv
 BYTE   W04
 BYTE   VOL   22*song01_mvl/mxv
 BYTE   W03
 BYTE   VOL   23*song01_mvl/mxv
 BYTE   W03
 BYTE   VOL   23*song01_mvl/mxv
 BYTE   W03
 BYTE   VOL   23*song01_mvl/mxv
 BYTE   W05
 BYTE   VOL   24*song01_mvl/mxv
 BYTE   W03
 BYTE   VOL   25*song01_mvl/mxv
 BYTE   W04
 BYTE   VOL   26*song01_mvl/mxv
 BYTE   W02
//  #08 //030   ----------------------------------------
 BYTE   N96  Dn2
 BYTE   W01
 BYTE   VOL   27*song01_mvl/mxv
 BYTE   W03
 BYTE   VOL   27*song01_mvl/mxv
 BYTE   W03
 BYTE   VOL   27*song01_mvl/mxv
 BYTE   W03
 BYTE   VOL   27*song01_mvl/mxv
 BYTE   W05
 BYTE   VOL   28*song01_mvl/mxv
 BYTE   W04
 BYTE   VOL   28*song01_mvl/mxv
 BYTE   W03
 BYTE   VOL   29*song01_mvl/mxv
 BYTE   W03
 BYTE   VOL   29*song01_mvl/mxv
 BYTE   W03
 BYTE   VOL   29*song01_mvl/mxv
 BYTE   W05
 BYTE   VOL   30*song01_mvl/mxv
 BYTE   W03
 BYTE   VOL   30*song01_mvl/mxv
 BYTE   W03
 BYTE   VOL   31*song01_mvl/mxv
 BYTE   W03
 BYTE   VOL   32*song01_mvl/mxv
 BYTE   W06
 BYTE   VOL   32*song01_mvl/mxv
 BYTE   W06
 BYTE   VOL   31*song01_mvl/mxv
 BYTE   W06
 BYTE   VOL   30*song01_mvl/mxv
 BYTE   W06
 BYTE   VOL   29*song01_mvl/mxv
 BYTE   W06
 BYTE   VOL   29*song01_mvl/mxv
 BYTE   W06
 BYTE   VOL   27*song01_mvl/mxv
 BYTE   W06
 BYTE   VOL   28*song01_mvl/mxv
 BYTE   W06
 BYTE   VOL   29*song01_mvl/mxv
 BYTE   W06
//  #08 //031   ----------------------------------------
 BYTE   VOL   29*song01_mvl/mxv
 BYTE   N96  Cn2
 BYTE   W06
 BYTE   VOL   30*song01_mvl/mxv
 BYTE   W06
 BYTE   VOL   30*song01_mvl/mxv
 BYTE   W06
 BYTE   VOL   32*song01_mvl/mxv
 BYTE   W06
 BYTE   VOL   32*song01_mvl/mxv
 BYTE   W06
 BYTE   VOL   33*song01_mvl/mxv
 BYTE   W06
 BYTE   VOL   34*song01_mvl/mxv
 BYTE   W06
 BYTE   VOL   34*song01_mvl/mxv
 BYTE   W06
 BYTE   VOL   35*song01_mvl/mxv
 BYTE   W06
 BYTE   VOL   36*song01_mvl/mxv
 BYTE   W06
 BYTE   VOL   37*song01_mvl/mxv
 BYTE   W06
 BYTE   VOL   37*song01_mvl/mxv
 BYTE   W06
 BYTE   VOL   37*song01_mvl/mxv
 BYTE   W06
 BYTE   VOL   38*song01_mvl/mxv
 BYTE   W06
 BYTE   VOL   40*song01_mvl/mxv
 BYTE   W06
 BYTE   VOL   40*song01_mvl/mxv
 BYTE   W06
//  #08 //032   ----------------------------------------
 BYTE   VOL   41*song01_mvl/mxv
 BYTE   N96  Dn1
 BYTE   W12
 BYTE   VOL   40*song01_mvl/mxv
 BYTE   W06
 BYTE   VOL   39*song01_mvl/mxv
 BYTE   W06
 BYTE   VOL   37*song01_mvl/mxv
 BYTE   W06
 BYTE   VOL   37*song01_mvl/mxv
 BYTE   W06
 BYTE   VOL   37*song01_mvl/mxv
 BYTE   W06
 BYTE   VOL   35*song01_mvl/mxv
 BYTE   W06
 BYTE   VOL   34*song01_mvl/mxv
 BYTE   W06
 BYTE   VOL   34*song01_mvl/mxv
 BYTE   W06
 BYTE   VOL   33*song01_mvl/mxv
 BYTE   W06
 BYTE   VOL   32*song01_mvl/mxv
 BYTE   W06
 BYTE   VOL   31*song01_mvl/mxv
 BYTE   W06
 BYTE   VOL   30*song01_mvl/mxv
 BYTE   W06
 BYTE   VOL   29*song01_mvl/mxv
 BYTE   W06
 BYTE   VOL   27*song01_mvl/mxv
 BYTE   W06
//  #08 //033   ----------------------------------------
 BYTE   VOL   28*song01_mvl/mxv
 BYTE   N96  Gn1
 BYTE   W06
 BYTE   VOL   29*song01_mvl/mxv
 BYTE   W06
 BYTE   VOL   29*song01_mvl/mxv
 BYTE   W06
 BYTE   VOL   30*song01_mvl/mxv
 BYTE   W06
 BYTE   VOL   31*song01_mvl/mxv
 BYTE   W06
 BYTE   VOL   32*song01_mvl/mxv
 BYTE   W06
 BYTE   VOL   33*song01_mvl/mxv
 BYTE   W06
 BYTE   VOL   34*song01_mvl/mxv
 BYTE   W06
 BYTE   VOL   34*song01_mvl/mxv
 BYTE   W06
 BYTE   VOL   35*song01_mvl/mxv
 BYTE   W06
 BYTE   VOL   36*song01_mvl/mxv
 BYTE   W06
 BYTE   VOL   37*song01_mvl/mxv
 BYTE   W06
 BYTE   VOL   37*song01_mvl/mxv
 BYTE   W06
 BYTE   VOL   37*song01_mvl/mxv
 BYTE   W06
 BYTE   VOL   39*song01_mvl/mxv
 BYTE   W06
 BYTE   VOL   40*song01_mvl/mxv
 BYTE   W06
//  #08 //034   ----------------------------------------
 BYTE   VOL   40*song01_mvl/mxv
 BYTE   N96  An1
 BYTE   W06
 BYTE   VOL   39*song01_mvl/mxv
 BYTE   W06
 BYTE   VOL   37*song01_mvl/mxv
 BYTE   W06
 BYTE   VOL   37*song01_mvl/mxv
 BYTE   W06
 BYTE   VOL   37*song01_mvl/mxv
 BYTE   W06
 BYTE   VOL   35*song01_mvl/mxv
 BYTE   W06
 BYTE   VOL   34*song01_mvl/mxv
 BYTE   W06
 BYTE   VOL   34*song01_mvl/mxv
 BYTE   W06
 BYTE   VOL   34*song01_mvl/mxv
 BYTE   W06
 BYTE   VOL   32*song01_mvl/mxv
 BYTE   W06
 BYTE   VOL   32*song01_mvl/mxv
 BYTE   W06
 BYTE   VOL   30*song01_mvl/mxv
 BYTE   W06
 BYTE   VOL   29*song01_mvl/mxv
 BYTE   W06
 BYTE   VOL   29*song01_mvl/mxv
 BYTE   W06
 BYTE   VOL   28*song01_mvl/mxv
 BYTE   W06
 BYTE   VOL   28*song01_mvl/mxv
 BYTE   W06
//  #08 //035   ----------------------------------------
 BYTE   VOL   27*song01_mvl/mxv
 BYTE   N96  Cn2
 BYTE   W06
 BYTE   VOL   27*song01_mvl/mxv
 BYTE   W06
 BYTE   VOL   28*song01_mvl/mxv
 BYTE   W06
 BYTE   VOL   29*song01_mvl/mxv
 BYTE   W06
 BYTE   VOL   29*song01_mvl/mxv
 BYTE   W06
 BYTE   VOL   30*song01_mvl/mxv
 BYTE   W06
 BYTE   VOL   32*song01_mvl/mxv
 BYTE   W06
 BYTE   VOL   33*song01_mvl/mxv
 BYTE   W06
 BYTE   VOL   34*song01_mvl/mxv
 BYTE   W06
 BYTE   VOL   34*song01_mvl/mxv
 BYTE   W06
 BYTE   VOL   35*song01_mvl/mxv
 BYTE   W06
 BYTE   VOL   36*song01_mvl/mxv
 BYTE   W06
 BYTE   VOL   37*song01_mvl/mxv
 BYTE   W06
 BYTE   VOL   37*song01_mvl/mxv
 BYTE   W06
 BYTE   VOL   38*song01_mvl/mxv
 BYTE   W06
 BYTE   VOL   40*song01_mvl/mxv
 BYTE   W06
//  #08 //036   ----------------------------------------
 BYTE   VOL   40*song01_mvl/mxv
 BYTE   N96  Dn2
 BYTE   W06
 BYTE   VOL   39*song01_mvl/mxv
 BYTE   W06
 BYTE   VOL   38*song01_mvl/mxv
 BYTE   W06
 BYTE   VOL   37*song01_mvl/mxv
 BYTE   W06
 BYTE   VOL   37*song01_mvl/mxv
 BYTE   W06
 BYTE   VOL   35*song01_mvl/mxv
 BYTE   W06
 BYTE   VOL   34*song01_mvl/mxv
 BYTE   W06
 BYTE   VOL   34*song01_mvl/mxv
 BYTE   W06
 BYTE   VOL   33*song01_mvl/mxv
 BYTE   W06
 BYTE   VOL   32*song01_mvl/mxv
 BYTE   W06
 BYTE   VOL   30*song01_mvl/mxv
 BYTE   W06
 BYTE   VOL   29*song01_mvl/mxv
 BYTE   W06
 BYTE   VOL   29*song01_mvl/mxv
 BYTE   W06
 BYTE   VOL   28*song01_mvl/mxv
 BYTE   W06
 BYTE   VOL   27*song01_mvl/mxv
 BYTE   W06
 BYTE   VOL   27*song01_mvl/mxv
 BYTE   W06
//  #08 //037   ----------------------------------------
 BYTE   GoTo
  POIN2 Label_01F902BD
 BYTE   FINE

//**************** Track 9 (Midi-Chn.8) ****************//

song01_009:
//  #09 //000   ----------------------------------------
 BYTE   KEYSH   song01_key+0
 BYTE   MODT 0
 BYTE   LFOS 44
 BYTE   VOICE   48
 BYTE   PAN   c_v+0
 BYTE   VOL   38*song01_mvl/mxv
 BYTE   BEND   c_v+0
 BYTE   W96
//  #09 //001   ----------------------------------------
 BYTE   W96
//  #09 //002   ----------------------------------------
 BYTE   W96
//  #09 //003   ----------------------------------------
 BYTE   W96
//  #09 //004   ----------------------------------------
 BYTE   W96
//  #09 //005   ----------------------------------------
 BYTE   W96
//  #09 //006   ----------------------------------------
 BYTE   W96
//  #09 //007   ----------------------------------------
 BYTE   W96
//  #09 //008   ----------------------------------------
Label_1D8A32:
 BYTE   N04  Fs3  v127
 BYTE   W06
 BYTE   N04
 BYTE   W06
 BYTE   N04
 BYTE   W06
 BYTE   En3
 BYTE   W06
 BYTE   En3  v060
 BYTE   W06
 BYTE   En3  v048
 BYTE   W06
 BYTE   En3  v036
 BYTE   W06
 BYTE   En3  v032
 BYTE   W54
 BYTE   PEND 
//  #09 //009   ----------------------------------------
Label_1D8A49:
 BYTE   N04  Gn3  v127
 BYTE   W06
 BYTE   N04
 BYTE   W06
 BYTE   N04
 BYTE   W06
 BYTE   An3
 BYTE   W06
 BYTE   An3  v060
 BYTE   W06
 BYTE   An3  v048
 BYTE   W06
 BYTE   An3  v036
 BYTE   W06
 BYTE   An3  v032
 BYTE   W54
 BYTE   PEND 
//  #09 //010   ----------------------------------------
 BYTE   PATT
  POIN2 Label_1D8A32
//  #09 //011   ----------------------------------------
 BYTE   PATT
  POIN2 Label_1D8A49
//  #09 //012   ----------------------------------------
 BYTE   PATT
  POIN2 Label_1D8A32
//  #09 //013   ----------------------------------------
 BYTE   PATT
  POIN2 Label_1D8A49
//  #09 //014   ----------------------------------------
Label_1D8A74:
 BYTE   N04  Gn3  v127
 BYTE   W06
 BYTE   N04
 BYTE   W06
 BYTE   N04
 BYTE   W06
 BYTE   An3
 BYTE   W06
 BYTE   An3  v060
 BYTE   W06
 BYTE   An3  v048
 BYTE   W06
 BYTE   Cn4  v127
 BYTE   W06
 BYTE   N04
 BYTE   W06
 BYTE   N04
 BYTE   W06
 BYTE   Dn4
 BYTE   W06
 BYTE   Dn4  v060
 BYTE   W06
 BYTE   Dn4  v048
 BYTE   W06
 BYTE   Dn4  v036
 BYTE   W06
 BYTE   Dn4  v032
 BYTE   W18
 BYTE   PEND 
//  #09 //015   ----------------------------------------
 BYTE   W96
//  #09 //016   ----------------------------------------
 BYTE   PATT
  POIN2 Label_1D8A74
//  #09 //017   ----------------------------------------
 BYTE   W96
//  #09 //018   ----------------------------------------
Label_1D8AA1:
 BYTE   N06  Dn4  v127
 BYTE   W06
 BYTE   Dn4  v036
 BYTE   W06
 BYTE   Dn4  v028
 BYTE   W06
 BYTE   Cn4  v127
 BYTE   W06
 BYTE   Cn4  v036
 BYTE   W06
 BYTE   Cn4  v028
 BYTE   W06
 BYTE   Dn4  v127
 BYTE   W06
 BYTE   Dn4  v036
 BYTE   W06
 BYTE   Dn4  v028
 BYTE   W06
 BYTE   Cn4  v127
 BYTE   W06
 BYTE   Cn4  v036
 BYTE   W06
 BYTE   Cn4  v028
 BYTE   W06
 BYTE   N18  Bn3  v127
 BYTE   W18
 BYTE   N06  Bn3  v036
 BYTE   W06
 BYTE   PEND 
//  #09 //019   ----------------------------------------
 BYTE   PATT
  POIN2 Label_1D8AA1
//  #09 //020   ----------------------------------------
Label_1D8AD4:
 BYTE   N06  Dn4  v127
 BYTE   W18
 BYTE   Cn4
 BYTE   W18
 BYTE   Dn4
 BYTE   W18
 BYTE   Cn4
 BYTE   W18
 BYTE   N18  Bn3
 BYTE   W24
 BYTE   PEND 
//  #09 //021   ----------------------------------------
 BYTE   N06  Dn4
 BYTE   W18
 BYTE   Cn4
 BYTE   W18
 BYTE   Dn4
 BYTE   W18
 BYTE   Cn4
 BYTE   W18
 BYTE   N18  Gn4
 BYTE   W24
//  #09 //022   ----------------------------------------
 BYTE   PATT
  POIN2 Label_1D8AD4
//  #09 //023   ----------------------------------------
 BYTE   PATT
  POIN2 Label_1D8AD4
//  #09 //024   ----------------------------------------
Label_1D8AF8:
 BYTE   N06  En4  v127
 BYTE   W18
 BYTE   N06
 BYTE   W18
 BYTE   Dn4
 BYTE   W18
 BYTE   N06
 BYTE   W18
 BYTE   N18
 BYTE   W24
 BYTE   PEND 
//  #09 //025   ----------------------------------------
Label_1D8B05:
 BYTE   N06  Dn4  v127
 BYTE   W18
 BYTE   N06
 BYTE   W18
 BYTE   N06
 BYTE   W18
 BYTE   N06
 BYTE   W18
 BYTE   N18  Cn4
 BYTE   W24
 BYTE   PEND 
//  #09 //026   ----------------------------------------
 BYTE   PATT
  POIN2 Label_1D8AF8
//  #09 //027   ----------------------------------------
 BYTE   PATT
  POIN2 Label_1D8B05
//  #09 //028   ----------------------------------------
 BYTE   W96
//  #09 //029   ----------------------------------------
 BYTE   W96
//  #09 //030   ----------------------------------------
 BYTE   W96
//  #09 //031   ----------------------------------------
 BYTE   W96
//  #09 //032   ----------------------------------------
 BYTE   W96
//  #09 //033   ----------------------------------------
 BYTE   W96
//  #09 //034   ----------------------------------------
 BYTE   W96
//  #09 //035   ----------------------------------------
 BYTE   W96
//  #09 //036   ----------------------------------------
 BYTE   GoTo
  POIN2 Label_1D8A32
 BYTE   FINE

//**************** Track 10 (Midi-Chn.9) ****************//

song01_010:
//  #10 //000   ----------------------------------------
 BYTE   KEYSH   song01_key+0
 BYTE   MODT 0
 BYTE   LFOS 44
 BYTE   VOICE   40
 BYTE   PAN   c_v+0
 BYTE   VOL   31*song01_mvl/mxv
 BYTE   BEND   c_v+0
 BYTE   W96
//  #10 //001   ----------------------------------------
 BYTE   W96
//  #10 //002   ----------------------------------------
 BYTE   W96
//  #10 //003   ----------------------------------------
 BYTE   W96
//  #10 //004   ----------------------------------------
 BYTE   W96
//  #10 //005   ----------------------------------------
 BYTE   W96
//  #10 //006   ----------------------------------------
 BYTE   W96
//  #10 //007   ----------------------------------------
 BYTE   W96
//  #10 //008   ----------------------------------------
Label_01904812:
 BYTE   VOL   23*song01_mvl/mxv
 BYTE   N54  En4  v127
 BYTE   W06
 BYTE   VOL   23*song01_mvl/mxv
 BYTE   W04
 BYTE   VOL   23*song01_mvl/mxv
 BYTE   W03
 BYTE   VOL   24*song01_mvl/mxv
 BYTE   W03
 BYTE   VOL   25*song01_mvl/mxv
 BYTE   W02
 BYTE   VOL   25*song01_mvl/mxv
 BYTE   W01
 BYTE   VOL   25*song01_mvl/mxv
 BYTE   W05
 BYTE   VOL   27*song01_mvl/mxv
 BYTE   W01
 BYTE   VOL   27*song01_mvl/mxv
 BYTE   W02
 BYTE   VOL   27*song01_mvl/mxv
 BYTE   W01
 BYTE   VOL   28*song01_mvl/mxv
 BYTE   W03
 BYTE   VOL   28*song01_mvl/mxv
 BYTE   W02
 BYTE   VOL   29*song01_mvl/mxv
 BYTE   W01
 BYTE   VOL   29*song01_mvl/mxv
 BYTE   W03
 BYTE   VOL   30*song01_mvl/mxv
 BYTE   W17
 BYTE   N06  Dn4
 BYTE   W06
 BYTE   Cn4
 BYTE   W06
 BYTE   N12  Bn3
 BYTE   W12
 BYTE   N06
 BYTE   W06
 BYTE   Cn4
 BYTE   W06
 BYTE   Dn4
 BYTE   W06
//  #10 //009   ----------------------------------------
Label_01904850:
 BYTE   N48  Gn3  v127
 BYTE   W48
 BYTE   N06
 BYTE   W06
 BYTE   An3
 BYTE   W06
 BYTE   Bn3
 BYTE   W06
 BYTE   N12
 BYTE   W12
 BYTE   N06  Cn4
 BYTE   W06
 BYTE   Gn3
 BYTE   W06
 BYTE   An3
 BYTE   W06
 BYTE   PEND 
//  #10 //010   ----------------------------------------
 BYTE   TIE  En3
 BYTE   W06
 BYTE   VOL   30*song01_mvl/mxv
 BYTE   W01
 BYTE   VOL   30*song01_mvl/mxv
 BYTE   W32
 BYTE   VOL   30*song01_mvl/mxv
 BYTE   W13
 BYTE   VOL   29*song01_mvl/mxv
 BYTE   W09
 BYTE   VOL   29*song01_mvl/mxv
 BYTE   W09
 BYTE   VOL   28*song01_mvl/mxv
 BYTE   W08
 BYTE   VOL   28*song01_mvl/mxv
 BYTE   W09
 BYTE   VOL   28*song01_mvl/mxv
 BYTE   W06
 BYTE   VOL   28*song01_mvl/mxv
 BYTE   W03
//  #10 //011   ----------------------------------------
 BYTE   W03
 BYTE   VOL   27*song01_mvl/mxv
 BYTE   W04
 BYTE   VOL   27*song01_mvl/mxv
 BYTE   W05
 BYTE   VOL   27*song01_mvl/mxv
 BYTE   W04
 BYTE   VOL   26*song01_mvl/mxv
 BYTE   W08
 BYTE   VOL   25*song01_mvl/mxv
 BYTE   W04
 BYTE   VOL   25*song01_mvl/mxv
 BYTE   W03
 BYTE   VOL   25*song01_mvl/mxv
 BYTE   W05
 BYTE   VOL   23*song01_mvl/mxv
 BYTE   W09
 BYTE   VOL   23*song01_mvl/mxv
 BYTE   W04
 BYTE   VOL   23*song01_mvl/mxv
 BYTE   W03
 BYTE   VOL   22*song01_mvl/mxv
 BYTE   W03
 BYTE   VOL   22*song01_mvl/mxv
 BYTE   W02
 BYTE   VOL   22*song01_mvl/mxv
 BYTE   W01
 BYTE   VOL   22*song01_mvl/mxv
 BYTE   W02
 BYTE   VOL   21*song01_mvl/mxv
 BYTE   W01
 BYTE   VOL   21*song01_mvl/mxv
 BYTE   W03
 BYTE   VOL   20*song01_mvl/mxv
 BYTE   W02
 BYTE   VOL   20*song01_mvl/mxv
 BYTE   W01
 BYTE   VOL   20*song01_mvl/mxv
 BYTE   W02
 BYTE   VOL   19*song01_mvl/mxv
 BYTE   W01
 BYTE   VOL   19*song01_mvl/mxv
 BYTE   W02
 BYTE   EOT
 BYTE   VOL   19*song01_mvl/mxv
 BYTE   W01
 BYTE   VOL   18*song01_mvl/mxv
 BYTE   W02
 BYTE   VOL   18*song01_mvl/mxv
 BYTE   W01
 BYTE   VOL   17*song01_mvl/mxv
 BYTE   W02
 BYTE   VOL   17*song01_mvl/mxv
 BYTE   W01
 BYTE   VOL   16*song01_mvl/mxv
 BYTE   W02
 BYTE   VOL   15*song01_mvl/mxv
 BYTE   W01
 BYTE   VOL   15*song01_mvl/mxv
 BYTE   W02
 BYTE   VOL   14*song01_mvl/mxv
 BYTE   W01
 BYTE   VOL   14*song01_mvl/mxv
 BYTE   W02
 BYTE   VOL   13*song01_mvl/mxv
 BYTE   W01
 BYTE   VOL   13*song01_mvl/mxv
 BYTE   W08
//  #10 //012   ----------------------------------------
 BYTE   VOL   25*song01_mvl/mxv
 BYTE   N54  En4
 BYTE   W07
 BYTE   VOL   26*song01_mvl/mxv
 BYTE   W08
 BYTE   VOL   27*song01_mvl/mxv
 BYTE   W04
 BYTE   VOL   27*song01_mvl/mxv
 BYTE   W02
 BYTE   VOL   27*song01_mvl/mxv
 BYTE   W03
 BYTE   VOL   28*song01_mvl/mxv
 BYTE   W03
 BYTE   VOL   28*song01_mvl/mxv
 BYTE   W01
 BYTE   VOL   28*song01_mvl/mxv
 BYTE   W03
 BYTE   VOL   28*song01_mvl/mxv
 BYTE   W02
 BYTE   VOL   29*song01_mvl/mxv
 BYTE   W01
 BYTE   VOL   29*song01_mvl/mxv
 BYTE   W02
 BYTE   VOL   30*song01_mvl/mxv
 BYTE   W01
 BYTE   VOL   30*song01_mvl/mxv
 BYTE   W02
 BYTE   VOL   30*song01_mvl/mxv
 BYTE   W01
 BYTE   VOL   31*song01_mvl/mxv
 BYTE   W14
 BYTE   N06  Dn4
 BYTE   W06
 BYTE   Cn4
 BYTE   W06
 BYTE   N12  Bn3
 BYTE   W12
 BYTE   N06
 BYTE   W06
 BYTE   Cn4
 BYTE   W06
 BYTE   Dn4
 BYTE   W06
//  #10 //013   ----------------------------------------
 BYTE   PATT
  POIN2 Label_01904850
//  #10 //014   ----------------------------------------
 BYTE   N06  As3  v127
 BYTE   W06
 BYTE   Cn4
 BYTE   W06
 BYTE   N15  Dn4
 BYTE   W18
 BYTE   N06
 BYTE   W06
 BYTE   En4
 BYTE   W06
 BYTE   N32  Fn4
 BYTE   W01
 BYTE   VOL   30*song01_mvl/mxv
 BYTE   W20
 BYTE   VOL   30*song01_mvl/mxv
 BYTE   W04
 BYTE   VOL   30*song01_mvl/mxv
 BYTE   W06
 BYTE   VOL   29*song01_mvl/mxv
 BYTE   W05
 BYTE   VOL   29*song01_mvl/mxv
 BYTE   N06
 BYTE   W03
 BYTE   VOL   28*song01_mvl/mxv
 BYTE   W03
 BYTE   N06  Gn4
 BYTE   W01
 BYTE   VOL   28*song01_mvl/mxv
 BYTE   W05
 BYTE   N96  An4
 BYTE   W01
 BYTE   VOL   28*song01_mvl/mxv
 BYTE   W02
 BYTE   VOL   28*song01_mvl/mxv
 BYTE   W03
//  #10 //015   ----------------------------------------
 BYTE   VOL   27*song01_mvl/mxv
 BYTE   W03
 BYTE   VOL   27*song01_mvl/mxv
 BYTE   W01
 BYTE   VOL   27*song01_mvl/mxv
 BYTE   W03
 BYTE   VOL   26*song01_mvl/mxv
 BYTE   W03
 BYTE   VOL   25*song01_mvl/mxv
 BYTE   W02
 BYTE   VOL   25*song01_mvl/mxv
 BYTE   W04
 BYTE   VOL   24*song01_mvl/mxv
 BYTE   W03
 BYTE   VOL   23*song01_mvl/mxv
 BYTE   W02
 BYTE   VOL   23*song01_mvl/mxv
 BYTE   W03
 BYTE   VOL   23*song01_mvl/mxv
 BYTE   W01
 BYTE   VOL   22*song01_mvl/mxv
 BYTE   W02
 BYTE   VOL   22*song01_mvl/mxv
 BYTE   W01
 BYTE   VOL   22*song01_mvl/mxv
 BYTE   W03
 BYTE   VOL   21*song01_mvl/mxv
 BYTE   W03
 BYTE   VOL   21*song01_mvl/mxv
 BYTE   W02
 BYTE   VOL   20*song01_mvl/mxv
 BYTE   W03
 BYTE   VOL   20*song01_mvl/mxv
 BYTE   W01
 BYTE   VOL   20*song01_mvl/mxv
 BYTE   W02
 BYTE   VOL   19*song01_mvl/mxv
 BYTE   W03
 BYTE   VOL   19*song01_mvl/mxv
 BYTE   W01
 BYTE   VOL   19*song01_mvl/mxv
 BYTE   W02
 BYTE   VOL   18*song01_mvl/mxv
 BYTE   W01
 BYTE   VOL   18*song01_mvl/mxv
 BYTE   W03
 BYTE   VOL   17*song01_mvl/mxv
 BYTE   W02
 BYTE   VOL   17*song01_mvl/mxv
 BYTE   W01
 BYTE   VOL   17*song01_mvl/mxv
 BYTE   W02
 BYTE   VOL   16*song01_mvl/mxv
 BYTE   W03
 BYTE   VOL   15*song01_mvl/mxv
 BYTE   W01
 BYTE   VOL   15*song01_mvl/mxv
 BYTE   W03
 BYTE   VOL   14*song01_mvl/mxv
 BYTE   W03
 BYTE   VOL   13*song01_mvl/mxv
 BYTE   W02
 BYTE   VOL   13*song01_mvl/mxv
 BYTE   W01
 BYTE   VOL   13*song01_mvl/mxv
 BYTE   W03
 BYTE   VOL   12*song01_mvl/mxv
 BYTE   W02
 BYTE   VOL   11*song01_mvl/mxv
 BYTE   W01
 BYTE   VOL   11*song01_mvl/mxv
 BYTE   W02
 BYTE   VOL   11*song01_mvl/mxv
 BYTE   W03
 BYTE   VOL   10*song01_mvl/mxv
 BYTE   W01
 BYTE   VOL   10*song01_mvl/mxv
 BYTE   W02
 BYTE   VOL   10*song01_mvl/mxv
 BYTE   W01
 BYTE   VOL   10*song01_mvl/mxv
 BYTE   W03
 BYTE   VOL   8*song01_mvl/mxv
 BYTE   W08
//  #10 //016   ----------------------------------------
 BYTE   W96
//  #10 //017   ----------------------------------------
 BYTE   W96
//  #10 //018   ----------------------------------------
 BYTE   W96
//  #10 //019   ----------------------------------------
 BYTE   W96
//  #10 //020   ----------------------------------------
 BYTE   W96
//  #10 //021   ----------------------------------------
 BYTE   W96
//  #10 //022   ----------------------------------------
 BYTE   W96
//  #10 //023   ----------------------------------------
 BYTE   VOICE   68
 BYTE   PAN   c_v-34
 BYTE   VOL   28*song01_mvl/mxv
 BYTE   BEND   c_v+0
 BYTE   W96
//  #10 //024   ----------------------------------------
Label_019049E9:
 BYTE   VOL   28*song01_mvl/mxv
 BYTE   N06  Gn2  v127
 BYTE   W06
 BYTE   An2
 BYTE   W06
 BYTE   Bn2
 BYTE   W06
 BYTE   N12  Cn3
 BYTE   W12
 BYTE   N06
 BYTE   W06
 BYTE   Dn3
 BYTE   W06
 BYTE   N12  En3
 BYTE   W12
 BYTE   N06  Fs3
 BYTE   W06
 BYTE   Dn3
 BYTE   W06
 BYTE   N12  En3
 BYTE   W12
 BYTE   N06
 BYTE   W06
 BYTE   Fs3
 BYTE   W06
 BYTE   N90  Gn3
 BYTE   W06
 BYTE   PEND 
//  #10 //025   ----------------------------------------
 BYTE   W42
 BYTE   VOL   28*song01_mvl/mxv
 BYTE   W06
 BYTE   VOL   28*song01_mvl/mxv
 BYTE   W03
 BYTE   VOL   27*song01_mvl/mxv
 BYTE   W03
 BYTE   VOL   25*song01_mvl/mxv
 BYTE   W03
 BYTE   VOL   23*song01_mvl/mxv
 BYTE   W03
 BYTE   VOL   22*song01_mvl/mxv
 BYTE   W03
 BYTE   VOL   20*song01_mvl/mxv
 BYTE   W03
 BYTE   VOL   18*song01_mvl/mxv
 BYTE   W03
 BYTE   VOL   16*song01_mvl/mxv
 BYTE   W03
 BYTE   VOL   14*song01_mvl/mxv
 BYTE   W03
 BYTE   VOL   11*song01_mvl/mxv
 BYTE   W03
 BYTE   VOL   9*song01_mvl/mxv
 BYTE   W03
 BYTE   VOL   6*song01_mvl/mxv
 BYTE   W03
 BYTE   VOL   4*song01_mvl/mxv
 BYTE   W12
//  #10 //026   ----------------------------------------
 BYTE   PATT
  POIN2 Label_019049E9
//  #10 //027   ----------------------------------------
 BYTE   W40
 BYTE   VOL   28*song01_mvl/mxv
 BYTE   W06
 BYTE   VOL   28*song01_mvl/mxv
 BYTE   W02
 BYTE   VOL   27*song01_mvl/mxv
 BYTE   W03
 BYTE   VOL   27*song01_mvl/mxv
 BYTE   W01
 BYTE   VOL   26*song01_mvl/mxv
 BYTE   W02
 BYTE   VOL   25*song01_mvl/mxv
 BYTE   W01
 BYTE   VOL   25*song01_mvl/mxv
 BYTE   W02
 BYTE   VOL   24*song01_mvl/mxv
 BYTE   W01
 BYTE   VOL   23*song01_mvl/mxv
 BYTE   W02
 BYTE   VOL   23*song01_mvl/mxv
 BYTE   W01
 BYTE   VOL   22*song01_mvl/mxv
 BYTE   W02
 BYTE   VOL   22*song01_mvl/mxv
 BYTE   W01
 BYTE   VOL   20*song01_mvl/mxv
 BYTE   W02
 BYTE   VOL   20*song01_mvl/mxv
 BYTE   W01
 BYTE   VOL   19*song01_mvl/mxv
 BYTE   W02
 BYTE   VOL   18*song01_mvl/mxv
 BYTE   W01
 BYTE   VOL   18*song01_mvl/mxv
 BYTE   W02
 BYTE   VOL   17*song01_mvl/mxv
 BYTE   W01
 BYTE   VOL   15*song01_mvl/mxv
 BYTE   W02
 BYTE   VOL   14*song01_mvl/mxv
 BYTE   W01
 BYTE   VOL   13*song01_mvl/mxv
 BYTE   W02
 BYTE   VOL   12*song01_mvl/mxv
 BYTE   W01
 BYTE   VOL   11*song01_mvl/mxv
 BYTE   W02
 BYTE   VOL   10*song01_mvl/mxv
 BYTE   W01
 BYTE   VOL   10*song01_mvl/mxv
 BYTE   W02
 BYTE   VOL   8*song01_mvl/mxv
 BYTE   W01
 BYTE   VOL   7*song01_mvl/mxv
 BYTE   W02
 BYTE   VOL   6*song01_mvl/mxv
 BYTE   W01
 BYTE   VOL   5*song01_mvl/mxv
 BYTE   W02
 BYTE   VOL   4*song01_mvl/mxv
 BYTE   W06
//  #10 //028   ----------------------------------------
 BYTE   W96
//  #10 //029   ----------------------------------------
 BYTE   W96
//  #10 //030   ----------------------------------------
 BYTE   W96
//  #10 //031   ----------------------------------------
 BYTE   W96
//  #10 //032   ----------------------------------------
 BYTE   VOICE   40
 BYTE   PAN   c_v+0
 BYTE   VOL   31*song01_mvl/mxv
 BYTE   BEND   c_v+0
 BYTE   W96
//  #10 //033   ----------------------------------------
 BYTE   W96
//  #10 //034   ----------------------------------------
 BYTE   W96
//  #10 //035   ----------------------------------------
 BYTE   W96
//  #10 //036   ----------------------------------------
 BYTE   GoTo
  POIN2 Label_01904812
 BYTE   FINE

//**************** Track 11 (Midi-Chn.10) ****************//

song01_011:
//  #11 //000   ----------------------------------------
 BYTE   KEYSH   song01_key+0
 BYTE   MODT 0
 BYTE   LFOS 44
 BYTE   VOICE   40
 BYTE   PAN   c_v+0
 BYTE   VOL   23*song01_mvl/mxv
 BYTE   BEND   c_v+0
 BYTE   W96
//  #11 //001   ----------------------------------------
 BYTE   W96
//  #11 //002   ----------------------------------------
 BYTE   W96
//  #11 //003   ----------------------------------------
 BYTE   W96
//  #11 //004   ----------------------------------------
 BYTE   W96
//  #11 //005   ----------------------------------------
 BYTE   W96
//  #11 //006   ----------------------------------------
 BYTE   W96
//  #11 //007   ----------------------------------------
 BYTE   W96
//  #11 //008   ----------------------------------------
Label_01F9055E:
 BYTE   W08
 BYTE   VOL   10*song01_mvl/mxv
 BYTE   N54  En4  v127
 BYTE   W06
 BYTE   VOL   10*song01_mvl/mxv
 BYTE   W04
 BYTE   VOL   10*song01_mvl/mxv
 BYTE   W03
 BYTE   VOL   10*song01_mvl/mxv
 BYTE   W03
 BYTE   VOL   10*song01_mvl/mxv
 BYTE   W02
 BYTE   VOL   10*song01_mvl/mxv
 BYTE   W01
 BYTE   VOL   10*song01_mvl/mxv
 BYTE   W05
 BYTE   VOL   10*song01_mvl/mxv
 BYTE   W01
 BYTE   VOL   11*song01_mvl/mxv
 BYTE   W02
 BYTE   VOL   11*song01_mvl/mxv
 BYTE   W01
 BYTE   VOL   11*song01_mvl/mxv
 BYTE   W03
 BYTE   VOL   11*song01_mvl/mxv
 BYTE   W02
 BYTE   VOL   11*song01_mvl/mxv
 BYTE   W01
 BYTE   VOL   11*song01_mvl/mxv
 BYTE   W03
 BYTE   VOL   12*song01_mvl/mxv
 BYTE   W17
 BYTE   N06  Dn4
 BYTE   W06
 BYTE   Cn4
 BYTE   W06
 BYTE   N12  Bn3
 BYTE   W12
 BYTE   N06
 BYTE   W06
 BYTE   Cn4
 BYTE   W04
//  #11 //009   ----------------------------------------
Label_01F9059B:
 BYTE   W02
 BYTE   N06  Dn4  v127
 BYTE   W06
 BYTE   N48  Gn3
 BYTE   W48
 BYTE   N06
 BYTE   W06
 BYTE   An3
 BYTE   W06
 BYTE   Bn3
 BYTE   W06
 BYTE   N12
 BYTE   W12
 BYTE   N06  Cn4
 BYTE   W06
 BYTE   Gn3
 BYTE   W04
 BYTE   PEND 
//  #11 //010   ----------------------------------------
 BYTE   W02
 BYTE   An3
 BYTE   W06
 BYTE   TIE  En3
 BYTE   W06
 BYTE   VOL   12*song01_mvl/mxv
 BYTE   W01
 BYTE   VOL   12*song01_mvl/mxv
 BYTE   W32
 BYTE   VOL   12*song01_mvl/mxv
 BYTE   W13
 BYTE   VOL   11*song01_mvl/mxv
 BYTE   W09
 BYTE   VOL   11*song01_mvl/mxv
 BYTE   W09
 BYTE   VOL   11*song01_mvl/mxv
 BYTE   W08
 BYTE   VOL   11*song01_mvl/mxv
 BYTE   W09
 BYTE   VOL   11*song01_mvl/mxv
 BYTE   W01
//  #11 //011   ----------------------------------------
 BYTE   W05
 BYTE   VOL   11*song01_mvl/mxv
 BYTE   W06
 BYTE   VOL   11*song01_mvl/mxv
 BYTE   W04
 BYTE   VOL   11*song01_mvl/mxv
 BYTE   W05
 BYTE   VOL   10*song01_mvl/mxv
 BYTE   W04
 BYTE   VOL   10*song01_mvl/mxv
 BYTE   W08
 BYTE   VOL   10*song01_mvl/mxv
 BYTE   W04
 BYTE   VOL   10*song01_mvl/mxv
 BYTE   W03
 BYTE   VOL   10*song01_mvl/mxv
 BYTE   W05
 BYTE   VOL   10*song01_mvl/mxv
 BYTE   W09
 BYTE   VOL   10*song01_mvl/mxv
 BYTE   W04
 BYTE   VOL   10*song01_mvl/mxv
 BYTE   W03
 BYTE   VOL   9*song01_mvl/mxv
 BYTE   W03
 BYTE   VOL   9*song01_mvl/mxv
 BYTE   W02
 BYTE   VOL   9*song01_mvl/mxv
 BYTE   W01
 BYTE   VOL   9*song01_mvl/mxv
 BYTE   W02
 BYTE   VOL   8*song01_mvl/mxv
 BYTE   W01
 BYTE   VOL   8*song01_mvl/mxv
 BYTE   W03
 BYTE   VOL   8*song01_mvl/mxv
 BYTE   W02
 BYTE   VOL   8*song01_mvl/mxv
 BYTE   W01
 BYTE   VOL   8*song01_mvl/mxv
 BYTE   W02
 BYTE   VOL   8*song01_mvl/mxv
 BYTE   W01
 BYTE   VOL   8*song01_mvl/mxv
 BYTE   W02
 BYTE   EOT
 BYTE   VOL   7*song01_mvl/mxv
 BYTE   W01
 BYTE   VOL   7*song01_mvl/mxv
 BYTE   W02
 BYTE   VOL   6*song01_mvl/mxv
 BYTE   W01
 BYTE   VOL   6*song01_mvl/mxv
 BYTE   W02
 BYTE   VOL   6*song01_mvl/mxv
 BYTE   W01
 BYTE   VOL   6*song01_mvl/mxv
 BYTE   W02
 BYTE   VOL   6*song01_mvl/mxv
 BYTE   W01
 BYTE   VOL   6*song01_mvl/mxv
 BYTE   W02
 BYTE   VOL   6*song01_mvl/mxv
 BYTE   W01
 BYTE   VOL   5*song01_mvl/mxv
 BYTE   W02
 BYTE   VOL   5*song01_mvl/mxv
 BYTE   W01
//  #11 //012   ----------------------------------------
 BYTE   VOL   5*song01_mvl/mxv
 BYTE   W08
 BYTE   VOL   10*song01_mvl/mxv
 BYTE   N54  En4
 BYTE   W07
 BYTE   VOL   10*song01_mvl/mxv
 BYTE   W08
 BYTE   VOL   10*song01_mvl/mxv
 BYTE   W04
 BYTE   VOL   11*song01_mvl/mxv
 BYTE   W02
 BYTE   VOL   11*song01_mvl/mxv
 BYTE   W03
 BYTE   VOL   11*song01_mvl/mxv
 BYTE   W03
 BYTE   VOL   11*song01_mvl/mxv
 BYTE   W01
 BYTE   VOL   11*song01_mvl/mxv
 BYTE   W03
 BYTE   VOL   11*song01_mvl/mxv
 BYTE   W02
 BYTE   VOL   11*song01_mvl/mxv
 BYTE   W01
 BYTE   VOL   11*song01_mvl/mxv
 BYTE   W02
 BYTE   VOL   12*song01_mvl/mxv
 BYTE   W01
 BYTE   VOL   12*song01_mvl/mxv
 BYTE   W02
 BYTE   VOL   12*song01_mvl/mxv
 BYTE   W01
 BYTE   VOL   13*song01_mvl/mxv
 BYTE   W14
 BYTE   N06  Dn4
 BYTE   W06
 BYTE   Cn4
 BYTE   W06
 BYTE   N12  Bn3
 BYTE   W12
 BYTE   N06
 BYTE   W06
 BYTE   Cn4
 BYTE   W04
//  #11 //013   ----------------------------------------
 BYTE   PATT
  POIN2 Label_01F9059B
//  #11 //014   ----------------------------------------
 BYTE   W02
 BYTE   N06  An3  v127
 BYTE   W06
 BYTE   As3
 BYTE   W06
 BYTE   Cn4
 BYTE   W06
 BYTE   N15  Dn4
 BYTE   W18
 BYTE   N06
 BYTE   W06
 BYTE   En4
 BYTE   W06
 BYTE   N32  Fn4
 BYTE   W01
 BYTE   VOL   12*song01_mvl/mxv
 BYTE   W20
 BYTE   VOL   12*song01_mvl/mxv
 BYTE   W04
 BYTE   VOL   12*song01_mvl/mxv
 BYTE   W06
 BYTE   VOL   11*song01_mvl/mxv
 BYTE   W05
 BYTE   VOL   11*song01_mvl/mxv
 BYTE   N06
 BYTE   W03
 BYTE   VOL   11*song01_mvl/mxv
 BYTE   W03
 BYTE   N06  Gn4
 BYTE   W01
 BYTE   VOL   11*song01_mvl/mxv
 BYTE   W03
//  #11 //015   ----------------------------------------
 BYTE   W02
 BYTE   N96  An4
 BYTE   W01
 BYTE   VOL   11*song01_mvl/mxv
 BYTE   W02
 BYTE   VOL   11*song01_mvl/mxv
 BYTE   W03
 BYTE   VOL   11*song01_mvl/mxv
 BYTE   W03
 BYTE   VOL   11*song01_mvl/mxv
 BYTE   W01
 BYTE   VOL   10*song01_mvl/mxv
 BYTE   W03
 BYTE   VOL   10*song01_mvl/mxv
 BYTE   W03
 BYTE   VOL   10*song01_mvl/mxv
 BYTE   W02
 BYTE   VOL   10*song01_mvl/mxv
 BYTE   W04
 BYTE   VOL   10*song01_mvl/mxv
 BYTE   W03
 BYTE   VOL   10*song01_mvl/mxv
 BYTE   W02
 BYTE   VOL   10*song01_mvl/mxv
 BYTE   W03
 BYTE   VOL   10*song01_mvl/mxv
 BYTE   W01
 BYTE   VOL   9*song01_mvl/mxv
 BYTE   W02
 BYTE   VOL   9*song01_mvl/mxv
 BYTE   W01
 BYTE   VOL   9*song01_mvl/mxv
 BYTE   W03
 BYTE   VOL   8*song01_mvl/mxv
 BYTE   W03
 BYTE   VOL   8*song01_mvl/mxv
 BYTE   W02
 BYTE   VOL   8*song01_mvl/mxv
 BYTE   W03
 BYTE   VOL   8*song01_mvl/mxv
 BYTE   W01
 BYTE   VOL   8*song01_mvl/mxv
 BYTE   W02
 BYTE   VOL   8*song01_mvl/mxv
 BYTE   W03
 BYTE   VOL   8*song01_mvl/mxv
 BYTE   W01
 BYTE   VOL   7*song01_mvl/mxv
 BYTE   W02
 BYTE   VOL   7*song01_mvl/mxv
 BYTE   W01
 BYTE   VOL   6*song01_mvl/mxv
 BYTE   W03
 BYTE   VOL   6*song01_mvl/mxv
 BYTE   W02
 BYTE   VOL   6*song01_mvl/mxv
 BYTE   W01
 BYTE   VOL   6*song01_mvl/mxv
 BYTE   W02
 BYTE   VOL   6*song01_mvl/mxv
 BYTE   W03
 BYTE   VOL   6*song01_mvl/mxv
 BYTE   W01
 BYTE   VOL   6*song01_mvl/mxv
 BYTE   W03
 BYTE   VOL   6*song01_mvl/mxv
 BYTE   W03
 BYTE   VOL   5*song01_mvl/mxv
 BYTE   W02
 BYTE   VOL   5*song01_mvl/mxv
 BYTE   W01
 BYTE   VOL   5*song01_mvl/mxv
 BYTE   W03
 BYTE   VOL   5*song01_mvl/mxv
 BYTE   W02
 BYTE   VOL   5*song01_mvl/mxv
 BYTE   W01
 BYTE   VOL   4*song01_mvl/mxv
 BYTE   W02
 BYTE   VOL   4*song01_mvl/mxv
 BYTE   W03
 BYTE   VOL   4*song01_mvl/mxv
 BYTE   W01
 BYTE   VOL   4*song01_mvl/mxv
 BYTE   W02
 BYTE   VOL   3*song01_mvl/mxv
 BYTE   W01
 BYTE   VOL   3*song01_mvl/mxv
 BYTE   W03
//  #11 //016   ----------------------------------------
 BYTE   VOL   3*song01_mvl/mxv
 BYTE   W96
//  #11 //017   ----------------------------------------
 BYTE   W96
//  #11 //018   ----------------------------------------
 BYTE   W96
//  #11 //019   ----------------------------------------
 BYTE   W96
//  #11 //020   ----------------------------------------
 BYTE   W96
//  #11 //021   ----------------------------------------
 BYTE   W96
//  #11 //022   ----------------------------------------
 BYTE   W96
//  #11 //023   ----------------------------------------
 BYTE   VOICE   65
 BYTE   PAN   c_v+46
 BYTE   VOL   34*song01_mvl/mxv
 BYTE   BEND   c_v+0
 BYTE   W96
//  #11 //024   ----------------------------------------
Label_01F9073A:
 BYTE   VOL   34*song01_mvl/mxv
 BYTE   N06  En2  v127
 BYTE   W06
 BYTE   Fs2
 BYTE   W06
 BYTE   Gn2
 BYTE   W06
 BYTE   N12  An2
 BYTE   W12
 BYTE   N06
 BYTE   W06
 BYTE   Bn2
 BYTE   W06
 BYTE   N12  Cn3
 BYTE   W12
 BYTE   N06  Dn3
 BYTE   W06
 BYTE   Bn2
 BYTE   W06
 BYTE   N12  Cn3
 BYTE   W12
 BYTE   N06
 BYTE   W06
 BYTE   Dn3
 BYTE   W06
 BYTE   N90  En3
 BYTE   W06
 BYTE   PEND 
//  #11 //025   ----------------------------------------
 BYTE   W18
 BYTE   VOL   34*song01_mvl/mxv
 BYTE   W09
 BYTE   VOL   34*song01_mvl/mxv
 BYTE   W03
 BYTE   VOL   33*song01_mvl/mxv
 BYTE   W03
 BYTE   VOL   33*song01_mvl/mxv
 BYTE   W03
 BYTE   VOL   31*song01_mvl/mxv
 BYTE   W03
 BYTE   VOL   30*song01_mvl/mxv
 BYTE   W03
 BYTE   VOL   30*song01_mvl/mxv
 BYTE   W03
 BYTE   VOL   29*song01_mvl/mxv
 BYTE   W03
 BYTE   VOL   28*song01_mvl/mxv
 BYTE   W03
 BYTE   VOL   27*song01_mvl/mxv
 BYTE   W03
 BYTE   VOL   26*song01_mvl/mxv
 BYTE   W03
 BYTE   VOL   24*song01_mvl/mxv
 BYTE   W03
 BYTE   VOL   22*song01_mvl/mxv
 BYTE   W03
 BYTE   VOL   21*song01_mvl/mxv
 BYTE   W03
 BYTE   VOL   19*song01_mvl/mxv
 BYTE   W03
 BYTE   VOL   18*song01_mvl/mxv
 BYTE   W03
 BYTE   VOL   17*song01_mvl/mxv
 BYTE   W03
 BYTE   VOL   14*song01_mvl/mxv
 BYTE   W03
 BYTE   VOL   13*song01_mvl/mxv
 BYTE   W03
 BYTE   VOL   11*song01_mvl/mxv
 BYTE   W03
 BYTE   VOL   10*song01_mvl/mxv
 BYTE   W03
 BYTE   VOL   7*song01_mvl/mxv
 BYTE   W09
//  #11 //026   ----------------------------------------
 BYTE   PATT
  POIN2 Label_01F9073A
//  #11 //027   ----------------------------------------
 BYTE   W24
 BYTE   W03
 BYTE   VOL   34*song01_mvl/mxv
 BYTE   W06
 BYTE   VOL   34*song01_mvl/mxv
 BYTE   W03
 BYTE   VOL   33*song01_mvl/mxv
 BYTE   W03
 BYTE   VOL   32*song01_mvl/mxv
 BYTE   W03
 BYTE   VOL   30*song01_mvl/mxv
 BYTE   W03
 BYTE   VOL   30*song01_mvl/mxv
 BYTE   W03
 BYTE   VOL   28*song01_mvl/mxv
 BYTE   W03
 BYTE   VOL   27*song01_mvl/mxv
 BYTE   W03
 BYTE   VOL   25*song01_mvl/mxv
 BYTE   W03
 BYTE   VOL   23*song01_mvl/mxv
 BYTE   W03
 BYTE   VOL   21*song01_mvl/mxv
 BYTE   W03
 BYTE   VOL   19*song01_mvl/mxv
 BYTE   W03
 BYTE   VOL   17*song01_mvl/mxv
 BYTE   W03
 BYTE   VOL   14*song01_mvl/mxv
 BYTE   W03
 BYTE   VOL   12*song01_mvl/mxv
 BYTE   W03
 BYTE   VOL   10*song01_mvl/mxv
 BYTE   W03
 BYTE   VOL   8*song01_mvl/mxv
 BYTE   W18
//  #11 //028   ----------------------------------------
 BYTE   W96
//  #11 //029   ----------------------------------------
 BYTE   W96
//  #11 //030   ----------------------------------------
 BYTE   W96
//  #11 //031   ----------------------------------------
 BYTE   W96
//  #11 //032   ----------------------------------------
 BYTE   VOICE   40
 BYTE   PAN   c_v-64
 BYTE   VOL   13*song01_mvl/mxv
 BYTE   BEND   c_v+0
 BYTE   W96
//  #11 //033   ----------------------------------------
 BYTE   W96
//  #11 //034   ----------------------------------------
 BYTE   W96
//  #11 //035   ----------------------------------------
 BYTE   W96
//  #11 //036   ----------------------------------------
 BYTE   GoTo
  POIN2 Label_01F9055E
 BYTE   FINE

//**************** Track 12 (Midi-Chn.11) ****************//

song01_012:
//  #12 //000   ----------------------------------------
 BYTE   KEYSH   song01_key+0
 BYTE   MODT 0
 BYTE   LFOS 44
 BYTE   VOICE   48
 BYTE   PAN   c_v+0
 BYTE   VOL   15*song01_mvl/mxv
 BYTE   BEND   c_v+0
 BYTE   TIE  An2  v124
 BYTE   W01
 BYTE   VOL   15*song01_mvl/mxv
 BYTE   W03
 BYTE   VOL   17*song01_mvl/mxv
 BYTE   W03
 BYTE   VOL   17*song01_mvl/mxv
 BYTE   W02
 BYTE   VOL   17*song01_mvl/mxv
 BYTE   W01
 BYTE   VOL   17*song01_mvl/mxv
 BYTE   W02
 BYTE   VOL   18*song01_mvl/mxv
 BYTE   W01
 BYTE   VOL   18*song01_mvl/mxv
 BYTE   W03
 BYTE   VOL   19*song01_mvl/mxv
 BYTE   W02
 BYTE   VOL   19*song01_mvl/mxv
 BYTE   W01
 BYTE   VOL   19*song01_mvl/mxv
 BYTE   W02
 BYTE   VOL   19*song01_mvl/mxv
 BYTE   W01
 BYTE   VOL   20*song01_mvl/mxv
 BYTE   W02
 BYTE   VOL   20*song01_mvl/mxv
 BYTE   W01
 BYTE   VOL   21*song01_mvl/mxv
 BYTE   W02
 BYTE   VOL   22*song01_mvl/mxv
 BYTE   W03
 BYTE   VOL   22*song01_mvl/mxv
 BYTE   W01
 BYTE   VOL   22*song01_mvl/mxv
 BYTE   W02
 BYTE   VOL   22*song01_mvl/mxv
 BYTE   W01
 BYTE   VOL   23*song01_mvl/mxv
 BYTE   W02
 BYTE   VOL   23*song01_mvl/mxv
 BYTE   W03
 BYTE   VOL   24*song01_mvl/mxv
 BYTE   W03
 BYTE   VOL   25*song01_mvl/mxv
 BYTE   W01
 BYTE   VOL   26*song01_mvl/mxv
 BYTE   W02
 BYTE   VOL   27*song01_mvl/mxv
 BYTE   W01
 BYTE   VOL   27*song01_mvl/mxv
 BYTE   W02
 BYTE   VOL   27*song01_mvl/mxv
 BYTE   W03
 BYTE   VOL   28*song01_mvl/mxv
 BYTE   W03
 BYTE   VOL   28*song01_mvl/mxv
 BYTE   W01
 BYTE   VOL   29*song01_mvl/mxv
 BYTE   W02
 BYTE   VOL   29*song01_mvl/mxv
 BYTE   W01
 BYTE   VOL   29*song01_mvl/mxv
 BYTE   W02
 BYTE   VOL   30*song01_mvl/mxv
 BYTE   W01
 BYTE   VOL   30*song01_mvl/mxv
 BYTE   W03
 BYTE   VOL   31*song01_mvl/mxv
 BYTE   W02
 BYTE   VOL   32*song01_mvl/mxv
 BYTE   W01
 BYTE   VOL   32*song01_mvl/mxv
 BYTE   W02
 BYTE   VOL   33*song01_mvl/mxv
 BYTE   W01
 BYTE   VOL   34*song01_mvl/mxv
 BYTE   W03
 BYTE   VOL   34*song01_mvl/mxv
 BYTE   W03
 BYTE   VOL   34*song01_mvl/mxv
 BYTE   W02
 BYTE   VOL   35*song01_mvl/mxv
 BYTE   W01
 BYTE   VOL   36*song01_mvl/mxv
 BYTE   W02
 BYTE   VOL   37*song01_mvl/mxv
 BYTE   W01
 BYTE   VOL   37*song01_mvl/mxv
 BYTE   W03
 BYTE   VOL   37*song01_mvl/mxv
 BYTE   W03
 BYTE   VOL   38*song01_mvl/mxv
 BYTE   W02
 BYTE   VOL   39*song01_mvl/mxv
 BYTE   W01
 BYTE   VOL   40*song01_mvl/mxv
 BYTE   W02
 BYTE   VOL   40*song01_mvl/mxv
 BYTE   W01
 BYTE   VOL   40*song01_mvl/mxv
 BYTE   W02
//  #12 //001   ----------------------------------------
Label_01F90AA4:
 BYTE   VOL   40*song01_mvl/mxv
 BYTE   W03
 BYTE   VOL   40*song01_mvl/mxv
 BYTE   W03
 BYTE   VOL   39*song01_mvl/mxv
 BYTE   W03
 BYTE   VOL   38*song01_mvl/mxv
 BYTE   W03
 BYTE   VOL   37*song01_mvl/mxv
 BYTE   W03
 BYTE   VOL   37*song01_mvl/mxv
 BYTE   W01
 BYTE   VOL   37*song01_mvl/mxv
 BYTE   W05
 BYTE   VOL   37*song01_mvl/mxv
 BYTE   W03
 BYTE   VOL   36*song01_mvl/mxv
 BYTE   W03
 BYTE   VOL   35*song01_mvl/mxv
 BYTE   W03
 BYTE   VOL   34*song01_mvl/mxv
 BYTE   W03
 BYTE   VOL   34*song01_mvl/mxv
 BYTE   W03
 BYTE   VOL   34*song01_mvl/mxv
 BYTE   W01
 BYTE   VOL   34*song01_mvl/mxv
 BYTE   W05
 BYTE   VOL   33*song01_mvl/mxv
 BYTE   W03
 BYTE   VOL   32*song01_mvl/mxv
 BYTE   W01
 BYTE   VOL   32*song01_mvl/mxv
 BYTE   W03
 BYTE   VOL   31*song01_mvl/mxv
 BYTE   W05
 BYTE   VOL   30*song01_mvl/mxv
 BYTE   W03
 BYTE   VOL   30*song01_mvl/mxv
 BYTE   W01
 BYTE   VOL   29*song01_mvl/mxv
 BYTE   W05
 BYTE   VOL   29*song01_mvl/mxv
 BYTE   W03
 BYTE   VOL   29*song01_mvl/mxv
 BYTE   W01
 BYTE   VOL   28*song01_mvl/mxv
 BYTE   W03
 BYTE   VOL   28*song01_mvl/mxv
 BYTE   W05
 BYTE   VOL   27*song01_mvl/mxv
 BYTE   W01
 BYTE   VOL   27*song01_mvl/mxv
 BYTE   W03
 BYTE   VOL   27*song01_mvl/mxv
 BYTE   W03
 BYTE   VOL   27*song01_mvl/mxv
 BYTE   W05
 BYTE   VOL   26*song01_mvl/mxv
 BYTE   W01
 BYTE   VOL   25*song01_mvl/mxv
 BYTE   W03
 BYTE   VOL   24*song01_mvl/mxv
 BYTE   W02
 BYTE   VOL   24*song01_mvl/mxv
 BYTE   W03
 BYTE   PEND 
//  #12 //002   ----------------------------------------
 BYTE   EOT
 BYTE   An2
Label_01F90B0A:
 BYTE   N96  Gn2  v096
 BYTE   W01
 BYTE   VOL   25*song01_mvl/mxv
 BYTE   W03
 BYTE   VOL   26*song01_mvl/mxv
 BYTE   W02
 BYTE   VOL   27*song01_mvl/mxv
 BYTE   W04
 BYTE   VOL   27*song01_mvl/mxv
 BYTE   W03
 BYTE   VOL   27*song01_mvl/mxv
 BYTE   W03
 BYTE   VOL   27*song01_mvl/mxv
 BYTE   W03
 BYTE   VOL   28*song01_mvl/mxv
 BYTE   W03
 BYTE   VOL   28*song01_mvl/mxv
 BYTE   W03
 BYTE   VOL   29*song01_mvl/mxv
 BYTE   W02
 BYTE   VOL   29*song01_mvl/mxv
 BYTE   W04
 BYTE   VOL   29*song01_mvl/mxv
 BYTE   W03
 BYTE   VOL   30*song01_mvl/mxv
 BYTE   W02
 BYTE   VOL   30*song01_mvl/mxv
 BYTE   W04
 BYTE   VOL   31*song01_mvl/mxv
 BYTE   W03
 BYTE   VOL   32*song01_mvl/mxv
 BYTE   W03
 BYTE   VOL   32*song01_mvl/mxv
 BYTE   W02
 BYTE   VOL   33*song01_mvl/mxv
 BYTE   W04
 BYTE   VOL   34*song01_mvl/mxv
 BYTE   W03
 BYTE   VOL   34*song01_mvl/mxv
 BYTE   W02
 BYTE   VOL   34*song01_mvl/mxv
 BYTE   W04
 BYTE   VOL   34*song01_mvl/mxv
 BYTE   W03
 BYTE   VOL   35*song01_mvl/mxv
 BYTE   W02
 BYTE   VOL   36*song01_mvl/mxv
 BYTE   W04
 BYTE   VOL   37*song01_mvl/mxv
 BYTE   W03
 BYTE   VOL   37*song01_mvl/mxv
 BYTE   W03
 BYTE   VOL   37*song01_mvl/mxv
 BYTE   W02
 BYTE   VOL   37*song01_mvl/mxv
 BYTE   W04
 BYTE   VOL   38*song01_mvl/mxv
 BYTE   W03
 BYTE   VOL   39*song01_mvl/mxv
 BYTE   W02
 BYTE   VOL   40*song01_mvl/mxv
 BYTE   W04
 BYTE   VOL   40*song01_mvl/mxv
 BYTE   W02
 BYTE   VOL   40*song01_mvl/mxv
 BYTE   W03
 BYTE   PEND 
//  #12 //003   ----------------------------------------
Label_01F90B6F:
 BYTE   VOL   40*song01_mvl/mxv
 BYTE   N96  Fs2  v096
 BYTE   W03
 BYTE   VOL   39*song01_mvl/mxv
 BYTE   W01
 BYTE   VOL   38*song01_mvl/mxv
 BYTE   W03
 BYTE   VOL   37*song01_mvl/mxv
 BYTE   W03
 BYTE   VOL   37*song01_mvl/mxv
 BYTE   W02
 BYTE   VOL   37*song01_mvl/mxv
 BYTE   W03
 BYTE   VOL   37*song01_mvl/mxv
 BYTE   W03
 BYTE   VOL   36*song01_mvl/mxv
 BYTE   W03
 BYTE   VOL   35*song01_mvl/mxv
 BYTE   W03
 BYTE   VOL   34*song01_mvl/mxv
 BYTE   W03
 BYTE   VOL   34*song01_mvl/mxv
 BYTE   W01
 BYTE   VOL   34*song01_mvl/mxv
 BYTE   W03
 BYTE   VOL   34*song01_mvl/mxv
 BYTE   W03
 BYTE   VOL   33*song01_mvl/mxv
 BYTE   W03
 BYTE   VOL   32*song01_mvl/mxv
 BYTE   W02
 BYTE   VOL   32*song01_mvl/mxv
 BYTE   W03
 BYTE   VOL   31*song01_mvl/mxv
 BYTE   W03
 BYTE   VOL   30*song01_mvl/mxv
 BYTE   W03
 BYTE   VOL   30*song01_mvl/mxv
 BYTE   W01
 BYTE   VOL   29*song01_mvl/mxv
 BYTE   W03
 BYTE   VOL   29*song01_mvl/mxv
 BYTE   W03
 BYTE   VOL   29*song01_mvl/mxv
 BYTE   W02
 BYTE   VOL   28*song01_mvl/mxv
 BYTE   W03
 BYTE   VOL   28*song01_mvl/mxv
 BYTE   W03
 BYTE   VOL   27*song01_mvl/mxv
 BYTE   W01
 BYTE   VOL   27*song01_mvl/mxv
 BYTE   W03
 BYTE   VOL   27*song01_mvl/mxv
 BYTE   W03
 BYTE   VOL   27*song01_mvl/mxv
 BYTE   W03
 BYTE   VOL   26*song01_mvl/mxv
 BYTE   W03
 BYTE   VOL   25*song01_mvl/mxv
 BYTE   W02
 BYTE   VOL   24*song01_mvl/mxv
 BYTE   W03
 BYTE   VOL   23*song01_mvl/mxv
 BYTE   W03
 BYTE   VOL   23*song01_mvl/mxv
 BYTE   W03
 BYTE   VOL   23*song01_mvl/mxv
 BYTE   W03
 BYTE   VOL   23*song01_mvl/mxv
 BYTE   W01
 BYTE   VOL   23*song01_mvl/mxv
 BYTE   W02
 BYTE   VOL   23*song01_mvl/mxv
 BYTE   W03
 BYTE   PEND 
//  #12 //004   ----------------------------------------
Label_01F90BE2:
 BYTE   VOL   24*song01_mvl/mxv
 BYTE   N96  Dn2  v096
 BYTE   W01
 BYTE   VOL   25*song01_mvl/mxv
 BYTE   W02
 BYTE   VOL   25*song01_mvl/mxv
 BYTE   W01
 BYTE   VOL   25*song01_mvl/mxv
 BYTE   W02
 BYTE   VOL   26*song01_mvl/mxv
 BYTE   W01
 BYTE   VOL   27*song01_mvl/mxv
 BYTE   W02
 BYTE   VOL   27*song01_mvl/mxv
 BYTE   W01
 BYTE   VOL   27*song01_mvl/mxv
 BYTE   W02
 BYTE   VOL   27*song01_mvl/mxv
 BYTE   W01
 BYTE   VOL   27*song01_mvl/mxv
 BYTE   W02
 BYTE   VOL   27*song01_mvl/mxv
 BYTE   W01
 BYTE   VOL   27*song01_mvl/mxv
 BYTE   W02
 BYTE   VOL   27*song01_mvl/mxv
 BYTE   W01
 BYTE   VOL   27*song01_mvl/mxv
 BYTE   W02
 BYTE   VOL   28*song01_mvl/mxv
 BYTE   W01
 BYTE   VOL   28*song01_mvl/mxv
 BYTE   W02
 BYTE   VOL   28*song01_mvl/mxv
 BYTE   W03
 BYTE   VOL   29*song01_mvl/mxv
 BYTE   W01
 BYTE   VOL   29*song01_mvl/mxv
 BYTE   W02
 BYTE   VOL   29*song01_mvl/mxv
 BYTE   W01
 BYTE   VOL   29*song01_mvl/mxv
 BYTE   W02
 BYTE   VOL   29*song01_mvl/mxv
 BYTE   W01
 BYTE   VOL   29*song01_mvl/mxv
 BYTE   W03
 BYTE   VOL   30*song01_mvl/mxv
 BYTE   W02
 BYTE   VOL   30*song01_mvl/mxv
 BYTE   W01
 BYTE   VOL   30*song01_mvl/mxv
 BYTE   W02
 BYTE   VOL   31*song01_mvl/mxv
 BYTE   W01
 BYTE   VOL   31*song01_mvl/mxv
 BYTE   W05
 BYTE   VOL   32*song01_mvl/mxv
 BYTE   W01
 BYTE   VOL   32*song01_mvl/mxv
 BYTE   W02
 BYTE   VOL   32*song01_mvl/mxv
 BYTE   W01
 BYTE   VOL   33*song01_mvl/mxv
 BYTE   W02
 BYTE   VOL   33*song01_mvl/mxv
 BYTE   W01
 BYTE   VOL   34*song01_mvl/mxv
 BYTE   W02
 BYTE   VOL   34*song01_mvl/mxv
 BYTE   W01
 BYTE   VOL   34*song01_mvl/mxv
 BYTE   W02
 BYTE   VOL   34*song01_mvl/mxv
 BYTE   W01
 BYTE   VOL   34*song01_mvl/mxv
 BYTE   W02
 BYTE   VOL   34*song01_mvl/mxv
 BYTE   W01
 BYTE   VOL   34*song01_mvl/mxv
 BYTE   W02
 BYTE   VOL   34*song01_mvl/mxv
 BYTE   W01
 BYTE   VOL   34*song01_mvl/mxv
 BYTE   W02
 BYTE   VOL   35*song01_mvl/mxv
 BYTE   W01
 BYTE   VOL   36*song01_mvl/mxv
 BYTE   W02
 BYTE   VOL   36*song01_mvl/mxv
 BYTE   W01
 BYTE   VOL   37*song01_mvl/mxv
 BYTE   W02
 BYTE   VOL   37*song01_mvl/mxv
 BYTE   W01
 BYTE   VOL   37*song01_mvl/mxv
 BYTE   W02
 BYTE   VOL   37*song01_mvl/mxv
 BYTE   W01
 BYTE   VOL   37*song01_mvl/mxv
 BYTE   W02
 BYTE   VOL   37*song01_mvl/mxv
 BYTE   W01
 BYTE   VOL   37*song01_mvl/mxv
 BYTE   W02
 BYTE   VOL   37*song01_mvl/mxv
 BYTE   W03
 BYTE   VOL   38*song01_mvl/mxv
 BYTE   W03
 BYTE   VOL   39*song01_mvl/mxv
 BYTE   W01
 BYTE   VOL   39*song01_mvl/mxv
 BYTE   W02
 BYTE   VOL   40*song01_mvl/mxv
 BYTE   W01
 BYTE   VOL   40*song01_mvl/mxv
 BYTE   W02
 BYTE   PEND 
//  #12 //005   ----------------------------------------
Label_01F90C94:
 BYTE   VOL   40*song01_mvl/mxv
 BYTE   N96  Fs2  v096
 BYTE   W01
 BYTE   VOL   40*song01_mvl/mxv
 BYTE   W03
 BYTE   VOL   40*song01_mvl/mxv
 BYTE   W02
 BYTE   VOL   40*song01_mvl/mxv
 BYTE   W01
 BYTE   VOL   39*song01_mvl/mxv
 BYTE   W02
 BYTE   VOL   38*song01_mvl/mxv
 BYTE   W01
 BYTE   VOL   38*song01_mvl/mxv
 BYTE   W03
 BYTE   VOL   37*song01_mvl/mxv
 BYTE   W02
 BYTE   VOL   37*song01_mvl/mxv
 BYTE   W01
 BYTE   VOL   37*song01_mvl/mxv
 BYTE   W02
 BYTE   VOL   37*song01_mvl/mxv
 BYTE   W01
 BYTE   VOL   37*song01_mvl/mxv
 BYTE   W03
 BYTE   VOL   37*song01_mvl/mxv
 BYTE   W02
 BYTE   VOL   37*song01_mvl/mxv
 BYTE   W03
 BYTE   VOL   36*song01_mvl/mxv
 BYTE   W01
 BYTE   VOL   35*song01_mvl/mxv
 BYTE   W02
 BYTE   VOL   35*song01_mvl/mxv
 BYTE   W01
 BYTE   VOL   34*song01_mvl/mxv
 BYTE   W02
 BYTE   VOL   34*song01_mvl/mxv
 BYTE   W01
 BYTE   VOL   34*song01_mvl/mxv
 BYTE   W02
 BYTE   VOL   34*song01_mvl/mxv
 BYTE   W01
 BYTE   VOL   34*song01_mvl/mxv
 BYTE   W02
 BYTE   VOL   34*song01_mvl/mxv
 BYTE   W01
 BYTE   VOL   34*song01_mvl/mxv
 BYTE   W03
 BYTE   VOL   33*song01_mvl/mxv
 BYTE   W02
 BYTE   VOL   33*song01_mvl/mxv
 BYTE   W01
 BYTE   VOL   32*song01_mvl/mxv
 BYTE   W02
 BYTE   VOL   32*song01_mvl/mxv
 BYTE   W01
 BYTE   VOL   32*song01_mvl/mxv
 BYTE   W03
 BYTE   VOL   31*song01_mvl/mxv
 BYTE   W02
 BYTE   VOL   31*song01_mvl/mxv
 BYTE   W01
 BYTE   VOL   30*song01_mvl/mxv
 BYTE   W02
 BYTE   VOL   30*song01_mvl/mxv
 BYTE   W01
 BYTE   VOL   30*song01_mvl/mxv
 BYTE   W02
 BYTE   VOL   30*song01_mvl/mxv
 BYTE   W01
 BYTE   VOL   29*song01_mvl/mxv
 BYTE   W02
 BYTE   VOL   29*song01_mvl/mxv
 BYTE   W01
 BYTE   VOL   29*song01_mvl/mxv
 BYTE   W02
 BYTE   VOL   29*song01_mvl/mxv
 BYTE   W01
 BYTE   VOL   29*song01_mvl/mxv
 BYTE   W02
 BYTE   VOL   28*song01_mvl/mxv
 BYTE   W01
 BYTE   VOL   28*song01_mvl/mxv
 BYTE   W03
 BYTE   VOL   28*song01_mvl/mxv
 BYTE   W02
 BYTE   VOL   28*song01_mvl/mxv
 BYTE   W01
 BYTE   VOL   27*song01_mvl/mxv
 BYTE   W02
 BYTE   VOL   27*song01_mvl/mxv
 BYTE   W01
 BYTE   VOL   27*song01_mvl/mxv
 BYTE   W03
 BYTE   VOL   27*song01_mvl/mxv
 BYTE   W02
 BYTE   VOL   27*song01_mvl/mxv
 BYTE   W03
 BYTE   VOL   27*song01_mvl/mxv
 BYTE   W01
 BYTE   VOL   26*song01_mvl/mxv
 BYTE   W02
 BYTE   VOL   26*song01_mvl/mxv
 BYTE   W01
 BYTE   VOL   25*song01_mvl/mxv
 BYTE   W02
 BYTE   VOL   25*song01_mvl/mxv
 BYTE   W01
 BYTE   VOL   24*song01_mvl/mxv
 BYTE   W02
 BYTE   PEND 
//  #12 //006   ----------------------------------------
Label_01F90D3D:
 BYTE   VOL   23*song01_mvl/mxv
 BYTE   N96  Gn2  v096
 BYTE   W01
 BYTE   VOL   23*song01_mvl/mxv
 BYTE   W02
 BYTE   VOL   24*song01_mvl/mxv
 BYTE   W01
 BYTE   VOL   24*song01_mvl/mxv
 BYTE   W02
 BYTE   VOL   25*song01_mvl/mxv
 BYTE   W03
 BYTE   VOL   26*song01_mvl/mxv
 BYTE   W01
 BYTE   VOL   26*song01_mvl/mxv
 BYTE   W02
 BYTE   VOL   27*song01_mvl/mxv
 BYTE   W01
 BYTE   VOL   27*song01_mvl/mxv
 BYTE   W02
 BYTE   VOL   27*song01_mvl/mxv
 BYTE   W01
 BYTE   VOL   27*song01_mvl/mxv
 BYTE   W02
 BYTE   VOL   27*song01_mvl/mxv
 BYTE   W01
 BYTE   VOL   27*song01_mvl/mxv
 BYTE   W02
 BYTE   VOL   27*song01_mvl/mxv
 BYTE   W01
 BYTE   VOL   28*song01_mvl/mxv
 BYTE   W02
 BYTE   VOL   28*song01_mvl/mxv
 BYTE   W01
 BYTE   VOL   28*song01_mvl/mxv
 BYTE   W02
 BYTE   VOL   28*song01_mvl/mxv
 BYTE   W03
 BYTE   VOL   29*song01_mvl/mxv
 BYTE   W01
 BYTE   VOL   29*song01_mvl/mxv
 BYTE   W02
 BYTE   VOL   29*song01_mvl/mxv
 BYTE   W01
 BYTE   VOL   29*song01_mvl/mxv
 BYTE   W02
 BYTE   VOL   29*song01_mvl/mxv
 BYTE   W03
 BYTE   VOL   30*song01_mvl/mxv
 BYTE   W01
 BYTE   VOL   30*song01_mvl/mxv
 BYTE   W03
 BYTE   VOL   31*song01_mvl/mxv
 BYTE   W02
 BYTE   VOL   31*song01_mvl/mxv
 BYTE   W01
 BYTE   VOL   32*song01_mvl/mxv
 BYTE   W02
 BYTE   VOL   32*song01_mvl/mxv
 BYTE   W03
 BYTE   VOL   33*song01_mvl/mxv
 BYTE   W01
 BYTE   VOL   33*song01_mvl/mxv
 BYTE   W02
 BYTE   VOL   34*song01_mvl/mxv
 BYTE   W01
 BYTE   VOL   34*song01_mvl/mxv
 BYTE   W02
 BYTE   VOL   34*song01_mvl/mxv
 BYTE   W03
 BYTE   VOL   34*song01_mvl/mxv
 BYTE   W01
 BYTE   VOL   34*song01_mvl/mxv
 BYTE   W02
 BYTE   VOL   34*song01_mvl/mxv
 BYTE   W01
 BYTE   VOL   34*song01_mvl/mxv
 BYTE   W02
 BYTE   VOL   35*song01_mvl/mxv
 BYTE   W03
 BYTE   VOL   36*song01_mvl/mxv
 BYTE   W01
 BYTE   VOL   36*song01_mvl/mxv
 BYTE   W02
 BYTE   VOL   37*song01_mvl/mxv
 BYTE   W01
 BYTE   VOL   37*song01_mvl/mxv
 BYTE   W02
 BYTE   VOL   37*song01_mvl/mxv
 BYTE   W01
 BYTE   VOL   37*song01_mvl/mxv
 BYTE   W02
 BYTE   VOL   37*song01_mvl/mxv
 BYTE   W03
 BYTE   VOL   37*song01_mvl/mxv
 BYTE   W01
 BYTE   VOL   38*song01_mvl/mxv
 BYTE   W02
 BYTE   VOL   38*song01_mvl/mxv
 BYTE   W01
 BYTE   VOL   39*song01_mvl/mxv
 BYTE   W02
 BYTE   VOL   39*song01_mvl/mxv
 BYTE   W03
 BYTE   VOL   40*song01_mvl/mxv
 BYTE   W01
 BYTE   VOL   40*song01_mvl/mxv
 BYTE   W02
 BYTE   VOL   40*song01_mvl/mxv
 BYTE   W01
 BYTE   VOL   40*song01_mvl/mxv
 BYTE   W02
 BYTE   PEND 
//  #12 //007   ----------------------------------------
Label_01F90DE6:
 BYTE   VOL   41*song01_mvl/mxv
 BYTE   N96  An2  v096
 BYTE   W06
 BYTE   VOL   41*song01_mvl/mxv
 BYTE   W03
 BYTE   VOL   40*song01_mvl/mxv
 BYTE   W03
 BYTE   VOL   40*song01_mvl/mxv
 BYTE   W03
 BYTE   VOL   40*song01_mvl/mxv
 BYTE   W03
 BYTE   VOL   39*song01_mvl/mxv
 BYTE   W03
 BYTE   VOL   38*song01_mvl/mxv
 BYTE   W03
 BYTE   VOL   37*song01_mvl/mxv
 BYTE   W03
 BYTE   VOL   37*song01_mvl/mxv
 BYTE   W03
 BYTE   VOL   37*song01_mvl/mxv
 BYTE   W03
 BYTE   VOL   36*song01_mvl/mxv
 BYTE   W03
 BYTE   VOL   35*song01_mvl/mxv
 BYTE   W03
 BYTE   VOL   34*song01_mvl/mxv
 BYTE   W03
 BYTE   VOL   34*song01_mvl/mxv
 BYTE   W03
 BYTE   VOL   34*song01_mvl/mxv
 BYTE   W03
 BYTE   VOL   34*song01_mvl/mxv
 BYTE   W03
 BYTE   VOL   33*song01_mvl/mxv
 BYTE   W03
 BYTE   VOL   32*song01_mvl/mxv
 BYTE   W03
 BYTE   VOL   32*song01_mvl/mxv
 BYTE   W03
 BYTE   VOL   31*song01_mvl/mxv
 BYTE   W03
 BYTE   VOL   30*song01_mvl/mxv
 BYTE   W03
 BYTE   VOL   29*song01_mvl/mxv
 BYTE   W06
 BYTE   VOL   29*song01_mvl/mxv
 BYTE   W03
 BYTE   VOL   28*song01_mvl/mxv
 BYTE   W03
 BYTE   VOL   28*song01_mvl/mxv
 BYTE   W03
 BYTE   VOL   27*song01_mvl/mxv
 BYTE   W03
 BYTE   VOL   27*song01_mvl/mxv
 BYTE   W03
 BYTE   VOL   27*song01_mvl/mxv
 BYTE   W03
 BYTE   VOL   27*song01_mvl/mxv
 BYTE   W03
 BYTE   VOL   26*song01_mvl/mxv
 BYTE   W03
 BYTE   PEND 
//  #12 //008   ----------------------------------------
Label_01F90E44:
 BYTE   VOL   15*song01_mvl/mxv
 BYTE   TIE  An2  v124
 BYTE   W01
 BYTE   VOL   15*song01_mvl/mxv
 BYTE   W03
 BYTE   VOL   17*song01_mvl/mxv
 BYTE   W03
 BYTE   VOL   17*song01_mvl/mxv
 BYTE   W02
 BYTE   VOL   17*song01_mvl/mxv
 BYTE   W01
 BYTE   VOL   17*song01_mvl/mxv
 BYTE   W02
 BYTE   VOL   18*song01_mvl/mxv
 BYTE   W01
 BYTE   VOL   18*song01_mvl/mxv
 BYTE   W03
 BYTE   VOL   19*song01_mvl/mxv
 BYTE   W02
 BYTE   VOL   19*song01_mvl/mxv
 BYTE   W01
 BYTE   VOL   19*song01_mvl/mxv
 BYTE   W02
 BYTE   VOL   19*song01_mvl/mxv
 BYTE   W01
 BYTE   VOL   20*song01_mvl/mxv
 BYTE   W02
 BYTE   VOL   20*song01_mvl/mxv
 BYTE   W01
 BYTE   VOL   21*song01_mvl/mxv
 BYTE   W02
 BYTE   VOL   22*song01_mvl/mxv
 BYTE   W03
 BYTE   VOL   22*song01_mvl/mxv
 BYTE   W01
 BYTE   VOL   22*song01_mvl/mxv
 BYTE   W02
 BYTE   VOL   22*song01_mvl/mxv
 BYTE   W01
 BYTE   VOL   23*song01_mvl/mxv
 BYTE   W02
 BYTE   VOL   23*song01_mvl/mxv
 BYTE   W03
 BYTE   VOL   24*song01_mvl/mxv
 BYTE   W03
 BYTE   VOL   25*song01_mvl/mxv
 BYTE   W01
 BYTE   VOL   26*song01_mvl/mxv
 BYTE   W02
 BYTE   VOL   27*song01_mvl/mxv
 BYTE   W01
 BYTE   VOL   27*song01_mvl/mxv
 BYTE   W02
 BYTE   VOL   27*song01_mvl/mxv
 BYTE   W03
 BYTE   VOL   28*song01_mvl/mxv
 BYTE   W03
 BYTE   VOL   28*song01_mvl/mxv
 BYTE   W01
 BYTE   VOL   29*song01_mvl/mxv
 BYTE   W02
 BYTE   VOL   29*song01_mvl/mxv
 BYTE   W01
 BYTE   VOL   29*song01_mvl/mxv
 BYTE   W02
 BYTE   VOL   30*song01_mvl/mxv
 BYTE   W01
 BYTE   VOL   30*song01_mvl/mxv
 BYTE   W03
 BYTE   VOL   31*song01_mvl/mxv
 BYTE   W02
 BYTE   VOL   32*song01_mvl/mxv
 BYTE   W01
 BYTE   VOL   32*song01_mvl/mxv
 BYTE   W02
 BYTE   VOL   33*song01_mvl/mxv
 BYTE   W01
 BYTE   VOL   34*song01_mvl/mxv
 BYTE   W03
 BYTE   VOL   34*song01_mvl/mxv
 BYTE   W03
 BYTE   VOL   34*song01_mvl/mxv
 BYTE   W02
 BYTE   VOL   35*song01_mvl/mxv
 BYTE   W01
 BYTE   VOL   36*song01_mvl/mxv
 BYTE   W02
 BYTE   VOL   37*song01_mvl/mxv
 BYTE   W01
 BYTE   VOL   37*song01_mvl/mxv
 BYTE   W03
 BYTE   VOL   37*song01_mvl/mxv
 BYTE   W03
 BYTE   VOL   38*song01_mvl/mxv
 BYTE   W02
 BYTE   VOL   39*song01_mvl/mxv
 BYTE   W01
 BYTE   VOL   40*song01_mvl/mxv
 BYTE   W02
 BYTE   VOL   40*song01_mvl/mxv
 BYTE   W01
 BYTE   VOL   40*song01_mvl/mxv
 BYTE   W02
 BYTE   PEND 
//  #12 //009   ----------------------------------------
Label_01F90EE1:
 BYTE   VOL   40*song01_mvl/mxv
 BYTE   N96  Dn2  v096
 BYTE   W03
 BYTE   VOL   40*song01_mvl/mxv
 BYTE   W03
 BYTE   VOL   39*song01_mvl/mxv
 BYTE   W03
 BYTE   VOL   38*song01_mvl/mxv
 BYTE   W03
 BYTE   VOL   37*song01_mvl/mxv
 BYTE   W03
 BYTE   VOL   37*song01_mvl/mxv
 BYTE   W01
 BYTE   VOL   37*song01_mvl/mxv
 BYTE   W05
 BYTE   VOL   37*song01_mvl/mxv
 BYTE   W03
 BYTE   VOL   36*song01_mvl/mxv
 BYTE   W03
 BYTE   VOL   35*song01_mvl/mxv
 BYTE   W03
 BYTE   VOL   34*song01_mvl/mxv
 BYTE   W03
 BYTE   VOL   34*song01_mvl/mxv
 BYTE   W03
 BYTE   VOL   34*song01_mvl/mxv
 BYTE   W01
 BYTE   VOL   34*song01_mvl/mxv
 BYTE   W05
 BYTE   VOL   33*song01_mvl/mxv
 BYTE   W03
 BYTE   VOL   32*song01_mvl/mxv
 BYTE   W01
 BYTE   VOL   32*song01_mvl/mxv
 BYTE   W03
 BYTE   VOL   31*song01_mvl/mxv
 BYTE   W05
 BYTE   VOL   30*song01_mvl/mxv
 BYTE   W03
 BYTE   VOL   30*song01_mvl/mxv
 BYTE   W01
 BYTE   VOL   29*song01_mvl/mxv
 BYTE   W05
 BYTE   VOL   29*song01_mvl/mxv
 BYTE   W03
 BYTE   VOL   29*song01_mvl/mxv
 BYTE   W01
 BYTE   VOL   28*song01_mvl/mxv
 BYTE   W03
 BYTE   VOL   28*song01_mvl/mxv
 BYTE   W05
 BYTE   VOL   27*song01_mvl/mxv
 BYTE   W01
 BYTE   VOL   27*song01_mvl/mxv
 BYTE   W03
 BYTE   VOL   27*song01_mvl/mxv
 BYTE   W03
 BYTE   VOL   27*song01_mvl/mxv
 BYTE   W05
 BYTE   VOL   26*song01_mvl/mxv
 BYTE   W01
 BYTE   VOL   25*song01_mvl/mxv
 BYTE   W03
 BYTE   VOL   24*song01_mvl/mxv
 BYTE   W02
 BYTE   VOL   24*song01_mvl/mxv
 BYTE   W03
 BYTE   PEND 
//  #12 //010   ----------------------------------------
 BYTE   EOT
 BYTE   An2
 BYTE   N96  Cn2
 BYTE   N96  Gn2
 BYTE   N96  En3
 BYTE   W01
 BYTE   VOL   25*song01_mvl/mxv
 BYTE   W03
 BYTE   VOL   26*song01_mvl/mxv
 BYTE   W02
 BYTE   VOL   27*song01_mvl/mxv
 BYTE   W04
 BYTE   VOL   27*song01_mvl/mxv
 BYTE   W03
 BYTE   VOL   27*song01_mvl/mxv
 BYTE   W03
 BYTE   VOL   27*song01_mvl/mxv
 BYTE   W03
 BYTE   VOL   28*song01_mvl/mxv
 BYTE   W03
 BYTE   VOL   28*song01_mvl/mxv
 BYTE   W03
 BYTE   VOL   29*song01_mvl/mxv
 BYTE   W02
 BYTE   VOL   29*song01_mvl/mxv
 BYTE   W04
 BYTE   VOL   29*song01_mvl/mxv
 BYTE   W03
 BYTE   VOL   30*song01_mvl/mxv
 BYTE   W02
 BYTE   VOL   30*song01_mvl/mxv
 BYTE   W04
 BYTE   VOL   31*song01_mvl/mxv
 BYTE   W03
 BYTE   VOL   32*song01_mvl/mxv
 BYTE   W03
 BYTE   VOL   32*song01_mvl/mxv
 BYTE   W02
 BYTE   VOL   33*song01_mvl/mxv
 BYTE   W04
 BYTE   VOL   34*song01_mvl/mxv
 BYTE   W03
 BYTE   VOL   34*song01_mvl/mxv
 BYTE   W02
 BYTE   VOL   34*song01_mvl/mxv
 BYTE   W04
 BYTE   VOL   34*song01_mvl/mxv
 BYTE   W03
 BYTE   VOL   35*song01_mvl/mxv
 BYTE   W02
 BYTE   VOL   36*song01_mvl/mxv
 BYTE   W04
 BYTE   VOL   37*song01_mvl/mxv
 BYTE   W03
 BYTE   VOL   37*song01_mvl/mxv
 BYTE   W03
 BYTE   VOL   37*song01_mvl/mxv
 BYTE   W02
 BYTE   VOL   37*song01_mvl/mxv
 BYTE   W04
 BYTE   VOL   38*song01_mvl/mxv
 BYTE   W03
 BYTE   VOL   39*song01_mvl/mxv
 BYTE   W02
 BYTE   VOL   40*song01_mvl/mxv
 BYTE   W04
 BYTE   VOL   40*song01_mvl/mxv
 BYTE   W02
 BYTE   VOL   40*song01_mvl/mxv
 BYTE   W03
//  #12 //011   ----------------------------------------
Label_01F90FB1:
 BYTE   VOL   40*song01_mvl/mxv
 BYTE   N96  Dn2  v096
 BYTE   N96  Fs2
 BYTE   N96  Dn3
 BYTE   W03
 BYTE   VOL   39*song01_mvl/mxv
 BYTE   W01
 BYTE   VOL   38*song01_mvl/mxv
 BYTE   W03
 BYTE   VOL   37*song01_mvl/mxv
 BYTE   W03
 BYTE   VOL   37*song01_mvl/mxv
 BYTE   W02
 BYTE   VOL   37*song01_mvl/mxv
 BYTE   W03
 BYTE   VOL   37*song01_mvl/mxv
 BYTE   W03
 BYTE   VOL   36*song01_mvl/mxv
 BYTE   W03
 BYTE   VOL   35*song01_mvl/mxv
 BYTE   W03
 BYTE   VOL   34*song01_mvl/mxv
 BYTE   W03
 BYTE   VOL   34*song01_mvl/mxv
 BYTE   W01
 BYTE   VOL   34*song01_mvl/mxv
 BYTE   W03
 BYTE   VOL   34*song01_mvl/mxv
 BYTE   W03
 BYTE   VOL   33*song01_mvl/mxv
 BYTE   W03
 BYTE   VOL   32*song01_mvl/mxv
 BYTE   W02
 BYTE   VOL   32*song01_mvl/mxv
 BYTE   W03
 BYTE   VOL   31*song01_mvl/mxv
 BYTE   W03
 BYTE   VOL   30*song01_mvl/mxv
 BYTE   W03
 BYTE   VOL   30*song01_mvl/mxv
 BYTE   W01
 BYTE   VOL   29*song01_mvl/mxv
 BYTE   W03
 BYTE   VOL   29*song01_mvl/mxv
 BYTE   W03
 BYTE   VOL   29*song01_mvl/mxv
 BYTE   W02
 BYTE   VOL   28*song01_mvl/mxv
 BYTE   W03
 BYTE   VOL   28*song01_mvl/mxv
 BYTE   W03
 BYTE   VOL   27*song01_mvl/mxv
 BYTE   W01
 BYTE   VOL   27*song01_mvl/mxv
 BYTE   W03
 BYTE   VOL   27*song01_mvl/mxv
 BYTE   W03
 BYTE   VOL   27*song01_mvl/mxv
 BYTE   W03
 BYTE   VOL   26*song01_mvl/mxv
 BYTE   W03
 BYTE   VOL   25*song01_mvl/mxv
 BYTE   W02
 BYTE   VOL   24*song01_mvl/mxv
 BYTE   W03
 BYTE   VOL   23*song01_mvl/mxv
 BYTE   W03
 BYTE   VOL   23*song01_mvl/mxv
 BYTE   W03
 BYTE   VOL   23*song01_mvl/mxv
 BYTE   W03
 BYTE   VOL   23*song01_mvl/mxv
 BYTE   W01
 BYTE   VOL   23*song01_mvl/mxv
 BYTE   W02
 BYTE   VOL   23*song01_mvl/mxv
 BYTE   W03
 BYTE   PEND 
//  #12 //012   ----------------------------------------
 BYTE   PATT
  POIN2 Label_01F90E44
//  #12 //013   ----------------------------------------
 BYTE   PATT
  POIN2 Label_01F90EE1
//  #12 //014   ----------------------------------------
 BYTE   EOT
 BYTE   An2
Label_01F91034:
 BYTE   VOL   23*song01_mvl/mxv
 BYTE   N36  Ds2  v096
 BYTE   N36  As2
 BYTE   N36  Gn3
 BYTE   W01
 BYTE   VOL   23*song01_mvl/mxv
 BYTE   W03
 BYTE   VOL   24*song01_mvl/mxv
 BYTE   W02
 BYTE   VOL   25*song01_mvl/mxv
 BYTE   W04
 BYTE   VOL   27*song01_mvl/mxv
 BYTE   W02
 BYTE   VOL   27*song01_mvl/mxv
 BYTE   W01
 BYTE   VOL   27*song01_mvl/mxv
 BYTE   W03
 BYTE   VOL   27*song01_mvl/mxv
 BYTE   W03
 BYTE   VOL   27*song01_mvl/mxv
 BYTE   W03
 BYTE   VOL   28*song01_mvl/mxv
 BYTE   W02
 BYTE   VOL   28*song01_mvl/mxv
 BYTE   W01
 BYTE   VOL   28*song01_mvl/mxv
 BYTE   W02
 BYTE   VOL   28*song01_mvl/mxv
 BYTE   W04
 BYTE   VOL   29*song01_mvl/mxv
 BYTE   W03
 BYTE   VOL   29*song01_mvl/mxv
 BYTE   W02
 BYTE   VOL   30*song01_mvl/mxv
 BYTE   N60  Fn2
 BYTE   N60  Cn3
 BYTE   N60  An3
 BYTE   W01
 BYTE   VOL   30*song01_mvl/mxv
 BYTE   W03
 BYTE   VOL   30*song01_mvl/mxv
 BYTE   W02
 BYTE   VOL   31*song01_mvl/mxv
 BYTE   W01
 BYTE   VOL   31*song01_mvl/mxv
 BYTE   W03
 BYTE   VOL   32*song01_mvl/mxv
 BYTE   W02
 BYTE   VOL   32*song01_mvl/mxv
 BYTE   W01
 BYTE   VOL   33*song01_mvl/mxv
 BYTE   W03
 BYTE   VOL   34*song01_mvl/mxv
 BYTE   W03
 BYTE   VOL   34*song01_mvl/mxv
 BYTE   W02
 BYTE   VOL   34*song01_mvl/mxv
 BYTE   W01
 BYTE   VOL   34*song01_mvl/mxv
 BYTE   W02
 BYTE   VOL   34*song01_mvl/mxv
 BYTE   W01
 BYTE   VOL   34*song01_mvl/mxv
 BYTE   W02
 BYTE   VOL   34*song01_mvl/mxv
 BYTE   W01
 BYTE   VOL   35*song01_mvl/mxv
 BYTE   W02
 BYTE   VOL   36*song01_mvl/mxv
 BYTE   W01
 BYTE   VOL   36*song01_mvl/mxv
 BYTE   W03
 BYTE   VOL   37*song01_mvl/mxv
 BYTE   W02
 BYTE   VOL   37*song01_mvl/mxv
 BYTE   W01
 BYTE   VOL   37*song01_mvl/mxv
 BYTE   W03
 BYTE   VOL   37*song01_mvl/mxv
 BYTE   W02
 BYTE   VOL   37*song01_mvl/mxv
 BYTE   W04
 BYTE   VOL   38*song01_mvl/mxv
 BYTE   W02
 BYTE   VOL   39*song01_mvl/mxv
 BYTE   W01
 BYTE   VOL   40*song01_mvl/mxv
 BYTE   W02
 BYTE   VOL   40*song01_mvl/mxv
 BYTE   W04
 BYTE   VOL   40*song01_mvl/mxv
 BYTE   W02
 BYTE   VOL   41*song01_mvl/mxv
 BYTE   W03
 BYTE   PEND 
//  #12 //015   ----------------------------------------
 BYTE   PATT
  POIN2 Label_01F90FB1
//  #12 //016   ----------------------------------------
 BYTE   PATT
  POIN2 Label_01F91034
//  #12 //017   ----------------------------------------
 BYTE   PATT
  POIN2 Label_01F90FB1
//  #12 //018   ----------------------------------------
 BYTE   VOL   23*song01_mvl/mxv
 BYTE   W96
//  #12 //019   ----------------------------------------
 BYTE   W96
//  #12 //020   ----------------------------------------
 BYTE   W96
//  #12 //021   ----------------------------------------
 BYTE   W96
//  #12 //022   ----------------------------------------
 BYTE   W96
//  #12 //023   ----------------------------------------
 BYTE   W96
//  #12 //024   ----------------------------------------
 BYTE   W96
//  #12 //025   ----------------------------------------
 BYTE   W96
//  #12 //026   ----------------------------------------
 BYTE   W96
//  #12 //027   ----------------------------------------
 BYTE   W96
//  #12 //028   ----------------------------------------
 BYTE   PATT
  POIN2 Label_01F90E44
//  #12 //029   ----------------------------------------
 BYTE   PATT
  POIN2 Label_01F90AA4
//  #12 //030   ----------------------------------------
 BYTE   EOT
 BYTE   An2
//  #12 //031   ----------------------------------------
 BYTE   PATT
  POIN2 Label_01F90B0A
//  #12 //032   ----------------------------------------
 BYTE   PATT
  POIN2 Label_01F90B6F
//  #12 //033   ----------------------------------------
 BYTE   PATT
  POIN2 Label_01F90BE2
//  #12 //034   ----------------------------------------
 BYTE   PATT
  POIN2 Label_01F90C94
//  #12 //035   ----------------------------------------
 BYTE   PATT
  POIN2 Label_01F90D3D
//  #12 //036   ----------------------------------------
 BYTE   PATT
  POIN2 Label_01F90DE6
//  #12 //037   ----------------------------------------
 BYTE   GoTo
  POIN2 Label_01F90E44
 BYTE   FINE

//**************** Track 13 (Midi-Chn.12) ****************//

song01_013:
//  #13 //000   ----------------------------------------
 BYTE   KEYSH   song01_key+0
 BYTE   MODT 0
 BYTE   LFOS 44
 BYTE   VOICE   48
 BYTE   PAN   c_v+0
 BYTE   VOL   28*song01_mvl/mxv
 BYTE   BEND   c_v+0
 BYTE   W96
//  #13 //001   ----------------------------------------
 BYTE   W96
//  #13 //002   ----------------------------------------
 BYTE   W96
//  #13 //003   ----------------------------------------
 BYTE   W96
//  #13 //004   ----------------------------------------
 BYTE   W96
//  #13 //005   ----------------------------------------
 BYTE   W96
//  #13 //006   ----------------------------------------
 BYTE   W96
//  #13 //007   ----------------------------------------
 BYTE   W96
//  #13 //008   ----------------------------------------
Label_01F9112A:
 BYTE   N04  An2  v127
 BYTE   W06
 BYTE   N04
 BYTE   W06
 BYTE   N04
 BYTE   W06
 BYTE   N04
 BYTE   W06
 BYTE   An2  v060
 BYTE   W06
 BYTE   An2  v048
 BYTE   W06
 BYTE   An2  v036
 BYTE   W06
 BYTE   An2  v032
 BYTE   W54
 BYTE   PEND 
//  #13 //009   ----------------------------------------
Label_01F91141:
 BYTE   N04  Cn3  v127
 BYTE   W06
 BYTE   N04
 BYTE   W06
 BYTE   N04
 BYTE   W06
 BYTE   Dn3
 BYTE   W06
 BYTE   Dn3  v060
 BYTE   W06
 BYTE   Dn3  v048
 BYTE   W06
 BYTE   Dn3  v036
 BYTE   W06
 BYTE   Dn3  v032
 BYTE   W54
 BYTE   PEND 
//  #13 //010   ----------------------------------------
 BYTE   PATT
  POIN2 Label_01F9112A
//  #13 //011   ----------------------------------------
 BYTE   PATT
  POIN2 Label_01F91141
//  #13 //012   ----------------------------------------
 BYTE   PATT
  POIN2 Label_01F9112A
//  #13 //013   ----------------------------------------
 BYTE   PATT
  POIN2 Label_01F91141
//  #13 //014   ----------------------------------------
Label_01F9116C:
 BYTE   N04  Cn3  v127
 BYTE   W06
 BYTE   N04
 BYTE   W06
 BYTE   N04
 BYTE   W06
 BYTE   Dn3
 BYTE   W06
 BYTE   Dn3  v060
 BYTE   W06
 BYTE   Dn3  v048
 BYTE   W06
 BYTE   Fn3  v127
 BYTE   W06
 BYTE   N04
 BYTE   W06
 BYTE   N04
 BYTE   W06
 BYTE   Gn3
 BYTE   W06
 BYTE   Gn3  v060
 BYTE   W06
 BYTE   Gn3  v048
 BYTE   W06
 BYTE   Gn3  v036
 BYTE   W06
 BYTE   Gn3  v032
 BYTE   W18
 BYTE   PEND 
//  #13 //015   ----------------------------------------
 BYTE   W96
//  #13 //016   ----------------------------------------
 BYTE   PATT
  POIN2 Label_01F9116C
//  #13 //017   ----------------------------------------
 BYTE   W96
//  #13 //018   ----------------------------------------
 BYTE   N06  En3  v127
 BYTE   W06
 BYTE   En3  v036
 BYTE   W06
 BYTE   En3  v028
 BYTE   W06
 BYTE   Dn3  v127
 BYTE   W06
 BYTE   Dn3  v036
 BYTE   W06
 BYTE   Dn3  v028
 BYTE   W06
 BYTE   En3  v127
 BYTE   W06
 BYTE   En3  v036
 BYTE   W06
 BYTE   En3  v028
 BYTE   W06
 BYTE   Dn3  v127
 BYTE   W06
 BYTE   Dn3  v036
 BYTE   W06
 BYTE   Dn3  v028
 BYTE   W06
 BYTE   N18  Dn3  v127
 BYTE   W18
 BYTE   N06  Dn3  v036
 BYTE   W06
//  #13 //019   ----------------------------------------
 BYTE   En3  v127
 BYTE   W06
 BYTE   En3  v036
 BYTE   W06
 BYTE   En3  v028
 BYTE   W06
 BYTE   Dn3  v127
 BYTE   W06
 BYTE   Dn3  v036
 BYTE   W06
 BYTE   Dn3  v028
 BYTE   W06
 BYTE   En3  v127
 BYTE   W06
 BYTE   En3  v036
 BYTE   W06
 BYTE   En3  v028
 BYTE   W06
 BYTE   Dn3  v127
 BYTE   W06
 BYTE   Dn3  v036
 BYTE   W06
 BYTE   Dn3  v028
 BYTE   W06
 BYTE   N18  En3  v127
 BYTE   W18
 BYTE   N06  En3  v036
 BYTE   W06
//  #13 //020   ----------------------------------------
 BYTE   En3  v127
 BYTE   W06
 BYTE   En3  v036
 BYTE   N06  An3
 BYTE   N06  Dn4
 BYTE   W06
 BYTE   En3  v028
 BYTE   N06  An3
 BYTE   N06  Dn4
 BYTE   W06
 BYTE   Dn3  v127
 BYTE   W06
 BYTE   Dn3  v036
 BYTE   N06  Gn3
 BYTE   N06  Cn4
 BYTE   W06
 BYTE   Dn3  v028
 BYTE   N06  Gn3
 BYTE   N06  Cn4
 BYTE   W06
 BYTE   En3  v127
 BYTE   W06
 BYTE   En3  v036
 BYTE   N06  An3
 BYTE   N06  Dn4
 BYTE   W06
 BYTE   En3  v028
 BYTE   N06  An3
 BYTE   N06  Dn4
 BYTE   W06
 BYTE   Dn3  v127
 BYTE   W06
 BYTE   Dn3  v036
 BYTE   N06  Gn3
 BYTE   N06  Cn4
 BYTE   W06
 BYTE   Dn3  v028
 BYTE   N06  Gn3
 BYTE   N06  Cn4
 BYTE   W06
 BYTE   N18  En3  v127
 BYTE   W18
 BYTE   N06  En3  v036
 BYTE   N06  Gn3
 BYTE   N06  Bn3
 BYTE   W06
//  #13 //021   ----------------------------------------
 BYTE   En3  v127
 BYTE   W06
 BYTE   En3  v036
 BYTE   N06  An3
 BYTE   N06  Dn4
 BYTE   W06
 BYTE   En3  v028
 BYTE   N06  An3
 BYTE   N06  Dn4
 BYTE   W06
 BYTE   Dn3  v127
 BYTE   W06
 BYTE   Dn3  v036
 BYTE   N06  Gn3
 BYTE   N06  Cn4
 BYTE   W06
 BYTE   Dn3  v028
 BYTE   N06  Gn3
 BYTE   N06  Cn4
 BYTE   W06
 BYTE   En3  v127
 BYTE   W06
 BYTE   En3  v036
 BYTE   N06  An3
 BYTE   N06  Dn4
 BYTE   W06
 BYTE   En3  v028
 BYTE   N06  An3
 BYTE   N06  Dn4
 BYTE   W06
 BYTE   Dn3  v127
 BYTE   W06
 BYTE   Dn3  v036
 BYTE   N06  Gn3
 BYTE   N06  Cn4
 BYTE   W06
 BYTE   Dn3  v028
 BYTE   N06  Gn3
 BYTE   N06  Cn4
 BYTE   W06
 BYTE   N18  Bn3  v127
 BYTE   W18
 BYTE   N06  Bn3  v036
 BYTE   N06  En4
 BYTE   N06  Gn4
 BYTE   W06
//  #13 //022   ----------------------------------------
 BYTE   En3  v127
 BYTE   W06
 BYTE   En3  v036
 BYTE   N06  An3
 BYTE   N06  Dn4
 BYTE   W06
 BYTE   En3  v028
 BYTE   N06  An3
 BYTE   N06  Dn4
 BYTE   W06
 BYTE   Dn3  v127
 BYTE   W06
 BYTE   Dn3  v036
 BYTE   N06  Gn3
 BYTE   N06  Cn4
 BYTE   W06
 BYTE   Dn3  v028
 BYTE   N06  Gn3
 BYTE   N06  Cn4
 BYTE   W06
 BYTE   En3  v127
 BYTE   W06
 BYTE   En3  v036
 BYTE   N06  An3
 BYTE   N06  Dn4
 BYTE   W06
 BYTE   En3  v028
 BYTE   N06  An3
 BYTE   N06  Dn4
 BYTE   W06
 BYTE   Dn3  v127
 BYTE   W06
 BYTE   Dn3  v036
 BYTE   N06  Gn3
 BYTE   N06  Cn4
 BYTE   W06
 BYTE   Dn3  v028
 BYTE   N06  Gn3
 BYTE   N06  Cn4
 BYTE   W06
 BYTE   N18  Dn3  v127
 BYTE   W18
 BYTE   N06  Dn3  v036
 BYTE   N06  Gn3
 BYTE   N06  Bn3
 BYTE   W06
//  #13 //023   ----------------------------------------
 BYTE   En3  v127
 BYTE   W06
 BYTE   En3  v036
 BYTE   N06  An3
 BYTE   N06  Dn4
 BYTE   W06
 BYTE   En3  v028
 BYTE   N06  An3
 BYTE   N06  Dn4
 BYTE   W06
 BYTE   Dn3  v127
 BYTE   W06
 BYTE   Dn3  v036
 BYTE   N06  Gn3
 BYTE   N06  Cn4
 BYTE   W06
 BYTE   Dn3  v028
 BYTE   N06  Gn3
 BYTE   N06  Cn4
 BYTE   W06
 BYTE   En3  v127
 BYTE   W06
 BYTE   En3  v036
 BYTE   N06  An3
 BYTE   N06  Dn4
 BYTE   W06
 BYTE   En3  v028
 BYTE   N06  An3
 BYTE   N06  Dn4
 BYTE   W06
 BYTE   Dn3  v127
 BYTE   W06
 BYTE   Dn3  v036
 BYTE   N06  Gn3
 BYTE   N06  Cn4
 BYTE   W06
 BYTE   Dn3  v028
 BYTE   N06  Gn3
 BYTE   N06  Cn4
 BYTE   W06
 BYTE   N18  Fs3  v127
 BYTE   W18
 BYTE   N06  Fs3  v036
 BYTE   N06  An3
 BYTE   N06  Bn3
 BYTE   W06
//  #13 //024   ----------------------------------------
Label_01F91332:
 BYTE   N06  Gn3  v127
 BYTE   W06
 BYTE   Gn3  v036
 BYTE   N06  Cn4
 BYTE   N06  En4
 BYTE   W06
 BYTE   Gn3  v028
 BYTE   N06  Cn4
 BYTE   N06  En4
 BYTE   W06
 BYTE   Gn3  v127
 BYTE   W06
 BYTE   Gn3  v036
 BYTE   N06  Cn4
 BYTE   N06  En4
 BYTE   W06
 BYTE   Gn3  v028
 BYTE   N06  Cn4
 BYTE   N06  En4
 BYTE   W06
 BYTE   Fs3  v127
 BYTE   W06
 BYTE   Fs3  v036
 BYTE   N06  An3
 BYTE   N06  Dn4
 BYTE   W06
 BYTE   Fs3  v028
 BYTE   N06  An3
 BYTE   N06  Dn4
 BYTE   W06
 BYTE   Fs3  v127
 BYTE   W06
 BYTE   Fs3  v036
 BYTE   N06  An3
 BYTE   N06  Dn4
 BYTE   W06
 BYTE   Fs3  v028
 BYTE   N06  An3
 BYTE   N06  Dn4
 BYTE   W06
 BYTE   N18  Fs3  v127
 BYTE   W18
 BYTE   N06  Fs3  v036
 BYTE   N06  An3
 BYTE   N06  Dn4
 BYTE   W06
 BYTE   PEND 
//  #13 //025   ----------------------------------------
 BYTE   En3  v127
 BYTE   W06
 BYTE   En3  v036
 BYTE   N06  An3
 BYTE   N06  Dn4
 BYTE   W06
 BYTE   En3  v028
 BYTE   N06  An3
 BYTE   N06  Dn4
 BYTE   W06
 BYTE   En3  v127
 BYTE   W06
 BYTE   En3  v036
 BYTE   N06  An3
 BYTE   N06  Dn4
 BYTE   W06
 BYTE   En3  v028
 BYTE   N06  An3
 BYTE   N06  Dn4
 BYTE   W06
 BYTE   En3  v127
 BYTE   W06
 BYTE   En3  v036
 BYTE   N06  An3
 BYTE   N06  Dn4
 BYTE   W06
 BYTE   En3  v028
 BYTE   N06  An3
 BYTE   N06  Dn4
 BYTE   W06
 BYTE   En3  v127
 BYTE   W06
 BYTE   Dn3  v036
 BYTE   N06  Gn3
 BYTE   N06  Cn4
 BYTE   W06
 BYTE   Dn3  v028
 BYTE   N06  Gn3
 BYTE   N06  Cn4
 BYTE   W06
 BYTE   N18  Dn3  v127
 BYTE   W18
 BYTE   N06  Dn3  v036
 BYTE   N06  Gn3
 BYTE   N06  Cn4
 BYTE   W06
//  #13 //026   ----------------------------------------
 BYTE   PATT
  POIN2 Label_01F91332
//  #13 //027   ----------------------------------------
 BYTE   N06  En3  v127
 BYTE   W06
 BYTE   En3  v036
 BYTE   N06  An3
 BYTE   N06  Dn4
 BYTE   W06
 BYTE   En3  v028
 BYTE   N06  An3
 BYTE   N06  Dn4
 BYTE   W06
 BYTE   En3  v127
 BYTE   W06
 BYTE   En3  v036
 BYTE   N06  An3
 BYTE   N06  Dn4
 BYTE   W06
 BYTE   En3  v028
 BYTE   N06  An3
 BYTE   N06  Dn4
 BYTE   W06
 BYTE   En3  v127
 BYTE   W06
 BYTE   En3  v036
 BYTE   N06  An3
 BYTE   N06  Dn4
 BYTE   W06
 BYTE   En3  v028
 BYTE   N06  An3
 BYTE   N06  Dn4
 BYTE   W06
 BYTE   En3  v127
 BYTE   W06
 BYTE   En3  v036
 BYTE   N06  An3
 BYTE   N06  Dn4
 BYTE   W06
 BYTE   En3  v028
 BYTE   N06  An3
 BYTE   N06  Dn4
 BYTE   W06
 BYTE   N18  Dn3  v127
 BYTE   W18
 BYTE   N06  Dn3  v036
 BYTE   N06  Gn3
 BYTE   N06  Cn4
 BYTE   W06
//  #13 //028   ----------------------------------------
 BYTE   W96
//  #13 //029   ----------------------------------------
 BYTE   W96
//  #13 //030   ----------------------------------------
 BYTE   W96
//  #13 //031   ----------------------------------------
 BYTE   W96
//  #13 //032   ----------------------------------------
 BYTE   W96
//  #13 //033   ----------------------------------------
 BYTE   W96
//  #13 //034   ----------------------------------------
 BYTE   W96
//  #13 //035   ----------------------------------------
 BYTE   W96
//  #13 //036   ----------------------------------------
 BYTE   GoTo
  POIN2 Label_01F9112A
 BYTE   FINE

//**************** Track 14 (Midi-Chn.13) ****************//

song01_014:
//  #14 //000   ----------------------------------------
 BYTE   KEYSH   song01_key+0
 BYTE   MODT 0
 BYTE   LFOS 44
 BYTE   VOICE   39
 BYTE   PAN   c_v+0
 BYTE   VOL   49*song01_mvl/mxv
 BYTE   BEND   c_v+0
 BYTE   W96
//  #14 //001   ----------------------------------------
 BYTE   W96
//  #14 //002   ----------------------------------------
 BYTE   W96
//  #14 //003   ----------------------------------------
 BYTE   W96
//  #14 //004   ----------------------------------------
Label_70471A:
 BYTE   N04  An0  v127
 BYTE   W06
 BYTE   N04
 BYTE   W06
 BYTE   N04
 BYTE   W06
 BYTE   N04
 BYTE   W18
 BYTE   N12
 BYTE   W24
 BYTE   N12
 BYTE   W24
 BYTE   N06  An0  v052
 BYTE   W06
 BYTE   En0  v060
 BYTE   W06
 BYTE   PEND 
//  #14 //005   ----------------------------------------
 BYTE   PATT
  POIN2 Label_70471A
//  #14 //006   ----------------------------------------
 BYTE   PATT
  POIN2 Label_70471A
//  #14 //007   ----------------------------------------
 BYTE   PATT
  POIN2 Label_70471A
//  #14 //008   ----------------------------------------
Label_70473F:
//  #14 //009   ----------------------------------------
 BYTE   PATT
  POIN2 Label_70471A
//  #14 //010   ----------------------------------------
 BYTE   PATT
  POIN2 Label_70471A
//  #14 //011   ----------------------------------------
 BYTE   PATT
  POIN2 Label_70471A
//  #14 //012   ----------------------------------------
 BYTE   PATT
  POIN2 Label_70471A
//  #14 //013   ----------------------------------------
 BYTE   PATT
  POIN2 Label_70471A
//  #14 //014   ----------------------------------------
 BYTE   PATT
  POIN2 Label_70471A
//  #14 //015   ----------------------------------------
Label_70475D:
 BYTE   N04  Cn1  v127
 BYTE   W06
 BYTE   N04
 BYTE   W06
 BYTE   N04
 BYTE   W06
 BYTE   N04
 BYTE   W12
 BYTE   N06
 BYTE   W06
 BYTE   N04  Dn1
 BYTE   W06
 BYTE   N04
 BYTE   W06
 BYTE   N04
 BYTE   W06
 BYTE   N04
 BYTE   W12
 BYTE   N06
 BYTE   W06
 BYTE   Cn1
 BYTE   W06
 BYTE   Dn1
 BYTE   W06
 BYTE   Fn1
 BYTE   W06
 BYTE   Dn1
 BYTE   W06
 BYTE   PEND 
//  #14 //016   ----------------------------------------
Label_70477D:
 BYTE   N04  An0  v127
 BYTE   W06
 BYTE   N04
 BYTE   W06
 BYTE   N04
 BYTE   W06
 BYTE   N04
 BYTE   W12
 BYTE   N06
 BYTE   W06
 BYTE   Gn0
 BYTE   W06
 BYTE   An0
 BYTE   W12
 BYTE   Cn1
 BYTE   W06
 BYTE   An0
 BYTE   W12
 BYTE   Dn1
 BYTE   W06
 BYTE   N12  An0
 BYTE   W12
 BYTE   N06  En0  v060
 BYTE   W06
 BYTE   PEND 
//  #14 //017   ----------------------------------------
 BYTE   PATT
  POIN2 Label_70475D
//  #14 //018   ----------------------------------------
 BYTE   PATT
  POIN2 Label_70477D
//  #14 //019   ----------------------------------------
 BYTE   PATT
  POIN2 Label_70471A
//  #14 //020   ----------------------------------------
 BYTE   PATT
  POIN2 Label_70471A
//  #14 //021   ----------------------------------------
 BYTE   PATT
  POIN2 Label_70471A
//  #14 //022   ----------------------------------------
 BYTE   PATT
  POIN2 Label_70471A
//  #14 //023   ----------------------------------------
 BYTE   PATT
  POIN2 Label_70471A
//  #14 //024   ----------------------------------------
 BYTE   PATT
  POIN2 Label_70471A
//  #14 //025   ----------------------------------------
 BYTE   PATT
  POIN2 Label_70475D
//  #14 //026   ----------------------------------------
 BYTE   PATT
  POIN2 Label_70477D
//  #14 //027   ----------------------------------------
 BYTE   PATT
  POIN2 Label_70475D
//  #14 //028   ----------------------------------------
 BYTE   PATT
  POIN2 Label_70477D
//  #14 //029   ----------------------------------------
 BYTE   PATT
  POIN2 Label_70471A
//  #14 //030   ----------------------------------------
 BYTE   PATT
  POIN2 Label_70471A
//  #14 //031   ----------------------------------------
 BYTE   PATT
  POIN2 Label_70471A
//  #14 //032   ----------------------------------------
 BYTE   PATT
  POIN2 Label_70471A
//  #14 //033   ----------------------------------------
 BYTE   PATT
  POIN2 Label_70471A
//  #14 //034   ----------------------------------------
 BYTE   PATT
  POIN2 Label_70471A
//  #14 //035   ----------------------------------------
 BYTE   PATT
  POIN2 Label_70471A
//  #14 //036   ----------------------------------------
 BYTE   PATT
  POIN2 Label_70471A
//  #14 //037   ----------------------------------------
 BYTE   GoTo
  POIN2 Label_70473F
 BYTE   FINE

//******************************************************//
	ALIGN 4

FortuneRavine:
	BYTE	14	// NumTrks
	BYTE	0	// NumBlks
	BYTE	song01_pri	// Priority
	BYTE	song01_rev	// Reverb.
    
	POIN2	song01_grp
    
	POIN2	song01_001
	POIN2	song01_002
	POIN2	song01_003
	POIN2	song01_004
	POIN2	song01_005
	POIN2	song01_006
	POIN2	song01_007
	POIN2	song01_008
	POIN2	song01_009
	POIN2	song01_010
	POIN2	song01_011
	POIN2	song01_012
	POIN2	song01_013
	POIN2	song01_014

	
