//Event file generated from Sappy .s format.
        #include "MPlayDef.event"

        #define    LightingTemple_grp  voicegroup000
        #define    LightingTemple_pri  0
        #define    LightingTemple_rev  0
        #define    LightingTemple_key  0

        // .rodata
        // LightingTemple
        ALIGN 4

//****************** Track 0 (Midi-Chn.0) ******************//

LightingTemple_0:
        BYTE   KEYSH   LightingTemple_key+0
// 000   ----------------------------------------
        BYTE   TEMPO   116/2
        BYTE           VOICE   47
        BYTE           VOL     63
        BYTE           PAN     c_v-32
        BYTE           N12     Fs1   v123
        BYTE   W36
        BYTE                   Fs1
        BYTE   W12
        BYTE                   Bn1
        BYTE   W24
        BYTE                   Bn1
        BYTE   W24
// 001   ----------------------------------------
        BYTE                   En1
        BYTE   W36
        BYTE                   En1
        BYTE   W12
        BYTE                   An1
        BYTE   W24
        BYTE                   An1
        BYTE   W24
// 002   ----------------------------------------
        BYTE                   Dn2
        BYTE   W36
        BYTE                   Dn2
        BYTE   W12
        BYTE                   Gn1
        BYTE   W24
        BYTE                   Gn1
        BYTE   W24
// 003   ----------------------------------------
        BYTE   TEMPO   110/2
        BYTE                   Cs2
        BYTE   W24
        BYTE   TEMPO   90/2
        BYTE                   Gs1
        BYTE   W24
        BYTE   TEMPO   70/2
        BYTE                   Cs1
        BYTE   W24
        BYTE   TEMPO   50/2
        BYTE   W12
        BYTE           N06     Cs2
        BYTE   W06
        BYTE                   Cs2
        BYTE   W06
// 004   ----------------------------------------
        BYTE   TEMPO   160/2
LightingTemple_0_LOOP:
        BYTE           N12     Fs1   v123
        BYTE   W96
// 005   ----------------------------------------
        BYTE   W96
// 006   ----------------------------------------
        BYTE   W96
// 007   ----------------------------------------
        BYTE   W96
// 008   ----------------------------------------
        BYTE   W96
// 009   ----------------------------------------
        BYTE   W96
// 010   ----------------------------------------
        BYTE   W96
// 011   ----------------------------------------
LightingTemple_0_11:
        BYTE   W72
        BYTE           N06     Fs1   v123
        BYTE   W06
        BYTE                   Fs1
        BYTE   W06
        BYTE                   Fs1
        BYTE   W06
        BYTE                   Fs1
        BYTE   W06
        BYTE   PEND
// 012   ----------------------------------------
        BYTE           N12     Bn1
        BYTE   W96
// 013   ----------------------------------------
        BYTE   W96
// 014   ----------------------------------------
        BYTE   W96
// 015   ----------------------------------------
LightingTemple_0_15:
        BYTE   W72
        BYTE           N06     An1   v123
        BYTE   W06
        BYTE                   An1
        BYTE   W06
        BYTE                   An1
        BYTE   W12
        BYTE   PEND
// 016   ----------------------------------------
        BYTE                   Dn2
        BYTE   W96
// 017   ----------------------------------------
        BYTE   W96
// 018   ----------------------------------------
        BYTE   W96
// 019   ----------------------------------------
LightingTemple_0_19:
        BYTE   W72
        BYTE           N06     Cs2   v123
        BYTE   W06
        BYTE                   Cs2
        BYTE   W06
        BYTE                   Cs2
        BYTE   W12
        BYTE   PEND
// 020   ----------------------------------------
        BYTE                   Fs1
        BYTE   W96
// 021   ----------------------------------------
        BYTE   W96
// 022   ----------------------------------------
LightingTemple_0_22:
        BYTE           N06     Gn1   v123
        BYTE   W48
        BYTE                   Cs2
        BYTE   W48
        BYTE   PEND
// 023   ----------------------------------------
LightingTemple_0_23:
        BYTE           N06     Fs1   v123
        BYTE   W72
        BYTE                   Bn1
        BYTE   W06
        BYTE                   Bn1
        BYTE   W06
        BYTE                   Bn1
        BYTE   W12
        BYTE   PEND
// 024   ----------------------------------------
LightingTemple_0_24:
        BYTE           N06     En1   v123
        BYTE   W72
        BYTE                   En1
        BYTE   W12
        BYTE                   En1
        BYTE   W12
        BYTE   PEND
// 025   ----------------------------------------
LightingTemple_0_25:
        BYTE           N06     Fs1   v123
        BYTE   W24
        BYTE                   Fs1
        BYTE   W48
        BYTE                   Fs1
        BYTE   W24
        BYTE   PEND
// 026   ----------------------------------------
        BYTE                   Bn0
        BYTE   W96
// 027   ----------------------------------------
        BYTE   PATT
         POIN2  LightingTemple_0_11
// 028   ----------------------------------------
LightingTemple_0_28:
        BYTE           N06     Bn1   v123
        BYTE   W24
        BYTE                   Bn1
        BYTE   W48
        BYTE                   Bn1
        BYTE   W24
        BYTE   PEND
// 029   ----------------------------------------
        BYTE   PATT
         POIN2  LightingTemple_0_28
// 030   ----------------------------------------
        BYTE   PATT
         POIN2  LightingTemple_0_28
// 031   ----------------------------------------
LightingTemple_0_31:
        BYTE           N06     Bn1   v123
        BYTE   W48
        BYTE                   Fs1
        BYTE   W48
        BYTE   PEND
// 032   ----------------------------------------
LightingTemple_0_32:
        BYTE           N06     Gn1   v123
        BYTE   W24
        BYTE                   Gn1
        BYTE   W48
        BYTE                   Gn1
        BYTE   W24
        BYTE   PEND
// 033   ----------------------------------------
LightingTemple_0_33:
        BYTE           N06     Cs2   v123
        BYTE   W24
        BYTE                   Cs2
        BYTE   W48
        BYTE                   Cs2
        BYTE   W24
        BYTE   PEND
// 034   ----------------------------------------
        BYTE   PATT
         POIN2  LightingTemple_0_25
// 035   ----------------------------------------
LightingTemple_0_35:
        BYTE           N06     Fs1   v123
        BYTE   W48
        BYTE                   Fs1
        BYTE   W48
        BYTE   PEND
// 036   ----------------------------------------
LightingTemple_0_36:
        BYTE           N06     Bn1   v123
        BYTE   W72
        BYTE                   Bn1
        BYTE   W24
        BYTE   PEND
// 037   ----------------------------------------
        BYTE                   En2
        BYTE   W96
// 038   ----------------------------------------
LightingTemple_0_38:
        BYTE           N06     An1   v123
        BYTE   W72
        BYTE                   An1
        BYTE   W12
        BYTE                   An1
        BYTE   W12
        BYTE   PEND
// 039   ----------------------------------------
        BYTE                   Dn2
        BYTE   W96
// 040   ----------------------------------------
        BYTE                   Gn1
        BYTE   W96
// 041   ----------------------------------------
LightingTemple_0_41:
        BYTE           N06     Cs2   v123
        BYTE   W72
        BYTE                   Cs2
        BYTE   W08
        BYTE                   Cs2
        BYTE   W08
        BYTE                   Cs2
        BYTE   W08
        BYTE   PEND
// 042   ----------------------------------------
        BYTE                   Fs1
        BYTE   W96
// 043   ----------------------------------------
        BYTE   PATT
         POIN2  LightingTemple_0_35
// 044   ----------------------------------------
        BYTE           N12     Fs1   v123
        BYTE   GoTo
         POIN2  LightingTemple_0_LOOP
        BYTE   W96
// 045   ----------------------------------------
        BYTE   W96
// 046   ----------------------------------------
        BYTE   W96
// 047   ----------------------------------------
        BYTE   W96
// 048   ----------------------------------------
        BYTE   W96
// 049   ----------------------------------------
        BYTE   W96
// 050   ----------------------------------------
        BYTE   W96
// 051   ----------------------------------------
        BYTE   PATT
         POIN2  LightingTemple_0_11
// 052   ----------------------------------------
        BYTE           N12     Bn1   v123
        BYTE   W96
// 053   ----------------------------------------
        BYTE   W96
// 054   ----------------------------------------
        BYTE   W96
// 055   ----------------------------------------
        BYTE   PATT
         POIN2  LightingTemple_0_15
// 056   ----------------------------------------
        BYTE           N06     Dn2   v123
        BYTE   W96
// 057   ----------------------------------------
        BYTE   W96
// 058   ----------------------------------------
        BYTE   W96
// 059   ----------------------------------------
        BYTE   PATT
         POIN2  LightingTemple_0_19
// 060   ----------------------------------------
        BYTE           N06     Fs1   v123
        BYTE   W96
// 061   ----------------------------------------
        BYTE   W96
// 062   ----------------------------------------
        BYTE   PATT
         POIN2  LightingTemple_0_22
// 063   ----------------------------------------
        BYTE   PATT
         POIN2  LightingTemple_0_23
// 064   ----------------------------------------
        BYTE   PATT
         POIN2  LightingTemple_0_24
// 065   ----------------------------------------
        BYTE   PATT
         POIN2  LightingTemple_0_25
// 066   ----------------------------------------
        BYTE           N06     Bn0   v123
        BYTE   W96
// 067   ----------------------------------------
        BYTE   PATT
         POIN2  LightingTemple_0_11
// 068   ----------------------------------------
        BYTE   PATT
         POIN2  LightingTemple_0_28
// 069   ----------------------------------------
        BYTE   PATT
         POIN2  LightingTemple_0_28
// 070   ----------------------------------------
        BYTE   PATT
         POIN2  LightingTemple_0_28
// 071   ----------------------------------------
        BYTE   PATT
         POIN2  LightingTemple_0_31
// 072   ----------------------------------------
        BYTE   PATT
         POIN2  LightingTemple_0_32
// 073   ----------------------------------------
        BYTE   PATT
         POIN2  LightingTemple_0_33
// 074   ----------------------------------------
        BYTE   PATT
         POIN2  LightingTemple_0_25
// 075   ----------------------------------------
        BYTE   PATT
         POIN2  LightingTemple_0_35
// 076   ----------------------------------------
        BYTE   PATT
         POIN2  LightingTemple_0_36
// 077   ----------------------------------------
        BYTE           N06     En2   v123
        BYTE   W96
// 078   ----------------------------------------
        BYTE   PATT
         POIN2  LightingTemple_0_38
// 079   ----------------------------------------
        BYTE           N06     Dn2   v123
        BYTE   W96
// 080   ----------------------------------------
        BYTE                   Gn1
        BYTE   W96
// 081   ----------------------------------------
        BYTE   PATT
         POIN2  LightingTemple_0_41
// 082   ----------------------------------------
        BYTE           N06     Fs1   v123
        BYTE   W96
// 083   ----------------------------------------
        BYTE   PATT
         POIN2  LightingTemple_0_35
// 084   ----------------------------------------
        BYTE           N12     Fs1   v123
        BYTE   W96
// 085   ----------------------------------------
        BYTE   W96
// 086   ----------------------------------------
LightingTemple_0_86:
        BYTE   W07
        BYTE           VOL     62
        BYTE   W08
        BYTE                   61
        BYTE   W22
        BYTE                   60
        BYTE   W08
        BYTE                   59
        BYTE   W15
        BYTE                   58
        BYTE   W08
        BYTE                   57
        BYTE   W22
        BYTE                   56
        BYTE   W06
        BYTE   PEND
// 087   ----------------------------------------
LightingTemple_0_87:
        BYTE   W09
        BYTE           VOL     55
        BYTE   W08
        BYTE                   54
        BYTE   W15
        BYTE                   53
        BYTE   W08
        BYTE                   52
        BYTE   W36
        BYTE   W01
        BYTE                   51
        BYTE   W08
        BYTE                   50
        BYTE   W11
        BYTE   PEND
// 088   ----------------------------------------
LightingTemple_0_88:
        BYTE   W04
        BYTE           VOL     49
        BYTE   W23
        BYTE                   48
        BYTE   W07
        BYTE                   47
        BYTE   W15
        BYTE                   46
        BYTE   W08
        BYTE                   45
        BYTE   W23
        BYTE                   44
        BYTE   W07
        BYTE                   43
        BYTE   W09
        BYTE   PEND
// 089   ----------------------------------------
LightingTemple_0_89:
        BYTE   W06
        BYTE           VOL     42
        BYTE   W30
        BYTE   W01
        BYTE                   41
        BYTE   W15
        BYTE                   40
        BYTE   W07
        BYTE                   39
        BYTE   W15
        BYTE                   38
        BYTE   W22
        BYTE   PEND
// 090   ----------------------------------------
LightingTemple_0_90:
        BYTE   W01
        BYTE           VOL     37
        BYTE   W08
        BYTE                   36
        BYTE   W15
        BYTE                   35
        BYTE   W07
        BYTE                   34
        BYTE   W15
        BYTE                   33
        BYTE   W23
        BYTE                   32
        BYTE   W08
        BYTE                   31
        BYTE   W19
        BYTE   PEND
// 091   ----------------------------------------
        BYTE   W03
        BYTE                   30
        BYTE   W23
        BYTE                   29
        BYTE   W08
        BYTE                   28
        BYTE   W15
        BYTE                   27
        BYTE   W07
        BYTE                   26
        BYTE   W16
        BYTE           N06     Fs1   v123
        BYTE   W06
        BYTE                   Fs1
        BYTE   W01
        BYTE           VOL     25
        BYTE   W05
        BYTE           N06
        BYTE   W06
        BYTE                   Fs1
        BYTE   W04
        BYTE           VOL     24
        BYTE   W02
// 092   ----------------------------------------
        BYTE           N12     Bn1
        BYTE   W06
        BYTE           VOL     23
        BYTE   W15
        BYTE                   22
        BYTE   W22
        BYTE                   21
        BYTE   W23
        BYTE                   20
        BYTE   W08
        BYTE                   19
        BYTE   W22
// 093   ----------------------------------------
        BYTE                   18
        BYTE   W15
        BYTE                   17
        BYTE   W08
        BYTE                   16
        BYTE   W15
        BYTE                   15
        BYTE   W08
        BYTE                   14
        BYTE   W22
        BYTE                   13
        BYTE   W08
        BYTE                   12
        BYTE   W15
        BYTE                   11
        BYTE   W05
// 094   ----------------------------------------
        BYTE   W03
        BYTE                   10
        BYTE   W36
        BYTE   W01
        BYTE                   9
        BYTE   W08
        BYTE                   8
        BYTE   W15
        BYTE                   7
        BYTE   W23
        BYTE                   6
        BYTE   W07
        BYTE                   5
        BYTE   W03
// 095   ----------------------------------------
        BYTE   W12
        BYTE                   4
        BYTE   W08
        BYTE                   3
        BYTE   W23
        BYTE                   2
        BYTE   W15
        BYTE                   1
        BYTE   W07
        BYTE                   0
        BYTE   W07
        BYTE           N06     An1
        BYTE   W06
        BYTE                   An1
        BYTE   W06
        BYTE                   An1
        BYTE   W12
// 096   ----------------------------------------
        BYTE   FINE

//****************** Track 1 (Midi-Chn.1) ******************//

LightingTemple_1:
        BYTE   KEYSH   LightingTemple_key+0
// 000   ----------------------------------------
        BYTE           VOICE   56
        BYTE           VOL     63
        BYTE           PAN     c_v+32
        BYTE           N48     Fs1   v100
        BYTE   W48
        BYTE           N12     Bn1
        BYTE   W12
        BYTE                   Cs2
        BYTE   W12
        BYTE                   Dn2
        BYTE   W12
        BYTE                   Fs2
        BYTE   W12
// 001   ----------------------------------------
LightingTemple_1_1:
        BYTE           N24     En2   v100
        BYTE   W24
        BYTE           N12     Bn1
        BYTE   W12
        BYTE                   Dn2
        BYTE   W12
        BYTE           N24     Cs2
        BYTE   W24
        BYTE                   An1
        BYTE   W24
        BYTE   PEND
// 002   ----------------------------------------
LightingTemple_1_2:
        BYTE           N36     Dn2   v100
        BYTE   W36
        BYTE           N12     Cs2
        BYTE   W12
        BYTE                   Bn1
        BYTE   W12
        BYTE                   Cs2
        BYTE   W12
        BYTE                   Dn2
        BYTE   W12
        BYTE                   Bn1
        BYTE   W12
        BYTE   PEND
// 003   ----------------------------------------
LightingTemple_1_3:
        BYTE           N24     Cs2   v100
        BYTE   W24
        BYTE                   Fs2
        BYTE   W24
        BYTE           N48     Gs2
        BYTE   W48
        BYTE   PEND
// 004   ----------------------------------------
LightingTemple_1_LOOP:
        BYTE           N24     Fs1   v100
        BYTE   W24
        BYTE           N12     Gs1
        BYTE   W12
        BYTE                   An1
        BYTE   W12
        BYTE           N24     Gs1
        BYTE   W24
        BYTE                   Fs1
        BYTE   W24
// 005   ----------------------------------------
LightingTemple_1_5:
        BYTE           N24     Fn1   v100
        BYTE   W24
        BYTE           N12     Fs1
        BYTE   W12
        BYTE                   Gs1
        BYTE   W12
        BYTE           N36     Cs2
        BYTE   W36
        BYTE           N12     Bn1
        BYTE   W12
        BYTE   PEND
// 006   ----------------------------------------
LightingTemple_1_6:
        BYTE           N24     An1   v100
        BYTE   W24
        BYTE           N12     Bn1
        BYTE   W12
        BYTE                   Cs2
        BYTE   W12
        BYTE           N24     Bn1
        BYTE   W24
        BYTE                   An1
        BYTE   W24
        BYTE   PEND
// 007   ----------------------------------------
LightingTemple_1_7:
        BYTE           N24     Gn1   v100
        BYTE   W24
        BYTE           N12     An1
        BYTE   W12
        BYTE                   Bn1
        BYTE   W12
        BYTE           N48     En2
        BYTE   W48
        BYTE   PEND
// 008   ----------------------------------------
LightingTemple_1_8:
        BYTE           N24     Cs2   v100
        BYTE   W24
        BYTE           N12     Gs2
        BYTE   W12
        BYTE                   Fs2
        BYTE   W12
        BYTE           N24     Cs2
        BYTE   W24
        BYTE           N12     En2
        BYTE   W12
        BYTE                   Dn2
        BYTE   W12
        BYTE   PEND
// 009   ----------------------------------------
LightingTemple_1_9:
        BYTE           N24     Bn1   v100
        BYTE   W24
        BYTE           N12     Cs2
        BYTE   W12
        BYTE                   Dn2
        BYTE   W12
        BYTE           N24     Gs1
        BYTE   W24
        BYTE                   Cs2
        BYTE   W24
        BYTE   PEND
// 010   ----------------------------------------
LightingTemple_1_10:
        BYTE           N24     An1   v100
        BYTE   W24
        BYTE           N12     Gs1
        BYTE   W12
        BYTE                   Fs1
        BYTE   W12
        BYTE           N24     Gs1
        BYTE   W24
        BYTE                   En1
        BYTE   W24
        BYTE   PEND
// 011   ----------------------------------------
LightingTemple_1_11:
        BYTE           N48     Fs1   v100
        BYTE   W48
        BYTE                   As1
        BYTE   W48
        BYTE   PEND
// 012   ----------------------------------------
LightingTemple_1_12:
        BYTE           N48     Bn0   v100
        BYTE   W48
        BYTE           N24     Cs1
        BYTE   W24
        BYTE                   Dn1
        BYTE   W24
        BYTE   PEND
// 013   ----------------------------------------
LightingTemple_1_13:
        BYTE           N48     Cs1   v100
        BYTE   W48
        BYTE                   Bn0
        BYTE   W48
        BYTE   PEND
// 014   ----------------------------------------
LightingTemple_1_14:
        BYTE           N48     An0   v100
        BYTE   W48
        BYTE                   Cs1
        BYTE   W48
        BYTE   PEND
// 015   ----------------------------------------
LightingTemple_1_15:
        BYTE           N72     Fs0   v100
        BYTE   W72
        BYTE           N24     An0
        BYTE   W24
        BYTE   PEND
// 016   ----------------------------------------
LightingTemple_1_16:
        BYTE           N48     Dn1   v100
        BYTE   W48
        BYTE           N24     En1
        BYTE   W24
        BYTE                   Fs1
        BYTE   W24
        BYTE   PEND
// 017   ----------------------------------------
LightingTemple_1_17:
        BYTE           N48     En1   v100
        BYTE   W48
        BYTE                   Dn1
        BYTE   W48
        BYTE   PEND
// 018   ----------------------------------------
LightingTemple_1_18:
        BYTE           N48     Cn1   v100
        BYTE   W48
        BYTE                   En1
        BYTE   W48
        BYTE   PEND
// 019   ----------------------------------------
LightingTemple_1_19:
        BYTE           N48     An1   v100
        BYTE   W72
        BYTE           N24     En1
        BYTE   W24
        BYTE   PEND
// 020   ----------------------------------------
LightingTemple_1_20:
        BYTE           N48     Fs1   v100
        BYTE   W48
        BYTE                   An1
        BYTE   W48
        BYTE   PEND
// 021   ----------------------------------------
LightingTemple_1_21:
        BYTE           N48     Bn1   v100
        BYTE   W48
        BYTE           N24     Fs1
        BYTE   W24
        BYTE                   An1
        BYTE   W24
        BYTE   PEND
// 022   ----------------------------------------
LightingTemple_1_22:
        BYTE           N48     Gn1   v100
        BYTE   W48
        BYTE                   En1
        BYTE   W48
        BYTE   PEND
// 023   ----------------------------------------
LightingTemple_1_23:
        BYTE           N48     Fs1   v100
        BYTE   W48
        BYTE           N24     Cs1
        BYTE   W24
        BYTE                   Dn1
        BYTE   W24
        BYTE   PEND
// 024   ----------------------------------------
LightingTemple_1_24:
        BYTE           N48     En1   v100
        BYTE   W48
        BYTE           N24     Dn1
        BYTE   W24
        BYTE                   Cs1
        BYTE   W24
        BYTE   PEND
// 025   ----------------------------------------
LightingTemple_1_25:
        BYTE           N48     Bn0   v100
        BYTE   W48
        BYTE                   Fs0
        BYTE   W48
        BYTE   PEND
// 026   ----------------------------------------
        BYTE           TIE     BnM1
        BYTE   W96
// 027   ----------------------------------------
        BYTE   W72
        BYTE           EOT
        BYTE   W24
// 028   ----------------------------------------
        BYTE   W96
// 029   ----------------------------------------
        BYTE   W96
// 030   ----------------------------------------
        BYTE   W96
// 031   ----------------------------------------
        BYTE   W96
// 032   ----------------------------------------
        BYTE   W96
// 033   ----------------------------------------
        BYTE   W96
// 034   ----------------------------------------
        BYTE   W96
// 035   ----------------------------------------
        BYTE   W96
// 036   ----------------------------------------
        BYTE   W96
// 037   ----------------------------------------
        BYTE   W96
// 038   ----------------------------------------
        BYTE   W96
// 039   ----------------------------------------
        BYTE   W96
// 040   ----------------------------------------
        BYTE   W96
// 041   ----------------------------------------
        BYTE   W96
// 042   ----------------------------------------
        BYTE   W96
// 043   ----------------------------------------
        BYTE   W96
// 044   ----------------------------------------
        BYTE           N24     Fs1
        BYTE   GoTo
         POIN2  LightingTemple_1_LOOP
        BYTE   W24
        BYTE           N12     Gs1
        BYTE   W12
        BYTE                   An1
        BYTE   W12
        BYTE           N24     Gs1
        BYTE   W24
        BYTE                   Fs1
        BYTE   W24
// 045   ----------------------------------------
        BYTE   PATT
         POIN2  LightingTemple_1_5
// 046   ----------------------------------------
        BYTE   PATT
         POIN2  LightingTemple_1_6
// 047   ----------------------------------------
        BYTE   PATT
         POIN2  LightingTemple_1_7
// 048   ----------------------------------------
        BYTE   PATT
         POIN2  LightingTemple_1_8
// 049   ----------------------------------------
        BYTE   PATT
         POIN2  LightingTemple_1_9
// 050   ----------------------------------------
        BYTE   PATT
         POIN2  LightingTemple_1_10
// 051   ----------------------------------------
        BYTE   PATT
         POIN2  LightingTemple_1_11
// 052   ----------------------------------------
        BYTE   PATT
         POIN2  LightingTemple_1_12
// 053   ----------------------------------------
        BYTE   PATT
         POIN2  LightingTemple_1_13
// 054   ----------------------------------------
        BYTE   PATT
         POIN2  LightingTemple_1_14
// 055   ----------------------------------------
        BYTE   PATT
         POIN2  LightingTemple_1_15
// 056   ----------------------------------------
        BYTE   PATT
         POIN2  LightingTemple_1_16
// 057   ----------------------------------------
        BYTE   PATT
         POIN2  LightingTemple_1_17
// 058   ----------------------------------------
        BYTE   PATT
         POIN2  LightingTemple_1_18
// 059   ----------------------------------------
        BYTE   PATT
         POIN2  LightingTemple_1_19
// 060   ----------------------------------------
        BYTE   PATT
         POIN2  LightingTemple_1_20
// 061   ----------------------------------------
        BYTE   PATT
         POIN2  LightingTemple_1_21
// 062   ----------------------------------------
        BYTE   PATT
         POIN2  LightingTemple_1_22
// 063   ----------------------------------------
        BYTE   PATT
         POIN2  LightingTemple_1_23
// 064   ----------------------------------------
        BYTE   PATT
         POIN2  LightingTemple_1_24
// 065   ----------------------------------------
        BYTE   PATT
         POIN2  LightingTemple_1_25
// 066   ----------------------------------------
        BYTE           TIE     BnM1   v100
        BYTE   W96
// 067   ----------------------------------------
        BYTE   W72
        BYTE           EOT
        BYTE   W24
// 068   ----------------------------------------
        BYTE   W96
// 069   ----------------------------------------
        BYTE   W96
// 070   ----------------------------------------
        BYTE   W96
// 071   ----------------------------------------
        BYTE   W96
// 072   ----------------------------------------
        BYTE   W96
// 073   ----------------------------------------
        BYTE   W96
// 074   ----------------------------------------
        BYTE   W96
// 075   ----------------------------------------
        BYTE   W96
// 076   ----------------------------------------
        BYTE   W96
// 077   ----------------------------------------
        BYTE   W96
// 078   ----------------------------------------
        BYTE   W96
// 079   ----------------------------------------
        BYTE   W96
// 080   ----------------------------------------
        BYTE   W96
// 081   ----------------------------------------
        BYTE   W96
// 082   ----------------------------------------
        BYTE   W96
// 083   ----------------------------------------
        BYTE   W96
// 084   ----------------------------------------
LightingTemple_1_84:
        BYTE           N24     Fs1   v100
        BYTE   W24
        BYTE           N12     Gs1
        BYTE   W12
        BYTE                   An1
        BYTE   W12
        BYTE           N24     Gs1
        BYTE   W24
        BYTE                   Fs1
        BYTE   W24
        BYTE   PEND
// 085   ----------------------------------------
        BYTE   PATT
         POIN2  LightingTemple_1_5
// 086   ----------------------------------------
LightingTemple_1_86:
        BYTE           N24     An1   v100
        BYTE   W07
        BYTE           VOL     62
        BYTE   W08
        BYTE                   61
        BYTE   W09
        BYTE           N12     Bn1
        BYTE   W12
        BYTE                   Cs2
        BYTE   W01
        BYTE           VOL     60
        BYTE   W08
        BYTE                   59
        BYTE   W03
        BYTE           N24     Bn1
        BYTE   W12
        BYTE           VOL     58
        BYTE   W08
        BYTE                   57
        BYTE   W04
        BYTE           N24     An1
        BYTE   W18
        BYTE           VOL     56
        BYTE   W06
        BYTE   PEND
// 087   ----------------------------------------
LightingTemple_1_87:
        BYTE           N24     Gn1   v100
        BYTE   W09
        BYTE           VOL     55
        BYTE   W08
        BYTE                   54
        BYTE   W07
        BYTE           N12     An1
        BYTE   W08
        BYTE           VOL     53
        BYTE   W04
        BYTE           N12     Bn1
        BYTE   W04
        BYTE           VOL     52
        BYTE   W08
        BYTE           N48     En2
        BYTE   W28
        BYTE   W01
        BYTE           VOL     51
        BYTE   W08
        BYTE                   50
        BYTE   W11
        BYTE   PEND
// 088   ----------------------------------------
LightingTemple_1_88:
        BYTE           N24     Cs2   v100
        BYTE   W04
        BYTE           VOL     49
        BYTE   W20
        BYTE           N12     Gs2
        BYTE   W03
        BYTE           VOL     48
        BYTE   W07
        BYTE                   47
        BYTE   W02
        BYTE           N12     Fs2
        BYTE   W12
        BYTE           N24     Cs2
        BYTE   W01
        BYTE           VOL     46
        BYTE   W08
        BYTE                   45
        BYTE   W15
        BYTE           N12     En2
        BYTE   W08
        BYTE           VOL     44
        BYTE   W04
        BYTE           N12     Dn2
        BYTE   W03
        BYTE           VOL     43
        BYTE   W09
        BYTE   PEND
// 089   ----------------------------------------
LightingTemple_1_89:
        BYTE           N24     Bn1   v100
        BYTE   W06
        BYTE           VOL     42
        BYTE   W18
        BYTE           N12     Cs2
        BYTE   W12
        BYTE                   Dn2
        BYTE   W01
        BYTE           VOL     41
        BYTE   W11
        BYTE           N24     Gs1
        BYTE   W04
        BYTE           VOL     40
        BYTE   W07
        BYTE                   39
        BYTE   W13
        BYTE           N24     Cs2
        BYTE   W02
        BYTE           VOL     38
        BYTE   W22
        BYTE   PEND
// 090   ----------------------------------------
LightingTemple_1_90:
        BYTE           N24     An1   v100
        BYTE   W01
        BYTE           VOL     37
        BYTE   W08
        BYTE                   36
        BYTE   W15
        BYTE                   35
        BYTE           N12     Gs1
        BYTE   W07
        BYTE           VOL     34
        BYTE   W05
        BYTE           N12     Fs1
        BYTE   W10
        BYTE           VOL     33
        BYTE   W02
        BYTE           N24     Gs1
        BYTE   W21
        BYTE           VOL     32
        BYTE   W03
        BYTE           N24     En1
        BYTE   W05
        BYTE           VOL     31
        BYTE   W19
        BYTE   PEND
// 091   ----------------------------------------
LightingTemple_1_91:
        BYTE           N48     Fs1   v100
        BYTE   W03
        BYTE           VOL     30
        BYTE   W23
        BYTE                   29
        BYTE   W08
        BYTE                   28
        BYTE   W14
        BYTE           N48     As1
        BYTE   W01
        BYTE           VOL     27
        BYTE   W07
        BYTE                   26
        BYTE   W23
        BYTE                   25
        BYTE   W15
        BYTE                   24
        BYTE   W02
        BYTE   PEND
// 092   ----------------------------------------
LightingTemple_1_92:
        BYTE           N48     Bn0   v100
        BYTE   W06
        BYTE           VOL     23
        BYTE   W15
        BYTE                   22
        BYTE   W22
        BYTE                   21
        BYTE   W05
        BYTE           N24     Cs1
        BYTE   W18
        BYTE           VOL     20
        BYTE   W06
        BYTE           N24     Dn1
        BYTE   W02
        BYTE           VOL     19
        BYTE   W22
        BYTE   PEND
// 093   ----------------------------------------
LightingTemple_1_93:
        BYTE           N48     Cs1   v100
        BYTE           VOL     18
        BYTE   W15
        BYTE                   17
        BYTE   W08
        BYTE                   16
        BYTE   W15
        BYTE                   15
        BYTE   W08
        BYTE                   14
        BYTE   W02
        BYTE           N48     Bn0
        BYTE   W20
        BYTE           VOL     13
        BYTE   W08
        BYTE                   12
        BYTE   W15
        BYTE                   11
        BYTE   W05
        BYTE   PEND
// 094   ----------------------------------------
LightingTemple_1_94:
        BYTE           N48     An0   v100
        BYTE   W03
        BYTE           VOL     10
        BYTE   W36
        BYTE   W01
        BYTE                   9
        BYTE   W08
        BYTE           N48     Cs1
        BYTE           VOL     8
        BYTE   W15
        BYTE                   7
        BYTE   W23
        BYTE                   6
        BYTE   W07
        BYTE                   5
        BYTE   W03
        BYTE   PEND
// 095   ----------------------------------------
LightingTemple_1_95:
        BYTE           N72     Fs0   v100
        BYTE   W12
        BYTE           VOL     4
        BYTE   W08
        BYTE                   3
        BYTE   W23
        BYTE                   2
        BYTE   W15
        BYTE                   1
        BYTE   W07
        BYTE                   0
        BYTE   W07
        BYTE           N24     An0
        BYTE   W24
        BYTE   PEND
// 096   ----------------------------------------
        BYTE   FINE

//****************** Track 2 (Midi-Chn.2) ******************//

LightingTemple_2:
        BYTE   KEYSH   LightingTemple_key+0
// 000   ----------------------------------------
        BYTE           VOICE   57
        BYTE           VOL     63
        BYTE           PAN     c_v-24
        BYTE           N12     Cs4   v100
        BYTE   W12
        BYTE                   Fs3
        BYTE   W12
        BYTE                   An3
        BYTE   W12
        BYTE                   Cs4
        BYTE   W12
        BYTE                   Dn4
        BYTE   W12
        BYTE                   Fs3
        BYTE   W12
        BYTE                   Bn3
        BYTE   W12
        BYTE                   Dn4
        BYTE   W12
// 001   ----------------------------------------
        BYTE                   Bn3
        BYTE   W12
        BYTE                   En3
        BYTE   W12
        BYTE                   Gs3
        BYTE   W12
        BYTE                   Bn3
        BYTE   W12
        BYTE                   Cs4
        BYTE   W12
        BYTE                   En3
        BYTE   W12
        BYTE                   An3
        BYTE   W12
        BYTE                   Cs4
        BYTE   W12
// 002   ----------------------------------------
        BYTE                   An3
        BYTE   W12
        BYTE                   Dn3
        BYTE   W12
        BYTE                   Fs3
        BYTE   W12
        BYTE                   An3
        BYTE   W12
        BYTE                   Bn3
        BYTE   W12
        BYTE                   Dn3
        BYTE   W12
        BYTE                   Gn3
        BYTE   W12
        BYTE                   Bn3
        BYTE   W12
// 003   ----------------------------------------
        BYTE                   Gs3
        BYTE   W12
        BYTE                   Fn3
        BYTE   W12
        BYTE                   Gs3
        BYTE   W12
        BYTE                   Cs4
        BYTE   W12
        BYTE           N18     Fs4
        BYTE   W18
        BYTE           N03     Gs4
        BYTE   W03
        BYTE                   An4
        BYTE   W03
        BYTE           N24     Gs4
        BYTE   W24
// 004   ----------------------------------------
LightingTemple_2_LOOP:
        BYTE           N12     Fs4   v100
        BYTE   W12
        BYTE                   Cs4
        BYTE   W12
        BYTE                   An3
        BYTE   W12
        BYTE                   Fs3
        BYTE   W12
        BYTE                   An3
        BYTE   W12
        BYTE                   Cs4
        BYTE   W12
        BYTE                   Fs4
        BYTE   W12
        BYTE                   An4
        BYTE   W12
// 005   ----------------------------------------
LightingTemple_2_5:
        BYTE           N12     Gs4   v100
        BYTE   W12
        BYTE                   Fn4
        BYTE   W12
        BYTE                   Cs4
        BYTE   W12
        BYTE                   Bn3
        BYTE   W12
        BYTE                   Fn4
        BYTE   W12
        BYTE                   Cs4
        BYTE   W12
        BYTE                   Bn3
        BYTE   W12
        BYTE                   Gs3
        BYTE   W12
        BYTE   PEND
// 006   ----------------------------------------
LightingTemple_2_6:
        BYTE           N12     An3   v100
        BYTE   W12
        BYTE                   En3
        BYTE   W12
        BYTE                   An3
        BYTE   W12
        BYTE                   Cs4
        BYTE   W12
        BYTE                   En4
        BYTE   W12
        BYTE                   Cs4
        BYTE   W12
        BYTE                   An3
        BYTE   W12
        BYTE                   Bn3
        BYTE   W12
        BYTE   PEND
// 007   ----------------------------------------
LightingTemple_2_7:
        BYTE           N12     Gn3   v100
        BYTE   W12
        BYTE                   En3
        BYTE   W12
        BYTE                   Gn3
        BYTE   W12
        BYTE                   Bn3
        BYTE   W12
        BYTE                   En4
        BYTE   W12
        BYTE                   Bn3
        BYTE   W12
        BYTE                   Gn3
        BYTE   W12
        BYTE                   En3
        BYTE   W12
        BYTE   PEND
// 008   ----------------------------------------
LightingTemple_2_8:
        BYTE           N12     Cs4   v100
        BYTE   W12
        BYTE                   Gs3
        BYTE   W12
        BYTE                   Fn3
        BYTE   W12
        BYTE                   Gs3
        BYTE   W12
        BYTE                   Cs4
        BYTE   W12
        BYTE                   An3
        BYTE   W12
        BYTE                   Fs3
        BYTE   W12
        BYTE                   An3
        BYTE   W12
        BYTE   PEND
// 009   ----------------------------------------
LightingTemple_2_9:
        BYTE           N12     Dn4   v100
        BYTE   W12
        BYTE                   Bn3
        BYTE   W12
        BYTE                   Gn3
        BYTE   W12
        BYTE                   Bn3
        BYTE   W12
        BYTE                   Cs4
        BYTE   W12
        BYTE                   Gs3
        BYTE   W12
        BYTE                   Fn3
        BYTE   W12
        BYTE                   Gs3
        BYTE   W12
        BYTE   PEND
// 010   ----------------------------------------
LightingTemple_2_10:
        BYTE           N12     An3   v100
        BYTE   W12
        BYTE                   Fs3
        BYTE   W12
        BYTE                   Cs3
        BYTE   W12
        BYTE                   Fs3
        BYTE   W12
        BYTE                   Gs3
        BYTE   W12
        BYTE                   En3
        BYTE   W12
        BYTE                   Cs3
        BYTE   W12
        BYTE                   En3
        BYTE   W12
        BYTE   PEND
// 011   ----------------------------------------
LightingTemple_2_11:
        BYTE           N12     Fs3   v100
        BYTE   W12
        BYTE                   Cs3
        BYTE   W12
        BYTE                   Fs3
        BYTE   W12
        BYTE                   Gs3
        BYTE   W12
        BYTE                   As3
        BYTE   W12
        BYTE                   Bn3
        BYTE   W12
        BYTE                   Cs4
        BYTE   W12
        BYTE                   Dn4
        BYTE   W12
        BYTE   PEND
// 012   ----------------------------------------
LightingTemple_2_12:
        BYTE           N12     Bn3   v100
        BYTE   W12
        BYTE                   Fs3
        BYTE   W12
        BYTE                   Cs4
        BYTE   W12
        BYTE                   Dn4
        BYTE   W12
        BYTE                   Cs4
        BYTE   W12
        BYTE                   Fs3
        BYTE   W12
        BYTE                   Bn3
        BYTE   W12
        BYTE                   Fs3
        BYTE   W12
        BYTE   PEND
// 013   ----------------------------------------
LightingTemple_2_13:
        BYTE           N12     As3   v100
        BYTE   W12
        BYTE                   Fs3
        BYTE   W12
        BYTE                   Bn3
        BYTE   W12
        BYTE                   Cs4
        BYTE   W12
        BYTE                   Bn3
        BYTE   W12
        BYTE                   Fs3
        BYTE   W12
        BYTE                   Bn3
        BYTE   W12
        BYTE                   Dn4
        BYTE   W12
        BYTE   PEND
// 014   ----------------------------------------
LightingTemple_2_14:
        BYTE           N12     Cs4   v100
        BYTE   W12
        BYTE                   Fs3
        BYTE   W12
        BYTE                   An3
        BYTE   W12
        BYTE                   Cs4
        BYTE   W12
        BYTE                   Bn3
        BYTE   W12
        BYTE                   Fs3
        BYTE   W12
        BYTE                   Dn4
        BYTE   W12
        BYTE                   Bn3
        BYTE   W12
        BYTE   PEND
// 015   ----------------------------------------
LightingTemple_2_15:
        BYTE           N12     Fs4   v100
        BYTE   W12
        BYTE                   Cs4
        BYTE   W12
        BYTE                   As3
        BYTE   W12
        BYTE                   Fs3
        BYTE   W12
        BYTE                   As3
        BYTE   W12
        BYTE                   Cs4
        BYTE   W12
        BYTE                   En4
        BYTE   W12
        BYTE                   Cs4
        BYTE   W12
        BYTE   PEND
// 016   ----------------------------------------
LightingTemple_2_16:
        BYTE           N12     Fs4   v100
        BYTE   W12
        BYTE                   Dn4
        BYTE   W12
        BYTE                   An4
        BYTE   W12
        BYTE                   Dn4
        BYTE   W12
        BYTE                   Fs4
        BYTE   W12
        BYTE                   Dn4
        BYTE   W12
        BYTE                   An3
        BYTE   W12
        BYTE                   Fs4
        BYTE   W12
        BYTE   PEND
// 017   ----------------------------------------
LightingTemple_2_17:
        BYTE           N12     En4   v100
        BYTE   W12
        BYTE                   Cs4
        BYTE   W12
        BYTE                   An3
        BYTE   W12
        BYTE                   En4
        BYTE   W12
        BYTE                   Dn4
        BYTE   W12
        BYTE                   An3
        BYTE   W12
        BYTE                   Fs3
        BYTE   W12
        BYTE                   Dn4
        BYTE   W12
        BYTE   PEND
// 018   ----------------------------------------
LightingTemple_2_18:
        BYTE           N12     Cn4   v100
        BYTE   W12
        BYTE                   An3
        BYTE   W12
        BYTE                   En3
        BYTE   W12
        BYTE                   An3
        BYTE   W12
        BYTE                   Cn4
        BYTE   W12
        BYTE                   An3
        BYTE   W12
        BYTE                   Cn4
        BYTE   W12
        BYTE                   En4
        BYTE   W12
        BYTE   PEND
// 019   ----------------------------------------
LightingTemple_2_19:
        BYTE           N12     An4   v100
        BYTE   W12
        BYTE                   En4
        BYTE   W12
        BYTE                   Cn4
        BYTE   W12
        BYTE                   An3
        BYTE   W12
        BYTE                   En4
        BYTE   W12
        BYTE                   Cn4
        BYTE   W12
        BYTE                   An3
        BYTE   W12
        BYTE                   En3
        BYTE   W12
        BYTE   PEND
// 020   ----------------------------------------
LightingTemple_2_20:
        BYTE           N12     Fs3   v100
        BYTE   W12
        BYTE                   Cs3
        BYTE   W12
        BYTE                   Fs3
        BYTE   W12
        BYTE                   An3
        BYTE   W12
        BYTE                   Cs4
        BYTE   W12
        BYTE                   An3
        BYTE   W12
        BYTE                   Fs3
        BYTE   W12
        BYTE                   Cs3
        BYTE   W12
        BYTE   PEND
// 021   ----------------------------------------
LightingTemple_2_21:
        BYTE           N12     Dn3   v100
        BYTE   W12
        BYTE                   Fs2
        BYTE   W12
        BYTE                   Dn3
        BYTE   W12
        BYTE                   Fs3
        BYTE   W12
        BYTE                   Bn3
        BYTE   W12
        BYTE                   Fs3
        BYTE   W12
        BYTE                   Bn3
        BYTE   W12
        BYTE                   Dn4
        BYTE   W12
        BYTE   PEND
// 022   ----------------------------------------
LightingTemple_2_22:
        BYTE           N12     Dn3   v100
        BYTE   W12
        BYTE                   Gn3
        BYTE   W12
        BYTE                   Bn3
        BYTE   W12
        BYTE                   Dn4
        BYTE   W12
        BYTE                   Bn3
        BYTE   W12
        BYTE                   Gn3
        BYTE   W12
        BYTE                   Dn3
        BYTE   W12
        BYTE                   Gn3
        BYTE   W12
        BYTE   PEND
// 023   ----------------------------------------
LightingTemple_2_23:
        BYTE           N12     En3   v100
        BYTE   W12
        BYTE                   Gn3
        BYTE   W12
        BYTE                   As3
        BYTE   W12
        BYTE                   Cs4
        BYTE   W12
        BYTE                   Gn3
        BYTE   W12
        BYTE                   As3
        BYTE   W12
        BYTE                   Cs4
        BYTE   W12
        BYTE                   En4
        BYTE   W12
        BYTE   PEND
// 024   ----------------------------------------
        BYTE   PATT
         POIN2  LightingTemple_2_7
// 025   ----------------------------------------
LightingTemple_2_25:
        BYTE           N12     Fs3   v100
        BYTE   W12
        BYTE                   Bn3
        BYTE   W12
        BYTE                   Dn4
        BYTE   W12
        BYTE                   Fs4
        BYTE   W12
        BYTE                   Cs4
        BYTE   W12
        BYTE                   As3
        BYTE   W12
        BYTE                   Fs3
        BYTE   W12
        BYTE                   As3
        BYTE   W12
        BYTE   PEND
// 026   ----------------------------------------
LightingTemple_2_26:
        BYTE           N12     Dn4   v100
        BYTE   W12
        BYTE                   Bn3
        BYTE   W12
        BYTE                   Fs3
        BYTE   W12
        BYTE                   Dn3
        BYTE   W12
        BYTE                   Bn3
        BYTE   W12
        BYTE                   Fs3
        BYTE   W12
        BYTE                   Dn3
        BYTE   W12
        BYTE                   Bn2
        BYTE   W12
        BYTE   PEND
// 027   ----------------------------------------
        BYTE           N96     Bn1
        BYTE   W96
// 028   ----------------------------------------
        BYTE   W96
// 029   ----------------------------------------
        BYTE   W96
// 030   ----------------------------------------
        BYTE   W96
// 031   ----------------------------------------
        BYTE   W96
// 032   ----------------------------------------
        BYTE   W96
// 033   ----------------------------------------
        BYTE   W96
// 034   ----------------------------------------
        BYTE   W96
// 035   ----------------------------------------
        BYTE   W96
// 036   ----------------------------------------
        BYTE   W96
// 037   ----------------------------------------
        BYTE   W96
// 038   ----------------------------------------
        BYTE   W96
// 039   ----------------------------------------
        BYTE   W96
// 040   ----------------------------------------
        BYTE   W96
// 041   ----------------------------------------
        BYTE   W96
// 042   ----------------------------------------
        BYTE   W96
// 043   ----------------------------------------
        BYTE   W96
// 044   ----------------------------------------
        BYTE           N12     Fs4
        BYTE   GoTo
         POIN2  LightingTemple_2_LOOP
        BYTE   W12
        BYTE                   Cs4
        BYTE   W12
        BYTE                   An3
        BYTE   W12
        BYTE                   Fs3
        BYTE   W12
        BYTE                   An3
        BYTE   W12
        BYTE                   Cs4
        BYTE   W12
        BYTE                   Fs4
        BYTE   W12
        BYTE                   An4
        BYTE   W12
// 045   ----------------------------------------
        BYTE   PATT
         POIN2  LightingTemple_2_5
// 046   ----------------------------------------
        BYTE   PATT
         POIN2  LightingTemple_2_6
// 047   ----------------------------------------
        BYTE   PATT
         POIN2  LightingTemple_2_7
// 048   ----------------------------------------
        BYTE   PATT
         POIN2  LightingTemple_2_8
// 049   ----------------------------------------
        BYTE   PATT
         POIN2  LightingTemple_2_9
// 050   ----------------------------------------
        BYTE   PATT
         POIN2  LightingTemple_2_10
// 051   ----------------------------------------
        BYTE   PATT
         POIN2  LightingTemple_2_11
// 052   ----------------------------------------
        BYTE   PATT
         POIN2  LightingTemple_2_12
// 053   ----------------------------------------
        BYTE   PATT
         POIN2  LightingTemple_2_13
// 054   ----------------------------------------
        BYTE   PATT
         POIN2  LightingTemple_2_14
// 055   ----------------------------------------
        BYTE   PATT
         POIN2  LightingTemple_2_15
// 056   ----------------------------------------
        BYTE   PATT
         POIN2  LightingTemple_2_16
// 057   ----------------------------------------
        BYTE   PATT
         POIN2  LightingTemple_2_17
// 058   ----------------------------------------
        BYTE   PATT
         POIN2  LightingTemple_2_18
// 059   ----------------------------------------
        BYTE   PATT
         POIN2  LightingTemple_2_19
// 060   ----------------------------------------
        BYTE   PATT
         POIN2  LightingTemple_2_20
// 061   ----------------------------------------
        BYTE   PATT
         POIN2  LightingTemple_2_21
// 062   ----------------------------------------
        BYTE   PATT
         POIN2  LightingTemple_2_22
// 063   ----------------------------------------
        BYTE   PATT
         POIN2  LightingTemple_2_23
// 064   ----------------------------------------
        BYTE   PATT
         POIN2  LightingTemple_2_7
// 065   ----------------------------------------
        BYTE   PATT
         POIN2  LightingTemple_2_25
// 066   ----------------------------------------
        BYTE   PATT
         POIN2  LightingTemple_2_26
// 067   ----------------------------------------
        BYTE           N96     Bn1   v100
        BYTE   W96
// 068   ----------------------------------------
        BYTE   W96
// 069   ----------------------------------------
        BYTE   W96
// 070   ----------------------------------------
        BYTE   W96
// 071   ----------------------------------------
        BYTE   W96
// 072   ----------------------------------------
        BYTE   W96
// 073   ----------------------------------------
        BYTE   W96
// 074   ----------------------------------------
        BYTE   W96
// 075   ----------------------------------------
        BYTE   W96
// 076   ----------------------------------------
        BYTE   W96
// 077   ----------------------------------------
        BYTE   W96
// 078   ----------------------------------------
        BYTE   W96
// 079   ----------------------------------------
        BYTE   W96
// 080   ----------------------------------------
        BYTE   W96
// 081   ----------------------------------------
        BYTE   W96
// 082   ----------------------------------------
        BYTE   W96
// 083   ----------------------------------------
        BYTE   W96
// 084   ----------------------------------------
        BYTE           N12     Fs4
        BYTE   W12
        BYTE                   Cs4
        BYTE   W12
        BYTE                   An3
        BYTE   W12
        BYTE                   Fs3
        BYTE   W12
        BYTE                   An3
        BYTE   W12
        BYTE                   Cs4
        BYTE   W12
        BYTE                   Fs4
        BYTE   W12
        BYTE                   An4
        BYTE   W12
// 085   ----------------------------------------
        BYTE   PATT
         POIN2  LightingTemple_2_5
// 086   ----------------------------------------
        BYTE           N12     An3   v100
        BYTE   W07
        BYTE           VOL     62
        BYTE   W05
        BYTE           N12     En3
        BYTE   W03
        BYTE           VOL     61
        BYTE   W09
        BYTE           N12     An3
        BYTE   W12
        BYTE                   Cs4
        BYTE   W01
        BYTE           VOL     60
        BYTE   W08
        BYTE                   59
        BYTE   W03
        BYTE           N12     En4
        BYTE   W12
        BYTE                   Cs4
        BYTE           VOL     58
        BYTE   W08
        BYTE                   57
        BYTE   W04
        BYTE           N12     An3
        BYTE   W12
        BYTE                   Bn3
        BYTE   W06
        BYTE           VOL     56
        BYTE   W06
// 087   ----------------------------------------
        BYTE           N12     Gn3
        BYTE   W09
        BYTE           VOL     55
        BYTE   W03
        BYTE           N12     En3
        BYTE   W05
        BYTE           VOL     54
        BYTE   W07
        BYTE           N12     Gn3
        BYTE   W08
        BYTE           VOL     53
        BYTE   W04
        BYTE           N12     Bn3
        BYTE   W04
        BYTE           VOL     52
        BYTE   W08
        BYTE           N12     En4
        BYTE   W12
        BYTE                   Bn3
        BYTE   W12
        BYTE                   Gn3
        BYTE   W05
        BYTE           VOL     51
        BYTE   W07
        BYTE           N12     En3
        BYTE   W01
        BYTE           VOL     50
        BYTE   W11
// 088   ----------------------------------------
        BYTE           N12     Cs4
        BYTE   W04
        BYTE           VOL     49
        BYTE   W08
        BYTE           N12     Gs3
        BYTE   W12
        BYTE                   Fn3
        BYTE   W03
        BYTE           VOL     48
        BYTE   W07
        BYTE                   47
        BYTE   W02
        BYTE           N12     Gs3
        BYTE   W12
        BYTE                   Cs4
        BYTE   W01
        BYTE           VOL     46
        BYTE   W08
        BYTE                   45
        BYTE   W03
        BYTE           N12     An3
        BYTE   W12
        BYTE                   Fs3
        BYTE   W08
        BYTE           VOL     44
        BYTE   W04
        BYTE           N12     An3
        BYTE   W03
        BYTE           VOL     43
        BYTE   W09
// 089   ----------------------------------------
        BYTE           N12     Dn4
        BYTE   W06
        BYTE           VOL     42
        BYTE   W06
        BYTE           N12     Bn3
        BYTE   W12
        BYTE                   Gn3
        BYTE   W12
        BYTE                   Bn3
        BYTE   W01
        BYTE           VOL     41
        BYTE   W11
        BYTE           N12     Cs4
        BYTE   W04
        BYTE           VOL     40
        BYTE   W07
        BYTE                   39
        BYTE   W01
        BYTE           N12     Gs3
        BYTE   W12
        BYTE                   Fn3
        BYTE   W02
        BYTE           VOL     38
        BYTE   W10
        BYTE           N12     Gs3
        BYTE   W12
// 090   ----------------------------------------
        BYTE                   An3
        BYTE   W01
        BYTE           VOL     37
        BYTE   W08
        BYTE                   36
        BYTE   W03
        BYTE           N12     Fs3
        BYTE   W12
        BYTE           VOL     35
        BYTE           N12     Cs3
        BYTE   W07
        BYTE           VOL     34
        BYTE   W05
        BYTE           N12     Fs3
        BYTE   W10
        BYTE           VOL     33
        BYTE   W02
        BYTE           N12     Gs3
        BYTE   W12
        BYTE                   En3
        BYTE   W09
        BYTE           VOL     32
        BYTE   W03
        BYTE           N12     Cs3
        BYTE   W05
        BYTE           VOL     31
        BYTE   W07
        BYTE           N12     En3
        BYTE   W12
// 091   ----------------------------------------
        BYTE                   Fs3
        BYTE   W03
        BYTE           VOL     30
        BYTE   W09
        BYTE           N12     Cs3
        BYTE   W12
        BYTE                   Fs3
        BYTE   W02
        BYTE           VOL     29
        BYTE   W08
        BYTE                   28
        BYTE   W02
        BYTE           N12     Gs3
        BYTE   W12
        BYTE                   As3
        BYTE   W01
        BYTE           VOL     27
        BYTE   W07
        BYTE                   26
        BYTE   W04
        BYTE           N12     Bn3
        BYTE   W12
        BYTE                   Cs4
        BYTE   W07
        BYTE           VOL     25
        BYTE   W05
        BYTE           N12     Dn4
        BYTE   W10
        BYTE           VOL     24
        BYTE   W02
// 092   ----------------------------------------
        BYTE           N12     Bn3
        BYTE   W06
        BYTE           VOL     23
        BYTE   W06
        BYTE           N12     Fs3
        BYTE   W09
        BYTE           VOL     22
        BYTE   W03
        BYTE           N12     Cs4
        BYTE   W12
        BYTE                   Dn4
        BYTE   W07
        BYTE           VOL     21
        BYTE   W05
        BYTE           N12     Cs4
        BYTE   W12
        BYTE                   Fs3
        BYTE   W06
        BYTE           VOL     20
        BYTE   W06
        BYTE           N12     Bn3
        BYTE   W02
        BYTE           VOL     19
        BYTE   W10
        BYTE           N12     Fs3
        BYTE   W12
// 093   ----------------------------------------
        BYTE                   As3
        BYTE           VOL     18
        BYTE   W12
        BYTE           N12     Fs3
        BYTE   W03
        BYTE           VOL     17
        BYTE   W08
        BYTE                   16
        BYTE   W01
        BYTE           N12     Bn3
        BYTE   W12
        BYTE                   Cs4
        BYTE   W02
        BYTE           VOL     15
        BYTE   W08
        BYTE                   14
        BYTE   W02
        BYTE           N12     Bn3
        BYTE   W12
        BYTE                   Fs3
        BYTE   W08
        BYTE           VOL     13
        BYTE   W04
        BYTE           N12     Bn3
        BYTE   W04
        BYTE           VOL     12
        BYTE   W08
        BYTE           N12     Dn4
        BYTE   W07
        BYTE           VOL     11
        BYTE   W05
// 094   ----------------------------------------
        BYTE           N12     Cs4
        BYTE   W03
        BYTE           VOL     10
        BYTE   W09
        BYTE           N12     Fs3
        BYTE   W12
        BYTE                   An3
        BYTE   W12
        BYTE                   Cs4
        BYTE   W04
        BYTE           VOL     9
        BYTE   W08
        BYTE           N12     Bn3
        BYTE           VOL     8
        BYTE   W12
        BYTE           N12     Fs3
        BYTE   W03
        BYTE           VOL     7
        BYTE   W09
        BYTE           N12     Dn4
        BYTE   W12
        BYTE                   Bn3
        BYTE   W02
        BYTE           VOL     6
        BYTE   W07
        BYTE                   5
        BYTE   W03
// 095   ----------------------------------------
        BYTE           N12     Fs4
        BYTE   W12
        BYTE                   Cs4
        BYTE           VOL     4
        BYTE   W08
        BYTE                   3
        BYTE   W04
        BYTE           N12     As3
        BYTE   W12
        BYTE                   Fs3
        BYTE   W07
        BYTE           VOL     2
        BYTE   W05
        BYTE           N12     As3
        BYTE   W10
        BYTE           VOL     1
        BYTE   W02
        BYTE           N12     Cs4
        BYTE   W05
        BYTE           VOL     0
        BYTE   W07
        BYTE           N12     En4
        BYTE   W12
        BYTE                   Cs4
        BYTE   W12
// 096   ----------------------------------------
        BYTE   FINE

//****************** Track 3 (Midi-Chn.3) ******************//

LightingTemple_3:
        BYTE   KEYSH   LightingTemple_key+0
// 000   ----------------------------------------
        BYTE           VOICE   18
        BYTE           VOL     63
        BYTE           PAN     c_v+24
        BYTE           N48     Fs1   v100
        BYTE   W48
        BYTE           N12     Bn1
        BYTE   W12
        BYTE                   Cs2
        BYTE   W12
        BYTE                   Dn2
        BYTE   W12
        BYTE                   Fs2
        BYTE   W12
// 001   ----------------------------------------
        BYTE   PATT
         POIN2  LightingTemple_1_1
// 002   ----------------------------------------
        BYTE   PATT
         POIN2  LightingTemple_1_2
// 003   ----------------------------------------
        BYTE   PATT
         POIN2  LightingTemple_1_3
// 004   ----------------------------------------
LightingTemple_3_LOOP:
        BYTE           N24     Fs1   v100
        BYTE   W24
        BYTE           N12     Gs1
        BYTE   W12
        BYTE                   An1
        BYTE   W12
        BYTE           N24     Gs1
        BYTE   W24
        BYTE                   Fs1
        BYTE   W24
// 005   ----------------------------------------
        BYTE   PATT
         POIN2  LightingTemple_1_5
// 006   ----------------------------------------
        BYTE   PATT
         POIN2  LightingTemple_1_6
// 007   ----------------------------------------
        BYTE   PATT
         POIN2  LightingTemple_1_7
// 008   ----------------------------------------
        BYTE   PATT
         POIN2  LightingTemple_1_8
// 009   ----------------------------------------
        BYTE   PATT
         POIN2  LightingTemple_1_9
// 010   ----------------------------------------
        BYTE   PATT
         POIN2  LightingTemple_1_10
// 011   ----------------------------------------
        BYTE   PATT
         POIN2  LightingTemple_1_11
// 012   ----------------------------------------
        BYTE   PATT
         POIN2  LightingTemple_1_12
// 013   ----------------------------------------
        BYTE   PATT
         POIN2  LightingTemple_1_13
// 014   ----------------------------------------
        BYTE   PATT
         POIN2  LightingTemple_1_14
// 015   ----------------------------------------
        BYTE   PATT
         POIN2  LightingTemple_1_15
// 016   ----------------------------------------
        BYTE   PATT
         POIN2  LightingTemple_1_16
// 017   ----------------------------------------
        BYTE   PATT
         POIN2  LightingTemple_1_17
// 018   ----------------------------------------
        BYTE   PATT
         POIN2  LightingTemple_1_18
// 019   ----------------------------------------
        BYTE   PATT
         POIN2  LightingTemple_1_19
// 020   ----------------------------------------
        BYTE   PATT
         POIN2  LightingTemple_1_20
// 021   ----------------------------------------
        BYTE   PATT
         POIN2  LightingTemple_1_21
// 022   ----------------------------------------
        BYTE   PATT
         POIN2  LightingTemple_1_22
// 023   ----------------------------------------
        BYTE   PATT
         POIN2  LightingTemple_1_23
// 024   ----------------------------------------
        BYTE   PATT
         POIN2  LightingTemple_1_24
// 025   ----------------------------------------
        BYTE   PATT
         POIN2  LightingTemple_1_25
// 026   ----------------------------------------
        BYTE           TIE     BnM1   v100
        BYTE   W96
// 027   ----------------------------------------
        BYTE   W72
        BYTE           EOT
        BYTE   W24
// 028   ----------------------------------------
        BYTE   W96
// 029   ----------------------------------------
        BYTE   W96
// 030   ----------------------------------------
        BYTE   W96
// 031   ----------------------------------------
        BYTE   W96
// 032   ----------------------------------------
        BYTE   W96
// 033   ----------------------------------------
        BYTE   W96
// 034   ----------------------------------------
        BYTE   W96
// 035   ----------------------------------------
        BYTE   W96
// 036   ----------------------------------------
        BYTE   W96
// 037   ----------------------------------------
        BYTE   W96
// 038   ----------------------------------------
        BYTE   W96
// 039   ----------------------------------------
        BYTE   W96
// 040   ----------------------------------------
        BYTE   W96
// 041   ----------------------------------------
        BYTE   W96
// 042   ----------------------------------------
        BYTE   W96
// 043   ----------------------------------------
        BYTE   W96
// 044   ----------------------------------------
        BYTE           N24     Fs1
        BYTE   GoTo
         POIN2  LightingTemple_3_LOOP
        BYTE   W24
        BYTE           N12     Gs1
        BYTE   W12
        BYTE                   An1
        BYTE   W12
        BYTE           N24     Gs1
        BYTE   W24
        BYTE                   Fs1
        BYTE   W24
// 045   ----------------------------------------
        BYTE   PATT
         POIN2  LightingTemple_1_5
// 046   ----------------------------------------
        BYTE   PATT
         POIN2  LightingTemple_1_6
// 047   ----------------------------------------
        BYTE   PATT
         POIN2  LightingTemple_1_7
// 048   ----------------------------------------
        BYTE   PATT
         POIN2  LightingTemple_1_8
// 049   ----------------------------------------
        BYTE   PATT
         POIN2  LightingTemple_1_9
// 050   ----------------------------------------
        BYTE   PATT
         POIN2  LightingTemple_1_10
// 051   ----------------------------------------
        BYTE   PATT
         POIN2  LightingTemple_1_11
// 052   ----------------------------------------
        BYTE   PATT
         POIN2  LightingTemple_1_12
// 053   ----------------------------------------
        BYTE   PATT
         POIN2  LightingTemple_1_13
// 054   ----------------------------------------
        BYTE   PATT
         POIN2  LightingTemple_1_14
// 055   ----------------------------------------
        BYTE   PATT
         POIN2  LightingTemple_1_15
// 056   ----------------------------------------
        BYTE   PATT
         POIN2  LightingTemple_1_16
// 057   ----------------------------------------
        BYTE   PATT
         POIN2  LightingTemple_1_17
// 058   ----------------------------------------
        BYTE   PATT
         POIN2  LightingTemple_1_18
// 059   ----------------------------------------
        BYTE   PATT
         POIN2  LightingTemple_1_19
// 060   ----------------------------------------
        BYTE   PATT
         POIN2  LightingTemple_1_20
// 061   ----------------------------------------
        BYTE   PATT
         POIN2  LightingTemple_1_21
// 062   ----------------------------------------
        BYTE   PATT
         POIN2  LightingTemple_1_22
// 063   ----------------------------------------
        BYTE   PATT
         POIN2  LightingTemple_1_23
// 064   ----------------------------------------
        BYTE   PATT
         POIN2  LightingTemple_1_24
// 065   ----------------------------------------
        BYTE   PATT
         POIN2  LightingTemple_1_25
// 066   ----------------------------------------
        BYTE           TIE     BnM1   v100
        BYTE   W96
// 067   ----------------------------------------
        BYTE   W72
        BYTE           EOT
        BYTE   W24
// 068   ----------------------------------------
        BYTE   W96
// 069   ----------------------------------------
        BYTE   W96
// 070   ----------------------------------------
        BYTE   W96
// 071   ----------------------------------------
        BYTE   W96
// 072   ----------------------------------------
        BYTE   W96
// 073   ----------------------------------------
        BYTE   W96
// 074   ----------------------------------------
        BYTE   W96
// 075   ----------------------------------------
        BYTE   W96
// 076   ----------------------------------------
        BYTE   W96
// 077   ----------------------------------------
        BYTE   W96
// 078   ----------------------------------------
        BYTE   W96
// 079   ----------------------------------------
        BYTE   W96
// 080   ----------------------------------------
        BYTE   W96
// 081   ----------------------------------------
        BYTE   W96
// 082   ----------------------------------------
        BYTE   W96
// 083   ----------------------------------------
        BYTE   W96
// 084   ----------------------------------------
        BYTE   PATT
         POIN2  LightingTemple_1_84
// 085   ----------------------------------------
        BYTE   PATT
         POIN2  LightingTemple_1_5
// 086   ----------------------------------------
        BYTE   PATT
         POIN2  LightingTemple_1_86
// 087   ----------------------------------------
        BYTE   PATT
         POIN2  LightingTemple_1_87
// 088   ----------------------------------------
        BYTE   PATT
         POIN2  LightingTemple_1_88
// 089   ----------------------------------------
        BYTE   PATT
         POIN2  LightingTemple_1_89
// 090   ----------------------------------------
        BYTE   PATT
         POIN2  LightingTemple_1_90
// 091   ----------------------------------------
        BYTE   PATT
         POIN2  LightingTemple_1_91
// 092   ----------------------------------------
        BYTE   PATT
         POIN2  LightingTemple_1_92
// 093   ----------------------------------------
        BYTE   PATT
         POIN2  LightingTemple_1_93
// 094   ----------------------------------------
        BYTE   PATT
         POIN2  LightingTemple_1_94
// 095   ----------------------------------------
        BYTE   PATT
         POIN2  LightingTemple_1_95
// 096   ----------------------------------------
        BYTE   FINE

//****************** Track 4 (Midi-Chn.4) ******************//

LightingTemple_4:
        BYTE   KEYSH   LightingTemple_key+0
// 000   ----------------------------------------
        BYTE           VOICE   48
        BYTE           VOL     49
        BYTE           PAN     c_v-8
        BYTE           N96     Fs3   v100
        BYTE           N48     Cs3
        BYTE           N48     An3
        BYTE   W48
        BYTE                   Dn3
        BYTE           N48     Bn3
        BYTE   W48
// 001   ----------------------------------------
        BYTE                   Gs3
        BYTE           N48     Dn3
        BYTE           N96     En3
        BYTE   W48
        BYTE           N48     Cs3
        BYTE           N48     An3
        BYTE   W48
// 002   ----------------------------------------
        BYTE           N96     Dn3
        BYTE           N48     An3
        BYTE           N48     Fs3
        BYTE   W48
        BYTE                   Gn3
        BYTE           N48     Bn3
        BYTE   W48
// 003   ----------------------------------------
        BYTE           N72     Cs4
        BYTE           N96     Gs3
        BYTE           N96     Fn3
        BYTE   W72
        BYTE           N24     Cs3
        BYTE   W24
// 004   ----------------------------------------
LightingTemple_4_LOOP:
        BYTE           N12     An2   v100
        BYTE           N12     Cs3
        BYTE           N12     Fs3
        BYTE   W24
        BYTE                   An2
        BYTE           N12     Cs3
        BYTE           N12     Fs3
        BYTE   W24
        BYTE                   An2
        BYTE           N12     Cs3
        BYTE           N12     Fs3
        BYTE   W24
        BYTE                   An2
        BYTE           N12     Cs3
        BYTE           N12     Fs3
        BYTE   W24
// 005   ----------------------------------------
LightingTemple_4_5:
        BYTE           N12     Gs2   v100
        BYTE           N12     Cs3
        BYTE           N12     Fn3
        BYTE   W24
        BYTE                   Gs2
        BYTE           N12     Cs3
        BYTE           N12     Fn3
        BYTE   W24
        BYTE                   Cs3
        BYTE           N12     Fn3
        BYTE           N12     Gs2
        BYTE   W24
        BYTE                   Gs2
        BYTE           N12     Cs3
        BYTE           N12     Fn3
        BYTE   W24
        BYTE   PEND
// 006   ----------------------------------------
LightingTemple_4_6:
        BYTE           N12     En3   v100
        BYTE           N12     Cs3
        BYTE           N12     An2
        BYTE   W24
        BYTE                   An2
        BYTE           N12     En3
        BYTE           N12     Cs3
        BYTE   W24
        BYTE                   An2
        BYTE           N12     Cs3
        BYTE           N12     En3
        BYTE   W24
        BYTE                   An2
        BYTE           N12     Cs3
        BYTE           N12     En3
        BYTE   W24
        BYTE   PEND
// 007   ----------------------------------------
LightingTemple_4_7:
        BYTE           N12     En3   v100
        BYTE           N12     Bn2
        BYTE           N12     Gn2
        BYTE   W24
        BYTE                   Gn2
        BYTE           N12     Bn2
        BYTE           N12     En3
        BYTE   W24
        BYTE                   Gn2
        BYTE           N12     Bn2
        BYTE           N12     En3
        BYTE   W24
        BYTE                   Gn2
        BYTE           N12     Bn2
        BYTE           N12     En3
        BYTE   W24
        BYTE   PEND
// 008   ----------------------------------------
LightingTemple_4_8:
        BYTE           N12     Cs3   v100
        BYTE           N12     Bn2
        BYTE           N12     Fn3
        BYTE   W24
        BYTE                   Fn3
        BYTE           N12     Cs3
        BYTE           N12     Bn2
        BYTE   W24
        BYTE                   Cs3
        BYTE           N12     An2
        BYTE           N12     Fs3
        BYTE   W24
        BYTE                   Fs3
        BYTE           N12     An2
        BYTE           N12     Cs3
        BYTE   W24
        BYTE   PEND
// 009   ----------------------------------------
LightingTemple_4_9:
        BYTE           N12     Fs3   v100
        BYTE           N12     Dn3
        BYTE           N12     Bn2
        BYTE   W24
        BYTE                   Dn3
        BYTE           N12     Bn2
        BYTE           N12     Fs3
        BYTE   W24
        BYTE                   Fn3
        BYTE           N12     Cs3
        BYTE           N12     Gs2
        BYTE   W24
        BYTE                   Fn3
        BYTE           N12     Gs2
        BYTE           N12     Cs3
        BYTE   W24
        BYTE   PEND
// 010   ----------------------------------------
LightingTemple_4_10:
        BYTE           N12     Cs3   v100
        BYTE           N12     An2
        BYTE           N12     Fs3
        BYTE   W24
        BYTE                   Cs3
        BYTE           N12     Fs3
        BYTE           N12     An2
        BYTE   W24
        BYTE                   Cs3
        BYTE           N12     Gs2
        BYTE           N12     En3
        BYTE   W24
        BYTE                   Cs3
        BYTE           N12     Gs2
        BYTE           N12     En3
        BYTE   W24
        BYTE   PEND
// 011   ----------------------------------------
LightingTemple_4_11:
        BYTE           N48     Fs3   v100
        BYTE           N96     Cs3
        BYTE   W48
        BYTE           N48     As3
        BYTE   W48
        BYTE   PEND
// 012   ----------------------------------------
LightingTemple_4_12:
        BYTE           N96     Dn3   v100
        BYTE           N96     Bn3
        BYTE   W96
        BYTE   PEND
// 013   ----------------------------------------
LightingTemple_4_13:
        BYTE           N48     En3   v100
        BYTE           N48     Cs4
        BYTE   W48
        BYTE           TIE     Dn3
        BYTE           TIE     Bn3
        BYTE   W48
        BYTE   PEND
// 014   ----------------------------------------
        BYTE   W96
// 015   ----------------------------------------
LightingTemple_4_15:
        BYTE           EOT     Bn3
        BYTE                   Dn3
        BYTE           N96     Cs3   v100
        BYTE           N96     As3
        BYTE   W96
        BYTE   PEND
// 016   ----------------------------------------
LightingTemple_4_16:
        BYTE           TIE     Fs3   v100
        BYTE           TIE     An3
        BYTE   W96
        BYTE   PEND
// 017   ----------------------------------------
        BYTE   W96
// 018   ----------------------------------------
LightingTemple_4_18:
        BYTE           EOT     Fs3
        BYTE           TIE     En3   v100
        BYTE   W96
        BYTE   PEND
// 019   ----------------------------------------
LightingTemple_4_19:
        BYTE           EOT     An3
        BYTE           N96     Gn3   v100
        BYTE   W96
        BYTE   PEND
// 020   ----------------------------------------
LightingTemple_4_20:
        BYTE           EOT     En3
        BYTE           N96     An3   v100
        BYTE           TIE     Fs3
        BYTE   W96
        BYTE   PEND
// 021   ----------------------------------------
LightingTemple_4_21:
        BYTE           N72     Bn3   v100
        BYTE   W72
        BYTE           N24     Cs4
        BYTE   W24
        BYTE   PEND
// 022   ----------------------------------------
LightingTemple_4_22:
        BYTE           EOT     Fs3
        BYTE           N96     Gn3   v100
        BYTE           N48     Dn4
        BYTE   W48
        BYTE                   Bn3
        BYTE   W48
        BYTE   PEND
// 023   ----------------------------------------
LightingTemple_4_23:
        BYTE           N48     As3   v100
        BYTE           N48     Fs3
        BYTE   W48
        BYTE                   Fs3
        BYTE           N48     Cs3
        BYTE   W48
        BYTE   PEND
// 024   ----------------------------------------
LightingTemple_4_24:
        BYTE           N48     En3   v100
        BYTE           N48     Bn2
        BYTE   W48
        BYTE           N96     Bn3
        BYTE           N48     Gn3
        BYTE   W48
        BYTE   PEND
// 025   ----------------------------------------
LightingTemple_4_25:
        BYTE           N96     Fs3   v100
        BYTE   W48
        BYTE           N48     Cs4
        BYTE   W48
        BYTE   PEND
// 026   ----------------------------------------
LightingTemple_4_26:
        BYTE           TIE     Dn4   v100
        BYTE           TIE     Fs3
        BYTE   W96
        BYTE   PEND
// 027   ----------------------------------------
LightingTemple_4_27:
        BYTE   W24
        BYTE           EOT     Fs3
        BYTE                   Dn4
        BYTE   W24
        BYTE           N12     Bn2   v100
        BYTE           N12     Fs3
        BYTE   W12
        BYTE                   Fs3
        BYTE           N12     Bn3
        BYTE   W12
        BYTE                   Bn3
        BYTE           N12     Dn4
        BYTE   W12
        BYTE                   Cs4
        BYTE           N12     En4
        BYTE   W12
        BYTE   PEND
// 028   ----------------------------------------
LightingTemple_4_28:
        BYTE           N12     Bn3   v100
        BYTE           N12     Fs4
        BYTE   W24
        BYTE                   Fs3
        BYTE           N12     Dn4
        BYTE   W24
        BYTE                   Bn3
        BYTE           N12     Fs4
        BYTE   W24
        BYTE                   Fs3
        BYTE           N12     Dn4
        BYTE   W24
        BYTE   PEND
// 029   ----------------------------------------
LightingTemple_4_29:
        BYTE           N12     Bn3   v100
        BYTE           N12     Gn4
        BYTE   W24
        BYTE                   Gn3
        BYTE           N12     En4
        BYTE   W24
        BYTE                   Bn3
        BYTE           N12     Gn4
        BYTE   W24
        BYTE                   Gn3
        BYTE           N12     En4
        BYTE   W24
        BYTE   PEND
// 030   ----------------------------------------
LightingTemple_4_30:
        BYTE           N12     As3   v100
        BYTE           N12     En4
        BYTE   W24
        BYTE                   Fs3
        BYTE           N12     Cs4
        BYTE   W24
        BYTE                   As3
        BYTE           N12     En4
        BYTE   W24
        BYTE                   Fs3
        BYTE           N12     Cs4
        BYTE   W24
        BYTE   PEND
// 031   ----------------------------------------
        BYTE   PATT
         POIN2  LightingTemple_4_28
// 032   ----------------------------------------
LightingTemple_4_32:
        BYTE           N12     Bn3   v100
        BYTE           N12     Gn4
        BYTE   W24
        BYTE                   Gn3
        BYTE           N12     Dn4
        BYTE   W24
        BYTE                   Bn3
        BYTE           N12     Gn4
        BYTE   W24
        BYTE                   Gn3
        BYTE           N12     Dn4
        BYTE   W24
        BYTE   PEND
// 033   ----------------------------------------
LightingTemple_4_33:
        BYTE           N12     Bn3   v100
        BYTE           N12     Fn4
        BYTE   W24
        BYTE                   Gs3
        BYTE           N12     Cs4
        BYTE   W24
        BYTE                   Bn3
        BYTE           N12     Fn4
        BYTE   W24
        BYTE                   Gs3
        BYTE           N12     Cs4
        BYTE   W24
        BYTE   PEND
// 034   ----------------------------------------
LightingTemple_4_34:
        BYTE           N12     Cs4   v100
        BYTE           N12     Fs4
        BYTE   W24
        BYTE                   Bn3
        BYTE           N12     Cs4
        BYTE   W24
        BYTE                   Cs4
        BYTE           N12     Fs4
        BYTE   W24
        BYTE                   Bn3
        BYTE           N12     Cs4
        BYTE   W24
        BYTE   PEND
// 035   ----------------------------------------
LightingTemple_4_35:
        BYTE           N12     Cs4   v100
        BYTE           N12     Fs4
        BYTE   W24
        BYTE                   As3
        BYTE           N12     Cs4
        BYTE   W24
        BYTE                   Fs4
        BYTE           N12     Cs4
        BYTE   W24
        BYTE                   As3
        BYTE           N12     Cs4
        BYTE   W24
        BYTE   PEND
// 036   ----------------------------------------
        BYTE   PATT
         POIN2  LightingTemple_4_28
// 037   ----------------------------------------
        BYTE   PATT
         POIN2  LightingTemple_4_29
// 038   ----------------------------------------
LightingTemple_4_38:
        BYTE           N12     An3   v100
        BYTE           N12     En4
        BYTE   W24
        BYTE                   En3
        BYTE           N12     Cs4
        BYTE   W24
        BYTE                   An3
        BYTE           N12     En4
        BYTE   W24
        BYTE                   En3
        BYTE           N12     Cs4
        BYTE   W24
        BYTE   PEND
// 039   ----------------------------------------
LightingTemple_4_39:
        BYTE           N12     An3   v100
        BYTE           N12     Fs4
        BYTE   W24
        BYTE                   Fs3
        BYTE           N12     Dn4
        BYTE   W24
        BYTE                   An3
        BYTE           N12     Fs4
        BYTE   W24
        BYTE                   Fs3
        BYTE           N12     Dn4
        BYTE   W24
        BYTE   PEND
// 040   ----------------------------------------
        BYTE   PATT
         POIN2  LightingTemple_4_32
// 041   ----------------------------------------
        BYTE   PATT
         POIN2  LightingTemple_4_33
// 042   ----------------------------------------
        BYTE   PATT
         POIN2  LightingTemple_4_34
// 043   ----------------------------------------
        BYTE   PATT
         POIN2  LightingTemple_4_35
// 044   ----------------------------------------
        BYTE           N12     An2   v100
        BYTE           N12     Cs3
        BYTE           N12     Fs3
        BYTE   GoTo
         POIN2  LightingTemple_4_LOOP
        BYTE   W24
        BYTE                   An2
        BYTE           N12     Cs3
        BYTE           N12     Fs3
        BYTE   W24
        BYTE                   An2
        BYTE           N12     Cs3
        BYTE           N12     Fs3
        BYTE   W24
        BYTE                   An2
        BYTE           N12     Cs3
        BYTE           N12     Fs3
        BYTE   W24
// 045   ----------------------------------------
        BYTE   PATT
         POIN2  LightingTemple_4_5
// 046   ----------------------------------------
        BYTE   PATT
         POIN2  LightingTemple_4_6
// 047   ----------------------------------------
        BYTE   PATT
         POIN2  LightingTemple_4_7
// 048   ----------------------------------------
        BYTE   PATT
         POIN2  LightingTemple_4_8
// 049   ----------------------------------------
        BYTE   PATT
         POIN2  LightingTemple_4_9
// 050   ----------------------------------------
        BYTE   PATT
         POIN2  LightingTemple_4_10
// 051   ----------------------------------------
        BYTE   PATT
         POIN2  LightingTemple_4_11
// 052   ----------------------------------------
        BYTE   PATT
         POIN2  LightingTemple_4_12
// 053   ----------------------------------------
        BYTE   PATT
         POIN2  LightingTemple_4_13
// 054   ----------------------------------------
        BYTE   W96
// 055   ----------------------------------------
        BYTE   PATT
         POIN2  LightingTemple_4_15
// 056   ----------------------------------------
        BYTE   PATT
         POIN2  LightingTemple_4_16
// 057   ----------------------------------------
        BYTE   W96
// 058   ----------------------------------------
        BYTE   PATT
         POIN2  LightingTemple_4_18
// 059   ----------------------------------------
        BYTE   PATT
         POIN2  LightingTemple_4_19
// 060   ----------------------------------------
        BYTE   PATT
         POIN2  LightingTemple_4_20
// 061   ----------------------------------------
        BYTE   PATT
         POIN2  LightingTemple_4_21
// 062   ----------------------------------------
        BYTE   PATT
         POIN2  LightingTemple_4_22
// 063   ----------------------------------------
        BYTE   PATT
         POIN2  LightingTemple_4_23
// 064   ----------------------------------------
        BYTE   PATT
         POIN2  LightingTemple_4_24
// 065   ----------------------------------------
        BYTE   PATT
         POIN2  LightingTemple_4_25
// 066   ----------------------------------------
        BYTE   PATT
         POIN2  LightingTemple_4_26
// 067   ----------------------------------------
        BYTE   PATT
         POIN2  LightingTemple_4_27
// 068   ----------------------------------------
        BYTE   PATT
         POIN2  LightingTemple_4_28
// 069   ----------------------------------------
        BYTE   PATT
         POIN2  LightingTemple_4_29
// 070   ----------------------------------------
        BYTE   PATT
         POIN2  LightingTemple_4_30
// 071   ----------------------------------------
        BYTE   PATT
         POIN2  LightingTemple_4_28
// 072   ----------------------------------------
        BYTE   PATT
         POIN2  LightingTemple_4_32
// 073   ----------------------------------------
        BYTE   PATT
         POIN2  LightingTemple_4_33
// 074   ----------------------------------------
        BYTE   PATT
         POIN2  LightingTemple_4_34
// 075   ----------------------------------------
        BYTE   PATT
         POIN2  LightingTemple_4_35
// 076   ----------------------------------------
        BYTE   PATT
         POIN2  LightingTemple_4_28
// 077   ----------------------------------------
        BYTE   PATT
         POIN2  LightingTemple_4_29
// 078   ----------------------------------------
        BYTE   PATT
         POIN2  LightingTemple_4_38
// 079   ----------------------------------------
        BYTE   PATT
         POIN2  LightingTemple_4_39
// 080   ----------------------------------------
        BYTE   PATT
         POIN2  LightingTemple_4_32
// 081   ----------------------------------------
        BYTE   PATT
         POIN2  LightingTemple_4_33
// 082   ----------------------------------------
        BYTE   PATT
         POIN2  LightingTemple_4_34
// 083   ----------------------------------------
        BYTE   PATT
         POIN2  LightingTemple_4_35
// 084   ----------------------------------------
        BYTE           N12     An2   v100
        BYTE           N12     Cs3
        BYTE           N12     Fs3
        BYTE   W24
        BYTE                   An2
        BYTE           N12     Cs3
        BYTE           N12     Fs3
        BYTE   W24
        BYTE                   An2
        BYTE           N12     Cs3
        BYTE           N12     Fs3
        BYTE   W24
        BYTE                   An2
        BYTE           N12     Cs3
        BYTE           N12     Fs3
        BYTE   W24
// 085   ----------------------------------------
        BYTE   PATT
         POIN2  LightingTemple_4_5
// 086   ----------------------------------------
        BYTE           N12     En3   v100
        BYTE           N12     Cs3
        BYTE           N12     An2
        BYTE   W19
        BYTE           VOL     48
        BYTE   W05
        BYTE           N12
        BYTE           N12     En3
        BYTE           N12     Cs3
        BYTE   W04
        BYTE           VOL     47
        BYTE   W20
        BYTE                   46
        BYTE           N12     An2
        BYTE           N12     Cs3
        BYTE           N12     En3
        BYTE   W09
        BYTE           VOL     45
        BYTE   W15
        BYTE           N12     An2
        BYTE           N12     Cs3
        BYTE           N12     En3
        BYTE   W14
        BYTE           VOL     44
        BYTE   W10
// 087   ----------------------------------------
        BYTE                   43
        BYTE           N12
        BYTE           N12     Bn2
        BYTE           N12     Gn2
        BYTE   W19
        BYTE           VOL     42
        BYTE   W05
        BYTE           N12
        BYTE           N12     Bn2
        BYTE           N12     En3
        BYTE   W24
        BYTE                   Gn2
        BYTE           N12     Bn2
        BYTE           N12     En3
        BYTE   W09
        BYTE           VOL     41
        BYTE   W15
        BYTE           N12     Gn2
        BYTE           N12     Bn2
        BYTE           N12     En3
        BYTE   W04
        BYTE           VOL     40
        BYTE   W10
        BYTE                   39
        BYTE   W10
// 088   ----------------------------------------
        BYTE           N12     Cs3
        BYTE           N12     Bn2
        BYTE           N12     Fn3
        BYTE   W09
        BYTE           VOL     38
        BYTE   W15
        BYTE           N12
        BYTE           N12     Cs3
        BYTE           N12     Bn2
        BYTE   W14
        BYTE           VOL     37
        BYTE   W10
        BYTE                   36
        BYTE           N12     Cs3
        BYTE           N12     An2
        BYTE           N12     Fs3
        BYTE   W19
        BYTE           VOL     35
        BYTE   W05
        BYTE           N12
        BYTE           N12     An2
        BYTE           N12     Cs3
        BYTE   W04
        BYTE           VOL     34
        BYTE   W20
// 089   ----------------------------------------
        BYTE                   33
        BYTE           N12     Fs3
        BYTE           N12     Dn3
        BYTE           N12     Bn2
        BYTE   W24
        BYTE                   Dn3
        BYTE           N12     Bn2
        BYTE           N12     Fs3
        BYTE   W04
        BYTE           VOL     32
        BYTE   W10
        BYTE                   31
        BYTE   W10
        BYTE           N12     Fn3
        BYTE           N12     Cs3
        BYTE           N12     Gs2
        BYTE   W19
        BYTE           VOL     30
        BYTE   W05
        BYTE           N12     Fn3
        BYTE           N12     Gs2
        BYTE           N12     Cs3
        BYTE   W24
// 090   ----------------------------------------
        BYTE           VOL     29
        BYTE           N12
        BYTE           N12     An2
        BYTE           N12     Fs3
        BYTE   W09
        BYTE           VOL     28
        BYTE   W15
        BYTE           N12     Cs3
        BYTE           N12     Fs3
        BYTE           N12     An2
        BYTE   W04
        BYTE           VOL     27
        BYTE   W10
        BYTE                   26
        BYTE   W10
        BYTE           N12     Cs3
        BYTE           N12     Gs2
        BYTE           N12     En3
        BYTE   W19
        BYTE           VOL     25
        BYTE   W05
        BYTE           N12     Cs3
        BYTE           N12     Gs2
        BYTE           N12     En3
        BYTE   W14
        BYTE           VOL     24
        BYTE   W10
// 091   ----------------------------------------
        BYTE                   23
        BYTE           N48     Fs3
        BYTE           N96     Cs3
        BYTE   W19
        BYTE           VOL     22
        BYTE   W28
        BYTE   W01
        BYTE                   21
        BYTE           N48     As3
        BYTE   W28
        BYTE           VOL     20
        BYTE   W10
        BYTE                   19
        BYTE   W10
// 092   ----------------------------------------
        BYTE           N96     Dn3
        BYTE           N96     Bn3
        BYTE   W19
        BYTE           VOL     18
        BYTE   W19
        BYTE                   17
        BYTE   W10
        BYTE                   16
        BYTE   W19
        BYTE                   15
        BYTE   W09
        BYTE                   14
        BYTE   W20
// 093   ----------------------------------------
        BYTE           N48     En3
        BYTE           N48     Cs4
        BYTE   W09
        BYTE           VOL     13
        BYTE   W10
        BYTE                   12
        BYTE   W19
        BYTE                   11
        BYTE   W10
        BYTE                   10
        BYTE           TIE     Dn3
        BYTE           TIE     Bn3
        BYTE   W48
// 094   ----------------------------------------
        BYTE           VOL     9
        BYTE   W09
        BYTE                   8
        BYTE   W19
        BYTE                   7
        BYTE   W28
        BYTE   W01
        BYTE                   6
        BYTE   W10
        BYTE                   5
        BYTE   W19
        BYTE                   4
        BYTE   W10
// 095   ----------------------------------------
        BYTE           EOT
        BYTE           EOT     Dn3
        BYTE           VOL     3
        BYTE           N96     Cs3
        BYTE           N96     As3
        BYTE   W28
        BYTE           VOL     2
        BYTE   W20
        BYTE                   1
        BYTE   W09
        BYTE                   0
        BYTE   W36
        BYTE   W03
// 096   ----------------------------------------
        BYTE   FINE

//****************** Track 5 (Midi-Chn.5) ******************//

LightingTemple_5:
        BYTE   KEYSH   LightingTemple_key+0
// 000   ----------------------------------------
        BYTE           VOICE   46
        BYTE           VOL     56
        BYTE           PAN     c_v-16
        BYTE   W96
// 001   ----------------------------------------
        BYTE   W96
// 002   ----------------------------------------
        BYTE   W96
// 003   ----------------------------------------
        BYTE   W96
// 004   ----------------------------------------
LightingTemple_5_LOOP:
        BYTE   W96
// 005   ----------------------------------------
        BYTE   W96
// 006   ----------------------------------------
        BYTE   W96
// 007   ----------------------------------------
        BYTE   W96
// 008   ----------------------------------------
        BYTE   W96
// 009   ----------------------------------------
        BYTE   W96
// 010   ----------------------------------------
        BYTE   W96
// 011   ----------------------------------------
        BYTE   W96
// 012   ----------------------------------------
        BYTE   W96
// 013   ----------------------------------------
        BYTE   W96
// 014   ----------------------------------------
        BYTE   W96
// 015   ----------------------------------------
        BYTE   W96
// 016   ----------------------------------------
        BYTE   W96
// 017   ----------------------------------------
        BYTE   W96
// 018   ----------------------------------------
        BYTE   W96
// 019   ----------------------------------------
        BYTE   W96
// 020   ----------------------------------------
        BYTE   W96
// 021   ----------------------------------------
        BYTE   W96
// 022   ----------------------------------------
        BYTE   W96
// 023   ----------------------------------------
        BYTE   W96
// 024   ----------------------------------------
        BYTE   W96
// 025   ----------------------------------------
        BYTE   W96
// 026   ----------------------------------------
        BYTE   W96
// 027   ----------------------------------------
LightingTemple_5_27:
        BYTE   W24
        BYTE           N06     Bn3   v100
        BYTE   W06
        BYTE                   Cs4
        BYTE   W06
        BYTE                   Dn4
        BYTE   W06
        BYTE                   Fs4
        BYTE   W06
        BYTE                   Bn3
        BYTE   W06
        BYTE                   Cs4
        BYTE   W06
        BYTE                   Dn4
        BYTE   W06
        BYTE                   Fs4
        BYTE   W06
        BYTE                   Bn4
        BYTE   W06
        BYTE                   Cs5
        BYTE   W06
        BYTE                   Dn5
        BYTE   W06
        BYTE                   En5
        BYTE   W06
        BYTE   PEND
// 028   ----------------------------------------
LightingTemple_5_28:
        BYTE           N12     Fs5   v100
        BYTE   W12
        BYTE                   Dn5
        BYTE   W12
        BYTE                   Bn4
        BYTE   W12
        BYTE                   Dn5
        BYTE   W12
        BYTE                   Fs5
        BYTE   W12
        BYTE                   Dn5
        BYTE   W12
        BYTE                   Bn4
        BYTE   W12
        BYTE                   Dn5
        BYTE   W12
        BYTE   PEND
// 029   ----------------------------------------
LightingTemple_5_29:
        BYTE           N12     Gn5   v100
        BYTE   W12
        BYTE                   Cs5
        BYTE   W12
        BYTE                   Bn4
        BYTE   W12
        BYTE                   Cs5
        BYTE   W12
        BYTE                   Gn5
        BYTE   W12
        BYTE                   Cs5
        BYTE   W12
        BYTE                   Bn4
        BYTE   W12
        BYTE                   Cs5
        BYTE   W12
        BYTE   PEND
// 030   ----------------------------------------
LightingTemple_5_30:
        BYTE           N12     Fs5   v100
        BYTE   W12
        BYTE                   Cs5
        BYTE   W12
        BYTE                   As4
        BYTE   W12
        BYTE                   Cs5
        BYTE   W12
        BYTE                   Fs5
        BYTE   W12
        BYTE                   Cs5
        BYTE   W12
        BYTE                   As4
        BYTE   W12
        BYTE                   Cs5
        BYTE   W12
        BYTE   PEND
// 031   ----------------------------------------
        BYTE   PATT
         POIN2  LightingTemple_5_28
// 032   ----------------------------------------
LightingTemple_5_32:
        BYTE           N12     Gn5   v100
        BYTE   W12
        BYTE                   Dn5
        BYTE   W12
        BYTE                   Bn4
        BYTE   W12
        BYTE                   Dn5
        BYTE   W12
        BYTE                   Gn5
        BYTE   W12
        BYTE                   Dn5
        BYTE   W12
        BYTE                   Bn4
        BYTE   W12
        BYTE                   Dn5
        BYTE   W12
        BYTE   PEND
// 033   ----------------------------------------
LightingTemple_5_33:
        BYTE           N12     Fn5   v100
        BYTE   W12
        BYTE                   Cs5
        BYTE   W12
        BYTE                   Bn4
        BYTE   W12
        BYTE                   Cs5
        BYTE   W12
        BYTE                   Fn5
        BYTE   W12
        BYTE                   Cs5
        BYTE   W12
        BYTE                   Bn4
        BYTE   W12
        BYTE                   Cs5
        BYTE   W12
        BYTE   PEND
// 034   ----------------------------------------
LightingTemple_5_34:
        BYTE           N12     Fs5   v100
        BYTE   W12
        BYTE                   Cs5
        BYTE   W12
        BYTE                   Bn4
        BYTE   W12
        BYTE                   Cs5
        BYTE   W12
        BYTE                   Fs5
        BYTE   W12
        BYTE                   Cs5
        BYTE   W12
        BYTE                   Bn4
        BYTE   W12
        BYTE                   Cs5
        BYTE   W12
        BYTE   PEND
// 035   ----------------------------------------
LightingTemple_5_35:
        BYTE           N12     Fs5   v100
        BYTE   W12
        BYTE                   Cs5
        BYTE   W12
        BYTE                   As4
        BYTE   W12
        BYTE                   Cs5
        BYTE   W12
        BYTE           N06     Fs5
        BYTE   W06
        BYTE                   Cs5
        BYTE   W06
        BYTE                   As4
        BYTE   W06
        BYTE                   Fs4
        BYTE   W06
        BYTE                   As4
        BYTE   W06
        BYTE                   Fs4
        BYTE   W06
        BYTE                   Cs4
        BYTE   W06
        BYTE                   As3
        BYTE   W06
        BYTE   PEND
// 036   ----------------------------------------
        BYTE   PATT
         POIN2  LightingTemple_5_28
// 037   ----------------------------------------
        BYTE   PATT
         POIN2  LightingTemple_5_29
// 038   ----------------------------------------
LightingTemple_5_38:
        BYTE           N12     En5   v100
        BYTE   W12
        BYTE                   Cs5
        BYTE   W12
        BYTE                   An4
        BYTE   W12
        BYTE                   Cs5
        BYTE   W12
        BYTE                   En5
        BYTE   W12
        BYTE                   Cs5
        BYTE   W12
        BYTE                   An4
        BYTE   W12
        BYTE                   Cs5
        BYTE   W12
        BYTE   PEND
// 039   ----------------------------------------
LightingTemple_5_39:
        BYTE           N12     Fs5   v100
        BYTE   W12
        BYTE                   Dn5
        BYTE   W12
        BYTE                   An4
        BYTE   W12
        BYTE                   Dn5
        BYTE   W12
        BYTE                   Fs5
        BYTE   W12
        BYTE                   Dn5
        BYTE   W12
        BYTE                   An4
        BYTE   W12
        BYTE                   Dn5
        BYTE   W12
        BYTE   PEND
// 040   ----------------------------------------
        BYTE   PATT
         POIN2  LightingTemple_5_32
// 041   ----------------------------------------
        BYTE   PATT
         POIN2  LightingTemple_5_33
// 042   ----------------------------------------
        BYTE   PATT
         POIN2  LightingTemple_5_34
// 043   ----------------------------------------
        BYTE   PATT
         POIN2  LightingTemple_5_35
// 044   ----------------------------------------
        BYTE   GoTo
         POIN2  LightingTemple_5_LOOP
        BYTE   W96
// 045   ----------------------------------------
        BYTE   W96
// 046   ----------------------------------------
        BYTE   W96
// 047   ----------------------------------------
        BYTE   W96
// 048   ----------------------------------------
        BYTE   W96
// 049   ----------------------------------------
        BYTE   W96
// 050   ----------------------------------------
        BYTE   W96
// 051   ----------------------------------------
        BYTE   W96
// 052   ----------------------------------------
        BYTE   W96
// 053   ----------------------------------------
        BYTE   W96
// 054   ----------------------------------------
        BYTE   W96
// 055   ----------------------------------------
        BYTE   W96
// 056   ----------------------------------------
        BYTE   W96
// 057   ----------------------------------------
        BYTE   W96
// 058   ----------------------------------------
        BYTE   W96
// 059   ----------------------------------------
        BYTE   W96
// 060   ----------------------------------------
        BYTE   W96
// 061   ----------------------------------------
        BYTE   W96
// 062   ----------------------------------------
        BYTE   W96
// 063   ----------------------------------------
        BYTE   W96
// 064   ----------------------------------------
        BYTE   W96
// 065   ----------------------------------------
        BYTE   W96
// 066   ----------------------------------------
        BYTE   W96
// 067   ----------------------------------------
        BYTE   PATT
         POIN2  LightingTemple_5_27
// 068   ----------------------------------------
        BYTE   PATT
         POIN2  LightingTemple_5_28
// 069   ----------------------------------------
        BYTE   PATT
         POIN2  LightingTemple_5_29
// 070   ----------------------------------------
        BYTE   PATT
         POIN2  LightingTemple_5_30
// 071   ----------------------------------------
        BYTE   PATT
         POIN2  LightingTemple_5_28
// 072   ----------------------------------------
        BYTE   PATT
         POIN2  LightingTemple_5_32
// 073   ----------------------------------------
        BYTE   PATT
         POIN2  LightingTemple_5_33
// 074   ----------------------------------------
        BYTE   PATT
         POIN2  LightingTemple_5_34
// 075   ----------------------------------------
        BYTE   PATT
         POIN2  LightingTemple_5_35
// 076   ----------------------------------------
        BYTE   PATT
         POIN2  LightingTemple_5_28
// 077   ----------------------------------------
        BYTE   PATT
         POIN2  LightingTemple_5_29
// 078   ----------------------------------------
        BYTE   PATT
         POIN2  LightingTemple_5_38
// 079   ----------------------------------------
        BYTE   PATT
         POIN2  LightingTemple_5_39
// 080   ----------------------------------------
        BYTE   PATT
         POIN2  LightingTemple_5_32
// 081   ----------------------------------------
        BYTE   PATT
         POIN2  LightingTemple_5_33
// 082   ----------------------------------------
        BYTE   PATT
         POIN2  LightingTemple_5_34
// 083   ----------------------------------------
        BYTE   PATT
         POIN2  LightingTemple_5_35
// 084   ----------------------------------------
        BYTE   W96
// 085   ----------------------------------------
        BYTE   W96
// 086   ----------------------------------------
        BYTE   W96
// 087   ----------------------------------------
        BYTE   W96
// 088   ----------------------------------------
        BYTE   W96
// 089   ----------------------------------------
        BYTE   W96
// 090   ----------------------------------------
        BYTE   W96
// 091   ----------------------------------------
        BYTE   W96
// 092   ----------------------------------------
        BYTE   W96
// 093   ----------------------------------------
        BYTE   W96
// 094   ----------------------------------------
        BYTE   W96
// 095   ----------------------------------------
        BYTE   W96
// 096   ----------------------------------------
        BYTE   FINE

//****************** Track 6 (Midi-Chn.6) ******************//

LightingTemple_6:
        BYTE   KEYSH   LightingTemple_key+0
// 000   ----------------------------------------
        BYTE           VOICE   46
        BYTE           VOL     43
        BYTE           PAN     c_v+8
        BYTE   W96
// 001   ----------------------------------------
        BYTE   W96
// 002   ----------------------------------------
        BYTE   W96
// 003   ----------------------------------------
        BYTE   W96
// 004   ----------------------------------------
LightingTemple_6_LOOP:
        BYTE   W96
// 005   ----------------------------------------
        BYTE   W96
// 006   ----------------------------------------
        BYTE   W96
// 007   ----------------------------------------
        BYTE   W96
// 008   ----------------------------------------
        BYTE   W96
// 009   ----------------------------------------
        BYTE   W96
// 010   ----------------------------------------
        BYTE   W96
// 011   ----------------------------------------
        BYTE   W96
// 012   ----------------------------------------
        BYTE   W96
// 013   ----------------------------------------
        BYTE   W96
// 014   ----------------------------------------
        BYTE   W96
// 015   ----------------------------------------
        BYTE   W96
// 016   ----------------------------------------
        BYTE   W96
// 017   ----------------------------------------
        BYTE   W96
// 018   ----------------------------------------
        BYTE   W96
// 019   ----------------------------------------
        BYTE   W96
// 020   ----------------------------------------
        BYTE   W96
// 021   ----------------------------------------
        BYTE   W96
// 022   ----------------------------------------
        BYTE   W96
// 023   ----------------------------------------
        BYTE   W96
// 024   ----------------------------------------
        BYTE   W96
// 025   ----------------------------------------
        BYTE   W96
// 026   ----------------------------------------
        BYTE   W96
// 027   ----------------------------------------
LightingTemple_6_27:
        BYTE   W30
        BYTE           N06     Bn3   v100
        BYTE   W06
        BYTE                   Cs4
        BYTE   W06
        BYTE                   Dn4
        BYTE   W06
        BYTE                   Fs4
        BYTE   W06
        BYTE                   Bn3
        BYTE   W06
        BYTE                   Cs4
        BYTE   W06
        BYTE                   Dn4
        BYTE   W06
        BYTE                   Fs4
        BYTE   W06
        BYTE                   Bn4
        BYTE   W06
        BYTE                   Cs5
        BYTE   W06
        BYTE                   Dn5
        BYTE   W06
        BYTE   PEND
// 028   ----------------------------------------
LightingTemple_6_28:
        BYTE           N06     En5   v100
        BYTE   W06
        BYTE           N12     Fs5
        BYTE   W12
        BYTE                   Dn5
        BYTE   W12
        BYTE                   Bn4
        BYTE   W12
        BYTE                   Dn5
        BYTE   W12
        BYTE                   Fs5
        BYTE   W12
        BYTE                   Dn5
        BYTE   W12
        BYTE                   Bn4
        BYTE   W12
        BYTE                   Dn5
        BYTE   W06
        BYTE   PEND
// 029   ----------------------------------------
LightingTemple_6_29:
        BYTE   W06
        BYTE           N12     Gn5   v100
        BYTE   W12
        BYTE                   Cs5
        BYTE   W12
        BYTE                   Bn4
        BYTE   W12
        BYTE                   Cs5
        BYTE   W12
        BYTE                   Gn5
        BYTE   W12
        BYTE                   Cs5
        BYTE   W12
        BYTE                   Bn4
        BYTE   W12
        BYTE                   Cs5
        BYTE   W06
        BYTE   PEND
// 030   ----------------------------------------
LightingTemple_6_30:
        BYTE   W06
        BYTE           N12     Fs5   v100
        BYTE   W12
        BYTE                   Cs5
        BYTE   W12
        BYTE                   As4
        BYTE   W12
        BYTE                   Cs5
        BYTE   W12
        BYTE                   Fs5
        BYTE   W12
        BYTE                   Cs5
        BYTE   W12
        BYTE                   As4
        BYTE   W12
        BYTE                   Cs5
        BYTE   W06
        BYTE   PEND
// 031   ----------------------------------------
LightingTemple_6_31:
        BYTE   W06
        BYTE           N12     Fs5   v100
        BYTE   W12
        BYTE                   Dn5
        BYTE   W12
        BYTE                   Bn4
        BYTE   W12
        BYTE                   Dn5
        BYTE   W12
        BYTE                   Fs5
        BYTE   W12
        BYTE                   Dn5
        BYTE   W12
        BYTE                   Bn4
        BYTE   W12
        BYTE                   Dn5
        BYTE   W06
        BYTE   PEND
// 032   ----------------------------------------
LightingTemple_6_32:
        BYTE   W06
        BYTE           N12     Gn5   v100
        BYTE   W12
        BYTE                   Dn5
        BYTE   W12
        BYTE                   Bn4
        BYTE   W12
        BYTE                   Dn5
        BYTE   W12
        BYTE                   Gn5
        BYTE   W12
        BYTE                   Dn5
        BYTE   W12
        BYTE                   Bn4
        BYTE   W12
        BYTE                   Dn5
        BYTE   W06
        BYTE   PEND
// 033   ----------------------------------------
LightingTemple_6_33:
        BYTE   W06
        BYTE           N12     Fn5   v100
        BYTE   W12
        BYTE                   Cs5
        BYTE   W12
        BYTE                   Bn4
        BYTE   W12
        BYTE                   Cs5
        BYTE   W12
        BYTE                   Fn5
        BYTE   W12
        BYTE                   Cs5
        BYTE   W12
        BYTE                   Bn4
        BYTE   W12
        BYTE                   Cs5
        BYTE   W06
        BYTE   PEND
// 034   ----------------------------------------
LightingTemple_6_34:
        BYTE   W06
        BYTE           N12     Fs5   v100
        BYTE   W12
        BYTE                   Cs5
        BYTE   W12
        BYTE                   Bn4
        BYTE   W12
        BYTE                   Cs5
        BYTE   W12
        BYTE                   Fs5
        BYTE   W12
        BYTE                   Cs5
        BYTE   W12
        BYTE                   Bn4
        BYTE   W12
        BYTE                   Cs5
        BYTE   W06
        BYTE   PEND
// 035   ----------------------------------------
LightingTemple_6_35:
        BYTE   W06
        BYTE           N12     Fs5   v100
        BYTE   W12
        BYTE                   Cs5
        BYTE   W12
        BYTE                   As4
        BYTE   W12
        BYTE                   Cs5
        BYTE   W12
        BYTE           N06     Fs5
        BYTE   W06
        BYTE                   Cs5
        BYTE   W06
        BYTE                   As4
        BYTE   W06
        BYTE                   Fs4
        BYTE   W06
        BYTE                   As4
        BYTE   W06
        BYTE                   Fs4
        BYTE   W06
        BYTE                   Cs4
        BYTE   W06
        BYTE   PEND
// 036   ----------------------------------------
LightingTemple_6_36:
        BYTE           N06     As3   v100
        BYTE   W06
        BYTE           N12     Fs5
        BYTE   W12
        BYTE                   Dn5
        BYTE   W12
        BYTE                   Bn4
        BYTE   W12
        BYTE                   Dn5
        BYTE   W12
        BYTE                   Fs5
        BYTE   W12
        BYTE                   Dn5
        BYTE   W12
        BYTE                   Bn4
        BYTE   W12
        BYTE                   Dn5
        BYTE   W06
        BYTE   PEND
// 037   ----------------------------------------
        BYTE   PATT
         POIN2  LightingTemple_6_29
// 038   ----------------------------------------
LightingTemple_6_38:
        BYTE   W06
        BYTE           N12     En5   v100
        BYTE   W12
        BYTE                   Cs5
        BYTE   W12
        BYTE                   An4
        BYTE   W12
        BYTE                   Cs5
        BYTE   W12
        BYTE                   En5
        BYTE   W12
        BYTE                   Cs5
        BYTE   W12
        BYTE                   An4
        BYTE   W12
        BYTE                   Cs5
        BYTE   W06
        BYTE   PEND
// 039   ----------------------------------------
LightingTemple_6_39:
        BYTE   W06
        BYTE           N12     Fs5   v100
        BYTE   W12
        BYTE                   Dn5
        BYTE   W12
        BYTE                   An4
        BYTE   W12
        BYTE                   Dn5
        BYTE   W12
        BYTE                   Fs5
        BYTE   W12
        BYTE                   Dn5
        BYTE   W12
        BYTE                   An4
        BYTE   W12
        BYTE                   Dn5
        BYTE   W06
        BYTE   PEND
// 040   ----------------------------------------
        BYTE   PATT
         POIN2  LightingTemple_6_32
// 041   ----------------------------------------
        BYTE   PATT
         POIN2  LightingTemple_6_33
// 042   ----------------------------------------
        BYTE   PATT
         POIN2  LightingTemple_6_34
// 043   ----------------------------------------
        BYTE   PATT
         POIN2  LightingTemple_6_35
// 044   ----------------------------------------
        BYTE           N06     As3   v100
        BYTE   GoTo
         POIN2  LightingTemple_6_LOOP
        BYTE   W96
// 045   ----------------------------------------
        BYTE   W96
// 046   ----------------------------------------
        BYTE   W96
// 047   ----------------------------------------
        BYTE   W96
// 048   ----------------------------------------
        BYTE   W96
// 049   ----------------------------------------
        BYTE   W96
// 050   ----------------------------------------
        BYTE   W96
// 051   ----------------------------------------
        BYTE   W96
// 052   ----------------------------------------
        BYTE   W96
// 053   ----------------------------------------
        BYTE   W96
// 054   ----------------------------------------
        BYTE   W96
// 055   ----------------------------------------
        BYTE   W96
// 056   ----------------------------------------
        BYTE   W96
// 057   ----------------------------------------
        BYTE   W96
// 058   ----------------------------------------
        BYTE   W96
// 059   ----------------------------------------
        BYTE   W96
// 060   ----------------------------------------
        BYTE   W96
// 061   ----------------------------------------
        BYTE   W96
// 062   ----------------------------------------
        BYTE   W96
// 063   ----------------------------------------
        BYTE   W96
// 064   ----------------------------------------
        BYTE   W96
// 065   ----------------------------------------
        BYTE   W96
// 066   ----------------------------------------
        BYTE   W96
// 067   ----------------------------------------
        BYTE   PATT
         POIN2  LightingTemple_6_27
// 068   ----------------------------------------
        BYTE   PATT
         POIN2  LightingTemple_6_28
// 069   ----------------------------------------
        BYTE   PATT
         POIN2  LightingTemple_6_29
// 070   ----------------------------------------
        BYTE   PATT
         POIN2  LightingTemple_6_30
// 071   ----------------------------------------
        BYTE   PATT
         POIN2  LightingTemple_6_31
// 072   ----------------------------------------
        BYTE   PATT
         POIN2  LightingTemple_6_32
// 073   ----------------------------------------
        BYTE   PATT
         POIN2  LightingTemple_6_33
// 074   ----------------------------------------
        BYTE   PATT
         POIN2  LightingTemple_6_34
// 075   ----------------------------------------
        BYTE   PATT
         POIN2  LightingTemple_6_35
// 076   ----------------------------------------
        BYTE   PATT
         POIN2  LightingTemple_6_36
// 077   ----------------------------------------
        BYTE   PATT
         POIN2  LightingTemple_6_29
// 078   ----------------------------------------
        BYTE   PATT
         POIN2  LightingTemple_6_38
// 079   ----------------------------------------
        BYTE   PATT
         POIN2  LightingTemple_6_39
// 080   ----------------------------------------
        BYTE   PATT
         POIN2  LightingTemple_6_32
// 081   ----------------------------------------
        BYTE   PATT
         POIN2  LightingTemple_6_33
// 082   ----------------------------------------
        BYTE   PATT
         POIN2  LightingTemple_6_34
// 083   ----------------------------------------
        BYTE   PATT
         POIN2  LightingTemple_6_35
// 084   ----------------------------------------
        BYTE           N06     As3   v100
        BYTE   W96
// 085   ----------------------------------------
        BYTE   W96
// 086   ----------------------------------------
        BYTE   W96
// 087   ----------------------------------------
        BYTE   W96
// 088   ----------------------------------------
        BYTE   W96
// 089   ----------------------------------------
        BYTE   W96
// 090   ----------------------------------------
        BYTE   W96
// 091   ----------------------------------------
        BYTE   W96
// 092   ----------------------------------------
        BYTE   W96
// 093   ----------------------------------------
        BYTE   W96
// 094   ----------------------------------------
        BYTE   W96
// 095   ----------------------------------------
        BYTE   W96
// 096   ----------------------------------------
        BYTE   FINE

//****************** Track 7 (Midi-Chn.7) ******************//

LightingTemple_7:
        BYTE   KEYSH   LightingTemple_key+0
// 000   ----------------------------------------
        BYTE           VOICE   60
        BYTE           VOL     63
        BYTE           PAN     c_v+16
        BYTE   W96
// 001   ----------------------------------------
        BYTE   W96
// 002   ----------------------------------------
        BYTE   W96
// 003   ----------------------------------------
        BYTE   W96
// 004   ----------------------------------------
LightingTemple_7_LOOP:
        BYTE   W96
// 005   ----------------------------------------
        BYTE   W96
// 006   ----------------------------------------
        BYTE   W96
// 007   ----------------------------------------
        BYTE   W96
// 008   ----------------------------------------
        BYTE   W96
// 009   ----------------------------------------
        BYTE   W96
// 010   ----------------------------------------
        BYTE   W96
// 011   ----------------------------------------
        BYTE   W96
// 012   ----------------------------------------
        BYTE   W96
// 013   ----------------------------------------
        BYTE   W96
// 014   ----------------------------------------
        BYTE   W96
// 015   ----------------------------------------
        BYTE   W96
// 016   ----------------------------------------
        BYTE   W96
// 017   ----------------------------------------
        BYTE   W96
// 018   ----------------------------------------
        BYTE   W96
// 019   ----------------------------------------
        BYTE   W96
// 020   ----------------------------------------
        BYTE   W96
// 021   ----------------------------------------
        BYTE   W96
// 022   ----------------------------------------
        BYTE   W96
// 023   ----------------------------------------
        BYTE   W96
// 024   ----------------------------------------
        BYTE   W96
// 025   ----------------------------------------
        BYTE   W96
// 026   ----------------------------------------
        BYTE   W96
// 027   ----------------------------------------
        BYTE   W96
// 028   ----------------------------------------
        BYTE   W96
// 029   ----------------------------------------
        BYTE   W96
// 030   ----------------------------------------
        BYTE   W96
// 031   ----------------------------------------
        BYTE   W96
// 032   ----------------------------------------
        BYTE   W96
// 033   ----------------------------------------
        BYTE   W96
// 034   ----------------------------------------
        BYTE   W96
// 035   ----------------------------------------
        BYTE   W96
// 036   ----------------------------------------
LightingTemple_7_36:
        BYTE           N48     Bn2   v126
        BYTE   W48
        BYTE           N24     Cs3
        BYTE   W24
        BYTE                   Dn3
        BYTE   W24
        BYTE   PEND
// 037   ----------------------------------------
LightingTemple_7_37:
        BYTE           N48     Cs3   v126
        BYTE   W48
        BYTE                   Bn2
        BYTE   W48
        BYTE   PEND
// 038   ----------------------------------------
LightingTemple_7_38:
        BYTE           N48     An2   v126
        BYTE   W48
        BYTE                   Cs3
        BYTE   W48
        BYTE   PEND
// 039   ----------------------------------------
LightingTemple_7_39:
        BYTE           N48     Fs3   v126
        BYTE   W72
        BYTE           N24     En3
        BYTE   W24
        BYTE   PEND
// 040   ----------------------------------------
LightingTemple_7_40:
        BYTE           N48     Dn3   v126
        BYTE   W48
        BYTE           N24     En3
        BYTE   W24
        BYTE                   Fs3
        BYTE   W24
        BYTE   PEND
// 041   ----------------------------------------
LightingTemple_7_41:
        BYTE           N48     En3   v126
        BYTE   W48
        BYTE                   Dn3
        BYTE   W48
        BYTE   PEND
// 042   ----------------------------------------
LightingTemple_7_42:
        BYTE           N72     Dn3   v126
        BYTE   W72
        BYTE           N12     En3
        BYTE   W12
        BYTE                   Dn3
        BYTE   W12
        BYTE   PEND
// 043   ----------------------------------------
        BYTE           N96     Cs3
        BYTE   W96
// 044   ----------------------------------------
        BYTE   GoTo
         POIN2  LightingTemple_7_LOOP
        BYTE   W96
// 045   ----------------------------------------
        BYTE   W96
// 046   ----------------------------------------
        BYTE   W96
// 047   ----------------------------------------
        BYTE   W96
// 048   ----------------------------------------
        BYTE   W96
// 049   ----------------------------------------
        BYTE   W96
// 050   ----------------------------------------
        BYTE   W96
// 051   ----------------------------------------
        BYTE   W96
// 052   ----------------------------------------
        BYTE   W96
// 053   ----------------------------------------
        BYTE   W96
// 054   ----------------------------------------
        BYTE   W96
// 055   ----------------------------------------
        BYTE   W96
// 056   ----------------------------------------
        BYTE   W96
// 057   ----------------------------------------
        BYTE   W96
// 058   ----------------------------------------
        BYTE   W96
// 059   ----------------------------------------
        BYTE   W96
// 060   ----------------------------------------
        BYTE   W96
// 061   ----------------------------------------
        BYTE   W96
// 062   ----------------------------------------
        BYTE   W96
// 063   ----------------------------------------
        BYTE   W96
// 064   ----------------------------------------
        BYTE   W96
// 065   ----------------------------------------
        BYTE   W96
// 066   ----------------------------------------
        BYTE   W96
// 067   ----------------------------------------
        BYTE   W96
// 068   ----------------------------------------
        BYTE   W96
// 069   ----------------------------------------
        BYTE   W96
// 070   ----------------------------------------
        BYTE   W96
// 071   ----------------------------------------
        BYTE   W96
// 072   ----------------------------------------
        BYTE   W96
// 073   ----------------------------------------
        BYTE   W96
// 074   ----------------------------------------
        BYTE   W96
// 075   ----------------------------------------
        BYTE   W96
// 076   ----------------------------------------
        BYTE   PATT
         POIN2  LightingTemple_7_36
// 077   ----------------------------------------
        BYTE   PATT
         POIN2  LightingTemple_7_37
// 078   ----------------------------------------
        BYTE   PATT
         POIN2  LightingTemple_7_38
// 079   ----------------------------------------
        BYTE   PATT
         POIN2  LightingTemple_7_39
// 080   ----------------------------------------
        BYTE   PATT
         POIN2  LightingTemple_7_40
// 081   ----------------------------------------
        BYTE   PATT
         POIN2  LightingTemple_7_41
// 082   ----------------------------------------
        BYTE   PATT
         POIN2  LightingTemple_7_42
// 083   ----------------------------------------
        BYTE           N96     Cs3   v126
        BYTE   W96
// 084   ----------------------------------------
        BYTE   W96
// 085   ----------------------------------------
        BYTE   W96
// 086   ----------------------------------------
        BYTE   W96
// 087   ----------------------------------------
        BYTE   W96
// 088   ----------------------------------------
        BYTE   W96
// 089   ----------------------------------------
        BYTE   W96
// 090   ----------------------------------------
        BYTE   W96
// 091   ----------------------------------------
        BYTE   W96
// 092   ----------------------------------------
        BYTE   W96
// 093   ----------------------------------------
        BYTE   W96
// 094   ----------------------------------------
        BYTE   W96
// 095   ----------------------------------------
        BYTE   W96
// 096   ----------------------------------------
        BYTE   FINE

//****************** Track 8 (Midi-Chn.9) ******************//

LightingTemple_8:
        BYTE   KEYSH   LightingTemple_key+0
// 000   ----------------------------------------
        BYTE           VOICE   48
        BYTE           VOL     63
        BYTE           PAN     c_v-1
        BYTE           N03     Dn1   v100
        BYTE           N03     An2
        BYTE           N03     Cn1
        BYTE   W24
        BYTE                   Dn1
        BYTE   W06
        BYTE                   Dn1
        BYTE   W06
        BYTE                   Dn1
        BYTE   W06
        BYTE                   Dn1
        BYTE   W06
        BYTE                   Dn1
        BYTE   W12
        BYTE                   Dn1
        BYTE   W12
        BYTE                   Dn1   v064
        BYTE   W03
        BYTE                   Dn1
        BYTE   W03
        BYTE                   Dn1
        BYTE   W03
        BYTE                   Dn1
        BYTE   W03
        BYTE                   Dn1   v100
        BYTE           N03     Cn1
        BYTE   W12
// 001   ----------------------------------------
        BYTE                   Dn1
        BYTE           N03     An2
        BYTE           N03     Cn1
        BYTE   W24
        BYTE                   Dn1
        BYTE   W06
        BYTE                   Dn1
        BYTE   W06
        BYTE                   Dn1
        BYTE   W06
        BYTE                   Dn1
        BYTE   W06
        BYTE                   Dn1
        BYTE   W12
        BYTE                   Dn1
        BYTE   W12
        BYTE                   Cn1
        BYTE           N03     An2
        BYTE           N03     Dn1   v064
        BYTE   W03
        BYTE                   Dn1
        BYTE   W03
        BYTE                   Dn1
        BYTE   W03
        BYTE                   Dn1
        BYTE   W03
        BYTE                   Dn1   v100
        BYTE   W12
// 002   ----------------------------------------
        BYTE                   Cn1
        BYTE           N03     An2
        BYTE   W36
        BYTE                   Dn1
        BYTE   W06
        BYTE                   Dn1
        BYTE   W06
        BYTE                   Dn1
        BYTE           N03     Cn1
        BYTE   W24
        BYTE                   Dn1
        BYTE   W24
// 003   ----------------------------------------
        BYTE                   An2
        BYTE           N03     Cn1
        BYTE   W36
        BYTE                   Dn1
        BYTE   W06
        BYTE                   Dn1
        BYTE   W06
        BYTE                   An2
        BYTE           N03     Cn1
        BYTE   W48
// 004   ----------------------------------------
LightingTemple_8_LOOP:
        BYTE           N03     An2   v100
        BYTE           N03     Cn1
        BYTE   W96
// 005   ----------------------------------------
        BYTE   W96
// 006   ----------------------------------------
        BYTE   W96
// 007   ----------------------------------------
        BYTE   W96
// 008   ----------------------------------------
        BYTE   W96
// 009   ----------------------------------------
        BYTE   W96
// 010   ----------------------------------------
        BYTE   W96
// 011   ----------------------------------------
        BYTE   W96
// 012   ----------------------------------------
LightingTemple_8_12:
        BYTE           N03     Dn1   v100
        BYTE           N03     An2
        BYTE   W48
        BYTE                   Dn1
        BYTE   W24
        BYTE                   Dn1
        BYTE   W12
        BYTE                   Dn1
        BYTE   W12
        BYTE   PEND
// 013   ----------------------------------------
LightingTemple_8_13:
        BYTE           N03     Dn1   v100
        BYTE   W24
        BYTE                   Dn1
        BYTE   W48
        BYTE                   Dn1
        BYTE   W24
        BYTE   PEND
// 014   ----------------------------------------
LightingTemple_8_14:
        BYTE           N03     Dn1   v100
        BYTE   W48
        BYTE                   Dn1
        BYTE   W12
        BYTE                   Dn1
        BYTE   W12
        BYTE                   Dn1
        BYTE   W12
        BYTE                   Dn1
        BYTE   W12
        BYTE   PEND
// 015   ----------------------------------------
LightingTemple_8_15:
        BYTE           N03     Dn1   v100
        BYTE   W24
        BYTE                   Dn1
        BYTE   W48
        BYTE                   Dn1
        BYTE   W06
        BYTE                   Dn1
        BYTE   W06
        BYTE                   Dn1
        BYTE   W12
        BYTE   PEND
// 016   ----------------------------------------
        BYTE   PATT
         POIN2  LightingTemple_8_12
// 017   ----------------------------------------
        BYTE   PATT
         POIN2  LightingTemple_8_13
// 018   ----------------------------------------
        BYTE   PATT
         POIN2  LightingTemple_8_14
// 019   ----------------------------------------
        BYTE   PATT
         POIN2  LightingTemple_8_15
// 020   ----------------------------------------
LightingTemple_8_20:
        BYTE           N03     Dn1   v100
        BYTE           N03     An2
        BYTE   W24
        BYTE                   Dn1
        BYTE   W12
        BYTE                   Dn1
        BYTE   W12
        BYTE                   Dn1
        BYTE   W24
        BYTE                   Dn1
        BYTE   W24
        BYTE   PEND
// 021   ----------------------------------------
LightingTemple_8_21:
        BYTE           N03     Dn1   v100
        BYTE   W24
        BYTE                   Dn1
        BYTE   W24
        BYTE                   Dn1
        BYTE   W12
        BYTE                   Dn1
        BYTE   W12
        BYTE                   Dn1
        BYTE   W12
        BYTE                   Dn1
        BYTE   W12
        BYTE   PEND
// 022   ----------------------------------------
LightingTemple_8_22:
        BYTE           N03     Dn1   v100
        BYTE   W24
        BYTE                   Dn1
        BYTE   W12
        BYTE                   Dn1
        BYTE   W12
        BYTE                   Dn1
        BYTE   W24
        BYTE                   Dn1
        BYTE   W24
        BYTE   PEND
// 023   ----------------------------------------
LightingTemple_8_23:
        BYTE           N03     Dn1   v100
        BYTE   W36
        BYTE                   Dn1
        BYTE   W12
        BYTE                   Dn1
        BYTE   W12
        BYTE                   Dn1
        BYTE   W12
        BYTE                   Dn1
        BYTE   W06
        BYTE                   Dn1
        BYTE   W06
        BYTE                   Dn1
        BYTE   W12
        BYTE   PEND
// 024   ----------------------------------------
LightingTemple_8_24:
        BYTE           N03     Dn1   v100
        BYTE   W24
        BYTE                   Dn1
        BYTE   W12
        BYTE                   Dn1
        BYTE   W12
        BYTE                   Dn1
        BYTE   W24
        BYTE                   Dn1
        BYTE   W12
        BYTE                   Dn1
        BYTE   W12
        BYTE   PEND
// 025   ----------------------------------------
        BYTE   PATT
         POIN2  LightingTemple_8_22
// 026   ----------------------------------------
LightingTemple_8_26:
        BYTE           N03     Dn1   v100
        BYTE           N03     An2
        BYTE   W24
        BYTE                   Dn1
        BYTE   W24
        BYTE                   Dn1
        BYTE   W12
        BYTE                   Dn1
        BYTE   W12
        BYTE                   Dn1
        BYTE   W12
        BYTE                   Dn1
        BYTE   W12
        BYTE   PEND
// 027   ----------------------------------------
        BYTE                   Dn1
        BYTE   W96
// 028   ----------------------------------------
        BYTE   W96
// 029   ----------------------------------------
        BYTE   W96
// 030   ----------------------------------------
        BYTE   W96
// 031   ----------------------------------------
        BYTE   W96
// 032   ----------------------------------------
        BYTE   W96
// 033   ----------------------------------------
        BYTE   W96
// 034   ----------------------------------------
        BYTE   W96
// 035   ----------------------------------------
LightingTemple_8_35:
        BYTE           N03     An2   v006
        BYTE   W04
        BYTE                   An2   v011
        BYTE   W04
        BYTE                   An2   v016
        BYTE   W04
        BYTE                   An2   v021
        BYTE   W04
        BYTE                   An2   v025
        BYTE   W04
        BYTE                   An2   v031
        BYTE   W04
        BYTE                   An2   v035
        BYTE   W04
        BYTE                   An2   v040
        BYTE   W04
        BYTE                   An2   v045
        BYTE   W04
        BYTE                   An2   v050
        BYTE   W04
        BYTE                   An2   v055
        BYTE   W04
        BYTE                   An2   v060
        BYTE   W04
        BYTE                   An2   v065
        BYTE   W04
        BYTE                   An2   v069
        BYTE   W04
        BYTE                   An2   v075
        BYTE   W04
        BYTE                   An2   v079
        BYTE   W04
        BYTE                   An2   v084
        BYTE   W04
        BYTE                   An2   v090
        BYTE   W04
        BYTE                   Cn1   v100
        BYTE           N03     An2   v094
        BYTE   W04
        BYTE                   An2   v099
        BYTE   W04
        BYTE                   An2   v104
        BYTE   W04
        BYTE                   Cn1   v100
        BYTE           N03     An2   v109
        BYTE   W04
        BYTE                   An2   v114
        BYTE   W04
        BYTE                   An2   v119
        BYTE   W04
        BYTE   PEND
// 036   ----------------------------------------
LightingTemple_8_36:
        BYTE           N03     Dn1   v100
        BYTE           N03     Cn1
        BYTE           N03     An2   v124
        BYTE   W24
        BYTE                   Dn1   v100
        BYTE   W24
        BYTE                   Dn1
        BYTE   W12
        BYTE                   Dn1
        BYTE   W12
        BYTE                   Dn1
        BYTE   W12
        BYTE                   Dn1
        BYTE   W12
        BYTE   PEND
// 037   ----------------------------------------
LightingTemple_8_37:
        BYTE           N03     Dn1   v100
        BYTE   W24
        BYTE                   Dn1
        BYTE   W12
        BYTE                   Dn1
        BYTE   W12
        BYTE                   Dn1
        BYTE   W24
        BYTE                   Cn1
        BYTE           N03     Dn1
        BYTE   W24
        BYTE   PEND
// 038   ----------------------------------------
LightingTemple_8_38:
        BYTE           N03     Dn1   v100
        BYTE           N03     Cn1
        BYTE   W24
        BYTE                   Dn1
        BYTE   W24
        BYTE                   Dn1
        BYTE   W12
        BYTE                   Dn1
        BYTE   W12
        BYTE                   Dn1
        BYTE   W12
        BYTE                   Dn1
        BYTE   W12
        BYTE   PEND
// 039   ----------------------------------------
LightingTemple_8_39:
        BYTE           N03     Dn1   v100
        BYTE   W24
        BYTE                   Dn1
        BYTE   W24
        BYTE                   Cn1
        BYTE           N03     Dn1
        BYTE   W12
        BYTE                   Dn1
        BYTE   W06
        BYTE                   Dn1
        BYTE   W06
        BYTE                   Cn1
        BYTE           N03     Dn1
        BYTE   W12
        BYTE                   Cn1
        BYTE           N03     Dn1
        BYTE   W12
        BYTE   PEND
// 040   ----------------------------------------
LightingTemple_8_40:
        BYTE           N03     Dn1   v100
        BYTE           N03     An2
        BYTE           N03     Cn1
        BYTE   W48
        BYTE                   Dn1
        BYTE   W24
        BYTE                   Dn1
        BYTE   W12
        BYTE                   Dn1
        BYTE   W12
        BYTE   PEND
// 041   ----------------------------------------
LightingTemple_8_41:
        BYTE           N03     Dn1   v100
        BYTE           N03     Cn1
        BYTE   W24
        BYTE                   Dn1
        BYTE   W12
        BYTE                   Cn1
        BYTE   W12
        BYTE                   Cn1
        BYTE   W24
        BYTE                   Dn1
        BYTE           N03     Cn1
        BYTE   W08
        BYTE                   Dn1
        BYTE   W08
        BYTE                   Dn1
        BYTE   W08
        BYTE   PEND
// 042   ----------------------------------------
LightingTemple_8_42:
        BYTE           N03     Dn1   v100
        BYTE           N03     An2
        BYTE           N03     Cn1
        BYTE   W48
        BYTE                   Dn1
        BYTE           N03     Cn1
        BYTE   W12
        BYTE                   Dn1
        BYTE   W12
        BYTE                   Dn1
        BYTE   W12
        BYTE                   Dn1
        BYTE   W12
        BYTE   PEND
// 043   ----------------------------------------
LightingTemple_8_43:
        BYTE           N03     Dn1   v100
        BYTE           N03     An2
        BYTE           N03     Cn1
        BYTE   W24
        BYTE                   Dn1
        BYTE   W24
        BYTE                   Dn1
        BYTE           N03     Cn1
        BYTE   W24
        BYTE                   Cn1
        BYTE           N03     Dn1
        BYTE   W12
        BYTE                   Cn1
        BYTE           N03     Dn1
        BYTE   W12
        BYTE   PEND
// 044   ----------------------------------------
        BYTE                   An2
        BYTE           N03     Cn1
        BYTE   GoTo
         POIN2  LightingTemple_8_LOOP
        BYTE   W96
// 045   ----------------------------------------
        BYTE   W96
// 046   ----------------------------------------
        BYTE   W96
// 047   ----------------------------------------
        BYTE   W96
// 048   ----------------------------------------
        BYTE   W96
// 049   ----------------------------------------
        BYTE   W96
// 050   ----------------------------------------
        BYTE   W96
// 051   ----------------------------------------
        BYTE   W96
// 052   ----------------------------------------
        BYTE   PATT
         POIN2  LightingTemple_8_12
// 053   ----------------------------------------
        BYTE   PATT
         POIN2  LightingTemple_8_13
// 054   ----------------------------------------
        BYTE   PATT
         POIN2  LightingTemple_8_14
// 055   ----------------------------------------
        BYTE   PATT
         POIN2  LightingTemple_8_15
// 056   ----------------------------------------
        BYTE   PATT
         POIN2  LightingTemple_8_12
// 057   ----------------------------------------
        BYTE   PATT
         POIN2  LightingTemple_8_13
// 058   ----------------------------------------
        BYTE   PATT
         POIN2  LightingTemple_8_14
// 059   ----------------------------------------
        BYTE   PATT
         POIN2  LightingTemple_8_15
// 060   ----------------------------------------
        BYTE   PATT
         POIN2  LightingTemple_8_20
// 061   ----------------------------------------
        BYTE   PATT
         POIN2  LightingTemple_8_21
// 062   ----------------------------------------
        BYTE   PATT
         POIN2  LightingTemple_8_22
// 063   ----------------------------------------
        BYTE   PATT
         POIN2  LightingTemple_8_23
// 064   ----------------------------------------
        BYTE   PATT
         POIN2  LightingTemple_8_24
// 065   ----------------------------------------
        BYTE   PATT
         POIN2  LightingTemple_8_22
// 066   ----------------------------------------
        BYTE   PATT
         POIN2  LightingTemple_8_26
// 067   ----------------------------------------
        BYTE           N03     Dn1   v100
        BYTE   W96
// 068   ----------------------------------------
        BYTE   W96
// 069   ----------------------------------------
        BYTE   W96
// 070   ----------------------------------------
        BYTE   W96
// 071   ----------------------------------------
        BYTE   W96
// 072   ----------------------------------------
        BYTE   W96
// 073   ----------------------------------------
        BYTE   W96
// 074   ----------------------------------------
        BYTE   W96
// 075   ----------------------------------------
        BYTE   PATT
         POIN2  LightingTemple_8_35
// 076   ----------------------------------------
        BYTE   PATT
         POIN2  LightingTemple_8_36
// 077   ----------------------------------------
        BYTE   PATT
         POIN2  LightingTemple_8_37
// 078   ----------------------------------------
        BYTE   PATT
         POIN2  LightingTemple_8_38
// 079   ----------------------------------------
        BYTE   PATT
         POIN2  LightingTemple_8_39
// 080   ----------------------------------------
        BYTE   PATT
         POIN2  LightingTemple_8_40
// 081   ----------------------------------------
        BYTE   PATT
         POIN2  LightingTemple_8_41
// 082   ----------------------------------------
        BYTE   PATT
         POIN2  LightingTemple_8_42
// 083   ----------------------------------------
        BYTE   PATT
         POIN2  LightingTemple_8_43
// 084   ----------------------------------------
        BYTE           N03     An2   v100
        BYTE           N03     Cn1
        BYTE   W96
// 085   ----------------------------------------
        BYTE   W96
// 086   ----------------------------------------
        BYTE   PATT
         POIN2  LightingTemple_0_86
// 087   ----------------------------------------
        BYTE   PATT
         POIN2  LightingTemple_0_87
// 088   ----------------------------------------
        BYTE   PATT
         POIN2  LightingTemple_0_88
// 089   ----------------------------------------
        BYTE   PATT
         POIN2  LightingTemple_0_89
// 090   ----------------------------------------
        BYTE   PATT
         POIN2  LightingTemple_0_90
// 091   ----------------------------------------
        BYTE   W03
        BYTE           VOL     30
        BYTE   W23
        BYTE                   29
        BYTE   W08
        BYTE                   28
        BYTE   W15
        BYTE                   27
        BYTE   W07
        BYTE                   26
        BYTE   W23
        BYTE                   25
        BYTE   W15
        BYTE                   24
        BYTE   W02
// 092   ----------------------------------------
        BYTE           N03     Dn1   v100
        BYTE           N03     An2
        BYTE   W06
        BYTE           VOL     23
        BYTE   W15
        BYTE                   22
        BYTE   W22
        BYTE                   21
        BYTE   W05
        BYTE           N03     Dn1
        BYTE   W18
        BYTE           VOL     20
        BYTE   W06
        BYTE           N03
        BYTE   W02
        BYTE           VOL     19
        BYTE   W10
        BYTE           N03
        BYTE   W12
// 093   ----------------------------------------
        BYTE                   Dn1
        BYTE           VOL     18
        BYTE   W15
        BYTE                   17
        BYTE   W08
        BYTE                   16
        BYTE   W01
        BYTE           N03
        BYTE   W14
        BYTE           VOL     15
        BYTE   W08
        BYTE                   14
        BYTE   W22
        BYTE                   13
        BYTE   W04
        BYTE           N03
        BYTE   W04
        BYTE           VOL     12
        BYTE   W15
        BYTE                   11
        BYTE   W05
// 094   ----------------------------------------
        BYTE           N03
        BYTE   W03
        BYTE           VOL     10
        BYTE   W36
        BYTE   W01
        BYTE                   9
        BYTE   W08
        BYTE           N03
        BYTE           VOL     8
        BYTE   W12
        BYTE           N03
        BYTE   W03
        BYTE           VOL     7
        BYTE   W09
        BYTE           N03
        BYTE   W12
        BYTE                   Dn1
        BYTE   W02
        BYTE           VOL     6
        BYTE   W07
        BYTE                   5
        BYTE   W03
// 095   ----------------------------------------
        BYTE           N03
        BYTE   W12
        BYTE           VOL     4
        BYTE   W08
        BYTE                   3
        BYTE   W04
        BYTE           N03
        BYTE   W19
        BYTE           VOL     2
        BYTE   W15
        BYTE                   1
        BYTE   W07
        BYTE                   0
        BYTE   W07
        BYTE           N03
        BYTE   W06
        BYTE                   Dn1
        BYTE   W06
        BYTE                   Dn1
        BYTE   W12
// 096   ----------------------------------------
        BYTE   FINE


//********************** End of Song ***********************//

        ALIGN 4
LightingTemple:
        BYTE   9                       // Num Tracks
        BYTE   0                       // Unknown
        BYTE   LightingTemple_pri      // Priority
        BYTE   LightingTemple_rev      // Reverb

        POIN2   LightingTemple_grp     

        POIN2   LightingTemple_0
        POIN2   LightingTemple_1
        POIN2   LightingTemple_2
        POIN2   LightingTemple_3
        POIN2   LightingTemple_4
        POIN2   LightingTemple_5
        POIN2   LightingTemple_6
        POIN2   LightingTemple_7
        POIN2   LightingTemple_8

        
