//Event file generated from Sappy .s format.
        #include "MPlayDef.event"

        #define    LufiaBattle2_grp  voicegroup000
        #define    LufiaBattle2_pri  0
        #define    LufiaBattle2_rev  0
        #define    LufiaBattle2_key  0

        // .rodata
        // LufiaBattle2
        ALIGN 4

//****************** Track 0 (Midi-Chn.0) ******************//

LufiaBattle2_0:
        BYTE   KEYSH   LufiaBattle2_key+0
// 000   ----------------------------------------
        BYTE   TEMPO   176/2
        BYTE           VOICE   37
        BYTE           BENDR   12
        BYTE           VOL     70
        BYTE           N10     Bn0   v127
        BYTE   W12
        BYTE                   Bn0
        BYTE   W12
        BYTE                   Bn0
        BYTE   W12
        BYTE                   Bn0
        BYTE   W12
        BYTE                   Bn0
        BYTE   W12
        BYTE                   Bn0
        BYTE   W12
        BYTE                   Bn0
        BYTE   W12
        BYTE                   Bn0
        BYTE   W12
// 001   ----------------------------------------
        BYTE                   Bn0
        BYTE   W12
        BYTE                   Bn0
        BYTE   W12
        BYTE                   Bn0
        BYTE   W12
        BYTE                   Bn0
        BYTE   W12
        BYTE                   Bn0
        BYTE   W12
        BYTE                   Bn0
        BYTE   W12
        BYTE                   Bn0
        BYTE   W12
        BYTE                   Bn0
        BYTE   W12
// 002   ----------------------------------------
        BYTE                   Bn1
        BYTE   W12
        BYTE                   Bn0
        BYTE   W12
        BYTE                   Bn0
        BYTE   W12
        BYTE                   Bn1
        BYTE   W12
        BYTE                   Bn0
        BYTE   W12
        BYTE                   Bn0
        BYTE   W12
        BYTE                   Bn1
        BYTE   W12
        BYTE                   Bn0
        BYTE   W12
// 003   ----------------------------------------
        BYTE                   Bn0
        BYTE   W12
        BYTE                   Bn1
        BYTE   W12
        BYTE                   An1
        BYTE   W12
        BYTE                   Bn0
        BYTE   W12
        BYTE                   An1
        BYTE   W12
        BYTE                   Gn1
        BYTE   W12
        BYTE                   An0
        BYTE   W12
        BYTE                   An1
        BYTE   W12
// 004   ----------------------------------------
LufiaBattle2_0_LOOP:
        BYTE           N10     Gn0   v127
        BYTE   W12
        BYTE                   Gn0
        BYTE   W12
        BYTE                   Gn1
        BYTE   W12
        BYTE                   Gn0
        BYTE   W12
        BYTE                   Gn0
        BYTE   W12
        BYTE                   Gn1
        BYTE   W12
        BYTE                   Gn0
        BYTE   W12
        BYTE                   Gn0
        BYTE   W12
// 005   ----------------------------------------
LufiaBattle2_0_5:
        BYTE           N10     Gn1   v127
        BYTE   W12
        BYTE                   Gn0
        BYTE   W12
        BYTE                   Gn0
        BYTE   W12
        BYTE                   Gn1
        BYTE   W12
        BYTE                   Gn0
        BYTE   W12
        BYTE                   Fs0
        BYTE   W12
        BYTE                   Gn0
        BYTE   W12
        BYTE                   An0
        BYTE   W12
        BYTE   PEND
// 006   ----------------------------------------
LufiaBattle2_0_6:
        BYTE           N10     Bn0   v127
        BYTE   W12
        BYTE                   Bn0
        BYTE   W12
        BYTE                   Bn1
        BYTE   W12
        BYTE                   Bn0
        BYTE   W12
        BYTE                   Bn0
        BYTE   W12
        BYTE                   Bn1
        BYTE   W12
        BYTE                   Cs1
        BYTE   W12
        BYTE                   An0
        BYTE   W12
        BYTE   PEND
// 007   ----------------------------------------
LufiaBattle2_0_7:
        BYTE           N10     Bn1   v127
        BYTE   W12
        BYTE                   Bn0
        BYTE   W12
        BYTE                   Bn0
        BYTE   W12
        BYTE                   Bn1
        BYTE   W12
        BYTE                   An0
        BYTE   W12
        BYTE                   An0
        BYTE   W12
        BYTE                   An1
        BYTE   W12
        BYTE                   An0
        BYTE   W12
        BYTE   PEND
// 008   ----------------------------------------
LufiaBattle2_0_8:
        BYTE           N10     Gn0   v127
        BYTE   W12
        BYTE                   Gn0
        BYTE   W12
        BYTE                   Gn1
        BYTE   W12
        BYTE                   Gn0
        BYTE   W12
        BYTE                   Gn0
        BYTE   W12
        BYTE                   Fs0
        BYTE   W12
        BYTE                   Gn0
        BYTE   W12
        BYTE                   Gs0
        BYTE   W12
        BYTE   PEND
// 009   ----------------------------------------
LufiaBattle2_0_9:
        BYTE           N10     An1   v127
        BYTE   W12
        BYTE                   An0
        BYTE   W12
        BYTE                   An0
        BYTE   W12
        BYTE                   An1
        BYTE   W12
        BYTE                   An0
        BYTE   W12
        BYTE                   Gs0
        BYTE   W12
        BYTE                   An0
        BYTE   W12
        BYTE                   As0
        BYTE   W12
        BYTE   PEND
// 010   ----------------------------------------
LufiaBattle2_0_10:
        BYTE           N10     Bn0   v127
        BYTE   W12
        BYTE                   Bn0
        BYTE   W12
        BYTE                   Bn1
        BYTE   W12
        BYTE                   Bn0
        BYTE   W12
        BYTE                   Bn0
        BYTE   W12
        BYTE                   Bn1
        BYTE   W12
        BYTE                   Bn0
        BYTE   W12
        BYTE                   Bn0
        BYTE   W12
        BYTE   PEND
// 011   ----------------------------------------
        BYTE                   Bn0
        BYTE   W12
        BYTE                   An1
        BYTE   W12
        BYTE                   Gs1
        BYTE   W12
        BYTE                   En1
        BYTE   W12
        BYTE                   Fs1
        BYTE   W12
        BYTE                   Dn1
        BYTE   W12
        BYTE                   En1
        BYTE   W12
        BYTE                   Cs1
        BYTE   W12
// 012   ----------------------------------------
LufiaBattle2_0_12:
        BYTE           N10     Gn0   v127
        BYTE   W12
        BYTE                   Gn0
        BYTE   W12
        BYTE                   Gn1
        BYTE   W12
        BYTE                   Gn0
        BYTE   W12
        BYTE                   Gn0
        BYTE   W12
        BYTE                   Gn1
        BYTE   W12
        BYTE                   Gn0
        BYTE   W12
        BYTE                   Gn0
        BYTE   W12
        BYTE   PEND
// 013   ----------------------------------------
        BYTE   PATT
         POIN2  LufiaBattle2_0_5
// 014   ----------------------------------------
        BYTE   PATT
         POIN2  LufiaBattle2_0_6
// 015   ----------------------------------------
        BYTE   PATT
         POIN2  LufiaBattle2_0_7
// 016   ----------------------------------------
        BYTE   PATT
         POIN2  LufiaBattle2_0_8
// 017   ----------------------------------------
        BYTE   PATT
         POIN2  LufiaBattle2_0_9
// 018   ----------------------------------------
        BYTE   PATT
         POIN2  LufiaBattle2_0_10
// 019   ----------------------------------------
        BYTE           N11     Bn1   v127
        BYTE   W72
        BYTE           N22     An1
        BYTE   W06
        BYTE           BEND    c_v-1
        BYTE   W01
        BYTE                   c_v-4
        BYTE   W01
        BYTE                   c_v-6
        BYTE   W01
        BYTE                   c_v-9
        BYTE   W01
        BYTE                   c_v-12
        BYTE   W01
        BYTE                   c_v-14
        BYTE   W01
        BYTE                   c_v-17
        BYTE   W01
        BYTE                   c_v-19
        BYTE   W01
        BYTE                   c_v-21
        BYTE   W01
        BYTE                   c_v-24
        BYTE   W01
        BYTE                   c_v-26
        BYTE   W01
        BYTE                   c_v-28
        BYTE   W01
        BYTE                   c_v-31
        BYTE   W01
        BYTE                   c_v-34
        BYTE   W01
        BYTE                   c_v-36
        BYTE   W01
        BYTE                   c_v-39
        BYTE   W01
        BYTE                   c_v-41
        BYTE   W01
        BYTE                   c_v-44
        BYTE   W01
// 020   ----------------------------------------
        BYTE                   c_v+0
        BYTE           N10     Gn0
        BYTE   W12
        BYTE                   Gn0   v120
        BYTE   W12
        BYTE                   Gn1   v127
        BYTE   W12
        BYTE                   Gn0   v120
        BYTE   W12
        BYTE                   Gn0   v127
        BYTE   W12
        BYTE                   Gn1   v120
        BYTE   W12
        BYTE                   Gn0   v127
        BYTE   W12
        BYTE                   Gn0   v120
        BYTE   W12
// 021   ----------------------------------------
LufiaBattle2_0_21:
        BYTE           N10     Gn1   v127
        BYTE   W12
        BYTE                   Gn0   v120
        BYTE   W12
        BYTE                   Gn0   v127
        BYTE   W12
        BYTE                   Gn1   v120
        BYTE   W12
        BYTE                   Gn0   v127
        BYTE   W12
        BYTE                   Fs1
        BYTE   W12
        BYTE                   Gn1
        BYTE   W12
        BYTE                   An1
        BYTE   W12
        BYTE   PEND
// 022   ----------------------------------------
LufiaBattle2_0_22:
        BYTE           N10     Fs0   v127
        BYTE   W12
        BYTE                   Fs0   v120
        BYTE   W12
        BYTE                   Fs1   v127
        BYTE   W12
        BYTE                   Fs0   v120
        BYTE   W12
        BYTE                   Fs0   v127
        BYTE   W12
        BYTE                   Fs1   v120
        BYTE   W12
        BYTE                   Fs0   v127
        BYTE   W12
        BYTE                   Fs0   v120
        BYTE   W12
        BYTE   PEND
// 023   ----------------------------------------
LufiaBattle2_0_23:
        BYTE           N10     Fs1   v127
        BYTE   W12
        BYTE                   Fs0   v120
        BYTE   W12
        BYTE                   Fs0   v127
        BYTE   W12
        BYTE                   Fs1   v120
        BYTE   W12
        BYTE                   Fs0   v127
        BYTE   W12
        BYTE                   En1
        BYTE   W12
        BYTE                   Fs1
        BYTE   W12
        BYTE                   Dn1
        BYTE   W12
        BYTE   PEND
// 024   ----------------------------------------
LufiaBattle2_0_24:
        BYTE           N10     En0   v127
        BYTE   W12
        BYTE                   En0   v120
        BYTE   W12
        BYTE                   En1   v127
        BYTE   W12
        BYTE                   En0   v120
        BYTE   W12
        BYTE                   En0   v127
        BYTE   W12
        BYTE                   En1   v120
        BYTE   W12
        BYTE                   En0   v127
        BYTE   W12
        BYTE                   En0   v120
        BYTE   W12
        BYTE   PEND
// 025   ----------------------------------------
LufiaBattle2_0_25:
        BYTE           N10     En1   v127
        BYTE   W12
        BYTE                   En0   v120
        BYTE   W12
        BYTE                   En0   v127
        BYTE   W12
        BYTE                   En1   v120
        BYTE   W12
        BYTE                   En0   v127
        BYTE   W12
        BYTE                   Fs1
        BYTE   W12
        BYTE                   Gn1
        BYTE   W12
        BYTE                   Fn1
        BYTE   W12
        BYTE   PEND
// 026   ----------------------------------------
        BYTE   PATT
         POIN2  LufiaBattle2_0_22
// 027   ----------------------------------------
        BYTE           N10     Fs1   v127
        BYTE   W12
        BYTE                   Fs0   v120
        BYTE   W12
        BYTE                   Fs0   v127
        BYTE   W12
        BYTE                   Fs1   v120
        BYTE   W12
        BYTE                   Fs0   v127
        BYTE   W12
        BYTE                   Fs0   v120
        BYTE   W12
        BYTE                   Fs1   v127
        BYTE   W12
        BYTE                   Fs0   v120
        BYTE   W12
// 028   ----------------------------------------
        BYTE                   Gn0   v127
        BYTE   W12
        BYTE                   Gn0   v120
        BYTE   W12
        BYTE                   Gn1   v127
        BYTE   W12
        BYTE                   Gn0   v120
        BYTE   W12
        BYTE                   Gn0   v127
        BYTE   W12
        BYTE                   Gn1   v120
        BYTE   W12
        BYTE                   Gn0   v127
        BYTE   W12
        BYTE                   Gn0   v120
        BYTE   W12
// 029   ----------------------------------------
        BYTE   PATT
         POIN2  LufiaBattle2_0_21
// 030   ----------------------------------------
        BYTE   PATT
         POIN2  LufiaBattle2_0_22
// 031   ----------------------------------------
        BYTE   PATT
         POIN2  LufiaBattle2_0_23
// 032   ----------------------------------------
        BYTE   PATT
         POIN2  LufiaBattle2_0_24
// 033   ----------------------------------------
        BYTE   PATT
         POIN2  LufiaBattle2_0_25
// 034   ----------------------------------------
        BYTE           N32     Fs1   v127   gtp2
        BYTE   W36
        BYTE                   Cs1
        BYTE   W36
        BYTE           N22     As0   v120
        BYTE   W24
// 035   ----------------------------------------
        BYTE           N68     Fs0   v127   gtp2
        BYTE   W72
        BYTE           N22     Fs1
        BYTE   W06
        BYTE           BEND    c_v-1
        BYTE   W01
        BYTE                   c_v-4
        BYTE   W01
        BYTE                   c_v-6
        BYTE   W01
        BYTE                   c_v-9
        BYTE   W01
        BYTE                   c_v-12
        BYTE   W01
        BYTE                   c_v-14
        BYTE   W01
        BYTE                   c_v-17
        BYTE   W01
        BYTE                   c_v-19
        BYTE   W01
        BYTE                   c_v-21
        BYTE   W01
        BYTE                   c_v-24
        BYTE   W01
        BYTE                   c_v-26
        BYTE   W01
        BYTE                   c_v-28
        BYTE   W01
        BYTE                   c_v-31
        BYTE   W01
        BYTE                   c_v-34
        BYTE   W01
        BYTE                   c_v-36
        BYTE   W01
        BYTE                   c_v-39
        BYTE   W01
        BYTE                   c_v-41
        BYTE   W01
        BYTE                   c_v-44
        BYTE   W01
// 036   ----------------------------------------
        BYTE                   c_v+0
        BYTE           N10     Bn0
        BYTE   W12
        BYTE                   Bn0   v120
        BYTE   W12
        BYTE                   Bn1
        BYTE   W12
        BYTE                   Bn0   v127
        BYTE   W12
        BYTE                   Bn0   v120
        BYTE   W12
        BYTE                   Bn1
        BYTE   W12
        BYTE                   Bn0   v127
        BYTE   W12
        BYTE                   Bn0   v120
        BYTE   W12
// 037   ----------------------------------------
LufiaBattle2_0_37:
        BYTE           N10     As1   v127
        BYTE   W12
        BYTE                   As0   v120
        BYTE   W12
        BYTE                   As0
        BYTE   W12
        BYTE                   As1   v127
        BYTE   W12
        BYTE                   As0   v120
        BYTE   W12
        BYTE                   As0
        BYTE   W12
        BYTE                   As1   v127
        BYTE   W12
        BYTE                   As0   v120
        BYTE   W12
        BYTE   PEND
// 038   ----------------------------------------
LufiaBattle2_0_38:
        BYTE           N10     An0   v127
        BYTE   W12
        BYTE                   An0   v120
        BYTE   W12
        BYTE                   An1
        BYTE   W12
        BYTE                   An0   v127
        BYTE   W12
        BYTE                   An0   v120
        BYTE   W12
        BYTE                   An1
        BYTE   W12
        BYTE                   An0   v127
        BYTE   W12
        BYTE                   An0   v120
        BYTE   W12
        BYTE   PEND
// 039   ----------------------------------------
LufiaBattle2_0_39:
        BYTE           N10     Gs1   v127
        BYTE   W12
        BYTE                   Gs0   v120
        BYTE   W12
        BYTE                   Gs0
        BYTE   W12
        BYTE                   Gs1   v127
        BYTE   W12
        BYTE                   Gs0   v120
        BYTE   W12
        BYTE                   Gs0
        BYTE   W12
        BYTE                   Gs1   v127
        BYTE   W12
        BYTE                   Gs0   v120
        BYTE   W12
        BYTE   PEND
// 040   ----------------------------------------
        BYTE   PATT
         POIN2  LufiaBattle2_0_12
// 041   ----------------------------------------
LufiaBattle2_0_41:
        BYTE           N10     Fs1   v127
        BYTE   W12
        BYTE                   Fs0
        BYTE   W12
        BYTE                   Fs0
        BYTE   W12
        BYTE                   Fs1
        BYTE   W12
        BYTE                   Fs0
        BYTE   W12
        BYTE                   Fs0
        BYTE   W12
        BYTE                   Fs1
        BYTE   W12
        BYTE                   Fs0
        BYTE   W12
        BYTE   PEND
// 042   ----------------------------------------
        BYTE                   En0
        BYTE   W12
        BYTE                   En0
        BYTE   W12
        BYTE                   En1
        BYTE   W12
        BYTE                   En0
        BYTE   W12
        BYTE                   En0
        BYTE   W12
        BYTE                   En1
        BYTE   W12
        BYTE                   En0
        BYTE   W12
        BYTE                   En0
        BYTE   W12
// 043   ----------------------------------------
        BYTE   PATT
         POIN2  LufiaBattle2_0_41
// 044   ----------------------------------------
LufiaBattle2_0_44:
        BYTE           N10     Bn0   v127
        BYTE   W12
        BYTE                   Bn0   v120
        BYTE   W12
        BYTE                   Bn1
        BYTE   W12
        BYTE                   Bn0   v127
        BYTE   W12
        BYTE                   Bn0   v120
        BYTE   W12
        BYTE                   Bn1
        BYTE   W12
        BYTE                   Bn0   v127
        BYTE   W12
        BYTE                   Bn0   v120
        BYTE   W12
        BYTE   PEND
// 045   ----------------------------------------
        BYTE   PATT
         POIN2  LufiaBattle2_0_37
// 046   ----------------------------------------
        BYTE   PATT
         POIN2  LufiaBattle2_0_38
// 047   ----------------------------------------
        BYTE   PATT
         POIN2  LufiaBattle2_0_39
// 048   ----------------------------------------
        BYTE   PATT
         POIN2  LufiaBattle2_0_12
// 049   ----------------------------------------
        BYTE           N10     An1   v127
        BYTE   W12
        BYTE                   An0   v120
        BYTE   W12
        BYTE                   An0
        BYTE   W12
        BYTE                   An1   v127
        BYTE   W12
        BYTE                   An0   v120
        BYTE   W12
        BYTE                   An0
        BYTE   W12
        BYTE                   An1   v127
        BYTE   W12
        BYTE                   An0   v120
        BYTE   W12
// 050   ----------------------------------------
        BYTE   PATT
         POIN2  LufiaBattle2_0_44
// 051   ----------------------------------------
        BYTE           N92     Bn0   v127   gtp2
        BYTE   W96
// 052   ----------------------------------------
        BYTE   W16
        BYTE   GoTo
         POIN2  LufiaBattle2_0_LOOP
        BYTE   FINE

//****************** Track 1 (Midi-Chn.1) ******************//

LufiaBattle2_1:
        BYTE   KEYSH   LufiaBattle2_key+0
// 000   ----------------------------------------
        BYTE           VOICE   60
        BYTE           VOL     82
        BYTE           PAN     c_v-16
        BYTE   W24
        BYTE   W01
        BYTE           MOD     8
        BYTE   W01
        BYTE           PAN     c_v-4
        BYTE   W68
        BYTE   W02
// 001   ----------------------------------------
        BYTE   W96
// 002   ----------------------------------------
        BYTE   W96
// 003   ----------------------------------------
        BYTE   W96
// 004   ----------------------------------------
LufiaBattle2_1_LOOP:
        BYTE   W12
        BYTE           N11     Bn3   v110
        BYTE   W12
        BYTE           N04     Cs4
        BYTE   W12
        BYTE                   Dn4
        BYTE   W12
        BYTE           N22     En4
        BYTE   W24
        BYTE           N11     Bn3
        BYTE   W12
        BYTE           N04     Cs4
        BYTE   W12
// 005   ----------------------------------------
LufiaBattle2_1_5:
        BYTE           N04     Dn4   v110
        BYTE   W12
        BYTE           N32     En4   v110   gtp2
        BYTE   W36
        BYTE           N03     Ds4
        BYTE   W04
        BYTE           N07     En4
        BYTE   W08
        BYTE           N11     Dn4
        BYTE   W12
        BYTE                   Cs4
        BYTE   W12
        BYTE                   Bn3
        BYTE   W12
        BYTE   PEND
// 006   ----------------------------------------
        BYTE           N32     Cs4   v110   gtp2
        BYTE   W36
        BYTE           N11     Dn4
        BYTE   W12
        BYTE           TIE     Fs3
        BYTE   W48
// 007   ----------------------------------------
        BYTE   W92
        BYTE   W03
        BYTE           EOT
        BYTE   W01
// 008   ----------------------------------------
LufiaBattle2_1_8:
        BYTE   W12
        BYTE           N11     Bn3   v110
        BYTE   W12
        BYTE           N04     Cs4
        BYTE   W12
        BYTE                   Dn4
        BYTE   W12
        BYTE           N22     En4
        BYTE   W24
        BYTE           N11     Bn3
        BYTE   W12
        BYTE           N04     Cs4
        BYTE   W12
        BYTE   PEND
// 009   ----------------------------------------
        BYTE                   Dn4
        BYTE   W12
        BYTE           N32     En4   v110   gtp2
        BYTE   W36
        BYTE           N03     Ds4
        BYTE   W04
        BYTE           N07     En4
        BYTE   W08
        BYTE           N11     Dn4
        BYTE   W12
        BYTE                   Cs4
        BYTE   W12
        BYTE                   Dn4
        BYTE   W12
// 010   ----------------------------------------
        BYTE           N32     En4   v110   gtp2
        BYTE   W36
        BYTE           N11     An4
        BYTE   W12
        BYTE           TIE     Fs4
        BYTE   W48
// 011   ----------------------------------------
        BYTE   W92
        BYTE   W03
        BYTE           EOT
        BYTE   W01
// 012   ----------------------------------------
        BYTE   PATT
         POIN2  LufiaBattle2_1_8
// 013   ----------------------------------------
        BYTE   PATT
         POIN2  LufiaBattle2_1_5
// 014   ----------------------------------------
        BYTE           N32     Cs4   v110   gtp2
        BYTE   W36
        BYTE           N11     Dn4
        BYTE   W12
        BYTE           N92     Fs3   v110   gtp2
        BYTE   W48
// 015   ----------------------------------------
        BYTE   W48
        BYTE           N22     En3
        BYTE   W24
        BYTE                   An3
        BYTE   W24
// 016   ----------------------------------------
        BYTE           N32     Fs3   v110   gtp2
        BYTE   W32
        BYTE   W03
        BYTE           N11     Bn2
        BYTE   W12
        BYTE           N44     Bn2   v110   gtp2
        BYTE   W48
        BYTE   W01
// 017   ----------------------------------------
        BYTE   W11
        BYTE           N11
        BYTE   W12
        BYTE                   Cs3
        BYTE   W12
        BYTE                   Dn3
        BYTE   W12
        BYTE                   En3
        BYTE   W12
        BYTE                   Dn3
        BYTE   W12
        BYTE                   Cs3
        BYTE   W12
        BYTE                   An2
        BYTE   W12
        BYTE           N92     Cs3   v110   gtp3
        BYTE   W01
// 018   ----------------------------------------
        BYTE   W92
        BYTE   W03
        BYTE           N11     Bn2
        BYTE   W01
// 019   ----------------------------------------
        BYTE   W68
        BYTE   W02
        BYTE           MOD     0
        BYTE   W02
        BYTE           N11     Dn3
        BYTE   W12
        BYTE                   Cs3
        BYTE   W12
// 020   ----------------------------------------
LufiaBattle2_1_20:
        BYTE           N44     Bn2   v110   gtp2
        BYTE   W48
        BYTE           N68     Fs3   v110   gtp2
        BYTE   W48
        BYTE   PEND
// 021   ----------------------------------------
LufiaBattle2_1_21:
        BYTE   W24
        BYTE           N22     En3   v110
        BYTE   W24
        BYTE           N32     An3   v110   gtp2
        BYTE   W36
        BYTE           N11     Bn3
        BYTE   W12
        BYTE   PEND
// 022   ----------------------------------------
        BYTE           TIE     Fs3
        BYTE   W96
// 023   ----------------------------------------
        BYTE   W56
        BYTE   W03
        BYTE           EOT
        BYTE   W01
        BYTE           N11     An2
        BYTE   W12
        BYTE                   Dn3
        BYTE   W12
        BYTE                   Cs3
        BYTE   W12
// 024   ----------------------------------------
        BYTE           N80     Bn2   v110   gtp3
        BYTE   W84
        BYTE           N11     An2
        BYTE   W12
// 025   ----------------------------------------
        BYTE           N56     Bn2   v110   gtp3
        BYTE   W60
        BYTE           N11     An2
        BYTE   W12
        BYTE                   Dn3
        BYTE   W12
        BYTE                   Cs3
        BYTE   W12
// 026   ----------------------------------------
        BYTE           N68     Bn2   v110   gtp3
        BYTE   W72
        BYTE           N11     Cs3
        BYTE   W12
        BYTE                   Bn2
        BYTE   W12
// 027   ----------------------------------------
        BYTE           N68     As2   v110   gtp3
        BYTE   W72
        BYTE           N11     Dn3
        BYTE   W12
        BYTE                   Cs3
        BYTE   W12
// 028   ----------------------------------------
        BYTE   PATT
         POIN2  LufiaBattle2_1_20
// 029   ----------------------------------------
        BYTE   PATT
         POIN2  LufiaBattle2_1_21
// 030   ----------------------------------------
        BYTE           N96     Fs3   v110
        BYTE   W96
// 031   ----------------------------------------
        BYTE   W24
        BYTE           N22     Dn3
        BYTE   W24
        BYTE                   Cs3
        BYTE   W24
        BYTE                   An2
        BYTE   W24
// 032   ----------------------------------------
        BYTE           N32     Bn2   v110   gtp2
        BYTE   W36
        BYTE           N11     Fs3
        BYTE   W12
        BYTE           N56     Fs3   v110   gtp3
        BYTE   W48
// 033   ----------------------------------------
        BYTE   W24
        BYTE           N11
        BYTE   W12
        BYTE                   En3
        BYTE   W12
        BYTE                   An3
        BYTE   W12
        BYTE                   Gn3
        BYTE   W12
        BYTE                   Fs3
        BYTE   W12
        BYTE                   En3
        BYTE   W12
// 034   ----------------------------------------
        BYTE           TIE     Fs3
        BYTE   W96
// 035   ----------------------------------------
        BYTE   W92
        BYTE   W03
        BYTE           EOT
        BYTE   W01
// 036   ----------------------------------------
        BYTE   W96
// 037   ----------------------------------------
        BYTE   W96
// 038   ----------------------------------------
        BYTE   W96
// 039   ----------------------------------------
        BYTE   W96
// 040   ----------------------------------------
        BYTE   W96
// 041   ----------------------------------------
        BYTE   W96
// 042   ----------------------------------------
        BYTE   W96
// 043   ----------------------------------------
        BYTE   W96
// 044   ----------------------------------------
        BYTE   W96
// 045   ----------------------------------------
        BYTE   W96
// 046   ----------------------------------------
        BYTE   W96
// 047   ----------------------------------------
        BYTE   W96
// 048   ----------------------------------------
        BYTE   W96
// 049   ----------------------------------------
        BYTE   W96
// 050   ----------------------------------------
        BYTE   W96
// 051   ----------------------------------------
        BYTE   W96
// 052   ----------------------------------------
        BYTE   W16
        BYTE           MOD     8
        BYTE   GoTo
         POIN2  LufiaBattle2_1_LOOP
        BYTE   FINE

//****************** Track 2 (Midi-Chn.3) ******************//

LufiaBattle2_2:
        BYTE   KEYSH   LufiaBattle2_key+0
// 000   ----------------------------------------
        BYTE           VOICE   48
        BYTE           VOL     82
        BYTE           PAN     c_v-44
        BYTE           TIE     Bn2   v090
        BYTE   W96
// 001   ----------------------------------------
        BYTE   W92
        BYTE   W03
        BYTE           EOT
        BYTE   W01
// 002   ----------------------------------------
        BYTE   W96
// 003   ----------------------------------------
        BYTE   W96
// 004   ----------------------------------------
LufiaBattle2_2_LOOP:
        BYTE           VOL     73
        BYTE           PAN     c_v+16
        BYTE   W06
        BYTE           VOICE   18
        BYTE   W18
        BYTE           N05     Bn3   v080
        BYTE   W24
        BYTE                   Bn3
        BYTE   W48
// 005   ----------------------------------------
LufiaBattle2_2_5:
        BYTE           N05     Bn3   v080
        BYTE   W12
        BYTE                   Bn3
        BYTE   W24
        BYTE           N23     Cs4
        BYTE   W24
        BYTE           N11     Bn3
        BYTE   W12
        BYTE                   An3
        BYTE   W12
        BYTE                   Fs3
        BYTE   W12
        BYTE   PEND
// 006   ----------------------------------------
LufiaBattle2_2_6:
        BYTE   W24
        BYTE           N05     Bn3   v080
        BYTE   W24
        BYTE                   Bn3
        BYTE   W48
        BYTE   PEND
// 007   ----------------------------------------
LufiaBattle2_2_7:
        BYTE           N05     Bn3   v080
        BYTE   W12
        BYTE                   Bn3
        BYTE   W24
        BYTE           N23     An3
        BYTE   W24
        BYTE           N11
        BYTE   W12
        BYTE                   An3
        BYTE   W12
        BYTE                   Fs3
        BYTE   W12
        BYTE   PEND
// 008   ----------------------------------------
LufiaBattle2_2_8:
        BYTE   W24
        BYTE           N05     Gn3   v080
        BYTE   W24
        BYTE                   Gn3
        BYTE   W48
        BYTE   PEND
// 009   ----------------------------------------
        BYTE                   An3
        BYTE   W12
        BYTE                   An3
        BYTE   W24
        BYTE           N23     Bn3
        BYTE   W24
        BYTE           N11     An3
        BYTE   W12
        BYTE                   Bn3
        BYTE   W12
        BYTE                   Cs4
        BYTE   W12
// 010   ----------------------------------------
        BYTE   W24
        BYTE           N05
        BYTE   W24
        BYTE                   Dn4
        BYTE   W48
// 011   ----------------------------------------
        BYTE           N11     Bn3
        BYTE   W12
        BYTE                   An4
        BYTE   W12
        BYTE                   Gs4
        BYTE   W12
        BYTE                   En4
        BYTE   W12
        BYTE                   Fs4
        BYTE   W12
        BYTE                   Dn4
        BYTE   W12
        BYTE                   En4
        BYTE   W12
        BYTE                   Cs4
        BYTE   W12
// 012   ----------------------------------------
        BYTE   PATT
         POIN2  LufiaBattle2_2_6
// 013   ----------------------------------------
        BYTE   PATT
         POIN2  LufiaBattle2_2_5
// 014   ----------------------------------------
        BYTE   PATT
         POIN2  LufiaBattle2_2_6
// 015   ----------------------------------------
        BYTE   PATT
         POIN2  LufiaBattle2_2_7
// 016   ----------------------------------------
        BYTE   PATT
         POIN2  LufiaBattle2_2_8
// 017   ----------------------------------------
        BYTE           N05     An3   v080
        BYTE   W12
        BYTE                   An3
        BYTE   W24
        BYTE           N23     Bn3
        BYTE   W24
        BYTE                   Cs4
        BYTE   W24
        BYTE           N11     Dn4
        BYTE   W12
// 018   ----------------------------------------
        BYTE   W24
        BYTE           N23     En3
        BYTE   W24
        BYTE                   Dn3
        BYTE   W24
        BYTE                   Cs3
        BYTE   W24
// 019   ----------------------------------------
        BYTE           N05     Bn3
        BYTE   W96
// 020   ----------------------------------------
        BYTE   W96
// 021   ----------------------------------------
        BYTE   W96
// 022   ----------------------------------------
        BYTE   W96
// 023   ----------------------------------------
        BYTE   W96
// 024   ----------------------------------------
        BYTE   W96
// 025   ----------------------------------------
        BYTE   W96
// 026   ----------------------------------------
        BYTE   W96
// 027   ----------------------------------------
        BYTE   W96
// 028   ----------------------------------------
        BYTE   W96
// 029   ----------------------------------------
        BYTE   W96
// 030   ----------------------------------------
        BYTE   W96
// 031   ----------------------------------------
        BYTE   W96
// 032   ----------------------------------------
        BYTE   W96
// 033   ----------------------------------------
        BYTE   W96
// 034   ----------------------------------------
        BYTE   W96
// 035   ----------------------------------------
        BYTE   W96
// 036   ----------------------------------------
        BYTE           TIE     Dn3   v075
        BYTE   W96
// 037   ----------------------------------------
LufiaBattle2_2_37:
        BYTE   W44
        BYTE   W02
        BYTE           EOT     Dn3
        BYTE   W02
        BYTE           N23     En3   v075
        BYTE   W24
        BYTE           N11     Dn3
        BYTE   W12
        BYTE                   Cs3
        BYTE   W12
        BYTE   PEND
// 038   ----------------------------------------
        BYTE           N92     Dn3   v075   gtp3
        BYTE   W96
// 039   ----------------------------------------
        BYTE                   Bn2
        BYTE   W96
// 040   ----------------------------------------
        BYTE                   Gn2
        BYTE   W96
// 041   ----------------------------------------
        BYTE                   Fs2
        BYTE   W96
// 042   ----------------------------------------
        BYTE                   En2
        BYTE   W96
// 043   ----------------------------------------
        BYTE                   Fs2
        BYTE   W96
// 044   ----------------------------------------
        BYTE           TIE     Dn3
        BYTE   W96
// 045   ----------------------------------------
        BYTE   PATT
         POIN2  LufiaBattle2_2_37
// 046   ----------------------------------------
        BYTE           N92     Dn3   v075   gtp3
        BYTE   W96
// 047   ----------------------------------------
        BYTE                   Bn2
        BYTE   W96
// 048   ----------------------------------------
        BYTE                   Gn2
        BYTE   W96
// 049   ----------------------------------------
        BYTE                   An2
        BYTE   W96
// 050   ----------------------------------------
        BYTE                   Bn2
        BYTE   W96
// 051   ----------------------------------------
        BYTE                   Bn2   v070
        BYTE   W96
// 052   ----------------------------------------
        BYTE   W16
        BYTE           VOICE   48
        BYTE   GoTo
         POIN2  LufiaBattle2_2_LOOP
        BYTE   FINE

//****************** Track 3 (Midi-Chn.4) ******************//

LufiaBattle2_3:
        BYTE   KEYSH   LufiaBattle2_key+0
// 000   ----------------------------------------
        BYTE           VOICE   48
        BYTE           BENDR   12
        BYTE           VOL     73
        BYTE           MOD     5
        BYTE           PAN     c_v+32
        BYTE   W96
// 001   ----------------------------------------
        BYTE   W96
// 002   ----------------------------------------
        BYTE   W96
// 003   ----------------------------------------
        BYTE   W96
// 004   ----------------------------------------
LufiaBattle2_3_LOOP:
        BYTE   W06
        BYTE           VOICE   18
        BYTE   W18
        BYTE           N05     Dn4   v080
        BYTE   W24
        BYTE                   Dn4
        BYTE   W48
// 005   ----------------------------------------
LufiaBattle2_3_5:
        BYTE           N05     Dn4   v080
        BYTE   W12
        BYTE                   Dn4
        BYTE   W24
        BYTE           N22     En4
        BYTE   W24
        BYTE           N11     Dn4
        BYTE   W12
        BYTE                   Cs4
        BYTE   W12
        BYTE                   An3
        BYTE   W12
        BYTE   PEND
// 006   ----------------------------------------
LufiaBattle2_3_6:
        BYTE   W24
        BYTE           N05     Dn4   v080
        BYTE   W24
        BYTE                   Dn4
        BYTE   W48
        BYTE   PEND
// 007   ----------------------------------------
LufiaBattle2_3_7:
        BYTE           N05     Dn4   v080
        BYTE   W12
        BYTE                   Dn4
        BYTE   W24
        BYTE           N22     Cs4
        BYTE   W24
        BYTE           N11
        BYTE   W12
        BYTE                   Cs4
        BYTE   W12
        BYTE                   An3
        BYTE   W12
        BYTE   PEND
// 008   ----------------------------------------
        BYTE   PATT
         POIN2  LufiaBattle2_2_6
// 009   ----------------------------------------
        BYTE           N05     Cs4   v080
        BYTE   W12
        BYTE                   Cs4
        BYTE   W24
        BYTE           N22     Dn4
        BYTE   W24
        BYTE           N11     Cs4
        BYTE   W12
        BYTE                   Dn4
        BYTE   W12
        BYTE                   En4
        BYTE   W12
// 010   ----------------------------------------
        BYTE   W24
        BYTE           N05
        BYTE   W24
        BYTE                   Fs4
        BYTE   W48
// 011   ----------------------------------------
        BYTE           N11     Bn2   v078
        BYTE   W12
        BYTE                   An3
        BYTE   W12
        BYTE                   Gs3
        BYTE   W12
        BYTE                   En3
        BYTE   W12
        BYTE                   Fs3
        BYTE   W12
        BYTE                   Dn3
        BYTE   W12
        BYTE                   En3
        BYTE   W12
        BYTE                   Cs3
        BYTE   W12
// 012   ----------------------------------------
        BYTE   PATT
         POIN2  LufiaBattle2_3_6
// 013   ----------------------------------------
        BYTE   PATT
         POIN2  LufiaBattle2_3_5
// 014   ----------------------------------------
        BYTE   PATT
         POIN2  LufiaBattle2_3_6
// 015   ----------------------------------------
        BYTE   PATT
         POIN2  LufiaBattle2_3_7
// 016   ----------------------------------------
        BYTE   PATT
         POIN2  LufiaBattle2_2_6
// 017   ----------------------------------------
        BYTE           N05     Cs4   v080
        BYTE   W12
        BYTE                   Cs4
        BYTE   W24
        BYTE           N22     Dn4
        BYTE   W24
        BYTE                   En4
        BYTE   W24
        BYTE           N11     Fs4
        BYTE   W12
// 018   ----------------------------------------
        BYTE   W24
        BYTE           N22     Gn4
        BYTE   W24
        BYTE                   Fs4
        BYTE   W24
        BYTE                   En4
        BYTE   W24
// 019   ----------------------------------------
        BYTE           N05     Dn4   v085
        BYTE   W96
// 020   ----------------------------------------
LufiaBattle2_3_20:
        BYTE           N44     Dn3   v080   gtp2
        BYTE   W48
        BYTE           N68     An3   v075   gtp2
        BYTE   W48
        BYTE   PEND
// 021   ----------------------------------------
LufiaBattle2_3_21:
        BYTE   W24
        BYTE           N22     Gn3   v080
        BYTE   W24
        BYTE           N32     Dn3   v080   gtp2
        BYTE   W36
        BYTE           N11     En3
        BYTE   W12
        BYTE   PEND
// 022   ----------------------------------------
LufiaBattle2_3_22:
        BYTE           N44     Fs3   v080   gtp2
        BYTE   W48
        BYTE                   Cs3   v085
        BYTE   W48
        BYTE   PEND
// 023   ----------------------------------------
        BYTE           N92     An2   v085   gtp3
        BYTE   W96
// 024   ----------------------------------------
LufiaBattle2_3_24:
        BYTE           N44     Bn2   v080   gtp2
        BYTE   W48
        BYTE                   Cs3   v085
        BYTE   W48
        BYTE   PEND
// 025   ----------------------------------------
        BYTE                   Dn3
        BYTE   W48
        BYTE           N22     En3
        BYTE   W24
        BYTE                   Fs3
        BYTE   W24
// 026   ----------------------------------------
        BYTE           N68     Gn3   v080   gtp3
        BYTE   W72
        BYTE           N22     Fs3   v085
        BYTE   W24
// 027   ----------------------------------------
        BYTE           N92     Cs3   v085   gtp3
        BYTE   W96
// 028   ----------------------------------------
        BYTE   PATT
         POIN2  LufiaBattle2_3_20
// 029   ----------------------------------------
        BYTE   PATT
         POIN2  LufiaBattle2_3_21
// 030   ----------------------------------------
        BYTE   PATT
         POIN2  LufiaBattle2_3_22
// 031   ----------------------------------------
        BYTE           N92     An2   v085   gtp3
        BYTE   W96
// 032   ----------------------------------------
        BYTE   PATT
         POIN2  LufiaBattle2_3_24
// 033   ----------------------------------------
        BYTE           N44     Dn3   v085   gtp2
        BYTE   W48
        BYTE           N22     En3
        BYTE   W24
        BYTE           N12     En3   v075
        BYTE   W12
        BYTE                   Fs3
        BYTE   W12
// 034   ----------------------------------------
        BYTE           N92     As3   v075   gtp3
        BYTE   W96
// 035   ----------------------------------------
        BYTE                   Fs3
        BYTE   W96
// 036   ----------------------------------------
        BYTE           TIE
        BYTE   W96
// 037   ----------------------------------------
LufiaBattle2_3_37:
        BYTE   W44
        BYTE   W02
        BYTE           EOT     Fs3
        BYTE   W02
        BYTE           N22     Gn3   v075
        BYTE   W24
        BYTE           N11     Fs3
        BYTE   W12
        BYTE                   En3
        BYTE   W12
        BYTE   PEND
// 038   ----------------------------------------
        BYTE           N92     Fs3   v075   gtp3
        BYTE   W96
// 039   ----------------------------------------
        BYTE                   Dn3
        BYTE   W96
// 040   ----------------------------------------
        BYTE                   Bn2
        BYTE   W96
// 041   ----------------------------------------
        BYTE                   An2
        BYTE   W96
// 042   ----------------------------------------
        BYTE                   Gn2
        BYTE   W96
// 043   ----------------------------------------
        BYTE           N44     Bn2   v075   gtp2
        BYTE   W48
        BYTE                   As2
        BYTE   W48
// 044   ----------------------------------------
        BYTE           TIE     Fs3
        BYTE   W96
// 045   ----------------------------------------
        BYTE   PATT
         POIN2  LufiaBattle2_3_37
// 046   ----------------------------------------
        BYTE           N92     Fs3   v075   gtp3
        BYTE   W96
// 047   ----------------------------------------
        BYTE                   Dn3
        BYTE   W96
// 048   ----------------------------------------
        BYTE                   Bn2
        BYTE   W96
// 049   ----------------------------------------
        BYTE                   Cs3
        BYTE   W96
// 050   ----------------------------------------
        BYTE                   Ds3
        BYTE   W96
// 051   ----------------------------------------
        BYTE                   Ds3   v070
        BYTE   W96
// 052   ----------------------------------------
        BYTE   W16
        BYTE           VOICE   48
        BYTE   GoTo
         POIN2  LufiaBattle2_3_LOOP
        BYTE   FINE

//****************** Track 4 (Midi-Chn.5) ******************//

LufiaBattle2_4:
        BYTE   KEYSH   LufiaBattle2_key+0
// 000   ----------------------------------------
        BYTE           VOICE   32
        BYTE           VOL     51
        BYTE           PAN     c_v-24
        BYTE   W96
// 001   ----------------------------------------
        BYTE   W96
// 002   ----------------------------------------
        BYTE   W96
// 003   ----------------------------------------
        BYTE   W96
// 004   ----------------------------------------
LufiaBattle2_4_LOOP:
        BYTE   W24
        BYTE           N11     Dn2   v125
        BYTE           N11     Gn2   v120
        BYTE   W36
        BYTE                   Dn2   v125
        BYTE           N11     Gn2   v120
        BYTE   W36
// 005   ----------------------------------------
LufiaBattle2_4_5:
        BYTE           N11     Dn2   v125
        BYTE           N11     Gn2   v120
        BYTE   W36
        BYTE                   Dn2   v125
        BYTE           N11     Gn2   v120
        BYTE   W36
        BYTE                   Dn2   v125
        BYTE           N11     Gn2   v120
        BYTE   W24
        BYTE   PEND
// 006   ----------------------------------------
LufiaBattle2_4_6:
        BYTE   W24
        BYTE           N11     Fs2   v125
        BYTE           N11     Bn2   v120
        BYTE   W36
        BYTE                   Fs2   v125
        BYTE           N11     Bn2   v120
        BYTE   W36
        BYTE   PEND
// 007   ----------------------------------------
LufiaBattle2_4_7:
        BYTE           N11     Fs2   v125
        BYTE           N11     Bn2   v120
        BYTE   W36
        BYTE                   Fs2   v125
        BYTE           N11     Bn2   v120
        BYTE   W36
        BYTE                   En2   v125
        BYTE           N11     An2   v120
        BYTE   W24
        BYTE   PEND
// 008   ----------------------------------------
LufiaBattle2_4_8:
        BYTE   W24
        BYTE           N11     Dn2   v125
        BYTE           N11     Gn2   v120
        BYTE   W36
        BYTE                   Dn2   v125
        BYTE           N11     Gn2   v120
        BYTE   W36
        BYTE   PEND
// 009   ----------------------------------------
LufiaBattle2_4_9:
        BYTE           N11     En2   v125
        BYTE           N11     An2   v120
        BYTE   W36
        BYTE                   En2   v125
        BYTE           N11     An2   v120
        BYTE   W36
        BYTE                   En2   v125
        BYTE           N11     An2   v120
        BYTE   W24
        BYTE   PEND
// 010   ----------------------------------------
        BYTE   PATT
         POIN2  LufiaBattle2_4_6
// 011   ----------------------------------------
        BYTE           N11     Fs1   v127
        BYTE           N11     Bn1
        BYTE   W12
        BYTE                   En2
        BYTE           N11     An2
        BYTE   W12
        BYTE                   Ds2
        BYTE           N11     Gs2
        BYTE   W12
        BYTE                   Bn1
        BYTE           N11     En2
        BYTE   W12
        BYTE                   Cs2
        BYTE           N11     Fs2
        BYTE   W12
        BYTE                   An1
        BYTE           N11     Dn2
        BYTE   W12
        BYTE                   Bn1
        BYTE           N11     En2
        BYTE   W12
        BYTE                   Gs1
        BYTE           N11     Cs2
        BYTE   W12
// 012   ----------------------------------------
        BYTE   PATT
         POIN2  LufiaBattle2_4_8
// 013   ----------------------------------------
        BYTE   PATT
         POIN2  LufiaBattle2_4_5
// 014   ----------------------------------------
        BYTE   PATT
         POIN2  LufiaBattle2_4_6
// 015   ----------------------------------------
        BYTE   PATT
         POIN2  LufiaBattle2_4_7
// 016   ----------------------------------------
        BYTE   PATT
         POIN2  LufiaBattle2_4_8
// 017   ----------------------------------------
        BYTE   PATT
         POIN2  LufiaBattle2_4_9
// 018   ----------------------------------------
        BYTE   PATT
         POIN2  LufiaBattle2_4_6
// 019   ----------------------------------------
        BYTE           N12     Fs2   v127
        BYTE           N12     Bn1   v125
        BYTE   W72
        BYTE           N22     En2   v127
        BYTE           N23     An1   v125
        BYTE   W24
// 020   ----------------------------------------
        BYTE   PATT
         POIN2  LufiaBattle2_4_8
// 021   ----------------------------------------
        BYTE   PATT
         POIN2  LufiaBattle2_4_5
// 022   ----------------------------------------
LufiaBattle2_4_22:
        BYTE   W24
        BYTE           N11     Cs2   v125
        BYTE           N11     Fs2   v120
        BYTE   W36
        BYTE                   Cs2   v125
        BYTE           N11     Fs2   v120
        BYTE   W36
        BYTE   PEND
// 023   ----------------------------------------
LufiaBattle2_4_23:
        BYTE           N11     Cs2   v125
        BYTE           N11     Fs2   v120
        BYTE   W36
        BYTE                   Cs2   v125
        BYTE           N11     Fs2   v120
        BYTE   W36
        BYTE                   Cs2   v125
        BYTE           N11     Fs2   v120
        BYTE   W24
        BYTE   PEND
// 024   ----------------------------------------
LufiaBattle2_4_24:
        BYTE   W24
        BYTE           N11     Bn1   v125
        BYTE           N11     En2   v120
        BYTE   W36
        BYTE                   Bn1   v125
        BYTE           N11     En2   v120
        BYTE   W36
        BYTE   PEND
// 025   ----------------------------------------
LufiaBattle2_4_25:
        BYTE           N11     Bn1   v125
        BYTE           N11     En2   v120
        BYTE   W36
        BYTE                   Bn1   v125
        BYTE           N11     En2   v120
        BYTE   W36
        BYTE                   Bn1   v125
        BYTE           N11     En2   v120
        BYTE   W24
        BYTE   PEND
// 026   ----------------------------------------
        BYTE   PATT
         POIN2  LufiaBattle2_4_22
// 027   ----------------------------------------
        BYTE   PATT
         POIN2  LufiaBattle2_4_23
// 028   ----------------------------------------
        BYTE   PATT
         POIN2  LufiaBattle2_4_8
// 029   ----------------------------------------
        BYTE   PATT
         POIN2  LufiaBattle2_4_5
// 030   ----------------------------------------
        BYTE   PATT
         POIN2  LufiaBattle2_4_22
// 031   ----------------------------------------
        BYTE   PATT
         POIN2  LufiaBattle2_4_23
// 032   ----------------------------------------
        BYTE   PATT
         POIN2  LufiaBattle2_4_24
// 033   ----------------------------------------
        BYTE   PATT
         POIN2  LufiaBattle2_4_25
// 034   ----------------------------------------
        BYTE   PATT
         POIN2  LufiaBattle2_4_22
// 035   ----------------------------------------
        BYTE   PATT
         POIN2  LufiaBattle2_4_23
// 036   ----------------------------------------
LufiaBattle2_4_36:
        BYTE   W24
        BYTE           N11     Bn1   v125
        BYTE           N11     Fs2   v120
        BYTE   W36
        BYTE                   Bn1   v125
        BYTE           N11     Fs2   v120
        BYTE   W36
        BYTE   PEND
// 037   ----------------------------------------
        BYTE   PATT
         POIN2  LufiaBattle2_4_23
// 038   ----------------------------------------
        BYTE   W24
        BYTE           N11     En2   v125
        BYTE           N11     An1   v120
        BYTE   W36
        BYTE                   En2   v125
        BYTE           N11     An1   v120
        BYTE   W36
// 039   ----------------------------------------
        BYTE   PATT
         POIN2  LufiaBattle2_4_25
// 040   ----------------------------------------
        BYTE   PATT
         POIN2  LufiaBattle2_4_8
// 041   ----------------------------------------
        BYTE   PATT
         POIN2  LufiaBattle2_4_23
// 042   ----------------------------------------
        BYTE   PATT
         POIN2  LufiaBattle2_4_24
// 043   ----------------------------------------
        BYTE   PATT
         POIN2  LufiaBattle2_4_23
// 044   ----------------------------------------
        BYTE   PATT
         POIN2  LufiaBattle2_4_36
// 045   ----------------------------------------
        BYTE   PATT
         POIN2  LufiaBattle2_4_23
// 046   ----------------------------------------
        BYTE   W24
        BYTE           N11     An1   v125
        BYTE           N11     En2   v120
        BYTE   W36
        BYTE                   An1   v125
        BYTE           N11     En2   v120
        BYTE   W36
// 047   ----------------------------------------
        BYTE   PATT
         POIN2  LufiaBattle2_4_25
// 048   ----------------------------------------
        BYTE   W24
        BYTE           N11     Gn1   v125
        BYTE           N11     Dn2   v120
        BYTE   W36
        BYTE                   Gn1   v125
        BYTE           N11     Dn2   v120
        BYTE   W36
// 049   ----------------------------------------
        BYTE                   An1   v125
        BYTE           N11     En2   v120
        BYTE   W36
        BYTE                   An1   v125
        BYTE           N11     En2   v120
        BYTE   W36
        BYTE                   An1   v125
        BYTE           N11     En2   v120
        BYTE   W24
// 050   ----------------------------------------
        BYTE   PATT
         POIN2  LufiaBattle2_4_36
// 051   ----------------------------------------
        BYTE           N11     Bn1   v125
        BYTE           N11     Fs2   v120
        BYTE   W36
        BYTE                   Bn1   v125
        BYTE           N11     Fs2   v120
        BYTE   W36
        BYTE                   Bn1   v125
        BYTE           N11     Fs2   v120
        BYTE   W24
// 052   ----------------------------------------
        BYTE   W16
        BYTE   GoTo
         POIN2  LufiaBattle2_4_LOOP
        BYTE   FINE

//****************** Track 5 (Midi-Chn.6) ******************//

LufiaBattle2_5:
        BYTE   KEYSH   LufiaBattle2_key+0
// 000   ----------------------------------------
        BYTE           VOICE   127
        BYTE           VOL     82
        BYTE           N02     Cn1   v096
        BYTE   W11
        BYTE                   Fs1   v048
        BYTE   W12
        BYTE                   Cn1   v096
        BYTE   W12
        BYTE                   Fs1   v048
        BYTE   W12
        BYTE                   Cn1   v096
        BYTE   W12
        BYTE                   Fs1   v048
        BYTE   W12
        BYTE                   Cn1   v096
        BYTE   W12
        BYTE                   Fs1   v048
        BYTE   W12
        BYTE                   Cn1   v096
        BYTE   W01
// 001   ----------------------------------------
        BYTE   W11
        BYTE                   Fs1   v048
        BYTE   W12
        BYTE                   Cn1   v096
        BYTE   W12
        BYTE                   Fs1   v048
        BYTE   W12
        BYTE                   Cn1   v096
        BYTE   W12
        BYTE                   Fs1   v048
        BYTE   W12
        BYTE                   Cn1   v096
        BYTE   W12
        BYTE                   Fs1   v048
        BYTE   W12
        BYTE                   Dn1   v103
        BYTE   W01
// 002   ----------------------------------------
        BYTE   W11
        BYTE                   Cn1   v096
        BYTE   W06
        BYTE                   Cn1   v086
        BYTE   W06
        BYTE                   Cn1
        BYTE   W12
        BYTE                   Dn1   v103
        BYTE   W12
        BYTE                   Cn1   v096
        BYTE   W06
        BYTE                   Cn1   v086
        BYTE   W06
        BYTE                   Cn1
        BYTE   W12
        BYTE                   Dn1   v103
        BYTE   W06
        BYTE                   Dn1   v098
        BYTE   W06
        BYTE                   Dn1   v089
        BYTE   W06
        BYTE                   Dn1   v094
        BYTE   W06
        BYTE                   Cn1   v086
        BYTE           N02     Dn1   v103
        BYTE   W01
// 003   ----------------------------------------
        BYTE   W56
        BYTE   W03
        BYTE                   Cn1   v096
        BYTE   W06
        BYTE                   Cn1   v086
        BYTE   W06
        BYTE                   Dn1   v103
        BYTE   W24
        BYTE                   Cn1   v086
        BYTE   W01
// 004   ----------------------------------------
LufiaBattle2_5_LOOP:
        BYTE   W11
        BYTE           N02     Fs1   v036
        BYTE   W12
        BYTE                   Cn1   v086
        BYTE           N02     Fs1   v067
        BYTE   W12
        BYTE                   Fs1   v036
        BYTE   W12
        BYTE                   Fs1   v067
        BYTE   W12
        BYTE                   Fs1   v036
        BYTE           N02     Cn1   v086
        BYTE   W12
        BYTE                   Fs1   v067
        BYTE   W12
        BYTE                   Fs1   v050
        BYTE           N02     Dn1   v095
        BYTE   W12
        BYTE                   Fs1   v067
        BYTE           N02     Cn1   v086
        BYTE   W01
// 005   ----------------------------------------
LufiaBattle2_5_5:
        BYTE   W11
        BYTE           N02     Fs1   v036
        BYTE   W12
        BYTE                   Fs1   v067
        BYTE   W12
        BYTE                   Fs1   v050
        BYTE           N02     Cn1   v086
        BYTE   W12
        BYTE                   Fs1   v067
        BYTE   W12
        BYTE                   Fs1   v036
        BYTE           N02     Cn1   v086
        BYTE   W12
        BYTE                   Fs1   v067
        BYTE           N02     Dn1   v095
        BYTE   W12
        BYTE           N12     As1   v055
        BYTE   W12
        BYTE           N02     Fs1   v067
        BYTE           N02     Cn1   v086
        BYTE   W01
        BYTE   PEND
// 006   ----------------------------------------
        BYTE   W11
        BYTE                   Fs1   v036
        BYTE   W12
        BYTE                   Fs1   v067
        BYTE           N02     Cn1   v086
        BYTE   W12
        BYTE                   Fs1   v050
        BYTE   W12
        BYTE                   Fs1   v067
        BYTE   W12
        BYTE                   Fs1   v036
        BYTE           N02     Cn1   v086
        BYTE   W12
        BYTE                   Fs1   v067
        BYTE   W12
        BYTE                   Fs1   v036
        BYTE           N02     Dn1   v095
        BYTE   W12
        BYTE                   Fs1   v067
        BYTE           N02     Cn1   v086
        BYTE   W01
// 007   ----------------------------------------
        BYTE   PATT
         POIN2  LufiaBattle2_5_5
// 008   ----------------------------------------
LufiaBattle2_5_8:
        BYTE   W11
        BYTE           N02     Fs1   v036
        BYTE   W12
        BYTE                   Fs1   v067
        BYTE           N02     Cn1   v086
        BYTE   W12
        BYTE                   Fs1   v036
        BYTE   W12
        BYTE                   Fs1   v067
        BYTE   W12
        BYTE                   Fs1   v036
        BYTE           N02     Cn1   v086
        BYTE   W12
        BYTE                   Fs1   v067
        BYTE   W12
        BYTE                   Fs1   v036
        BYTE           N02     Dn1   v095
        BYTE   W12
        BYTE                   Fs1   v067
        BYTE           N02     Cn1   v086
        BYTE   W01
        BYTE   PEND
// 009   ----------------------------------------
LufiaBattle2_5_9:
        BYTE   W11
        BYTE           N02     Fs1   v036
        BYTE   W12
        BYTE                   Fs1   v067
        BYTE   W12
        BYTE                   Fs1   v036
        BYTE           N02     Cn1   v086
        BYTE   W12
        BYTE                   Fs1   v067
        BYTE   W12
        BYTE                   Fs1   v036
        BYTE           N02     Cn1   v086
        BYTE   W12
        BYTE                   Fs1   v067
        BYTE           N02     Dn1   v095
        BYTE   W12
        BYTE           N36     As1   v055
        BYTE   W12
        BYTE           N02     Cn1   v086
        BYTE   W01
        BYTE   PEND
// 010   ----------------------------------------
LufiaBattle2_5_10:
        BYTE   W23
        BYTE           N02     Dn1   v095
        BYTE   W24
        BYTE                   Cn1   v086
        BYTE   W12
        BYTE                   Cn1
        BYTE   W12
        BYTE                   Dn1   v095
        BYTE   W24
        BYTE                   Cn1   v086
        BYTE   W01
        BYTE   PEND
// 011   ----------------------------------------
        BYTE   W11
        BYTE                   Cn1
        BYTE   W12
        BYTE                   Dn1   v095
        BYTE   W12
        BYTE                   Cn1   v086
        BYTE   W24
        BYTE                   Cn1
        BYTE   W06
        BYTE                   Cn1
        BYTE   W06
        BYTE                   Dn1   v095
        BYTE   W24
        BYTE                   Cn1   v086
        BYTE   W01
// 012   ----------------------------------------
        BYTE   W11
        BYTE                   Fs1   v036
        BYTE   W12
        BYTE                   Cn1   v086
        BYTE           N02     Fs1   v067
        BYTE   W12
        BYTE                   Fs1   v036
        BYTE   W12
        BYTE                   Fs1   v067
        BYTE   W12
        BYTE                   Fs1   v036
        BYTE           N02     Cn1   v086
        BYTE   W12
        BYTE                   Fs1   v067
        BYTE   W12
        BYTE                   Fs1   v036
        BYTE           N02     Dn1   v095
        BYTE   W12
        BYTE                   Fs1   v067
        BYTE           N02     Cn1   v086
        BYTE   W01
// 013   ----------------------------------------
LufiaBattle2_5_13:
        BYTE   W11
        BYTE           N02     Fs1   v036
        BYTE   W12
        BYTE                   Fs1   v067
        BYTE   W12
        BYTE                   Fs1   v036
        BYTE           N02     Cn1   v086
        BYTE   W12
        BYTE                   Fs1   v067
        BYTE   W12
        BYTE                   Fs1   v036
        BYTE           N02     Cn1   v086
        BYTE   W12
        BYTE                   Fs1   v067
        BYTE           N02     Dn1   v095
        BYTE   W12
        BYTE           N12     As1   v055
        BYTE   W12
        BYTE           N02     Fs1   v067
        BYTE           N02     Cn1   v086
        BYTE   W01
        BYTE   PEND
// 014   ----------------------------------------
        BYTE   PATT
         POIN2  LufiaBattle2_5_8
// 015   ----------------------------------------
        BYTE   PATT
         POIN2  LufiaBattle2_5_13
// 016   ----------------------------------------
        BYTE   PATT
         POIN2  LufiaBattle2_5_8
// 017   ----------------------------------------
        BYTE   PATT
         POIN2  LufiaBattle2_5_9
// 018   ----------------------------------------
        BYTE   PATT
         POIN2  LufiaBattle2_5_10
// 019   ----------------------------------------
        BYTE   W32
        BYTE   W03
        BYTE           N02     Cn1   v086
        BYTE   W24
        BYTE                   Cn1
        BYTE   W06
        BYTE                   Cn1
        BYTE   W06
        BYTE                   Dn1   v095
        BYTE   W24
        BYTE                   Cn1   v086
        BYTE   W01
// 020   ----------------------------------------
        BYTE   W11
        BYTE                   Fs1   v036
        BYTE   W12
        BYTE                   Fs1   v067
        BYTE           N02     Dn1   v095
        BYTE   W12
        BYTE                   Fs1   v036
        BYTE   W12
        BYTE                   Fs1   v067
        BYTE   W12
        BYTE                   Fs1   v045
        BYTE           N02     Cn1   v086
        BYTE   W12
        BYTE                   Fs1   v067
        BYTE           N02     Dn1   v095
        BYTE   W12
        BYTE                   Fs1   v045
        BYTE   W12
        BYTE                   Fs1   v067
        BYTE           N02     Cn1   v086
        BYTE   W01
// 021   ----------------------------------------
        BYTE   W11
        BYTE                   Cn1
        BYTE           N02     Fs1   v045
        BYTE   W12
        BYTE                   Fs1   v067
        BYTE           N02     Dn1   v095
        BYTE   W12
        BYTE                   Fs1   v036
        BYTE           N02     Cn1   v086
        BYTE   W12
        BYTE                   Fs1   v067
        BYTE   W12
        BYTE                   Fs1   v036
        BYTE           N02     Cn1   v086
        BYTE   W12
        BYTE                   Fs1   v067
        BYTE           N02     Dn1   v095
        BYTE   W12
        BYTE                   Fs1   v045
        BYTE   W12
        BYTE                   Fs1   v067
        BYTE           N02     Cn1   v086
        BYTE   W01
// 022   ----------------------------------------
        BYTE   W11
        BYTE                   Fs1   v045
        BYTE   W12
        BYTE                   Fs1   v067
        BYTE           N02     Dn1   v095
        BYTE   W12
        BYTE                   Fs1   v036
        BYTE   W12
        BYTE                   Fs1   v067
        BYTE   W12
        BYTE                   Fs1   v045
        BYTE           N02     Cn1   v086
        BYTE   W12
        BYTE                   Fs1   v067
        BYTE           N02     Dn1   v095
        BYTE   W12
        BYTE                   Fs1   v036
        BYTE   W12
        BYTE                   Fs1   v067
        BYTE           N02     Cn1   v086
        BYTE   W01
// 023   ----------------------------------------
        BYTE   W11
        BYTE                   Cn1
        BYTE           N02     Fs1   v045
        BYTE   W12
        BYTE                   Fs1   v067
        BYTE           N02     Dn1   v095
        BYTE   W12
        BYTE                   Fs1   v045
        BYTE           N02     Cn1   v086
        BYTE   W12
        BYTE                   Fs1   v067
        BYTE   W12
        BYTE                   Fs1   v045
        BYTE           N02     Cn1   v086
        BYTE   W12
        BYTE                   Fs1   v067
        BYTE           N02     Dn1   v095
        BYTE   W12
        BYTE           N12     As1   v055
        BYTE   W12
        BYTE           N02     Fs1   v067
        BYTE           N02     Cn1   v086
        BYTE   W01
// 024   ----------------------------------------
        BYTE   W11
        BYTE                   Fs1   v045
        BYTE   W12
        BYTE                   Fs1   v067
        BYTE           N02     Dn1   v095
        BYTE   W12
        BYTE                   Fs1   v036
        BYTE   W12
        BYTE                   Fs1   v067
        BYTE   W12
        BYTE                   Fs1   v036
        BYTE           N02     Cn1   v086
        BYTE   W12
        BYTE                   Fs1   v067
        BYTE           N02     Dn1   v095
        BYTE   W12
        BYTE                   Fs1   v045
        BYTE   W12
        BYTE                   Fs1   v067
        BYTE           N02     Cn1   v086
        BYTE   W01
// 025   ----------------------------------------
        BYTE   W11
        BYTE                   Cn1
        BYTE           N02     Fs1   v045
        BYTE   W12
        BYTE                   Fs1   v067
        BYTE           N02     Dn1   v095
        BYTE   W12
        BYTE                   Fs1   v050
        BYTE           N02     Cn1   v086
        BYTE   W12
        BYTE                   Fs1   v067
        BYTE   W12
        BYTE                   Fs1   v036
        BYTE           N02     Cn1   v086
        BYTE   W12
        BYTE                   Fs1   v067
        BYTE           N02     Dn1   v095
        BYTE   W12
        BYTE                   Fs1   v050
        BYTE   W12
        BYTE                   Fs1   v067
        BYTE           N02     Cn1   v086
        BYTE   W01
// 026   ----------------------------------------
        BYTE   W11
        BYTE                   Fs1   v036
        BYTE   W12
        BYTE                   Fs1   v067
        BYTE           N02     Dn1   v095
        BYTE   W12
        BYTE                   Fs1   v045
        BYTE   W12
        BYTE                   Fs1   v067
        BYTE   W12
        BYTE                   Fs1   v050
        BYTE           N02     Cn1   v086
        BYTE   W12
        BYTE                   Fs1   v067
        BYTE           N02     Dn1   v095
        BYTE   W12
        BYTE                   Fs1   v045
        BYTE   W12
        BYTE                   Cn1   v086
        BYTE   W01
// 027   ----------------------------------------
LufiaBattle2_5_27:
        BYTE   W11
        BYTE           N02     Cn1   v086
        BYTE   W12
        BYTE                   Dn1   v095
        BYTE   W36
        BYTE                   Cn1   v086
        BYTE   W06
        BYTE                   Cn1
        BYTE   W06
        BYTE                   Dn1   v095
        BYTE   W24
        BYTE                   Cn1   v086
        BYTE   W01
        BYTE   PEND
// 028   ----------------------------------------
LufiaBattle2_5_28:
        BYTE   W11
        BYTE           N02     Fs1   v036
        BYTE   W12
        BYTE                   Fs1   v067
        BYTE           N02     Dn1   v095
        BYTE   W12
        BYTE                   Fs1   v045
        BYTE   W12
        BYTE                   Fs1   v067
        BYTE   W12
        BYTE                   Fs1   v036
        BYTE           N02     Cn1   v086
        BYTE   W12
        BYTE                   Fs1   v067
        BYTE           N02     Dn1   v095
        BYTE   W12
        BYTE                   Fs1   v045
        BYTE   W12
        BYTE                   Fs1   v067
        BYTE           N02     Cn1   v086
        BYTE   W01
        BYTE   PEND
// 029   ----------------------------------------
LufiaBattle2_5_29:
        BYTE   W11
        BYTE           N02     Cn1   v086
        BYTE           N02     Fs1   v036
        BYTE   W12
        BYTE                   Fs1   v067
        BYTE           N02     Dn1   v095
        BYTE   W12
        BYTE                   Fs1   v045
        BYTE           N02     Cn1   v086
        BYTE   W12
        BYTE                   Fs1   v067
        BYTE   W12
        BYTE                   Fs1   v036
        BYTE           N02     Cn1   v086
        BYTE   W12
        BYTE                   Fs1   v067
        BYTE           N02     Dn1   v095
        BYTE   W12
        BYTE                   Fs1   v045
        BYTE   W12
        BYTE                   Fs1   v067
        BYTE           N02     Cn1   v086
        BYTE   W01
        BYTE   PEND
// 030   ----------------------------------------
        BYTE   PATT
         POIN2  LufiaBattle2_5_28
// 031   ----------------------------------------
LufiaBattle2_5_31:
        BYTE   W11
        BYTE           N02     Cn1   v086
        BYTE           N02     Fs1   v036
        BYTE   W12
        BYTE                   Fs1   v067
        BYTE           N02     Dn1   v095
        BYTE   W12
        BYTE                   Fs1   v045
        BYTE           N02     Cn1   v086
        BYTE   W12
        BYTE                   Fs1   v067
        BYTE   W12
        BYTE                   Fs1   v036
        BYTE           N02     Cn1   v086
        BYTE   W12
        BYTE                   Fs1   v067
        BYTE           N02     Dn1   v095
        BYTE   W12
        BYTE           N12     As1   v055
        BYTE   W12
        BYTE           N02     Fs1   v067
        BYTE           N02     Cn1   v086
        BYTE   W01
        BYTE   PEND
// 032   ----------------------------------------
        BYTE   PATT
         POIN2  LufiaBattle2_5_28
// 033   ----------------------------------------
        BYTE   PATT
         POIN2  LufiaBattle2_5_29
// 034   ----------------------------------------
        BYTE   W11
        BYTE           N02     Fs1   v036
        BYTE   W12
        BYTE                   Fs1   v067
        BYTE   W12
        BYTE                   Fs1   v045
        BYTE           N02     Cn1   v086
        BYTE   W12
        BYTE                   Fs1   v064
        BYTE   W12
        BYTE                   Fs1   v036
        BYTE   W12
        BYTE                   Fs1   v064
        BYTE           N02     Cn1   v086
        BYTE   W12
        BYTE                   Fs1   v036
        BYTE   W12
        BYTE                   Cn1   v086
        BYTE   W01
// 035   ----------------------------------------
        BYTE   W23
        BYTE                   Cn1
        BYTE   W24
        BYTE                   Cn1
        BYTE   W12
        BYTE                   Cn1
        BYTE   W06
        BYTE                   Cn1
        BYTE   W06
        BYTE                   Dn1   v095
        BYTE   W24
        BYTE                   Cn1   v086
        BYTE   W01
// 036   ----------------------------------------
        BYTE   PATT
         POIN2  LufiaBattle2_5_28
// 037   ----------------------------------------
        BYTE   PATT
         POIN2  LufiaBattle2_5_29
// 038   ----------------------------------------
        BYTE   PATT
         POIN2  LufiaBattle2_5_28
// 039   ----------------------------------------
        BYTE   PATT
         POIN2  LufiaBattle2_5_31
// 040   ----------------------------------------
        BYTE   PATT
         POIN2  LufiaBattle2_5_28
// 041   ----------------------------------------
        BYTE   PATT
         POIN2  LufiaBattle2_5_29
// 042   ----------------------------------------
        BYTE   W11
        BYTE           N02     Fs1   v036
        BYTE   W12
        BYTE                   Fs1   v067
        BYTE           N02     Dn1   v095
        BYTE   W12
        BYTE                   Fs1   v045
        BYTE   W12
        BYTE                   Fs1   v067
        BYTE   W12
        BYTE                   Fs1   v036
        BYTE           N02     Cn1   v086
        BYTE   W12
        BYTE                   Fs1   v067
        BYTE           N02     Dn1   v095
        BYTE   W12
        BYTE                   Fs1   v045
        BYTE   W12
        BYTE                   Cn1   v086
        BYTE   W01
// 043   ----------------------------------------
        BYTE   PATT
         POIN2  LufiaBattle2_5_27
// 044   ----------------------------------------
        BYTE   PATT
         POIN2  LufiaBattle2_5_28
// 045   ----------------------------------------
        BYTE   PATT
         POIN2  LufiaBattle2_5_29
// 046   ----------------------------------------
        BYTE   PATT
         POIN2  LufiaBattle2_5_28
// 047   ----------------------------------------
        BYTE   PATT
         POIN2  LufiaBattle2_5_31
// 048   ----------------------------------------
        BYTE   PATT
         POIN2  LufiaBattle2_5_28
// 049   ----------------------------------------
        BYTE   PATT
         POIN2  LufiaBattle2_5_29
// 050   ----------------------------------------
        BYTE   W11
        BYTE           N02     Fs1   v036
        BYTE   W12
        BYTE                   Fs1   v067
        BYTE   W12
        BYTE                   Fs1   v045
        BYTE           N02     Cn1   v086
        BYTE   W12
        BYTE                   Fs1   v067
        BYTE   W12
        BYTE                   Fs1   v036
        BYTE   W12
        BYTE                   Fs1   v067
        BYTE           N02     Cn1   v086
        BYTE   W12
        BYTE                   Fs1   v045
        BYTE   W12
        BYTE                   Cn1   v086
        BYTE   W01
// 051   ----------------------------------------
        BYTE   W23
        BYTE                   Dn1   v095
        BYTE   W24
        BYTE                   Cn1   v086
        BYTE   W12
        BYTE                   Cn1
        BYTE   W06
        BYTE                   Cn1
        BYTE   W06
        BYTE                   Dn1   v095
        BYTE   W24
        BYTE   W01
// 052   ----------------------------------------
        BYTE   W16
        BYTE   GoTo
         POIN2  LufiaBattle2_5_LOOP
        BYTE   FINE

//****************** Track 6 (Midi-Chn.7) ******************//

LufiaBattle2_6:
        BYTE   KEYSH   LufiaBattle2_key+0
// 000   ----------------------------------------
        BYTE           VOICE   48
        BYTE           BENDR   12
        BYTE           VOL     77
        BYTE           PAN     c_v-16
        BYTE   W48
        BYTE           TIE     En3   v100
        BYTE   W48
// 001   ----------------------------------------
        BYTE   W96
// 002   ----------------------------------------
        BYTE           PAN     c_v-19
        BYTE           TIE     Gn4   v090
        BYTE   W96
// 003   ----------------------------------------
        BYTE   W24
        BYTE           BEND    c_v-1
        BYTE   W12
        BYTE                   c_v-2
        BYTE   W07
        BYTE                   c_v-3
        BYTE   W05
        BYTE                   c_v-4
        BYTE   W01
        BYTE           VOL     74
        BYTE   W03
        BYTE           BEND    c_v-5
        BYTE   W03
        BYTE                   c_v-6
        BYTE   W02
        BYTE                   c_v-7
        BYTE   W03
        BYTE                   c_v-8
        BYTE   W02
        BYTE                   c_v-9
        BYTE   W02
        BYTE                   c_v-10
        BYTE   W01
        BYTE                   c_v-11
        BYTE   W02
        BYTE                   c_v-12
        BYTE   W01
        BYTE                   c_v-13
        BYTE           VOL     71
        BYTE   W01
        BYTE           BEND    c_v-14
        BYTE   W02
        BYTE                   c_v-15
        BYTE   W01
        BYTE                   c_v-16
        BYTE   W01
        BYTE                   c_v-17
        BYTE   W01
        BYTE                   c_v-18
        BYTE   W01
        BYTE                   c_v-19
        BYTE   W01
        BYTE                   c_v-21
        BYTE   W01
        BYTE                   c_v-22
        BYTE   W01
        BYTE                   c_v-23
        BYTE   W01
        BYTE           VOL     68
        BYTE           BEND    c_v-25
        BYTE   W01
        BYTE                   c_v-26
        BYTE   W01
        BYTE                   c_v-28
        BYTE   W01
        BYTE                   c_v-29
        BYTE   W01
        BYTE                   c_v-31
        BYTE   W01
        BYTE                   c_v-33
        BYTE   W01
        BYTE           VOL     65
        BYTE           BEND    c_v-35
        BYTE   W01
        BYTE                   c_v-37
        BYTE   W01
        BYTE                   c_v-39
        BYTE   W01
        BYTE                   c_v-42
        BYTE   W01
        BYTE                   c_v-44
        BYTE           VOL     62
        BYTE   W01
        BYTE           BEND    c_v-47
        BYTE   W01
        BYTE                   c_v-50
        BYTE   W01
        BYTE                   c_v-52
        BYTE           VOL     59
        BYTE   W01
        BYTE           BEND    c_v-56
        BYTE   W01
        BYTE                   c_v-59
        BYTE   W01
        BYTE           EOT     En3
        BYTE                   Gn4
        BYTE           VOL     56
        BYTE           BEND    c_v-64
        BYTE   W01
// 004   ----------------------------------------
LufiaBattle2_6_LOOP:
        BYTE           VOL     55
        BYTE   W24
        BYTE                   77
        BYTE   W72
// 005   ----------------------------------------
        BYTE   W96
// 006   ----------------------------------------
        BYTE   W96
// 007   ----------------------------------------
        BYTE   W96
// 008   ----------------------------------------
        BYTE   W96
// 009   ----------------------------------------
        BYTE   W96
// 010   ----------------------------------------
        BYTE   W96
// 011   ----------------------------------------
        BYTE   W96
// 012   ----------------------------------------
        BYTE   W96
// 013   ----------------------------------------
        BYTE   W96
// 014   ----------------------------------------
        BYTE   W96
// 015   ----------------------------------------
        BYTE   W96
// 016   ----------------------------------------
        BYTE   W96
// 017   ----------------------------------------
        BYTE   W96
// 018   ----------------------------------------
        BYTE   W96
// 019   ----------------------------------------
        BYTE   W96
// 020   ----------------------------------------
        BYTE   W96
// 021   ----------------------------------------
        BYTE   W96
// 022   ----------------------------------------
        BYTE   W96
// 023   ----------------------------------------
        BYTE   W96
// 024   ----------------------------------------
        BYTE   W96
// 025   ----------------------------------------
        BYTE   W96
// 026   ----------------------------------------
        BYTE   W96
// 027   ----------------------------------------
        BYTE   W96
// 028   ----------------------------------------
        BYTE   W96
// 029   ----------------------------------------
        BYTE   W96
// 030   ----------------------------------------
        BYTE   W96
// 031   ----------------------------------------
        BYTE   W96
// 032   ----------------------------------------
        BYTE   W96
// 033   ----------------------------------------
        BYTE   W96
// 034   ----------------------------------------
        BYTE   W96
// 035   ----------------------------------------
        BYTE   W96
// 036   ----------------------------------------
        BYTE   W96
// 037   ----------------------------------------
        BYTE   W96
// 038   ----------------------------------------
        BYTE   W96
// 039   ----------------------------------------
        BYTE   W96
// 040   ----------------------------------------
        BYTE   W96
// 041   ----------------------------------------
        BYTE   W96
// 042   ----------------------------------------
        BYTE   W96
// 043   ----------------------------------------
        BYTE   W96
// 044   ----------------------------------------
        BYTE   W96
// 045   ----------------------------------------
        BYTE   W96
// 046   ----------------------------------------
        BYTE   W96
// 047   ----------------------------------------
        BYTE   W96
// 048   ----------------------------------------
        BYTE   W96
// 049   ----------------------------------------
        BYTE   W96
// 050   ----------------------------------------
        BYTE   W96
// 051   ----------------------------------------
        BYTE   W96
// 052   ----------------------------------------
        BYTE   W16
        BYTE                   55
        BYTE   GoTo
         POIN2  LufiaBattle2_6_LOOP
        BYTE   FINE

//****************** Track 7 (Midi-Chn.8) ******************//

LufiaBattle2_7:
        BYTE   KEYSH   LufiaBattle2_key+0
// 000   ----------------------------------------
        BYTE           VOICE   48
        BYTE           BENDR   12
        BYTE           VOL     82
        BYTE           MOD     5
        BYTE           PAN     c_v+32
        BYTE   W96
// 001   ----------------------------------------
        BYTE   W48
        BYTE           TIE     Dn4   v080
        BYTE   W48
// 002   ----------------------------------------
        BYTE   W96
// 003   ----------------------------------------
        BYTE   W24
        BYTE           BEND    c_v-1
        BYTE   W12
        BYTE                   c_v-2
        BYTE   W07
        BYTE                   c_v-3
        BYTE   W05
        BYTE                   c_v-4
        BYTE   W01
        BYTE           VOL     79
        BYTE   W03
        BYTE           BEND    c_v-5
        BYTE   W03
        BYTE                   c_v-6
        BYTE   W02
        BYTE                   c_v-7
        BYTE   W03
        BYTE                   c_v-8
        BYTE   W02
        BYTE                   c_v-9
        BYTE   W02
        BYTE                   c_v-10
        BYTE   W01
        BYTE                   c_v-11
        BYTE   W02
        BYTE                   c_v-12
        BYTE   W01
        BYTE                   c_v-13
        BYTE           VOL     76
        BYTE   W01
        BYTE           BEND    c_v-14
        BYTE   W02
        BYTE                   c_v-15
        BYTE   W01
        BYTE                   c_v-16
        BYTE   W01
        BYTE                   c_v-17
        BYTE   W01
        BYTE                   c_v-18
        BYTE   W01
        BYTE                   c_v-19
        BYTE   W01
        BYTE                   c_v-21
        BYTE   W01
        BYTE                   c_v-22
        BYTE   W01
        BYTE                   c_v-23
        BYTE   W01
        BYTE           VOL     72
        BYTE           BEND    c_v-25
        BYTE   W01
        BYTE                   c_v-26
        BYTE   W01
        BYTE                   c_v-28
        BYTE   W01
        BYTE                   c_v-30
        BYTE   W01
        BYTE                   c_v-32
        BYTE   W01
        BYTE                   c_v-34
        BYTE   W01
        BYTE           VOL     69
        BYTE           BEND    c_v-36
        BYTE   W01
        BYTE                   c_v-38
        BYTE   W01
        BYTE                   c_v-40
        BYTE   W01
        BYTE                   c_v-43
        BYTE   W01
        BYTE                   c_v-46
        BYTE           VOL     66
        BYTE   W01
        BYTE           BEND    c_v-48
        BYTE   W01
        BYTE                   c_v-51
        BYTE   W01
        BYTE                   c_v-54
        BYTE           VOL     63
        BYTE   W01
        BYTE           BEND    c_v-57
        BYTE   W01
        BYTE                   c_v-61
        BYTE   W01
        BYTE           EOT
        BYTE           BEND    c_v-64
        BYTE           VOL     59
        BYTE   W01
// 004   ----------------------------------------
LufiaBattle2_7_LOOP:
        BYTE           VOL     58
        BYTE   W06
        BYTE           VOICE   18
        BYTE           VOL     82
        BYTE   W18
        BYTE           BEND    c_v+0
        BYTE   W72
// 005   ----------------------------------------
        BYTE   W96
// 006   ----------------------------------------
        BYTE   W96
// 007   ----------------------------------------
        BYTE   W96
// 008   ----------------------------------------
        BYTE   W96
// 009   ----------------------------------------
        BYTE   W96
// 010   ----------------------------------------
        BYTE   W96
// 011   ----------------------------------------
        BYTE   W96
// 012   ----------------------------------------
        BYTE   W96
// 013   ----------------------------------------
        BYTE   W96
// 014   ----------------------------------------
        BYTE   W96
// 015   ----------------------------------------
        BYTE   W96
// 016   ----------------------------------------
        BYTE   W96
// 017   ----------------------------------------
        BYTE   W96
// 018   ----------------------------------------
        BYTE   W96
// 019   ----------------------------------------
        BYTE   W96
// 020   ----------------------------------------
        BYTE   W96
// 021   ----------------------------------------
        BYTE   W96
// 022   ----------------------------------------
        BYTE   W96
// 023   ----------------------------------------
        BYTE   W96
// 024   ----------------------------------------
        BYTE   W96
// 025   ----------------------------------------
        BYTE   W96
// 026   ----------------------------------------
        BYTE   W96
// 027   ----------------------------------------
        BYTE   W96
// 028   ----------------------------------------
        BYTE   W96
// 029   ----------------------------------------
        BYTE   W96
// 030   ----------------------------------------
        BYTE   W96
// 031   ----------------------------------------
        BYTE   W96
// 032   ----------------------------------------
        BYTE   W96
// 033   ----------------------------------------
        BYTE   W96
// 034   ----------------------------------------
        BYTE   W96
// 035   ----------------------------------------
        BYTE   W96
// 036   ----------------------------------------
        BYTE   W96
// 037   ----------------------------------------
        BYTE   W96
// 038   ----------------------------------------
        BYTE   W96
// 039   ----------------------------------------
        BYTE   W96
// 040   ----------------------------------------
        BYTE   W96
// 041   ----------------------------------------
        BYTE   W96
// 042   ----------------------------------------
        BYTE   W96
// 043   ----------------------------------------
        BYTE   W96
// 044   ----------------------------------------
        BYTE   W96
// 045   ----------------------------------------
        BYTE   W96
// 046   ----------------------------------------
        BYTE   W96
// 047   ----------------------------------------
        BYTE   W96
// 048   ----------------------------------------
        BYTE   W96
// 049   ----------------------------------------
        BYTE   W96
// 050   ----------------------------------------
        BYTE   W96
// 051   ----------------------------------------
        BYTE   W96
// 052   ----------------------------------------
        BYTE   W16
        BYTE           VOICE   48
        BYTE           VOL     58
        BYTE           BEND    c_v-64
        BYTE   GoTo
         POIN2  LufiaBattle2_7_LOOP
        BYTE   FINE

//***************** Track 8 (Midi-Chn.10) ******************//

LufiaBattle2_8:
        BYTE   KEYSH   LufiaBattle2_key+0
// 000   ----------------------------------------
        BYTE           VOICE   48
        BYTE           BENDR   12
        BYTE           VOL     82
        BYTE           PAN     c_v+16
        BYTE   W96
// 001   ----------------------------------------
        BYTE           TIE     An3   v090
        BYTE   W96
// 002   ----------------------------------------
        BYTE           VOL     74
        BYTE   W96
// 003   ----------------------------------------
        BYTE   W24
        BYTE           BEND    c_v-1
        BYTE   W12
        BYTE                   c_v-2
        BYTE   W07
        BYTE                   c_v-3
        BYTE   W05
        BYTE                   c_v-4
        BYTE   W04
        BYTE                   c_v-5
        BYTE   W03
        BYTE                   c_v-6
        BYTE   W02
        BYTE                   c_v-7
        BYTE   W03
        BYTE                   c_v-8
        BYTE   W02
        BYTE                   c_v-9
        BYTE   W02
        BYTE                   c_v-10
        BYTE   W01
        BYTE                   c_v-11
        BYTE   W02
        BYTE                   c_v-12
        BYTE   W01
        BYTE                   c_v-13
        BYTE   W01
        BYTE                   c_v-14
        BYTE   W02
        BYTE                   c_v-15
        BYTE   W01
        BYTE                   c_v-16
        BYTE   W01
        BYTE                   c_v-17
        BYTE   W01
        BYTE                   c_v-18
        BYTE   W01
        BYTE                   c_v-19
        BYTE   W01
        BYTE                   c_v-21
        BYTE   W01
        BYTE                   c_v-22
        BYTE   W01
        BYTE                   c_v-23
        BYTE   W01
        BYTE           VOL     72
        BYTE           BEND    c_v-25
        BYTE   W01
        BYTE                   c_v-26
        BYTE   W01
        BYTE                   c_v-28
        BYTE   W01
        BYTE                   c_v-30
        BYTE   W01
        BYTE                   c_v-32
        BYTE   W01
        BYTE                   c_v-34
        BYTE   W01
        BYTE           VOL     69
        BYTE           BEND    c_v-36
        BYTE   W01
        BYTE                   c_v-38
        BYTE   W01
        BYTE                   c_v-40
        BYTE   W01
        BYTE                   c_v-43
        BYTE   W01
        BYTE                   c_v-46
        BYTE           VOL     66
        BYTE   W01
        BYTE           BEND    c_v-48
        BYTE   W01
        BYTE                   c_v-51
        BYTE   W01
        BYTE                   c_v-54
        BYTE           VOL     63
        BYTE   W01
        BYTE           BEND    c_v-57
        BYTE   W01
        BYTE                   c_v-61
        BYTE   W01
        BYTE           EOT
        BYTE           BEND    c_v-64
        BYTE           VOL     59
        BYTE   W01
// 004   ----------------------------------------
LufiaBattle2_8_LOOP:
        BYTE           VOL     58
        BYTE   W24
        BYTE                   82
        BYTE   W72
// 005   ----------------------------------------
        BYTE           BEND    c_v+0
        BYTE   W96
// 006   ----------------------------------------
        BYTE   W96
// 007   ----------------------------------------
        BYTE   W96
// 008   ----------------------------------------
        BYTE   W96
// 009   ----------------------------------------
        BYTE   W96
// 010   ----------------------------------------
        BYTE   W96
// 011   ----------------------------------------
        BYTE   W96
// 012   ----------------------------------------
        BYTE   W96
// 013   ----------------------------------------
        BYTE   W96
// 014   ----------------------------------------
        BYTE   W96
// 015   ----------------------------------------
        BYTE   W96
// 016   ----------------------------------------
        BYTE   W96
// 017   ----------------------------------------
        BYTE   W96
// 018   ----------------------------------------
        BYTE   W96
// 019   ----------------------------------------
        BYTE   W96
// 020   ----------------------------------------
        BYTE   W96
// 021   ----------------------------------------
        BYTE   W96
// 022   ----------------------------------------
        BYTE   W96
// 023   ----------------------------------------
        BYTE   W96
// 024   ----------------------------------------
        BYTE   W96
// 025   ----------------------------------------
        BYTE   W96
// 026   ----------------------------------------
        BYTE   W96
// 027   ----------------------------------------
        BYTE   W96
// 028   ----------------------------------------
        BYTE   W96
// 029   ----------------------------------------
        BYTE   W96
// 030   ----------------------------------------
        BYTE   W96
// 031   ----------------------------------------
        BYTE   W96
// 032   ----------------------------------------
        BYTE   W96
// 033   ----------------------------------------
        BYTE   W96
// 034   ----------------------------------------
        BYTE   W96
// 035   ----------------------------------------
        BYTE   W96
// 036   ----------------------------------------
        BYTE   W96
// 037   ----------------------------------------
        BYTE   W96
// 038   ----------------------------------------
        BYTE   W96
// 039   ----------------------------------------
        BYTE   W96
// 040   ----------------------------------------
        BYTE   W96
// 041   ----------------------------------------
        BYTE   W96
// 042   ----------------------------------------
        BYTE   W96
// 043   ----------------------------------------
        BYTE   W96
// 044   ----------------------------------------
        BYTE   W96
// 045   ----------------------------------------
        BYTE   W96
// 046   ----------------------------------------
        BYTE   W96
// 047   ----------------------------------------
        BYTE   W96
// 048   ----------------------------------------
        BYTE   W96
// 049   ----------------------------------------
        BYTE   W96
// 050   ----------------------------------------
        BYTE   W96
// 051   ----------------------------------------
        BYTE   W96
// 052   ----------------------------------------
        BYTE   W16
        BYTE           VOL     58
        BYTE           BEND    c_v-64
        BYTE   GoTo
         POIN2  LufiaBattle2_8_LOOP
        BYTE   FINE

//***************** Track 9 (Midi-Chn.11) ******************//

LufiaBattle2_9:
        BYTE   KEYSH   LufiaBattle2_key+0
// 000   ----------------------------------------
        BYTE           VOICE   48
        BYTE           VOL     70
        BYTE   W96
// 001   ----------------------------------------
        BYTE   W96
// 002   ----------------------------------------
        BYTE   W96
// 003   ----------------------------------------
        BYTE   W96
// 004   ----------------------------------------
LufiaBattle2_9_LOOP:
        BYTE   W96
// 005   ----------------------------------------
        BYTE   W96
// 006   ----------------------------------------
        BYTE   W96
// 007   ----------------------------------------
        BYTE   W96
// 008   ----------------------------------------
        BYTE   W96
// 009   ----------------------------------------
        BYTE   W96
// 010   ----------------------------------------
        BYTE   W96
// 011   ----------------------------------------
        BYTE   W96
// 012   ----------------------------------------
        BYTE   W96
// 013   ----------------------------------------
        BYTE   W96
// 014   ----------------------------------------
        BYTE   W96
// 015   ----------------------------------------
        BYTE   W96
// 016   ----------------------------------------
        BYTE   W96
// 017   ----------------------------------------
        BYTE   W96
// 018   ----------------------------------------
        BYTE   W96
// 019   ----------------------------------------
        BYTE   W96
// 020   ----------------------------------------
        BYTE   W96
// 021   ----------------------------------------
        BYTE   W96
// 022   ----------------------------------------
        BYTE   W96
// 023   ----------------------------------------
        BYTE   W96
// 024   ----------------------------------------
        BYTE   W96
// 025   ----------------------------------------
        BYTE   W96
// 026   ----------------------------------------
        BYTE   W96
// 027   ----------------------------------------
        BYTE   W96
// 028   ----------------------------------------
        BYTE   W96
// 029   ----------------------------------------
        BYTE   W96
// 030   ----------------------------------------
        BYTE   W96
// 031   ----------------------------------------
        BYTE   W96
// 032   ----------------------------------------
        BYTE   W96
// 033   ----------------------------------------
        BYTE   W96
// 034   ----------------------------------------
        BYTE   W96
// 035   ----------------------------------------
        BYTE   W96
// 036   ----------------------------------------
LufiaBattle2_9_36:
        BYTE           N32     Fs3   v094   gtp1
        BYTE                   Fs4   v104
        BYTE   W36
        BYTE                   Dn4   v094
        BYTE           N32     Dn5   v104   gtp1
        BYTE   W36
        BYTE           N21     Cs4   v094
        BYTE           N21     Cs5   v104
        BYTE   W24
        BYTE   PEND
// 037   ----------------------------------------
LufiaBattle2_9_37:
        BYTE           N54     Fs3   v094
        BYTE           N54     Fs4   v104
        BYTE   W60
        BYTE           N10     Fs3   v094
        BYTE           N10     Fs4   v104
        BYTE   W12
        BYTE                   En3   v094
        BYTE           N10     En4   v104
        BYTE   W12
        BYTE                   Dn3   v094
        BYTE           N10     Dn4   v104
        BYTE   W12
        BYTE   PEND
// 038   ----------------------------------------
LufiaBattle2_9_38:
        BYTE           N32     En3   v094   gtp1
        BYTE                   En4   v104
        BYTE   W36
        BYTE                   Fs3   v094
        BYTE           N32     Fs4   v104   gtp1
        BYTE   W36
        BYTE           N21     An3   v094
        BYTE           N21     An4   v104
        BYTE   W24
        BYTE   PEND
// 039   ----------------------------------------
        BYTE           N32     Fs3   v094   gtp1
        BYTE                   Fs4   v104
        BYTE   W36
        BYTE           N56     Bn2   v094
        BYTE           N56     Bn3   v104
        BYTE   W60
// 040   ----------------------------------------
        BYTE                   Dn3   v094   gtp2
        BYTE                   Dn4   v104
        BYTE   W60
        BYTE           N10     Cs3   v094
        BYTE           N10     Cs4   v104
        BYTE   W12
        BYTE                   Dn3   v094
        BYTE           N10     Dn4   v104
        BYTE   W12
        BYTE                   En3   v094
        BYTE           N10     En4   v104
        BYTE   W12
// 041   ----------------------------------------
        BYTE           N32     Dn3   v094   gtp1
        BYTE                   Dn4   v104
        BYTE   W36
        BYTE                   An2   v094
        BYTE           N32     An3   v104   gtp1
        BYTE   W36
        BYTE           N21     An3   v094
        BYTE           N21     An4   v104
        BYTE   W24
// 042   ----------------------------------------
        BYTE           N56     Gn3   v094   gtp2
        BYTE                   Gn4   v104
        BYTE   W60
        BYTE           N10     Fs3   v094
        BYTE           N10     Fs4   v104
        BYTE   W12
        BYTE                   En3   v094
        BYTE           N10     En4   v104
        BYTE   W12
        BYTE                   Dn3   v094
        BYTE           N10     Dn4   v104
        BYTE   W12
// 043   ----------------------------------------
        BYTE           N92     Fs3   v094   gtp2
        BYTE                   Fs4   v104
        BYTE   W96
// 044   ----------------------------------------
        BYTE   PATT
         POIN2  LufiaBattle2_9_36
// 045   ----------------------------------------
        BYTE   PATT
         POIN2  LufiaBattle2_9_37
// 046   ----------------------------------------
        BYTE   PATT
         POIN2  LufiaBattle2_9_38
// 047   ----------------------------------------
        BYTE           N32     Fs3   v094   gtp1
        BYTE                   Fs4   v104
        BYTE   W36
        BYTE           N54     Bn2   v094
        BYTE           N54     Bn3   v104
        BYTE   W60
// 048   ----------------------------------------
        BYTE           N68     Dn3   v094   gtp2
        BYTE                   Dn4   v104
        BYTE   W72
        BYTE           N10     Cs3   v094
        BYTE           N10     Cs4   v104
        BYTE   W12
        BYTE                   Dn3   v094
        BYTE           N10     Dn4   v104
        BYTE   W12
// 049   ----------------------------------------
        BYTE           N44     En3   v094
        BYTE           N44     En4   v104
        BYTE   W48
        BYTE                   An3   v094
        BYTE           N44     An4   v104
        BYTE   W48
// 050   ----------------------------------------
        BYTE           TIE     Bn3   v094
        BYTE           TIE     Bn4   v104
        BYTE   W96
// 051   ----------------------------------------
        BYTE   W92
        BYTE   W02
        BYTE           EOT     Bn3
        BYTE                   Bn4
        BYTE   W02
// 052   ----------------------------------------
        BYTE   W16
        BYTE   GoTo
         POIN2  LufiaBattle2_9_LOOP
        BYTE   FINE

//***************** Track 10 (Midi-Chn.12) *****************//

LufiaBattle2_10:
        BYTE   KEYSH   LufiaBattle2_key+0
// 000   ----------------------------------------
        BYTE           VOICE   48
        BYTE           BENDR   12
        BYTE           VOL     42
        BYTE           PAN     c_v+46
        BYTE           BEND    c_v-1
        BYTE   W96
// 001   ----------------------------------------
        BYTE   W96
// 002   ----------------------------------------
        BYTE   W96
// 003   ----------------------------------------
        BYTE   W96
// 004   ----------------------------------------
LufiaBattle2_10_LOOP:
        BYTE   W96
// 005   ----------------------------------------
        BYTE   W96
// 006   ----------------------------------------
        BYTE   W96
// 007   ----------------------------------------
        BYTE   W96
// 008   ----------------------------------------
        BYTE   W96
// 009   ----------------------------------------
        BYTE   W96
// 010   ----------------------------------------
        BYTE   W96
// 011   ----------------------------------------
        BYTE   W96
// 012   ----------------------------------------
        BYTE   W96
// 013   ----------------------------------------
        BYTE   W96
// 014   ----------------------------------------
        BYTE   W96
// 015   ----------------------------------------
        BYTE   W96
// 016   ----------------------------------------
        BYTE   W96
// 017   ----------------------------------------
        BYTE   W96
// 018   ----------------------------------------
        BYTE   W96
// 019   ----------------------------------------
        BYTE   W96
// 020   ----------------------------------------
        BYTE   W96
// 021   ----------------------------------------
        BYTE   W96
// 022   ----------------------------------------
        BYTE   W96
// 023   ----------------------------------------
        BYTE   W96
// 024   ----------------------------------------
        BYTE   W96
// 025   ----------------------------------------
        BYTE   W96
// 026   ----------------------------------------
        BYTE   W96
// 027   ----------------------------------------
        BYTE   W96
// 028   ----------------------------------------
        BYTE   W96
// 029   ----------------------------------------
        BYTE   W96
// 030   ----------------------------------------
        BYTE   W96
// 031   ----------------------------------------
        BYTE   W96
// 032   ----------------------------------------
        BYTE   W96
// 033   ----------------------------------------
        BYTE   W96
// 034   ----------------------------------------
        BYTE   W96
// 035   ----------------------------------------
        BYTE   W96
// 036   ----------------------------------------
LufiaBattle2_10_36:
        BYTE   W18
        BYTE           N32     Fs3   v094   gtp1
        BYTE                   Fs4   v104
        BYTE   W36
        BYTE                   Dn4   v094
        BYTE           N32     Dn5   v104   gtp1
        BYTE   W36
        BYTE           N21     Cs4   v094
        BYTE           N21     Cs5   v104
        BYTE   W06
        BYTE   PEND
// 037   ----------------------------------------
LufiaBattle2_10_37:
        BYTE   W18
        BYTE           N54     Fs3   v094
        BYTE           N54     Fs4   v104
        BYTE   W60
        BYTE           N10     Fs3   v094
        BYTE           N10     Fs4   v104
        BYTE   W12
        BYTE                   En3   v094
        BYTE           N10     En4   v104
        BYTE   W06
        BYTE   PEND
// 038   ----------------------------------------
LufiaBattle2_10_38:
        BYTE   W06
        BYTE           N10     Dn3   v094
        BYTE           N10     Dn4   v104
        BYTE   W12
        BYTE           N32     En3   v094   gtp1
        BYTE                   En4   v104
        BYTE   W36
        BYTE                   Fs3   v094
        BYTE           N32     Fs4   v104   gtp1
        BYTE   W36
        BYTE           N21     An3   v094
        BYTE           N21     An4   v104
        BYTE   W06
        BYTE   PEND
// 039   ----------------------------------------
        BYTE   W18
        BYTE           N32     Fs3   v094   gtp1
        BYTE                   Fs4   v104
        BYTE   W36
        BYTE           N56     Bn2   v094
        BYTE           N56     Bn3   v104
        BYTE   W42
// 040   ----------------------------------------
        BYTE   W18
        BYTE                   Dn3   v094   gtp2
        BYTE                   Dn4   v104
        BYTE   W60
        BYTE           N10     Cs3   v094
        BYTE           N10     Cs4   v104
        BYTE   W12
        BYTE                   Dn3   v094
        BYTE           N10     Dn4   v104
        BYTE   W06
// 041   ----------------------------------------
        BYTE   W06
        BYTE                   En3   v094
        BYTE           N10     En4   v104
        BYTE   W12
        BYTE           N32     Dn3   v094   gtp1
        BYTE                   Dn4   v104
        BYTE   W36
        BYTE                   An2   v094
        BYTE           N32     An3   v104   gtp1
        BYTE   W36
        BYTE           N21     An3   v094
        BYTE           N21     An4   v104
        BYTE   W06
// 042   ----------------------------------------
        BYTE   W18
        BYTE           N56     Gn3   v094   gtp2
        BYTE                   Gn4   v104
        BYTE   W60
        BYTE           N10     Fs3   v094
        BYTE           N10     Fs4   v104
        BYTE   W12
        BYTE                   En3   v094
        BYTE           N10     En4   v104
        BYTE   W06
// 043   ----------------------------------------
        BYTE   W06
        BYTE                   Dn3   v094
        BYTE           N10     Dn4   v104
        BYTE   W12
        BYTE           N92     Fs3   v094   gtp2
        BYTE                   Fs4   v104
        BYTE   W78
// 044   ----------------------------------------
        BYTE   PATT
         POIN2  LufiaBattle2_10_36
// 045   ----------------------------------------
        BYTE   PATT
         POIN2  LufiaBattle2_10_37
// 046   ----------------------------------------
        BYTE   PATT
         POIN2  LufiaBattle2_10_38
// 047   ----------------------------------------
        BYTE   W18
        BYTE           N32     Fs3   v094   gtp1
        BYTE                   Fs4   v104
        BYTE   W36
        BYTE           N54     Bn2   v094
        BYTE           N54     Bn3   v104
        BYTE   W42
// 048   ----------------------------------------
        BYTE   W18
        BYTE           N68     Dn3   v094   gtp2
        BYTE                   Dn4   v104
        BYTE   W72
        BYTE           N10     Cs3   v094
        BYTE           N10     Cs4   v104
        BYTE   W06
// 049   ----------------------------------------
        BYTE   W06
        BYTE                   Dn3   v094
        BYTE           N10     Dn4   v104
        BYTE   W12
        BYTE           N44     En3   v094
        BYTE           N44     En4   v104
        BYTE   W48
        BYTE                   An3   v094
        BYTE           N44     An4   v104
        BYTE   W30
// 050   ----------------------------------------
        BYTE   W18
        BYTE           TIE     Bn3   v094
        BYTE           TIE     Bn4   v104
        BYTE   W78
// 051   ----------------------------------------
        BYTE   W96
// 052   ----------------------------------------
        BYTE   W16
        BYTE           EOT     Bn3
        BYTE                   Bn4
        BYTE   GoTo
         POIN2  LufiaBattle2_10_LOOP
        BYTE   FINE

//***************** Track 11 (Midi-Chn.13) *****************//

LufiaBattle2_11:
        BYTE   KEYSH   LufiaBattle2_key+0
// 000   ----------------------------------------
        BYTE           VOICE   127
        BYTE           VOL     82
        BYTE           N13     As1   v055
        BYTE   W23
        BYTE                   As1
        BYTE   W24
        BYTE                   As1
        BYTE   W24
        BYTE                   As1
        BYTE   W24
        BYTE                   As1
        BYTE   W01
// 001   ----------------------------------------
        BYTE   W23
        BYTE                   As1
        BYTE   W24
        BYTE                   As1
        BYTE   W24
        BYTE                   As1
        BYTE   W24
        BYTE           N12     Cs2   v058
        BYTE   W01
// 002   ----------------------------------------
        BYTE   W32
        BYTE   W03
        BYTE                   Cs2
        BYTE   W36
        BYTE                   Cs2
        BYTE   W24
        BYTE                   Cs2
        BYTE   W01
// 003   ----------------------------------------
LufiaBattle2_11_3:
        BYTE   W68
        BYTE   W03
        BYTE           N12     Cs2   v058
        BYTE   W24
        BYTE                   Cs2
        BYTE   W01
        BYTE   PEND
// 004   ----------------------------------------
LufiaBattle2_11_LOOP:
        BYTE   W96
// 005   ----------------------------------------
        BYTE   W96
// 006   ----------------------------------------
        BYTE   W96
// 007   ----------------------------------------
        BYTE   W96
// 008   ----------------------------------------
        BYTE   W96
// 009   ----------------------------------------
        BYTE   W96
// 010   ----------------------------------------
        BYTE   W23
        BYTE           N12     Cs2   v058
        BYTE   W48
        BYTE                   Cs2
        BYTE   W24
        BYTE   W01
// 011   ----------------------------------------
LufiaBattle2_11_11:
        BYTE   W23
        BYTE           N12     Cs2   v058
        BYTE   W48
        BYTE                   Cs2
        BYTE   W24
        BYTE                   Cs2
        BYTE   W01
        BYTE   PEND
// 012   ----------------------------------------
        BYTE   W96
// 013   ----------------------------------------
        BYTE   W96
// 014   ----------------------------------------
        BYTE   W96
// 015   ----------------------------------------
        BYTE   W96
// 016   ----------------------------------------
        BYTE   W96
// 017   ----------------------------------------
        BYTE   W96
// 018   ----------------------------------------
        BYTE   PATT
         POIN2  LufiaBattle2_11_11
// 019   ----------------------------------------
        BYTE   PATT
         POIN2  LufiaBattle2_11_3
// 020   ----------------------------------------
        BYTE   W96
// 021   ----------------------------------------
        BYTE   W96
// 022   ----------------------------------------
        BYTE   W96
// 023   ----------------------------------------
        BYTE   W96
// 024   ----------------------------------------
        BYTE   W96
// 025   ----------------------------------------
        BYTE   W96
// 026   ----------------------------------------
LufiaBattle2_11_26:
        BYTE   W92
        BYTE   W03
        BYTE           N12     Cs2   v058
        BYTE   W01
        BYTE   PEND
// 027   ----------------------------------------
LufiaBattle2_11_27:
        BYTE   W44
        BYTE   W03
        BYTE           N12     Cs2   v058
        BYTE   W48
        BYTE                   Cs2
        BYTE   W01
        BYTE   PEND
// 028   ----------------------------------------
        BYTE   W96
// 029   ----------------------------------------
        BYTE   W96
// 030   ----------------------------------------
        BYTE   W96
// 031   ----------------------------------------
        BYTE   W96
// 032   ----------------------------------------
        BYTE   W96
// 033   ----------------------------------------
        BYTE   W96
// 034   ----------------------------------------
        BYTE   PATT
         POIN2  LufiaBattle2_11_26
// 035   ----------------------------------------
        BYTE   PATT
         POIN2  LufiaBattle2_11_3
// 036   ----------------------------------------
        BYTE   W96
// 037   ----------------------------------------
        BYTE   W96
// 038   ----------------------------------------
        BYTE   W96
// 039   ----------------------------------------
        BYTE   W96
// 040   ----------------------------------------
        BYTE   W96
// 041   ----------------------------------------
        BYTE   W96
// 042   ----------------------------------------
        BYTE   PATT
         POIN2  LufiaBattle2_11_26
// 043   ----------------------------------------
        BYTE   PATT
         POIN2  LufiaBattle2_11_27
// 044   ----------------------------------------
        BYTE   W96
// 045   ----------------------------------------
        BYTE   W96
// 046   ----------------------------------------
        BYTE   W96
// 047   ----------------------------------------
        BYTE   W96
// 048   ----------------------------------------
        BYTE   W96
// 049   ----------------------------------------
        BYTE   W96
// 050   ----------------------------------------
        BYTE   PATT
         POIN2  LufiaBattle2_11_26
// 051   ----------------------------------------
        BYTE   W68
        BYTE   W03
        BYTE           N12     Cs2   v058
        BYTE   W24
        BYTE   W01
// 052   ----------------------------------------
        BYTE   W16
        BYTE   GoTo
         POIN2  LufiaBattle2_11_LOOP
        BYTE   FINE

//***************** Track 12 (Midi-Chn.14) *****************//

LufiaBattle2_12:
        BYTE   KEYSH   LufiaBattle2_key+0
// 000   ----------------------------------------
        BYTE           VOICE   86
        BYTE           VOL     82
        BYTE           PAN     c_v+16
        BYTE   W96
// 001   ----------------------------------------
        BYTE   W96
// 002   ----------------------------------------
        BYTE   W96
// 003   ----------------------------------------
        BYTE   W96
// 004   ----------------------------------------
LufiaBattle2_12_LOOP:
        BYTE   W96
// 005   ----------------------------------------
        BYTE   W96
// 006   ----------------------------------------
        BYTE   W96
// 007   ----------------------------------------
        BYTE   W96
// 008   ----------------------------------------
        BYTE   W96
// 009   ----------------------------------------
        BYTE   W96
// 010   ----------------------------------------
        BYTE   W96
// 011   ----------------------------------------
        BYTE   W96
// 012   ----------------------------------------
        BYTE   W96
// 013   ----------------------------------------
        BYTE   W96
// 014   ----------------------------------------
        BYTE   W96
// 015   ----------------------------------------
        BYTE   W96
// 016   ----------------------------------------
        BYTE   W96
// 017   ----------------------------------------
        BYTE   W96
// 018   ----------------------------------------
        BYTE   W96
// 019   ----------------------------------------
        BYTE   W72
        BYTE           N11     Dn4   v060
        BYTE   W12
        BYTE                   Cs4
        BYTE   W12
// 020   ----------------------------------------
LufiaBattle2_12_20:
        BYTE           N44     Bn3   v060   gtp2
        BYTE   W48
        BYTE           N68     Fs4   v060   gtp3
        BYTE   W48
        BYTE   PEND
// 021   ----------------------------------------
LufiaBattle2_12_21:
        BYTE   W24
        BYTE           N23     En4   v060
        BYTE   W24
        BYTE           N32     An4   v060   gtp2
        BYTE   W36
        BYTE           N11     Bn4
        BYTE   W12
        BYTE   PEND
// 022   ----------------------------------------
        BYTE           TIE     Fs4
        BYTE   W96
// 023   ----------------------------------------
        BYTE   W56
        BYTE   W03
        BYTE           EOT
        BYTE   W01
        BYTE           N11     An3
        BYTE   W12
        BYTE                   Dn4
        BYTE   W12
        BYTE                   Cs4
        BYTE   W12
// 024   ----------------------------------------
        BYTE           N80     Bn3   v060   gtp3
        BYTE   W84
        BYTE           N11     An3
        BYTE   W12
// 025   ----------------------------------------
        BYTE           N56     Bn3   v060   gtp3
        BYTE   W60
        BYTE           N11     An3
        BYTE   W12
        BYTE                   Dn4
        BYTE   W12
        BYTE                   Cs4
        BYTE   W12
// 026   ----------------------------------------
        BYTE           N68     Bn3   v060   gtp3
        BYTE   W72
        BYTE           N11     Cs4
        BYTE   W12
        BYTE                   Bn3
        BYTE   W12
// 027   ----------------------------------------
        BYTE           N68     As3   v060   gtp3
        BYTE   W72
        BYTE           N11     Dn4
        BYTE   W12
        BYTE                   Cs4
        BYTE   W12
// 028   ----------------------------------------
        BYTE   PATT
         POIN2  LufiaBattle2_12_20
// 029   ----------------------------------------
        BYTE   PATT
         POIN2  LufiaBattle2_12_21
// 030   ----------------------------------------
        BYTE           TIE     Fs4   v060
        BYTE   W96
// 031   ----------------------------------------
        BYTE   W01
        BYTE           EOT
        BYTE   W23
        BYTE           N23     Dn4
        BYTE   W24
        BYTE                   Cs4
        BYTE   W24
        BYTE                   An3
        BYTE   W24
// 032   ----------------------------------------
        BYTE           N32     Bn3   v060   gtp2
        BYTE   W36
        BYTE           N11     Fs4
        BYTE   W12
        BYTE           N56     Fs4   v060   gtp3
        BYTE   W48
// 033   ----------------------------------------
        BYTE   W24
        BYTE           N11
        BYTE   W12
        BYTE                   En4
        BYTE   W12
        BYTE                   An4
        BYTE   W12
        BYTE                   Gn4
        BYTE   W12
        BYTE                   Fs4
        BYTE   W12
        BYTE                   En4
        BYTE   W12
// 034   ----------------------------------------
        BYTE           TIE     Fs4
        BYTE   W96
// 035   ----------------------------------------
        BYTE   W92
        BYTE   W03
        BYTE           EOT
        BYTE   W01
// 036   ----------------------------------------
        BYTE   W96
// 037   ----------------------------------------
        BYTE   W96
// 038   ----------------------------------------
        BYTE   W96
// 039   ----------------------------------------
        BYTE   W96
// 040   ----------------------------------------
        BYTE   W96
// 041   ----------------------------------------
        BYTE   W96
// 042   ----------------------------------------
        BYTE   W96
// 043   ----------------------------------------
        BYTE   W96
// 044   ----------------------------------------
        BYTE   W96
// 045   ----------------------------------------
        BYTE   W96
// 046   ----------------------------------------
        BYTE   W96
// 047   ----------------------------------------
        BYTE   W96
// 048   ----------------------------------------
        BYTE   W96
// 049   ----------------------------------------
        BYTE   W96
// 050   ----------------------------------------
        BYTE   W96
// 051   ----------------------------------------
        BYTE   W96
// 052   ----------------------------------------
        BYTE   W16
        BYTE   GoTo
         POIN2  LufiaBattle2_12_LOOP
        BYTE   FINE

//***************** Track 13 (Midi-Chn.15) *****************//

LufiaBattle2_13:
        BYTE   KEYSH   LufiaBattle2_key+0
// 000   ----------------------------------------
        BYTE           VOICE   86
        BYTE           BENDR   12
        BYTE           VOL     38
        BYTE           PAN     c_v+63
        BYTE           BEND    c_v-1
        BYTE   W96
// 001   ----------------------------------------
        BYTE   W96
// 002   ----------------------------------------
        BYTE   W96
// 003   ----------------------------------------
        BYTE   W96
// 004   ----------------------------------------
LufiaBattle2_13_LOOP:
        BYTE   W96
// 005   ----------------------------------------
        BYTE   W96
// 006   ----------------------------------------
        BYTE   W96
// 007   ----------------------------------------
        BYTE   W96
// 008   ----------------------------------------
        BYTE   W96
// 009   ----------------------------------------
        BYTE   W96
// 010   ----------------------------------------
        BYTE   W96
// 011   ----------------------------------------
        BYTE   W96
// 012   ----------------------------------------
        BYTE   W96
// 013   ----------------------------------------
        BYTE   W96
// 014   ----------------------------------------
        BYTE   W96
// 015   ----------------------------------------
        BYTE   W96
// 016   ----------------------------------------
        BYTE   W96
// 017   ----------------------------------------
        BYTE   W96
// 018   ----------------------------------------
        BYTE   W96
// 019   ----------------------------------------
        BYTE   W90
        BYTE           N11     Dn4   v060
        BYTE   W06
// 020   ----------------------------------------
LufiaBattle2_13_20:
        BYTE   W06
        BYTE           N11     Cs4   v060
        BYTE   W12
        BYTE           N44     Bn3   v060   gtp2
        BYTE   W48
        BYTE           N68     Fs4   v060   gtp3
        BYTE   W30
        BYTE   PEND
// 021   ----------------------------------------
LufiaBattle2_13_21:
        BYTE   W42
        BYTE           N23     En4   v060
        BYTE   W24
        BYTE           N32     An4   v060   gtp2
        BYTE   W30
        BYTE   PEND
// 022   ----------------------------------------
LufiaBattle2_13_22:
        BYTE   W06
        BYTE           N11     Bn4   v060
        BYTE   W12
        BYTE           TIE     Fs4
        BYTE   W78
        BYTE   PEND
// 023   ----------------------------------------
        BYTE   W76
        BYTE   W01
        BYTE           EOT
        BYTE   W01
        BYTE           N11     An3
        BYTE   W12
        BYTE                   Dn4
        BYTE   W06
// 024   ----------------------------------------
        BYTE   W06
        BYTE                   Cs4
        BYTE   W12
        BYTE           N80     Bn3   v060   gtp3
        BYTE   W78
// 025   ----------------------------------------
        BYTE   W06
        BYTE           N11     An3
        BYTE   W12
        BYTE           N56     Bn3   v060   gtp3
        BYTE   W60
        BYTE           N11     An3
        BYTE   W12
        BYTE                   Dn4
        BYTE   W06
// 026   ----------------------------------------
        BYTE   W06
        BYTE                   Cs4
        BYTE   W12
        BYTE           N68     Bn3   v060   gtp3
        BYTE   W72
        BYTE           N11     Cs4
        BYTE   W06
// 027   ----------------------------------------
        BYTE   W06
        BYTE                   Bn3
        BYTE   W12
        BYTE           N68     As3   v060   gtp3
        BYTE   W72
        BYTE           N11     Dn4
        BYTE   W06
// 028   ----------------------------------------
        BYTE   PATT
         POIN2  LufiaBattle2_13_20
// 029   ----------------------------------------
        BYTE   PATT
         POIN2  LufiaBattle2_13_21
// 030   ----------------------------------------
        BYTE   PATT
         POIN2  LufiaBattle2_13_22
// 031   ----------------------------------------
        BYTE   W19
        BYTE           EOT     Fs4
        BYTE   W23
        BYTE           N23     Dn4   v060
        BYTE   W24
        BYTE                   Cs4
        BYTE   W24
        BYTE                   An3
        BYTE   W06
// 032   ----------------------------------------
        BYTE   W18
        BYTE           N32     Bn3   v060   gtp2
        BYTE   W36
        BYTE           N11     Fs4
        BYTE   W12
        BYTE           N56     Fs4   v060   gtp3
        BYTE   W30
// 033   ----------------------------------------
        BYTE   W42
        BYTE           N11
        BYTE   W12
        BYTE                   En4
        BYTE   W12
        BYTE                   An4
        BYTE   W12
        BYTE                   Gn4
        BYTE   W12
        BYTE                   Fs4
        BYTE   W06
// 034   ----------------------------------------
        BYTE   W06
        BYTE                   En4
        BYTE   W12
        BYTE           TIE     Fs4
        BYTE   W78
// 035   ----------------------------------------
        BYTE   W96
// 036   ----------------------------------------
        BYTE   W17
        BYTE           EOT
        BYTE   W78
        BYTE   W01
// 037   ----------------------------------------
        BYTE   W96
// 038   ----------------------------------------
        BYTE   W96
// 039   ----------------------------------------
        BYTE   W96
// 040   ----------------------------------------
        BYTE   W96
// 041   ----------------------------------------
        BYTE   W96
// 042   ----------------------------------------
        BYTE   W96
// 043   ----------------------------------------
        BYTE   W96
// 044   ----------------------------------------
        BYTE   W96
// 045   ----------------------------------------
        BYTE   W96
// 046   ----------------------------------------
        BYTE   W96
// 047   ----------------------------------------
        BYTE   W96
// 048   ----------------------------------------
        BYTE   W96
// 049   ----------------------------------------
        BYTE   W96
// 050   ----------------------------------------
        BYTE   W96
// 051   ----------------------------------------
        BYTE   W96
// 052   ----------------------------------------
        BYTE   W16
        BYTE   GoTo
         POIN2  LufiaBattle2_13_LOOP
        BYTE   FINE


//********************** End of Song ***********************//

        ALIGN 4
LufiaBattle2:
        BYTE   14                      // Num Tracks
        BYTE   0                       // Unknown
        BYTE   LufiaBattle2_pri        // Priority
        BYTE   LufiaBattle2_rev        // Reverb

        POIN2   LufiaBattle2_grp       

        POIN2   LufiaBattle2_0
        POIN2   LufiaBattle2_1
        POIN2   LufiaBattle2_2
        POIN2   LufiaBattle2_3
        POIN2   LufiaBattle2_4
        POIN2   LufiaBattle2_5
        POIN2   LufiaBattle2_6
        POIN2   LufiaBattle2_7
        POIN2   LufiaBattle2_8
        POIN2   LufiaBattle2_9
        POIN2   LufiaBattle2_10
        POIN2   LufiaBattle2_11
        POIN2   LufiaBattle2_12
        POIN2   LufiaBattle2_13

        
