//Event file generated from Sappy .s format.
        #include "MPlayDef.event"

        #define    MarowakDojo_grp  voicegroup000
        #define    MarowakDojo_pri  0
        #define    MarowakDojo_rev  0
        #define    MarowakDojo_key  0

        // .rodata
        // MarowakDojo
        ALIGN 4

//****************** Track 0 (Midi-Chn.0) ******************//

MarowakDojo_0:
        BYTE   KEYSH   MarowakDojo_key+0
// 000   ----------------------------------------
        BYTE   TEMPO   120/2
        BYTE   W24
// 001   ----------------------------------------
        BYTE   TEMPO   126/2
        BYTE           VOL     68
        BYTE           VOICE   38
        BYTE   W96
// 002   ----------------------------------------
        BYTE   W96
// 003   ----------------------------------------
MarowakDojo_0_3:
        BYTE           N12     En1   v127
        BYTE   W12
        BYTE                   Bn1
        BYTE   W12
        BYTE                   En2
        BYTE   W12
        BYTE                   En1
        BYTE   W12
        BYTE                   Dn1
        BYTE   W12
        BYTE                   An1
        BYTE   W12
        BYTE                   Dn2
        BYTE   W12
        BYTE                   En1
        BYTE   W12
        BYTE   PEND
// 004   ----------------------------------------
MarowakDojo_0_4:
        BYTE           N12     Bn1   v127
        BYTE   W12
        BYTE                   En2
        BYTE   W12
        BYTE                   En1
        BYTE   W12
        BYTE                   Dn1
        BYTE   W12
        BYTE                   Dn2
        BYTE   W12
        BYTE                   Cn1
        BYTE   W12
        BYTE                   Cn2
        BYTE   W12
        BYTE                   Dn1
        BYTE   W12
        BYTE   PEND
// 005   ----------------------------------------
MarowakDojo_0_5:
        BYTE           N12     En1   v127
        BYTE   W12
        BYTE                   Bn1
        BYTE   W12
        BYTE                   En2
        BYTE   W12
        BYTE                   En1
        BYTE   W12
        BYTE                   Dn1
        BYTE   W12
        BYTE                   Dn2
        BYTE   W12
        BYTE                   Dn1
        BYTE   W12
        BYTE                   En1
        BYTE   W12
        BYTE   PEND
// 006   ----------------------------------------
MarowakDojo_0_6:
        BYTE           N12     Bn1   v127
        BYTE   W12
        BYTE                   En2
        BYTE   W12
        BYTE                   En1
        BYTE   W12
        BYTE                   Fn1
        BYTE   W12
        BYTE                   Fn2
        BYTE   W12
        BYTE                   Gn1
        BYTE   W12
        BYTE                   Gn2
        BYTE   W12
        BYTE                   An1
        BYTE   W12
        BYTE   PEND
// 007   ----------------------------------------
        BYTE   PATT
         POIN2  MarowakDojo_0_3
// 008   ----------------------------------------
        BYTE   PATT
         POIN2  MarowakDojo_0_4
// 009   ----------------------------------------
        BYTE   PATT
         POIN2  MarowakDojo_0_5
// 010   ----------------------------------------
        BYTE   PATT
         POIN2  MarowakDojo_0_6
// 011   ----------------------------------------
        BYTE   PATT
         POIN2  MarowakDojo_0_3
// 012   ----------------------------------------
        BYTE   PATT
         POIN2  MarowakDojo_0_4
// 013   ----------------------------------------
        BYTE   PATT
         POIN2  MarowakDojo_0_5
// 014   ----------------------------------------
        BYTE   PATT
         POIN2  MarowakDojo_0_6
// 015   ----------------------------------------
        BYTE   PATT
         POIN2  MarowakDojo_0_3
// 016   ----------------------------------------
        BYTE   PATT
         POIN2  MarowakDojo_0_4
// 017   ----------------------------------------
        BYTE   PATT
         POIN2  MarowakDojo_0_5
// 018   ----------------------------------------
        BYTE   PATT
         POIN2  MarowakDojo_0_6
// 019   ----------------------------------------
        BYTE   PATT
         POIN2  MarowakDojo_0_3
// 020   ----------------------------------------
        BYTE   PATT
         POIN2  MarowakDojo_0_4
// 021   ----------------------------------------
        BYTE   PATT
         POIN2  MarowakDojo_0_5
// 022   ----------------------------------------
        BYTE   PATT
         POIN2  MarowakDojo_0_6
// 023   ----------------------------------------
        BYTE   PATT
         POIN2  MarowakDojo_0_3
// 024   ----------------------------------------
        BYTE   PATT
         POIN2  MarowakDojo_0_4
// 025   ----------------------------------------
        BYTE   PATT
         POIN2  MarowakDojo_0_5
// 026   ----------------------------------------
        BYTE   PATT
         POIN2  MarowakDojo_0_6
// 027   ----------------------------------------
        BYTE           N12     En1   v127
        BYTE   W96
// 028   ----------------------------------------
        BYTE   W96
// 029   ----------------------------------------
        BYTE   W96
// 030   ----------------------------------------
        BYTE   W96
// 031   ----------------------------------------
        BYTE   W96
// 032   ----------------------------------------
        BYTE   W96
// 033   ----------------------------------------
        BYTE   W96
// 034   ----------------------------------------
        BYTE   W96
// 035   ----------------------------------------
        BYTE   W96
// 036   ----------------------------------------
        BYTE   W96
// 037   ----------------------------------------
        BYTE   W96
// 038   ----------------------------------------
        BYTE   W96
// 039   ----------------------------------------
        BYTE   W96
// 040   ----------------------------------------
        BYTE   W96
// 041   ----------------------------------------
        BYTE   W96
// 042   ----------------------------------------
        BYTE   W96
// 043   ----------------------------------------
        BYTE   W96
// 044   ----------------------------------------
MarowakDojo_0_LOOP:
        BYTE           N12     En1   v127
        BYTE   W12
        BYTE                   Bn1
        BYTE   W12
        BYTE                   En2
        BYTE   W12
        BYTE                   En1
        BYTE   W12
        BYTE                   Dn1
        BYTE   W12
        BYTE                   An1
        BYTE   W12
        BYTE                   Dn2
        BYTE   W12
        BYTE                   En1
        BYTE   W12
// 045   ----------------------------------------
        BYTE   PATT
         POIN2  MarowakDojo_0_4
// 046   ----------------------------------------
        BYTE   PATT
         POIN2  MarowakDojo_0_5
// 047   ----------------------------------------
        BYTE   PATT
         POIN2  MarowakDojo_0_6
// 048   ----------------------------------------
        BYTE   PATT
         POIN2  MarowakDojo_0_3
// 049   ----------------------------------------
        BYTE   PATT
         POIN2  MarowakDojo_0_4
// 050   ----------------------------------------
        BYTE   PATT
         POIN2  MarowakDojo_0_5
// 051   ----------------------------------------
        BYTE   PATT
         POIN2  MarowakDojo_0_6
// 052   ----------------------------------------
        BYTE   PATT
         POIN2  MarowakDojo_0_3
// 053   ----------------------------------------
        BYTE   PATT
         POIN2  MarowakDojo_0_4
// 054   ----------------------------------------
        BYTE   PATT
         POIN2  MarowakDojo_0_5
// 055   ----------------------------------------
        BYTE   PATT
         POIN2  MarowakDojo_0_6
// 056   ----------------------------------------
        BYTE   PATT
         POIN2  MarowakDojo_0_3
// 057   ----------------------------------------
        BYTE   PATT
         POIN2  MarowakDojo_0_4
// 058   ----------------------------------------
        BYTE   PATT
         POIN2  MarowakDojo_0_5
// 059   ----------------------------------------
        BYTE   PATT
         POIN2  MarowakDojo_0_6
// 060   ----------------------------------------
        BYTE   PATT
         POIN2  MarowakDojo_0_3
// 061   ----------------------------------------
        BYTE   PATT
         POIN2  MarowakDojo_0_4
// 062   ----------------------------------------
        BYTE   PATT
         POIN2  MarowakDojo_0_5
// 063   ----------------------------------------
        BYTE   PATT
         POIN2  MarowakDojo_0_6
// 064   ----------------------------------------
        BYTE   PATT
         POIN2  MarowakDojo_0_3
// 065   ----------------------------------------
        BYTE   PATT
         POIN2  MarowakDojo_0_4
// 066   ----------------------------------------
        BYTE   PATT
         POIN2  MarowakDojo_0_5
// 067   ----------------------------------------
        BYTE   PATT
         POIN2  MarowakDojo_0_6
// 068   ----------------------------------------
        BYTE           N12     En1   v127
        BYTE   W96
// 069   ----------------------------------------
        BYTE   W96
// 070   ----------------------------------------
        BYTE   W96
// 071   ----------------------------------------
        BYTE   W96
// 072   ----------------------------------------
        BYTE   W96
// 073   ----------------------------------------
        BYTE   W96
// 074   ----------------------------------------
        BYTE   W96
// 075   ----------------------------------------
        BYTE   W96
// 076   ----------------------------------------
        BYTE   W96
// 077   ----------------------------------------
        BYTE   W96
// 078   ----------------------------------------
        BYTE   W96
// 079   ----------------------------------------
        BYTE   W96
// 080   ----------------------------------------
        BYTE   W96
// 081   ----------------------------------------
        BYTE   W96
// 082   ----------------------------------------
        BYTE   W96
// 083   ----------------------------------------
        BYTE   W96
// 084   ----------------------------------------
        BYTE   W96
// 085   ----------------------------------------
        BYTE   GoTo
         POIN2  MarowakDojo_0_LOOP
        BYTE   FINE

//****************** Track 1 (Midi-Chn.1) ******************//

MarowakDojo_1:
        BYTE   KEYSH   MarowakDojo_key+0
// 000   ----------------------------------------
        BYTE   W24
// 001   ----------------------------------------
        BYTE           PAN     c_v+46
        BYTE           VOL     49
        BYTE           VOICE   11
        BYTE   W96
// 002   ----------------------------------------
        BYTE   W96
// 003   ----------------------------------------
        BYTE   W96
// 004   ----------------------------------------
        BYTE   W96
// 005   ----------------------------------------
        BYTE   W96
// 006   ----------------------------------------
        BYTE   W96
// 007   ----------------------------------------
        BYTE   W96
// 008   ----------------------------------------
        BYTE   W96
// 009   ----------------------------------------
        BYTE   W96
// 010   ----------------------------------------
        BYTE   W96
// 011   ----------------------------------------
MarowakDojo_1_11:
        BYTE   W12
        BYTE           N05     Bn5   v100
        BYTE   W12
        BYTE                   En5
        BYTE   W12
        BYTE                   Fs5
        BYTE   W12
        BYTE                   Cs5
        BYTE   W12
        BYTE                   Bn4
        BYTE   W24
        BYTE                   Bn5
        BYTE   W12
        BYTE   PEND
// 012   ----------------------------------------
MarowakDojo_1_12:
        BYTE           N05     En5   v100
        BYTE   W12
        BYTE                   Fs5
        BYTE   W12
        BYTE                   Cs5
        BYTE   W12
        BYTE                   Bn4
        BYTE   W60
        BYTE   PEND
// 013   ----------------------------------------
MarowakDojo_1_13:
        BYTE   W12
        BYTE           N05     Bn5   v100
        BYTE   W12
        BYTE                   En5
        BYTE   W12
        BYTE                   Fs5
        BYTE   W12
        BYTE                   Cs5
        BYTE   W12
        BYTE                   Bn4
        BYTE   W24
        BYTE           N12     Bn5
        BYTE   W12
        BYTE   PEND
// 014   ----------------------------------------
MarowakDojo_1_14:
        BYTE           N12     En5   v100
        BYTE   W12
        BYTE                   Fs5
        BYTE   W12
        BYTE                   Cs6
        BYTE   W12
        BYTE                   Bn5
        BYTE   W60
        BYTE   PEND
// 015   ----------------------------------------
        BYTE   PATT
         POIN2  MarowakDojo_1_11
// 016   ----------------------------------------
        BYTE   PATT
         POIN2  MarowakDojo_1_12
// 017   ----------------------------------------
        BYTE   PATT
         POIN2  MarowakDojo_1_13
// 018   ----------------------------------------
        BYTE   PATT
         POIN2  MarowakDojo_1_14
// 019   ----------------------------------------
        BYTE   W96
// 020   ----------------------------------------
        BYTE   W96
// 021   ----------------------------------------
        BYTE   W96
// 022   ----------------------------------------
        BYTE   W96
// 023   ----------------------------------------
        BYTE   W96
// 024   ----------------------------------------
        BYTE   W96
// 025   ----------------------------------------
        BYTE   W96
// 026   ----------------------------------------
        BYTE   W96
// 027   ----------------------------------------
        BYTE   W96
// 028   ----------------------------------------
        BYTE   W96
// 029   ----------------------------------------
        BYTE   W96
// 030   ----------------------------------------
        BYTE   W96
// 031   ----------------------------------------
        BYTE   W96
// 032   ----------------------------------------
        BYTE   W96
// 033   ----------------------------------------
        BYTE   W96
// 034   ----------------------------------------
        BYTE   W96
// 035   ----------------------------------------
        BYTE   W96
// 036   ----------------------------------------
        BYTE   W96
// 037   ----------------------------------------
        BYTE   W96
// 038   ----------------------------------------
        BYTE   W96
// 039   ----------------------------------------
        BYTE   W96
// 040   ----------------------------------------
        BYTE   W96
// 041   ----------------------------------------
        BYTE   W96
// 042   ----------------------------------------
        BYTE   W96
// 043   ----------------------------------------
        BYTE   W96
// 044   ----------------------------------------
MarowakDojo_1_LOOP:
        BYTE   W96
// 045   ----------------------------------------
        BYTE   W96
// 046   ----------------------------------------
        BYTE   W96
// 047   ----------------------------------------
        BYTE   W96
// 048   ----------------------------------------
        BYTE   W96
// 049   ----------------------------------------
        BYTE   W96
// 050   ----------------------------------------
        BYTE   W96
// 051   ----------------------------------------
        BYTE   W96
// 052   ----------------------------------------
        BYTE   PATT
         POIN2  MarowakDojo_1_11
// 053   ----------------------------------------
        BYTE   PATT
         POIN2  MarowakDojo_1_12
// 054   ----------------------------------------
        BYTE   PATT
         POIN2  MarowakDojo_1_13
// 055   ----------------------------------------
        BYTE   PATT
         POIN2  MarowakDojo_1_14
// 056   ----------------------------------------
        BYTE   PATT
         POIN2  MarowakDojo_1_11
// 057   ----------------------------------------
        BYTE   PATT
         POIN2  MarowakDojo_1_12
// 058   ----------------------------------------
        BYTE   PATT
         POIN2  MarowakDojo_1_13
// 059   ----------------------------------------
        BYTE   PATT
         POIN2  MarowakDojo_1_14
// 060   ----------------------------------------
        BYTE   W96
// 061   ----------------------------------------
        BYTE   W96
// 062   ----------------------------------------
        BYTE   W96
// 063   ----------------------------------------
        BYTE   W96
// 064   ----------------------------------------
        BYTE   W96
// 065   ----------------------------------------
        BYTE   W96
// 066   ----------------------------------------
        BYTE   W96
// 067   ----------------------------------------
        BYTE   W96
// 068   ----------------------------------------
        BYTE   W96
// 069   ----------------------------------------
        BYTE   W96
// 070   ----------------------------------------
        BYTE   W96
// 071   ----------------------------------------
        BYTE   W96
// 072   ----------------------------------------
        BYTE   W96
// 073   ----------------------------------------
        BYTE   W96
// 074   ----------------------------------------
        BYTE   W96
// 075   ----------------------------------------
        BYTE   W96
// 076   ----------------------------------------
        BYTE   W96
// 077   ----------------------------------------
        BYTE   W96
// 078   ----------------------------------------
        BYTE   W96
// 079   ----------------------------------------
        BYTE   W96
// 080   ----------------------------------------
        BYTE   W96
// 081   ----------------------------------------
        BYTE   W96
// 082   ----------------------------------------
        BYTE   W96
// 083   ----------------------------------------
        BYTE   W96
// 084   ----------------------------------------
        BYTE   W96
// 085   ----------------------------------------
        BYTE   GoTo
         POIN2  MarowakDojo_1_LOOP
        BYTE   FINE

//****************** Track 2 (Midi-Chn.2) ******************//

MarowakDojo_2:
        BYTE   KEYSH   MarowakDojo_key+0
// 000   ----------------------------------------
        BYTE   W24
// 001   ----------------------------------------
        BYTE           PAN     c_v-64
        BYTE           VOL     24
        BYTE           VOICE   48
        BYTE   W96
// 002   ----------------------------------------
        BYTE   W96
// 003   ----------------------------------------
        BYTE   W96
// 004   ----------------------------------------
        BYTE   W96
// 005   ----------------------------------------
        BYTE   W96
// 006   ----------------------------------------
        BYTE   W96
// 007   ----------------------------------------
        BYTE   W96
// 008   ----------------------------------------
        BYTE   W96
// 009   ----------------------------------------
        BYTE   W96
// 010   ----------------------------------------
        BYTE   W96
// 011   ----------------------------------------
MarowakDojo_2_11:
        BYTE   W24
        BYTE           N05     Bn5   v100
        BYTE   W12
        BYTE                   En5
        BYTE   W12
        BYTE                   Fs5
        BYTE   W12
        BYTE                   Cs5
        BYTE   W12
        BYTE                   Bn4
        BYTE   W24
        BYTE   PEND
// 012   ----------------------------------------
MarowakDojo_2_12:
        BYTE           N05     Bn5   v100
        BYTE   W12
        BYTE                   En5
        BYTE   W12
        BYTE                   Fs5
        BYTE   W12
        BYTE                   Cs5
        BYTE   W12
        BYTE                   Bn4
        BYTE   W48
        BYTE   PEND
// 013   ----------------------------------------
        BYTE   PATT
         POIN2  MarowakDojo_2_11
// 014   ----------------------------------------
MarowakDojo_2_14:
        BYTE           N12     Bn5   v100
        BYTE   W12
        BYTE                   En5
        BYTE   W12
        BYTE                   Fs5
        BYTE   W12
        BYTE                   Cs6
        BYTE   W12
        BYTE                   Bn5
        BYTE   W48
        BYTE   PEND
// 015   ----------------------------------------
        BYTE   PATT
         POIN2  MarowakDojo_2_11
// 016   ----------------------------------------
        BYTE   PATT
         POIN2  MarowakDojo_2_12
// 017   ----------------------------------------
        BYTE   PATT
         POIN2  MarowakDojo_2_11
// 018   ----------------------------------------
        BYTE   PATT
         POIN2  MarowakDojo_2_14
// 019   ----------------------------------------
        BYTE   W96
// 020   ----------------------------------------
        BYTE   W96
// 021   ----------------------------------------
        BYTE   W96
// 022   ----------------------------------------
        BYTE   W96
// 023   ----------------------------------------
        BYTE   W96
// 024   ----------------------------------------
        BYTE   W96
// 025   ----------------------------------------
        BYTE   W96
// 026   ----------------------------------------
        BYTE   W96
// 027   ----------------------------------------
        BYTE   W96
// 028   ----------------------------------------
        BYTE   W96
// 029   ----------------------------------------
        BYTE   W96
// 030   ----------------------------------------
        BYTE   W96
// 031   ----------------------------------------
        BYTE   W96
// 032   ----------------------------------------
        BYTE   W96
// 033   ----------------------------------------
        BYTE   W96
// 034   ----------------------------------------
        BYTE   W96
// 035   ----------------------------------------
        BYTE   W96
// 036   ----------------------------------------
        BYTE   W96
// 037   ----------------------------------------
        BYTE   W96
// 038   ----------------------------------------
        BYTE   W96
// 039   ----------------------------------------
        BYTE   W96
// 040   ----------------------------------------
        BYTE   W96
// 041   ----------------------------------------
        BYTE   W96
// 042   ----------------------------------------
        BYTE   W96
// 043   ----------------------------------------
        BYTE   W96
// 044   ----------------------------------------
MarowakDojo_2_LOOP:
        BYTE   W96
// 045   ----------------------------------------
        BYTE   W96
// 046   ----------------------------------------
        BYTE   W96
// 047   ----------------------------------------
        BYTE   W96
// 048   ----------------------------------------
        BYTE   W96
// 049   ----------------------------------------
        BYTE   W96
// 050   ----------------------------------------
        BYTE   W96
// 051   ----------------------------------------
        BYTE   W96
// 052   ----------------------------------------
        BYTE   PATT
         POIN2  MarowakDojo_2_11
// 053   ----------------------------------------
        BYTE   PATT
         POIN2  MarowakDojo_2_12
// 054   ----------------------------------------
        BYTE   PATT
         POIN2  MarowakDojo_2_11
// 055   ----------------------------------------
        BYTE   PATT
         POIN2  MarowakDojo_2_14
// 056   ----------------------------------------
        BYTE   PATT
         POIN2  MarowakDojo_2_11
// 057   ----------------------------------------
        BYTE   PATT
         POIN2  MarowakDojo_2_12
// 058   ----------------------------------------
        BYTE   PATT
         POIN2  MarowakDojo_2_11
// 059   ----------------------------------------
        BYTE   PATT
         POIN2  MarowakDojo_2_14
// 060   ----------------------------------------
        BYTE   W96
// 061   ----------------------------------------
        BYTE   W96
// 062   ----------------------------------------
        BYTE   W96
// 063   ----------------------------------------
        BYTE   W96
// 064   ----------------------------------------
        BYTE   W96
// 065   ----------------------------------------
        BYTE   W96
// 066   ----------------------------------------
        BYTE   W96
// 067   ----------------------------------------
        BYTE   W96
// 068   ----------------------------------------
        BYTE   W96
// 069   ----------------------------------------
        BYTE   W96
// 070   ----------------------------------------
        BYTE   W96
// 071   ----------------------------------------
        BYTE   W96
// 072   ----------------------------------------
        BYTE   W96
// 073   ----------------------------------------
        BYTE   W96
// 074   ----------------------------------------
        BYTE   W96
// 075   ----------------------------------------
        BYTE   W96
// 076   ----------------------------------------
        BYTE   W96
// 077   ----------------------------------------
        BYTE   W96
// 078   ----------------------------------------
        BYTE   W96
// 079   ----------------------------------------
        BYTE   W96
// 080   ----------------------------------------
        BYTE   W96
// 081   ----------------------------------------
        BYTE   W96
// 082   ----------------------------------------
        BYTE   W96
// 083   ----------------------------------------
        BYTE   W96
// 084   ----------------------------------------
        BYTE   W96
// 085   ----------------------------------------
        BYTE   GoTo
         POIN2  MarowakDojo_2_LOOP
        BYTE   FINE

//****************** Track 3 (Midi-Chn.3) ******************//

MarowakDojo_3:
        BYTE   KEYSH   MarowakDojo_key+0
// 000   ----------------------------------------
        BYTE   W24
// 001   ----------------------------------------
        BYTE           PAN     c_v+63
        BYTE           VOL     21
        BYTE           VOICE   48
        BYTE   W96
// 002   ----------------------------------------
        BYTE   W96
// 003   ----------------------------------------
        BYTE   W96
// 004   ----------------------------------------
        BYTE   W96
// 005   ----------------------------------------
        BYTE   W96
// 006   ----------------------------------------
        BYTE   W96
// 007   ----------------------------------------
        BYTE   W96
// 008   ----------------------------------------
        BYTE   W96
// 009   ----------------------------------------
        BYTE   W96
// 010   ----------------------------------------
        BYTE   W96
// 011   ----------------------------------------
MarowakDojo_3_11:
        BYTE   W36
        BYTE           N05     Bn5   v100
        BYTE   W12
        BYTE                   En5
        BYTE   W12
        BYTE                   Fs5
        BYTE   W12
        BYTE                   Cs5
        BYTE   W12
        BYTE                   Bn4
        BYTE   W12
        BYTE   PEND
// 012   ----------------------------------------
MarowakDojo_3_12:
        BYTE   W12
        BYTE           N05     Bn5   v100
        BYTE   W12
        BYTE                   En5
        BYTE   W12
        BYTE                   Fs5
        BYTE   W12
        BYTE                   Cs5
        BYTE   W12
        BYTE                   Bn4
        BYTE   W36
        BYTE   PEND
// 013   ----------------------------------------
        BYTE   PATT
         POIN2  MarowakDojo_3_11
// 014   ----------------------------------------
MarowakDojo_3_14:
        BYTE   W12
        BYTE           N12     Bn5   v100
        BYTE   W12
        BYTE                   En5
        BYTE   W12
        BYTE                   Fs5
        BYTE   W12
        BYTE                   Cs6
        BYTE   W12
        BYTE                   Bn5
        BYTE   W36
        BYTE   PEND
// 015   ----------------------------------------
        BYTE   PATT
         POIN2  MarowakDojo_3_11
// 016   ----------------------------------------
        BYTE   PATT
         POIN2  MarowakDojo_3_12
// 017   ----------------------------------------
        BYTE   PATT
         POIN2  MarowakDojo_3_11
// 018   ----------------------------------------
        BYTE   PATT
         POIN2  MarowakDojo_3_14
// 019   ----------------------------------------
        BYTE   W96
// 020   ----------------------------------------
        BYTE   W96
// 021   ----------------------------------------
        BYTE   W96
// 022   ----------------------------------------
        BYTE   W96
// 023   ----------------------------------------
        BYTE   W96
// 024   ----------------------------------------
        BYTE   W96
// 025   ----------------------------------------
        BYTE   W96
// 026   ----------------------------------------
        BYTE   W96
// 027   ----------------------------------------
        BYTE   W96
// 028   ----------------------------------------
        BYTE   W96
// 029   ----------------------------------------
        BYTE   W96
// 030   ----------------------------------------
        BYTE   W96
// 031   ----------------------------------------
        BYTE   W96
// 032   ----------------------------------------
        BYTE   W96
// 033   ----------------------------------------
        BYTE   W96
// 034   ----------------------------------------
        BYTE   W96
// 035   ----------------------------------------
        BYTE   W96
// 036   ----------------------------------------
        BYTE   W96
// 037   ----------------------------------------
        BYTE   W96
// 038   ----------------------------------------
        BYTE   W96
// 039   ----------------------------------------
        BYTE   W96
// 040   ----------------------------------------
        BYTE   W96
// 041   ----------------------------------------
        BYTE   W96
// 042   ----------------------------------------
        BYTE   W96
// 043   ----------------------------------------
        BYTE   W96
// 044   ----------------------------------------
MarowakDojo_3_LOOP:
        BYTE   W96
// 045   ----------------------------------------
        BYTE   W96
// 046   ----------------------------------------
        BYTE   W96
// 047   ----------------------------------------
        BYTE   W96
// 048   ----------------------------------------
        BYTE   W96
// 049   ----------------------------------------
        BYTE   W96
// 050   ----------------------------------------
        BYTE   W96
// 051   ----------------------------------------
        BYTE   W96
// 052   ----------------------------------------
        BYTE   PATT
         POIN2  MarowakDojo_3_11
// 053   ----------------------------------------
        BYTE   PATT
         POIN2  MarowakDojo_3_12
// 054   ----------------------------------------
        BYTE   PATT
         POIN2  MarowakDojo_3_11
// 055   ----------------------------------------
        BYTE   PATT
         POIN2  MarowakDojo_3_14
// 056   ----------------------------------------
        BYTE   PATT
         POIN2  MarowakDojo_3_11
// 057   ----------------------------------------
        BYTE   PATT
         POIN2  MarowakDojo_3_12
// 058   ----------------------------------------
        BYTE   PATT
         POIN2  MarowakDojo_3_11
// 059   ----------------------------------------
        BYTE   PATT
         POIN2  MarowakDojo_3_14
// 060   ----------------------------------------
        BYTE   W96
// 061   ----------------------------------------
        BYTE   W96
// 062   ----------------------------------------
        BYTE   W96
// 063   ----------------------------------------
        BYTE   W96
// 064   ----------------------------------------
        BYTE   W96
// 065   ----------------------------------------
        BYTE   W96
// 066   ----------------------------------------
        BYTE   W96
// 067   ----------------------------------------
        BYTE   W96
// 068   ----------------------------------------
        BYTE   W96
// 069   ----------------------------------------
        BYTE   W96
// 070   ----------------------------------------
        BYTE   W96
// 071   ----------------------------------------
        BYTE   W96
// 072   ----------------------------------------
        BYTE   W96
// 073   ----------------------------------------
        BYTE   W96
// 074   ----------------------------------------
        BYTE   W96
// 075   ----------------------------------------
        BYTE   W96
// 076   ----------------------------------------
        BYTE   W96
// 077   ----------------------------------------
        BYTE   W96
// 078   ----------------------------------------
        BYTE   W96
// 079   ----------------------------------------
        BYTE   W96
// 080   ----------------------------------------
        BYTE   W96
// 081   ----------------------------------------
        BYTE   W96
// 082   ----------------------------------------
        BYTE   W96
// 083   ----------------------------------------
        BYTE   W96
// 084   ----------------------------------------
        BYTE   W96
// 085   ----------------------------------------
        BYTE   GoTo
         POIN2  MarowakDojo_3_LOOP
        BYTE   FINE

//****************** Track 4 (Midi-Chn.4) ******************//

MarowakDojo_4:
        BYTE   KEYSH   MarowakDojo_key+0
// 000   ----------------------------------------
        BYTE   W24
// 001   ----------------------------------------
        BYTE           VOL     74
        BYTE           VOICE   24
        BYTE           BEND    c_v+1
        BYTE           N06     Fs3   v127
        BYTE           N06     Dn3
        BYTE           N06     En2
        BYTE   W24
        BYTE                   Fs3
        BYTE           N06     Dn3
        BYTE           N06     En2
        BYTE   W24
        BYTE           N24     Dn2
        BYTE           N24     Cs3
        BYTE           N24     En3   v127   gtp1
        BYTE   W36
        BYTE           N06     Fs3
        BYTE           N06     Dn3
        BYTE           N06     En2
        BYTE   W12
// 002   ----------------------------------------
        BYTE   W12
        BYTE                   Fs3
        BYTE           N06     Dn3
        BYTE           N06     En2
        BYTE   W24
        BYTE           N12     En3
        BYTE           N12     Cn3
        BYTE           N12     Dn2
        BYTE   W24
        BYTE                   Dn3
        BYTE           N12     Bn2
        BYTE           N12     Cn2
        BYTE   W24
        BYTE           N06     En3
        BYTE           N06     Cs3
        BYTE           N06     Dn2
        BYTE   W12
// 003   ----------------------------------------
MarowakDojo_4_3:
        BYTE           N06     Fs3   v127
        BYTE           N06     Dn3
        BYTE           N06     En2
        BYTE   W24
        BYTE                   Fs3
        BYTE           N06     Dn3
        BYTE           N06     En2
        BYTE   W24
        BYTE           N24     Dn2
        BYTE           N24     Cs3
        BYTE           N24     En3   v127   gtp1
        BYTE   W36
        BYTE           N06     Fs3
        BYTE           N06     Dn3
        BYTE           N06     En2
        BYTE   W12
        BYTE   PEND
// 004   ----------------------------------------
MarowakDojo_4_4:
        BYTE   W12
        BYTE           N06     Fs3   v127
        BYTE           N06     Dn3
        BYTE           N06     En2
        BYTE   W24
        BYTE           N12     En3
        BYTE           N12     Cs3
        BYTE           N12     Dn2
        BYTE   W24
        BYTE                   Dn3
        BYTE           N12     Bn2
        BYTE           N12     Cn2
        BYTE   W24
        BYTE           N06     En3
        BYTE           N06     Cs3
        BYTE           N06     Dn2
        BYTE   W12
        BYTE   PEND
// 005   ----------------------------------------
MarowakDojo_4_5:
        BYTE           N06     Fs3   v127
        BYTE           N06     Dn3
        BYTE           N06     En2
        BYTE   W24
        BYTE                   Fs3
        BYTE           N06     Dn3
        BYTE           N06     En2
        BYTE   W24
        BYTE           N24     En3
        BYTE           N24     Cs3
        BYTE           N24     Dn2
        BYTE   W36
        BYTE           N06     Fs3
        BYTE           N06     Dn3
        BYTE           N06     En2
        BYTE   W12
        BYTE   PEND
// 006   ----------------------------------------
MarowakDojo_4_6:
        BYTE   W12
        BYTE           N06     Fs3   v127
        BYTE           N06     Dn3
        BYTE           N06     En2
        BYTE   W24
        BYTE           N24     Gn3
        BYTE           N24     En3
        BYTE           N24     Fn2
        BYTE   W24
        BYTE                   An3
        BYTE           N24     Fs3
        BYTE           N24     Gn2
        BYTE   W24
        BYTE           N12     Bn3
        BYTE           N12     Gn3
        BYTE           N12     An2
        BYTE   W12
        BYTE   PEND
// 007   ----------------------------------------
        BYTE   PATT
         POIN2  MarowakDojo_4_3
// 008   ----------------------------------------
        BYTE   PATT
         POIN2  MarowakDojo_4_4
// 009   ----------------------------------------
        BYTE   PATT
         POIN2  MarowakDojo_4_5
// 010   ----------------------------------------
        BYTE   PATT
         POIN2  MarowakDojo_4_6
// 011   ----------------------------------------
MarowakDojo_4_11:
        BYTE           N06     Fs3   v127
        BYTE           N06     Dn3
        BYTE   W24
        BYTE                   Fs3
        BYTE           N06     Dn3
        BYTE   W24
        BYTE           N24     Cs3
        BYTE           N24     En3   v127   gtp1
        BYTE   W36
        BYTE           N06     Fs3
        BYTE           N06     Dn3
        BYTE   W12
        BYTE   PEND
// 012   ----------------------------------------
MarowakDojo_4_12:
        BYTE   W12
        BYTE           N06     Fs3   v127
        BYTE           N06     Dn3
        BYTE   W24
        BYTE           N12     En3
        BYTE           N12     Cs3
        BYTE   W24
        BYTE                   Dn3
        BYTE           N12     Bn2
        BYTE   W24
        BYTE           N06     En3
        BYTE           N06     Cs3
        BYTE   W12
        BYTE   PEND
// 013   ----------------------------------------
MarowakDojo_4_13:
        BYTE           N06     Fs3   v127
        BYTE           N06     Dn3
        BYTE   W24
        BYTE                   Fs3
        BYTE           N06     Dn3
        BYTE   W24
        BYTE           N24     En3
        BYTE           N24     Cs3
        BYTE   W36
        BYTE           N06     Fs3
        BYTE           N06     Dn3
        BYTE   W12
        BYTE   PEND
// 014   ----------------------------------------
MarowakDojo_4_14:
        BYTE   W12
        BYTE           N06     Fs3   v127
        BYTE           N06     Dn3
        BYTE   W24
        BYTE           N24     Gn3
        BYTE           N24     En3
        BYTE   W24
        BYTE                   An3
        BYTE           N24     Fs3
        BYTE   W24
        BYTE           N12     Bn3
        BYTE           N12     Gn3
        BYTE   W12
        BYTE   PEND
// 015   ----------------------------------------
        BYTE   PATT
         POIN2  MarowakDojo_4_11
// 016   ----------------------------------------
        BYTE   PATT
         POIN2  MarowakDojo_4_12
// 017   ----------------------------------------
        BYTE   PATT
         POIN2  MarowakDojo_4_13
// 018   ----------------------------------------
        BYTE   PATT
         POIN2  MarowakDojo_4_14
// 019   ----------------------------------------
        BYTE   PATT
         POIN2  MarowakDojo_4_11
// 020   ----------------------------------------
        BYTE   PATT
         POIN2  MarowakDojo_4_12
// 021   ----------------------------------------
        BYTE   PATT
         POIN2  MarowakDojo_4_13
// 022   ----------------------------------------
        BYTE   PATT
         POIN2  MarowakDojo_4_14
// 023   ----------------------------------------
        BYTE   PATT
         POIN2  MarowakDojo_4_11
// 024   ----------------------------------------
        BYTE   PATT
         POIN2  MarowakDojo_4_12
// 025   ----------------------------------------
        BYTE   PATT
         POIN2  MarowakDojo_4_13
// 026   ----------------------------------------
        BYTE   PATT
         POIN2  MarowakDojo_4_6
// 027   ----------------------------------------
        BYTE   PATT
         POIN2  MarowakDojo_4_3
// 028   ----------------------------------------
        BYTE   PATT
         POIN2  MarowakDojo_4_4
// 029   ----------------------------------------
        BYTE   PATT
         POIN2  MarowakDojo_4_5
// 030   ----------------------------------------
        BYTE   PATT
         POIN2  MarowakDojo_4_6
// 031   ----------------------------------------
        BYTE   PATT
         POIN2  MarowakDojo_4_3
// 032   ----------------------------------------
        BYTE   PATT
         POIN2  MarowakDojo_4_4
// 033   ----------------------------------------
        BYTE   PATT
         POIN2  MarowakDojo_4_5
// 034   ----------------------------------------
        BYTE   PATT
         POIN2  MarowakDojo_4_6
// 035   ----------------------------------------
        BYTE   PATT
         POIN2  MarowakDojo_4_3
// 036   ----------------------------------------
        BYTE   PATT
         POIN2  MarowakDojo_4_4
// 037   ----------------------------------------
        BYTE   PATT
         POIN2  MarowakDojo_4_5
// 038   ----------------------------------------
        BYTE   PATT
         POIN2  MarowakDojo_4_6
// 039   ----------------------------------------
        BYTE   PATT
         POIN2  MarowakDojo_4_3
// 040   ----------------------------------------
        BYTE   PATT
         POIN2  MarowakDojo_4_4
// 041   ----------------------------------------
        BYTE   PATT
         POIN2  MarowakDojo_4_5
// 042   ----------------------------------------
        BYTE   PATT
         POIN2  MarowakDojo_4_6
// 043   ----------------------------------------
        BYTE   W96
// 044   ----------------------------------------
MarowakDojo_4_LOOP:
        BYTE           N06     Fs3   v127
        BYTE           N06     Dn3
        BYTE           N06     En2
        BYTE   W24
        BYTE                   Fs3
        BYTE           N06     Dn3
        BYTE           N06     En2
        BYTE   W24
        BYTE           N24     Dn2
        BYTE           N24     Cs3
        BYTE           N24     En3   v127   gtp1
        BYTE   W36
        BYTE           N06     Fs3
        BYTE           N06     Dn3
        BYTE           N06     En2
        BYTE   W12
// 045   ----------------------------------------
        BYTE   PATT
         POIN2  MarowakDojo_4_4
// 046   ----------------------------------------
        BYTE   PATT
         POIN2  MarowakDojo_4_5
// 047   ----------------------------------------
        BYTE   PATT
         POIN2  MarowakDojo_4_6
// 048   ----------------------------------------
        BYTE   PATT
         POIN2  MarowakDojo_4_3
// 049   ----------------------------------------
        BYTE   PATT
         POIN2  MarowakDojo_4_4
// 050   ----------------------------------------
        BYTE   PATT
         POIN2  MarowakDojo_4_5
// 051   ----------------------------------------
        BYTE   PATT
         POIN2  MarowakDojo_4_6
// 052   ----------------------------------------
        BYTE   PATT
         POIN2  MarowakDojo_4_11
// 053   ----------------------------------------
        BYTE   PATT
         POIN2  MarowakDojo_4_12
// 054   ----------------------------------------
        BYTE   PATT
         POIN2  MarowakDojo_4_13
// 055   ----------------------------------------
        BYTE   PATT
         POIN2  MarowakDojo_4_14
// 056   ----------------------------------------
        BYTE   PATT
         POIN2  MarowakDojo_4_11
// 057   ----------------------------------------
        BYTE   PATT
         POIN2  MarowakDojo_4_12
// 058   ----------------------------------------
        BYTE   PATT
         POIN2  MarowakDojo_4_13
// 059   ----------------------------------------
        BYTE   PATT
         POIN2  MarowakDojo_4_14
// 060   ----------------------------------------
        BYTE   PATT
         POIN2  MarowakDojo_4_11
// 061   ----------------------------------------
        BYTE   PATT
         POIN2  MarowakDojo_4_12
// 062   ----------------------------------------
        BYTE   PATT
         POIN2  MarowakDojo_4_13
// 063   ----------------------------------------
        BYTE   PATT
         POIN2  MarowakDojo_4_14
// 064   ----------------------------------------
        BYTE   PATT
         POIN2  MarowakDojo_4_11
// 065   ----------------------------------------
        BYTE   PATT
         POIN2  MarowakDojo_4_12
// 066   ----------------------------------------
        BYTE   PATT
         POIN2  MarowakDojo_4_13
// 067   ----------------------------------------
        BYTE   PATT
         POIN2  MarowakDojo_4_6
// 068   ----------------------------------------
        BYTE   PATT
         POIN2  MarowakDojo_4_3
// 069   ----------------------------------------
        BYTE   PATT
         POIN2  MarowakDojo_4_4
// 070   ----------------------------------------
        BYTE   PATT
         POIN2  MarowakDojo_4_5
// 071   ----------------------------------------
        BYTE   PATT
         POIN2  MarowakDojo_4_6
// 072   ----------------------------------------
        BYTE   PATT
         POIN2  MarowakDojo_4_3
// 073   ----------------------------------------
        BYTE   PATT
         POIN2  MarowakDojo_4_4
// 074   ----------------------------------------
        BYTE   PATT
         POIN2  MarowakDojo_4_5
// 075   ----------------------------------------
        BYTE   PATT
         POIN2  MarowakDojo_4_6
// 076   ----------------------------------------
        BYTE   PATT
         POIN2  MarowakDojo_4_3
// 077   ----------------------------------------
        BYTE   PATT
         POIN2  MarowakDojo_4_4
// 078   ----------------------------------------
        BYTE   PATT
         POIN2  MarowakDojo_4_5
// 079   ----------------------------------------
        BYTE   PATT
         POIN2  MarowakDojo_4_6
// 080   ----------------------------------------
        BYTE   PATT
         POIN2  MarowakDojo_4_3
// 081   ----------------------------------------
        BYTE   PATT
         POIN2  MarowakDojo_4_4
// 082   ----------------------------------------
        BYTE   PATT
         POIN2  MarowakDojo_4_5
// 083   ----------------------------------------
        BYTE   PATT
         POIN2  MarowakDojo_4_6
// 084   ----------------------------------------
        BYTE   W96
// 085   ----------------------------------------
        BYTE   GoTo
         POIN2  MarowakDojo_4_LOOP
        BYTE   FINE

//****************** Track 5 (Midi-Chn.5) ******************//

MarowakDojo_5:
        BYTE   KEYSH   MarowakDojo_key+0
// 000   ----------------------------------------
        BYTE   W24
// 001   ----------------------------------------
        BYTE           PAN     c_v-24
        BYTE           VOL     49
        BYTE           VOICE   12
        BYTE   W96
// 002   ----------------------------------------
        BYTE   W96
// 003   ----------------------------------------
        BYTE   W96
// 004   ----------------------------------------
MarowakDojo_5_4:
        BYTE   W24
        BYTE           N12     Dn5   v120
        BYTE   W12
        BYTE                   Cn5
        BYTE   W12
        BYTE                   Dn5
        BYTE   W12
        BYTE                   Cn5   v110
        BYTE   W12
        BYTE                   Dn5   v096
        BYTE   W12
        BYTE                   Cn5   v082
        BYTE   W12
        BYTE   PEND
// 005   ----------------------------------------
MarowakDojo_5_5:
        BYTE           N06     Cn5   v080
        BYTE   W06
        BYTE                   Cn5   v040
        BYTE   W90
        BYTE   PEND
// 006   ----------------------------------------
MarowakDojo_5_6:
        BYTE   W24
        BYTE           N12     Dn5   v120
        BYTE   W12
        BYTE                   Cn5
        BYTE   W12
        BYTE                   Dn5   v112
        BYTE   W12
        BYTE                   Fs5   v102
        BYTE   W12
        BYTE                   Dn5   v092
        BYTE   W12
        BYTE                   Cn5   v087
        BYTE   W12
        BYTE   PEND
// 007   ----------------------------------------
        BYTE   PATT
         POIN2  MarowakDojo_5_5
// 008   ----------------------------------------
MarowakDojo_5_8:
        BYTE   W24
        BYTE           N12     Dn5   v120
        BYTE   W12
        BYTE                   Cn5   v116
        BYTE   W12
        BYTE                   Dn5   v109
        BYTE   W12
        BYTE                   Cn5   v101
        BYTE   W12
        BYTE                   Dn5   v093
        BYTE   W12
        BYTE                   Cn5   v085
        BYTE   W12
        BYTE   PEND
// 009   ----------------------------------------
        BYTE   PATT
         POIN2  MarowakDojo_5_5
// 010   ----------------------------------------
MarowakDojo_5_10:
        BYTE   W24
        BYTE           N12     Dn5   v120
        BYTE   W12
        BYTE                   Cn5   v117
        BYTE   W12
        BYTE                   Dn5   v109
        BYTE   W12
        BYTE                   Fs5   v101
        BYTE   W12
        BYTE                   Dn5   v093
        BYTE   W12
        BYTE                   Cn5   v084
        BYTE   W12
        BYTE   PEND
// 011   ----------------------------------------
        BYTE   PATT
         POIN2  MarowakDojo_5_5
// 012   ----------------------------------------
        BYTE   W96
// 013   ----------------------------------------
        BYTE   W96
// 014   ----------------------------------------
        BYTE   W96
// 015   ----------------------------------------
        BYTE   W96
// 016   ----------------------------------------
        BYTE   W96
// 017   ----------------------------------------
        BYTE   W96
// 018   ----------------------------------------
        BYTE   W96
// 019   ----------------------------------------
        BYTE   W96
// 020   ----------------------------------------
MarowakDojo_5_20:
        BYTE   W24
        BYTE           N12     Dn5   v108
        BYTE   W12
        BYTE                   Cn5
        BYTE   W12
        BYTE                   Dn5   v103
        BYTE   W12
        BYTE                   Cn5   v099
        BYTE   W12
        BYTE                   Dn5   v094
        BYTE   W12
        BYTE                   Cn5   v089
        BYTE   W12
        BYTE   PEND
// 021   ----------------------------------------
        BYTE   PATT
         POIN2  MarowakDojo_5_5
// 022   ----------------------------------------
MarowakDojo_5_22:
        BYTE   W24
        BYTE           N12     Dn5   v112
        BYTE   W12
        BYTE                   Cn5   v111
        BYTE   W12
        BYTE                   Dn5   v106
        BYTE   W12
        BYTE                   Fs5   v100
        BYTE   W12
        BYTE                   Dn5   v094
        BYTE   W12
        BYTE                   Cn5   v088
        BYTE   W12
        BYTE   PEND
// 023   ----------------------------------------
        BYTE   PATT
         POIN2  MarowakDojo_5_5
// 024   ----------------------------------------
MarowakDojo_5_24:
        BYTE   W24
        BYTE           N12     Dn5   v110
        BYTE   W12
        BYTE                   Cn5   v112
        BYTE   W12
        BYTE                   Dn5   v107
        BYTE   W12
        BYTE                   Cn5   v102
        BYTE   W12
        BYTE                   Dn5   v096
        BYTE   W12
        BYTE                   Cn5   v091
        BYTE   W12
        BYTE   PEND
// 025   ----------------------------------------
        BYTE   PATT
         POIN2  MarowakDojo_5_5
// 026   ----------------------------------------
MarowakDojo_5_26:
        BYTE   W24
        BYTE           N12     Dn5   v110
        BYTE   W12
        BYTE                   Cn5   v109
        BYTE   W12
        BYTE                   Dn5   v103
        BYTE   W12
        BYTE                   Fs5   v097
        BYTE   W12
        BYTE                   Dn5   v090
        BYTE   W12
        BYTE                   Cn5   v084
        BYTE   W12
        BYTE   PEND
// 027   ----------------------------------------
        BYTE   W96
// 028   ----------------------------------------
MarowakDojo_5_28:
        BYTE   W24
        BYTE           N12     Dn5   v108
        BYTE   W12
        BYTE                   Cn5   v106
        BYTE   W12
        BYTE                   Dn5   v102
        BYTE   W12
        BYTE                   Cn5   v099
        BYTE   W12
        BYTE                   Dn5   v096
        BYTE   W12
        BYTE                   Cn5   v093
        BYTE   W12
        BYTE   PEND
// 029   ----------------------------------------
        BYTE   PATT
         POIN2  MarowakDojo_5_5
// 030   ----------------------------------------
MarowakDojo_5_30:
        BYTE   W24
        BYTE           N12     Dn5   v112
        BYTE   W12
        BYTE                   Cn5
        BYTE   W12
        BYTE                   Dn5   v107
        BYTE   W12
        BYTE                   Fs5   v103
        BYTE   W12
        BYTE                   Dn5   v098
        BYTE   W12
        BYTE                   Cn5   v094
        BYTE   W12
        BYTE   PEND
// 031   ----------------------------------------
        BYTE   PATT
         POIN2  MarowakDojo_5_5
// 032   ----------------------------------------
MarowakDojo_5_32:
        BYTE   W24
        BYTE           N12     Dn5   v110
        BYTE   W12
        BYTE                   Cn5   v111
        BYTE   W12
        BYTE                   Dn5   v107
        BYTE   W12
        BYTE                   Cn5   v102
        BYTE   W12
        BYTE                   Dn5   v097
        BYTE   W12
        BYTE                   Cn5   v092
        BYTE   W12
        BYTE   PEND
// 033   ----------------------------------------
        BYTE   PATT
         POIN2  MarowakDojo_5_5
// 034   ----------------------------------------
MarowakDojo_5_34:
        BYTE   W24
        BYTE           N12     Dn5   v110
        BYTE   W12
        BYTE                   Cn5   v105
        BYTE   W12
        BYTE                   Dn5   v102
        BYTE   W12
        BYTE                   Fs5   v098
        BYTE   W12
        BYTE                   Dn5   v095
        BYTE   W12
        BYTE                   Cn5   v091
        BYTE   W12
        BYTE   PEND
// 035   ----------------------------------------
        BYTE   W96
// 036   ----------------------------------------
MarowakDojo_5_36:
        BYTE   W24
        BYTE           N12     Dn5   v108
        BYTE   W12
        BYTE                   Cn5   v107
        BYTE   W12
        BYTE                   Dn5   v103
        BYTE   W12
        BYTE                   Cn5   v098
        BYTE   W12
        BYTE                   Dn5   v093
        BYTE   W12
        BYTE                   Cn5   v089
        BYTE   W12
        BYTE   PEND
// 037   ----------------------------------------
        BYTE   PATT
         POIN2  MarowakDojo_5_5
// 038   ----------------------------------------
MarowakDojo_5_38:
        BYTE   W24
        BYTE           N12     Dn5   v112
        BYTE   W12
        BYTE                   Cn5   v109
        BYTE   W12
        BYTE                   Dn5   v106
        BYTE   W12
        BYTE                   Fs5   v102
        BYTE   W12
        BYTE                   Dn5   v098
        BYTE   W12
        BYTE                   Cn5   v094
        BYTE   W12
        BYTE   PEND
// 039   ----------------------------------------
        BYTE   PATT
         POIN2  MarowakDojo_5_5
// 040   ----------------------------------------
MarowakDojo_5_40:
        BYTE   W24
        BYTE           N12     Dn5   v110
        BYTE   W12
        BYTE                   Cn5   v109
        BYTE   W12
        BYTE                   Dn5   v106
        BYTE   W12
        BYTE                   Cn5   v102
        BYTE   W12
        BYTE                   Dn5   v099
        BYTE   W12
        BYTE                   Cn5   v095
        BYTE   W12
        BYTE   PEND
// 041   ----------------------------------------
        BYTE   PATT
         POIN2  MarowakDojo_5_5
// 042   ----------------------------------------
MarowakDojo_5_42:
        BYTE   W24
        BYTE           N12     Dn5   v110
        BYTE   W12
        BYTE                   Cn5
        BYTE   W12
        BYTE                   Dn5   v108
        BYTE   W12
        BYTE                   Fs5   v106
        BYTE   W12
        BYTE                   Dn5   v104
        BYTE   W12
        BYTE                   Cn5   v103
        BYTE   W12
        BYTE   PEND
// 043   ----------------------------------------
MarowakDojo_5_43:
        BYTE           N12     Dn5   v088
        BYTE   W12
        BYTE                   Cn5   v089
        BYTE   W12
        BYTE                   Dn5   v061
        BYTE   W12
        BYTE                   Cn5   v062
        BYTE   W12
        BYTE                   Dn5   v040
        BYTE   W12
        BYTE                   Cn5   v042
        BYTE   W12
        BYTE                   Dn5   v024
        BYTE   W12
        BYTE                   Cn5
        BYTE   W12
        BYTE   PEND
// 044   ----------------------------------------
MarowakDojo_5_LOOP:
        BYTE   W96
// 045   ----------------------------------------
        BYTE   PATT
         POIN2  MarowakDojo_5_4
// 046   ----------------------------------------
        BYTE   PATT
         POIN2  MarowakDojo_5_5
// 047   ----------------------------------------
        BYTE   PATT
         POIN2  MarowakDojo_5_6
// 048   ----------------------------------------
        BYTE   PATT
         POIN2  MarowakDojo_5_5
// 049   ----------------------------------------
        BYTE   PATT
         POIN2  MarowakDojo_5_8
// 050   ----------------------------------------
        BYTE   PATT
         POIN2  MarowakDojo_5_5
// 051   ----------------------------------------
        BYTE   PATT
         POIN2  MarowakDojo_5_10
// 052   ----------------------------------------
        BYTE   PATT
         POIN2  MarowakDojo_5_5
// 053   ----------------------------------------
        BYTE   W96
// 054   ----------------------------------------
        BYTE   W96
// 055   ----------------------------------------
        BYTE   W96
// 056   ----------------------------------------
        BYTE   W96
// 057   ----------------------------------------
        BYTE   W96
// 058   ----------------------------------------
        BYTE   W96
// 059   ----------------------------------------
        BYTE   W96
// 060   ----------------------------------------
        BYTE   W96
// 061   ----------------------------------------
        BYTE   PATT
         POIN2  MarowakDojo_5_20
// 062   ----------------------------------------
        BYTE   PATT
         POIN2  MarowakDojo_5_5
// 063   ----------------------------------------
        BYTE   PATT
         POIN2  MarowakDojo_5_22
// 064   ----------------------------------------
        BYTE   PATT
         POIN2  MarowakDojo_5_5
// 065   ----------------------------------------
        BYTE   PATT
         POIN2  MarowakDojo_5_24
// 066   ----------------------------------------
        BYTE   PATT
         POIN2  MarowakDojo_5_5
// 067   ----------------------------------------
        BYTE   PATT
         POIN2  MarowakDojo_5_26
// 068   ----------------------------------------
        BYTE   W96
// 069   ----------------------------------------
        BYTE   PATT
         POIN2  MarowakDojo_5_28
// 070   ----------------------------------------
        BYTE   PATT
         POIN2  MarowakDojo_5_5
// 071   ----------------------------------------
        BYTE   PATT
         POIN2  MarowakDojo_5_30
// 072   ----------------------------------------
        BYTE   PATT
         POIN2  MarowakDojo_5_5
// 073   ----------------------------------------
        BYTE   PATT
         POIN2  MarowakDojo_5_32
// 074   ----------------------------------------
        BYTE   PATT
         POIN2  MarowakDojo_5_5
// 075   ----------------------------------------
        BYTE   PATT
         POIN2  MarowakDojo_5_34
// 076   ----------------------------------------
        BYTE   W96
// 077   ----------------------------------------
        BYTE   PATT
         POIN2  MarowakDojo_5_36
// 078   ----------------------------------------
        BYTE   PATT
         POIN2  MarowakDojo_5_5
// 079   ----------------------------------------
        BYTE   PATT
         POIN2  MarowakDojo_5_38
// 080   ----------------------------------------
        BYTE   PATT
         POIN2  MarowakDojo_5_5
// 081   ----------------------------------------
        BYTE   PATT
         POIN2  MarowakDojo_5_40
// 082   ----------------------------------------
        BYTE   PATT
         POIN2  MarowakDojo_5_5
// 083   ----------------------------------------
        BYTE   PATT
         POIN2  MarowakDojo_5_42
// 084   ----------------------------------------
        BYTE   PATT
         POIN2  MarowakDojo_5_43
// 085   ----------------------------------------
        BYTE   GoTo
         POIN2  MarowakDojo_5_LOOP
        BYTE   FINE

//****************** Track 6 (Midi-Chn.6) ******************//

MarowakDojo_6:
        BYTE   KEYSH   MarowakDojo_key+0
// 000   ----------------------------------------
        BYTE   W24
// 001   ----------------------------------------
        BYTE           VOL     62
        BYTE           VOICE   6
        BYTE   W96
// 002   ----------------------------------------
        BYTE   W48
        BYTE   W01
        BYTE           N03     En3   v127
        BYTE   W06
        BYTE                   Fn3
        BYTE   W06
        BYTE                   Bn2
        BYTE   W06
        BYTE                   Cn3
        BYTE   W06
        BYTE                   En2
        BYTE   W12
        BYTE                   Fn2
        BYTE   W11
// 003   ----------------------------------------
        BYTE   W96
// 004   ----------------------------------------
        BYTE   W96
// 005   ----------------------------------------
        BYTE   W96
// 006   ----------------------------------------
        BYTE   W96
// 007   ----------------------------------------
        BYTE   W96
// 008   ----------------------------------------
        BYTE   W96
// 009   ----------------------------------------
        BYTE   W96
// 010   ----------------------------------------
        BYTE   W96
// 011   ----------------------------------------
MarowakDojo_6_11:
        BYTE   W12
        BYTE           N12     Bn3   v080
        BYTE   W12
        BYTE                   En3
        BYTE   W12
        BYTE                   Fs3
        BYTE   W12
        BYTE                   Cs3
        BYTE   W12
        BYTE           N24     Bn2
        BYTE   W24
        BYTE           N12     Bn3
        BYTE   W12
        BYTE   PEND
// 012   ----------------------------------------
MarowakDojo_6_12:
        BYTE           N12     En3   v080
        BYTE   W12
        BYTE                   Fs3
        BYTE   W12
        BYTE                   Cs3
        BYTE   W12
        BYTE           N72     Bn2
        BYTE   W60
        BYTE   PEND
// 013   ----------------------------------------
        BYTE   PATT
         POIN2  MarowakDojo_6_11
// 014   ----------------------------------------
MarowakDojo_6_14:
        BYTE           N12     En3   v080
        BYTE   W12
        BYTE                   Fs3
        BYTE   W12
        BYTE                   Cs4
        BYTE   W12
        BYTE           N72     Bn3
        BYTE   W60
        BYTE   PEND
// 015   ----------------------------------------
        BYTE   PATT
         POIN2  MarowakDojo_6_11
// 016   ----------------------------------------
        BYTE   PATT
         POIN2  MarowakDojo_6_12
// 017   ----------------------------------------
        BYTE   PATT
         POIN2  MarowakDojo_6_11
// 018   ----------------------------------------
MarowakDojo_6_18:
        BYTE           N12     En3   v080
        BYTE   W12
        BYTE                   Fs3
        BYTE   W12
        BYTE                   Cs4
        BYTE   W12
        BYTE           N60     Bn3
        BYTE   W60
        BYTE   PEND
// 019   ----------------------------------------
MarowakDojo_6_19:
        BYTE           N24     En3   v080
        BYTE   W24
        BYTE                   Bn2
        BYTE   W24
        BYTE                   An2
        BYTE   W24
        BYTE           N12     Cs3
        BYTE   W12
        BYTE           TIE     Bn2
        BYTE   W12
        BYTE   PEND
// 020   ----------------------------------------
        BYTE   W96
// 021   ----------------------------------------
MarowakDojo_6_21:
        BYTE   W23
        BYTE           BEND    c_v-23
        BYTE   W01
        BYTE           EOT     Bn2
        BYTE           N24     En3   v080
        BYTE   W04
        BYTE           BEND    c_v-20
        BYTE   W01
        BYTE                   c_v-16
        BYTE   W01
        BYTE                   c_v-12
        BYTE   W01
        BYTE                   c_v-8
        BYTE   W01
        BYTE                   c_v+0
        BYTE   W16
        BYTE           N12     Bn2
        BYTE   W12
        BYTE                   An2
        BYTE   W12
        BYTE                   Cs3
        BYTE   W12
        BYTE           TIE     Bn2
        BYTE   W12
        BYTE   PEND
// 022   ----------------------------------------
        BYTE   W96
// 023   ----------------------------------------
MarowakDojo_6_23:
        BYTE           EOT     Bn2
        BYTE           N24     En3   v080
        BYTE   W24
        BYTE                   Bn2
        BYTE   W24
        BYTE                   An2
        BYTE   W24
        BYTE           N12     Cs3
        BYTE   W12
        BYTE           TIE     Bn2
        BYTE   W12
        BYTE   PEND
// 024   ----------------------------------------
        BYTE   W96
// 025   ----------------------------------------
        BYTE   PATT
         POIN2  MarowakDojo_6_21
// 026   ----------------------------------------
        BYTE   W96
// 027   ----------------------------------------
        BYTE   W48
        BYTE   W01
        BYTE           EOT     Bn2
        BYTE   W44
        BYTE   W03
// 028   ----------------------------------------
        BYTE   W96
// 029   ----------------------------------------
        BYTE   W96
// 030   ----------------------------------------
        BYTE   W96
// 031   ----------------------------------------
        BYTE   W96
// 032   ----------------------------------------
        BYTE   W96
// 033   ----------------------------------------
        BYTE   W96
// 034   ----------------------------------------
        BYTE   W96
// 035   ----------------------------------------
        BYTE   W96
// 036   ----------------------------------------
        BYTE   W96
// 037   ----------------------------------------
        BYTE   W96
// 038   ----------------------------------------
        BYTE   W96
// 039   ----------------------------------------
        BYTE   W96
// 040   ----------------------------------------
        BYTE   W96
// 041   ----------------------------------------
        BYTE   W96
// 042   ----------------------------------------
        BYTE   W96
// 043   ----------------------------------------
        BYTE   W96
// 044   ----------------------------------------
MarowakDojo_6_LOOP:
        BYTE   W96
// 045   ----------------------------------------
        BYTE   W96
// 046   ----------------------------------------
        BYTE   W96
// 047   ----------------------------------------
        BYTE   W96
// 048   ----------------------------------------
        BYTE   W96
// 049   ----------------------------------------
        BYTE   W96
// 050   ----------------------------------------
        BYTE   W96
// 051   ----------------------------------------
        BYTE   W96
// 052   ----------------------------------------
        BYTE   PATT
         POIN2  MarowakDojo_6_11
// 053   ----------------------------------------
        BYTE   PATT
         POIN2  MarowakDojo_6_12
// 054   ----------------------------------------
        BYTE   PATT
         POIN2  MarowakDojo_6_11
// 055   ----------------------------------------
        BYTE   PATT
         POIN2  MarowakDojo_6_14
// 056   ----------------------------------------
        BYTE   PATT
         POIN2  MarowakDojo_6_11
// 057   ----------------------------------------
        BYTE   PATT
         POIN2  MarowakDojo_6_12
// 058   ----------------------------------------
        BYTE   PATT
         POIN2  MarowakDojo_6_11
// 059   ----------------------------------------
        BYTE   PATT
         POIN2  MarowakDojo_6_18
// 060   ----------------------------------------
        BYTE   PATT
         POIN2  MarowakDojo_6_19
// 061   ----------------------------------------
        BYTE   W96
// 062   ----------------------------------------
        BYTE   PATT
         POIN2  MarowakDojo_6_21
// 063   ----------------------------------------
        BYTE   W96
// 064   ----------------------------------------
        BYTE   PATT
         POIN2  MarowakDojo_6_23
// 065   ----------------------------------------
        BYTE   W96
// 066   ----------------------------------------
        BYTE   PATT
         POIN2  MarowakDojo_6_21
// 067   ----------------------------------------
        BYTE   W96
// 068   ----------------------------------------
        BYTE   W48
        BYTE   W01
        BYTE           EOT     Bn2
        BYTE   W44
        BYTE   W03
// 069   ----------------------------------------
        BYTE   W96
// 070   ----------------------------------------
        BYTE   W96
// 071   ----------------------------------------
        BYTE   W96
// 072   ----------------------------------------
        BYTE   W96
// 073   ----------------------------------------
        BYTE   W96
// 074   ----------------------------------------
        BYTE   W96
// 075   ----------------------------------------
        BYTE   W96
// 076   ----------------------------------------
        BYTE   W96
// 077   ----------------------------------------
        BYTE   W96
// 078   ----------------------------------------
        BYTE   W96
// 079   ----------------------------------------
        BYTE   W96
// 080   ----------------------------------------
        BYTE   W96
// 081   ----------------------------------------
        BYTE   W96
// 082   ----------------------------------------
        BYTE   W96
// 083   ----------------------------------------
        BYTE   W96
// 084   ----------------------------------------
        BYTE   W96
// 085   ----------------------------------------
        BYTE   GoTo
         POIN2  MarowakDojo_6_LOOP
        BYTE   FINE

//****************** Track 7 (Midi-Chn.7) ******************//

MarowakDojo_7:
        BYTE   KEYSH   MarowakDojo_key+0
// 000   ----------------------------------------
        BYTE           VOICE   73
        BYTE   W24
// 001   ----------------------------------------
        BYTE           VOL     78
        BYTE   W96
// 002   ----------------------------------------
        BYTE           PAN     c_v-1
        BYTE           N03     En5   v127
        BYTE           N03     Gs4   v090
        BYTE   W06
        BYTE                   Fn5   v127
        BYTE           N03     An4   v090
        BYTE   W06
        BYTE           N02     An4   v050
        BYTE   W02
        BYTE                   Fn5   v070
        BYTE   W04
        BYTE           PAN     c_v+21
        BYTE           N03     Bn4   v127
        BYTE           N03     Ds4   v090
        BYTE   W06
        BYTE                   Cn5   v127
        BYTE           N03     En4   v090
        BYTE   W06
        BYTE           N02     En4   v050
        BYTE   W02
        BYTE                   Cn5   v070
        BYTE   W04
        BYTE           PAN     c_v-25
        BYTE           N03     En4   v127
        BYTE           N03     Gs3   v090
        BYTE   W06
        BYTE                   Fn4   v127
        BYTE           N03     An3   v090
        BYTE   W05
        BYTE           MOD     80
        BYTE   W01
        BYTE           PAN     c_v+23
        BYTE           N03     Gs4   v127
        BYTE           N03     En4   v090
        BYTE   W06
        BYTE                   An4   v127
        BYTE           N03     Fn4   v090
        BYTE   W06
        BYTE           PAN     c_v-25
        BYTE           N03     Ds4   v127
        BYTE           N03     Bn3   v090
        BYTE   W06
        BYTE                   En4   v127
        BYTE           N03     Cn4   v090
        BYTE   W06
        BYTE           PAN     c_v+21
        BYTE           N03     En3
        BYTE   W01
        BYTE                   Gs3   v127
        BYTE   W05
        BYTE                   En3   v050
        BYTE   W01
        BYTE                   Gs3   v070
        BYTE   W02
        BYTE           PAN     c_v-27
        BYTE   W03
        BYTE           N03     Fn3   v090
        BYTE   W01
        BYTE                   An3   v127
        BYTE   W05
        BYTE                   Fn3   v050
        BYTE   W01
        BYTE                   An3   v070
        BYTE   W05
// 003   ----------------------------------------
        BYTE           PAN     c_v+0
        BYTE   W96
// 004   ----------------------------------------
        BYTE   W96
// 005   ----------------------------------------
        BYTE   W96
// 006   ----------------------------------------
        BYTE   W96
// 007   ----------------------------------------
        BYTE   W96
// 008   ----------------------------------------
        BYTE   W96
// 009   ----------------------------------------
        BYTE   W96
// 010   ----------------------------------------
        BYTE   W96
// 011   ----------------------------------------
        BYTE   W96
// 012   ----------------------------------------
MarowakDojo_7_12:
        BYTE   W44
        BYTE   W03
        BYTE           MOD     100
        BYTE   W01
        BYTE           N02     Fn2   v127
        BYTE   W02
        BYTE                   En3   v110
        BYTE   W02
        BYTE                   En2   v090
        BYTE   W02
        BYTE                   Bn2   v127
        BYTE   W02
        BYTE                   Bn3   v110
        BYTE   W02
        BYTE                   Bn2   v090
        BYTE   W02
        BYTE                   Fs3   v127
        BYTE   W02
        BYTE                   Fs4   v110
        BYTE   W02
        BYTE                   Fs3   v090
        BYTE   W02
        BYTE                   Cs4   v127
        BYTE   W02
        BYTE                   Cs5   v110
        BYTE   W02
        BYTE                   Cs4   v090
        BYTE   W02
        BYTE                   Gs4   v127
        BYTE   W02
        BYTE                   Gs5   v110
        BYTE   W02
        BYTE                   Gs4   v090
        BYTE   W20
        BYTE   PEND
// 013   ----------------------------------------
        BYTE   W96
// 014   ----------------------------------------
MarowakDojo_7_14:
        BYTE   W48
        BYTE           N03     Gs4   v127
        BYTE           N03     En4   v090
        BYTE   W06
        BYTE                   An4   v127
        BYTE           N03     Fn4   v090
        BYTE   W06
        BYTE                   Ds4   v127
        BYTE           N03     Bn3   v090
        BYTE   W06
        BYTE                   En4   v127
        BYTE           N03     Cn4   v090
        BYTE   W06
        BYTE                   En3
        BYTE   W01
        BYTE                   Gs3   v127
        BYTE   W11
        BYTE                   Fn3   v090
        BYTE   W01
        BYTE                   An3   v127
        BYTE   W11
        BYTE   PEND
// 015   ----------------------------------------
        BYTE   W96
// 016   ----------------------------------------
MarowakDojo_7_16:
        BYTE   W48
        BYTE           N02     En2   v127
        BYTE   W02
        BYTE                   En3   v110
        BYTE   W02
        BYTE                   En2   v090
        BYTE   W02
        BYTE                   Bn2   v127
        BYTE   W02
        BYTE                   Bn3   v110
        BYTE   W02
        BYTE                   Bn2   v090
        BYTE   W02
        BYTE                   Fs3   v127
        BYTE   W02
        BYTE                   Fs4   v110
        BYTE   W02
        BYTE                   Fs3   v090
        BYTE   W02
        BYTE                   Cs4   v127
        BYTE   W02
        BYTE                   Cs5   v110
        BYTE   W02
        BYTE                   Cs4   v090
        BYTE   W02
        BYTE                   Gs4   v127
        BYTE   W02
        BYTE                   Gs5   v110
        BYTE   W02
        BYTE                   Gs4   v090
        BYTE   W20
        BYTE   PEND
// 017   ----------------------------------------
        BYTE   W96
// 018   ----------------------------------------
MarowakDojo_7_18:
        BYTE   W48
        BYTE           N03     Gs4   v127
        BYTE           N03     En4   v090
        BYTE   W06
        BYTE                   An4   v127
        BYTE           N03     Fn4   v090
        BYTE   W06
        BYTE                   Ds4   v127
        BYTE           N03     Bn3   v090
        BYTE   W06
        BYTE                   En4   v127
        BYTE           N03     Cn4   v090
        BYTE   W06
        BYTE                   En3
        BYTE   W01
        BYTE                   Gs3   v127
        BYTE   W11
        BYTE                   Fn3   v090
        BYTE   W01
        BYTE                   An3   v127
        BYTE   W10
        BYTE           MOD     40
        BYTE   W01
        BYTE   PEND
// 019   ----------------------------------------
MarowakDojo_7_19:
        BYTE           N02     En4   v127
        BYTE   W04
        BYTE                   En4   v090
        BYTE   W20
        BYTE                   Bn3   v127
        BYTE   W04
        BYTE                   Bn3   v090
        BYTE   W20
        BYTE                   An3   v127
        BYTE   W04
        BYTE                   An3   v090
        BYTE   W20
        BYTE                   Cs4   v127
        BYTE   W04
        BYTE                   Cs4   v090
        BYTE   W08
        BYTE                   Bn3   v127
        BYTE   W04
        BYTE                   Bn3   v090
        BYTE   W08
        BYTE   PEND
// 020   ----------------------------------------
        BYTE   W96
// 021   ----------------------------------------
MarowakDojo_7_21:
        BYTE   W24
        BYTE           N02     En4   v127
        BYTE   W04
        BYTE                   En4   v090
        BYTE   W20
        BYTE                   Bn3   v127
        BYTE   W04
        BYTE                   Bn3   v090
        BYTE   W08
        BYTE                   An3   v127
        BYTE   W04
        BYTE                   An3   v090
        BYTE   W08
        BYTE                   Cs4   v127
        BYTE   W04
        BYTE                   Cs4   v090
        BYTE   W08
        BYTE                   Bn3   v127
        BYTE   W04
        BYTE                   Bn3   v090
        BYTE   W08
        BYTE   PEND
// 022   ----------------------------------------
        BYTE   W96
// 023   ----------------------------------------
        BYTE   PATT
         POIN2  MarowakDojo_7_19
// 024   ----------------------------------------
        BYTE   W96
// 025   ----------------------------------------
        BYTE   PATT
         POIN2  MarowakDojo_7_21
// 026   ----------------------------------------
        BYTE   W96
// 027   ----------------------------------------
        BYTE   W96
// 028   ----------------------------------------
        BYTE   W96
// 029   ----------------------------------------
        BYTE   W96
// 030   ----------------------------------------
        BYTE   W96
// 031   ----------------------------------------
        BYTE   W96
// 032   ----------------------------------------
        BYTE   W96
// 033   ----------------------------------------
        BYTE   W96
// 034   ----------------------------------------
        BYTE   W96
// 035   ----------------------------------------
        BYTE   W96
// 036   ----------------------------------------
        BYTE   W96
// 037   ----------------------------------------
        BYTE   W96
// 038   ----------------------------------------
        BYTE   W96
// 039   ----------------------------------------
        BYTE   W96
// 040   ----------------------------------------
        BYTE   W96
// 041   ----------------------------------------
        BYTE   W96
// 042   ----------------------------------------
        BYTE   W96
// 043   ----------------------------------------
        BYTE   W96
// 044   ----------------------------------------
MarowakDojo_7_LOOP:
        BYTE   W96
// 045   ----------------------------------------
        BYTE   W96
// 046   ----------------------------------------
        BYTE   W96
// 047   ----------------------------------------
        BYTE   W96
// 048   ----------------------------------------
        BYTE   W96
// 049   ----------------------------------------
        BYTE   W96
// 050   ----------------------------------------
        BYTE   W96
// 051   ----------------------------------------
        BYTE   W96
// 052   ----------------------------------------
        BYTE   W96
// 053   ----------------------------------------
        BYTE   PATT
         POIN2  MarowakDojo_7_12
// 054   ----------------------------------------
        BYTE   W96
// 055   ----------------------------------------
        BYTE   PATT
         POIN2  MarowakDojo_7_14
// 056   ----------------------------------------
        BYTE   W96
// 057   ----------------------------------------
        BYTE   PATT
         POIN2  MarowakDojo_7_16
// 058   ----------------------------------------
        BYTE   W96
// 059   ----------------------------------------
        BYTE   PATT
         POIN2  MarowakDojo_7_18
// 060   ----------------------------------------
        BYTE   PATT
         POIN2  MarowakDojo_7_19
// 061   ----------------------------------------
        BYTE   W96
// 062   ----------------------------------------
        BYTE   PATT
         POIN2  MarowakDojo_7_21
// 063   ----------------------------------------
        BYTE   W96
// 064   ----------------------------------------
        BYTE   PATT
         POIN2  MarowakDojo_7_19
// 065   ----------------------------------------
        BYTE   W96
// 066   ----------------------------------------
        BYTE   PATT
         POIN2  MarowakDojo_7_21
// 067   ----------------------------------------
        BYTE   W96
// 068   ----------------------------------------
        BYTE   W96
// 069   ----------------------------------------
        BYTE   W96
// 070   ----------------------------------------
        BYTE   W96
// 071   ----------------------------------------
        BYTE   W96
// 072   ----------------------------------------
        BYTE   W96
// 073   ----------------------------------------
        BYTE   W96
// 074   ----------------------------------------
        BYTE   W96
// 075   ----------------------------------------
        BYTE   W96
// 076   ----------------------------------------
        BYTE   W96
// 077   ----------------------------------------
        BYTE   W96
// 078   ----------------------------------------
        BYTE   W96
// 079   ----------------------------------------
        BYTE   W96
// 080   ----------------------------------------
        BYTE   W96
// 081   ----------------------------------------
        BYTE   W96
// 082   ----------------------------------------
        BYTE   W96
// 083   ----------------------------------------
        BYTE   W96
// 084   ----------------------------------------
        BYTE   W96
// 085   ----------------------------------------
        BYTE   GoTo
         POIN2  MarowakDojo_7_LOOP
        BYTE   FINE

//****************** Track 8 (Midi-Chn.8) ******************//

MarowakDojo_8:
        BYTE   KEYSH   MarowakDojo_key+0
// 000   ----------------------------------------
        BYTE           VOICE   4
        BYTE   W24
// 001   ----------------------------------------
        BYTE           PAN     c_v-34
        BYTE           VOL     43
        BYTE   W96
// 002   ----------------------------------------
        BYTE           N03     Gs4   v080
        BYTE   W03
        BYTE                   En5   v100
        BYTE   W03
        BYTE                   An4   v080
        BYTE   W03
        BYTE                   Fn5   v100
        BYTE   W04
        BYTE           N02     An4   v040
        BYTE   W03
        BYTE                   Fn5   v060
        BYTE   W01
        BYTE           PAN     c_v-36
        BYTE   W01
        BYTE           N03     Ds4   v080
        BYTE   W03
        BYTE                   Bn4   v100
        BYTE   W03
        BYTE                   En4   v080
        BYTE   W03
        BYTE                   Cn5   v100
        BYTE   W04
        BYTE           N02     En4   v040
        BYTE   W03
        BYTE                   Cn5   v060
        BYTE   W01
        BYTE           PAN     c_v+36
        BYTE   W01
        BYTE           N03     Gs3   v080
        BYTE   W03
        BYTE                   En4   v100
        BYTE   W03
        BYTE                   An3   v060
        BYTE   W03
        BYTE                   Fn4   v080
        BYTE   W01
        BYTE           PAN     c_v+0
        BYTE   W01
        BYTE           MOD     10
        BYTE   W01
        BYTE           N02     En5   v100
        BYTE   W03
        BYTE           N03     Gs4   v080
        BYTE   W03
        BYTE           N02     Fn5   v100
        BYTE   W03
        BYTE           N03     An4   v080
        BYTE   W03
        BYTE           N02     Bn4   v100
        BYTE   W03
        BYTE           N03     Ds4   v080
        BYTE   W03
        BYTE           N02     Cn5   v100
        BYTE   W03
        BYTE           N03     En4   v080
        BYTE   W03
        BYTE                   Gs3
        BYTE   W03
        BYTE           N02     En4   v100
        BYTE   W03
        BYTE           N03     Gs3   v040
        BYTE   W03
        BYTE           N02     En4   v060
        BYTE   W03
        BYTE           N03     An3   v080
        BYTE   W03
        BYTE           N02     Fn4   v100
        BYTE   W03
        BYTE           N03     An3   v040
        BYTE   W03
        BYTE           N02     Fn4   v060
        BYTE   W03
// 003   ----------------------------------------
        BYTE                   En4   v120
        BYTE   W02
        BYTE                   Gs4   v110
        BYTE   W02
        BYTE                   Bn4   v100
        BYTE   W02
        BYTE                   En5   v080
        BYTE   W08
        BYTE                   En4   v060
        BYTE   W02
        BYTE                   Gs4
        BYTE   W02
        BYTE                   Bn4
        BYTE   W02
        BYTE                   En5
        BYTE   W06
        BYTE                   En4   v040
        BYTE   W02
        BYTE                   Gs4
        BYTE   W02
        BYTE                   Bn4
        BYTE   W02
        BYTE                   En5
        BYTE   W06
        BYTE                   En4
        BYTE   W02
        BYTE                   Gs4
        BYTE   W02
        BYTE                   Bn4
        BYTE   W02
        BYTE                   En5
        BYTE   W52
// 004   ----------------------------------------
        BYTE   W96
// 005   ----------------------------------------
        BYTE   W96
// 006   ----------------------------------------
        BYTE   W96
// 007   ----------------------------------------
        BYTE   W96
// 008   ----------------------------------------
        BYTE   W96
// 009   ----------------------------------------
        BYTE   W96
// 010   ----------------------------------------
        BYTE   W96
// 011   ----------------------------------------
        BYTE   W96
// 012   ----------------------------------------
        BYTE   W96
// 013   ----------------------------------------
        BYTE   W96
// 014   ----------------------------------------
MarowakDojo_8_14:
        BYTE   W24
        BYTE           PAN     c_v+27
        BYTE   W24
        BYTE           N03     Gs5   v100
        BYTE   W03
        BYTE           N02     Gs4   v080
        BYTE   W03
        BYTE           N03     An5   v100
        BYTE   W03
        BYTE           N02     An4   v080
        BYTE   W03
        BYTE           N03     Ds5   v100
        BYTE   W03
        BYTE           N02     Ds4   v080
        BYTE   W03
        BYTE           N03     En5   v100
        BYTE   W03
        BYTE           N02     En4   v080
        BYTE   W03
        BYTE           N03     Gs4   v100
        BYTE   W03
        BYTE           N02     Gs3   v080
        BYTE   W03
        BYTE           N03     Gs4   v060
        BYTE   W03
        BYTE           N02     Gs3
        BYTE   W03
        BYTE           N03     An4   v100
        BYTE   W03
        BYTE           N02     An3   v080
        BYTE   W03
        BYTE           N03     An4   v040
        BYTE   W03
        BYTE           N02     An3
        BYTE   W03
        BYTE   PEND
// 015   ----------------------------------------
        BYTE   W96
// 016   ----------------------------------------
        BYTE   W96
// 017   ----------------------------------------
        BYTE   W96
// 018   ----------------------------------------
        BYTE   W48
        BYTE           N03     Gs6   v100
        BYTE   W03
        BYTE           N02     Gs5   v080
        BYTE   W03
        BYTE           N03     An6   v100
        BYTE   W03
        BYTE           N02     An5   v080
        BYTE   W03
        BYTE           N03     Ds6   v100
        BYTE   W03
        BYTE           N02     Ds5   v080
        BYTE   W03
        BYTE           N03     En6   v100
        BYTE   W03
        BYTE           N02     En5   v080
        BYTE   W03
        BYTE           N03     Gs5   v100
        BYTE   W03
        BYTE           N02     Gs4   v080
        BYTE   W03
        BYTE           N03     Gs5   v060
        BYTE   W03
        BYTE           N02     Gs4
        BYTE   W03
        BYTE           N03     An5   v100
        BYTE   W03
        BYTE           N02     An4   v080
        BYTE   W03
        BYTE           N03     An5   v040
        BYTE   W03
        BYTE           N02     An4
        BYTE   W02
        BYTE           MOD     12
        BYTE   W01
// 019   ----------------------------------------
MarowakDojo_8_19:
        BYTE           PAN     c_v-38
        BYTE           N02     En4   v120
        BYTE   W02
        BYTE                   En5   v100
        BYTE   W22
        BYTE           PAN     c_v+28
        BYTE           N02     Bn3   v120
        BYTE   W02
        BYTE                   Bn4   v100
        BYTE   W22
        BYTE           PAN     c_v-38
        BYTE           N02     An3   v120
        BYTE   W02
        BYTE                   An4   v100
        BYTE   W22
        BYTE           PAN     c_v+35
        BYTE           N02     Cs4   v120
        BYTE   W02
        BYTE                   Cs5   v100
        BYTE   W10
        BYTE           PAN     c_v-40
        BYTE           N02     Bn3   v120
        BYTE   W02
        BYTE                   Bn4   v100
        BYTE   W10
        BYTE   PEND
// 020   ----------------------------------------
        BYTE   W96
// 021   ----------------------------------------
        BYTE   W96
// 022   ----------------------------------------
        BYTE   W96
// 023   ----------------------------------------
MarowakDojo_8_23:
        BYTE           PAN     c_v+40
        BYTE           N02     En4   v120
        BYTE   W02
        BYTE                   En5   v100
        BYTE   W22
        BYTE           PAN     c_v-42
        BYTE           N02     Bn3   v120
        BYTE   W02
        BYTE                   Bn4   v100
        BYTE   W22
        BYTE           PAN     c_v+29
        BYTE           N02     An3   v120
        BYTE   W02
        BYTE                   An4   v100
        BYTE   W22
        BYTE           PAN     c_v-42
        BYTE           N02     Cs4   v120
        BYTE   W02
        BYTE                   Cs5   v100
        BYTE   W10
        BYTE           PAN     c_v+30
        BYTE           N02     Bn3   v120
        BYTE   W02
        BYTE                   Bn4   v100
        BYTE   W10
        BYTE   PEND
// 024   ----------------------------------------
        BYTE   W96
// 025   ----------------------------------------
        BYTE   W96
// 026   ----------------------------------------
        BYTE   W96
// 027   ----------------------------------------
MarowakDojo_8_27:
        BYTE           PAN     c_v-33
        BYTE           N02     En5   v120
        BYTE   W02
        BYTE                   Gs5   v110
        BYTE   W02
        BYTE                   Bn5   v100
        BYTE   W02
        BYTE                   En6   v080
        BYTE   W08
        BYTE           PAN     c_v-13
        BYTE           N02     En5   v060
        BYTE   W02
        BYTE                   Gs5
        BYTE   W02
        BYTE                   Bn5
        BYTE   W02
        BYTE                   En6
        BYTE   W06
        BYTE           PAN     c_v+5
        BYTE           N02     En5   v040
        BYTE   W02
        BYTE                   Gs5
        BYTE   W02
        BYTE                   Bn5
        BYTE   W02
        BYTE                   En6
        BYTE   W06
        BYTE           PAN     c_v+17
        BYTE           N02     En5
        BYTE   W02
        BYTE                   Gs5
        BYTE   W02
        BYTE                   Bn5
        BYTE   W02
        BYTE                   En6
        BYTE   W52
        BYTE   PEND
// 028   ----------------------------------------
        BYTE   W96
// 029   ----------------------------------------
        BYTE   W96
// 030   ----------------------------------------
        BYTE   W96
// 031   ----------------------------------------
MarowakDojo_8_31:
        BYTE           N02     En5   v120
        BYTE   W02
        BYTE                   Gs5   v110
        BYTE   W02
        BYTE                   Bn5   v100
        BYTE   W02
        BYTE                   En6   v080
        BYTE   W10
        BYTE                   En5   v040
        BYTE   W02
        BYTE                   Gs5
        BYTE   W02
        BYTE                   Bn5
        BYTE   W02
        BYTE                   En6
        BYTE   W10
        BYTE                   En5
        BYTE   W02
        BYTE                   Gs5
        BYTE   W02
        BYTE                   Bn5
        BYTE   W02
        BYTE                   En6
        BYTE   W10
        BYTE                   En5   v041
        BYTE   W02
        BYTE                   Gs5
        BYTE   W02
        BYTE                   Bn5
        BYTE   W02
        BYTE                   En6
        BYTE   W10
        BYTE                   En5
        BYTE   W02
        BYTE                   Gs5
        BYTE   W02
        BYTE                   Bn5
        BYTE   W02
        BYTE                   En6   v042
        BYTE   W10
        BYTE                   En5
        BYTE   W02
        BYTE                   Gs5
        BYTE   W02
        BYTE                   Bn5
        BYTE   W02
        BYTE                   En6
        BYTE   W10
        BYTE   PEND
// 032   ----------------------------------------
MarowakDojo_8_32:
        BYTE           N02     En5   v043
        BYTE   W02
        BYTE                   Gs5
        BYTE   W02
        BYTE                   Bn5
        BYTE   W02
        BYTE                   En6
        BYTE   W10
        BYTE                   En5   v044
        BYTE   W02
        BYTE                   Gs5
        BYTE   W02
        BYTE                   Bn5
        BYTE   W02
        BYTE                   En6
        BYTE   W10
        BYTE                   En5   v045
        BYTE   W02
        BYTE                   Gs5
        BYTE   W02
        BYTE                   Bn5
        BYTE   W02
        BYTE                   En6   v046
        BYTE   W10
        BYTE                   En5   v047
        BYTE   W02
        BYTE                   Gs5
        BYTE   W02
        BYTE                   Bn5
        BYTE   W02
        BYTE                   En6
        BYTE   W10
        BYTE                   En5   v048
        BYTE   W02
        BYTE                   Gs5   v049
        BYTE   W02
        BYTE                   Bn5
        BYTE   W02
        BYTE                   En6
        BYTE   W10
        BYTE                   En5   v050
        BYTE   W02
        BYTE                   Gs5
        BYTE   W02
        BYTE                   Bn5   v051
        BYTE   W02
        BYTE                   En6
        BYTE   W10
        BYTE   PEND
// 033   ----------------------------------------
MarowakDojo_8_33:
        BYTE           N02     En5   v052
        BYTE   W02
        BYTE                   Gs5
        BYTE   W02
        BYTE                   Bn5   v053
        BYTE   W02
        BYTE                   En6
        BYTE   W10
        BYTE                   En5   v054
        BYTE   W02
        BYTE                   Gs5   v055
        BYTE   W02
        BYTE                   Bn5
        BYTE   W02
        BYTE                   En6
        BYTE   W10
        BYTE                   En5   v056
        BYTE   W02
        BYTE                   Gs5   v057
        BYTE   W02
        BYTE                   Bn5
        BYTE   W02
        BYTE                   En6
        BYTE   W10
        BYTE                   En5   v059
        BYTE   W02
        BYTE                   Gs5
        BYTE   W02
        BYTE                   Bn5   v060
        BYTE   W02
        BYTE                   En6
        BYTE   W10
        BYTE                   En5   v062
        BYTE   W02
        BYTE                   Gs5
        BYTE   W02
        BYTE                   Bn5
        BYTE   W02
        BYTE                   En6   v063
        BYTE   W10
        BYTE                   En5   v065
        BYTE   W02
        BYTE                   Gs5
        BYTE   W02
        BYTE                   Bn5
        BYTE   W02
        BYTE                   En6   v066
        BYTE   W10
        BYTE   PEND
// 034   ----------------------------------------
MarowakDojo_8_34:
        BYTE           N02     En5   v068
        BYTE   W02
        BYTE                   Gs5
        BYTE   W02
        BYTE                   Bn5
        BYTE   W02
        BYTE                   En6   v069
        BYTE   W10
        BYTE                   En5   v071
        BYTE   W02
        BYTE                   Gs5
        BYTE   W02
        BYTE                   Bn5
        BYTE   W02
        BYTE                   En6   v072
        BYTE   W10
        BYTE                   En5   v074
        BYTE   W02
        BYTE                   Gs5
        BYTE   W02
        BYTE                   Bn5   v075
        BYTE   W02
        BYTE                   En6
        BYTE   W10
        BYTE                   En5   v078
        BYTE   W02
        BYTE                   Gs5
        BYTE   W02
        BYTE                   Bn5   v079
        BYTE   W02
        BYTE                   En6
        BYTE   W10
        BYTE                   En5   v081
        BYTE   W02
        BYTE                   Gs5   v082
        BYTE   W02
        BYTE                   Bn5
        BYTE   W02
        BYTE                   En6   v083
        BYTE   W10
        BYTE                   En5   v085
        BYTE   W02
        BYTE                   Gs5   v086
        BYTE   W02
        BYTE                   Bn5
        BYTE   W02
        BYTE                   En6   v087
        BYTE   W10
        BYTE   PEND
// 035   ----------------------------------------
MarowakDojo_8_35:
        BYTE           N02     En5   v120
        BYTE   W02
        BYTE                   Gs5   v110
        BYTE   W02
        BYTE                   Bn5   v100
        BYTE   W02
        BYTE                   En6   v080
        BYTE   W08
        BYTE                   En5   v060
        BYTE   W02
        BYTE                   Gs5
        BYTE   W02
        BYTE                   Bn5
        BYTE   W02
        BYTE                   En6
        BYTE   W06
        BYTE                   En5   v040
        BYTE   W02
        BYTE                   Gs5
        BYTE   W02
        BYTE                   Bn5
        BYTE   W02
        BYTE                   En6
        BYTE   W06
        BYTE                   En5
        BYTE   W02
        BYTE                   Gs5
        BYTE   W02
        BYTE                   Bn5
        BYTE   W02
        BYTE                   En6
        BYTE   W52
        BYTE   PEND
// 036   ----------------------------------------
        BYTE   W96
// 037   ----------------------------------------
        BYTE   W96
// 038   ----------------------------------------
        BYTE   W96
// 039   ----------------------------------------
        BYTE   W96
// 040   ----------------------------------------
        BYTE   W96
// 041   ----------------------------------------
        BYTE   W96
// 042   ----------------------------------------
        BYTE   W96
// 043   ----------------------------------------
        BYTE   W96
// 044   ----------------------------------------
MarowakDojo_8_LOOP:
        BYTE           N02     En4   v120
        BYTE   W02
        BYTE                   Gs4   v110
        BYTE   W02
        BYTE                   Bn4   v100
        BYTE   W02
        BYTE                   En5   v080
        BYTE   W08
        BYTE                   En4   v060
        BYTE   W02
        BYTE                   Gs4
        BYTE   W02
        BYTE                   Bn4
        BYTE   W02
        BYTE                   En5
        BYTE   W06
        BYTE                   En4   v040
        BYTE   W02
        BYTE                   Gs4
        BYTE   W02
        BYTE                   Bn4
        BYTE   W02
        BYTE                   En5
        BYTE   W06
        BYTE                   En4
        BYTE   W02
        BYTE                   Gs4
        BYTE   W02
        BYTE                   Bn4
        BYTE   W02
        BYTE                   En5
        BYTE   W52
// 045   ----------------------------------------
        BYTE   W96
// 046   ----------------------------------------
        BYTE   W96
// 047   ----------------------------------------
        BYTE   W96
// 048   ----------------------------------------
        BYTE   W96
// 049   ----------------------------------------
        BYTE   W96
// 050   ----------------------------------------
        BYTE   W96
// 051   ----------------------------------------
        BYTE   W96
// 052   ----------------------------------------
        BYTE   W96
// 053   ----------------------------------------
        BYTE   W96
// 054   ----------------------------------------
        BYTE   W96
// 055   ----------------------------------------
        BYTE   PATT
         POIN2  MarowakDojo_8_14
// 056   ----------------------------------------
        BYTE   W96
// 057   ----------------------------------------
        BYTE   W96
// 058   ----------------------------------------
        BYTE   W96
// 059   ----------------------------------------
        BYTE   W48
        BYTE           N03     Gs6   v100
        BYTE   W03
        BYTE           N02     Gs5   v080
        BYTE   W03
        BYTE           N03     An6   v100
        BYTE   W03
        BYTE           N02     An5   v080
        BYTE   W03
        BYTE           N03     Ds6   v100
        BYTE   W03
        BYTE           N02     Ds5   v080
        BYTE   W03
        BYTE           N03     En6   v100
        BYTE   W03
        BYTE           N02     En5   v080
        BYTE   W03
        BYTE           N03     Gs5   v100
        BYTE   W03
        BYTE           N02     Gs4   v080
        BYTE   W03
        BYTE           N03     Gs5   v060
        BYTE   W03
        BYTE           N02     Gs4
        BYTE   W03
        BYTE           N03     An5   v100
        BYTE   W03
        BYTE           N02     An4   v080
        BYTE   W03
        BYTE           N03     An5   v040
        BYTE   W03
        BYTE           N02     An4
        BYTE   W03
// 060   ----------------------------------------
        BYTE   PATT
         POIN2  MarowakDojo_8_19
// 061   ----------------------------------------
        BYTE   W96
// 062   ----------------------------------------
        BYTE   W96
// 063   ----------------------------------------
        BYTE   W96
// 064   ----------------------------------------
        BYTE   PATT
         POIN2  MarowakDojo_8_23
// 065   ----------------------------------------
        BYTE   W96
// 066   ----------------------------------------
        BYTE   W96
// 067   ----------------------------------------
        BYTE   W96
// 068   ----------------------------------------
        BYTE   PATT
         POIN2  MarowakDojo_8_27
// 069   ----------------------------------------
        BYTE   W96
// 070   ----------------------------------------
        BYTE   W96
// 071   ----------------------------------------
        BYTE   W96
// 072   ----------------------------------------
        BYTE   PATT
         POIN2  MarowakDojo_8_31
// 073   ----------------------------------------
        BYTE   PATT
         POIN2  MarowakDojo_8_32
// 074   ----------------------------------------
        BYTE   PATT
         POIN2  MarowakDojo_8_33
// 075   ----------------------------------------
        BYTE   PATT
         POIN2  MarowakDojo_8_34
// 076   ----------------------------------------
        BYTE   PATT
         POIN2  MarowakDojo_8_35
// 077   ----------------------------------------
        BYTE   W96
// 078   ----------------------------------------
        BYTE   W96
// 079   ----------------------------------------
        BYTE   W96
// 080   ----------------------------------------
        BYTE   W96
// 081   ----------------------------------------
        BYTE   W96
// 082   ----------------------------------------
        BYTE   W96
// 083   ----------------------------------------
        BYTE   W96
// 084   ----------------------------------------
        BYTE   W96
// 085   ----------------------------------------
        BYTE   GoTo
         POIN2  MarowakDojo_8_LOOP
        BYTE   FINE

//***************** Track 9 (Midi-Chn.10) ******************//

MarowakDojo_9:
        BYTE   KEYSH   MarowakDojo_key+0
// 000   ----------------------------------------
        BYTE   W24
// 001   ----------------------------------------
        BYTE           VOL     55
        BYTE           VOICE   99
        BYTE   W96
// 002   ----------------------------------------
        BYTE   W96
// 003   ----------------------------------------
        BYTE   W96
// 004   ----------------------------------------
MarowakDojo_9_4:
        BYTE   W24
        BYTE           N12     Dn4   v120
        BYTE           N12     Gs3
        BYTE   W12
        BYTE                   Cn4
        BYTE           N12     Fs3
        BYTE   W12
        BYTE                   Dn4   v112
        BYTE           N12     Gs3
        BYTE   W12
        BYTE                   Cn4   v104
        BYTE           N12     Fs3
        BYTE   W12
        BYTE                   Dn4   v097
        BYTE           N12     Gs3
        BYTE   W12
        BYTE                   Cn4   v089
        BYTE           N12     Fs3
        BYTE   W12
        BYTE   PEND
// 005   ----------------------------------------
        BYTE   W96
// 006   ----------------------------------------
MarowakDojo_9_6:
        BYTE   W24
        BYTE           N12     Dn4   v120
        BYTE           N12     Gs3
        BYTE   W12
        BYTE                   Cn4
        BYTE           N12     Fs3
        BYTE   W12
        BYTE                   Dn4   v114
        BYTE           N12     Gs3
        BYTE   W12
        BYTE                   Fs4   v106
        BYTE           N12     Cn4
        BYTE   W12
        BYTE                   Dn4   v097
        BYTE           N12     Gs3
        BYTE   W12
        BYTE                   Cn4   v089
        BYTE           N12     Fs3
        BYTE   W12
        BYTE   PEND
// 007   ----------------------------------------
        BYTE   W96
// 008   ----------------------------------------
MarowakDojo_9_8:
        BYTE   W24
        BYTE           N12     Dn4   v120
        BYTE           N12     Gs3
        BYTE   W12
        BYTE                   Cn4
        BYTE           N12     Fs3
        BYTE   W12
        BYTE                   Dn4   v112
        BYTE           N12     Gs3
        BYTE   W12
        BYTE                   Cn4   v102
        BYTE           N12     Fs3
        BYTE   W12
        BYTE                   Dn4   v092
        BYTE           N12     Gs3
        BYTE   W12
        BYTE                   Cn4   v083
        BYTE           N12     Fs3
        BYTE   W12
        BYTE   PEND
// 009   ----------------------------------------
        BYTE   W96
// 010   ----------------------------------------
MarowakDojo_9_10:
        BYTE   W24
        BYTE           N12     Dn4   v120
        BYTE           N12     Gs3
        BYTE   W12
        BYTE                   Cn4
        BYTE           N12     Fs3
        BYTE   W12
        BYTE                   Dn4   v114
        BYTE           N12     Gs3
        BYTE   W12
        BYTE                   Fs4   v102
        BYTE           N12     Cn4
        BYTE   W12
        BYTE                   Dn4   v089
        BYTE           N12     Gs3
        BYTE   W12
        BYTE                   Cn4   v077
        BYTE           N12     Fs3
        BYTE   W12
        BYTE   PEND
// 011   ----------------------------------------
MarowakDojo_9_11:
        BYTE   W12
        BYTE           N05     Bn4   v120
        BYTE   W12
        BYTE                   En4
        BYTE   W12
        BYTE                   Fs4
        BYTE   W12
        BYTE                   Cs4
        BYTE   W12
        BYTE                   Bn3
        BYTE   W24
        BYTE                   Bn4
        BYTE   W12
        BYTE   PEND
// 012   ----------------------------------------
MarowakDojo_9_12:
        BYTE           N05     En4   v120
        BYTE   W12
        BYTE                   Fs4
        BYTE   W12
        BYTE                   Cs4
        BYTE   W12
        BYTE                   Bn3
        BYTE   W60
        BYTE   PEND
// 013   ----------------------------------------
MarowakDojo_9_13:
        BYTE   W12
        BYTE           N05     Bn4   v120
        BYTE   W12
        BYTE                   En4
        BYTE   W12
        BYTE                   Fs4
        BYTE   W12
        BYTE                   Cs4
        BYTE   W12
        BYTE                   Bn3
        BYTE   W24
        BYTE           N12     Bn4
        BYTE   W12
        BYTE   PEND
// 014   ----------------------------------------
MarowakDojo_9_14:
        BYTE           N12     En4   v120
        BYTE   W12
        BYTE                   Fs4
        BYTE   W12
        BYTE                   Cs5
        BYTE   W12
        BYTE                   Bn4
        BYTE   W60
        BYTE   PEND
// 015   ----------------------------------------
        BYTE   PATT
         POIN2  MarowakDojo_9_11
// 016   ----------------------------------------
        BYTE   PATT
         POIN2  MarowakDojo_9_12
// 017   ----------------------------------------
        BYTE   PATT
         POIN2  MarowakDojo_9_13
// 018   ----------------------------------------
        BYTE   PATT
         POIN2  MarowakDojo_9_14
// 019   ----------------------------------------
        BYTE   W96
// 020   ----------------------------------------
MarowakDojo_9_20:
        BYTE   W24
        BYTE           N12     Dn4   v116
        BYTE           N12     Gs3
        BYTE   W12
        BYTE                   Cn4   v115
        BYTE           N12     Fs3
        BYTE   W12
        BYTE                   Dn4   v108
        BYTE           N12     Gs3
        BYTE   W12
        BYTE                   Cn4   v099
        BYTE           N12     Fs3
        BYTE   W12
        BYTE                   Dn4   v090
        BYTE           N12     Gs3
        BYTE   W12
        BYTE                   Cn4   v082
        BYTE           N12     Fs3
        BYTE   W12
        BYTE   PEND
// 021   ----------------------------------------
MarowakDojo_9_21:
        BYTE   W24
        BYTE           N10     En5   v120
        BYTE   W24
        BYTE           N12     Bn4
        BYTE   W12
        BYTE                   An4   v100
        BYTE   W12
        BYTE                   Cs5   v120
        BYTE   W12
        BYTE           N10     Bn4   v100
        BYTE   W12
        BYTE   PEND
// 022   ----------------------------------------
MarowakDojo_9_22:
        BYTE   W24
        BYTE           N12     Dn4   v100
        BYTE           N12     Gs3
        BYTE   W12
        BYTE                   Cn4   v101
        BYTE           N12     Fs3
        BYTE   W12
        BYTE                   Dn4   v103
        BYTE           N12     Gs3
        BYTE   W12
        BYTE                   Fs4   v109
        BYTE           N12     Cn4
        BYTE   W12
        BYTE                   Dn4   v096
        BYTE           N12     Gs3
        BYTE   W12
        BYTE                   Cn4   v083
        BYTE           N12     Fs3
        BYTE   W12
        BYTE   PEND
// 023   ----------------------------------------
        BYTE   W96
// 024   ----------------------------------------
MarowakDojo_9_24:
        BYTE   W24
        BYTE           N12     Dn4   v102
        BYTE           N12     Gs3
        BYTE   W12
        BYTE                   Cn4   v103
        BYTE           N12     Fs3
        BYTE   W12
        BYTE                   Dn4   v106
        BYTE           N12     Gs3
        BYTE   W12
        BYTE                   Cn4   v104
        BYTE           N12     Fs3
        BYTE   W12
        BYTE                   Dn4   v091
        BYTE           N12     Gs3
        BYTE   W12
        BYTE                   Cn4   v077
        BYTE           N12     Fs3
        BYTE   W12
        BYTE   PEND
// 025   ----------------------------------------
        BYTE   PATT
         POIN2  MarowakDojo_9_21
// 026   ----------------------------------------
MarowakDojo_9_26:
        BYTE   W24
        BYTE           N12     Dn4   v101
        BYTE           N12     Gs3
        BYTE   W12
        BYTE                   Cn4   v103
        BYTE           N12     Fs3
        BYTE   W12
        BYTE                   Dn4   v105
        BYTE           N12     Gs3
        BYTE   W12
        BYTE                   Fs4   v104
        BYTE           N12     Cn4
        BYTE   W12
        BYTE                   Dn4   v093
        BYTE           N12     Gs3
        BYTE   W12
        BYTE                   Cn4   v081
        BYTE           N12     Fs3
        BYTE   W12
        BYTE   PEND
// 027   ----------------------------------------
        BYTE   W96
// 028   ----------------------------------------
MarowakDojo_9_28:
        BYTE   W24
        BYTE           N12     Dn4   v099
        BYTE           N12     Gs3
        BYTE   W12
        BYTE                   Cn4   v101
        BYTE           N12     Fs3
        BYTE   W12
        BYTE                   Dn4   v105
        BYTE           N12     Gs3
        BYTE   W12
        BYTE                   Cn4   v112
        BYTE           N12     Fs3
        BYTE   W12
        BYTE                   Dn4   v100
        BYTE           N12     Gs3
        BYTE   W12
        BYTE                   Cn4   v088
        BYTE           N12     Fs3
        BYTE   W12
        BYTE   PEND
// 029   ----------------------------------------
        BYTE   W96
// 030   ----------------------------------------
MarowakDojo_9_30:
        BYTE   W24
        BYTE           N12     Dn4   v100
        BYTE           N12     Gs3
        BYTE   W12
        BYTE                   Cn4   v101
        BYTE           N12     Fs3
        BYTE   W12
        BYTE                   Dn4   v103
        BYTE           N12     Gs3
        BYTE   W12
        BYTE                   Fs4   v105
        BYTE           N12     Cn4
        BYTE   W12
        BYTE                   Dn4   v092
        BYTE           N12     Gs3
        BYTE   W12
        BYTE                   Cn4   v079
        BYTE           N12     Fs3
        BYTE   W12
        BYTE   PEND
// 031   ----------------------------------------
        BYTE   W96
// 032   ----------------------------------------
MarowakDojo_9_32:
        BYTE   W24
        BYTE           N12     Dn4   v102
        BYTE           N12     Gs3
        BYTE   W12
        BYTE                   Cn4   v103
        BYTE           N12     Fs3
        BYTE   W12
        BYTE                   Dn4   v106
        BYTE           N12     Gs3
        BYTE   W12
        BYTE                   Cn4
        BYTE           N12     Fs3
        BYTE   W12
        BYTE                   Dn4   v098
        BYTE           N12     Gs3
        BYTE   W12
        BYTE                   Cn4   v089
        BYTE           N12     Fs3
        BYTE   W12
        BYTE   PEND
// 033   ----------------------------------------
        BYTE   W96
// 034   ----------------------------------------
MarowakDojo_9_34:
        BYTE   W24
        BYTE           N12     Dn4   v101
        BYTE           N12     Gs3
        BYTE   W12
        BYTE                   Cn4   v103
        BYTE           N12     Fs3
        BYTE   W12
        BYTE                   Dn4   v107
        BYTE           N12     Gs3
        BYTE   W12
        BYTE                   Fs4   v100
        BYTE           N12     Cn4
        BYTE   W12
        BYTE                   Dn4   v093
        BYTE           N12     Gs3
        BYTE   W12
        BYTE                   Cn4   v086
        BYTE           N12     Fs3
        BYTE   W12
        BYTE   PEND
// 035   ----------------------------------------
        BYTE   W96
// 036   ----------------------------------------
MarowakDojo_9_36:
        BYTE   W24
        BYTE           N12     Dn4   v099
        BYTE           N12     Gs3
        BYTE   W12
        BYTE                   Cn4   v101
        BYTE           N12     Fs3
        BYTE   W12
        BYTE                   Dn4   v104
        BYTE           N12     Gs3
        BYTE   W12
        BYTE                   Cn4   v098
        BYTE           N12     Fs3
        BYTE   W12
        BYTE                   Dn4   v091
        BYTE           N12     Gs3
        BYTE   W12
        BYTE                   Cn4   v085
        BYTE           N12     Fs3
        BYTE   W12
        BYTE   PEND
// 037   ----------------------------------------
        BYTE   W96
// 038   ----------------------------------------
MarowakDojo_9_38:
        BYTE   W24
        BYTE           N12     Dn4   v100
        BYTE           N12     Gs3
        BYTE   W12
        BYTE                   Cn4   v101
        BYTE           N12     Fs3
        BYTE   W12
        BYTE                   Dn4   v104
        BYTE           N12     Gs3
        BYTE   W12
        BYTE                   Fs4   v097
        BYTE           N12     Cn4
        BYTE   W12
        BYTE                   Dn4   v092
        BYTE           N12     Gs3
        BYTE   W12
        BYTE                   Cn4   v086
        BYTE           N12     Fs3
        BYTE   W12
        BYTE   PEND
// 039   ----------------------------------------
        BYTE   W96
// 040   ----------------------------------------
MarowakDojo_9_40:
        BYTE   W24
        BYTE           N12     Dn4   v102
        BYTE           N12     Gs3
        BYTE   W12
        BYTE                   Cn4   v103
        BYTE           N12     Fs3
        BYTE   W12
        BYTE                   Dn4   v106
        BYTE           N12     Gs3
        BYTE   W12
        BYTE                   Cn4   v102
        BYTE           N12     Fs3
        BYTE   W12
        BYTE                   Dn4   v097
        BYTE           N12     Gs3
        BYTE   W12
        BYTE                   Cn4   v092
        BYTE           N12     Fs3
        BYTE   W12
        BYTE   PEND
// 041   ----------------------------------------
        BYTE   W96
// 042   ----------------------------------------
MarowakDojo_9_42:
        BYTE   W24
        BYTE           N12     Dn4   v101
        BYTE           N12     Gs3
        BYTE   W12
        BYTE                   Cn4   v103
        BYTE           N12     Fs3
        BYTE   W12
        BYTE                   Dn4   v105
        BYTE           N12     Gs3
        BYTE   W12
        BYTE                   Fs4   v110
        BYTE           N12     Cn4
        BYTE   W12
        BYTE                   Dn4   v116
        BYTE           N12     Gs3
        BYTE   W12
        BYTE                   Cn4   v123
        BYTE           N12     Fs3
        BYTE   W12
        BYTE   PEND
// 043   ----------------------------------------
MarowakDojo_9_43:
        BYTE   W06
        BYTE           N12     Dn4   v077
        BYTE           N12     Gs3
        BYTE   W12
        BYTE                   Cn4   v078
        BYTE           N12     Fs3
        BYTE   W18
        BYTE                   Dn4   v046
        BYTE           N12     Gs3
        BYTE   W12
        BYTE                   Cn4   v047
        BYTE           N12     Fs3
        BYTE   W18
        BYTE                   Dn4   v022
        BYTE           N12     Gs3
        BYTE   W12
        BYTE                   Cn4   v023
        BYTE           N12     Fs3
        BYTE   W18
        BYTE   PEND
// 044   ----------------------------------------
MarowakDojo_9_LOOP:
        BYTE   W96
// 045   ----------------------------------------
        BYTE   PATT
         POIN2  MarowakDojo_9_4
// 046   ----------------------------------------
        BYTE   W96
// 047   ----------------------------------------
        BYTE   PATT
         POIN2  MarowakDojo_9_6
// 048   ----------------------------------------
        BYTE   W96
// 049   ----------------------------------------
        BYTE   PATT
         POIN2  MarowakDojo_9_8
// 050   ----------------------------------------
        BYTE   W96
// 051   ----------------------------------------
        BYTE   PATT
         POIN2  MarowakDojo_9_10
// 052   ----------------------------------------
        BYTE   PATT
         POIN2  MarowakDojo_9_11
// 053   ----------------------------------------
        BYTE   PATT
         POIN2  MarowakDojo_9_12
// 054   ----------------------------------------
        BYTE   PATT
         POIN2  MarowakDojo_9_13
// 055   ----------------------------------------
        BYTE   PATT
         POIN2  MarowakDojo_9_14
// 056   ----------------------------------------
        BYTE   PATT
         POIN2  MarowakDojo_9_11
// 057   ----------------------------------------
        BYTE   PATT
         POIN2  MarowakDojo_9_12
// 058   ----------------------------------------
        BYTE   PATT
         POIN2  MarowakDojo_9_13
// 059   ----------------------------------------
        BYTE   PATT
         POIN2  MarowakDojo_9_14
// 060   ----------------------------------------
        BYTE   W96
// 061   ----------------------------------------
        BYTE   PATT
         POIN2  MarowakDojo_9_20
// 062   ----------------------------------------
        BYTE   PATT
         POIN2  MarowakDojo_9_21
// 063   ----------------------------------------
        BYTE   PATT
         POIN2  MarowakDojo_9_22
// 064   ----------------------------------------
        BYTE   W96
// 065   ----------------------------------------
        BYTE   PATT
         POIN2  MarowakDojo_9_24
// 066   ----------------------------------------
        BYTE   PATT
         POIN2  MarowakDojo_9_21
// 067   ----------------------------------------
        BYTE   PATT
         POIN2  MarowakDojo_9_26
// 068   ----------------------------------------
        BYTE   W96
// 069   ----------------------------------------
        BYTE   PATT
         POIN2  MarowakDojo_9_28
// 070   ----------------------------------------
        BYTE   W96
// 071   ----------------------------------------
        BYTE   PATT
         POIN2  MarowakDojo_9_30
// 072   ----------------------------------------
        BYTE   W96
// 073   ----------------------------------------
        BYTE   PATT
         POIN2  MarowakDojo_9_32
// 074   ----------------------------------------
        BYTE   W96
// 075   ----------------------------------------
        BYTE   PATT
         POIN2  MarowakDojo_9_34
// 076   ----------------------------------------
        BYTE   W96
// 077   ----------------------------------------
        BYTE   PATT
         POIN2  MarowakDojo_9_36
// 078   ----------------------------------------
        BYTE   W96
// 079   ----------------------------------------
        BYTE   PATT
         POIN2  MarowakDojo_9_38
// 080   ----------------------------------------
        BYTE   W96
// 081   ----------------------------------------
        BYTE   PATT
         POIN2  MarowakDojo_9_40
// 082   ----------------------------------------
        BYTE   W96
// 083   ----------------------------------------
        BYTE   PATT
         POIN2  MarowakDojo_9_42
// 084   ----------------------------------------
        BYTE   PATT
         POIN2  MarowakDojo_9_43
// 085   ----------------------------------------
        BYTE   GoTo
         POIN2  MarowakDojo_9_LOOP
        BYTE   FINE


//********************** End of Song ***********************//

        ALIGN 4
MarowakDojo:
        BYTE   10                      // Num Tracks
        BYTE   0                       // Unknown
        BYTE   MarowakDojo_pri         // Priority
        BYTE   MarowakDojo_rev         // Reverb

        POIN2   MarowakDojo_grp        

        POIN2   MarowakDojo_0
        POIN2   MarowakDojo_1
        POIN2   MarowakDojo_2
        POIN2   MarowakDojo_3
        POIN2   MarowakDojo_4
        POIN2   MarowakDojo_5
        POIN2   MarowakDojo_6
        POIN2   MarowakDojo_7
        POIN2   MarowakDojo_8
        POIN2   MarowakDojo_9

        
