//Event file generated from Sappy .s format.
        #include "MPlayDef.event"

        #define    FortuneRavine_grp  voicegroup000
        #define    FortuneRavine_pri  0
        #define    FortuneRavine_rev  0
        #define    FortuneRavine_key  0

        // .rodata
        // FortuneRavine
        .align  2

//****************** Track 0 (Midi-Chn.0) ******************//

FortuneRavine_0:
        BYTE   KEYSH   FortuneRavine_key+0
// 000   ----------------------------------------
        BYTE   TEMPO   120/2
        BYTE   W24
// 001   ----------------------------------------
        BYTE   TEMPO   90/2
        BYTE           VOL     95
        BYTE           VOICE   39
        BYTE   W96
// 002   ----------------------------------------
        BYTE   W96
// 003   ----------------------------------------
        BYTE   W96
// 004   ----------------------------------------
        BYTE   W96
// 005   ----------------------------------------
FortuneRavine_0_5:
        BYTE           N04     An0   v127
        BYTE   W06
        BYTE                   An0
        BYTE   W06
        BYTE                   An0
        BYTE   W06
        BYTE                   An0
        BYTE   W18
        BYTE           N12
        BYTE   W24
        BYTE                   An0
        BYTE   W24
        BYTE           N06     An0   v074
        BYTE   W06
        BYTE                   En0   v080
        BYTE   W06
        BYTE   PEND
// 006   ----------------------------------------
        BYTE   PATT
         POIN2  FortuneRavine_0_5
// 007   ----------------------------------------
        BYTE   PATT
         POIN2  FortuneRavine_0_5
// 008   ----------------------------------------
        BYTE   PATT
         POIN2  FortuneRavine_0_5
// 009   ----------------------------------------
        BYTE   PATT
         POIN2  FortuneRavine_0_5
// 010   ----------------------------------------
        BYTE   PATT
         POIN2  FortuneRavine_0_5
// 011   ----------------------------------------
        BYTE   PATT
         POIN2  FortuneRavine_0_5
// 012   ----------------------------------------
        BYTE   PATT
         POIN2  FortuneRavine_0_5
// 013   ----------------------------------------
        BYTE   PATT
         POIN2  FortuneRavine_0_5
// 014   ----------------------------------------
        BYTE   PATT
         POIN2  FortuneRavine_0_5
// 015   ----------------------------------------
FortuneRavine_0_15:
        BYTE           N04     Cn1   v127
        BYTE   W06
        BYTE                   Cn1
        BYTE   W06
        BYTE                   Cn1
        BYTE   W06
        BYTE                   Cn1
        BYTE   W12
        BYTE           N06
        BYTE   W06
        BYTE           N04     Dn1
        BYTE   W06
        BYTE                   Dn1
        BYTE   W06
        BYTE                   Dn1
        BYTE   W06
        BYTE                   Dn1
        BYTE   W12
        BYTE           N06
        BYTE   W06
        BYTE                   Cn1
        BYTE   W06
        BYTE                   Dn1
        BYTE   W06
        BYTE                   Fn1
        BYTE   W06
        BYTE                   Dn1
        BYTE   W06
        BYTE   PEND
// 016   ----------------------------------------
FortuneRavine_0_16:
        BYTE           N04     An0   v127
        BYTE   W06
        BYTE                   An0
        BYTE   W06
        BYTE                   An0
        BYTE   W06
        BYTE                   An0
        BYTE   W12
        BYTE           N06
        BYTE   W06
        BYTE                   Gn0
        BYTE   W06
        BYTE                   An0
        BYTE   W12
        BYTE                   Cn1
        BYTE   W06
        BYTE                   An0
        BYTE   W12
        BYTE                   Dn1
        BYTE   W06
        BYTE           N12     An0
        BYTE   W12
        BYTE           N06     En0   v080
        BYTE   W06
        BYTE   PEND
// 017   ----------------------------------------
        BYTE   PATT
         POIN2  FortuneRavine_0_15
// 018   ----------------------------------------
        BYTE   PATT
         POIN2  FortuneRavine_0_16
// 019   ----------------------------------------
        BYTE   PATT
         POIN2  FortuneRavine_0_5
// 020   ----------------------------------------
        BYTE   PATT
         POIN2  FortuneRavine_0_5
// 021   ----------------------------------------
        BYTE   PATT
         POIN2  FortuneRavine_0_5
// 022   ----------------------------------------
        BYTE   PATT
         POIN2  FortuneRavine_0_5
// 023   ----------------------------------------
        BYTE   PATT
         POIN2  FortuneRavine_0_5
// 024   ----------------------------------------
        BYTE   PATT
         POIN2  FortuneRavine_0_5
// 025   ----------------------------------------
        BYTE   PATT
         POIN2  FortuneRavine_0_15
// 026   ----------------------------------------
        BYTE   PATT
         POIN2  FortuneRavine_0_16
// 027   ----------------------------------------
        BYTE   PATT
         POIN2  FortuneRavine_0_15
// 028   ----------------------------------------
        BYTE   PATT
         POIN2  FortuneRavine_0_16
// 029   ----------------------------------------
        BYTE   PATT
         POIN2  FortuneRavine_0_5
// 030   ----------------------------------------
        BYTE   PATT
         POIN2  FortuneRavine_0_5
// 031   ----------------------------------------
        BYTE   PATT
         POIN2  FortuneRavine_0_5
// 032   ----------------------------------------
        BYTE   PATT
         POIN2  FortuneRavine_0_5
// 033   ----------------------------------------
        BYTE   PATT
         POIN2  FortuneRavine_0_5
// 034   ----------------------------------------
        BYTE   PATT
         POIN2  FortuneRavine_0_5
// 035   ----------------------------------------
        BYTE   PATT
         POIN2  FortuneRavine_0_5
// 036   ----------------------------------------
        BYTE   PATT
         POIN2  FortuneRavine_0_5
// 037   ----------------------------------------
        BYTE   PATT
         POIN2  FortuneRavine_0_5
// 038   ----------------------------------------
        BYTE   PATT
         POIN2  FortuneRavine_0_5
// 039   ----------------------------------------
        BYTE   PATT
         POIN2  FortuneRavine_0_5
// 040   ----------------------------------------
        BYTE   PATT
         POIN2  FortuneRavine_0_5
// 041   ----------------------------------------
        BYTE   PATT
         POIN2  FortuneRavine_0_5
// 042   ----------------------------------------
        BYTE   PATT
         POIN2  FortuneRavine_0_5
// 043   ----------------------------------------
        BYTE   PATT
         POIN2  FortuneRavine_0_15
// 044   ----------------------------------------
        BYTE   PATT
         POIN2  FortuneRavine_0_16
// 045   ----------------------------------------
        BYTE   PATT
         POIN2  FortuneRavine_0_15
// 046   ----------------------------------------
        BYTE   PATT
         POIN2  FortuneRavine_0_16
// 047   ----------------------------------------
        BYTE   PATT
         POIN2  FortuneRavine_0_5
// 048   ----------------------------------------
        BYTE   PATT
         POIN2  FortuneRavine_0_5
// 049   ----------------------------------------
        BYTE   PATT
         POIN2  FortuneRavine_0_5
// 050   ----------------------------------------
        BYTE   PATT
         POIN2  FortuneRavine_0_5
// 051   ----------------------------------------
        BYTE   PATT
         POIN2  FortuneRavine_0_5
// 052   ----------------------------------------
        BYTE   PATT
         POIN2  FortuneRavine_0_5
// 053   ----------------------------------------
        BYTE   PATT
         POIN2  FortuneRavine_0_15
// 054   ----------------------------------------
        BYTE   PATT
         POIN2  FortuneRavine_0_16
// 055   ----------------------------------------
        BYTE   PATT
         POIN2  FortuneRavine_0_15
// 056   ----------------------------------------
        BYTE   PATT
         POIN2  FortuneRavine_0_16
// 057   ----------------------------------------
        BYTE   PATT
         POIN2  FortuneRavine_0_5
// 058   ----------------------------------------
        BYTE   PATT
         POIN2  FortuneRavine_0_5
// 059   ----------------------------------------
        BYTE   PATT
         POIN2  FortuneRavine_0_5
// 060   ----------------------------------------
        BYTE   PATT
         POIN2  FortuneRavine_0_5
// 061   ----------------------------------------
        BYTE   PATT
         POIN2  FortuneRavine_0_5
// 062   ----------------------------------------
        BYTE   PATT
         POIN2  FortuneRavine_0_5
// 063   ----------------------------------------
        BYTE   PATT
         POIN2  FortuneRavine_0_5
// 064   ----------------------------------------
        BYTE   PATT
         POIN2  FortuneRavine_0_5
// 065   ----------------------------------------
        BYTE   FINE

//****************** Track 1 (Midi-Chn.1) ******************//

FortuneRavine_1:
        BYTE   KEYSH   FortuneRavine_key+0
// 000   ----------------------------------------
        BYTE   W24
// 001   ----------------------------------------
        BYTE           VOL     95
        BYTE           VOICE   61
        BYTE   W96
// 002   ----------------------------------------
        BYTE   W96
// 003   ----------------------------------------
        BYTE   W96
// 004   ----------------------------------------
        BYTE   W96
// 005   ----------------------------------------
        BYTE   W96
// 006   ----------------------------------------
        BYTE   W96
// 007   ----------------------------------------
        BYTE   W96
// 008   ----------------------------------------
        BYTE   W96
// 009   ----------------------------------------
        BYTE   W96
// 010   ----------------------------------------
        BYTE   W96
// 011   ----------------------------------------
        BYTE   W96
// 012   ----------------------------------------
        BYTE   W96
// 013   ----------------------------------------
        BYTE   W96
// 014   ----------------------------------------
        BYTE   W96
// 015   ----------------------------------------
        BYTE   W96
// 016   ----------------------------------------
        BYTE   W96
// 017   ----------------------------------------
FortuneRavine_1_17:
        BYTE           N06     As3   v127
        BYTE   W06
        BYTE                   Cn4
        BYTE   W06
        BYTE           N15     Dn4
        BYTE   W18
        BYTE           N06
        BYTE   W06
        BYTE                   En4
        BYTE   W06
        BYTE           N30     Fn4
        BYTE   W36
        BYTE           N06
        BYTE   W06
        BYTE                   Gn4
        BYTE   W06
        BYTE           N78     An4
        BYTE   W06
        BYTE   PEND
// 018   ----------------------------------------
        BYTE   W96
// 019   ----------------------------------------
FortuneRavine_1_19:
        BYTE           N54     En4   v127
        BYTE   W54
        BYTE           N06     Dn4
        BYTE   W06
        BYTE                   Cn4
        BYTE   W06
        BYTE           N12     Bn3
        BYTE   W12
        BYTE           N06
        BYTE   W06
        BYTE                   Cn4
        BYTE   W06
        BYTE                   Dn4
        BYTE   W06
        BYTE   PEND
// 020   ----------------------------------------
FortuneRavine_1_20:
        BYTE           N48     Gn3   v127
        BYTE   W48
        BYTE           N06
        BYTE   W06
        BYTE                   An3
        BYTE   W06
        BYTE                   Bn3
        BYTE   W06
        BYTE           N12
        BYTE   W12
        BYTE           N06     Cn4
        BYTE   W06
        BYTE                   Gn3
        BYTE   W06
        BYTE                   An3
        BYTE   W06
        BYTE   PEND
// 021   ----------------------------------------
        BYTE           TIE     En3
        BYTE   W96
// 022   ----------------------------------------
        BYTE   W72
        BYTE           EOT
        BYTE   W24
// 023   ----------------------------------------
        BYTE   PATT
         POIN2  FortuneRavine_1_19
// 024   ----------------------------------------
        BYTE   PATT
         POIN2  FortuneRavine_1_20
// 025   ----------------------------------------
FortuneRavine_1_25:
        BYTE           N06     Bn3   v127
        BYTE   W06
        BYTE                   Cn4
        BYTE   W06
        BYTE                   Dn4
        BYTE   W06
        BYTE           N12     En4
        BYTE   W12
        BYTE           N06
        BYTE   W06
        BYTE                   Fs4
        BYTE   W06
        BYTE           N12     Gn4
        BYTE   W12
        BYTE           N06     An4
        BYTE   W06
        BYTE                   Fs4
        BYTE   W06
        BYTE           N12     Gn4
        BYTE   W12
        BYTE           N06
        BYTE   W06
        BYTE                   An4
        BYTE   W06
        BYTE           N78     Bn4
        BYTE   W06
        BYTE   PEND
// 026   ----------------------------------------
        BYTE   W96
// 027   ----------------------------------------
        BYTE   PATT
         POIN2  FortuneRavine_1_25
// 028   ----------------------------------------
        BYTE   W96
// 029   ----------------------------------------
        BYTE   W96
// 030   ----------------------------------------
        BYTE   W96
// 031   ----------------------------------------
        BYTE   W96
// 032   ----------------------------------------
        BYTE   W96
// 033   ----------------------------------------
        BYTE   W96
// 034   ----------------------------------------
        BYTE   W96
// 035   ----------------------------------------
        BYTE   W96
// 036   ----------------------------------------
        BYTE   W96
// 037   ----------------------------------------
        BYTE   W96
// 038   ----------------------------------------
        BYTE   W96
// 039   ----------------------------------------
        BYTE   W96
// 040   ----------------------------------------
        BYTE   W96
// 041   ----------------------------------------
        BYTE   W96
// 042   ----------------------------------------
        BYTE   W96
// 043   ----------------------------------------
        BYTE   W96
// 044   ----------------------------------------
        BYTE   W96
// 045   ----------------------------------------
        BYTE   PATT
         POIN2  FortuneRavine_1_17
// 046   ----------------------------------------
        BYTE   W96
// 047   ----------------------------------------
        BYTE   PATT
         POIN2  FortuneRavine_1_19
// 048   ----------------------------------------
        BYTE   PATT
         POIN2  FortuneRavine_1_20
// 049   ----------------------------------------
        BYTE           TIE     En3   v127
        BYTE   W96
// 050   ----------------------------------------
        BYTE   W72
        BYTE           EOT
        BYTE   W24
// 051   ----------------------------------------
        BYTE   PATT
         POIN2  FortuneRavine_1_19
// 052   ----------------------------------------
        BYTE   PATT
         POIN2  FortuneRavine_1_20
// 053   ----------------------------------------
        BYTE   PATT
         POIN2  FortuneRavine_1_25
// 054   ----------------------------------------
        BYTE   W96
// 055   ----------------------------------------
        BYTE   PATT
         POIN2  FortuneRavine_1_25
// 056   ----------------------------------------
        BYTE   W96
// 057   ----------------------------------------
        BYTE   W96
// 058   ----------------------------------------
        BYTE   W96
// 059   ----------------------------------------
        BYTE   W96
// 060   ----------------------------------------
        BYTE   W96
// 061   ----------------------------------------
        BYTE   W96
// 062   ----------------------------------------
        BYTE   W96
// 063   ----------------------------------------
        BYTE   W96
// 064   ----------------------------------------
        BYTE   W96
// 065   ----------------------------------------
        BYTE   FINE

//****************** Track 2 (Midi-Chn.2) ******************//

FortuneRavine_2:
        BYTE   KEYSH   FortuneRavine_key+0
// 000   ----------------------------------------
        BYTE   W24
// 001   ----------------------------------------
        BYTE           PAN     c_v-34
        BYTE           VOICE   48
        BYTE           VOL     61
        BYTE   W09
        BYTE                   62
        BYTE   W03
        BYTE                   64
        BYTE   W03
        BYTE                   65
        BYTE   W06
        BYTE                   66
        BYTE   W06
        BYTE                   68
        BYTE   W06
        BYTE                   69
        BYTE   W03
        BYTE                   70
        BYTE   W03
        BYTE                   71
        BYTE   W06
        BYTE                   72
        BYTE   W03
        BYTE                   73
        BYTE   W03
        BYTE                   74
        BYTE   W03
        BYTE                   75
        BYTE   W03
        BYTE                   76
        BYTE   W06
        BYTE                   77
        BYTE   W03
        BYTE                   78
        BYTE   W03
        BYTE                   79
        BYTE   W03
        BYTE                   80
        BYTE   W06
        BYTE                   81
        BYTE   W03
        BYTE                   82
        BYTE   W03
        BYTE                   83
        BYTE   W06
        BYTE                   84
        BYTE   W03
        BYTE                   85
        BYTE   W03
// 002   ----------------------------------------
        BYTE   W03
        BYTE                   84
        BYTE   W03
        BYTE                   83
        BYTE   W06
        BYTE                   82
        BYTE   W03
        BYTE                   81
        BYTE   W06
        BYTE                   80
        BYTE   W06
        BYTE                   79
        BYTE   W03
        BYTE                   78
        BYTE   W03
        BYTE                   77
        BYTE   W03
        BYTE                   76
        BYTE   W12
        BYTE                   75
        BYTE   W03
        BYTE                   73
        BYTE   W03
        BYTE                   72
        BYTE   W06
        BYTE                   71
        BYTE   W09
        BYTE                   70
        BYTE   W03
        BYTE                   69
        BYTE   W03
        BYTE                   68
        BYTE   W06
        BYTE                   67
        BYTE   W03
        BYTE                   66
        BYTE   W06
        BYTE                   65
        BYTE   W06
// 003   ----------------------------------------
        BYTE           N96     En3   v107
        BYTE   W04
        BYTE           VOL     66
        BYTE   W05
        BYTE                   67
        BYTE   W03
        BYTE                   68
        BYTE   W04
        BYTE                   69
        BYTE   W05
        BYTE                   70
        BYTE   W03
        BYTE                   71
        BYTE   W06
        BYTE                   72
        BYTE   W06
        BYTE                   73
        BYTE   W03
        BYTE                   74
        BYTE   W01
        BYTE                   75
        BYTE   W03
        BYTE                   76
        BYTE   W09
        BYTE                   77
        BYTE   W03
        BYTE                   78
        BYTE   W05
        BYTE                   79
        BYTE   W01
        BYTE                   80
        BYTE   W08
        BYTE                   81
        BYTE   W03
        BYTE                   82
        BYTE   W04
        BYTE                   83
        BYTE   W06
        BYTE                   84
        BYTE   W02
        BYTE                   85
        BYTE   W03
        BYTE                   86
        BYTE   W03
        BYTE                   87
        BYTE   W03
        BYTE                   86
        BYTE   W03
// 004   ----------------------------------------
        BYTE                   85
        BYTE           N96     Dn3
        BYTE   W03
        BYTE           VOL     84
        BYTE   W01
        BYTE                   83
        BYTE   W06
        BYTE                   82
        BYTE   W05
        BYTE                   81
        BYTE   W03
        BYTE                   80
        BYTE   W06
        BYTE                   79
        BYTE   W03
        BYTE                   78
        BYTE   W03
        BYTE                   77
        BYTE   W01
        BYTE                   76
        BYTE   W11
        BYTE                   75
        BYTE   W03
        BYTE                   73
        BYTE   W03
        BYTE                   72
        BYTE   W04
        BYTE                   71
        BYTE   W08
        BYTE                   70
        BYTE   W03
        BYTE                   69
        BYTE   W03
        BYTE                   68
        BYTE   W04
        BYTE                   67
        BYTE   W03
        BYTE                   66
        BYTE   W05
        BYTE                   65
        BYTE   W06
        BYTE                   64
        BYTE   W03
        BYTE                   63
        BYTE   W03
        BYTE                   61
        BYTE   W03
        BYTE                   62
        BYTE   W03
// 005   ----------------------------------------
        BYTE                   63
        BYTE           N96     Gn2
        BYTE   W01
        BYTE           VOL     64
        BYTE   W03
        BYTE                   65
        BYTE   W06
        BYTE                   66
        BYTE   W05
        BYTE                   67
        BYTE   W03
        BYTE                   68
        BYTE   W03
        BYTE                   69
        BYTE   W06
        BYTE                   70
        BYTE   W01
        BYTE                   71
        BYTE   W06
        BYTE                   72
        BYTE   W06
        BYTE                   73
        BYTE   W02
        BYTE                   74
        BYTE   W03
        BYTE                   75
        BYTE   W03
        BYTE                   76
        BYTE   W07
        BYTE                   77
        BYTE   W03
        BYTE                   78
        BYTE   W02
        BYTE                   79
        BYTE   W04
        BYTE                   80
        BYTE   W05
        BYTE                   81
        BYTE   W04
        BYTE                   82
        BYTE   W05
        BYTE                   83
        BYTE   W04
        BYTE                   84
        BYTE   W05
        BYTE                   86
        BYTE   W03
        BYTE                   87
        BYTE   W03
        BYTE                   84
        BYTE   W03
// 006   ----------------------------------------
        BYTE                   85
        BYTE           N96     Dn3
        BYTE   W04
        BYTE           VOL     84
        BYTE   W03
        BYTE                   83
        BYTE   W06
        BYTE                   82
        BYTE   W03
        BYTE                   81
        BYTE   W06
        BYTE                   80
        BYTE   W06
        BYTE                   79
        BYTE   W03
        BYTE                   78
        BYTE   W03
        BYTE                   77
        BYTE   W03
        BYTE                   76
        BYTE   W09
        BYTE                   75
        BYTE   W02
        BYTE                   74
        BYTE   W04
        BYTE                   73
        BYTE   W03
        BYTE                   72
        BYTE   W06
        BYTE                   71
        BYTE   W06
        BYTE                   70
        BYTE   W02
        BYTE                   69
        BYTE   W07
        BYTE                   68
        BYTE   W02
        BYTE                   67
        BYTE   W04
        BYTE                   66
        BYTE   W06
        BYTE                   65
        BYTE   W06
        BYTE                   64
        BYTE   W02
// 007   ----------------------------------------
FortuneRavine_2_7:
        BYTE           VOL     63
        BYTE           N96     En3   v107
        BYTE   W03
        BYTE           VOL     64
        BYTE   W03
        BYTE                   65
        BYTE   W06
        BYTE                   66
        BYTE   W06
        BYTE                   67
        BYTE   W03
        BYTE                   68
        BYTE   W01
        BYTE                   69
        BYTE   W08
        BYTE                   70
        BYTE   W01
        BYTE                   71
        BYTE   W08
        BYTE                   72
        BYTE   W04
        BYTE                   73
        BYTE   W03
        BYTE                   74
        BYTE   W05
        BYTE                   76
        BYTE   W09
        BYTE                   77
        BYTE   W03
        BYTE                   78
        BYTE   W03
        BYTE                   79
        BYTE   W03
        BYTE                   80
        BYTE   W06
        BYTE                   81
        BYTE   W06
        BYTE                   82
        BYTE   W01
        BYTE                   83
        BYTE   W08
        BYTE                   84
        BYTE   W01
        BYTE                   85
        BYTE   W03
        BYTE                   86
        BYTE   W02
        BYTE   PEND
// 008   ----------------------------------------
FortuneRavine_2_8:
        BYTE           VOL     87
        BYTE           N96     Fs3   v107
        BYTE   W09
        BYTE           VOL     86
        BYTE   W03
        BYTE                   85
        BYTE   W03
        BYTE                   84
        BYTE   W03
        BYTE                   83
        BYTE   W06
        BYTE                   82
        BYTE   W03
        BYTE                   81
        BYTE   W03
        BYTE                   80
        BYTE   W06
        BYTE                   79
        BYTE   W03
        BYTE                   78
        BYTE   W03
        BYTE                   77
        BYTE   W03
        BYTE                   76
        BYTE   W09
        BYTE                   75
        BYTE   W03
        BYTE                   74
        BYTE   W03
        BYTE                   73
        BYTE   W03
        BYTE                   72
        BYTE   W03
        BYTE                   71
        BYTE   W09
        BYTE                   69
        BYTE   W06
        BYTE                   68
        BYTE   W03
        BYTE                   67
        BYTE   W03
        BYTE                   66
        BYTE   W06
        BYTE                   65
        BYTE   W03
        BYTE   PEND
// 009   ----------------------------------------
        BYTE   W96
// 010   ----------------------------------------
        BYTE   W96
// 011   ----------------------------------------
        BYTE   W96
// 012   ----------------------------------------
        BYTE   W96
// 013   ----------------------------------------
        BYTE   W96
// 014   ----------------------------------------
        BYTE   W96
// 015   ----------------------------------------
        BYTE   W96
// 016   ----------------------------------------
FortuneRavine_2_16:
        BYTE           PAN     c_v+63
        BYTE           VOL     43
        BYTE           VOICE   61
        BYTE   W96
        BYTE   PEND
// 017   ----------------------------------------
FortuneRavine_2_17:
        BYTE   W12
        BYTE           N06     As3   v127
        BYTE   W06
        BYTE                   Cn4
        BYTE   W06
        BYTE           N15     Dn4
        BYTE   W18
        BYTE           N06
        BYTE   W06
        BYTE                   En4
        BYTE   W06
        BYTE           N30     Fn4
        BYTE   W36
        BYTE           N06
        BYTE   W06
        BYTE   PEND
// 018   ----------------------------------------
FortuneRavine_2_18:
        BYTE           N06     Gn4   v127
        BYTE   W06
        BYTE           N78     An4
        BYTE   W90
        BYTE   PEND
// 019   ----------------------------------------
FortuneRavine_2_19:
        BYTE   W12
        BYTE           N54     En4   v127
        BYTE   W54
        BYTE           N06     Dn4
        BYTE   W06
        BYTE                   Cn4
        BYTE   W06
        BYTE           N12     Bn3
        BYTE   W12
        BYTE           N06
        BYTE   W06
        BYTE   PEND
// 020   ----------------------------------------
FortuneRavine_2_20:
        BYTE           N06     Cn4   v127
        BYTE   W06
        BYTE                   Dn4
        BYTE   W06
        BYTE           N48     Gn3
        BYTE   W48
        BYTE           N06
        BYTE   W06
        BYTE                   An3
        BYTE   W06
        BYTE                   Bn3
        BYTE   W06
        BYTE           N12
        BYTE   W12
        BYTE           N06     Cn4
        BYTE   W06
        BYTE   PEND
// 021   ----------------------------------------
FortuneRavine_2_21:
        BYTE           N06     Gn3   v127
        BYTE   W06
        BYTE                   An3
        BYTE   W06
        BYTE           TIE     En3
        BYTE   W84
        BYTE   PEND
// 022   ----------------------------------------
        BYTE   W84
        BYTE           EOT
        BYTE   W12
// 023   ----------------------------------------
        BYTE   PATT
         POIN2  FortuneRavine_2_19
// 024   ----------------------------------------
        BYTE   PATT
         POIN2  FortuneRavine_2_20
// 025   ----------------------------------------
FortuneRavine_2_25:
        BYTE           N06     Gn3   v127
        BYTE   W06
        BYTE                   An3
        BYTE   W06
        BYTE                   Bn3
        BYTE   W06
        BYTE                   Cn4
        BYTE   W06
        BYTE                   Dn4
        BYTE   W06
        BYTE           N12     En4
        BYTE   W12
        BYTE           N06
        BYTE   W06
        BYTE                   Fs4
        BYTE   W06
        BYTE           N12     Gn4
        BYTE   W12
        BYTE           N06     An4
        BYTE   W06
        BYTE                   Fs4
        BYTE   W06
        BYTE           N12     Gn4
        BYTE   W12
        BYTE           N06
        BYTE   W06
        BYTE   PEND
// 026   ----------------------------------------
FortuneRavine_2_26:
        BYTE           N06     An4   v127
        BYTE   W06
        BYTE           N78     Bn4
        BYTE   W90
        BYTE   PEND
// 027   ----------------------------------------
FortuneRavine_2_27:
        BYTE   W12
        BYTE           N06     Bn3   v127
        BYTE   W06
        BYTE                   Cn4
        BYTE   W06
        BYTE                   Dn4
        BYTE   W06
        BYTE           N12     En4
        BYTE   W12
        BYTE           N06
        BYTE   W06
        BYTE                   Fs4
        BYTE   W06
        BYTE           N12     Gn4
        BYTE   W12
        BYTE           N06     An4
        BYTE   W06
        BYTE                   Fs4
        BYTE   W06
        BYTE           N12     Gn4
        BYTE   W12
        BYTE           N06
        BYTE   W06
        BYTE   PEND
// 028   ----------------------------------------
        BYTE   PATT
         POIN2  FortuneRavine_2_26
// 029   ----------------------------------------
FortuneRavine_2_29:
        BYTE           PAN     c_v-34
        BYTE           VOL     65
        BYTE           VOICE   48
        BYTE   W06
        BYTE           VOL     66
        BYTE   W06
        BYTE                   67
        BYTE   W03
        BYTE                   68
        BYTE   W03
        BYTE                   69
        BYTE   W06
        BYTE                   70
        BYTE   W03
        BYTE                   71
        BYTE   W06
        BYTE                   72
        BYTE   W06
        BYTE                   74
        BYTE   W03
        BYTE                   75
        BYTE   W03
        BYTE                   76
        BYTE   W09
        BYTE                   77
        BYTE   W03
        BYTE                   78
        BYTE   W03
        BYTE                   79
        BYTE   W03
        BYTE                   80
        BYTE   W06
        BYTE                   81
        BYTE   W06
        BYTE                   82
        BYTE   W03
        BYTE                   83
        BYTE   W06
        BYTE                   85
        BYTE   W03
        BYTE                   86
        BYTE   W03
        BYTE                   87
        BYTE   W03
        BYTE                   86
        BYTE   W03
        BYTE   PEND
// 030   ----------------------------------------
FortuneRavine_2_30:
        BYTE           VOL     85
        BYTE   W03
        BYTE                   84
        BYTE   W03
        BYTE                   83
        BYTE   W06
        BYTE                   82
        BYTE   W03
        BYTE                   53
        BYTE   W03
        BYTE                   54
        BYTE   W07
        BYTE                   55
        BYTE   W03
        BYTE                   56
        BYTE   W06
        BYTE                   57
        BYTE   W09
        BYTE                   58
        BYTE   W03
        BYTE                   59
        BYTE   W02
        BYTE           N48     Dn3   v107
        BYTE   W01
        BYTE           VOL     60
        BYTE   W03
        BYTE                   61
        BYTE   W12
        BYTE                   62
        BYTE   W03
        BYTE                   63
        BYTE   W03
        BYTE                   64
        BYTE   W03
        BYTE                   65
        BYTE   W09
        BYTE                   66
        BYTE   W06
        BYTE                   67
        BYTE   W03
        BYTE                   68
        BYTE   W05
        BYTE   PEND
// 031   ----------------------------------------
FortuneRavine_2_31:
        BYTE           VOL     69
        BYTE           N96     En3   v107
        BYTE   W06
        BYTE           VOL     70
        BYTE   W04
        BYTE                   71
        BYTE   W08
        BYTE                   72
        BYTE   W06
        BYTE                   73
        BYTE   W03
        BYTE                   74
        BYTE   W04
        BYTE                   75
        BYTE   W03
        BYTE                   76
        BYTE   W11
        BYTE                   77
        BYTE   W03
        BYTE                   78
        BYTE   W04
        BYTE                   79
        BYTE   W05
        BYTE                   80
        BYTE   W06
        BYTE                   81
        BYTE   W06
        BYTE                   82
        BYTE   W06
        BYTE                   83
        BYTE   W06
        BYTE                   84
        BYTE   W03
        BYTE                   85
        BYTE   W03
        BYTE                   86
        BYTE   W03
        BYTE                   87
        BYTE   W06
        BYTE   PEND
// 032   ----------------------------------------
FortuneRavine_2_32:
        BYTE           VOL     84
        BYTE           N96     Dn3   v107
        BYTE   W03
        BYTE           VOL     83
        BYTE   W04
        BYTE                   82
        BYTE   W03
        BYTE                   81
        BYTE   W05
        BYTE                   80
        BYTE   W06
        BYTE                   79
        BYTE   W03
        BYTE                   78
        BYTE   W03
        BYTE                   77
        BYTE   W01
        BYTE                   76
        BYTE   W09
        BYTE                   75
        BYTE   W02
        BYTE                   74
        BYTE   W03
        BYTE                   73
        BYTE   W03
        BYTE                   72
        BYTE   W04
        BYTE                   71
        BYTE   W06
        BYTE                   70
        BYTE   W02
        BYTE                   69
        BYTE   W06
        BYTE                   68
        BYTE   W01
        BYTE                   67
        BYTE   W03
        BYTE                   66
        BYTE   W06
        BYTE                   65
        BYTE   W05
        BYTE                   64
        BYTE   W03
        BYTE                   63
        BYTE   W03
        BYTE                   62
        BYTE   W03
        BYTE                   65
        BYTE   W09
        BYTE   PEND
// 033   ----------------------------------------
FortuneRavine_2_33:
        BYTE           VOL     66
        BYTE           N96     Gn2   v107
        BYTE   W04
        BYTE           VOL     67
        BYTE   W03
        BYTE                   68
        BYTE   W05
        BYTE                   69
        BYTE   W06
        BYTE                   70
        BYTE   W03
        BYTE                   71
        BYTE   W07
        BYTE                   72
        BYTE   W06
        BYTE                   73
        BYTE   W03
        BYTE                   74
        BYTE   W03
        BYTE                   75
        BYTE   W03
        BYTE                   76
        BYTE   W12
        BYTE                   77
        BYTE   W03
        BYTE                   78
        BYTE   W03
        BYTE                   79
        BYTE   W05
        BYTE                   80
        BYTE   W06
        BYTE                   81
        BYTE   W06
        BYTE                   82
        BYTE   W04
        BYTE                   83
        BYTE   W08
        BYTE                   84
        BYTE   W01
        BYTE                   85
        BYTE   W03
        BYTE                   86
        BYTE   W02
        BYTE   PEND
// 034   ----------------------------------------
FortuneRavine_2_34:
        BYTE           N96     Dn3   v107
        BYTE   W01
        BYTE           VOL     87
        BYTE   W05
        BYTE                   84
        BYTE   W01
        BYTE                   83
        BYTE   W06
        BYTE                   82
        BYTE   W03
        BYTE                   81
        BYTE   W06
        BYTE                   80
        BYTE   W06
        BYTE                   79
        BYTE   W03
        BYTE                   78
        BYTE   W03
        BYTE                   77
        BYTE   W03
        BYTE                   76
        BYTE   W09
        BYTE                   75
        BYTE   W02
        BYTE                   74
        BYTE   W04
        BYTE                   73
        BYTE   W03
        BYTE                   72
        BYTE   W06
        BYTE                   71
        BYTE   W06
        BYTE                   70
        BYTE   W02
        BYTE                   69
        BYTE   W07
        BYTE                   68
        BYTE   W02
        BYTE                   67
        BYTE   W04
        BYTE                   66
        BYTE   W06
        BYTE                   65
        BYTE   W06
        BYTE                   64
        BYTE   W02
        BYTE   PEND
// 035   ----------------------------------------
        BYTE   PATT
         POIN2  FortuneRavine_2_7
// 036   ----------------------------------------
        BYTE   PATT
         POIN2  FortuneRavine_2_8
// 037   ----------------------------------------
        BYTE   W96
// 038   ----------------------------------------
        BYTE   W96
// 039   ----------------------------------------
        BYTE   W96
// 040   ----------------------------------------
        BYTE   W96
// 041   ----------------------------------------
        BYTE   W96
// 042   ----------------------------------------
        BYTE   W96
// 043   ----------------------------------------
        BYTE   W96
// 044   ----------------------------------------
        BYTE   PATT
         POIN2  FortuneRavine_2_16
// 045   ----------------------------------------
        BYTE   PATT
         POIN2  FortuneRavine_2_17
// 046   ----------------------------------------
        BYTE   PATT
         POIN2  FortuneRavine_2_18
// 047   ----------------------------------------
        BYTE   PATT
         POIN2  FortuneRavine_2_19
// 048   ----------------------------------------
        BYTE   PATT
         POIN2  FortuneRavine_2_20
// 049   ----------------------------------------
        BYTE   PATT
         POIN2  FortuneRavine_2_21
// 050   ----------------------------------------
        BYTE   W84
        BYTE           EOT     En3
        BYTE   W12
// 051   ----------------------------------------
        BYTE   PATT
         POIN2  FortuneRavine_2_19
// 052   ----------------------------------------
        BYTE   PATT
         POIN2  FortuneRavine_2_20
// 053   ----------------------------------------
        BYTE   PATT
         POIN2  FortuneRavine_2_25
// 054   ----------------------------------------
        BYTE   PATT
         POIN2  FortuneRavine_2_26
// 055   ----------------------------------------
        BYTE   PATT
         POIN2  FortuneRavine_2_27
// 056   ----------------------------------------
        BYTE   PATT
         POIN2  FortuneRavine_2_26
// 057   ----------------------------------------
        BYTE   PATT
         POIN2  FortuneRavine_2_29
// 058   ----------------------------------------
        BYTE   PATT
         POIN2  FortuneRavine_2_30
// 059   ----------------------------------------
        BYTE   PATT
         POIN2  FortuneRavine_2_31
// 060   ----------------------------------------
        BYTE   PATT
         POIN2  FortuneRavine_2_32
// 061   ----------------------------------------
        BYTE   PATT
         POIN2  FortuneRavine_2_33
// 062   ----------------------------------------
        BYTE   PATT
         POIN2  FortuneRavine_2_34
// 063   ----------------------------------------
        BYTE   PATT
         POIN2  FortuneRavine_2_7
// 064   ----------------------------------------
        BYTE   PATT
         POIN2  FortuneRavine_2_8
// 065   ----------------------------------------
        BYTE   FINE

//****************** Track 3 (Midi-Chn.3) ******************//

FortuneRavine_3:
        BYTE   KEYSH   FortuneRavine_key+0
// 000   ----------------------------------------
        BYTE   W24
// 001   ----------------------------------------
        BYTE           PAN     c_v+36
        BYTE           VOL     87
        BYTE           VOICE   48
        BYTE   W90
        BYTE           VOL     83
        BYTE   W01
        BYTE                   84
        BYTE   W02
        BYTE                   85
        BYTE   W01
        BYTE                   86
        BYTE   W02
// 002   ----------------------------------------
FortuneRavine_3_2:
        BYTE           VOL     85
        BYTE           N96     Dn2   v107
        BYTE   W03
        BYTE           VOL     84
        BYTE   W03
        BYTE                   83
        BYTE   W06
        BYTE                   82
        BYTE   W03
        BYTE                   81
        BYTE   W06
        BYTE                   80
        BYTE   W06
        BYTE                   79
        BYTE   W03
        BYTE                   78
        BYTE   W03
        BYTE                   77
        BYTE   W03
        BYTE                   76
        BYTE   W09
        BYTE                   75
        BYTE   W01
        BYTE                   74
        BYTE   W03
        BYTE                   73
        BYTE   W05
        BYTE                   72
        BYTE   W04
        BYTE                   71
        BYTE   W08
        BYTE                   70
        BYTE   W01
        BYTE                   69
        BYTE   W08
        BYTE                   68
        BYTE   W01
        BYTE                   67
        BYTE   W03
        BYTE                   66
        BYTE   W08
        BYTE                   65
        BYTE   W04
        BYTE                   64
        BYTE   W05
        BYTE   PEND
// 003   ----------------------------------------
        BYTE           N96     Cn2
        BYTE   W01
        BYTE           VOL     65
        BYTE   W05
        BYTE                   66
        BYTE   W07
        BYTE                   67
        BYTE   W03
        BYTE                   68
        BYTE   W03
        BYTE                   69
        BYTE   W06
        BYTE                   70
        BYTE   W02
        BYTE                   71
        BYTE   W07
        BYTE                   72
        BYTE   W06
        BYTE                   73
        BYTE   W03
        BYTE                   74
        BYTE   W03
        BYTE                   75
        BYTE   W02
        BYTE                   76
        BYTE   W09
        BYTE                   77
        BYTE   W04
        BYTE                   78
        BYTE   W03
        BYTE                   79
        BYTE   W02
        BYTE                   80
        BYTE   W07
        BYTE                   81
        BYTE   W05
        BYTE                   82
        BYTE   W04
        BYTE                   83
        BYTE   W05
        BYTE                   84
        BYTE   W04
        BYTE                   86
        BYTE   W02
        BYTE                   85
        BYTE   W03
// 004   ----------------------------------------
        BYTE                   84
        BYTE           N96     Dn1
        BYTE   W03
        BYTE           VOL     83
        BYTE   W04
        BYTE                   82
        BYTE   W03
        BYTE                   81
        BYTE   W05
        BYTE                   80
        BYTE   W06
        BYTE                   79
        BYTE   W03
        BYTE                   78
        BYTE   W03
        BYTE                   77
        BYTE   W01
        BYTE                   76
        BYTE   W09
        BYTE                   75
        BYTE   W02
        BYTE                   74
        BYTE   W03
        BYTE                   73
        BYTE   W03
        BYTE                   72
        BYTE   W04
        BYTE                   71
        BYTE   W06
        BYTE                   70
        BYTE   W02
        BYTE                   69
        BYTE   W06
        BYTE                   68
        BYTE   W01
        BYTE                   67
        BYTE   W03
        BYTE                   66
        BYTE   W06
        BYTE                   65
        BYTE   W05
        BYTE                   64
        BYTE   W03
        BYTE                   63
        BYTE   W03
        BYTE                   62
        BYTE   W03
        BYTE                   61
        BYTE   W03
        BYTE                   62
        BYTE   W01
        BYTE                   63
        BYTE   W05
// 005   ----------------------------------------
        BYTE                   87
        BYTE           N96     Gn1
        BYTE   W01
        BYTE           VOL     65
        BYTE   W06
        BYTE                   66
        BYTE   W08
        BYTE                   67
        BYTE   W03
        BYTE                   68
        BYTE   W03
        BYTE                   69
        BYTE   W06
        BYTE                   70
        BYTE   W03
        BYTE                   71
        BYTE   W07
        BYTE                   72
        BYTE   W05
        BYTE                   73
        BYTE   W06
        BYTE                   74
        BYTE   W01
        BYTE                   75
        BYTE   W03
        BYTE                   76
        BYTE   W09
        BYTE                   77
        BYTE   W03
        BYTE                   78
        BYTE   W05
        BYTE                   79
        BYTE   W01
        BYTE                   80
        BYTE   W08
        BYTE                   81
        BYTE   W06
        BYTE                   82
        BYTE   W03
        BYTE                   83
        BYTE   W06
        BYTE                   84
        BYTE   W03
// 006   ----------------------------------------
        BYTE                   85
        BYTE           N96     An1
        BYTE   W04
        BYTE           VOL     84
        BYTE   W03
        BYTE                   83
        BYTE   W06
        BYTE                   82
        BYTE   W03
        BYTE                   81
        BYTE   W06
        BYTE                   80
        BYTE   W06
        BYTE                   79
        BYTE   W03
        BYTE                   78
        BYTE   W03
        BYTE                   77
        BYTE   W03
        BYTE                   76
        BYTE   W09
        BYTE                   75
        BYTE   W02
        BYTE                   74
        BYTE   W04
        BYTE                   73
        BYTE   W03
        BYTE                   72
        BYTE   W06
        BYTE                   71
        BYTE   W06
        BYTE                   70
        BYTE   W02
        BYTE                   69
        BYTE   W07
        BYTE                   68
        BYTE   W02
        BYTE                   67
        BYTE   W04
        BYTE                   66
        BYTE   W06
        BYTE                   65
        BYTE   W06
        BYTE                   64
        BYTE   W02
// 007   ----------------------------------------
        BYTE                   63
        BYTE           N96     Cn2
        BYTE   W03
        BYTE           VOL     64
        BYTE   W03
        BYTE                   65
        BYTE   W06
        BYTE                   66
        BYTE   W06
        BYTE                   67
        BYTE   W03
        BYTE                   68
        BYTE   W01
        BYTE                   69
        BYTE   W08
        BYTE                   70
        BYTE   W01
        BYTE                   71
        BYTE   W08
        BYTE                   72
        BYTE   W04
        BYTE                   73
        BYTE   W03
        BYTE                   74
        BYTE   W05
        BYTE                   76
        BYTE   W09
        BYTE                   77
        BYTE   W03
        BYTE                   78
        BYTE   W03
        BYTE                   79
        BYTE   W03
        BYTE                   80
        BYTE   W06
        BYTE                   81
        BYTE   W06
        BYTE                   82
        BYTE   W01
        BYTE                   83
        BYTE   W08
        BYTE                   84
        BYTE   W01
        BYTE                   85
        BYTE   W03
        BYTE                   86
        BYTE   W02
// 008   ----------------------------------------
        BYTE                   87
        BYTE           N96     Dn2
        BYTE   W09
        BYTE           VOL     86
        BYTE   W03
        BYTE                   85
        BYTE   W03
        BYTE                   84
        BYTE   W03
        BYTE                   83
        BYTE   W06
        BYTE                   82
        BYTE   W03
        BYTE                   81
        BYTE   W03
        BYTE                   80
        BYTE   W06
        BYTE                   79
        BYTE   W03
        BYTE                   78
        BYTE   W03
        BYTE                   77
        BYTE   W03
        BYTE                   76
        BYTE   W09
        BYTE                   75
        BYTE   W03
        BYTE                   74
        BYTE   W03
        BYTE                   73
        BYTE   W03
        BYTE                   72
        BYTE   W03
        BYTE                   71
        BYTE   W09
        BYTE                   69
        BYTE   W06
        BYTE                   68
        BYTE   W03
        BYTE                   67
        BYTE   W03
        BYTE                   66
        BYTE   W06
        BYTE                   65
        BYTE   W03
// 009   ----------------------------------------
        BYTE   W96
// 010   ----------------------------------------
        BYTE   W96
// 011   ----------------------------------------
        BYTE   W96
// 012   ----------------------------------------
        BYTE   W96
// 013   ----------------------------------------
        BYTE   W96
// 014   ----------------------------------------
        BYTE   W96
// 015   ----------------------------------------
        BYTE   W96
// 016   ----------------------------------------
FortuneRavine_3_16:
        BYTE           PAN     c_v-64
        BYTE           VOL     39
        BYTE           VOICE   61
        BYTE   W96
        BYTE   PEND
// 017   ----------------------------------------
FortuneRavine_3_17:
        BYTE   W24
        BYTE           N06     As3   v127
        BYTE   W06
        BYTE                   Cn4
        BYTE   W06
        BYTE           N15     Dn4
        BYTE   W18
        BYTE           N06
        BYTE   W06
        BYTE                   En4
        BYTE   W06
        BYTE           N30     Fn4
        BYTE   W30
        BYTE   PEND
// 018   ----------------------------------------
FortuneRavine_3_18:
        BYTE   W06
        BYTE           N06     Fn4   v127
        BYTE   W06
        BYTE                   Gn4
        BYTE   W06
        BYTE           N78     An4
        BYTE   W78
        BYTE   PEND
// 019   ----------------------------------------
FortuneRavine_3_19:
        BYTE   W24
        BYTE           N54     En4   v127
        BYTE   W54
        BYTE           N06     Dn4
        BYTE   W06
        BYTE                   Cn4
        BYTE   W06
        BYTE           N12     Bn3
        BYTE   W06
        BYTE   PEND
// 020   ----------------------------------------
FortuneRavine_3_20:
        BYTE   W06
        BYTE           N06     Bn3   v127
        BYTE   W06
        BYTE                   Cn4
        BYTE   W06
        BYTE                   Dn4
        BYTE   W06
        BYTE           N48     Gn3
        BYTE   W48
        BYTE           N06
        BYTE   W06
        BYTE                   An3
        BYTE   W06
        BYTE                   Bn3
        BYTE   W06
        BYTE           N12
        BYTE   W06
        BYTE   PEND
// 021   ----------------------------------------
FortuneRavine_3_21:
        BYTE   W06
        BYTE           N06     Cn4   v127
        BYTE   W06
        BYTE                   Gn3
        BYTE   W06
        BYTE                   An3
        BYTE   W06
        BYTE           TIE     En3
        BYTE   W72
        BYTE   PEND
// 022   ----------------------------------------
        BYTE   W96
// 023   ----------------------------------------
FortuneRavine_3_23:
        BYTE           EOT     En3
        BYTE   W24
        BYTE           N54     En4   v127
        BYTE   W54
        BYTE           N06     Dn4
        BYTE   W06
        BYTE                   Cn4
        BYTE   W06
        BYTE           N12     Bn3
        BYTE   W06
        BYTE   PEND
// 024   ----------------------------------------
        BYTE   PATT
         POIN2  FortuneRavine_3_20
// 025   ----------------------------------------
FortuneRavine_3_25:
        BYTE   W06
        BYTE           N06     Cn4   v127
        BYTE   W06
        BYTE                   Gn3
        BYTE   W06
        BYTE                   An3
        BYTE   W06
        BYTE                   Bn3
        BYTE   W06
        BYTE                   Cn4
        BYTE   W06
        BYTE                   Dn4
        BYTE   W06
        BYTE           N12     En4
        BYTE   W12
        BYTE           N06
        BYTE   W06
        BYTE                   Fs4
        BYTE   W06
        BYTE           N12     Gn4
        BYTE   W12
        BYTE           N06     An4
        BYTE   W06
        BYTE                   Fs4
        BYTE   W06
        BYTE           N12     Gn4
        BYTE   W06
        BYTE   PEND
// 026   ----------------------------------------
FortuneRavine_3_26:
        BYTE   W06
        BYTE           N06     Gn4   v127
        BYTE   W06
        BYTE                   An4
        BYTE   W06
        BYTE           N78     Bn4
        BYTE   W78
        BYTE   PEND
// 027   ----------------------------------------
FortuneRavine_3_27:
        BYTE   W24
        BYTE           N06     Bn3   v127
        BYTE   W06
        BYTE                   Cn4
        BYTE   W06
        BYTE                   Dn4
        BYTE   W06
        BYTE           N12     En4
        BYTE   W12
        BYTE           N06
        BYTE   W06
        BYTE                   Fs4
        BYTE   W06
        BYTE           N12     Gn4
        BYTE   W12
        BYTE           N06     An4
        BYTE   W06
        BYTE                   Fs4
        BYTE   W06
        BYTE           N12     Gn4
        BYTE   W06
        BYTE   PEND
// 028   ----------------------------------------
        BYTE   PATT
         POIN2  FortuneRavine_3_26
// 029   ----------------------------------------
FortuneRavine_3_29:
        BYTE           PAN     c_v+36
        BYTE           VOL     59
        BYTE           VOICE   48
        BYTE   W01
        BYTE           VOL     46
        BYTE           N44     An2   v107   gtp3
        BYTE   W03
        BYTE           VOL     47
        BYTE   W03
        BYTE                   48
        BYTE   W03
        BYTE                   49
        BYTE   W03
        BYTE                   50
        BYTE   W11
        BYTE                   51
        BYTE   W03
        BYTE                   52
        BYTE   W04
        BYTE                   53
        BYTE   W03
        BYTE                   54
        BYTE   W08
        BYTE                   55
        BYTE   W03
        BYTE                   56
        BYTE   W03
        BYTE           N48     Gn2
        BYTE   W03
        BYTE           VOL     57
        BYTE   W09
        BYTE                   58
        BYTE   W03
        BYTE                   59
        BYTE   W03
        BYTE                   60
        BYTE   W03
        BYTE                   61
        BYTE   W10
        BYTE                   62
        BYTE   W03
        BYTE                   63
        BYTE   W05
        BYTE                   64
        BYTE   W03
        BYTE                   65
        BYTE   W06
        BYTE   PEND
// 030   ----------------------------------------
FortuneRavine_3_30:
        BYTE           N96     Dn2   v107
        BYTE   W01
        BYTE           VOL     66
        BYTE   W06
        BYTE                   67
        BYTE   W03
        BYTE                   68
        BYTE   W05
        BYTE                   69
        BYTE   W07
        BYTE                   70
        BYTE   W03
        BYTE                   71
        BYTE   W08
        BYTE                   72
        BYTE   W06
        BYTE                   73
        BYTE   W03
        BYTE                   74
        BYTE   W12
        BYTE                   73
        BYTE   W06
        BYTE                   72
        BYTE   W06
        BYTE                   71
        BYTE   W06
        BYTE                   70
        BYTE   W06
        BYTE                   68
        BYTE   W06
        BYTE                   69
        BYTE   W06
        BYTE                   70
        BYTE   W06
        BYTE   PEND
// 031   ----------------------------------------
FortuneRavine_3_31:
        BYTE           VOL     71
        BYTE           N96     Cn2   v107
        BYTE   W06
        BYTE           VOL     72
        BYTE   W12
        BYTE                   74
        BYTE   W06
        BYTE                   75
        BYTE   W06
        BYTE                   76
        BYTE   W12
        BYTE                   77
        BYTE   W06
        BYTE                   79
        BYTE   W06
        BYTE                   80
        BYTE   W12
        BYTE                   81
        BYTE   W06
        BYTE                   82
        BYTE   W06
        BYTE                   83
        BYTE   W06
        BYTE                   84
        BYTE   W06
        BYTE                   85
        BYTE   W06
        BYTE   PEND
// 032   ----------------------------------------
FortuneRavine_3_32:
        BYTE           VOL     87
        BYTE           N96     Dn1   v107
        BYTE   W12
        BYTE           VOL     85
        BYTE   W06
        BYTE                   83
        BYTE   W06
        BYTE                   82
        BYTE   W06
        BYTE                   81
        BYTE   W06
        BYTE                   80
        BYTE   W06
        BYTE                   79
        BYTE   W06
        BYTE                   78
        BYTE   W06
        BYTE                   76
        BYTE   W12
        BYTE                   74
        BYTE   W06
        BYTE                   73
        BYTE   W06
        BYTE                   72
        BYTE   W06
        BYTE                   71
        BYTE   W06
        BYTE                   68
        BYTE   W06
        BYTE   PEND
// 033   ----------------------------------------
FortuneRavine_3_33:
        BYTE           VOL     69
        BYTE           N96     Gn1   v107
        BYTE   W06
        BYTE           VOL     70
        BYTE   W06
        BYTE                   71
        BYTE   W06
        BYTE                   72
        BYTE   W06
        BYTE                   73
        BYTE   W06
        BYTE                   75
        BYTE   W06
        BYTE                   76
        BYTE   W12
        BYTE                   77
        BYTE   W06
        BYTE                   79
        BYTE   W06
        BYTE                   80
        BYTE   W06
        BYTE                   81
        BYTE   W12
        BYTE                   82
        BYTE   W06
        BYTE                   83
        BYTE   W06
        BYTE                   86
        BYTE   W06
        BYTE   PEND
// 034   ----------------------------------------
FortuneRavine_3_34:
        BYTE           VOL     84
        BYTE           N96     An1   v107
        BYTE   W06
        BYTE           VOL     83
        BYTE   W06
        BYTE                   82
        BYTE   W06
        BYTE                   81
        BYTE   W06
        BYTE                   80
        BYTE   W06
        BYTE                   79
        BYTE   W06
        BYTE                   78
        BYTE   W06
        BYTE                   76
        BYTE   W12
        BYTE                   75
        BYTE   W06
        BYTE                   74
        BYTE   W06
        BYTE                   72
        BYTE   W06
        BYTE                   71
        BYTE   W12
        BYTE                   69
        BYTE   W12
        BYTE   PEND
// 035   ----------------------------------------
FortuneRavine_3_35:
        BYTE           VOL     67
        BYTE           N96     Cn2   v107
        BYTE   W06
        BYTE           VOL     68
        BYTE   W06
        BYTE                   69
        BYTE   W06
        BYTE                   71
        BYTE   W12
        BYTE                   72
        BYTE   W06
        BYTE                   74
        BYTE   W06
        BYTE                   76
        BYTE   W12
        BYTE                   77
        BYTE   W06
        BYTE                   79
        BYTE   W06
        BYTE                   80
        BYTE   W06
        BYTE                   81
        BYTE   W06
        BYTE                   82
        BYTE   W06
        BYTE                   83
        BYTE   W06
        BYTE                   84
        BYTE   W06
        BYTE   PEND
// 036   ----------------------------------------
FortuneRavine_3_36:
        BYTE           VOL     86
        BYTE           N96     Dn2   v107
        BYTE   W06
        BYTE           VOL     83
        BYTE   W12
        BYTE                   81
        BYTE   W06
        BYTE                   80
        BYTE   W06
        BYTE                   79
        BYTE   W06
        BYTE                   78
        BYTE   W06
        BYTE                   76
        BYTE   W12
        BYTE                   74
        BYTE   W06
        BYTE                   72
        BYTE   W06
        BYTE                   71
        BYTE   W12
        BYTE                   69
        BYTE   W06
        BYTE                   68
        BYTE   W06
        BYTE                   66
        BYTE   W06
        BYTE   PEND
// 037   ----------------------------------------
        BYTE   W96
// 038   ----------------------------------------
        BYTE   W96
// 039   ----------------------------------------
        BYTE   W96
// 040   ----------------------------------------
        BYTE   W96
// 041   ----------------------------------------
        BYTE   W96
// 042   ----------------------------------------
        BYTE   W96
// 043   ----------------------------------------
        BYTE   W96
// 044   ----------------------------------------
        BYTE   PATT
         POIN2  FortuneRavine_3_16
// 045   ----------------------------------------
        BYTE   PATT
         POIN2  FortuneRavine_3_17
// 046   ----------------------------------------
        BYTE   PATT
         POIN2  FortuneRavine_3_18
// 047   ----------------------------------------
        BYTE   PATT
         POIN2  FortuneRavine_3_19
// 048   ----------------------------------------
        BYTE   PATT
         POIN2  FortuneRavine_3_20
// 049   ----------------------------------------
        BYTE   PATT
         POIN2  FortuneRavine_3_21
// 050   ----------------------------------------
        BYTE   W96
// 051   ----------------------------------------
        BYTE   PATT
         POIN2  FortuneRavine_3_23
// 052   ----------------------------------------
        BYTE   PATT
         POIN2  FortuneRavine_3_20
// 053   ----------------------------------------
        BYTE   PATT
         POIN2  FortuneRavine_3_25
// 054   ----------------------------------------
        BYTE   PATT
         POIN2  FortuneRavine_3_26
// 055   ----------------------------------------
        BYTE   PATT
         POIN2  FortuneRavine_3_27
// 056   ----------------------------------------
        BYTE   PATT
         POIN2  FortuneRavine_3_26
// 057   ----------------------------------------
        BYTE   PATT
         POIN2  FortuneRavine_3_29
// 058   ----------------------------------------
        BYTE   PATT
         POIN2  FortuneRavine_3_30
// 059   ----------------------------------------
        BYTE   PATT
         POIN2  FortuneRavine_3_31
// 060   ----------------------------------------
        BYTE   PATT
         POIN2  FortuneRavine_3_32
// 061   ----------------------------------------
        BYTE   PATT
         POIN2  FortuneRavine_3_33
// 062   ----------------------------------------
        BYTE   PATT
         POIN2  FortuneRavine_3_34
// 063   ----------------------------------------
        BYTE   PATT
         POIN2  FortuneRavine_3_35
// 064   ----------------------------------------
        BYTE   PATT
         POIN2  FortuneRavine_3_36
// 065   ----------------------------------------
        BYTE   FINE

//****************** Track 4 (Midi-Chn.4) ******************//

FortuneRavine_4:
        BYTE   KEYSH   FortuneRavine_key+0
// 000   ----------------------------------------
        BYTE   W24
// 001   ----------------------------------------
        BYTE           PAN     c_v-54
        BYTE           VOL     69
        BYTE           VOICE   48
        BYTE   W96
// 002   ----------------------------------------
        BYTE   W96
// 003   ----------------------------------------
        BYTE   W96
// 004   ----------------------------------------
        BYTE   W96
// 005   ----------------------------------------
        BYTE   W96
// 006   ----------------------------------------
        BYTE   W96
// 007   ----------------------------------------
        BYTE   W96
// 008   ----------------------------------------
        BYTE   W96
// 009   ----------------------------------------
FortuneRavine_4_9:
        BYTE           N04     Fs3   v127
        BYTE   W06
        BYTE                   Fs3
        BYTE   W06
        BYTE                   Fs3
        BYTE   W06
        BYTE                   En3
        BYTE   W06
        BYTE                   En3   v080
        BYTE   W06
        BYTE                   En3   v070
        BYTE   W06
        BYTE                   En3   v060
        BYTE   W06
        BYTE                   En3   v055
        BYTE   W54
        BYTE   PEND
// 010   ----------------------------------------
FortuneRavine_4_10:
        BYTE           N04     Gn3   v127
        BYTE   W06
        BYTE                   Gn3
        BYTE   W06
        BYTE                   Gn3
        BYTE   W06
        BYTE                   An3
        BYTE   W06
        BYTE                   An3   v080
        BYTE   W06
        BYTE                   An3   v070
        BYTE   W06
        BYTE                   An3   v060
        BYTE   W06
        BYTE                   An3   v055
        BYTE   W54
        BYTE   PEND
// 011   ----------------------------------------
        BYTE   PATT
         POIN2  FortuneRavine_4_9
// 012   ----------------------------------------
        BYTE   PATT
         POIN2  FortuneRavine_4_10
// 013   ----------------------------------------
        BYTE   PATT
         POIN2  FortuneRavine_4_9
// 014   ----------------------------------------
        BYTE   PATT
         POIN2  FortuneRavine_4_10
// 015   ----------------------------------------
FortuneRavine_4_15:
        BYTE           N04     Gn3   v127
        BYTE   W06
        BYTE                   Gn3
        BYTE   W06
        BYTE                   Gn3
        BYTE   W06
        BYTE                   An3
        BYTE   W06
        BYTE                   An3   v080
        BYTE   W06
        BYTE                   An3   v070
        BYTE   W06
        BYTE                   Cn4   v127
        BYTE   W06
        BYTE                   Cn4
        BYTE   W06
        BYTE                   Cn4
        BYTE   W06
        BYTE                   Dn4
        BYTE   W06
        BYTE                   Dn4   v080
        BYTE   W06
        BYTE                   Dn4   v070
        BYTE   W06
        BYTE                   Dn4   v060
        BYTE   W06
        BYTE                   Dn4   v055
        BYTE   W18
        BYTE   PEND
// 016   ----------------------------------------
        BYTE   W96
// 017   ----------------------------------------
        BYTE   PATT
         POIN2  FortuneRavine_4_15
// 018   ----------------------------------------
        BYTE   W96
// 019   ----------------------------------------
FortuneRavine_4_19:
        BYTE           N06     Dn4   v127
        BYTE   W06
        BYTE                   Dn4   v060
        BYTE   W06
        BYTE                   Dn4   v050
        BYTE   W06
        BYTE                   Cn4   v127
        BYTE   W06
        BYTE                   Cn4   v060
        BYTE   W06
        BYTE                   Cn4   v050
        BYTE   W06
        BYTE                   Dn4   v127
        BYTE   W06
        BYTE                   Dn4   v060
        BYTE   W06
        BYTE                   Dn4   v050
        BYTE   W06
        BYTE                   Cn4   v127
        BYTE   W06
        BYTE                   Cn4   v060
        BYTE   W06
        BYTE                   Cn4   v050
        BYTE   W06
        BYTE           N18     Bn3   v127
        BYTE   W18
        BYTE           N06     Bn3   v060
        BYTE   W06
        BYTE   PEND
// 020   ----------------------------------------
        BYTE   PATT
         POIN2  FortuneRavine_4_19
// 021   ----------------------------------------
FortuneRavine_4_21:
        BYTE           N06     Dn4   v127
        BYTE   W18
        BYTE                   Cn4
        BYTE   W18
        BYTE                   Dn4
        BYTE   W18
        BYTE                   Cn4
        BYTE   W18
        BYTE           N18     Bn3
        BYTE   W24
        BYTE   PEND
// 022   ----------------------------------------
FortuneRavine_4_22:
        BYTE           N06     Dn4   v127
        BYTE   W18
        BYTE                   Cn4
        BYTE   W18
        BYTE                   Dn4
        BYTE   W18
        BYTE                   Cn4
        BYTE   W18
        BYTE           N18     Gn4
        BYTE   W24
        BYTE   PEND
// 023   ----------------------------------------
        BYTE   PATT
         POIN2  FortuneRavine_4_21
// 024   ----------------------------------------
        BYTE   PATT
         POIN2  FortuneRavine_4_21
// 025   ----------------------------------------
FortuneRavine_4_25:
        BYTE           N06     En4   v127
        BYTE   W18
        BYTE                   En4
        BYTE   W18
        BYTE                   Dn4
        BYTE   W18
        BYTE                   Dn4
        BYTE   W18
        BYTE           N18
        BYTE   W24
        BYTE   PEND
// 026   ----------------------------------------
FortuneRavine_4_26:
        BYTE           N06     Dn4   v127
        BYTE   W18
        BYTE                   Dn4
        BYTE   W18
        BYTE                   Dn4
        BYTE   W18
        BYTE                   Dn4
        BYTE   W18
        BYTE           N18     Cn4
        BYTE   W24
        BYTE   PEND
// 027   ----------------------------------------
        BYTE   PATT
         POIN2  FortuneRavine_4_25
// 028   ----------------------------------------
        BYTE   PATT
         POIN2  FortuneRavine_4_26
// 029   ----------------------------------------
        BYTE   W96
// 030   ----------------------------------------
        BYTE   W96
// 031   ----------------------------------------
        BYTE   W96
// 032   ----------------------------------------
        BYTE   W96
// 033   ----------------------------------------
        BYTE   W96
// 034   ----------------------------------------
        BYTE   W96
// 035   ----------------------------------------
        BYTE   W96
// 036   ----------------------------------------
        BYTE   W96
// 037   ----------------------------------------
        BYTE   PATT
         POIN2  FortuneRavine_4_9
// 038   ----------------------------------------
        BYTE   PATT
         POIN2  FortuneRavine_4_10
// 039   ----------------------------------------
        BYTE   PATT
         POIN2  FortuneRavine_4_9
// 040   ----------------------------------------
        BYTE   PATT
         POIN2  FortuneRavine_4_10
// 041   ----------------------------------------
        BYTE   PATT
         POIN2  FortuneRavine_4_9
// 042   ----------------------------------------
        BYTE   PATT
         POIN2  FortuneRavine_4_10
// 043   ----------------------------------------
        BYTE   PATT
         POIN2  FortuneRavine_4_15
// 044   ----------------------------------------
        BYTE   W96
// 045   ----------------------------------------
        BYTE   PATT
         POIN2  FortuneRavine_4_15
// 046   ----------------------------------------
        BYTE   W96
// 047   ----------------------------------------
        BYTE   PATT
         POIN2  FortuneRavine_4_19
// 048   ----------------------------------------
        BYTE   PATT
         POIN2  FortuneRavine_4_19
// 049   ----------------------------------------
        BYTE   PATT
         POIN2  FortuneRavine_4_21
// 050   ----------------------------------------
        BYTE   PATT
         POIN2  FortuneRavine_4_22
// 051   ----------------------------------------
        BYTE   PATT
         POIN2  FortuneRavine_4_21
// 052   ----------------------------------------
        BYTE   PATT
         POIN2  FortuneRavine_4_21
// 053   ----------------------------------------
        BYTE   PATT
         POIN2  FortuneRavine_4_25
// 054   ----------------------------------------
        BYTE   PATT
         POIN2  FortuneRavine_4_26
// 055   ----------------------------------------
        BYTE   PATT
         POIN2  FortuneRavine_4_25
// 056   ----------------------------------------
        BYTE   PATT
         POIN2  FortuneRavine_4_26
// 057   ----------------------------------------
        BYTE   W96
// 058   ----------------------------------------
        BYTE   W96
// 059   ----------------------------------------
        BYTE   W96
// 060   ----------------------------------------
        BYTE   W96
// 061   ----------------------------------------
        BYTE   W96
// 062   ----------------------------------------
        BYTE   W96
// 063   ----------------------------------------
        BYTE   W96
// 064   ----------------------------------------
        BYTE   W96
// 065   ----------------------------------------
        BYTE   FINE

//****************** Track 5 (Midi-Chn.5) ******************//

FortuneRavine_5:
        BYTE   KEYSH   FortuneRavine_key+0
// 000   ----------------------------------------
        BYTE   W24
// 001   ----------------------------------------
        BYTE           PAN     c_v+56
        BYTE           VOL     69
        BYTE           VOICE   48
        BYTE   W96
// 002   ----------------------------------------
        BYTE   W96
// 003   ----------------------------------------
        BYTE   W96
// 004   ----------------------------------------
        BYTE   W96
// 005   ----------------------------------------
        BYTE   W96
// 006   ----------------------------------------
        BYTE   W96
// 007   ----------------------------------------
        BYTE   W96
// 008   ----------------------------------------
        BYTE   W96
// 009   ----------------------------------------
FortuneRavine_5_9:
        BYTE           N04     Dn3   v127
        BYTE   W06
        BYTE                   Dn3
        BYTE   W06
        BYTE                   Dn3
        BYTE   W06
        BYTE                   Cn3
        BYTE   W06
        BYTE                   Cn3   v080
        BYTE   W06
        BYTE                   Cn3   v070
        BYTE   W06
        BYTE                   Cn3   v060
        BYTE   W06
        BYTE                   Cn3   v055
        BYTE   W54
        BYTE   PEND
// 010   ----------------------------------------
FortuneRavine_5_10:
        BYTE           N04     En3   v127
        BYTE   W06
        BYTE                   En3
        BYTE   W06
        BYTE                   En3
        BYTE   W06
        BYTE                   Fs3
        BYTE   W06
        BYTE                   Fs3   v080
        BYTE   W06
        BYTE                   Fs3   v070
        BYTE   W06
        BYTE                   Fs3   v060
        BYTE   W06
        BYTE                   Fs3   v055
        BYTE   W54
        BYTE   PEND
// 011   ----------------------------------------
        BYTE   PATT
         POIN2  FortuneRavine_5_9
// 012   ----------------------------------------
        BYTE   PATT
         POIN2  FortuneRavine_5_10
// 013   ----------------------------------------
        BYTE   PATT
         POIN2  FortuneRavine_5_9
// 014   ----------------------------------------
        BYTE   PATT
         POIN2  FortuneRavine_5_10
// 015   ----------------------------------------
FortuneRavine_5_15:
        BYTE           N04     Ds3   v127
        BYTE   W06
        BYTE                   Ds3
        BYTE   W06
        BYTE                   Ds3
        BYTE   W06
        BYTE                   Fn3
        BYTE   W06
        BYTE                   Fn3   v080
        BYTE   W06
        BYTE                   Fn3   v070
        BYTE   W06
        BYTE                   An3   v127
        BYTE   W06
        BYTE                   An3
        BYTE   W06
        BYTE                   An3
        BYTE   W06
        BYTE                   Bn3
        BYTE   W06
        BYTE                   Bn3   v080
        BYTE   W06
        BYTE                   Bn3   v070
        BYTE   W06
        BYTE                   Bn3   v060
        BYTE   W06
        BYTE                   Bn3   v055
        BYTE   W18
        BYTE   PEND
// 016   ----------------------------------------
        BYTE   W96
// 017   ----------------------------------------
FortuneRavine_5_17:
        BYTE           N04     Ds3   v127
        BYTE   W06
        BYTE                   Ds3
        BYTE   W06
        BYTE                   Ds3
        BYTE   W06
        BYTE                   Fn3
        BYTE   W06
        BYTE                   Fs3   v080
        BYTE   W06
        BYTE                   Fs3   v070
        BYTE   W06
        BYTE                   An3   v127
        BYTE   W06
        BYTE                   An3
        BYTE   W06
        BYTE                   An3
        BYTE   W06
        BYTE                   Bn3
        BYTE   W06
        BYTE                   Bn3   v080
        BYTE   W06
        BYTE                   Bn3   v070
        BYTE   W06
        BYTE                   Bn3   v060
        BYTE   W06
        BYTE                   Bn3   v055
        BYTE   W18
        BYTE   PEND
// 018   ----------------------------------------
        BYTE   W96
// 019   ----------------------------------------
FortuneRavine_5_19:
        BYTE           N06     An3   v127
        BYTE   W06
        BYTE                   An3   v060
        BYTE   W06
        BYTE                   An3   v050
        BYTE   W06
        BYTE                   Gn3   v127
        BYTE   W06
        BYTE                   Gn3   v060
        BYTE   W06
        BYTE                   Gn3   v050
        BYTE   W06
        BYTE                   An3   v127
        BYTE   W06
        BYTE                   An3   v060
        BYTE   W06
        BYTE                   An3   v050
        BYTE   W06
        BYTE                   Gn3   v127
        BYTE   W06
        BYTE                   Gn3   v060
        BYTE   W06
        BYTE                   Gn3   v050
        BYTE   W06
        BYTE           N18     Gn3   v127
        BYTE   W18
        BYTE           N06     Gn3   v060
        BYTE   W06
        BYTE   PEND
// 020   ----------------------------------------
FortuneRavine_5_20:
        BYTE           N06     An3   v127
        BYTE   W06
        BYTE                   An3   v060
        BYTE   W06
        BYTE                   An3   v050
        BYTE   W06
        BYTE                   Gn3   v127
        BYTE   W06
        BYTE                   Gn3   v060
        BYTE   W06
        BYTE                   Gn3   v050
        BYTE   W06
        BYTE                   An3   v127
        BYTE   W06
        BYTE                   An3   v060
        BYTE   W06
        BYTE                   An3   v050
        BYTE   W06
        BYTE                   Gn3   v127
        BYTE   W06
        BYTE                   Gn3   v060
        BYTE   W06
        BYTE                   Gn3   v050
        BYTE   W06
        BYTE           N18     An3   v127
        BYTE   W18
        BYTE           N06     An3   v060
        BYTE   W06
        BYTE   PEND
// 021   ----------------------------------------
FortuneRavine_5_21:
        BYTE           N06     An3   v127
        BYTE   W18
        BYTE                   Gn3
        BYTE   W18
        BYTE                   An3
        BYTE   W18
        BYTE                   Gn3
        BYTE   W18
        BYTE           N18
        BYTE   W24
        BYTE   PEND
// 022   ----------------------------------------
FortuneRavine_5_22:
        BYTE           N06     An3   v127
        BYTE   W18
        BYTE                   Gn3
        BYTE   W18
        BYTE                   An3
        BYTE   W18
        BYTE                   Gn3
        BYTE   W18
        BYTE           N18     En4
        BYTE   W24
        BYTE   PEND
// 023   ----------------------------------------
        BYTE   PATT
         POIN2  FortuneRavine_5_21
// 024   ----------------------------------------
FortuneRavine_5_24:
        BYTE           N06     An3   v127
        BYTE   W18
        BYTE                   Gn3
        BYTE   W18
        BYTE                   An3
        BYTE   W18
        BYTE                   Gn3
        BYTE   W18
        BYTE           N18     An3
        BYTE   W24
        BYTE   PEND
// 025   ----------------------------------------
FortuneRavine_5_25:
        BYTE           N06     Cn4   v127
        BYTE   W18
        BYTE                   Cn4
        BYTE   W18
        BYTE                   An3
        BYTE   W18
        BYTE                   An3
        BYTE   W18
        BYTE           N18
        BYTE   W24
        BYTE   PEND
// 026   ----------------------------------------
FortuneRavine_5_26:
        BYTE           N06     An3   v127
        BYTE   W18
        BYTE                   An3
        BYTE   W18
        BYTE                   An3
        BYTE   W18
        BYTE                   An3
        BYTE   W18
        BYTE           N18     Gn3
        BYTE   W24
        BYTE   PEND
// 027   ----------------------------------------
        BYTE   PATT
         POIN2  FortuneRavine_5_25
// 028   ----------------------------------------
        BYTE   PATT
         POIN2  FortuneRavine_5_26
// 029   ----------------------------------------
        BYTE   W96
// 030   ----------------------------------------
        BYTE   W96
// 031   ----------------------------------------
        BYTE   W96
// 032   ----------------------------------------
        BYTE   W96
// 033   ----------------------------------------
        BYTE   W96
// 034   ----------------------------------------
        BYTE   W96
// 035   ----------------------------------------
        BYTE   W96
// 036   ----------------------------------------
        BYTE   W96
// 037   ----------------------------------------
        BYTE   PATT
         POIN2  FortuneRavine_5_9
// 038   ----------------------------------------
        BYTE   PATT
         POIN2  FortuneRavine_5_10
// 039   ----------------------------------------
        BYTE   PATT
         POIN2  FortuneRavine_5_9
// 040   ----------------------------------------
        BYTE   PATT
         POIN2  FortuneRavine_5_10
// 041   ----------------------------------------
        BYTE   PATT
         POIN2  FortuneRavine_5_9
// 042   ----------------------------------------
        BYTE   PATT
         POIN2  FortuneRavine_5_10
// 043   ----------------------------------------
        BYTE   PATT
         POIN2  FortuneRavine_5_15
// 044   ----------------------------------------
        BYTE   W96
// 045   ----------------------------------------
        BYTE   PATT
         POIN2  FortuneRavine_5_17
// 046   ----------------------------------------
        BYTE   W96
// 047   ----------------------------------------
        BYTE   PATT
         POIN2  FortuneRavine_5_19
// 048   ----------------------------------------
        BYTE   PATT
         POIN2  FortuneRavine_5_20
// 049   ----------------------------------------
        BYTE   PATT
         POIN2  FortuneRavine_5_21
// 050   ----------------------------------------
        BYTE   PATT
         POIN2  FortuneRavine_5_22
// 051   ----------------------------------------
        BYTE   PATT
         POIN2  FortuneRavine_5_21
// 052   ----------------------------------------
        BYTE   PATT
         POIN2  FortuneRavine_5_24
// 053   ----------------------------------------
        BYTE   PATT
         POIN2  FortuneRavine_5_25
// 054   ----------------------------------------
        BYTE   PATT
         POIN2  FortuneRavine_5_26
// 055   ----------------------------------------
        BYTE   PATT
         POIN2  FortuneRavine_5_25
// 056   ----------------------------------------
        BYTE   PATT
         POIN2  FortuneRavine_5_26
// 057   ----------------------------------------
        BYTE   W96
// 058   ----------------------------------------
        BYTE   W96
// 059   ----------------------------------------
        BYTE   W96
// 060   ----------------------------------------
        BYTE   W96
// 061   ----------------------------------------
        BYTE   W96
// 062   ----------------------------------------
        BYTE   W96
// 063   ----------------------------------------
        BYTE   W96
// 064   ----------------------------------------
        BYTE   W96
// 065   ----------------------------------------
        BYTE   FINE

//****************** Track 6 (Midi-Chn.6) ******************//

FortuneRavine_6:
        BYTE   KEYSH   FortuneRavine_key+0
// 000   ----------------------------------------
        BYTE   W24
// 001   ----------------------------------------
        BYTE           VOL     74
        BYTE           VOICE   40
        BYTE   W96
// 002   ----------------------------------------
        BYTE   W96
// 003   ----------------------------------------
        BYTE   W96
// 004   ----------------------------------------
        BYTE   W96
// 005   ----------------------------------------
        BYTE   W96
// 006   ----------------------------------------
        BYTE   W96
// 007   ----------------------------------------
        BYTE   W96
// 008   ----------------------------------------
        BYTE   W96
// 009   ----------------------------------------
FortuneRavine_6_9:
        BYTE           VOL     62
        BYTE           N54     En4   v127
        BYTE   W10
        BYTE           VOL     63
        BYTE   W03
        BYTE                   64
        BYTE   W05
        BYTE                   65
        BYTE   W06
        BYTE                   66
        BYTE   W01
        BYTE                   67
        BYTE   W02
        BYTE                   68
        BYTE   W04
        BYTE                   69
        BYTE   W02
        BYTE                   70
        BYTE   W01
        BYTE                   71
        BYTE   W03
        BYTE                   73
        BYTE   W17
        BYTE           N06     Dn4
        BYTE   W06
        BYTE                   Cn4
        BYTE   W06
        BYTE           N12     Bn3
        BYTE   W12
        BYTE           N06
        BYTE   W06
        BYTE                   Cn4
        BYTE   W06
        BYTE                   Dn4
        BYTE   W06
        BYTE   PEND
// 010   ----------------------------------------
        BYTE   PATT
         POIN2  FortuneRavine_1_20
// 011   ----------------------------------------
FortuneRavine_6_11:
        BYTE           TIE     En3   v127
        BYTE   W07
        BYTE           VOL     72
        BYTE   W44
        BYTE   W01
        BYTE                   71
        BYTE   W09
        BYTE                   70
        BYTE   W17
        BYTE                   69
        BYTE   W15
        BYTE                   68
        BYTE   W03
        BYTE   PEND
// 012   ----------------------------------------
FortuneRavine_6_12:
        BYTE   W07
        BYTE           VOL     67
        BYTE   W05
        BYTE                   66
        BYTE   W12
        BYTE                   65
        BYTE   W07
        BYTE                   64
        BYTE   W05
        BYTE                   63
        BYTE   W09
        BYTE                   62
        BYTE   W07
        BYTE                   61
        BYTE   W03
        BYTE                   60
        BYTE   W05
        BYTE                   59
        BYTE   W01
        BYTE                   58
        BYTE   W05
        BYTE                   56
        BYTE   W04
        BYTE                   55
        BYTE   W02
        BYTE           EOT     En3
        BYTE           VOL     54
        BYTE   W01
        BYTE                   53
        BYTE   W02
        BYTE                   52
        BYTE   W03
        BYTE                   51
        BYTE   W01
        BYTE                   50
        BYTE   W02
        BYTE                   48
        BYTE   W03
        BYTE                   47
        BYTE   W01
        BYTE                   46
        BYTE   W02
        BYTE                   44
        BYTE   W09
        BYTE   PEND
// 013   ----------------------------------------
FortuneRavine_6_13:
        BYTE           VOL     65
        BYTE           N54     En4   v127
        BYTE   W07
        BYTE           VOL     66
        BYTE   W12
        BYTE                   67
        BYTE   W02
        BYTE                   68
        BYTE   W06
        BYTE                   69
        BYTE   W04
        BYTE                   70
        BYTE   W03
        BYTE                   71
        BYTE   W02
        BYTE                   72
        BYTE   W03
        BYTE                   73
        BYTE   W01
        BYTE                   74
        BYTE   W14
        BYTE           N06     Dn4
        BYTE   W06
        BYTE                   Cn4
        BYTE   W06
        BYTE           N12     Bn3
        BYTE   W12
        BYTE           N06
        BYTE   W06
        BYTE                   Cn4
        BYTE   W06
        BYTE                   Dn4
        BYTE   W06
        BYTE   PEND
// 014   ----------------------------------------
        BYTE   PATT
         POIN2  FortuneRavine_1_20
// 015   ----------------------------------------
FortuneRavine_6_15:
        BYTE           N06     As3   v127
        BYTE   W06
        BYTE                   Cn4
        BYTE   W06
        BYTE           N15     Dn4
        BYTE   W18
        BYTE           N06
        BYTE   W06
        BYTE                   En4
        BYTE   W06
        BYTE           N32     Fn4   v127   gtp1
        BYTE   W01
        BYTE           VOL     73
        BYTE   W20
        BYTE                   72
        BYTE   W10
        BYTE                   71
        BYTE   W05
        BYTE                   70
        BYTE           N06
        BYTE   W06
        BYTE                   Gn4
        BYTE   W01
        BYTE           VOL     69
        BYTE   W05
        BYTE           N96     An4
        BYTE   W03
        BYTE           VOL     68
        BYTE   W03
        BYTE   PEND
// 016   ----------------------------------------
FortuneRavine_6_16:
        BYTE   W03
        BYTE           VOL     67
        BYTE   W01
        BYTE                   66
        BYTE   W06
        BYTE                   65
        BYTE   W06
        BYTE                   64
        BYTE   W03
        BYTE                   63
        BYTE   W02
        BYTE                   62
        BYTE   W04
        BYTE                   61
        BYTE   W02
        BYTE                   60
        BYTE   W04
        BYTE                   59
        BYTE   W03
        BYTE                   58
        BYTE   W05
        BYTE                   56
        BYTE   W06
        BYTE                   55
        BYTE   W01
        BYTE                   54
        BYTE   W02
        BYTE                   53
        BYTE   W01
        BYTE                   52
        BYTE   W05
        BYTE                   51
        BYTE   W01
        BYTE                   50
        BYTE   W05
        BYTE                   48
        BYTE   W04
        BYTE                   46
        BYTE   W03
        BYTE                   45
        BYTE   W02
        BYTE                   44
        BYTE   W04
        BYTE                   42
        BYTE   W02
        BYTE                   41
        BYTE   W01
        BYTE                   40
        BYTE   W02
        BYTE                   39
        BYTE   W04
        BYTE                   37
        BYTE   W03
        BYTE                   36
        BYTE   W03
        BYTE                   34
        BYTE   W08
        BYTE   PEND
// 017   ----------------------------------------
        BYTE   W96
// 018   ----------------------------------------
        BYTE   W96
// 019   ----------------------------------------
        BYTE   W96
// 020   ----------------------------------------
        BYTE   W96
// 021   ----------------------------------------
        BYTE   W96
// 022   ----------------------------------------
        BYTE   W96
// 023   ----------------------------------------
        BYTE   W96
// 024   ----------------------------------------
FortuneRavine_6_24:
        BYTE           PAN     c_v-34
        BYTE           VOL     69
        BYTE           VOICE   68
        BYTE   W96
        BYTE   PEND
// 025   ----------------------------------------
FortuneRavine_6_25:
        BYTE           N06     Gn2   v127
        BYTE   W06
        BYTE                   An2
        BYTE   W06
        BYTE                   Bn2
        BYTE   W06
        BYTE           N12     Cn3
        BYTE   W12
        BYTE           N06
        BYTE   W06
        BYTE                   Dn3
        BYTE   W06
        BYTE           N12     En3
        BYTE   W12
        BYTE           N06     Fs3
        BYTE   W06
        BYTE                   Dn3
        BYTE   W06
        BYTE           N12     En3
        BYTE   W12
        BYTE           N06
        BYTE   W06
        BYTE                   Fs3
        BYTE   W06
        BYTE           N90     Gn3
        BYTE   W06
        BYTE   PEND
// 026   ----------------------------------------
FortuneRavine_6_26:
        BYTE   W48
        BYTE           VOL     68
        BYTE   W03
        BYTE                   66
        BYTE   W03
        BYTE                   65
        BYTE   W03
        BYTE                   63
        BYTE   W03
        BYTE                   60
        BYTE   W03
        BYTE                   57
        BYTE   W03
        BYTE                   54
        BYTE   W03
        BYTE                   50
        BYTE   W03
        BYTE                   45
        BYTE   W03
        BYTE                   40
        BYTE   W03
        BYTE                   35
        BYTE   W03
        BYTE                   30
        BYTE   W03
        BYTE                   23
        BYTE   W12
        BYTE   PEND
// 027   ----------------------------------------
FortuneRavine_6_27:
        BYTE           VOL     69
        BYTE           N06     Gn2   v127
        BYTE   W06
        BYTE                   An2
        BYTE   W06
        BYTE                   Bn2
        BYTE   W06
        BYTE           N12     Cn3
        BYTE   W12
        BYTE           N06
        BYTE   W06
        BYTE                   Dn3
        BYTE   W06
        BYTE           N12     En3
        BYTE   W12
        BYTE           N06     Fs3
        BYTE   W06
        BYTE                   Dn3
        BYTE   W06
        BYTE           N12     En3
        BYTE   W12
        BYTE           N06
        BYTE   W06
        BYTE                   Fs3
        BYTE   W06
        BYTE           N90     Gn3
        BYTE   W06
        BYTE   PEND
// 028   ----------------------------------------
FortuneRavine_6_28:
        BYTE   W44
        BYTE   W02
        BYTE           VOL     68
        BYTE   W02
        BYTE                   67
        BYTE   W03
        BYTE                   66
        BYTE   W03
        BYTE                   65
        BYTE   W03
        BYTE                   64
        BYTE   W01
        BYTE                   62
        BYTE   W03
        BYTE                   60
        BYTE   W02
        BYTE                   59
        BYTE   W01
        BYTE                   58
        BYTE   W02
        BYTE                   57
        BYTE   W01
        BYTE                   55
        BYTE   W02
        BYTE                   54
        BYTE   W01
        BYTE                   52
        BYTE   W02
        BYTE                   50
        BYTE   W01
        BYTE                   49
        BYTE   W02
        BYTE                   47
        BYTE   W01
        BYTE                   45
        BYTE   W02
        BYTE                   43
        BYTE   W01
        BYTE                   40
        BYTE   W02
        BYTE                   38
        BYTE   W01
        BYTE                   37
        BYTE   W02
        BYTE                   34
        BYTE   W01
        BYTE                   31
        BYTE   W02
        BYTE                   28
        BYTE   W01
        BYTE                   26
        BYTE   W02
        BYTE                   24
        BYTE   W06
        BYTE   PEND
// 029   ----------------------------------------
        BYTE   W96
// 030   ----------------------------------------
        BYTE   W96
// 031   ----------------------------------------
        BYTE   W96
// 032   ----------------------------------------
        BYTE   W96
// 033   ----------------------------------------
FortuneRavine_6_33:
        BYTE           PAN     c_v+0
        BYTE           VOL     74
        BYTE           VOICE   40
        BYTE   W96
        BYTE   PEND
// 034   ----------------------------------------
        BYTE   W96
// 035   ----------------------------------------
        BYTE   W96
// 036   ----------------------------------------
        BYTE   W96
// 037   ----------------------------------------
        BYTE   PATT
         POIN2  FortuneRavine_6_9
// 038   ----------------------------------------
        BYTE   PATT
         POIN2  FortuneRavine_1_20
// 039   ----------------------------------------
        BYTE   PATT
         POIN2  FortuneRavine_6_11
// 040   ----------------------------------------
        BYTE   PATT
         POIN2  FortuneRavine_6_12
// 041   ----------------------------------------
        BYTE   PATT
         POIN2  FortuneRavine_6_13
// 042   ----------------------------------------
        BYTE   PATT
         POIN2  FortuneRavine_1_20
// 043   ----------------------------------------
        BYTE   PATT
         POIN2  FortuneRavine_6_15
// 044   ----------------------------------------
        BYTE   PATT
         POIN2  FortuneRavine_6_16
// 045   ----------------------------------------
        BYTE   W96
// 046   ----------------------------------------
        BYTE   W96
// 047   ----------------------------------------
        BYTE   W96
// 048   ----------------------------------------
        BYTE   W96
// 049   ----------------------------------------
        BYTE   W96
// 050   ----------------------------------------
        BYTE   W96
// 051   ----------------------------------------
        BYTE   W96
// 052   ----------------------------------------
        BYTE   PATT
         POIN2  FortuneRavine_6_24
// 053   ----------------------------------------
        BYTE   PATT
         POIN2  FortuneRavine_6_25
// 054   ----------------------------------------
        BYTE   PATT
         POIN2  FortuneRavine_6_26
// 055   ----------------------------------------
        BYTE   PATT
         POIN2  FortuneRavine_6_27
// 056   ----------------------------------------
        BYTE   PATT
         POIN2  FortuneRavine_6_28
// 057   ----------------------------------------
        BYTE   W96
// 058   ----------------------------------------
        BYTE   W96
// 059   ----------------------------------------
        BYTE   W96
// 060   ----------------------------------------
        BYTE   W96
// 061   ----------------------------------------
        BYTE   PATT
         POIN2  FortuneRavine_6_33
// 062   ----------------------------------------
        BYTE   W96
// 063   ----------------------------------------
        BYTE   W96
// 064   ----------------------------------------
        BYTE   W96
// 065   ----------------------------------------
        BYTE   FINE

//****************** Track 7 (Midi-Chn.7) ******************//

FortuneRavine_7:
        BYTE   KEYSH   FortuneRavine_key+0
// 000   ----------------------------------------
        BYTE   W24
// 001   ----------------------------------------
FortuneRavine_7_1:
        BYTE           PAN     c_v-64
        BYTE           VOL     43
        BYTE           VOICE   40
        BYTE   W96
        BYTE   PEND
// 002   ----------------------------------------
        BYTE   W96
// 003   ----------------------------------------
        BYTE   W96
// 004   ----------------------------------------
        BYTE   W96
// 005   ----------------------------------------
        BYTE   W96
// 006   ----------------------------------------
        BYTE   W96
// 007   ----------------------------------------
        BYTE   W96
// 008   ----------------------------------------
        BYTE   W96
// 009   ----------------------------------------
FortuneRavine_7_9:
        BYTE   W08
        BYTE           VOL     36
        BYTE           N54     En4   v127
        BYTE   W06
        BYTE           VOL     37
        BYTE   W10
        BYTE                   38
        BYTE   W08
        BYTE                   39
        BYTE   W03
        BYTE                   40
        BYTE   W04
        BYTE                   41
        BYTE   W03
        BYTE                   42
        BYTE   W03
        BYTE                   43
        BYTE   W17
        BYTE           N06     Dn4
        BYTE   W06
        BYTE                   Cn4
        BYTE   W06
        BYTE           N12     Bn3
        BYTE   W12
        BYTE           N06
        BYTE   W06
        BYTE                   Cn4
        BYTE   W04
        BYTE   PEND
// 010   ----------------------------------------
FortuneRavine_7_10:
        BYTE   W02
        BYTE           N06     Dn4   v127
        BYTE   W06
        BYTE           N48     Gn3
        BYTE   W48
        BYTE           N06
        BYTE   W06
        BYTE                   An3
        BYTE   W06
        BYTE                   Bn3
        BYTE   W06
        BYTE           N12
        BYTE   W12
        BYTE           N06     Cn4
        BYTE   W06
        BYTE                   Gn3
        BYTE   W04
        BYTE   PEND
// 011   ----------------------------------------
FortuneRavine_7_11:
        BYTE   W02
        BYTE           N06     An3   v127
        BYTE   W06
        BYTE           TIE     En3
        BYTE   W36
        BYTE   W03
        BYTE           VOL     42
        BYTE   W22
        BYTE                   41
        BYTE   W24
        BYTE   W03
        BYTE   PEND
// 012   ----------------------------------------
FortuneRavine_7_12:
        BYTE   W05
        BYTE           VOL     40
        BYTE   W10
        BYTE                   39
        BYTE   W17
        BYTE                   38
        BYTE   W12
        BYTE                   37
        BYTE   W13
        BYTE                   36
        BYTE   W06
        BYTE                   35
        BYTE   W06
        BYTE                   34
        BYTE   W05
        BYTE                   33
        BYTE   W04
        BYTE                   32
        BYTE   W02
        BYTE           EOT     En3
        BYTE   W01
        BYTE           VOL     31
        BYTE   W03
        BYTE                   30
        BYTE   W03
        BYTE                   29
        BYTE   W02
        BYTE                   28
        BYTE   W04
        BYTE                   27
        BYTE   W02
        BYTE                   26
        BYTE   W01
        BYTE   PEND
// 013   ----------------------------------------
FortuneRavine_7_13:
        BYTE   W08
        BYTE           VOL     38
        BYTE           N54     En4   v127
        BYTE   W07
        BYTE           VOL     39
        BYTE   W14
        BYTE                   40
        BYTE   W06
        BYTE                   41
        BYTE   W07
        BYTE                   42
        BYTE   W03
        BYTE                   43
        BYTE   W17
        BYTE           N06     Dn4
        BYTE   W06
        BYTE                   Cn4
        BYTE   W06
        BYTE           N12     Bn3
        BYTE   W12
        BYTE           N06
        BYTE   W06
        BYTE                   Cn4
        BYTE   W04
        BYTE   PEND
// 014   ----------------------------------------
        BYTE   PATT
         POIN2  FortuneRavine_7_10
// 015   ----------------------------------------
FortuneRavine_7_15:
        BYTE   W02
        BYTE           N06     An3   v127
        BYTE   W06
        BYTE                   As3
        BYTE   W06
        BYTE                   Cn4
        BYTE   W06
        BYTE           N15     Dn4
        BYTE   W18
        BYTE           N06
        BYTE   W06
        BYTE                   En4
        BYTE   W06
        BYTE           N32     Fn4   v127   gtp1
        BYTE   W24
        BYTE   W01
        BYTE           VOL     42
        BYTE   W11
        BYTE                   41
        BYTE           N06
        BYTE   W06
        BYTE                   Gn4
        BYTE   W04
        BYTE   PEND
// 016   ----------------------------------------
FortuneRavine_7_16:
        BYTE   W02
        BYTE           N96     An4   v127
        BYTE   W03
        BYTE           VOL     40
        BYTE   W06
        BYTE                   39
        BYTE   W07
        BYTE                   38
        BYTE   W06
        BYTE                   37
        BYTE   W08
        BYTE                   36
        BYTE   W03
        BYTE                   35
        BYTE   W07
        BYTE                   34
        BYTE   W05
        BYTE                   33
        BYTE   W06
        BYTE                   32
        BYTE   W03
        BYTE                   31
        BYTE   W04
        BYTE                   30
        BYTE   W05
        BYTE                   29
        BYTE   W03
        BYTE                   28
        BYTE   W04
        BYTE                   27
        BYTE   W03
        BYTE                   26
        BYTE   W06
        BYTE                   25
        BYTE   W02
        BYTE                   24
        BYTE   W03
        BYTE                   23
        BYTE   W04
        BYTE                   22
        BYTE   W03
        BYTE                   21
        BYTE   W03
        BYTE   PEND
// 017   ----------------------------------------
        BYTE                   20
        BYTE   W96
// 018   ----------------------------------------
        BYTE   W96
// 019   ----------------------------------------
        BYTE   W96
// 020   ----------------------------------------
        BYTE   W96
// 021   ----------------------------------------
        BYTE   W96
// 022   ----------------------------------------
        BYTE   W96
// 023   ----------------------------------------
        BYTE   W96
// 024   ----------------------------------------
FortuneRavine_7_24:
        BYTE           PAN     c_v+46
        BYTE           VOL     78
        BYTE           VOICE   65
        BYTE   W96
        BYTE   PEND
// 025   ----------------------------------------
FortuneRavine_7_25:
        BYTE           N06     En2   v127
        BYTE   W06
        BYTE                   Fs2
        BYTE   W06
        BYTE                   Gn2
        BYTE   W06
        BYTE           N12     An2
        BYTE   W12
        BYTE           N06
        BYTE   W06
        BYTE                   Bn2
        BYTE   W06
        BYTE           N12     Cn3
        BYTE   W12
        BYTE           N06     Dn3
        BYTE   W06
        BYTE                   Bn2
        BYTE   W06
        BYTE           N12     Cn3
        BYTE   W12
        BYTE           N06
        BYTE   W06
        BYTE                   Dn3
        BYTE   W06
        BYTE           N90     En3
        BYTE   W06
        BYTE   PEND
// 026   ----------------------------------------
FortuneRavine_7_26:
        BYTE   W18
        BYTE           VOL     77
        BYTE   W12
        BYTE                   76
        BYTE   W03
        BYTE                   75
        BYTE   W03
        BYTE                   74
        BYTE   W03
        BYTE                   73
        BYTE   W03
        BYTE                   72
        BYTE   W03
        BYTE                   70
        BYTE   W03
        BYTE                   69
        BYTE   W03
        BYTE                   67
        BYTE   W03
        BYTE                   65
        BYTE   W03
        BYTE                   63
        BYTE   W03
        BYTE                   60
        BYTE   W03
        BYTE                   58
        BYTE   W03
        BYTE                   55
        BYTE   W03
        BYTE                   53
        BYTE   W03
        BYTE                   50
        BYTE   W03
        BYTE                   46
        BYTE   W03
        BYTE                   43
        BYTE   W03
        BYTE                   40
        BYTE   W03
        BYTE                   36
        BYTE   W03
        BYTE                   32
        BYTE   W09
        BYTE   PEND
// 027   ----------------------------------------
FortuneRavine_7_27:
        BYTE           VOL     78
        BYTE           N06     En2   v127
        BYTE   W06
        BYTE                   Fs2
        BYTE   W06
        BYTE                   Gn2
        BYTE   W06
        BYTE           N12     An2
        BYTE   W12
        BYTE           N06
        BYTE   W06
        BYTE                   Bn2
        BYTE   W06
        BYTE           N12     Cn3
        BYTE   W12
        BYTE           N06     Dn3
        BYTE   W06
        BYTE                   Bn2
        BYTE   W06
        BYTE           N12     Cn3
        BYTE   W12
        BYTE           N06
        BYTE   W06
        BYTE                   Dn3
        BYTE   W06
        BYTE           N90     En3
        BYTE   W06
        BYTE   PEND
// 028   ----------------------------------------
FortuneRavine_7_28:
        BYTE   W24
        BYTE   W03
        BYTE           VOL     77
        BYTE   W09
        BYTE                   76
        BYTE   W03
        BYTE                   74
        BYTE   W03
        BYTE                   73
        BYTE   W03
        BYTE                   72
        BYTE   W03
        BYTE                   69
        BYTE   W03
        BYTE                   67
        BYTE   W03
        BYTE                   64
        BYTE   W03
        BYTE                   62
        BYTE   W03
        BYTE                   59
        BYTE   W03
        BYTE                   55
        BYTE   W03
        BYTE                   51
        BYTE   W03
        BYTE                   47
        BYTE   W03
        BYTE                   43
        BYTE   W03
        BYTE                   38
        BYTE   W03
        BYTE                   33
        BYTE   W18
        BYTE   PEND
// 029   ----------------------------------------
        BYTE   W96
// 030   ----------------------------------------
        BYTE   W96
// 031   ----------------------------------------
        BYTE   W96
// 032   ----------------------------------------
        BYTE   W96
// 033   ----------------------------------------
        BYTE   PATT
         POIN2  FortuneRavine_7_1
// 034   ----------------------------------------
        BYTE   W96
// 035   ----------------------------------------
        BYTE   W96
// 036   ----------------------------------------
        BYTE   W96
// 037   ----------------------------------------
        BYTE   PATT
         POIN2  FortuneRavine_7_9
// 038   ----------------------------------------
        BYTE   PATT
         POIN2  FortuneRavine_7_10
// 039   ----------------------------------------
        BYTE   PATT
         POIN2  FortuneRavine_7_11
// 040   ----------------------------------------
        BYTE   PATT
         POIN2  FortuneRavine_7_12
// 041   ----------------------------------------
        BYTE   PATT
         POIN2  FortuneRavine_7_13
// 042   ----------------------------------------
        BYTE   PATT
         POIN2  FortuneRavine_7_10
// 043   ----------------------------------------
        BYTE   PATT
         POIN2  FortuneRavine_7_15
// 044   ----------------------------------------
        BYTE   PATT
         POIN2  FortuneRavine_7_16
// 045   ----------------------------------------
        BYTE           VOL     20
        BYTE   W96
// 046   ----------------------------------------
        BYTE   W96
// 047   ----------------------------------------
        BYTE   W96
// 048   ----------------------------------------
        BYTE   W96
// 049   ----------------------------------------
        BYTE   W96
// 050   ----------------------------------------
        BYTE   W96
// 051   ----------------------------------------
        BYTE   W96
// 052   ----------------------------------------
        BYTE   PATT
         POIN2  FortuneRavine_7_24
// 053   ----------------------------------------
        BYTE   PATT
         POIN2  FortuneRavine_7_25
// 054   ----------------------------------------
        BYTE   PATT
         POIN2  FortuneRavine_7_26
// 055   ----------------------------------------
        BYTE   PATT
         POIN2  FortuneRavine_7_27
// 056   ----------------------------------------
        BYTE   PATT
         POIN2  FortuneRavine_7_28
// 057   ----------------------------------------
        BYTE   W96
// 058   ----------------------------------------
        BYTE   W96
// 059   ----------------------------------------
        BYTE   W96
// 060   ----------------------------------------
        BYTE   W96
// 061   ----------------------------------------
        BYTE   PATT
         POIN2  FortuneRavine_7_1
// 062   ----------------------------------------
        BYTE   W96
// 063   ----------------------------------------
        BYTE   W96
// 064   ----------------------------------------
        BYTE   W96
// 065   ----------------------------------------
        BYTE   FINE

//****************** Track 8 (Midi-Chn.8) ******************//

FortuneRavine_8:
        BYTE   KEYSH   FortuneRavine_key+0
// 000   ----------------------------------------
        BYTE   W24
// 001   ----------------------------------------
        BYTE           PAN     c_v+63
        BYTE           VOL     39
        BYTE           VOICE   40
        BYTE   W96
// 002   ----------------------------------------
        BYTE   W96
// 003   ----------------------------------------
        BYTE   W96
// 004   ----------------------------------------
        BYTE   W96
// 005   ----------------------------------------
        BYTE   W96
// 006   ----------------------------------------
        BYTE   W96
// 007   ----------------------------------------
        BYTE   W96
// 008   ----------------------------------------
        BYTE   W96
// 009   ----------------------------------------
FortuneRavine_8_9:
        BYTE   W16
        BYTE           VOL     33
        BYTE           N54     En4   v127
        BYTE   W13
        BYTE           VOL     34
        BYTE   W11
        BYTE                   35
        BYTE   W03
        BYTE                   36
        BYTE   W06
        BYTE                   37
        BYTE   W01
        BYTE                   38
        BYTE   W03
        BYTE                   39
        BYTE   W17
        BYTE           N06     Dn4
        BYTE   W06
        BYTE                   Cn4
        BYTE   W06
        BYTE           N12     Bn3
        BYTE   W12
        BYTE           N06
        BYTE   W02
        BYTE   PEND
// 010   ----------------------------------------
FortuneRavine_8_10:
        BYTE   W04
        BYTE           N06     Cn4   v127
        BYTE   W06
        BYTE                   Dn4
        BYTE   W06
        BYTE           N48     Gn3
        BYTE   W48
        BYTE           N06
        BYTE   W06
        BYTE                   An3
        BYTE   W06
        BYTE                   Bn3
        BYTE   W06
        BYTE           N12
        BYTE   W12
        BYTE           N06     Cn4
        BYTE   W02
        BYTE   PEND
// 011   ----------------------------------------
FortuneRavine_8_11:
        BYTE   W04
        BYTE           N06     Gn3   v127
        BYTE   W06
        BYTE                   An3
        BYTE   W06
        BYTE           TIE     En3
        BYTE   W07
        BYTE           VOL     38
        BYTE   W54
        BYTE                   37
        BYTE   W17
        BYTE                   36
        BYTE   W02
        BYTE   PEND
// 012   ----------------------------------------
FortuneRavine_8_12:
        BYTE   W23
        BYTE           VOL     35
        BYTE   W17
        BYTE                   34
        BYTE   W12
        BYTE                   33
        BYTE   W16
        BYTE                   32
        BYTE   W08
        BYTE                   31
        BYTE   W04
        BYTE                   30
        BYTE   W05
        BYTE                   29
        BYTE   W03
        BYTE           EOT     En3
        BYTE   W01
        BYTE           VOL     28
        BYTE   W03
        BYTE                   27
        BYTE   W03
        BYTE                   26
        BYTE   W01
        BYTE   PEND
// 013   ----------------------------------------
FortuneRavine_8_13:
        BYTE   W02
        BYTE           VOL     25
        BYTE   W03
        BYTE                   24
        BYTE   W02
        BYTE                   23
        BYTE   W09
        BYTE                   34
        BYTE           N54     En4   v127
        BYTE   W07
        BYTE           VOL     35
        BYTE   W14
        BYTE                   36
        BYTE   W10
        BYTE                   37
        BYTE   W03
        BYTE                   38
        BYTE   W05
        BYTE                   39
        BYTE   W15
        BYTE           N06     Dn4
        BYTE   W06
        BYTE                   Cn4
        BYTE   W06
        BYTE           N12     Bn3
        BYTE   W12
        BYTE           N06
        BYTE   W02
        BYTE   PEND
// 014   ----------------------------------------
        BYTE   PATT
         POIN2  FortuneRavine_8_10
// 015   ----------------------------------------
FortuneRavine_8_15:
        BYTE   W04
        BYTE           N06     Gn3   v127
        BYTE   W06
        BYTE                   An3
        BYTE   W06
        BYTE                   As3
        BYTE   W06
        BYTE                   Cn4
        BYTE   W06
        BYTE           N15     Dn4
        BYTE   W18
        BYTE           N06
        BYTE   W06
        BYTE                   En4
        BYTE   W06
        BYTE           N32     Fn4   v127   gtp1
        BYTE   W21
        BYTE           VOL     38
        BYTE   W15
        BYTE                   37
        BYTE           N06
        BYTE   W02
        BYTE   PEND
// 016   ----------------------------------------
FortuneRavine_8_16:
        BYTE   W04
        BYTE           N06     Gn4   v127
        BYTE   W01
        BYTE           VOL     36
        BYTE   W05
        BYTE           N96     An4
        BYTE   W09
        BYTE           VOL     35
        BYTE   W07
        BYTE                   34
        BYTE   W09
        BYTE                   33
        BYTE   W06
        BYTE                   32
        BYTE   W06
        BYTE                   31
        BYTE   W05
        BYTE                   30
        BYTE   W06
        BYTE                   29
        BYTE   W06
        BYTE                   28
        BYTE   W04
        BYTE                   27
        BYTE   W05
        BYTE                   26
        BYTE   W04
        BYTE                   25
        BYTE   W03
        BYTE                   24
        BYTE   W05
        BYTE                   23
        BYTE   W04
        BYTE                   22
        BYTE   W03
        BYTE                   21
        BYTE   W04
        BYTE   PEND
// 017   ----------------------------------------
FortuneRavine_8_17:
        BYTE   W02
        BYTE           VOL     20
        BYTE   W02
        BYTE                   19
        BYTE   W04
        BYTE                   18
        BYTE   W88
        BYTE   PEND
// 018   ----------------------------------------
        BYTE   W96
// 019   ----------------------------------------
        BYTE   W96
// 020   ----------------------------------------
        BYTE   W96
// 021   ----------------------------------------
        BYTE   W96
// 022   ----------------------------------------
        BYTE   W96
// 023   ----------------------------------------
        BYTE   W96
// 024   ----------------------------------------
        BYTE   W96
// 025   ----------------------------------------
        BYTE   W96
// 026   ----------------------------------------
        BYTE   W96
// 027   ----------------------------------------
        BYTE   W96
// 028   ----------------------------------------
        BYTE   W96
// 029   ----------------------------------------
        BYTE   W96
// 030   ----------------------------------------
        BYTE   W96
// 031   ----------------------------------------
        BYTE   W96
// 032   ----------------------------------------
        BYTE   W96
// 033   ----------------------------------------
        BYTE   W96
// 034   ----------------------------------------
        BYTE   W96
// 035   ----------------------------------------
        BYTE   W96
// 036   ----------------------------------------
        BYTE   W96
// 037   ----------------------------------------
        BYTE   PATT
         POIN2  FortuneRavine_8_9
// 038   ----------------------------------------
        BYTE   PATT
         POIN2  FortuneRavine_8_10
// 039   ----------------------------------------
        BYTE   PATT
         POIN2  FortuneRavine_8_11
// 040   ----------------------------------------
        BYTE   PATT
         POIN2  FortuneRavine_8_12
// 041   ----------------------------------------
        BYTE   PATT
         POIN2  FortuneRavine_8_13
// 042   ----------------------------------------
        BYTE   PATT
         POIN2  FortuneRavine_8_10
// 043   ----------------------------------------
        BYTE   PATT
         POIN2  FortuneRavine_8_15
// 044   ----------------------------------------
        BYTE   PATT
         POIN2  FortuneRavine_8_16
// 045   ----------------------------------------
        BYTE   PATT
         POIN2  FortuneRavine_8_17
// 046   ----------------------------------------
        BYTE   W96
// 047   ----------------------------------------
        BYTE   W96
// 048   ----------------------------------------
        BYTE   W96
// 049   ----------------------------------------
        BYTE   W96
// 050   ----------------------------------------
        BYTE   W96
// 051   ----------------------------------------
        BYTE   W96
// 052   ----------------------------------------
        BYTE   W96
// 053   ----------------------------------------
        BYTE   W96
// 054   ----------------------------------------
        BYTE   W96
// 055   ----------------------------------------
        BYTE   W96
// 056   ----------------------------------------
        BYTE   W96
// 057   ----------------------------------------
        BYTE   W96
// 058   ----------------------------------------
        BYTE   W96
// 059   ----------------------------------------
        BYTE   W96
// 060   ----------------------------------------
        BYTE   W96
// 061   ----------------------------------------
        BYTE   W96
// 062   ----------------------------------------
        BYTE   W96
// 063   ----------------------------------------
        BYTE   W96
// 064   ----------------------------------------
        BYTE   W96
// 065   ----------------------------------------
        BYTE   FINE

//***************** Track 9 (Midi-Chn.10) ******************//

FortuneRavine_9:
        BYTE   KEYSH   FortuneRavine_key+0
// 000   ----------------------------------------
        BYTE   W24
// 001   ----------------------------------------
        BYTE           VOICE   48
        BYTE           VOL     48
        BYTE           TIE     An2   v124
        BYTE   W01
        BYTE           VOL     49
        BYTE   W03
        BYTE                   50
        BYTE   W05
        BYTE                   51
        BYTE   W01
        BYTE                   52
        BYTE   W02
        BYTE                   53
        BYTE   W01
        BYTE                   54
        BYTE   W05
        BYTE                   55
        BYTE   W01
        BYTE                   56
        BYTE   W03
        BYTE                   57
        BYTE   W03
        BYTE                   58
        BYTE   W02
        BYTE                   59
        BYTE   W03
        BYTE                   60
        BYTE   W01
        BYTE                   61
        BYTE   W05
        BYTE                   62
        BYTE   W03
        BYTE                   64
        BYTE   W03
        BYTE                   65
        BYTE   W03
        BYTE                   66
        BYTE   W03
        BYTE                   67
        BYTE   W03
        BYTE                   69
        BYTE   W04
        BYTE                   70
        BYTE   W02
        BYTE                   71
        BYTE   W03
        BYTE                   72
        BYTE   W04
        BYTE                   73
        BYTE   W02
        BYTE                   74
        BYTE   W01
        BYTE                   75
        BYTE   W02
        BYTE                   76
        BYTE   W04
        BYTE                   77
        BYTE   W03
        BYTE                   78
        BYTE   W02
        BYTE                   79
        BYTE   W01
        BYTE                   80
        BYTE   W03
        BYTE                   81
        BYTE   W03
        BYTE                   82
        BYTE   W03
        BYTE                   83
        BYTE   W03
        BYTE                   84
        BYTE   W02
        BYTE                   85
        BYTE   W01
        BYTE                   86
        BYTE   W02
// 002   ----------------------------------------
FortuneRavine_9_2:
        BYTE           VOL     85
        BYTE   W03
        BYTE                   84
        BYTE   W03
        BYTE                   83
        BYTE   W06
        BYTE                   82
        BYTE   W03
        BYTE                   81
        BYTE   W06
        BYTE                   80
        BYTE   W06
        BYTE                   79
        BYTE   W03
        BYTE                   78
        BYTE   W03
        BYTE                   77
        BYTE   W03
        BYTE                   76
        BYTE   W09
        BYTE                   75
        BYTE   W01
        BYTE                   74
        BYTE   W03
        BYTE                   73
        BYTE   W05
        BYTE                   72
        BYTE   W04
        BYTE                   71
        BYTE   W08
        BYTE                   70
        BYTE   W01
        BYTE                   69
        BYTE   W08
        BYTE                   68
        BYTE   W01
        BYTE                   67
        BYTE   W03
        BYTE                   66
        BYTE   W08
        BYTE                   65
        BYTE   W04
        BYTE                   64
        BYTE   W05
        BYTE   PEND
// 003   ----------------------------------------
FortuneRavine_9_3:
        BYTE           EOT     An2
        BYTE           N96     Gn2   v107
        BYTE   W01
        BYTE           VOL     65
        BYTE   W05
        BYTE                   66
        BYTE   W07
        BYTE                   67
        BYTE   W03
        BYTE                   68
        BYTE   W03
        BYTE                   69
        BYTE   W06
        BYTE                   70
        BYTE   W02
        BYTE                   71
        BYTE   W07
        BYTE                   72
        BYTE   W06
        BYTE                   73
        BYTE   W03
        BYTE                   74
        BYTE   W03
        BYTE                   75
        BYTE   W02
        BYTE                   76
        BYTE   W09
        BYTE                   77
        BYTE   W04
        BYTE                   78
        BYTE   W03
        BYTE                   79
        BYTE   W02
        BYTE                   80
        BYTE   W07
        BYTE                   81
        BYTE   W05
        BYTE                   82
        BYTE   W04
        BYTE                   83
        BYTE   W05
        BYTE                   84
        BYTE   W04
        BYTE                   86
        BYTE   W02
        BYTE                   85
        BYTE   W03
        BYTE   PEND
// 004   ----------------------------------------
FortuneRavine_9_4:
        BYTE           VOL     84
        BYTE           N96     Fs2   v107
        BYTE   W03
        BYTE           VOL     83
        BYTE   W04
        BYTE                   82
        BYTE   W03
        BYTE                   81
        BYTE   W05
        BYTE                   80
        BYTE   W06
        BYTE                   79
        BYTE   W03
        BYTE                   78
        BYTE   W03
        BYTE                   77
        BYTE   W01
        BYTE                   76
        BYTE   W09
        BYTE                   75
        BYTE   W02
        BYTE                   74
        BYTE   W03
        BYTE                   73
        BYTE   W03
        BYTE                   72
        BYTE   W04
        BYTE                   71
        BYTE   W06
        BYTE                   70
        BYTE   W02
        BYTE                   69
        BYTE   W06
        BYTE                   68
        BYTE   W01
        BYTE                   67
        BYTE   W03
        BYTE                   66
        BYTE   W06
        BYTE                   65
        BYTE   W05
        BYTE                   64
        BYTE   W03
        BYTE                   63
        BYTE   W03
        BYTE                   62
        BYTE   W03
        BYTE                   61
        BYTE   W03
        BYTE                   62
        BYTE   W01
        BYTE                   63
        BYTE   W05
        BYTE   PEND
// 005   ----------------------------------------
FortuneRavine_9_5:
        BYTE           VOL     64
        BYTE           N96     Dn2   v107
        BYTE   W01
        BYTE           VOL     65
        BYTE   W06
        BYTE                   66
        BYTE   W08
        BYTE                   67
        BYTE   W03
        BYTE                   68
        BYTE   W03
        BYTE                   69
        BYTE   W06
        BYTE                   70
        BYTE   W03
        BYTE                   71
        BYTE   W07
        BYTE                   72
        BYTE   W05
        BYTE                   73
        BYTE   W06
        BYTE                   74
        BYTE   W01
        BYTE                   75
        BYTE   W03
        BYTE                   76
        BYTE   W09
        BYTE                   77
        BYTE   W03
        BYTE                   78
        BYTE   W05
        BYTE                   79
        BYTE   W01
        BYTE                   80
        BYTE   W08
        BYTE                   81
        BYTE   W06
        BYTE                   82
        BYTE   W03
        BYTE                   83
        BYTE   W06
        BYTE                   84
        BYTE   W03
        BYTE   PEND
// 006   ----------------------------------------
FortuneRavine_9_6:
        BYTE           VOL     85
        BYTE           N96     Fs2   v107
        BYTE   W04
        BYTE           VOL     84
        BYTE   W03
        BYTE                   83
        BYTE   W06
        BYTE                   82
        BYTE   W03
        BYTE                   81
        BYTE   W06
        BYTE                   80
        BYTE   W06
        BYTE                   79
        BYTE   W03
        BYTE                   78
        BYTE   W03
        BYTE                   77
        BYTE   W03
        BYTE                   76
        BYTE   W09
        BYTE                   75
        BYTE   W02
        BYTE                   74
        BYTE   W04
        BYTE                   73
        BYTE   W03
        BYTE                   72
        BYTE   W06
        BYTE                   71
        BYTE   W06
        BYTE                   70
        BYTE   W02
        BYTE                   69
        BYTE   W07
        BYTE                   68
        BYTE   W02
        BYTE                   67
        BYTE   W04
        BYTE                   66
        BYTE   W06
        BYTE                   65
        BYTE   W06
        BYTE                   64
        BYTE   W02
        BYTE   PEND
// 007   ----------------------------------------
FortuneRavine_9_7:
        BYTE           VOL     63
        BYTE           N96     Gn2   v107
        BYTE   W03
        BYTE           VOL     64
        BYTE   W03
        BYTE                   65
        BYTE   W06
        BYTE                   66
        BYTE   W06
        BYTE                   67
        BYTE   W03
        BYTE                   68
        BYTE   W01
        BYTE                   69
        BYTE   W08
        BYTE                   70
        BYTE   W01
        BYTE                   71
        BYTE   W08
        BYTE                   72
        BYTE   W04
        BYTE                   73
        BYTE   W03
        BYTE                   74
        BYTE   W05
        BYTE                   76
        BYTE   W09
        BYTE                   77
        BYTE   W03
        BYTE                   78
        BYTE   W03
        BYTE                   79
        BYTE   W03
        BYTE                   80
        BYTE   W06
        BYTE                   81
        BYTE   W06
        BYTE                   82
        BYTE   W01
        BYTE                   83
        BYTE   W08
        BYTE                   84
        BYTE   W01
        BYTE                   85
        BYTE   W03
        BYTE                   86
        BYTE   W02
        BYTE   PEND
// 008   ----------------------------------------
FortuneRavine_9_8:
        BYTE           VOL     87
        BYTE           N96     An2   v107
        BYTE   W09
        BYTE           VOL     86
        BYTE   W03
        BYTE                   85
        BYTE   W03
        BYTE                   84
        BYTE   W03
        BYTE                   83
        BYTE   W06
        BYTE                   82
        BYTE   W03
        BYTE                   81
        BYTE   W03
        BYTE                   80
        BYTE   W06
        BYTE                   79
        BYTE   W03
        BYTE                   78
        BYTE   W03
        BYTE                   77
        BYTE   W03
        BYTE                   76
        BYTE   W09
        BYTE                   75
        BYTE   W03
        BYTE                   74
        BYTE   W03
        BYTE                   73
        BYTE   W03
        BYTE                   72
        BYTE   W03
        BYTE                   71
        BYTE   W09
        BYTE                   69
        BYTE   W06
        BYTE                   68
        BYTE   W03
        BYTE                   67
        BYTE   W03
        BYTE                   66
        BYTE   W06
        BYTE                   65
        BYTE   W03
        BYTE   PEND
// 009   ----------------------------------------
FortuneRavine_9_9:
        BYTE           VOL     48
        BYTE           TIE     An2   v124
        BYTE   W01
        BYTE           VOL     49
        BYTE   W03
        BYTE                   50
        BYTE   W05
        BYTE                   51
        BYTE   W01
        BYTE                   52
        BYTE   W02
        BYTE                   53
        BYTE   W01
        BYTE                   54
        BYTE   W05
        BYTE                   55
        BYTE   W01
        BYTE                   56
        BYTE   W03
        BYTE                   57
        BYTE   W03
        BYTE                   58
        BYTE   W02
        BYTE                   59
        BYTE   W03
        BYTE                   60
        BYTE   W01
        BYTE                   61
        BYTE   W05
        BYTE                   62
        BYTE   W03
        BYTE                   64
        BYTE   W03
        BYTE                   65
        BYTE   W03
        BYTE                   66
        BYTE   W03
        BYTE                   67
        BYTE   W03
        BYTE                   69
        BYTE   W04
        BYTE                   70
        BYTE   W02
        BYTE                   71
        BYTE   W03
        BYTE                   72
        BYTE   W04
        BYTE                   73
        BYTE   W02
        BYTE                   74
        BYTE   W01
        BYTE                   75
        BYTE   W02
        BYTE                   76
        BYTE   W04
        BYTE                   77
        BYTE   W03
        BYTE                   78
        BYTE   W02
        BYTE                   79
        BYTE   W01
        BYTE                   80
        BYTE   W03
        BYTE                   81
        BYTE   W03
        BYTE                   82
        BYTE   W03
        BYTE                   83
        BYTE   W03
        BYTE                   84
        BYTE   W02
        BYTE                   85
        BYTE   W01
        BYTE                   86
        BYTE   W02
        BYTE   PEND
// 010   ----------------------------------------
        BYTE   PATT
         POIN2  FortuneRavine_3_2
// 011   ----------------------------------------
FortuneRavine_9_11:
        BYTE           EOT     An2
        BYTE           N96     Cn2   v107
        BYTE           N96     Gn2
        BYTE           N96     En3
        BYTE   W01
        BYTE           VOL     65
        BYTE   W05
        BYTE                   66
        BYTE   W07
        BYTE                   67
        BYTE   W03
        BYTE                   68
        BYTE   W03
        BYTE                   69
        BYTE   W06
        BYTE                   70
        BYTE   W02
        BYTE                   71
        BYTE   W07
        BYTE                   72
        BYTE   W06
        BYTE                   73
        BYTE   W03
        BYTE                   74
        BYTE   W03
        BYTE                   75
        BYTE   W02
        BYTE                   76
        BYTE   W09
        BYTE                   77
        BYTE   W04
        BYTE                   78
        BYTE   W03
        BYTE                   79
        BYTE   W02
        BYTE                   80
        BYTE   W07
        BYTE                   81
        BYTE   W05
        BYTE                   82
        BYTE   W04
        BYTE                   83
        BYTE   W05
        BYTE                   84
        BYTE   W04
        BYTE                   86
        BYTE   W02
        BYTE                   85
        BYTE   W03
        BYTE   PEND
// 012   ----------------------------------------
FortuneRavine_9_12:
        BYTE           VOL     84
        BYTE           N96     Dn2   v107
        BYTE           N96     Fs2
        BYTE           N96     Dn3
        BYTE   W03
        BYTE           VOL     83
        BYTE   W04
        BYTE                   82
        BYTE   W03
        BYTE                   81
        BYTE   W05
        BYTE                   80
        BYTE   W06
        BYTE                   79
        BYTE   W03
        BYTE                   78
        BYTE   W03
        BYTE                   77
        BYTE   W01
        BYTE                   76
        BYTE   W09
        BYTE                   75
        BYTE   W02
        BYTE                   74
        BYTE   W03
        BYTE                   73
        BYTE   W03
        BYTE                   72
        BYTE   W04
        BYTE                   71
        BYTE   W06
        BYTE                   70
        BYTE   W02
        BYTE                   69
        BYTE   W06
        BYTE                   68
        BYTE   W01
        BYTE                   67
        BYTE   W03
        BYTE                   66
        BYTE   W06
        BYTE                   65
        BYTE   W05
        BYTE                   64
        BYTE   W03
        BYTE                   63
        BYTE   W03
        BYTE                   62
        BYTE   W03
        BYTE                   61
        BYTE   W03
        BYTE                   62
        BYTE   W01
        BYTE                   63
        BYTE   W05
        BYTE   PEND
// 013   ----------------------------------------
        BYTE   PATT
         POIN2  FortuneRavine_9_9
// 014   ----------------------------------------
        BYTE   PATT
         POIN2  FortuneRavine_3_2
// 015   ----------------------------------------
FortuneRavine_9_15:
        BYTE           EOT     An2
        BYTE           VOL     63
        BYTE           N36     Ds2   v107
        BYTE           N36     As2
        BYTE           N36     Gn3
        BYTE   W04
        BYTE           VOL     64
        BYTE   W02
        BYTE                   65
        BYTE   W04
        BYTE                   66
        BYTE   W06
        BYTE                   67
        BYTE   W03
        BYTE                   68
        BYTE   W03
        BYTE                   69
        BYTE   W09
        BYTE                   71
        BYTE   W05
        BYTE                   72
        BYTE           N60     Fn2
        BYTE           N60     Cn3
        BYTE           N60     An3
        BYTE   W06
        BYTE           VOL     73
        BYTE   W04
        BYTE                   74
        BYTE   W02
        BYTE                   75
        BYTE   W01
        BYTE                   76
        BYTE   W09
        BYTE                   77
        BYTE   W03
        BYTE                   78
        BYTE   W03
        BYTE                   79
        BYTE   W02
        BYTE                   80
        BYTE   W06
        BYTE                   81
        BYTE   W06
        BYTE                   82
        BYTE   W04
        BYTE                   83
        BYTE   W03
        BYTE                   84
        BYTE   W06
        BYTE                   86
        BYTE   W02
        BYTE                   87
        BYTE   W03
        BYTE   PEND
// 016   ----------------------------------------
        BYTE   PATT
         POIN2  FortuneRavine_9_12
// 017   ----------------------------------------
FortuneRavine_9_17:
        BYTE           N36     Ds2   v107
        BYTE           N36     As2
        BYTE           N36     Gn3
        BYTE   W04
        BYTE           VOL     64
        BYTE   W02
        BYTE                   65
        BYTE   W04
        BYTE                   66
        BYTE   W06
        BYTE                   67
        BYTE   W03
        BYTE                   68
        BYTE   W03
        BYTE                   69
        BYTE   W09
        BYTE                   71
        BYTE   W05
        BYTE                   72
        BYTE           N60     Fn2
        BYTE           N60     Cn3
        BYTE           N60     An3
        BYTE   W06
        BYTE           VOL     73
        BYTE   W04
        BYTE                   74
        BYTE   W02
        BYTE                   75
        BYTE   W01
        BYTE                   76
        BYTE   W09
        BYTE                   77
        BYTE   W03
        BYTE                   78
        BYTE   W03
        BYTE                   79
        BYTE   W02
        BYTE                   80
        BYTE   W06
        BYTE                   81
        BYTE   W06
        BYTE                   82
        BYTE   W04
        BYTE                   83
        BYTE   W03
        BYTE                   84
        BYTE   W06
        BYTE                   86
        BYTE   W02
        BYTE                   87
        BYTE   W03
        BYTE   PEND
// 018   ----------------------------------------
        BYTE   PATT
         POIN2  FortuneRavine_9_12
// 019   ----------------------------------------
        BYTE   W96
// 020   ----------------------------------------
        BYTE   W96
// 021   ----------------------------------------
        BYTE   W96
// 022   ----------------------------------------
        BYTE   W96
// 023   ----------------------------------------
        BYTE   W96
// 024   ----------------------------------------
        BYTE   W96
// 025   ----------------------------------------
        BYTE   W96
// 026   ----------------------------------------
        BYTE   W96
// 027   ----------------------------------------
        BYTE   W96
// 028   ----------------------------------------
        BYTE   W96
// 029   ----------------------------------------
        BYTE   PATT
         POIN2  FortuneRavine_9_9
// 030   ----------------------------------------
        BYTE   PATT
         POIN2  FortuneRavine_9_2
// 031   ----------------------------------------
        BYTE   PATT
         POIN2  FortuneRavine_9_3
// 032   ----------------------------------------
        BYTE   PATT
         POIN2  FortuneRavine_9_4
// 033   ----------------------------------------
        BYTE   PATT
         POIN2  FortuneRavine_9_5
// 034   ----------------------------------------
        BYTE   PATT
         POIN2  FortuneRavine_9_6
// 035   ----------------------------------------
        BYTE   PATT
         POIN2  FortuneRavine_9_7
// 036   ----------------------------------------
        BYTE   PATT
         POIN2  FortuneRavine_9_8
// 037   ----------------------------------------
        BYTE   PATT
         POIN2  FortuneRavine_9_9
// 038   ----------------------------------------
        BYTE   PATT
         POIN2  FortuneRavine_3_2
// 039   ----------------------------------------
        BYTE   PATT
         POIN2  FortuneRavine_9_11
// 040   ----------------------------------------
        BYTE   PATT
         POIN2  FortuneRavine_9_12
// 041   ----------------------------------------
        BYTE   PATT
         POIN2  FortuneRavine_9_9
// 042   ----------------------------------------
        BYTE   PATT
         POIN2  FortuneRavine_3_2
// 043   ----------------------------------------
        BYTE   PATT
         POIN2  FortuneRavine_9_15
// 044   ----------------------------------------
        BYTE   PATT
         POIN2  FortuneRavine_9_12
// 045   ----------------------------------------
        BYTE   PATT
         POIN2  FortuneRavine_9_17
// 046   ----------------------------------------
        BYTE   PATT
         POIN2  FortuneRavine_9_12
// 047   ----------------------------------------
        BYTE   W96
// 048   ----------------------------------------
        BYTE   W96
// 049   ----------------------------------------
        BYTE   W96
// 050   ----------------------------------------
        BYTE   W96
// 051   ----------------------------------------
        BYTE   W96
// 052   ----------------------------------------
        BYTE   W96
// 053   ----------------------------------------
        BYTE   W96
// 054   ----------------------------------------
        BYTE   W96
// 055   ----------------------------------------
        BYTE   W96
// 056   ----------------------------------------
        BYTE   W96
// 057   ----------------------------------------
        BYTE   PATT
         POIN2  FortuneRavine_9_9
// 058   ----------------------------------------
        BYTE   PATT
         POIN2  FortuneRavine_9_2
// 059   ----------------------------------------
        BYTE   PATT
         POIN2  FortuneRavine_9_3
// 060   ----------------------------------------
        BYTE   PATT
         POIN2  FortuneRavine_9_4
// 061   ----------------------------------------
        BYTE   PATT
         POIN2  FortuneRavine_9_5
// 062   ----------------------------------------
        BYTE   PATT
         POIN2  FortuneRavine_9_6
// 063   ----------------------------------------
        BYTE   PATT
         POIN2  FortuneRavine_9_7
// 064   ----------------------------------------
        BYTE   PATT
         POIN2  FortuneRavine_9_8
// 065   ----------------------------------------
        BYTE   FINE

//***************** Track 10 (Midi-Chn.11) *****************//

FortuneRavine_10:
        BYTE   KEYSH   FortuneRavine_key+0
// 000   ----------------------------------------
        BYTE   W24
// 001   ----------------------------------------
        BYTE           VOL     69
        BYTE           VOICE   48
        BYTE   W96
// 002   ----------------------------------------
        BYTE   W96
// 003   ----------------------------------------
        BYTE   W96
// 004   ----------------------------------------
        BYTE   W96
// 005   ----------------------------------------
        BYTE   W96
// 006   ----------------------------------------
        BYTE   W96
// 007   ----------------------------------------
        BYTE   W96
// 008   ----------------------------------------
        BYTE   W96
// 009   ----------------------------------------
FortuneRavine_10_9:
        BYTE           N04     An2   v127
        BYTE   W06
        BYTE                   An2
        BYTE   W06
        BYTE                   An2
        BYTE   W06
        BYTE                   An2
        BYTE   W06
        BYTE                   An2   v080
        BYTE   W06
        BYTE                   An2   v070
        BYTE   W06
        BYTE                   An2   v060
        BYTE   W06
        BYTE                   An2   v055
        BYTE   W54
        BYTE   PEND
// 010   ----------------------------------------
FortuneRavine_10_10:
        BYTE           N04     Cn3   v127
        BYTE   W06
        BYTE                   Cn3
        BYTE   W06
        BYTE                   Cn3
        BYTE   W06
        BYTE                   Dn3
        BYTE   W06
        BYTE                   Dn3   v080
        BYTE   W06
        BYTE                   Dn3   v070
        BYTE   W06
        BYTE                   Dn3   v060
        BYTE   W06
        BYTE                   Dn3   v055
        BYTE   W54
        BYTE   PEND
// 011   ----------------------------------------
        BYTE   PATT
         POIN2  FortuneRavine_10_9
// 012   ----------------------------------------
        BYTE   PATT
         POIN2  FortuneRavine_10_10
// 013   ----------------------------------------
        BYTE   PATT
         POIN2  FortuneRavine_10_9
// 014   ----------------------------------------
        BYTE   PATT
         POIN2  FortuneRavine_10_10
// 015   ----------------------------------------
FortuneRavine_10_15:
        BYTE           N04     Cn3   v127
        BYTE   W06
        BYTE                   Cn3
        BYTE   W06
        BYTE                   Cn3
        BYTE   W06
        BYTE                   Dn3
        BYTE   W06
        BYTE                   Dn3   v080
        BYTE   W06
        BYTE                   Dn3   v070
        BYTE   W06
        BYTE                   Fn3   v127
        BYTE   W06
        BYTE                   Fn3
        BYTE   W06
        BYTE                   Fn3
        BYTE   W06
        BYTE                   Gn3
        BYTE   W06
        BYTE                   Gn3   v080
        BYTE   W06
        BYTE                   Gn3   v070
        BYTE   W06
        BYTE                   Gn3   v060
        BYTE   W06
        BYTE                   Gn3   v055
        BYTE   W18
        BYTE   PEND
// 016   ----------------------------------------
        BYTE   W96
// 017   ----------------------------------------
        BYTE   PATT
         POIN2  FortuneRavine_10_15
// 018   ----------------------------------------
        BYTE   W96
// 019   ----------------------------------------
FortuneRavine_10_19:
        BYTE           N06     En3   v127
        BYTE   W06
        BYTE                   En3   v060
        BYTE   W06
        BYTE                   En3   v050
        BYTE   W06
        BYTE                   Dn3   v127
        BYTE   W06
        BYTE                   Dn3   v060
        BYTE   W06
        BYTE                   Dn3   v050
        BYTE   W06
        BYTE                   En3   v127
        BYTE   W06
        BYTE                   En3   v060
        BYTE   W06
        BYTE                   En3   v050
        BYTE   W06
        BYTE                   Dn3   v127
        BYTE   W06
        BYTE                   Dn3   v060
        BYTE   W06
        BYTE                   Dn3   v050
        BYTE   W06
        BYTE           N18     Dn3   v127
        BYTE   W18
        BYTE           N06     Dn3   v060
        BYTE   W06
        BYTE   PEND
// 020   ----------------------------------------
FortuneRavine_10_20:
        BYTE           N06     En3   v127
        BYTE   W06
        BYTE                   En3   v060
        BYTE   W06
        BYTE                   En3   v050
        BYTE   W06
        BYTE                   Dn3   v127
        BYTE   W06
        BYTE                   Dn3   v060
        BYTE   W06
        BYTE                   Dn3   v050
        BYTE   W06
        BYTE                   En3   v127
        BYTE   W06
        BYTE                   En3   v060
        BYTE   W06
        BYTE                   En3   v050
        BYTE   W06
        BYTE                   Dn3   v127
        BYTE   W06
        BYTE                   Dn3   v060
        BYTE   W06
        BYTE                   Dn3   v050
        BYTE   W06
        BYTE           N18     En3   v127
        BYTE   W18
        BYTE           N06     En3   v060
        BYTE   W06
        BYTE   PEND
// 021   ----------------------------------------
FortuneRavine_10_21:
        BYTE           N06     En3   v127
        BYTE   W06
        BYTE                   En3   v060
        BYTE           N06     An3
        BYTE           N06     Dn4
        BYTE   W06
        BYTE                   En3   v050
        BYTE           N06     An3
        BYTE           N06     Dn4
        BYTE   W06
        BYTE                   Dn3   v127
        BYTE   W06
        BYTE                   Dn3   v060
        BYTE           N06     Gn3
        BYTE           N06     Cn4
        BYTE   W06
        BYTE                   Dn3   v050
        BYTE           N06     Gn3
        BYTE           N06     Cn4
        BYTE   W06
        BYTE                   En3   v127
        BYTE   W06
        BYTE                   En3   v060
        BYTE           N06     An3
        BYTE           N06     Dn4
        BYTE   W06
        BYTE                   En3   v050
        BYTE           N06     An3
        BYTE           N06     Dn4
        BYTE   W06
        BYTE                   Dn3   v127
        BYTE   W06
        BYTE                   Dn3   v060
        BYTE           N06     Gn3
        BYTE           N06     Cn4
        BYTE   W06
        BYTE                   Dn3   v050
        BYTE           N06     Gn3
        BYTE           N06     Cn4
        BYTE   W06
        BYTE           N18     En3   v127
        BYTE   W18
        BYTE           N06     En3   v060
        BYTE           N06     Gn3
        BYTE           N06     Bn3
        BYTE   W06
        BYTE   PEND
// 022   ----------------------------------------
FortuneRavine_10_22:
        BYTE           N06     En3   v127
        BYTE   W06
        BYTE                   En3   v060
        BYTE           N06     An3
        BYTE           N06     Dn4
        BYTE   W06
        BYTE                   En3   v050
        BYTE           N06     An3
        BYTE           N06     Dn4
        BYTE   W06
        BYTE                   Dn3   v127
        BYTE   W06
        BYTE                   Dn3   v060
        BYTE           N06     Gn3
        BYTE           N06     Cn4
        BYTE   W06
        BYTE                   Dn3   v050
        BYTE           N06     Gn3
        BYTE           N06     Cn4
        BYTE   W06
        BYTE                   En3   v127
        BYTE   W06
        BYTE                   En3   v060
        BYTE           N06     An3
        BYTE           N06     Dn4
        BYTE   W06
        BYTE                   En3   v050
        BYTE           N06     An3
        BYTE           N06     Dn4
        BYTE   W06
        BYTE                   Dn3   v127
        BYTE   W06
        BYTE                   Dn3   v060
        BYTE           N06     Gn3
        BYTE           N06     Cn4
        BYTE   W06
        BYTE                   Dn3   v050
        BYTE           N06     Gn3
        BYTE           N06     Cn4
        BYTE   W06
        BYTE           N18     Bn3   v127
        BYTE   W18
        BYTE           N06     Bn3   v060
        BYTE           N06     En4
        BYTE           N06     Gn4
        BYTE   W06
        BYTE   PEND
// 023   ----------------------------------------
FortuneRavine_10_23:
        BYTE           N06     En3   v127
        BYTE   W06
        BYTE                   En3   v060
        BYTE           N06     An3
        BYTE           N06     Dn4
        BYTE   W06
        BYTE                   En3   v050
        BYTE           N06     An3
        BYTE           N06     Dn4
        BYTE   W06
        BYTE                   Dn3   v127
        BYTE   W06
        BYTE                   Dn3   v060
        BYTE           N06     Gn3
        BYTE           N06     Cn4
        BYTE   W06
        BYTE                   Dn3   v050
        BYTE           N06     Gn3
        BYTE           N06     Cn4
        BYTE   W06
        BYTE                   En3   v127
        BYTE   W06
        BYTE                   En3   v060
        BYTE           N06     An3
        BYTE           N06     Dn4
        BYTE   W06
        BYTE                   En3   v050
        BYTE           N06     An3
        BYTE           N06     Dn4
        BYTE   W06
        BYTE                   Dn3   v127
        BYTE   W06
        BYTE                   Dn3   v060
        BYTE           N06     Gn3
        BYTE           N06     Cn4
        BYTE   W06
        BYTE                   Dn3   v050
        BYTE           N06     Gn3
        BYTE           N06     Cn4
        BYTE   W06
        BYTE           N18     Dn3   v127
        BYTE   W18
        BYTE           N06     Dn3   v060
        BYTE           N06     Gn3
        BYTE           N06     Bn3
        BYTE   W06
        BYTE   PEND
// 024   ----------------------------------------
FortuneRavine_10_24:
        BYTE           N06     En3   v127
        BYTE   W06
        BYTE                   En3   v060
        BYTE           N06     An3
        BYTE           N06     Dn4
        BYTE   W06
        BYTE                   En3   v050
        BYTE           N06     An3
        BYTE           N06     Dn4
        BYTE   W06
        BYTE                   Dn3   v127
        BYTE   W06
        BYTE                   Dn3   v060
        BYTE           N06     Gn3
        BYTE           N06     Cn4
        BYTE   W06
        BYTE                   Dn3   v050
        BYTE           N06     Gn3
        BYTE           N06     Cn4
        BYTE   W06
        BYTE                   En3   v127
        BYTE   W06
        BYTE                   En3   v060
        BYTE           N06     An3
        BYTE           N06     Dn4
        BYTE   W06
        BYTE                   En3   v050
        BYTE           N06     An3
        BYTE           N06     Dn4
        BYTE   W06
        BYTE                   Dn3   v127
        BYTE   W06
        BYTE                   Dn3   v060
        BYTE           N06     Gn3
        BYTE           N06     Cn4
        BYTE   W06
        BYTE                   Dn3   v050
        BYTE           N06     Gn3
        BYTE           N06     Cn4
        BYTE   W06
        BYTE           N18     Fs3   v127
        BYTE   W18
        BYTE           N06     Fs3   v060
        BYTE           N06     An3
        BYTE           N06     Bn3
        BYTE   W06
        BYTE   PEND
// 025   ----------------------------------------
FortuneRavine_10_25:
        BYTE           N06     Gn3   v127
        BYTE   W06
        BYTE                   Gn3   v060
        BYTE           N06     Cn4
        BYTE           N06     En4
        BYTE   W06
        BYTE                   Gn3   v050
        BYTE           N06     Cn4
        BYTE           N06     En4
        BYTE   W06
        BYTE                   Gn3   v127
        BYTE   W06
        BYTE                   Gn3   v060
        BYTE           N06     Cn4
        BYTE           N06     En4
        BYTE   W06
        BYTE                   Gn3   v050
        BYTE           N06     Cn4
        BYTE           N06     En4
        BYTE   W06
        BYTE                   Fs3   v127
        BYTE   W06
        BYTE                   Fs3   v060
        BYTE           N06     An3
        BYTE           N06     Dn4
        BYTE   W06
        BYTE                   Fs3   v050
        BYTE           N06     An3
        BYTE           N06     Dn4
        BYTE   W06
        BYTE                   Fs3   v127
        BYTE   W06
        BYTE                   Fs3   v060
        BYTE           N06     An3
        BYTE           N06     Dn4
        BYTE   W06
        BYTE                   Fs3   v050
        BYTE           N06     An3
        BYTE           N06     Dn4
        BYTE   W06
        BYTE           N18     Fs3   v127
        BYTE   W18
        BYTE           N06     Fs3   v060
        BYTE           N06     An3
        BYTE           N06     Dn4
        BYTE   W06
        BYTE   PEND
// 026   ----------------------------------------
FortuneRavine_10_26:
        BYTE           N06     En3   v127
        BYTE   W06
        BYTE                   En3   v060
        BYTE           N06     An3
        BYTE           N06     Dn4
        BYTE   W06
        BYTE                   En3   v050
        BYTE           N06     An3
        BYTE           N06     Dn4
        BYTE   W06
        BYTE                   En3   v127
        BYTE   W06
        BYTE                   En3   v060
        BYTE           N06     An3
        BYTE           N06     Dn4
        BYTE   W06
        BYTE                   En3   v050
        BYTE           N06     An3
        BYTE           N06     Dn4
        BYTE   W06
        BYTE                   En3   v127
        BYTE   W06
        BYTE                   En3   v060
        BYTE           N06     An3
        BYTE           N06     Dn4
        BYTE   W06
        BYTE                   En3   v050
        BYTE           N06     An3
        BYTE           N06     Dn4
        BYTE   W06
        BYTE                   En3   v127
        BYTE   W06
        BYTE                   Dn3   v060
        BYTE           N06     Gn3
        BYTE           N06     Cn4
        BYTE   W06
        BYTE                   Dn3   v050
        BYTE           N06     Gn3
        BYTE           N06     Cn4
        BYTE   W06
        BYTE           N18     Dn3   v127
        BYTE   W18
        BYTE           N06     Dn3   v060
        BYTE           N06     Gn3
        BYTE           N06     Cn4
        BYTE   W06
        BYTE   PEND
// 027   ----------------------------------------
        BYTE   PATT
         POIN2  FortuneRavine_10_25
// 028   ----------------------------------------
FortuneRavine_10_28:
        BYTE           N06     En3   v127
        BYTE   W06
        BYTE                   En3   v060
        BYTE           N06     An3
        BYTE           N06     Dn4
        BYTE   W06
        BYTE                   En3   v050
        BYTE           N06     An3
        BYTE           N06     Dn4
        BYTE   W06
        BYTE                   En3   v127
        BYTE   W06
        BYTE                   En3   v060
        BYTE           N06     An3
        BYTE           N06     Dn4
        BYTE   W06
        BYTE                   En3   v050
        BYTE           N06     An3
        BYTE           N06     Dn4
        BYTE   W06
        BYTE                   En3   v127
        BYTE   W06
        BYTE                   En3   v060
        BYTE           N06     An3
        BYTE           N06     Dn4
        BYTE   W06
        BYTE                   En3   v050
        BYTE           N06     An3
        BYTE           N06     Dn4
        BYTE   W06
        BYTE                   En3   v127
        BYTE   W06
        BYTE                   En3   v060
        BYTE           N06     An3
        BYTE           N06     Dn4
        BYTE   W06
        BYTE                   En3   v050
        BYTE           N06     An3
        BYTE           N06     Dn4
        BYTE   W06
        BYTE           N18     Dn3   v127
        BYTE   W18
        BYTE           N06     Dn3   v060
        BYTE           N06     Gn3
        BYTE           N06     Cn4
        BYTE   W06
        BYTE   PEND
// 029   ----------------------------------------
        BYTE   W96
// 030   ----------------------------------------
        BYTE   W96
// 031   ----------------------------------------
        BYTE   W96
// 032   ----------------------------------------
        BYTE   W96
// 033   ----------------------------------------
        BYTE   W96
// 034   ----------------------------------------
        BYTE   W96
// 035   ----------------------------------------
        BYTE   W96
// 036   ----------------------------------------
        BYTE   W96
// 037   ----------------------------------------
        BYTE   PATT
         POIN2  FortuneRavine_10_9
// 038   ----------------------------------------
        BYTE   PATT
         POIN2  FortuneRavine_10_10
// 039   ----------------------------------------
        BYTE   PATT
         POIN2  FortuneRavine_10_9
// 040   ----------------------------------------
        BYTE   PATT
         POIN2  FortuneRavine_10_10
// 041   ----------------------------------------
        BYTE   PATT
         POIN2  FortuneRavine_10_9
// 042   ----------------------------------------
        BYTE   PATT
         POIN2  FortuneRavine_10_10
// 043   ----------------------------------------
        BYTE   PATT
         POIN2  FortuneRavine_10_15
// 044   ----------------------------------------
        BYTE   W96
// 045   ----------------------------------------
        BYTE   PATT
         POIN2  FortuneRavine_10_15
// 046   ----------------------------------------
        BYTE   W96
// 047   ----------------------------------------
        BYTE   PATT
         POIN2  FortuneRavine_10_19
// 048   ----------------------------------------
        BYTE   PATT
         POIN2  FortuneRavine_10_20
// 049   ----------------------------------------
        BYTE   PATT
         POIN2  FortuneRavine_10_21
// 050   ----------------------------------------
        BYTE   PATT
         POIN2  FortuneRavine_10_22
// 051   ----------------------------------------
        BYTE   PATT
         POIN2  FortuneRavine_10_23
// 052   ----------------------------------------
        BYTE   PATT
         POIN2  FortuneRavine_10_24
// 053   ----------------------------------------
        BYTE   PATT
         POIN2  FortuneRavine_10_25
// 054   ----------------------------------------
        BYTE   PATT
         POIN2  FortuneRavine_10_26
// 055   ----------------------------------------
        BYTE   PATT
         POIN2  FortuneRavine_10_25
// 056   ----------------------------------------
        BYTE   PATT
         POIN2  FortuneRavine_10_28
// 057   ----------------------------------------
        BYTE   W96
// 058   ----------------------------------------
        BYTE   W96
// 059   ----------------------------------------
        BYTE   W96
// 060   ----------------------------------------
        BYTE   W96
// 061   ----------------------------------------
        BYTE   W96
// 062   ----------------------------------------
        BYTE   W96
// 063   ----------------------------------------
        BYTE   W96
// 064   ----------------------------------------
        BYTE   W96
// 065   ----------------------------------------
        BYTE   FINE

//***************** Track 11 (Midi-Chn.12) *****************//

FortuneRavine_11:
        BYTE   KEYSH   FortuneRavine_key+0
// 000   ----------------------------------------
        BYTE   W24
// 001   ----------------------------------------
        BYTE           VOL     82
        BYTE           VOICE   10
        BYTE           N06     An3   v010
        BYTE   W06
        BYTE                   Cn4   v013
        BYTE   W06
        BYTE                   Gn4   v017
        BYTE   W06
        BYTE                   Cn4   v021
        BYTE   W06
        BYTE                   Fs4   v025
        BYTE   W06
        BYTE                   Dn4   v028
        BYTE   W06
        BYTE                   An3   v032
        BYTE   W06
        BYTE                   Cn4   v036
        BYTE   W06
        BYTE                   Gn4   v039
        BYTE   W06
        BYTE                   Cn4   v043
        BYTE   W06
        BYTE                   Fs4   v046
        BYTE   W06
        BYTE                   Dn4   v050
        BYTE   W06
        BYTE                   An3   v055
        BYTE   W06
        BYTE                   Cn4   v058
        BYTE   W06
        BYTE                   Gn4   v062
        BYTE   W06
        BYTE                   Cn4   v065
        BYTE   W06
// 002   ----------------------------------------
        BYTE                   Fs4   v069
        BYTE   W06
        BYTE                   Dn4   v073
        BYTE   W06
        BYTE                   An3   v076
        BYTE   W06
        BYTE                   Cn4   v080
        BYTE   W06
        BYTE                   Gn4   v084
        BYTE   W06
        BYTE                   Cn4   v088
        BYTE   W06
        BYTE                   Fs4   v092
        BYTE   W06
        BYTE                   Dn4   v095
        BYTE   W06
        BYTE                   An3   v099
        BYTE   W06
        BYTE                   Cn4   v102
        BYTE   W06
        BYTE                   Gn4   v106
        BYTE   W06
        BYTE                   Cn4   v110
        BYTE   W06
        BYTE                   Fs4   v114
        BYTE   W06
        BYTE                   Dn4   v118
        BYTE   W06
        BYTE                   An3   v121
        BYTE   W06
        BYTE                   Cn4   v125
        BYTE   W06
// 003   ----------------------------------------
FortuneRavine_11_3:
        BYTE           N06     Gn4   v127
        BYTE   W06
        BYTE                   Cn4   v126
        BYTE   W06
        BYTE                   Fs4   v125
        BYTE   W06
        BYTE                   Dn4   v123
        BYTE   W06
        BYTE                   An3   v122
        BYTE   W06
        BYTE                   Cn4   v120
        BYTE   W06
        BYTE                   Gn4   v119
        BYTE   W06
        BYTE                   Cn4   v118
        BYTE   W06
        BYTE                   Fs4   v116
        BYTE   W06
        BYTE                   Dn4   v115
        BYTE   W06
        BYTE                   An3   v114
        BYTE   W06
        BYTE                   Cn4   v112
        BYTE   W06
        BYTE                   Gn4   v111
        BYTE   W06
        BYTE                   Cn4   v110
        BYTE   W06
        BYTE                   Fs4   v108
        BYTE   W06
        BYTE                   Dn4   v107
        BYTE   W06
        BYTE   PEND
// 004   ----------------------------------------
FortuneRavine_11_4:
        BYTE           N06     An3   v106
        BYTE   W06
        BYTE                   Cn4   v104
        BYTE   W06
        BYTE                   Gn4   v103
        BYTE   W06
        BYTE                   Cn4   v101
        BYTE   W06
        BYTE                   Fs4   v100
        BYTE   W06
        BYTE                   Dn4   v099
        BYTE   W06
        BYTE                   An3   v097
        BYTE   W06
        BYTE                   Cn4   v096
        BYTE   W06
        BYTE                   Gn4   v095
        BYTE   W06
        BYTE                   Cn4   v093
        BYTE   W06
        BYTE                   Fs4   v092
        BYTE   W06
        BYTE                   Dn4   v090
        BYTE   W06
        BYTE                   An3   v089
        BYTE   W06
        BYTE                   Cn4   v088
        BYTE   W06
        BYTE                   Gn4   v086
        BYTE   W06
        BYTE                   Cn4
        BYTE   W06
        BYTE   PEND
// 005   ----------------------------------------
FortuneRavine_11_5:
        BYTE           N06     An3   v088
        BYTE   W06
        BYTE                   Cn4   v089
        BYTE   W06
        BYTE                   Gn4   v090
        BYTE   W06
        BYTE                   Cn4   v091
        BYTE   W06
        BYTE                   Fs4   v092
        BYTE   W06
        BYTE                   Dn4   v094
        BYTE   W06
        BYTE                   An3   v095
        BYTE   W06
        BYTE                   Cn4   v096
        BYTE   W06
        BYTE                   Gn4   v097
        BYTE   W06
        BYTE                   Cn4   v098
        BYTE   W06
        BYTE                   Fs4   v099
        BYTE   W06
        BYTE                   Dn4   v101
        BYTE   W06
        BYTE                   An3   v102
        BYTE   W06
        BYTE                   Cn4   v103
        BYTE   W06
        BYTE                   Gn4   v104
        BYTE   W06
        BYTE                   Cn4   v105
        BYTE   W06
        BYTE   PEND
// 006   ----------------------------------------
FortuneRavine_11_6:
        BYTE           N06     Fs4   v107
        BYTE   W06
        BYTE                   Dn4
        BYTE   W06
        BYTE                   An3   v109
        BYTE   W06
        BYTE                   Cn4   v110
        BYTE   W06
        BYTE                   Gn4   v111
        BYTE   W06
        BYTE                   Cn4   v112
        BYTE   W06
        BYTE                   Fs4   v114
        BYTE   W06
        BYTE                   Dn4   v115
        BYTE   W06
        BYTE                   An3   v116
        BYTE   W06
        BYTE                   Cn4   v117
        BYTE   W06
        BYTE                   Gn4   v118
        BYTE   W06
        BYTE                   Cn4   v120
        BYTE   W06
        BYTE                   Fs4
        BYTE   W06
        BYTE                   Dn4   v122
        BYTE   W06
        BYTE                   An3   v123
        BYTE   W06
        BYTE                   Cn4   v124
        BYTE   W06
        BYTE   PEND
// 007   ----------------------------------------
FortuneRavine_11_7:
        BYTE           N06     Gn4   v125
        BYTE   W06
        BYTE                   Cn4   v127
        BYTE   W06
        BYTE                   Fs4
        BYTE   W06
        BYTE                   Dn4
        BYTE   W06
        BYTE                   An3   v126
        BYTE   W06
        BYTE                   Cn4   v125
        BYTE   W06
        BYTE                   Gn4   v124
        BYTE   W06
        BYTE                   Cn4   v123
        BYTE   W06
        BYTE                   Fs4   v122
        BYTE   W06
        BYTE                   Dn4   v121
        BYTE   W06
        BYTE                   An3   v120
        BYTE   W06
        BYTE                   Cn4
        BYTE   W06
        BYTE                   Gn4   v119
        BYTE   W06
        BYTE                   Cn4   v118
        BYTE   W06
        BYTE                   Fs4   v117
        BYTE   W06
        BYTE                   Dn4   v116
        BYTE   W06
        BYTE   PEND
// 008   ----------------------------------------
FortuneRavine_11_8:
        BYTE           N06     An3   v115
        BYTE   W06
        BYTE                   Cn4   v114
        BYTE   W06
        BYTE                   Gn4   v113
        BYTE   W06
        BYTE                   Cn4   v112
        BYTE   W06
        BYTE                   Fs4   v111
        BYTE   W06
        BYTE                   Dn4   v110
        BYTE   W06
        BYTE                   An3   v109
        BYTE   W06
        BYTE                   Cn4   v108
        BYTE   W06
        BYTE                   Gn4   v107
        BYTE   W06
        BYTE                   Cn4
        BYTE   W06
        BYTE                   Fs4   v106
        BYTE   W06
        BYTE                   Dn4   v105
        BYTE   W06
        BYTE                   An3   v104
        BYTE   W06
        BYTE                   Cn4   v103
        BYTE   W06
        BYTE                   Gn4   v102
        BYTE   W06
        BYTE                   Cn4   v101
        BYTE   W06
        BYTE   PEND
// 009   ----------------------------------------
FortuneRavine_11_9:
        BYTE           N06     Fs4   v100
        BYTE   W06
        BYTE                   Dn4   v099
        BYTE   W06
        BYTE                   An3   v098
        BYTE   W06
        BYTE                   Cn4   v099
        BYTE   W06
        BYTE                   Gn4   v100
        BYTE   W06
        BYTE                   Cn4   v101
        BYTE   W06
        BYTE                   Fs4   v102
        BYTE   W06
        BYTE                   Dn4   v103
        BYTE   W06
        BYTE                   An3   v104
        BYTE   W06
        BYTE                   Cn4   v106
        BYTE   W06
        BYTE                   Gn4   v107
        BYTE   W06
        BYTE                   Cn4
        BYTE   W06
        BYTE                   Fs4   v108
        BYTE   W06
        BYTE                   Dn4   v109
        BYTE   W06
        BYTE                   An3   v111
        BYTE   W06
        BYTE                   Cn4   v112
        BYTE   W06
        BYTE   PEND
// 010   ----------------------------------------
FortuneRavine_11_10:
        BYTE           N06     Gn4   v113
        BYTE   W06
        BYTE                   Cn4   v114
        BYTE   W06
        BYTE                   Fs4
        BYTE   W06
        BYTE                   Dn4   v116
        BYTE   W06
        BYTE                   An3   v117
        BYTE   W06
        BYTE                   Cn4   v118
        BYTE   W06
        BYTE                   Gn4   v119
        BYTE   W06
        BYTE                   Cn4   v120
        BYTE   W06
        BYTE                   Fs4   v121
        BYTE   W06
        BYTE                   Dn4   v122
        BYTE   W06
        BYTE                   An3   v123
        BYTE   W06
        BYTE                   Cn4   v124
        BYTE   W06
        BYTE                   Gn4   v125
        BYTE   W06
        BYTE                   Cn4   v126
        BYTE   W06
        BYTE                   Fs4   v127
        BYTE   W06
        BYTE                   Dn4
        BYTE   W06
        BYTE   PEND
// 011   ----------------------------------------
FortuneRavine_11_11:
        BYTE           N06     An3   v127
        BYTE   W06
        BYTE                   Cn4   v126
        BYTE   W06
        BYTE                   Gn4   v125
        BYTE   W06
        BYTE                   Cn4   v124
        BYTE   W06
        BYTE                   Fs4   v123
        BYTE   W06
        BYTE                   Dn4   v122
        BYTE   W06
        BYTE                   An3   v121
        BYTE   W06
        BYTE                   Cn4   v120
        BYTE   W06
        BYTE                   Gn4
        BYTE   W06
        BYTE                   Cn4   v119
        BYTE   W06
        BYTE                   Fs4   v118
        BYTE   W06
        BYTE                   Dn4   v117
        BYTE   W06
        BYTE                   An3   v116
        BYTE   W06
        BYTE                   Cn4
        BYTE   W06
        BYTE                   Gn4   v115
        BYTE   W06
        BYTE                   Cn4   v114
        BYTE   W06
        BYTE   PEND
// 012   ----------------------------------------
FortuneRavine_11_12:
        BYTE           N06     Fs4   v113
        BYTE   W06
        BYTE                   Dn4
        BYTE   W06
        BYTE                   An3   v112
        BYTE   W06
        BYTE                   Cn4   v111
        BYTE   W06
        BYTE                   Gn4   v110
        BYTE   W06
        BYTE                   Cn4   v109
        BYTE   W06
        BYTE                   Fs4   v108
        BYTE   W06
        BYTE                   Dn4   v107
        BYTE   W06
        BYTE                   An3
        BYTE   W06
        BYTE                   Cn4   v106
        BYTE   W06
        BYTE                   Gn4   v105
        BYTE   W06
        BYTE                   Cn4   v104
        BYTE   W06
        BYTE                   Fs4   v103
        BYTE   W06
        BYTE                   Dn4
        BYTE   W06
        BYTE                   An3   v102
        BYTE   W06
        BYTE                   Cn4   v101
        BYTE   W06
        BYTE   PEND
// 013   ----------------------------------------
FortuneRavine_11_13:
        BYTE           N06     Gn4   v100
        BYTE   W06
        BYTE                   Cn4   v101
        BYTE   W06
        BYTE                   Fs4
        BYTE   W06
        BYTE                   Dn4   v102
        BYTE   W06
        BYTE                   An3   v103
        BYTE   W06
        BYTE                   Cn4   v104
        BYTE   W06
        BYTE                   Gn4   v105
        BYTE   W06
        BYTE                   Cn4   v106
        BYTE   W06
        BYTE                   Fs4   v107
        BYTE   W06
        BYTE                   Dn4   v108
        BYTE   W06
        BYTE                   An3   v109
        BYTE   W06
        BYTE                   Cn4   v110
        BYTE   W06
        BYTE                   Gn4   v111
        BYTE   W06
        BYTE                   Cn4   v112
        BYTE   W06
        BYTE                   Fs4   v113
        BYTE   W06
        BYTE                   Dn4   v114
        BYTE   W06
        BYTE   PEND
// 014   ----------------------------------------
FortuneRavine_11_14:
        BYTE           N06     An3   v114
        BYTE   W06
        BYTE                   Cn4   v115
        BYTE   W06
        BYTE                   Gn4   v116
        BYTE   W06
        BYTE                   Cn4   v117
        BYTE   W06
        BYTE                   Fs4   v118
        BYTE   W06
        BYTE                   Dn4   v119
        BYTE   W06
        BYTE                   An3   v120
        BYTE   W06
        BYTE                   Cn4   v121
        BYTE   W06
        BYTE                   Gn4   v122
        BYTE   W06
        BYTE                   Cn4   v123
        BYTE   W06
        BYTE                   Fs4   v124
        BYTE   W06
        BYTE                   Dn4   v125
        BYTE   W06
        BYTE                   An3   v126
        BYTE   W06
        BYTE                   Cn4   v127
        BYTE   W06
        BYTE                   Gn4
        BYTE   W06
        BYTE                   Cn4
        BYTE   W06
        BYTE   PEND
// 015   ----------------------------------------
FortuneRavine_11_15:
        BYTE           N06     As4   v127
        BYTE   W06
        BYTE                   Fn4   v126
        BYTE   W06
        BYTE                   Ds4
        BYTE   W06
        BYTE                   As3   v125
        BYTE   W06
        BYTE                   As4   v124
        BYTE   W06
        BYTE                   Ds4   v123
        BYTE   W06
        BYTE                   Cn5
        BYTE   W06
        BYTE                   Fn4   v122
        BYTE   W06
        BYTE                   Cn4   v121
        BYTE   W06
        BYTE                   Fn4
        BYTE   W06
        BYTE                   Cn5   v120
        BYTE   W06
        BYTE                   Fn4
        BYTE   W06
        BYTE                   Bn4   v119
        BYTE   W06
        BYTE                   Gn4   v118
        BYTE   W06
        BYTE                   Dn4
        BYTE   W06
        BYTE                   Fn4   v117
        BYTE   W06
        BYTE   PEND
// 016   ----------------------------------------
FortuneRavine_11_16:
        BYTE           N06     Gn4   v116
        BYTE   W06
        BYTE                   Cn4
        BYTE   W06
        BYTE                   Fs4   v115
        BYTE   W06
        BYTE                   Dn4   v114
        BYTE   W06
        BYTE                   An3
        BYTE   W06
        BYTE                   Cn4
        BYTE   W06
        BYTE                   Gn4   v115
        BYTE   W06
        BYTE                   Cn4   v116
        BYTE   W06
        BYTE                   Fs4   v117
        BYTE   W06
        BYTE                   Dn4   v118
        BYTE   W06
        BYTE                   An3   v119
        BYTE   W06
        BYTE                   Cn4   v120
        BYTE   W06
        BYTE                   Gn4   v121
        BYTE   W06
        BYTE                   Cn4   v122
        BYTE   W06
        BYTE                   Fs4   v123
        BYTE   W06
        BYTE                   Dn4   v124
        BYTE   W06
        BYTE   PEND
// 017   ----------------------------------------
FortuneRavine_11_17:
        BYTE           N06     Cn4   v125
        BYTE   W06
        BYTE                   Ds4
        BYTE   W06
        BYTE                   As4   v124
        BYTE   W06
        BYTE                   Ds4   v123
        BYTE   W06
        BYTE                   An4
        BYTE   W06
        BYTE                   Fn4   v122
        BYTE   W06
        BYTE                   Dn4   v121
        BYTE   W06
        BYTE                   Fn4
        BYTE   W06
        BYTE                   Cn5   v120
        BYTE   W06
        BYTE                   Fn4
        BYTE   W06
        BYTE                   Bn4   v119
        BYTE   W06
        BYTE                   Gn4   v118
        BYTE   W06
        BYTE                   Dn4   v117
        BYTE   W06
        BYTE                   Fn4
        BYTE   W06
        BYTE                   Cn5   v116
        BYTE   W06
        BYTE                   Fn4   v115
        BYTE   W06
        BYTE   PEND
// 018   ----------------------------------------
FortuneRavine_11_18:
        BYTE           N06     Fs4   v115
        BYTE   W06
        BYTE                   Dn4   v114
        BYTE   W06
        BYTE                   An3
        BYTE   W06
        BYTE                   Cn4   v115
        BYTE   W06
        BYTE                   Gn4   v116
        BYTE   W06
        BYTE                   Cn4   v117
        BYTE   W06
        BYTE                   Fs4   v118
        BYTE   W06
        BYTE                   Dn4   v119
        BYTE   W06
        BYTE                   An3   v120
        BYTE   W06
        BYTE                   Cn4
        BYTE   W06
        BYTE                   Gn4   v121
        BYTE   W06
        BYTE                   Cn4   v122
        BYTE   W06
        BYTE                   Fs4   v123
        BYTE   W06
        BYTE                   Dn4   v124
        BYTE   W06
        BYTE                   An3
        BYTE   W06
        BYTE                   Cn4   v125
        BYTE   W06
        BYTE   PEND
// 019   ----------------------------------------
FortuneRavine_11_19:
        BYTE           N06     Gn4   v126
        BYTE   W06
        BYTE                   Cn4   v127
        BYTE   W06
        BYTE                   Fs4   v126
        BYTE   W06
        BYTE                   Dn4   v124
        BYTE   W06
        BYTE                   An3   v123
        BYTE   W06
        BYTE                   Cn4   v122
        BYTE   W06
        BYTE                   Gn4   v121
        BYTE   W06
        BYTE                   Cn4   v120
        BYTE   W06
        BYTE                   Fs4   v119
        BYTE   W06
        BYTE                   Dn4   v118
        BYTE   W06
        BYTE                   An3   v116
        BYTE   W06
        BYTE                   Cn4   v115
        BYTE   W06
        BYTE                   Gn4   v114
        BYTE   W06
        BYTE                   Cn4   v113
        BYTE   W06
        BYTE                   Fs4   v112
        BYTE   W06
        BYTE                   Dn4   v111
        BYTE   W06
        BYTE   PEND
// 020   ----------------------------------------
FortuneRavine_11_20:
        BYTE           N06     An3   v110
        BYTE   W06
        BYTE                   Cn4
        BYTE   W06
        BYTE                   Gn4   v111
        BYTE   W06
        BYTE                   Cn4   v112
        BYTE   W06
        BYTE                   Fs4   v113
        BYTE   W06
        BYTE                   Dn4   v114
        BYTE   W06
        BYTE                   An3   v115
        BYTE   W06
        BYTE                   Cn4   v116
        BYTE   W06
        BYTE                   Gn4   v117
        BYTE   W06
        BYTE                   Cn4   v118
        BYTE   W06
        BYTE                   Fs4   v119
        BYTE   W06
        BYTE                   Dn4   v120
        BYTE   W06
        BYTE                   An3   v121
        BYTE   W06
        BYTE                   Cn4   v122
        BYTE   W06
        BYTE                   Gn4   v123
        BYTE   W06
        BYTE                   Cn4   v124
        BYTE   W06
        BYTE   PEND
// 021   ----------------------------------------
FortuneRavine_11_21:
        BYTE           N06     Fs4   v125
        BYTE   W06
        BYTE                   Dn4   v124
        BYTE   W06
        BYTE                   An3   v123
        BYTE   W06
        BYTE                   Cn4   v122
        BYTE   W06
        BYTE                   Gn4   v120
        BYTE   W06
        BYTE                   Cn4
        BYTE   W06
        BYTE                   Fs4   v119
        BYTE   W06
        BYTE                   Dn4   v118
        BYTE   W06
        BYTE                   An3   v117
        BYTE   W06
        BYTE                   Cn4   v116
        BYTE   W06
        BYTE                   Gn4   v115
        BYTE   W06
        BYTE                   Cn4   v114
        BYTE   W06
        BYTE                   Fs4   v113
        BYTE   W06
        BYTE                   Dn4   v112
        BYTE   W06
        BYTE                   An3   v111
        BYTE   W06
        BYTE                   Cn4   v110
        BYTE   W06
        BYTE   PEND
// 022   ----------------------------------------
FortuneRavine_11_22:
        BYTE           N06     Gn4   v109
        BYTE   W06
        BYTE                   Cn4   v107
        BYTE   W06
        BYTE                   Fs4
        BYTE   W06
        BYTE                   Dn4   v106
        BYTE   W06
        BYTE                   An3   v105
        BYTE   W06
        BYTE                   Cn4   v104
        BYTE   W06
        BYTE                   Gn4   v103
        BYTE   W06
        BYTE                   Cn4   v101
        BYTE   W06
        BYTE                   Fs4
        BYTE   W06
        BYTE                   Dn4   v100
        BYTE   W06
        BYTE                   An3   v099
        BYTE   W06
        BYTE                   Cn4   v098
        BYTE   W06
        BYTE                   Gn4   v097
        BYTE   W06
        BYTE                   Cn4   v095
        BYTE   W06
        BYTE                   Fs4
        BYTE   W06
        BYTE                   Dn4   v094
        BYTE   W06
        BYTE   PEND
// 023   ----------------------------------------
FortuneRavine_11_23:
        BYTE           N06     An3   v094
        BYTE   W06
        BYTE                   Cn4   v095
        BYTE   W06
        BYTE                   Gn4
        BYTE   W06
        BYTE                   Cn4   v096
        BYTE   W06
        BYTE                   Fs4   v097
        BYTE   W06
        BYTE                   Dn4   v098
        BYTE   W06
        BYTE                   An3   v099
        BYTE   W06
        BYTE                   Cn4   v100
        BYTE   W06
        BYTE                   Gn4   v101
        BYTE   W06
        BYTE                   Cn4   v102
        BYTE   W06
        BYTE                   Fs4   v103
        BYTE   W06
        BYTE                   Dn4   v104
        BYTE   W06
        BYTE                   An3   v105
        BYTE   W06
        BYTE                   Cn4   v106
        BYTE   W06
        BYTE                   Gn4   v107
        BYTE   W06
        BYTE                   Cn4
        BYTE   W06
        BYTE   PEND
// 024   ----------------------------------------
FortuneRavine_11_24:
        BYTE           N06     Fs4   v108
        BYTE   W06
        BYTE                   Dn4   v109
        BYTE   W06
        BYTE                   An3   v110
        BYTE   W06
        BYTE                   Cn4   v111
        BYTE   W06
        BYTE                   Gn4   v112
        BYTE   W06
        BYTE                   Cn4   v113
        BYTE   W06
        BYTE                   Fs4   v114
        BYTE   W06
        BYTE                   Dn4   v115
        BYTE   W06
        BYTE                   An3   v116
        BYTE   W06
        BYTE                   Cn4   v117
        BYTE   W06
        BYTE                   Gn4   v118
        BYTE   W06
        BYTE                   Cn4   v119
        BYTE   W06
        BYTE                   Fs4   v120
        BYTE   W06
        BYTE                   Dn4
        BYTE   W06
        BYTE                   An3   v121
        BYTE   W06
        BYTE                   Cn4   v122
        BYTE   W06
        BYTE   PEND
// 025   ----------------------------------------
FortuneRavine_11_25:
        BYTE           N06     Gn4   v123
        BYTE   W06
        BYTE                   Cn4   v124
        BYTE   W06
        BYTE                   Fs4   v125
        BYTE   W06
        BYTE                   Dn4   v124
        BYTE   W06
        BYTE                   An3   v122
        BYTE   W06
        BYTE                   Cn4   v121
        BYTE   W06
        BYTE                   Gn4   v120
        BYTE   W06
        BYTE                   Cn4   v119
        BYTE   W06
        BYTE                   Fs4   v118
        BYTE   W06
        BYTE                   Dn4   v116
        BYTE   W06
        BYTE                   An3   v115
        BYTE   W06
        BYTE                   Cn4   v114
        BYTE   W06
        BYTE                   Gn4   v113
        BYTE   W06
        BYTE                   Cn4   v112
        BYTE   W06
        BYTE                   Fs4   v110
        BYTE   W06
        BYTE                   Dn4   v109
        BYTE   W06
        BYTE   PEND
// 026   ----------------------------------------
FortuneRavine_11_26:
        BYTE           N06     An3   v108
        BYTE   W06
        BYTE                   Cn4   v107
        BYTE   W06
        BYTE                   Gn4   v106
        BYTE   W06
        BYTE                   Cn4   v104
        BYTE   W06
        BYTE                   Fs4   v103
        BYTE   W06
        BYTE                   Dn4   v102
        BYTE   W06
        BYTE                   An3   v101
        BYTE   W06
        BYTE                   Cn4   v100
        BYTE   W06
        BYTE                   Gn4   v098
        BYTE   W06
        BYTE                   Cn4   v097
        BYTE   W06
        BYTE                   Fs4   v096
        BYTE   W06
        BYTE                   Dn4   v095
        BYTE   W06
        BYTE                   An3   v094
        BYTE   W06
        BYTE                   Cn4   v092
        BYTE   W06
        BYTE                   Gn4   v089
        BYTE   W06
        BYTE                   Cn4   v090
        BYTE   W06
        BYTE   PEND
// 027   ----------------------------------------
FortuneRavine_11_27:
        BYTE           N06     An3   v091
        BYTE   W06
        BYTE                   Cn4   v092
        BYTE   W06
        BYTE                   Gn4   v094
        BYTE   W06
        BYTE                   Cn4   v095
        BYTE   W06
        BYTE                   Fs4   v096
        BYTE   W06
        BYTE                   Dn4   v097
        BYTE   W06
        BYTE                   An3   v098
        BYTE   W06
        BYTE                   Cn4   v099
        BYTE   W06
        BYTE                   Gn4   v100
        BYTE   W06
        BYTE                   Cn4   v101
        BYTE   W06
        BYTE                   Fs4   v102
        BYTE   W06
        BYTE                   Dn4   v104
        BYTE   W06
        BYTE                   An3   v105
        BYTE   W06
        BYTE                   Cn4   v106
        BYTE   W06
        BYTE                   Gn4   v107
        BYTE   W06
        BYTE                   Cn4   v108
        BYTE   W06
        BYTE   PEND
// 028   ----------------------------------------
FortuneRavine_11_28:
        BYTE           N06     Fs4   v109
        BYTE   W06
        BYTE                   Dn4   v110
        BYTE   W06
        BYTE                   An3   v111
        BYTE   W06
        BYTE                   Cn4   v113
        BYTE   W06
        BYTE                   Gn4   v114
        BYTE   W06
        BYTE                   Cn4   v115
        BYTE   W06
        BYTE                   Fs4   v116
        BYTE   W06
        BYTE                   Dn4   v117
        BYTE   W06
        BYTE                   An3   v118
        BYTE   W06
        BYTE                   Cn4   v119
        BYTE   W06
        BYTE                   Gn4   v120
        BYTE   W06
        BYTE                   Cn4   v121
        BYTE   W06
        BYTE                   Fs4   v123
        BYTE   W06
        BYTE                   Dn4   v124
        BYTE   W06
        BYTE                   An3   v125
        BYTE   W06
        BYTE                   Cn4
        BYTE   W06
        BYTE   PEND
// 029   ----------------------------------------
FortuneRavine_11_29:
        BYTE           N06     An3   v124
        BYTE   W06
        BYTE                   Cn4   v123
        BYTE   W06
        BYTE                   Gn4   v122
        BYTE   W06
        BYTE                   Cn4   v121
        BYTE   W06
        BYTE                   Fs4   v120
        BYTE   W06
        BYTE                   Dn4   v119
        BYTE   W06
        BYTE                   An3   v118
        BYTE   W06
        BYTE                   Cn4   v116
        BYTE   W06
        BYTE                   Gn4
        BYTE   W06
        BYTE                   Cn4   v115
        BYTE   W06
        BYTE                   Fs4   v113
        BYTE   W06
        BYTE                   Dn4   v112
        BYTE   W06
        BYTE                   An3   v111
        BYTE   W06
        BYTE                   Cn4   v110
        BYTE   W06
        BYTE                   Gn4   v109
        BYTE   W06
        BYTE                   Cn4   v108
        BYTE   W06
        BYTE   PEND
// 030   ----------------------------------------
FortuneRavine_11_30:
        BYTE           N06     Fs4   v107
        BYTE   W06
        BYTE                   Dn4   v108
        BYTE   W06
        BYTE                   An3   v109
        BYTE   W06
        BYTE                   Cn4   v111
        BYTE   W06
        BYTE                   Gn4
        BYTE   W06
        BYTE                   Cn4   v113
        BYTE   W06
        BYTE                   Fs4   v114
        BYTE   W06
        BYTE                   Dn4   v115
        BYTE   W06
        BYTE                   An3   v116
        BYTE   W06
        BYTE                   Cn4   v118
        BYTE   W06
        BYTE                   Gn4   v119
        BYTE   W06
        BYTE                   Cn4   v120
        BYTE   W06
        BYTE                   Fs4   v121
        BYTE   W06
        BYTE                   Dn4   v123
        BYTE   W06
        BYTE                   An3   v124
        BYTE   W06
        BYTE                   Cn4   v125
        BYTE   W06
        BYTE   PEND
// 031   ----------------------------------------
        BYTE   PATT
         POIN2  FortuneRavine_11_3
// 032   ----------------------------------------
        BYTE   PATT
         POIN2  FortuneRavine_11_4
// 033   ----------------------------------------
        BYTE   PATT
         POIN2  FortuneRavine_11_5
// 034   ----------------------------------------
        BYTE   PATT
         POIN2  FortuneRavine_11_6
// 035   ----------------------------------------
        BYTE   PATT
         POIN2  FortuneRavine_11_7
// 036   ----------------------------------------
        BYTE   PATT
         POIN2  FortuneRavine_11_8
// 037   ----------------------------------------
        BYTE   PATT
         POIN2  FortuneRavine_11_9
// 038   ----------------------------------------
        BYTE   PATT
         POIN2  FortuneRavine_11_10
// 039   ----------------------------------------
        BYTE   PATT
         POIN2  FortuneRavine_11_11
// 040   ----------------------------------------
        BYTE   PATT
         POIN2  FortuneRavine_11_12
// 041   ----------------------------------------
        BYTE   PATT
         POIN2  FortuneRavine_11_13
// 042   ----------------------------------------
        BYTE   PATT
         POIN2  FortuneRavine_11_14
// 043   ----------------------------------------
        BYTE   PATT
         POIN2  FortuneRavine_11_15
// 044   ----------------------------------------
        BYTE   PATT
         POIN2  FortuneRavine_11_16
// 045   ----------------------------------------
        BYTE   PATT
         POIN2  FortuneRavine_11_17
// 046   ----------------------------------------
        BYTE   PATT
         POIN2  FortuneRavine_11_18
// 047   ----------------------------------------
        BYTE   PATT
         POIN2  FortuneRavine_11_19
// 048   ----------------------------------------
        BYTE   PATT
         POIN2  FortuneRavine_11_20
// 049   ----------------------------------------
        BYTE   PATT
         POIN2  FortuneRavine_11_21
// 050   ----------------------------------------
        BYTE   PATT
         POIN2  FortuneRavine_11_22
// 051   ----------------------------------------
        BYTE   PATT
         POIN2  FortuneRavine_11_23
// 052   ----------------------------------------
        BYTE   PATT
         POIN2  FortuneRavine_11_24
// 053   ----------------------------------------
        BYTE   PATT
         POIN2  FortuneRavine_11_25
// 054   ----------------------------------------
        BYTE   PATT
         POIN2  FortuneRavine_11_26
// 055   ----------------------------------------
        BYTE   PATT
         POIN2  FortuneRavine_11_27
// 056   ----------------------------------------
        BYTE   PATT
         POIN2  FortuneRavine_11_28
// 057   ----------------------------------------
        BYTE   PATT
         POIN2  FortuneRavine_11_29
// 058   ----------------------------------------
        BYTE   PATT
         POIN2  FortuneRavine_11_30
// 059   ----------------------------------------
        BYTE   PATT
         POIN2  FortuneRavine_11_3
// 060   ----------------------------------------
        BYTE   PATT
         POIN2  FortuneRavine_11_4
// 061   ----------------------------------------
        BYTE   PATT
         POIN2  FortuneRavine_11_5
// 062   ----------------------------------------
        BYTE   PATT
         POIN2  FortuneRavine_11_6
// 063   ----------------------------------------
        BYTE   PATT
         POIN2  FortuneRavine_11_7
// 064   ----------------------------------------
        BYTE   PATT
         POIN2  FortuneRavine_11_8
// 065   ----------------------------------------
        BYTE   FINE

//***************** Track 12 (Midi-Chn.13) *****************//

FortuneRavine_12:
        BYTE   KEYSH   FortuneRavine_key+0
// 000   ----------------------------------------
        BYTE   W24
// 001   ----------------------------------------
        BYTE           PAN     c_v+63
        BYTE           VOL     43
        BYTE           VOICE   10
        BYTE   W06
        BYTE           N06     An3   v010
        BYTE   W06
        BYTE                   Cn4   v013
        BYTE   W06
        BYTE                   Gn4   v017
        BYTE   W06
        BYTE                   Cn4   v021
        BYTE   W06
        BYTE                   Fs4   v025
        BYTE   W06
        BYTE                   Dn4   v028
        BYTE   W06
        BYTE                   An3   v032
        BYTE   W06
        BYTE                   Cn4   v036
        BYTE   W06
        BYTE                   Gn4   v039
        BYTE   W06
        BYTE                   Cn4   v043
        BYTE   W06
        BYTE                   Fs4   v046
        BYTE   W06
        BYTE                   Dn4   v050
        BYTE   W06
        BYTE                   An3   v055
        BYTE   W06
        BYTE                   Cn4   v058
        BYTE   W06
        BYTE                   Gn4   v062
        BYTE   W06
// 002   ----------------------------------------
        BYTE                   Cn4   v065
        BYTE   W06
        BYTE                   Fs4   v069
        BYTE   W06
        BYTE                   Dn4   v073
        BYTE   W06
        BYTE                   An3   v076
        BYTE   W06
        BYTE                   Cn4   v080
        BYTE   W06
        BYTE                   Gn4   v084
        BYTE   W06
        BYTE                   Cn4   v088
        BYTE   W06
        BYTE                   Fs4   v092
        BYTE   W06
        BYTE                   Dn4   v095
        BYTE   W06
        BYTE                   An3   v099
        BYTE   W06
        BYTE                   Cn4   v102
        BYTE   W06
        BYTE                   Gn4   v106
        BYTE   W06
        BYTE                   Cn4   v110
        BYTE   W06
        BYTE                   Fs4   v114
        BYTE   W06
        BYTE                   Dn4   v118
        BYTE   W06
        BYTE                   An3   v121
        BYTE   W06
// 003   ----------------------------------------
        BYTE                   Cn4   v125
        BYTE   W06
        BYTE                   Gn4   v127
        BYTE   W06
        BYTE                   Cn4   v126
        BYTE   W06
        BYTE                   Fs4   v125
        BYTE   W06
        BYTE                   Dn4   v123
        BYTE   W06
        BYTE                   An3   v122
        BYTE   W06
        BYTE                   Cn4   v120
        BYTE   W06
        BYTE                   Gn4   v119
        BYTE   W06
        BYTE                   Cn4   v118
        BYTE   W06
        BYTE                   Fs4   v116
        BYTE   W06
        BYTE                   Dn4   v115
        BYTE   W06
        BYTE                   An3   v114
        BYTE   W06
        BYTE                   Cn4   v112
        BYTE   W06
        BYTE                   Gn4   v111
        BYTE   W06
        BYTE                   Cn4   v110
        BYTE   W06
        BYTE                   Fs4   v108
        BYTE   W06
// 004   ----------------------------------------
FortuneRavine_12_4:
        BYTE           N06     Dn4   v107
        BYTE   W06
        BYTE                   An3   v106
        BYTE   W06
        BYTE                   Cn4   v104
        BYTE   W06
        BYTE                   Gn4   v103
        BYTE   W06
        BYTE                   Cn4   v101
        BYTE   W06
        BYTE                   Fs4   v100
        BYTE   W06
        BYTE                   Dn4   v099
        BYTE   W06
        BYTE                   An3   v097
        BYTE   W06
        BYTE                   Cn4   v096
        BYTE   W06
        BYTE                   Gn4   v095
        BYTE   W06
        BYTE                   Cn4   v093
        BYTE   W06
        BYTE                   Fs4   v092
        BYTE   W06
        BYTE                   Dn4   v090
        BYTE   W06
        BYTE                   An3   v089
        BYTE   W06
        BYTE                   Cn4   v088
        BYTE   W06
        BYTE                   Gn4   v086
        BYTE   W06
        BYTE   PEND
// 005   ----------------------------------------
FortuneRavine_12_5:
        BYTE           N06     Cn4   v086
        BYTE   W06
        BYTE                   An3   v088
        BYTE   W06
        BYTE                   Cn4   v089
        BYTE   W06
        BYTE                   Gn4   v090
        BYTE   W06
        BYTE                   Cn4   v091
        BYTE   W06
        BYTE                   Fs4   v092
        BYTE   W06
        BYTE                   Dn4   v094
        BYTE   W06
        BYTE                   An3   v095
        BYTE   W06
        BYTE                   Cn4   v096
        BYTE   W06
        BYTE                   Gn4   v097
        BYTE   W06
        BYTE                   Cn4   v098
        BYTE   W06
        BYTE                   Fs4   v099
        BYTE   W06
        BYTE                   Dn4   v101
        BYTE   W06
        BYTE                   An3   v102
        BYTE   W06
        BYTE                   Cn4   v103
        BYTE   W06
        BYTE                   Gn4   v104
        BYTE   W06
        BYTE   PEND
// 006   ----------------------------------------
FortuneRavine_12_6:
        BYTE           N06     Cn4   v105
        BYTE   W06
        BYTE                   Fs4   v107
        BYTE   W06
        BYTE                   Dn4
        BYTE   W06
        BYTE                   An3   v109
        BYTE   W06
        BYTE                   Cn4   v110
        BYTE   W06
        BYTE                   Gn4   v111
        BYTE   W06
        BYTE                   Cn4   v112
        BYTE   W06
        BYTE                   Fs4   v114
        BYTE   W06
        BYTE                   Dn4   v115
        BYTE   W06
        BYTE                   An3   v116
        BYTE   W06
        BYTE                   Cn4   v117
        BYTE   W06
        BYTE                   Gn4   v118
        BYTE   W06
        BYTE                   Cn4   v120
        BYTE   W06
        BYTE                   Fs4
        BYTE   W06
        BYTE                   Dn4   v122
        BYTE   W06
        BYTE                   An3   v123
        BYTE   W06
        BYTE   PEND
// 007   ----------------------------------------
FortuneRavine_12_7:
        BYTE           N06     Cn4   v124
        BYTE   W06
        BYTE                   Gn4   v125
        BYTE   W06
        BYTE                   Cn4   v127
        BYTE   W06
        BYTE                   Fs4
        BYTE   W06
        BYTE                   Dn4
        BYTE   W06
        BYTE                   An3   v126
        BYTE   W06
        BYTE                   Cn4   v125
        BYTE   W06
        BYTE                   Gn4   v124
        BYTE   W06
        BYTE                   Cn4   v123
        BYTE   W06
        BYTE                   Fs4   v122
        BYTE   W06
        BYTE                   Dn4   v121
        BYTE   W06
        BYTE                   An3   v120
        BYTE   W06
        BYTE                   Cn4
        BYTE   W06
        BYTE                   Gn4   v119
        BYTE   W06
        BYTE                   Cn4   v118
        BYTE   W06
        BYTE                   Fs4   v117
        BYTE   W06
        BYTE   PEND
// 008   ----------------------------------------
FortuneRavine_12_8:
        BYTE           N06     Dn4   v116
        BYTE   W06
        BYTE                   An3   v115
        BYTE   W06
        BYTE                   Cn4   v114
        BYTE   W06
        BYTE                   Gn4   v113
        BYTE   W06
        BYTE                   Cn4   v112
        BYTE   W06
        BYTE                   Fs4   v111
        BYTE   W06
        BYTE                   Dn4   v110
        BYTE   W06
        BYTE                   An3   v109
        BYTE   W06
        BYTE                   Cn4   v108
        BYTE   W06
        BYTE                   Gn4   v107
        BYTE   W06
        BYTE                   Cn4
        BYTE   W06
        BYTE                   Fs4   v106
        BYTE   W06
        BYTE                   Dn4   v105
        BYTE   W06
        BYTE                   An3   v104
        BYTE   W06
        BYTE                   Cn4   v103
        BYTE   W06
        BYTE                   Gn4   v102
        BYTE   W06
        BYTE   PEND
// 009   ----------------------------------------
FortuneRavine_12_9:
        BYTE           N06     Cn4   v101
        BYTE   W06
        BYTE                   Fs4   v100
        BYTE   W06
        BYTE                   Dn4   v099
        BYTE   W06
        BYTE                   An3   v098
        BYTE   W06
        BYTE                   Cn4   v099
        BYTE   W06
        BYTE                   Gn4   v100
        BYTE   W06
        BYTE                   Cn4   v101
        BYTE   W06
        BYTE                   Fs4   v102
        BYTE   W06
        BYTE                   Dn4   v103
        BYTE   W06
        BYTE                   An3   v104
        BYTE   W06
        BYTE                   Cn4   v106
        BYTE   W06
        BYTE                   Gn4   v107
        BYTE   W06
        BYTE                   Cn4
        BYTE   W06
        BYTE                   Fs4   v108
        BYTE   W06
        BYTE                   Dn4   v109
        BYTE   W06
        BYTE                   An3   v111
        BYTE   W06
        BYTE   PEND
// 010   ----------------------------------------
FortuneRavine_12_10:
        BYTE           N06     Cn4   v112
        BYTE   W06
        BYTE                   Gn4   v113
        BYTE   W06
        BYTE                   Cn4   v114
        BYTE   W06
        BYTE                   Fs4
        BYTE   W06
        BYTE                   Dn4   v116
        BYTE   W06
        BYTE                   An3   v117
        BYTE   W06
        BYTE                   Cn4   v118
        BYTE   W06
        BYTE                   Gn4   v119
        BYTE   W06
        BYTE                   Cn4   v120
        BYTE   W06
        BYTE                   Fs4   v121
        BYTE   W06
        BYTE                   Dn4   v122
        BYTE   W06
        BYTE                   An3   v123
        BYTE   W06
        BYTE                   Cn4   v124
        BYTE   W06
        BYTE                   Gn4   v125
        BYTE   W06
        BYTE                   Cn4   v126
        BYTE   W06
        BYTE                   Fs4   v127
        BYTE   W06
        BYTE   PEND
// 011   ----------------------------------------
FortuneRavine_12_11:
        BYTE           N06     Dn4   v127
        BYTE   W06
        BYTE                   An3
        BYTE   W06
        BYTE                   Cn4   v126
        BYTE   W06
        BYTE                   Gn4   v125
        BYTE   W06
        BYTE                   Cn4   v124
        BYTE   W06
        BYTE                   Fs4   v123
        BYTE   W06
        BYTE                   Dn4   v122
        BYTE   W06
        BYTE                   An3   v121
        BYTE   W06
        BYTE                   Cn4   v120
        BYTE   W06
        BYTE                   Gn4
        BYTE   W06
        BYTE                   Cn4   v119
        BYTE   W06
        BYTE                   Fs4   v118
        BYTE   W06
        BYTE                   Dn4   v117
        BYTE   W06
        BYTE                   An3   v116
        BYTE   W06
        BYTE                   Cn4
        BYTE   W06
        BYTE                   Gn4   v115
        BYTE   W06
        BYTE   PEND
// 012   ----------------------------------------
FortuneRavine_12_12:
        BYTE           N06     Cn4   v114
        BYTE   W06
        BYTE                   Fs4   v113
        BYTE   W06
        BYTE                   Dn4
        BYTE   W06
        BYTE                   An3   v112
        BYTE   W06
        BYTE                   Cn4   v111
        BYTE   W06
        BYTE                   Gn4   v110
        BYTE   W06
        BYTE                   Cn4   v109
        BYTE   W06
        BYTE                   Fs4   v108
        BYTE   W06
        BYTE                   Dn4   v107
        BYTE   W06
        BYTE                   An3
        BYTE   W06
        BYTE                   Cn4   v106
        BYTE   W06
        BYTE                   Gn4   v105
        BYTE   W06
        BYTE                   Cn4   v104
        BYTE   W06
        BYTE                   Fs4   v103
        BYTE   W06
        BYTE                   Dn4
        BYTE   W06
        BYTE                   An3   v102
        BYTE   W06
        BYTE   PEND
// 013   ----------------------------------------
FortuneRavine_12_13:
        BYTE           N06     Cn4   v101
        BYTE   W06
        BYTE                   Gn4   v100
        BYTE   W06
        BYTE                   Cn4   v101
        BYTE   W06
        BYTE                   Fs4
        BYTE   W06
        BYTE                   Dn4   v102
        BYTE   W06
        BYTE                   An3   v103
        BYTE   W06
        BYTE                   Cn4   v104
        BYTE   W06
        BYTE                   Gn4   v105
        BYTE   W06
        BYTE                   Cn4   v106
        BYTE   W06
        BYTE                   Fs4   v107
        BYTE   W06
        BYTE                   Dn4   v108
        BYTE   W06
        BYTE                   An3   v109
        BYTE   W06
        BYTE                   Cn4   v110
        BYTE   W06
        BYTE                   Gn4   v111
        BYTE   W06
        BYTE                   Cn4   v112
        BYTE   W06
        BYTE                   Fs4   v113
        BYTE   W06
        BYTE   PEND
// 014   ----------------------------------------
FortuneRavine_12_14:
        BYTE           N06     Dn4   v114
        BYTE   W06
        BYTE                   An3
        BYTE   W06
        BYTE                   Cn4   v115
        BYTE   W06
        BYTE                   Gn4   v116
        BYTE   W06
        BYTE                   Cn4   v117
        BYTE   W06
        BYTE                   Fs4   v118
        BYTE   W06
        BYTE                   Dn4   v119
        BYTE   W06
        BYTE                   An3   v120
        BYTE   W06
        BYTE                   Cn4   v121
        BYTE   W06
        BYTE                   Gn4   v122
        BYTE   W06
        BYTE                   Cn4   v123
        BYTE   W06
        BYTE                   Fs4   v124
        BYTE   W06
        BYTE                   Dn4   v125
        BYTE   W06
        BYTE                   An3   v126
        BYTE   W06
        BYTE                   Cn4   v127
        BYTE   W06
        BYTE                   Gn4
        BYTE   W06
        BYTE   PEND
// 015   ----------------------------------------
FortuneRavine_12_15:
        BYTE           N06     Cn4   v127
        BYTE   W06
        BYTE                   As4
        BYTE   W06
        BYTE                   Fn4   v126
        BYTE   W06
        BYTE                   Ds4
        BYTE   W06
        BYTE                   As3   v125
        BYTE   W06
        BYTE                   As4   v124
        BYTE   W06
        BYTE                   Ds4   v123
        BYTE   W06
        BYTE                   Cn5
        BYTE   W06
        BYTE                   Fn4   v122
        BYTE   W06
        BYTE                   Cn4   v121
        BYTE   W06
        BYTE                   Fn4
        BYTE   W06
        BYTE                   Cn5   v120
        BYTE   W06
        BYTE                   Fn4
        BYTE   W06
        BYTE                   Bn4   v119
        BYTE   W06
        BYTE                   Gn4   v118
        BYTE   W06
        BYTE                   Dn4
        BYTE   W06
        BYTE   PEND
// 016   ----------------------------------------
FortuneRavine_12_16:
        BYTE           N06     Fn4   v117
        BYTE   W06
        BYTE                   Gn4   v116
        BYTE   W06
        BYTE                   Cn4
        BYTE   W06
        BYTE                   Fs4   v115
        BYTE   W06
        BYTE                   Dn4   v114
        BYTE   W06
        BYTE                   An3
        BYTE   W06
        BYTE                   Cn4
        BYTE   W06
        BYTE                   Gn4   v115
        BYTE   W06
        BYTE                   Cn4   v116
        BYTE   W06
        BYTE                   Fs4   v117
        BYTE   W06
        BYTE                   Dn4   v118
        BYTE   W06
        BYTE                   An3   v119
        BYTE   W06
        BYTE                   Cn4   v120
        BYTE   W06
        BYTE                   Gn4   v121
        BYTE   W06
        BYTE                   Cn4   v122
        BYTE   W06
        BYTE                   Fs4   v123
        BYTE   W06
        BYTE   PEND
// 017   ----------------------------------------
FortuneRavine_12_17:
        BYTE           N06     Dn4   v124
        BYTE   W06
        BYTE                   Cn4   v125
        BYTE   W06
        BYTE                   Ds4
        BYTE   W06
        BYTE                   As4   v124
        BYTE   W06
        BYTE                   Ds4   v123
        BYTE   W06
        BYTE                   An4
        BYTE   W06
        BYTE                   Fn4   v122
        BYTE   W06
        BYTE                   Dn4   v121
        BYTE   W06
        BYTE                   Fn4
        BYTE   W06
        BYTE                   Cn5   v120
        BYTE   W06
        BYTE                   Fn4
        BYTE   W06
        BYTE                   Bn4   v119
        BYTE   W06
        BYTE                   Gn4   v118
        BYTE   W06
        BYTE                   Dn4   v117
        BYTE   W06
        BYTE                   Fn4
        BYTE   W06
        BYTE                   Cn5   v116
        BYTE   W06
        BYTE   PEND
// 018   ----------------------------------------
FortuneRavine_12_18:
        BYTE           N06     Fn4   v115
        BYTE   W06
        BYTE                   Fs4
        BYTE   W06
        BYTE                   Dn4   v114
        BYTE   W06
        BYTE                   An3
        BYTE   W06
        BYTE                   Cn4   v115
        BYTE   W06
        BYTE                   Gn4   v116
        BYTE   W06
        BYTE                   Cn4   v117
        BYTE   W06
        BYTE                   Fs4   v118
        BYTE   W06
        BYTE                   Dn4   v119
        BYTE   W06
        BYTE                   An3   v120
        BYTE   W06
        BYTE                   Cn4
        BYTE   W06
        BYTE                   Gn4   v121
        BYTE   W06
        BYTE                   Cn4   v122
        BYTE   W06
        BYTE                   Fs4   v123
        BYTE   W06
        BYTE                   Dn4   v124
        BYTE   W06
        BYTE                   An3
        BYTE   W06
        BYTE   PEND
// 019   ----------------------------------------
FortuneRavine_12_19:
        BYTE           N06     Cn4   v125
        BYTE   W06
        BYTE                   Gn4   v126
        BYTE   W06
        BYTE                   Cn4   v127
        BYTE   W06
        BYTE                   Fs4   v126
        BYTE   W06
        BYTE                   Dn4   v124
        BYTE   W06
        BYTE                   An3   v123
        BYTE   W06
        BYTE                   Cn4   v122
        BYTE   W06
        BYTE                   Gn4   v121
        BYTE   W06
        BYTE                   Cn4   v120
        BYTE   W06
        BYTE                   Fs4   v119
        BYTE   W06
        BYTE                   Dn4   v118
        BYTE   W06
        BYTE                   An3   v116
        BYTE   W06
        BYTE                   Cn4   v115
        BYTE   W06
        BYTE                   Gn4   v114
        BYTE   W06
        BYTE                   Cn4   v113
        BYTE   W06
        BYTE                   Fs4   v112
        BYTE   W06
        BYTE   PEND
// 020   ----------------------------------------
FortuneRavine_12_20:
        BYTE           N06     Dn4   v111
        BYTE   W06
        BYTE                   An3   v110
        BYTE   W06
        BYTE                   Cn4
        BYTE   W06
        BYTE                   Gn4   v111
        BYTE   W06
        BYTE                   Cn4   v112
        BYTE   W06
        BYTE                   Fs4   v113
        BYTE   W06
        BYTE                   Dn4   v114
        BYTE   W06
        BYTE                   An3   v115
        BYTE   W06
        BYTE                   Cn4   v116
        BYTE   W06
        BYTE                   Gn4   v117
        BYTE   W06
        BYTE                   Cn4   v118
        BYTE   W06
        BYTE                   Fs4   v119
        BYTE   W06
        BYTE                   Dn4   v120
        BYTE   W06
        BYTE                   An3   v121
        BYTE   W06
        BYTE                   Cn4   v122
        BYTE   W06
        BYTE                   Gn4   v123
        BYTE   W06
        BYTE   PEND
// 021   ----------------------------------------
FortuneRavine_12_21:
        BYTE           N06     Cn4   v124
        BYTE   W06
        BYTE                   Fs4   v125
        BYTE   W06
        BYTE                   Dn4   v124
        BYTE   W06
        BYTE                   An3   v123
        BYTE   W06
        BYTE                   Cn4   v122
        BYTE   W06
        BYTE                   Gn4   v120
        BYTE   W06
        BYTE                   Cn4
        BYTE   W06
        BYTE                   Fs4   v119
        BYTE   W06
        BYTE                   Dn4   v118
        BYTE   W06
        BYTE                   An3   v117
        BYTE   W06
        BYTE                   Cn4   v116
        BYTE   W06
        BYTE                   Gn4   v115
        BYTE   W06
        BYTE                   Cn4   v114
        BYTE   W06
        BYTE                   Fs4   v113
        BYTE   W06
        BYTE                   Dn4   v112
        BYTE   W06
        BYTE                   An3   v111
        BYTE   W06
        BYTE   PEND
// 022   ----------------------------------------
FortuneRavine_12_22:
        BYTE           N06     Cn4   v110
        BYTE   W06
        BYTE                   Gn4   v109
        BYTE   W06
        BYTE                   Cn4   v107
        BYTE   W06
        BYTE                   Fs4
        BYTE   W06
        BYTE                   Dn4   v106
        BYTE   W06
        BYTE                   An3   v105
        BYTE   W06
        BYTE                   Cn4   v104
        BYTE   W06
        BYTE                   Gn4   v103
        BYTE   W06
        BYTE                   Cn4   v101
        BYTE   W06
        BYTE                   Fs4
        BYTE   W06
        BYTE                   Dn4   v100
        BYTE   W06
        BYTE                   An3   v099
        BYTE   W06
        BYTE                   Cn4   v098
        BYTE   W06
        BYTE                   Gn4   v097
        BYTE   W06
        BYTE                   Cn4   v095
        BYTE   W06
        BYTE                   Fs4
        BYTE   W06
        BYTE   PEND
// 023   ----------------------------------------
FortuneRavine_12_23:
        BYTE           N06     Dn4   v094
        BYTE   W06
        BYTE                   An3
        BYTE   W06
        BYTE                   Cn4   v095
        BYTE   W06
        BYTE                   Gn4
        BYTE   W06
        BYTE                   Cn4   v096
        BYTE   W06
        BYTE                   Fs4   v097
        BYTE   W06
        BYTE                   Dn4   v098
        BYTE   W06
        BYTE                   An3   v099
        BYTE   W06
        BYTE                   Cn4   v100
        BYTE   W06
        BYTE                   Gn4   v101
        BYTE   W06
        BYTE                   Cn4   v102
        BYTE   W06
        BYTE                   Fs4   v103
        BYTE   W06
        BYTE                   Dn4   v104
        BYTE   W06
        BYTE                   An3   v105
        BYTE   W06
        BYTE                   Cn4   v106
        BYTE   W06
        BYTE                   Gn4   v107
        BYTE   W06
        BYTE   PEND
// 024   ----------------------------------------
FortuneRavine_12_24:
        BYTE           N06     Cn4   v107
        BYTE   W06
        BYTE                   Fs4   v108
        BYTE   W06
        BYTE                   Dn4   v109
        BYTE   W06
        BYTE                   An3   v110
        BYTE   W06
        BYTE                   Cn4   v111
        BYTE   W06
        BYTE                   Gn4   v112
        BYTE   W06
        BYTE                   Cn4   v113
        BYTE   W06
        BYTE                   Fs4   v114
        BYTE   W06
        BYTE                   Dn4   v115
        BYTE   W06
        BYTE                   An3   v116
        BYTE   W06
        BYTE                   Cn4   v117
        BYTE   W06
        BYTE                   Gn4   v118
        BYTE   W06
        BYTE                   Cn4   v119
        BYTE   W06
        BYTE                   Fs4   v120
        BYTE   W06
        BYTE                   Dn4
        BYTE   W06
        BYTE                   An3   v121
        BYTE   W06
        BYTE   PEND
// 025   ----------------------------------------
FortuneRavine_12_25:
        BYTE           N06     Cn4   v122
        BYTE   W06
        BYTE                   Gn4   v123
        BYTE   W06
        BYTE                   Cn4   v124
        BYTE   W06
        BYTE                   Fs4   v125
        BYTE   W06
        BYTE                   Dn4   v124
        BYTE   W06
        BYTE                   An3   v122
        BYTE   W06
        BYTE                   Cn4   v121
        BYTE   W06
        BYTE                   Gn4   v120
        BYTE   W06
        BYTE                   Cn4   v119
        BYTE   W06
        BYTE                   Fs4   v118
        BYTE   W06
        BYTE                   Dn4   v116
        BYTE   W06
        BYTE                   An3   v115
        BYTE   W06
        BYTE                   Cn4   v114
        BYTE   W06
        BYTE                   Gn4   v113
        BYTE   W06
        BYTE                   Cn4   v112
        BYTE   W06
        BYTE                   Fs4   v110
        BYTE   W06
        BYTE   PEND
// 026   ----------------------------------------
FortuneRavine_12_26:
        BYTE           N06     Dn4   v109
        BYTE   W06
        BYTE                   An3   v108
        BYTE   W06
        BYTE                   Cn4   v107
        BYTE   W06
        BYTE                   Gn4   v106
        BYTE   W06
        BYTE                   Cn4   v104
        BYTE   W06
        BYTE                   Fs4   v103
        BYTE   W06
        BYTE                   Dn4   v102
        BYTE   W06
        BYTE                   An3   v101
        BYTE   W06
        BYTE                   Cn4   v100
        BYTE   W06
        BYTE                   Gn4   v098
        BYTE   W06
        BYTE                   Cn4   v097
        BYTE   W06
        BYTE                   Fs4   v096
        BYTE   W06
        BYTE                   Dn4   v095
        BYTE   W06
        BYTE                   An3   v094
        BYTE   W06
        BYTE                   Cn4   v092
        BYTE   W06
        BYTE                   Gn4   v089
        BYTE   W06
        BYTE   PEND
// 027   ----------------------------------------
FortuneRavine_12_27:
        BYTE           N06     Cn4   v090
        BYTE   W06
        BYTE                   An3   v091
        BYTE   W06
        BYTE                   Cn4   v092
        BYTE   W06
        BYTE                   Gn4   v094
        BYTE   W06
        BYTE                   Cn4   v095
        BYTE   W06
        BYTE                   Fs4   v096
        BYTE   W06
        BYTE                   Dn4   v097
        BYTE   W06
        BYTE                   An3   v098
        BYTE   W06
        BYTE                   Cn4   v099
        BYTE   W06
        BYTE                   Gn4   v100
        BYTE   W06
        BYTE                   Cn4   v101
        BYTE   W06
        BYTE                   Fs4   v102
        BYTE   W06
        BYTE                   Dn4   v104
        BYTE   W06
        BYTE                   An3   v105
        BYTE   W06
        BYTE                   Cn4   v106
        BYTE   W06
        BYTE                   Gn4   v107
        BYTE   W06
        BYTE   PEND
// 028   ----------------------------------------
FortuneRavine_12_28:
        BYTE           N06     Cn4   v108
        BYTE   W06
        BYTE                   Fs4   v109
        BYTE   W06
        BYTE                   Dn4   v110
        BYTE   W06
        BYTE                   An3   v111
        BYTE   W06
        BYTE                   Cn4   v113
        BYTE   W06
        BYTE                   Gn4   v114
        BYTE   W06
        BYTE                   Cn4   v115
        BYTE   W06
        BYTE                   Fs4   v116
        BYTE   W06
        BYTE                   Dn4   v117
        BYTE   W06
        BYTE                   An3   v118
        BYTE   W06
        BYTE                   Cn4   v119
        BYTE   W06
        BYTE                   Gn4   v120
        BYTE   W06
        BYTE                   Cn4   v121
        BYTE   W06
        BYTE                   Fs4   v123
        BYTE   W06
        BYTE                   Dn4   v124
        BYTE   W06
        BYTE                   An3   v125
        BYTE   W06
        BYTE   PEND
// 029   ----------------------------------------
FortuneRavine_12_29:
        BYTE           N06     Cn4   v126
        BYTE   W06
        BYTE                   An3   v124
        BYTE   W06
        BYTE                   Cn4   v123
        BYTE   W06
        BYTE                   Gn4   v122
        BYTE   W06
        BYTE                   Cn4   v121
        BYTE   W06
        BYTE                   Fs4   v120
        BYTE   W06
        BYTE                   Dn4   v118
        BYTE   W06
        BYTE                   An3   v117
        BYTE   W06
        BYTE                   Cn4   v116
        BYTE   W06
        BYTE                   Gn4   v115
        BYTE   W06
        BYTE                   Cn4   v114
        BYTE   W06
        BYTE                   Fs4   v112
        BYTE   W06
        BYTE                   Dn4   v111
        BYTE   W06
        BYTE                   An3   v110
        BYTE   W06
        BYTE                   Cn4   v109
        BYTE   W06
        BYTE                   Gn4   v108
        BYTE   W06
        BYTE   PEND
// 030   ----------------------------------------
FortuneRavine_12_30:
        BYTE           N06     Cn4   v106
        BYTE   W06
        BYTE                   Fs4   v107
        BYTE   W06
        BYTE                   Dn4   v108
        BYTE   W06
        BYTE                   An3   v110
        BYTE   W06
        BYTE                   Cn4   v111
        BYTE   W06
        BYTE                   Gn4   v112
        BYTE   W06
        BYTE                   Cn4   v113
        BYTE   W06
        BYTE                   Fs4   v115
        BYTE   W06
        BYTE                   Dn4   v116
        BYTE   W06
        BYTE                   An3   v117
        BYTE   W06
        BYTE                   Cn4   v119
        BYTE   W06
        BYTE                   Gn4   v120
        BYTE   W06
        BYTE                   Cn4   v121
        BYTE   W06
        BYTE                   Fs4   v122
        BYTE   W06
        BYTE                   Dn4   v124
        BYTE   W06
        BYTE                   An3   v125
        BYTE   W06
        BYTE   PEND
// 031   ----------------------------------------
FortuneRavine_12_31:
        BYTE           N06     Cn4   v127
        BYTE   W06
        BYTE                   Gn4
        BYTE   W06
        BYTE                   Cn4   v126
        BYTE   W06
        BYTE                   Fs4   v125
        BYTE   W06
        BYTE                   Dn4   v123
        BYTE   W06
        BYTE                   An3   v122
        BYTE   W06
        BYTE                   Cn4   v120
        BYTE   W06
        BYTE                   Gn4   v119
        BYTE   W06
        BYTE                   Cn4   v118
        BYTE   W06
        BYTE                   Fs4   v116
        BYTE   W06
        BYTE                   Dn4   v115
        BYTE   W06
        BYTE                   An3   v114
        BYTE   W06
        BYTE                   Cn4   v112
        BYTE   W06
        BYTE                   Gn4   v111
        BYTE   W06
        BYTE                   Cn4   v110
        BYTE   W06
        BYTE                   Fs4   v108
        BYTE   W06
        BYTE   PEND
// 032   ----------------------------------------
        BYTE   PATT
         POIN2  FortuneRavine_12_4
// 033   ----------------------------------------
        BYTE   PATT
         POIN2  FortuneRavine_12_5
// 034   ----------------------------------------
        BYTE   PATT
         POIN2  FortuneRavine_12_6
// 035   ----------------------------------------
        BYTE   PATT
         POIN2  FortuneRavine_12_7
// 036   ----------------------------------------
        BYTE   PATT
         POIN2  FortuneRavine_12_8
// 037   ----------------------------------------
        BYTE   PATT
         POIN2  FortuneRavine_12_9
// 038   ----------------------------------------
        BYTE   PATT
         POIN2  FortuneRavine_12_10
// 039   ----------------------------------------
        BYTE   PATT
         POIN2  FortuneRavine_12_11
// 040   ----------------------------------------
        BYTE   PATT
         POIN2  FortuneRavine_12_12
// 041   ----------------------------------------
        BYTE   PATT
         POIN2  FortuneRavine_12_13
// 042   ----------------------------------------
        BYTE   PATT
         POIN2  FortuneRavine_12_14
// 043   ----------------------------------------
        BYTE   PATT
         POIN2  FortuneRavine_12_15
// 044   ----------------------------------------
        BYTE   PATT
         POIN2  FortuneRavine_12_16
// 045   ----------------------------------------
        BYTE   PATT
         POIN2  FortuneRavine_12_17
// 046   ----------------------------------------
        BYTE   PATT
         POIN2  FortuneRavine_12_18
// 047   ----------------------------------------
        BYTE   PATT
         POIN2  FortuneRavine_12_19
// 048   ----------------------------------------
        BYTE   PATT
         POIN2  FortuneRavine_12_20
// 049   ----------------------------------------
        BYTE   PATT
         POIN2  FortuneRavine_12_21
// 050   ----------------------------------------
        BYTE   PATT
         POIN2  FortuneRavine_12_22
// 051   ----------------------------------------
        BYTE   PATT
         POIN2  FortuneRavine_12_23
// 052   ----------------------------------------
        BYTE   PATT
         POIN2  FortuneRavine_12_24
// 053   ----------------------------------------
        BYTE   PATT
         POIN2  FortuneRavine_12_25
// 054   ----------------------------------------
        BYTE   PATT
         POIN2  FortuneRavine_12_26
// 055   ----------------------------------------
        BYTE   PATT
         POIN2  FortuneRavine_12_27
// 056   ----------------------------------------
        BYTE   PATT
         POIN2  FortuneRavine_12_28
// 057   ----------------------------------------
        BYTE   PATT
         POIN2  FortuneRavine_12_29
// 058   ----------------------------------------
        BYTE   PATT
         POIN2  FortuneRavine_12_30
// 059   ----------------------------------------
        BYTE   PATT
         POIN2  FortuneRavine_12_31
// 060   ----------------------------------------
        BYTE   PATT
         POIN2  FortuneRavine_12_4
// 061   ----------------------------------------
        BYTE   PATT
         POIN2  FortuneRavine_12_5
// 062   ----------------------------------------
        BYTE   PATT
         POIN2  FortuneRavine_12_6
// 063   ----------------------------------------
        BYTE   PATT
         POIN2  FortuneRavine_12_7
// 064   ----------------------------------------
        BYTE   PATT
         POIN2  FortuneRavine_12_8
// 065   ----------------------------------------
        BYTE   FINE

//***************** Track 13 (Midi-Chn.14) *****************//

FortuneRavine_13:
        BYTE   KEYSH   FortuneRavine_key+0
// 000   ----------------------------------------
        BYTE   W24
// 001   ----------------------------------------
        BYTE           PAN     c_v-64
        BYTE           VOL     39
        BYTE           VOICE   10
        BYTE   W12
        BYTE           N06     An3   v010
        BYTE   W06
        BYTE                   Cn4   v013
        BYTE   W06
        BYTE                   Gn4   v017
        BYTE   W06
        BYTE                   Cn4   v021
        BYTE   W06
        BYTE                   Fs4   v025
        BYTE   W06
        BYTE                   Dn4   v028
        BYTE   W06
        BYTE                   An3   v032
        BYTE   W06
        BYTE                   Cn4   v036
        BYTE   W06
        BYTE                   Gn4   v039
        BYTE   W06
        BYTE                   Cn4   v043
        BYTE   W06
        BYTE                   Fs4   v046
        BYTE   W06
        BYTE                   Dn4   v050
        BYTE   W06
        BYTE                   An3   v055
        BYTE   W06
        BYTE                   Cn4   v058
        BYTE   W06
// 002   ----------------------------------------
        BYTE                   Gn4   v062
        BYTE   W06
        BYTE                   Cn4   v065
        BYTE   W06
        BYTE                   Fs4   v069
        BYTE   W06
        BYTE                   Dn4   v073
        BYTE   W06
        BYTE                   An3   v076
        BYTE   W06
        BYTE                   Cn4   v080
        BYTE   W06
        BYTE                   Gn4   v084
        BYTE   W06
        BYTE                   Cn4   v088
        BYTE   W06
        BYTE                   Fs4   v092
        BYTE   W06
        BYTE                   Dn4   v095
        BYTE   W06
        BYTE                   An3   v099
        BYTE   W06
        BYTE                   Cn4   v102
        BYTE   W06
        BYTE                   Gn4   v106
        BYTE   W06
        BYTE                   Cn4   v110
        BYTE   W06
        BYTE                   Fs4   v114
        BYTE   W06
        BYTE                   Dn4   v118
        BYTE   W06
// 003   ----------------------------------------
        BYTE                   An3   v121
        BYTE   W06
        BYTE                   Cn4   v125
        BYTE   W06
        BYTE                   Gn4   v127
        BYTE   W06
        BYTE                   Cn4   v126
        BYTE   W06
        BYTE                   Fs4   v125
        BYTE   W06
        BYTE                   Dn4   v123
        BYTE   W06
        BYTE                   An3   v122
        BYTE   W06
        BYTE                   Cn4   v120
        BYTE   W06
        BYTE                   Gn4   v119
        BYTE   W06
        BYTE                   Cn4   v118
        BYTE   W06
        BYTE                   Fs4   v116
        BYTE   W06
        BYTE                   Dn4   v115
        BYTE   W06
        BYTE                   An3   v114
        BYTE   W06
        BYTE                   Cn4   v112
        BYTE   W06
        BYTE                   Gn4   v111
        BYTE   W06
        BYTE                   Cn4   v110
        BYTE   W06
// 004   ----------------------------------------
FortuneRavine_13_4:
        BYTE           N06     Fs4   v108
        BYTE   W06
        BYTE                   Dn4   v107
        BYTE   W06
        BYTE                   An3   v106
        BYTE   W06
        BYTE                   Cn4   v104
        BYTE   W06
        BYTE                   Gn4   v103
        BYTE   W06
        BYTE                   Cn4   v101
        BYTE   W06
        BYTE                   Fs4   v100
        BYTE   W06
        BYTE                   Dn4   v099
        BYTE   W06
        BYTE                   An3   v097
        BYTE   W06
        BYTE                   Cn4   v096
        BYTE   W06
        BYTE                   Gn4   v095
        BYTE   W06
        BYTE                   Cn4   v093
        BYTE   W06
        BYTE                   Fs4   v092
        BYTE   W06
        BYTE                   Dn4   v090
        BYTE   W06
        BYTE                   An3   v089
        BYTE   W06
        BYTE                   Cn4   v088
        BYTE   W06
        BYTE   PEND
// 005   ----------------------------------------
FortuneRavine_13_5:
        BYTE           N06     Gn4   v086
        BYTE   W06
        BYTE                   Cn4
        BYTE   W06
        BYTE                   An3   v088
        BYTE   W06
        BYTE                   Cn4   v089
        BYTE   W06
        BYTE                   Gn4   v090
        BYTE   W06
        BYTE                   Cn4   v091
        BYTE   W06
        BYTE                   Fs4   v092
        BYTE   W06
        BYTE                   Dn4   v094
        BYTE   W06
        BYTE                   An3   v095
        BYTE   W06
        BYTE                   Cn4   v096
        BYTE   W06
        BYTE                   Gn4   v097
        BYTE   W06
        BYTE                   Cn4   v098
        BYTE   W06
        BYTE                   Fs4   v099
        BYTE   W06
        BYTE                   Dn4   v101
        BYTE   W06
        BYTE                   An3   v102
        BYTE   W06
        BYTE                   Cn4   v103
        BYTE   W06
        BYTE   PEND
// 006   ----------------------------------------
FortuneRavine_13_6:
        BYTE           N06     Gn4   v104
        BYTE   W06
        BYTE                   Cn4   v105
        BYTE   W06
        BYTE                   Fs4   v107
        BYTE   W06
        BYTE                   Dn4
        BYTE   W06
        BYTE                   An3   v109
        BYTE   W06
        BYTE                   Cn4   v110
        BYTE   W06
        BYTE                   Gn4   v111
        BYTE   W06
        BYTE                   Cn4   v112
        BYTE   W06
        BYTE                   Fs4   v114
        BYTE   W06
        BYTE                   Dn4   v115
        BYTE   W06
        BYTE                   An3   v116
        BYTE   W06
        BYTE                   Cn4   v117
        BYTE   W06
        BYTE                   Gn4   v118
        BYTE   W06
        BYTE                   Cn4   v120
        BYTE   W06
        BYTE                   Fs4
        BYTE   W06
        BYTE                   Dn4   v122
        BYTE   W06
        BYTE   PEND
// 007   ----------------------------------------
FortuneRavine_13_7:
        BYTE           N06     An3   v123
        BYTE   W06
        BYTE                   Cn4   v124
        BYTE   W06
        BYTE                   Gn4   v125
        BYTE   W06
        BYTE                   Cn4   v127
        BYTE   W06
        BYTE                   Fs4
        BYTE   W06
        BYTE                   Dn4
        BYTE   W06
        BYTE                   An3   v126
        BYTE   W06
        BYTE                   Cn4   v125
        BYTE   W06
        BYTE                   Gn4   v124
        BYTE   W06
        BYTE                   Cn4   v123
        BYTE   W06
        BYTE                   Fs4   v122
        BYTE   W06
        BYTE                   Dn4   v121
        BYTE   W06
        BYTE                   An3   v120
        BYTE   W06
        BYTE                   Cn4
        BYTE   W06
        BYTE                   Gn4   v119
        BYTE   W06
        BYTE                   Cn4   v118
        BYTE   W06
        BYTE   PEND
// 008   ----------------------------------------
FortuneRavine_13_8:
        BYTE           N06     Fs4   v117
        BYTE   W06
        BYTE                   Dn4   v116
        BYTE   W06
        BYTE                   An3   v115
        BYTE   W06
        BYTE                   Cn4   v114
        BYTE   W06
        BYTE                   Gn4   v113
        BYTE   W06
        BYTE                   Cn4   v112
        BYTE   W06
        BYTE                   Fs4   v111
        BYTE   W06
        BYTE                   Dn4   v110
        BYTE   W06
        BYTE                   An3   v109
        BYTE   W06
        BYTE                   Cn4   v108
        BYTE   W06
        BYTE                   Gn4   v107
        BYTE   W06
        BYTE                   Cn4
        BYTE   W06
        BYTE                   Fs4   v106
        BYTE   W06
        BYTE                   Dn4   v105
        BYTE   W06
        BYTE                   An3   v104
        BYTE   W06
        BYTE                   Cn4   v103
        BYTE   W06
        BYTE   PEND
// 009   ----------------------------------------
FortuneRavine_13_9:
        BYTE           N06     Gn4   v102
        BYTE   W06
        BYTE                   Cn4   v101
        BYTE   W06
        BYTE                   Fs4   v100
        BYTE   W06
        BYTE                   Dn4   v099
        BYTE   W06
        BYTE                   An3   v098
        BYTE   W06
        BYTE                   Cn4   v099
        BYTE   W06
        BYTE                   Gn4   v100
        BYTE   W06
        BYTE                   Cn4   v101
        BYTE   W06
        BYTE                   Fs4   v102
        BYTE   W06
        BYTE                   Dn4   v103
        BYTE   W06
        BYTE                   An3   v104
        BYTE   W06
        BYTE                   Cn4   v106
        BYTE   W06
        BYTE                   Gn4   v107
        BYTE   W06
        BYTE                   Cn4
        BYTE   W06
        BYTE                   Fs4   v108
        BYTE   W06
        BYTE                   Dn4   v109
        BYTE   W06
        BYTE   PEND
// 010   ----------------------------------------
FortuneRavine_13_10:
        BYTE           N06     An3   v111
        BYTE   W06
        BYTE                   Cn4   v112
        BYTE   W06
        BYTE                   Gn4   v113
        BYTE   W06
        BYTE                   Cn4   v114
        BYTE   W06
        BYTE                   Fs4
        BYTE   W06
        BYTE                   Dn4   v116
        BYTE   W06
        BYTE                   An3   v117
        BYTE   W06
        BYTE                   Cn4   v118
        BYTE   W06
        BYTE                   Gn4   v119
        BYTE   W06
        BYTE                   Cn4   v120
        BYTE   W06
        BYTE                   Fs4   v121
        BYTE   W06
        BYTE                   Dn4   v122
        BYTE   W06
        BYTE                   An3   v123
        BYTE   W06
        BYTE                   Cn4   v124
        BYTE   W06
        BYTE                   Gn4   v125
        BYTE   W06
        BYTE                   Cn4   v126
        BYTE   W06
        BYTE   PEND
// 011   ----------------------------------------
FortuneRavine_13_11:
        BYTE           N06     Fs4   v127
        BYTE   W06
        BYTE                   Dn4
        BYTE   W06
        BYTE                   An3
        BYTE   W06
        BYTE                   Cn4   v126
        BYTE   W06
        BYTE                   Gn4   v125
        BYTE   W06
        BYTE                   Cn4   v124
        BYTE   W06
        BYTE                   Fs4   v123
        BYTE   W06
        BYTE                   Dn4   v122
        BYTE   W06
        BYTE                   An3   v121
        BYTE   W06
        BYTE                   Cn4   v120
        BYTE   W06
        BYTE                   Gn4
        BYTE   W06
        BYTE                   Cn4   v119
        BYTE   W06
        BYTE                   Fs4   v118
        BYTE   W06
        BYTE                   Dn4   v117
        BYTE   W06
        BYTE                   An3   v116
        BYTE   W06
        BYTE                   Cn4
        BYTE   W06
        BYTE   PEND
// 012   ----------------------------------------
FortuneRavine_13_12:
        BYTE           N06     Gn4   v115
        BYTE   W06
        BYTE                   Cn4   v114
        BYTE   W06
        BYTE                   Fs4   v113
        BYTE   W06
        BYTE                   Dn4
        BYTE   W06
        BYTE                   An3   v112
        BYTE   W06
        BYTE                   Cn4   v111
        BYTE   W06
        BYTE                   Gn4   v110
        BYTE   W06
        BYTE                   Cn4   v109
        BYTE   W06
        BYTE                   Fs4   v108
        BYTE   W06
        BYTE                   Dn4   v107
        BYTE   W06
        BYTE                   An3
        BYTE   W06
        BYTE                   Cn4   v106
        BYTE   W06
        BYTE                   Gn4   v105
        BYTE   W06
        BYTE                   Cn4   v104
        BYTE   W06
        BYTE                   Fs4   v103
        BYTE   W06
        BYTE                   Dn4
        BYTE   W06
        BYTE   PEND
// 013   ----------------------------------------
FortuneRavine_13_13:
        BYTE           N06     An3   v102
        BYTE   W06
        BYTE                   Cn4   v101
        BYTE   W06
        BYTE                   Gn4   v100
        BYTE   W06
        BYTE                   Cn4   v101
        BYTE   W06
        BYTE                   Fs4
        BYTE   W06
        BYTE                   Dn4   v102
        BYTE   W06
        BYTE                   An3   v103
        BYTE   W06
        BYTE                   Cn4   v104
        BYTE   W06
        BYTE                   Gn4   v105
        BYTE   W06
        BYTE                   Cn4   v106
        BYTE   W06
        BYTE                   Fs4   v107
        BYTE   W06
        BYTE                   Dn4   v108
        BYTE   W06
        BYTE                   An3   v109
        BYTE   W06
        BYTE                   Cn4   v110
        BYTE   W06
        BYTE                   Gn4   v111
        BYTE   W06
        BYTE                   Cn4   v112
        BYTE   W06
        BYTE   PEND
// 014   ----------------------------------------
FortuneRavine_13_14:
        BYTE           N06     Fs4   v113
        BYTE   W06
        BYTE                   Dn4   v114
        BYTE   W06
        BYTE                   An3
        BYTE   W06
        BYTE                   Cn4   v115
        BYTE   W06
        BYTE                   Gn4   v116
        BYTE   W06
        BYTE                   Cn4   v117
        BYTE   W06
        BYTE                   Fs4   v118
        BYTE   W06
        BYTE                   Dn4   v119
        BYTE   W06
        BYTE                   An3   v120
        BYTE   W06
        BYTE                   Cn4   v121
        BYTE   W06
        BYTE                   Gn4   v122
        BYTE   W06
        BYTE                   Cn4   v123
        BYTE   W06
        BYTE                   Fs4   v124
        BYTE   W06
        BYTE                   Dn4   v125
        BYTE   W06
        BYTE                   An3   v126
        BYTE   W06
        BYTE                   Cn4   v127
        BYTE   W06
        BYTE   PEND
// 015   ----------------------------------------
FortuneRavine_13_15:
        BYTE           N06     Gn4   v127
        BYTE   W06
        BYTE                   Cn4
        BYTE   W06
        BYTE                   As4
        BYTE   W06
        BYTE                   Fn4   v126
        BYTE   W06
        BYTE                   Ds4
        BYTE   W06
        BYTE                   As3   v125
        BYTE   W06
        BYTE                   As4   v124
        BYTE   W06
        BYTE                   Ds4   v123
        BYTE   W06
        BYTE                   Cn5
        BYTE   W06
        BYTE                   Fn4   v122
        BYTE   W06
        BYTE                   Cn4   v121
        BYTE   W06
        BYTE                   Fn4
        BYTE   W06
        BYTE                   Cn5   v120
        BYTE   W06
        BYTE                   Fn4
        BYTE   W06
        BYTE                   Bn4   v119
        BYTE   W06
        BYTE                   Gn4   v118
        BYTE   W06
        BYTE   PEND
// 016   ----------------------------------------
FortuneRavine_13_16:
        BYTE           N06     Dn4   v118
        BYTE   W06
        BYTE                   Fn4   v117
        BYTE   W06
        BYTE                   Gn4   v116
        BYTE   W06
        BYTE                   Cn4
        BYTE   W06
        BYTE                   Fs4   v115
        BYTE   W06
        BYTE                   Dn4   v114
        BYTE   W06
        BYTE                   An3
        BYTE   W06
        BYTE                   Cn4
        BYTE   W06
        BYTE                   Gn4   v115
        BYTE   W06
        BYTE                   Cn4   v116
        BYTE   W06
        BYTE                   Fs4   v117
        BYTE   W06
        BYTE                   Dn4   v118
        BYTE   W06
        BYTE                   An3   v119
        BYTE   W06
        BYTE                   Cn4   v120
        BYTE   W06
        BYTE                   Gn4   v121
        BYTE   W06
        BYTE                   Cn4   v122
        BYTE   W06
        BYTE   PEND
// 017   ----------------------------------------
FortuneRavine_13_17:
        BYTE           N06     Fs4   v123
        BYTE   W06
        BYTE                   Dn4   v124
        BYTE   W06
        BYTE                   Cn4   v125
        BYTE   W06
        BYTE                   Ds4
        BYTE   W06
        BYTE                   As4   v124
        BYTE   W06
        BYTE                   Ds4   v123
        BYTE   W06
        BYTE                   An4
        BYTE   W06
        BYTE                   Fn4   v122
        BYTE   W06
        BYTE                   Dn4   v121
        BYTE   W06
        BYTE                   Fn4
        BYTE   W06
        BYTE                   Cn5   v120
        BYTE   W06
        BYTE                   Fn4
        BYTE   W06
        BYTE                   Bn4   v119
        BYTE   W06
        BYTE                   Gn4   v118
        BYTE   W06
        BYTE                   Dn4   v117
        BYTE   W06
        BYTE                   Fn4
        BYTE   W06
        BYTE   PEND
// 018   ----------------------------------------
FortuneRavine_13_18:
        BYTE           N06     Cn5   v116
        BYTE   W06
        BYTE                   Fn4   v115
        BYTE   W06
        BYTE                   Fs4
        BYTE   W06
        BYTE                   Dn4   v114
        BYTE   W06
        BYTE                   An3
        BYTE   W06
        BYTE                   Cn4   v115
        BYTE   W06
        BYTE                   Gn4   v116
        BYTE   W06
        BYTE                   Cn4   v117
        BYTE   W06
        BYTE                   Fs4   v118
        BYTE   W06
        BYTE                   Dn4   v119
        BYTE   W06
        BYTE                   An3   v120
        BYTE   W06
        BYTE                   Cn4
        BYTE   W06
        BYTE                   Gn4   v121
        BYTE   W06
        BYTE                   Cn4   v122
        BYTE   W06
        BYTE                   Fs4   v123
        BYTE   W06
        BYTE                   Dn4   v124
        BYTE   W06
        BYTE   PEND
// 019   ----------------------------------------
FortuneRavine_13_19:
        BYTE           N06     An3   v124
        BYTE   W06
        BYTE                   Cn4   v125
        BYTE   W06
        BYTE                   Gn4   v126
        BYTE   W06
        BYTE                   Cn4   v127
        BYTE   W06
        BYTE                   Fs4   v126
        BYTE   W06
        BYTE                   Dn4   v124
        BYTE   W06
        BYTE                   An3   v123
        BYTE   W06
        BYTE                   Cn4   v122
        BYTE   W06
        BYTE                   Gn4   v121
        BYTE   W06
        BYTE                   Cn4   v120
        BYTE   W06
        BYTE                   Fs4   v119
        BYTE   W06
        BYTE                   Dn4   v118
        BYTE   W06
        BYTE                   An3   v116
        BYTE   W06
        BYTE                   Cn4   v115
        BYTE   W06
        BYTE                   Gn4   v114
        BYTE   W06
        BYTE                   Cn4   v113
        BYTE   W06
        BYTE   PEND
// 020   ----------------------------------------
FortuneRavine_13_20:
        BYTE           N06     Fs4   v112
        BYTE   W06
        BYTE                   Dn4   v111
        BYTE   W06
        BYTE                   An3   v110
        BYTE   W06
        BYTE                   Cn4
        BYTE   W06
        BYTE                   Gn4   v111
        BYTE   W06
        BYTE                   Cn4   v112
        BYTE   W06
        BYTE                   Fs4   v113
        BYTE   W06
        BYTE                   Dn4   v114
        BYTE   W06
        BYTE                   An3   v115
        BYTE   W06
        BYTE                   Cn4   v116
        BYTE   W06
        BYTE                   Gn4   v117
        BYTE   W06
        BYTE                   Cn4   v118
        BYTE   W06
        BYTE                   Fs4   v119
        BYTE   W06
        BYTE                   Dn4   v120
        BYTE   W06
        BYTE                   An3   v121
        BYTE   W06
        BYTE                   Cn4   v122
        BYTE   W06
        BYTE   PEND
// 021   ----------------------------------------
FortuneRavine_13_21:
        BYTE           N06     Gn4   v123
        BYTE   W06
        BYTE                   Cn4   v124
        BYTE   W06
        BYTE                   Fs4   v125
        BYTE   W06
        BYTE                   Dn4   v124
        BYTE   W06
        BYTE                   An3   v123
        BYTE   W06
        BYTE                   Cn4   v122
        BYTE   W06
        BYTE                   Gn4   v120
        BYTE   W06
        BYTE                   Cn4
        BYTE   W06
        BYTE                   Fs4   v119
        BYTE   W06
        BYTE                   Dn4   v118
        BYTE   W06
        BYTE                   An3   v117
        BYTE   W06
        BYTE                   Cn4   v116
        BYTE   W06
        BYTE                   Gn4   v115
        BYTE   W06
        BYTE                   Cn4   v114
        BYTE   W06
        BYTE                   Fs4   v113
        BYTE   W06
        BYTE                   Dn4   v112
        BYTE   W06
        BYTE   PEND
// 022   ----------------------------------------
FortuneRavine_13_22:
        BYTE           N06     An3   v111
        BYTE   W06
        BYTE                   Cn4   v110
        BYTE   W06
        BYTE                   Gn4   v109
        BYTE   W06
        BYTE                   Cn4   v107
        BYTE   W06
        BYTE                   Fs4
        BYTE   W06
        BYTE                   Dn4   v106
        BYTE   W06
        BYTE                   An3   v105
        BYTE   W06
        BYTE                   Cn4   v104
        BYTE   W06
        BYTE                   Gn4   v103
        BYTE   W06
        BYTE                   Cn4   v101
        BYTE   W06
        BYTE                   Fs4
        BYTE   W06
        BYTE                   Dn4   v100
        BYTE   W06
        BYTE                   An3   v099
        BYTE   W06
        BYTE                   Cn4   v098
        BYTE   W06
        BYTE                   Gn4   v097
        BYTE   W06
        BYTE                   Cn4   v095
        BYTE   W06
        BYTE   PEND
// 023   ----------------------------------------
FortuneRavine_13_23:
        BYTE           N06     Fs4   v095
        BYTE   W06
        BYTE                   Dn4   v094
        BYTE   W06
        BYTE                   An3
        BYTE   W06
        BYTE                   Cn4   v095
        BYTE   W06
        BYTE                   Gn4
        BYTE   W06
        BYTE                   Cn4   v096
        BYTE   W06
        BYTE                   Fs4   v097
        BYTE   W06
        BYTE                   Dn4   v098
        BYTE   W06
        BYTE                   An3   v099
        BYTE   W06
        BYTE                   Cn4   v100
        BYTE   W06
        BYTE                   Gn4   v101
        BYTE   W06
        BYTE                   Cn4   v102
        BYTE   W06
        BYTE                   Fs4   v103
        BYTE   W06
        BYTE                   Dn4   v104
        BYTE   W06
        BYTE                   An3   v105
        BYTE   W06
        BYTE                   Cn4   v106
        BYTE   W06
        BYTE   PEND
// 024   ----------------------------------------
FortuneRavine_13_24:
        BYTE           N06     Gn4   v107
        BYTE   W06
        BYTE                   Cn4
        BYTE   W06
        BYTE                   Fs4   v108
        BYTE   W06
        BYTE                   Dn4   v109
        BYTE   W06
        BYTE                   An3   v110
        BYTE   W06
        BYTE                   Cn4   v111
        BYTE   W06
        BYTE                   Gn4   v112
        BYTE   W06
        BYTE                   Cn4   v113
        BYTE   W06
        BYTE                   Fs4   v114
        BYTE   W06
        BYTE                   Dn4   v115
        BYTE   W06
        BYTE                   An3   v116
        BYTE   W06
        BYTE                   Cn4   v117
        BYTE   W06
        BYTE                   Gn4   v118
        BYTE   W06
        BYTE                   Cn4   v119
        BYTE   W06
        BYTE                   Fs4   v120
        BYTE   W06
        BYTE                   Dn4
        BYTE   W06
        BYTE   PEND
// 025   ----------------------------------------
FortuneRavine_13_25:
        BYTE           N06     An3   v121
        BYTE   W06
        BYTE                   Cn4   v122
        BYTE   W06
        BYTE                   Gn4   v123
        BYTE   W06
        BYTE                   Cn4   v124
        BYTE   W06
        BYTE                   Fs4   v125
        BYTE   W06
        BYTE                   Dn4   v124
        BYTE   W06
        BYTE                   An3   v122
        BYTE   W06
        BYTE                   Cn4   v121
        BYTE   W06
        BYTE                   Gn4   v120
        BYTE   W06
        BYTE                   Cn4   v119
        BYTE   W06
        BYTE                   Fs4   v118
        BYTE   W06
        BYTE                   Dn4   v116
        BYTE   W06
        BYTE                   An3   v115
        BYTE   W06
        BYTE                   Cn4   v114
        BYTE   W06
        BYTE                   Gn4   v113
        BYTE   W06
        BYTE                   Cn4   v112
        BYTE   W06
        BYTE   PEND
// 026   ----------------------------------------
FortuneRavine_13_26:
        BYTE           N06     Fs4   v110
        BYTE   W06
        BYTE                   Dn4   v109
        BYTE   W06
        BYTE                   An3   v108
        BYTE   W06
        BYTE                   Cn4   v107
        BYTE   W06
        BYTE                   Gn4   v106
        BYTE   W06
        BYTE                   Cn4   v104
        BYTE   W06
        BYTE                   Fs4   v103
        BYTE   W06
        BYTE                   Dn4   v102
        BYTE   W06
        BYTE                   An3   v101
        BYTE   W06
        BYTE                   Cn4   v100
        BYTE   W06
        BYTE                   Gn4   v098
        BYTE   W06
        BYTE                   Cn4   v097
        BYTE   W06
        BYTE                   Fs4   v096
        BYTE   W06
        BYTE                   Dn4   v095
        BYTE   W06
        BYTE                   An3   v094
        BYTE   W06
        BYTE                   Cn4   v092
        BYTE   W06
        BYTE   PEND
// 027   ----------------------------------------
FortuneRavine_13_27:
        BYTE           N06     Gn4   v089
        BYTE   W06
        BYTE                   Cn4   v090
        BYTE   W06
        BYTE                   An3   v091
        BYTE   W06
        BYTE                   Cn4   v092
        BYTE   W06
        BYTE                   Gn4   v094
        BYTE   W06
        BYTE                   Cn4   v095
        BYTE   W06
        BYTE                   Fs4   v096
        BYTE   W06
        BYTE                   Dn4   v097
        BYTE   W06
        BYTE                   An3   v098
        BYTE   W06
        BYTE                   Cn4   v099
        BYTE   W06
        BYTE                   Gn4   v100
        BYTE   W06
        BYTE                   Cn4   v101
        BYTE   W06
        BYTE                   Fs4   v102
        BYTE   W06
        BYTE                   Dn4   v104
        BYTE   W06
        BYTE                   An3   v105
        BYTE   W06
        BYTE                   Cn4   v106
        BYTE   W06
        BYTE   PEND
// 028   ----------------------------------------
FortuneRavine_13_28:
        BYTE           N06     Gn4   v107
        BYTE   W06
        BYTE                   Cn4   v108
        BYTE   W06
        BYTE                   Fs4   v109
        BYTE   W06
        BYTE                   Dn4   v110
        BYTE   W06
        BYTE                   An3   v111
        BYTE   W06
        BYTE                   Cn4   v113
        BYTE   W06
        BYTE                   Gn4   v114
        BYTE   W06
        BYTE                   Cn4   v115
        BYTE   W06
        BYTE                   Fs4   v116
        BYTE   W06
        BYTE                   Dn4   v117
        BYTE   W06
        BYTE                   An3   v118
        BYTE   W06
        BYTE                   Cn4   v119
        BYTE   W06
        BYTE                   Gn4   v120
        BYTE   W06
        BYTE                   Cn4   v121
        BYTE   W06
        BYTE                   Fs4   v123
        BYTE   W06
        BYTE                   Dn4   v124
        BYTE   W06
        BYTE   PEND
// 029   ----------------------------------------
FortuneRavine_13_29:
        BYTE           N06     An3   v125
        BYTE   W06
        BYTE                   Cn4   v124
        BYTE   W06
        BYTE                   An3   v123
        BYTE   W06
        BYTE                   Cn4   v122
        BYTE   W06
        BYTE                   Gn4   v121
        BYTE   W06
        BYTE                   Cn4
        BYTE   W06
        BYTE                   Fs4   v120
        BYTE   W06
        BYTE                   Dn4   v119
        BYTE   W06
        BYTE                   An3   v118
        BYTE   W06
        BYTE                   Cn4   v117
        BYTE   W06
        BYTE                   Gn4   v116
        BYTE   W06
        BYTE                   Cn4   v115
        BYTE   W06
        BYTE                   Fs4   v114
        BYTE   W06
        BYTE                   Dn4   v113
        BYTE   W06
        BYTE                   An3   v112
        BYTE   W06
        BYTE                   Cn4   v111
        BYTE   W06
        BYTE   PEND
// 030   ----------------------------------------
FortuneRavine_13_30:
        BYTE           N06     Gn4   v110
        BYTE   W06
        BYTE                   Cn4   v111
        BYTE   W06
        BYTE                   Fs4
        BYTE   W06
        BYTE                   Dn4   v112
        BYTE   W06
        BYTE                   An3   v113
        BYTE   W06
        BYTE                   Cn4   v114
        BYTE   W06
        BYTE                   Gn4   v115
        BYTE   W06
        BYTE                   Cn4   v116
        BYTE   W06
        BYTE                   Fs4   v117
        BYTE   W06
        BYTE                   Dn4   v118
        BYTE   W06
        BYTE                   An3   v119
        BYTE   W06
        BYTE                   Cn4   v120
        BYTE   W06
        BYTE                   Gn4   v121
        BYTE   W06
        BYTE                   Cn4
        BYTE   W06
        BYTE                   Fs4   v122
        BYTE   W06
        BYTE                   Dn4   v123
        BYTE   W06
        BYTE   PEND
// 031   ----------------------------------------
FortuneRavine_13_31:
        BYTE           N06     An3   v124
        BYTE   W06
        BYTE                   Cn4   v125
        BYTE   W06
        BYTE                   Gn4   v126
        BYTE   W06
        BYTE                   Cn4   v127
        BYTE   W06
        BYTE                   Fs4   v125
        BYTE   W06
        BYTE                   Dn4   v123
        BYTE   W06
        BYTE                   An3   v122
        BYTE   W06
        BYTE                   Cn4   v120
        BYTE   W06
        BYTE                   Gn4   v119
        BYTE   W06
        BYTE                   Cn4   v118
        BYTE   W06
        BYTE                   Fs4   v116
        BYTE   W06
        BYTE                   Dn4   v115
        BYTE   W06
        BYTE                   An3   v114
        BYTE   W06
        BYTE                   Cn4   v112
        BYTE   W06
        BYTE                   Gn4   v111
        BYTE   W06
        BYTE                   Cn4   v110
        BYTE   W06
        BYTE   PEND
// 032   ----------------------------------------
        BYTE   PATT
         POIN2  FortuneRavine_13_4
// 033   ----------------------------------------
        BYTE   PATT
         POIN2  FortuneRavine_13_5
// 034   ----------------------------------------
        BYTE   PATT
         POIN2  FortuneRavine_13_6
// 035   ----------------------------------------
        BYTE   PATT
         POIN2  FortuneRavine_13_7
// 036   ----------------------------------------
        BYTE   PATT
         POIN2  FortuneRavine_13_8
// 037   ----------------------------------------
        BYTE   PATT
         POIN2  FortuneRavine_13_9
// 038   ----------------------------------------
        BYTE   PATT
         POIN2  FortuneRavine_13_10
// 039   ----------------------------------------
        BYTE   PATT
         POIN2  FortuneRavine_13_11
// 040   ----------------------------------------
        BYTE   PATT
         POIN2  FortuneRavine_13_12
// 041   ----------------------------------------
        BYTE   PATT
         POIN2  FortuneRavine_13_13
// 042   ----------------------------------------
        BYTE   PATT
         POIN2  FortuneRavine_13_14
// 043   ----------------------------------------
        BYTE   PATT
         POIN2  FortuneRavine_13_15
// 044   ----------------------------------------
        BYTE   PATT
         POIN2  FortuneRavine_13_16
// 045   ----------------------------------------
        BYTE   PATT
         POIN2  FortuneRavine_13_17
// 046   ----------------------------------------
        BYTE   PATT
         POIN2  FortuneRavine_13_18
// 047   ----------------------------------------
        BYTE   PATT
         POIN2  FortuneRavine_13_19
// 048   ----------------------------------------
        BYTE   PATT
         POIN2  FortuneRavine_13_20
// 049   ----------------------------------------
        BYTE   PATT
         POIN2  FortuneRavine_13_21
// 050   ----------------------------------------
        BYTE   PATT
         POIN2  FortuneRavine_13_22
// 051   ----------------------------------------
        BYTE   PATT
         POIN2  FortuneRavine_13_23
// 052   ----------------------------------------
        BYTE   PATT
         POIN2  FortuneRavine_13_24
// 053   ----------------------------------------
        BYTE   PATT
         POIN2  FortuneRavine_13_25
// 054   ----------------------------------------
        BYTE   PATT
         POIN2  FortuneRavine_13_26
// 055   ----------------------------------------
        BYTE   PATT
         POIN2  FortuneRavine_13_27
// 056   ----------------------------------------
        BYTE   PATT
         POIN2  FortuneRavine_13_28
// 057   ----------------------------------------
        BYTE   PATT
         POIN2  FortuneRavine_13_29
// 058   ----------------------------------------
        BYTE   PATT
         POIN2  FortuneRavine_13_30
// 059   ----------------------------------------
        BYTE   PATT
         POIN2  FortuneRavine_13_31
// 060   ----------------------------------------
        BYTE   PATT
         POIN2  FortuneRavine_13_4
// 061   ----------------------------------------
        BYTE   PATT
         POIN2  FortuneRavine_13_5
// 062   ----------------------------------------
        BYTE   PATT
         POIN2  FortuneRavine_13_6
// 063   ----------------------------------------
        BYTE   PATT
         POIN2  FortuneRavine_13_7
// 064   ----------------------------------------
        BYTE   PATT
         POIN2  FortuneRavine_13_8
// 065   ----------------------------------------
        BYTE   FINE

//***************** Track 14 (Midi-Chn.15) *****************//

FortuneRavine_14:
        BYTE   KEYSH   FortuneRavine_key+0
// 000   ----------------------------------------
        BYTE   W24
// 001   ----------------------------------------
        BYTE           PAN     c_v+16
        BYTE           VOL     104
        BYTE           VOICE   47
        BYTE   W96
// 002   ----------------------------------------
        BYTE   W96
// 003   ----------------------------------------
        BYTE   W96
// 004   ----------------------------------------
        BYTE   W96
// 005   ----------------------------------------
        BYTE   W96
// 006   ----------------------------------------
        BYTE   W96
// 007   ----------------------------------------
        BYTE   W96
// 008   ----------------------------------------
        BYTE   W96
// 009   ----------------------------------------
FortuneRavine_14_9:
        BYTE           N06     An1   v114
        BYTE   W06
        BYTE                   An1   v113
        BYTE   W06
        BYTE                   An1   v114
        BYTE   W06
        BYTE                   An1   v118
        BYTE   W78
        BYTE   PEND
// 010   ----------------------------------------
        BYTE   PATT
         POIN2  FortuneRavine_14_9
// 011   ----------------------------------------
FortuneRavine_14_11:
        BYTE           N06     An1   v125
        BYTE   W06
        BYTE                   An1   v098
        BYTE   W06
        BYTE                   An1   v107
        BYTE   W06
        BYTE                   An1   v112
        BYTE   W06
        BYTE                   An1   v115
        BYTE   W06
        BYTE                   An1   v124
        BYTE   W06
        BYTE                   An1   v127
        BYTE   W60
        BYTE   PEND
// 012   ----------------------------------------
        BYTE   PATT
         POIN2  FortuneRavine_14_11
// 013   ----------------------------------------
        BYTE   PATT
         POIN2  FortuneRavine_14_9
// 014   ----------------------------------------
        BYTE   PATT
         POIN2  FortuneRavine_14_9
// 015   ----------------------------------------
FortuneRavine_14_15:
        BYTE           N06     Cn2   v125
        BYTE   W06
        BYTE                   Cn2   v098
        BYTE   W06
        BYTE                   Cn2   v107
        BYTE   W06
        BYTE                   Cn2   v112
        BYTE   W06
        BYTE                   Cn2   v115
        BYTE   W06
        BYTE                   Cn2   v124
        BYTE   W06
        BYTE                   Dn2   v125
        BYTE   W06
        BYTE                   Dn2   v098
        BYTE   W06
        BYTE                   Dn2   v107
        BYTE   W06
        BYTE                   Dn2   v112
        BYTE   W06
        BYTE                   Dn2   v115
        BYTE   W06
        BYTE                   Dn2   v124
        BYTE   W06
        BYTE                   Dn2   v127
        BYTE   W24
        BYTE   PEND
// 016   ----------------------------------------
        BYTE   W96
// 017   ----------------------------------------
        BYTE   PATT
         POIN2  FortuneRavine_14_15
// 018   ----------------------------------------
FortuneRavine_14_18:
        BYTE   W66
        BYTE           N06     An1   v127
        BYTE   W06
        BYTE                   An1
        BYTE   W06
        BYTE                   En1
        BYTE   W06
        BYTE                   En1
        BYTE   W06
        BYTE                   An1
        BYTE   W06
        BYTE   PEND
// 019   ----------------------------------------
FortuneRavine_14_19:
        BYTE           N06     An1   v125
        BYTE   W18
        BYTE                   An1   v126
        BYTE   W18
        BYTE                   An1   v124
        BYTE   W18
        BYTE                   An1   v125
        BYTE   W18
        BYTE                   An1   v126
        BYTE   W24
        BYTE   PEND
// 020   ----------------------------------------
        BYTE   PATT
         POIN2  FortuneRavine_14_19
// 021   ----------------------------------------
        BYTE   PATT
         POIN2  FortuneRavine_14_19
// 022   ----------------------------------------
        BYTE   PATT
         POIN2  FortuneRavine_14_19
// 023   ----------------------------------------
        BYTE   PATT
         POIN2  FortuneRavine_14_19
// 024   ----------------------------------------
        BYTE   PATT
         POIN2  FortuneRavine_14_19
// 025   ----------------------------------------
FortuneRavine_14_25:
        BYTE           N06     Cn2   v125
        BYTE   W18
        BYTE                   Cn2   v126
        BYTE   W18
        BYTE                   Dn2   v124
        BYTE   W18
        BYTE                   Dn2   v125
        BYTE   W18
        BYTE                   Dn2   v126
        BYTE   W24
        BYTE   PEND
// 026   ----------------------------------------
FortuneRavine_14_26:
        BYTE           N06     An1   v125
        BYTE   W18
        BYTE                   An1   v126
        BYTE   W18
        BYTE                   An1   v124
        BYTE   W18
        BYTE                   An1   v125
        BYTE   W18
        BYTE                   Gn1   v126
        BYTE   W24
        BYTE   PEND
// 027   ----------------------------------------
        BYTE   PATT
         POIN2  FortuneRavine_14_25
// 028   ----------------------------------------
        BYTE   PATT
         POIN2  FortuneRavine_14_26
// 029   ----------------------------------------
        BYTE   PATT
         POIN2  FortuneRavine_14_9
// 030   ----------------------------------------
        BYTE   PATT
         POIN2  FortuneRavine_14_9
// 031   ----------------------------------------
        BYTE   PATT
         POIN2  FortuneRavine_14_11
// 032   ----------------------------------------
        BYTE   PATT
         POIN2  FortuneRavine_14_11
// 033   ----------------------------------------
        BYTE   PATT
         POIN2  FortuneRavine_14_9
// 034   ----------------------------------------
        BYTE   PATT
         POIN2  FortuneRavine_14_9
// 035   ----------------------------------------
        BYTE   PATT
         POIN2  FortuneRavine_14_11
// 036   ----------------------------------------
        BYTE   PATT
         POIN2  FortuneRavine_14_11
// 037   ----------------------------------------
        BYTE   PATT
         POIN2  FortuneRavine_14_9
// 038   ----------------------------------------
        BYTE   PATT
         POIN2  FortuneRavine_14_9
// 039   ----------------------------------------
        BYTE   PATT
         POIN2  FortuneRavine_14_11
// 040   ----------------------------------------
        BYTE   PATT
         POIN2  FortuneRavine_14_11
// 041   ----------------------------------------
        BYTE   PATT
         POIN2  FortuneRavine_14_9
// 042   ----------------------------------------
        BYTE   PATT
         POIN2  FortuneRavine_14_9
// 043   ----------------------------------------
        BYTE   PATT
         POIN2  FortuneRavine_14_15
// 044   ----------------------------------------
        BYTE   W96
// 045   ----------------------------------------
        BYTE   PATT
         POIN2  FortuneRavine_14_15
// 046   ----------------------------------------
        BYTE   PATT
         POIN2  FortuneRavine_14_18
// 047   ----------------------------------------
        BYTE   PATT
         POIN2  FortuneRavine_14_19
// 048   ----------------------------------------
        BYTE   PATT
         POIN2  FortuneRavine_14_19
// 049   ----------------------------------------
        BYTE   PATT
         POIN2  FortuneRavine_14_19
// 050   ----------------------------------------
        BYTE   PATT
         POIN2  FortuneRavine_14_19
// 051   ----------------------------------------
        BYTE   PATT
         POIN2  FortuneRavine_14_19
// 052   ----------------------------------------
        BYTE   PATT
         POIN2  FortuneRavine_14_19
// 053   ----------------------------------------
        BYTE   PATT
         POIN2  FortuneRavine_14_25
// 054   ----------------------------------------
        BYTE   PATT
         POIN2  FortuneRavine_14_26
// 055   ----------------------------------------
        BYTE   PATT
         POIN2  FortuneRavine_14_25
// 056   ----------------------------------------
        BYTE   PATT
         POIN2  FortuneRavine_14_26
// 057   ----------------------------------------
        BYTE   PATT
         POIN2  FortuneRavine_14_9
// 058   ----------------------------------------
        BYTE   PATT
         POIN2  FortuneRavine_14_9
// 059   ----------------------------------------
        BYTE   PATT
         POIN2  FortuneRavine_14_11
// 060   ----------------------------------------
        BYTE   PATT
         POIN2  FortuneRavine_14_11
// 061   ----------------------------------------
        BYTE   PATT
         POIN2  FortuneRavine_14_9
// 062   ----------------------------------------
        BYTE   PATT
         POIN2  FortuneRavine_14_9
// 063   ----------------------------------------
        BYTE   PATT
         POIN2  FortuneRavine_14_11
// 064   ----------------------------------------
        BYTE   PATT
         POIN2  FortuneRavine_14_11
// 065   ----------------------------------------
        BYTE   FINE

//***************** Track 15 (Midi-Chn.9) ******************//

FortuneRavine_15:
        BYTE   KEYSH   FortuneRavine_key+0
// 000   ----------------------------------------
        BYTE   W24
// 001   ----------------------------------------
        BYTE           VOL     87
        BYTE           VOICE   0
        BYTE           N06     An3   v107
        BYTE   W06
        BYTE                   An3   v056
        BYTE   W06
        BYTE                   An3   v047
        BYTE   W06
        BYTE                   An3   v037
        BYTE   W06
        BYTE                   An3   v107
        BYTE   W06
        BYTE                   An3   v051
        BYTE   W06
        BYTE                   An3   v107
        BYTE   W06
        BYTE                   An3   v056
        BYTE   W06
        BYTE                   An3   v047
        BYTE   W06
        BYTE                   An3   v037
        BYTE   W06
        BYTE                   An3   v107
        BYTE   W06
        BYTE                   An3   v051
        BYTE   W06
        BYTE                   An3   v107
        BYTE   W06
        BYTE                   An3   v056
        BYTE   W06
        BYTE                   An3   v073
        BYTE   W06
        BYTE                   An3   v052
        BYTE   W06
// 002   ----------------------------------------
FortuneRavine_15_2:
        BYTE           N06     An3   v107
        BYTE   W06
        BYTE                   An3   v056
        BYTE   W06
        BYTE                   An3   v047
        BYTE   W06
        BYTE                   An3   v037
        BYTE   W06
        BYTE                   An3   v107
        BYTE   W06
        BYTE                   An3   v051
        BYTE   W06
        BYTE                   An3   v107
        BYTE   W06
        BYTE                   An3   v056
        BYTE   W06
        BYTE                   An3   v047
        BYTE   W06
        BYTE                   An3   v037
        BYTE   W06
        BYTE                   An3   v107
        BYTE   W06
        BYTE                   An3   v051
        BYTE   W06
        BYTE                   An3   v107
        BYTE   W06
        BYTE                   An3   v056
        BYTE   W06
        BYTE                   An3   v073
        BYTE   W06
        BYTE                   An3   v052
        BYTE   W06
        BYTE   PEND
// 003   ----------------------------------------
        BYTE   PATT
         POIN2  FortuneRavine_15_2
// 004   ----------------------------------------
        BYTE   PATT
         POIN2  FortuneRavine_15_2
// 005   ----------------------------------------
        BYTE   PATT
         POIN2  FortuneRavine_15_2
// 006   ----------------------------------------
        BYTE   PATT
         POIN2  FortuneRavine_15_2
// 007   ----------------------------------------
        BYTE   PATT
         POIN2  FortuneRavine_15_2
// 008   ----------------------------------------
        BYTE   PATT
         POIN2  FortuneRavine_15_2
// 009   ----------------------------------------
FortuneRavine_15_9:
        BYTE           N06     An3   v107
        BYTE           N12     Cn1   v127
        BYTE   W06
        BYTE           N06     An3   v056
        BYTE   W06
        BYTE                   An3   v047
        BYTE   W06
        BYTE                   An3   v037
        BYTE           N12     Cn1   v127
        BYTE   W06
        BYTE           N06     An3   v107
        BYTE   W06
        BYTE                   An3   v051
        BYTE   W06
        BYTE                   An3   v107
        BYTE   W06
        BYTE                   An3   v056
        BYTE   W06
        BYTE                   An3   v047
        BYTE   W06
        BYTE                   An3   v037
        BYTE   W06
        BYTE                   An3   v107
        BYTE   W06
        BYTE                   An3   v051
        BYTE   W06
        BYTE                   An3   v107
        BYTE   W06
        BYTE                   An3   v056
        BYTE   W06
        BYTE                   An3   v073
        BYTE   W06
        BYTE                   An3   v052
        BYTE   W06
        BYTE   PEND
// 010   ----------------------------------------
        BYTE   PATT
         POIN2  FortuneRavine_15_2
// 011   ----------------------------------------
        BYTE   PATT
         POIN2  FortuneRavine_15_9
// 012   ----------------------------------------
        BYTE   PATT
         POIN2  FortuneRavine_15_2
// 013   ----------------------------------------
        BYTE   PATT
         POIN2  FortuneRavine_15_9
// 014   ----------------------------------------
        BYTE   PATT
         POIN2  FortuneRavine_15_2
// 015   ----------------------------------------
        BYTE   PATT
         POIN2  FortuneRavine_15_9
// 016   ----------------------------------------
        BYTE   PATT
         POIN2  FortuneRavine_15_2
// 017   ----------------------------------------
FortuneRavine_15_17:
        BYTE           N06     An3   v107
        BYTE           N12     Cn1   v127
        BYTE   W06
        BYTE           N06     An3   v056
        BYTE   W06
        BYTE                   An3   v047
        BYTE   W06
        BYTE                   An3   v037
        BYTE   W06
        BYTE                   An3   v107
        BYTE   W06
        BYTE                   An3   v051
        BYTE   W06
        BYTE                   An3   v107
        BYTE           N12     Cn1   v127
        BYTE   W06
        BYTE           N06     An3   v056
        BYTE   W06
        BYTE                   An3   v047
        BYTE   W06
        BYTE                   An3   v037
        BYTE   W06
        BYTE                   An3   v107
        BYTE   W06
        BYTE                   An3   v051
        BYTE   W06
        BYTE                   An3   v107
        BYTE           N12     Cn1   v127
        BYTE   W06
        BYTE           N06     An3   v056
        BYTE   W06
        BYTE                   An3   v073
        BYTE   W06
        BYTE                   An3   v052
        BYTE   W06
        BYTE   PEND
// 018   ----------------------------------------
        BYTE   PATT
         POIN2  FortuneRavine_15_17
// 019   ----------------------------------------
        BYTE   PATT
         POIN2  FortuneRavine_15_17
// 020   ----------------------------------------
        BYTE   PATT
         POIN2  FortuneRavine_15_17
// 021   ----------------------------------------
        BYTE   PATT
         POIN2  FortuneRavine_15_17
// 022   ----------------------------------------
        BYTE   PATT
         POIN2  FortuneRavine_15_17
// 023   ----------------------------------------
        BYTE   PATT
         POIN2  FortuneRavine_15_17
// 024   ----------------------------------------
        BYTE   PATT
         POIN2  FortuneRavine_15_17
// 025   ----------------------------------------
        BYTE   PATT
         POIN2  FortuneRavine_15_17
// 026   ----------------------------------------
        BYTE   PATT
         POIN2  FortuneRavine_15_17
// 027   ----------------------------------------
        BYTE   PATT
         POIN2  FortuneRavine_15_17
// 028   ----------------------------------------
        BYTE   PATT
         POIN2  FortuneRavine_15_17
// 029   ----------------------------------------
        BYTE   PATT
         POIN2  FortuneRavine_15_2
// 030   ----------------------------------------
        BYTE   PATT
         POIN2  FortuneRavine_15_2
// 031   ----------------------------------------
        BYTE   PATT
         POIN2  FortuneRavine_15_2
// 032   ----------------------------------------
        BYTE   PATT
         POIN2  FortuneRavine_15_2
// 033   ----------------------------------------
        BYTE   PATT
         POIN2  FortuneRavine_15_2
// 034   ----------------------------------------
        BYTE   PATT
         POIN2  FortuneRavine_15_2
// 035   ----------------------------------------
        BYTE   PATT
         POIN2  FortuneRavine_15_2
// 036   ----------------------------------------
        BYTE   PATT
         POIN2  FortuneRavine_15_2
// 037   ----------------------------------------
        BYTE   PATT
         POIN2  FortuneRavine_15_9
// 038   ----------------------------------------
        BYTE   PATT
         POIN2  FortuneRavine_15_2
// 039   ----------------------------------------
        BYTE   PATT
         POIN2  FortuneRavine_15_9
// 040   ----------------------------------------
        BYTE   PATT
         POIN2  FortuneRavine_15_2
// 041   ----------------------------------------
        BYTE   PATT
         POIN2  FortuneRavine_15_9
// 042   ----------------------------------------
        BYTE   PATT
         POIN2  FortuneRavine_15_2
// 043   ----------------------------------------
        BYTE   PATT
         POIN2  FortuneRavine_15_9
// 044   ----------------------------------------
        BYTE   PATT
         POIN2  FortuneRavine_15_2
// 045   ----------------------------------------
        BYTE   PATT
         POIN2  FortuneRavine_15_17
// 046   ----------------------------------------
        BYTE   PATT
         POIN2  FortuneRavine_15_17
// 047   ----------------------------------------
        BYTE   PATT
         POIN2  FortuneRavine_15_17
// 048   ----------------------------------------
        BYTE   PATT
         POIN2  FortuneRavine_15_17
// 049   ----------------------------------------
        BYTE   PATT
         POIN2  FortuneRavine_15_17
// 050   ----------------------------------------
        BYTE   PATT
         POIN2  FortuneRavine_15_17
// 051   ----------------------------------------
        BYTE   PATT
         POIN2  FortuneRavine_15_17
// 052   ----------------------------------------
        BYTE   PATT
         POIN2  FortuneRavine_15_17
// 053   ----------------------------------------
        BYTE   PATT
         POIN2  FortuneRavine_15_17
// 054   ----------------------------------------
        BYTE   PATT
         POIN2  FortuneRavine_15_17
// 055   ----------------------------------------
        BYTE   PATT
         POIN2  FortuneRavine_15_17
// 056   ----------------------------------------
        BYTE   PATT
         POIN2  FortuneRavine_15_17
// 057   ----------------------------------------
        BYTE   PATT
         POIN2  FortuneRavine_15_2
// 058   ----------------------------------------
        BYTE   PATT
         POIN2  FortuneRavine_15_2
// 059   ----------------------------------------
        BYTE   PATT
         POIN2  FortuneRavine_15_2
// 060   ----------------------------------------
        BYTE   PATT
         POIN2  FortuneRavine_15_2
// 061   ----------------------------------------
        BYTE   PATT
         POIN2  FortuneRavine_15_2
// 062   ----------------------------------------
        BYTE   PATT
         POIN2  FortuneRavine_15_2
// 063   ----------------------------------------
        BYTE   PATT
         POIN2  FortuneRavine_15_2
// 064   ----------------------------------------
        BYTE   PATT
         POIN2  FortuneRavine_15_2
// 065   ----------------------------------------
        BYTE   FINE


//********************** End of Song ***********************//

        .align  2
FortuneRavine:
        BYTE   16                      // Num Tracks
        BYTE   0                       // Unknown
        BYTE   FortuneRavine_pri       // Priority
        BYTE   FortuneRavine_rev       // Reverb

        POIN2   FortuneRavine_grp      

        POIN2   FortuneRavine_0
        POIN2   FortuneRavine_1
        POIN2   FortuneRavine_2
        POIN2   FortuneRavine_3
        POIN2   FortuneRavine_4
        POIN2   FortuneRavine_5
        POIN2   FortuneRavine_6
        POIN2   FortuneRavine_7
        POIN2   FortuneRavine_8
        POIN2   FortuneRavine_9
        POIN2   FortuneRavine_10
        POIN2   FortuneRavine_11
        POIN2   FortuneRavine_12
        POIN2   FortuneRavine_13
        POIN2   FortuneRavine_14
        POIN2   FortuneRavine_15

        
